/* XPM */
static char * C4_xpm[] = {
/* width height colors chars_per_pixel */
"20  640 8 1"
/* colors */
" 	c None",
".	c #9A9A9A9AAFAF",
"X	c #8D8D8D8DA0A0",
"o	c #A9A9A9A9C0C0",
"O	c #C6C6C6C6E0E0",
"+	c #00008080FFFF",
"@	c #FFFF00000000",
"#	c #B0B000000000",
/* pixmaps */
"                    ",
"         ..         ",
"        XooX        ",
"        .OO.        ",
"    .  XOOOOX  .    ",
"   .   XoOOoX   .   ",
"   .    .oo.    .   ",
"   .   XOOOOX   .   ",
"   ..  XOOOOX  ..   ",
"   ..   .oo.   ..   ",
"   ..X XOOOOX X..   ",
"   o.XooOOOOooX.o   ",
"   +oooOOOOOOooo+   ",
"   +o.ooOOOOoo.o+   ",
"   +o.ooOOOOoo.o+   ",
"   +o..oOOOOo..o+   ",
"    +. oo@@oo .+    ",
"        .##.        ",
"                    ",
"                    ",
"                    ",
"           ..       ",
"         Xooo       ",
"     .   .OO.       ",
"    .   XOOOO       ",
"    .   XoOOoX  .   ",
"    .    .oo.X   .  ",
"   ..  XOOOOO    .  ",
"   ..   OOOOX   .   ",
"   ..X  .oo.   ..   ",
"   o.XoXOOOOX  ..   ",
"   +ooooOOOOX X..   ",
"  +o.ooOOOOOooX.o   ",
"  +o.ooOOOOoooo+    ",
"  +o..oOOOOoo.o+    ",
"   +. oOOOOoo.o+    ",
"       o@@oo..o+    ",
"       ###.  .+     ",
"                    ",
"                    ",
"                    ",
"            .       ",
"       .   Xo.      ",
"     .   X .OoX     ",
"     .   XOOO.      ",
"    .     oOOOX     ",
"    ..  X.ooOoX     ",
"   ...  XOOO.    .  ",
"   o.X  .OOOOX   .  ",
"   +.X XOooOX    .  ",
"  +oooooOOO.   ..   ",
"  +o.oOOOOOOX  ..   ",
" +oo.ooOOOOooX...   ",
"  +..oOOOOOOoX.o    ",
"   . oOOOOoo.oo+    ",
"     oo@OOoo.o+     ",
"     .#@ooo..o+     ",
"       #.  .o+      ",
"            +       ",
"                    ",
"                    ",
"                    ",
"       ..     .     ",
"      .     .oo.    ",
"     .    XOOOoX    ",
"     ..   XoOO.     ",
"    ..   X.oOOOX    ",
"   o..  XOOOooX     ",
"   +.X X .OOO    .  ",
"  +ooooXOooOOX      ",
" +oo.oOOOOO.     .  ",
" +o.oooOOOOX   ..   ",
" +...oOOOOOo X...   ",
"    oOOOOOOoXX..    ",
"    ooOOOoooo.o     ",
"    .#@OOoo.oo+     ",
"     ##oo...o+      ",
"          .o+       ",
"          +++       ",
"                    ",
"                    ",
"                    ",
"        .           ",
"       .      X.    ",
"      .    XX.oo.   ",
"     ..    XoOOoX   ",
"    o.X  XX.OOO.    ",
"   +oXX  XOOoOoX    ",
"  +ooooXX.OOO.XX    ",
" +o..oOoOOoOOX      ",
" +..ooOOOOo.XX      ",
"  ..ooOOOOO      .  ",
"   ooOOOOOoX    .   ",
"    oOOOOOOoX ..    ",
"   .#@OOooooX..     ",
"    ##oooo.ooo      ",
"     . o...o+       ",
"        ..o+        ",
"         ++         ",
"                    ",
"                    ",
"                    ",
"         . .        ",
"       ..           ",
"      ...    X X.   ",
"    +o..    XO.oo.  ",
"   +o.XX  X oOOOo   ",
" ++oooX   OOoOOO.   ",
" +o..oooX.OOOooO    ",
" +..ooOOOOoOO.XX    ",
"   .ooOOOOo.OX      ",
"   oOOOOOOO X    .  ",
"   oOOOOOOXX     .  ",
"   #@OOOoOo   . .   ",
"   ##oOooooX....    ",
"    .oo.o.o...      ",
"       ..oo+o       ",
"       .oo+         ",
"       +++          ",
"                    ",
"                    ",
"                    ",
"          ...       ",
"       ...          ",
"     +o...          ",
"   ++o..     XX X   ",
"  +oooXX   X oO.o.  ",
" +o...ooX XO.OOOOo. ",
"  ..ooOoO.OOOoOO.X  ",
"   oooOOOOoOOooO    ",
"   oOOOOOOoOO. XX   ",
"  .oOOOOOOO.XX      ",
"  #@@OOOOoX      .  ",
"   #oOOoOo          ",
"   .ooooooXX.. ..   ",
"      ...o.....     ",
"     ..ooo+o.       ",
"      +o++          ",
"       +            ",
"                    ",
"                    ",
"                    ",
"            ..      ",
"       o....  .     ",
"   ++++....         ",
"  +ooooXX           ",
"  ....oo     XX     ",
"   .ooooXX XO.oO.o. ",
"   ooooOOO.OOoOOOo. ",
"  .oOOOOOOoOOoOOOo  ",
"  #@OOOOOOoOO.oO.X  ",
"  #@OOOOOO.OO XX    ",
"  #oOOOOoX  X       ",
"    oooooo          ",
"     .oooXX     .   ",
"    ....o.......    ",
"    +ooo+o...       ",
"     +++            ",
"                    ",
"                    ",
"                    ",
"                    ",
"                    ",
"    ++++o......     ",
"   +oooo....   .    ",
"   ....oXX          ",
"    .oooo           ",
"   ooooOoX XX XX    ",
"  .oOOOOOO.OO.oO.X  ",
"  #@OOOOOOoOOoOOOo. ",
"  #@OOOOOOoOOoOOOo. ",
"  .oOOOOOO.OO.oO.X  ",
"   ooooOoX XX XX    ",
"    .oooo           ",
"   ....oXX          ",
"   +oooo....   .    ",
"    ++++o......     ",
"                    ",
"                    ",
"                    ",
"                    ",
"                    ",
"     +++            ",
"    +ooo+o...       ",
"    ....o.......    ",
"     .oooXX     .   ",
"    oooooo          ",
"  #oOOOOoX  X       ",
"  #@OOOOOO.OO XX    ",
"  #@OOOOOOoOO.oO.X  ",
"  .oOOOOOOoOOoOOOo  ",
"   ooooOOO.OOoOOOo. ",
"   .ooooXX XO.oO.o. ",
"  ....oo     XX     ",
"  +ooooXX           ",
"   ++++....         ",
"       o....  .     ",
"            ..      ",
"                    ",
"                    ",
"                    ",
"       +            ",
"      +o++          ",
"     ..ooo+o.       ",
"      ...o.....     ",
"   .ooooooXX.. ..   ",
"   #oOOoOo          ",
"  #@@OOOOoX      .  ",
"  .oOOOOOOO.XX      ",
"   oOOOOOOoOO. XX   ",
"   oooOOOOoOOooO    ",
"  ..ooOoO.OOOoOO.X  ",
" +o...ooX XO.OOOOo. ",
"  +oooXX   X oO.o.  ",
"   ++o..     XX X   ",
"     +o...          ",
"       ...          ",
"          ...       ",
"                    ",
"                    ",
"                    ",
"       +++          ",
"       .oo+         ",
"       ..oo+o       ",
"    .oo.o.o...      ",
"   ##oOooooX....    ",
"   #@OOOoOo   . .   ",
"   oOOOOOOXX     .  ",
"   oOOOOOOO X    .  ",
"   .ooOOOOo.OX      ",
" +..ooOOOOoOO.XX    ",
" +o..oooX.OOOooO    ",
" ++oooX   OOoOOO.   ",
"   +o.XX  X oOOOo   ",
"    +o..    XO.oo.  ",
"      ...    X X.   ",
"       ..           ",
"         . .        ",
"                    ",
"                    ",
"                    ",
"         ++         ",
"        ..o+        ",
"     . o...o+       ",
"    ##oooo.ooo      ",
"   .#@OOooooX..     ",
"    oOOOOOOoXX..    ",
"   ooOOOOOoX    .   ",
"  ..ooOOOOOX     .  ",
" +..ooOOOOO.XX      ",
" +o..oOoOooOOX      ",
"  +ooooX .OOO.XX    ",
"   +oXX  XOOoOoX    ",
"    o.   XX.OOO.    ",
"     ..    XoOOoX   ",
"      .    XX.oo.   ",
"       .      X.    ",
"        .           ",
"                    ",
"                    ",
"                    ",
"          +++       ",
"          .o+       ",
"     ##oo...o+      ",
"    .#@OOoo.oo+     ",
"    ooOOOoooo.o     ",
"    oOOOOOOoXX..    ",
" +...oOOOOOo X...   ",
" +o.oooOOOOX   ..   ",
" +oo.oOOOOO.     .  ",
"  +ooooXOooOOX      ",
"   +.X X .OOO    .  ",
"   o..  XOOOooX     ",
"    ..   X.oOOOX    ",
"     ..   XoOO.     ",
"     .    XOOOoX    ",
"      .     .oo.    ",
"       ..     .     ",
"                    ",
"                    ",
"                    ",
"            +       ",
"       #.  .o+      ",
"     .#@ooo..o+     ",
"     oo@OOoo.o+     ",
"   . oOOOOoo.oo+    ",
"  +..oOOOOOOoX.o    ",
" +oo.ooOOOOooX...   ",
"  +o.oOOOOOOX  ..   ",
"  +oooooOOO.   ..   ",
"   +.X XOooOX    .  ",
"   o.X  .OOOOX   .  ",
"   ...  XOOO.    .  ",
"    ..  X.ooOoX     ",
"    .     oOOOX     ",
"     .   XOOO.      ",
"     .   X .OoX     ",
"       .   Xo.      ",
"            .       ",
"                    ",
"                    ",
"                    ",
"       ###.  .+     ",
"       o@@oo..o+    ",
"   +. oOOOOoo.o+    ",
"  +o..oOOOOoo.o+    ",
"  +o.ooOOOOoooo+    ",
"  +o.ooOOOOOooX.o   ",
"   +ooooOOOOX X..   ",
"   o.XoXOOOOX  ..   ",
"   ..X  .oo.   ..   ",
"   ..   OOOOX   .   ",
"   ..  XOOOOO    .  ",
"    .    .oo.X   .  ",
"    .   XoOOoX  .   ",
"    .   XOOOO       ",
"     .   .OO.       ",
"         Xooo       ",
"           ..       ",
"                    ",
"                    ",
"                    ",
"        .##.        ",
"    +. oo@@oo .+    ",
"   +o..oOOOOo..o+   ",
"   +o.ooOOOOoo.o+   ",
"   +o.ooOOOOoo.o+   ",
"   +oooOOOOOOooo+   ",
"   o.XooOOOOooX.o   ",
"   ..X XOOOOX X..   ",
"   ..   .oo.   ..   ",
"   ..  XOOOOX  ..   ",
"   .   XOOOOX   .   ",
"   .    .oo.    .   ",
"   .   XoOOoX   .   ",
"    .  XOOOOX  .    ",
"        .OO.        ",
"        XooX        ",
"         ..         ",
"                    ",
"                    ",
"                    ",
"     +.  .###       ",
"    +o..oo@@o       ",
"    +o.ooOOOOo .+   ",
"    +o.ooOOOOo..o+  ",
"    +ooooOOOOoo.o+  ",
"   o.XooOOOOOoo.o+  ",
"   ..X XOOOOoooo+   ",
"   ..  XOOOOXoX.o   ",
"   ..   .oo.  X..   ",
"   .   XOOOO   ..   ",
"  .    OOOOOX  ..   ",
"  .   X.oo.    .    ",
"   .  XoOOoX   .    ",
"       OOOOX   .    ",
"       .OO.   .     ",
"       oooX         ",
"       ..           ",
"                    ",
"                    ",
"       +            ",
"      +o.  .#       ",
"     +o..ooo@#.     ",
"     +o.ooOO@oo     ",
"    +oo.ooOOOOo .   ",
"    o.XoOOOOOOo..+  ",
"   ...XooOOOOoo.oo+ ",
"   ..  XOOOOOOo.o+  ",
"   ..   .OOOooooo+  ",
"  .    XOooOX X.+   ",
"  .   XOOOO.  X.o   ",
"  .    .OOOX  ...   ",
"     XoOoo.X  ..    ",
"     XOOOo     .    ",
"      .OOOX   .     ",
"     XoO. X   .     ",
"      .oX   .       ",
"       .            ",
"                    ",
"                    ",
"       +++          ",
"       +o.          ",
"      +o...oo##     ",
"     +oo.ooOO@#.    ",
"     o.ooooOOOoo    ",
"    ..XXoOOOOOOo    ",
"   ...X oOOOOOo...+ ",
"   ..   XOOOOooo.o+ ",
"  .     .OOOOOo.oo+ ",
"      XOOooOXoooo+  ",
"  .    OOO. X X.+   ",
"     XooOOOX  ..o   ",
"    XOOOo.X   ..    ",
"     .OOoX   ..     ",
"    XoOOOX    .     ",
"    .oo.     .      ",
"     .     ..       ",
"                    ",
"                    ",
"                    ",
"         ++         ",
"        +o..        ",
"       +o...o .     ",
"      ooo.oooo##    ",
"     ..XooooOO@#.   ",
"    .. XoOOOOOOo    ",
"   .    XoOOOOOoo   ",
"  .      OOOOOoo..  ",
"      XX.oOOOOoo..+ ",
"      XOOoOOoOo..o+ ",
"    XX.OOO.XXoooo+  ",
"    XoOoOOX  XXo+   ",
"    .OOO.XX  X.o    ",
"   XoOOoX    ..     ",
"   .oo.XX    .      ",
"    .X      .       ",
"           .        ",
"                    ",
"                    ",
"                    ",
"          +++       ",
"         +oo.       ",
"       o+oo..       ",
"      ...o.o.oo.    ",
"    ....XooooOo##   ",
"   . .   oOoOOO@#   ",
"  .     XXOOOOOOo   ",
"  .    X OOOOOOOo   ",
"      XO.oOOOOoo.   ",
"    XX.OOoOOOOoo..+ ",
"    OooOOO.Xooo..o+ ",
"   .OOOoOO   Xooo++ ",
"   oOOOo X  XX.o+   ",
"  .oo.OX    ..o+    ",
"   .X X    ...      ",
"           ..       ",
"        . .         ",
"                    ",
"                    ",
"                    ",
"            +       ",
"          ++o+      ",
"       .o+ooo..     ",
"     .....o...      ",
"   .. ..XXoooooo.   ",
"          oOoOOo#   ",
"  .      XoOOOO@@#  ",
"      XX.OOOOOOOo.  ",
"   XX .OOoOOOOOOo   ",
"    OooOOoOOOOooo   ",
"  X.OOoOOO.OoOoo..  ",
" .oOOOO.OX Xoo...o+ ",
"  .o.Oo X   XXooo+  ",
"   X XX     ..o++   ",
"          ...o+     ",
"          ...       ",
"       ...          ",
"                    ",
"                    ",
"                    ",
"                    ",
"            +++     ",
"       ...o+ooo+    ",
"    .......o....    ",
"   .     XXooo.     ",
"          oooooo    ",
"       X  XoOOOOo#  ",
"    XX OO.OOOOOO@#  ",
"  X.Oo.OOoOOOOOO@#  ",
"  oOOOoOOoOOOOOOo.  ",
" .oOOOoOO.OOOoooo   ",
" .o.Oo.OX XXoooo.   ",
"     XX     oo....  ",
"           XXoooo+  ",
"         ....++++   ",
"     .  ....o       ",
"      ..            ",
"                    ",
"                    ",
"                    ",
"                    ",
"                    ",
"     ......o++++    ",
"    .   ....oooo+   ",
"          XXo....   ",
"           oooo.    ",
"    XX XX XoOoooo   ",
"  X.Oo.OO.OOOOOOo.  ",
" .oOOOoOOoOOOOOO@#  ",
" .oOOOoOOoOOOOOO@#  ",
"  X.Oo.OO.OOOOOOo.  ",
"    XX XX XoOoooo   ",
"           oooo.    ",
"          XXo....   ",
"    .   ....oooo+   ",
"     ......o++++    ",
"                    ",
"                    ",
"                    ",
"                    ",
"                    ",
"      ..            ",
"     .  ....o       ",
"         ....++++   ",
"           XXoooo+  ",
"     XX     oo....  ",
" .o.Oo.OX XXoooo.   ",
" .oOOOoOO.OOOoooo   ",
"  oOOOoOOoOOOOOOo.  ",
"  X.Oo.OOoOOOOOO@#  ",
"    XX OO.OOOOOO@#  ",
"       X  XoOOOOo#  ",
"          oooooo    ",
"   .     XXooo.     ",
"    .......o....    ",
"       ...o+ooo+    ",
"            +++     ",
"                    ",
"                    ",
"                    ",
"                    ",
"       ...          ",
"          ...       ",
"          ...o+     ",
"   X XX     ..o++   ",
"  .o.Oo X   XXooo+  ",
" .oOOOO.OX Xoo...o+ ",
"  X.OOoOOO.OoOoo..  ",
"    OooOOoOOOOooo   ",
"   XX .OOoOOOOOOo   ",
"      XX.OOOOOOOo.  ",
"  .      XoOOOO@@#  ",
"          oOoOOo#   ",
"   .. ..XXoooooo.   ",
"     .....o...      ",
"       .o+ooo..     ",
"          ++o+      ",
"            +       ",
"                    ",
"                    ",
"                    ",
"        . .         ",
"           ..       ",
"   .X X    ...      ",
"  .oo.OX    ..o+    ",
"   oOOOo X  XX.o+   ",
"   .OOOoOO   Xooo++ ",
"    OooOOO.Xooo..o+ ",
"    XX.OOoOOOOoo..+ ",
"      XO.oOOOOoo.   ",
"  .    X OOOOOOOo   ",
"  .     XXOOOOOOo   ",
"   . .   oOoOOO@#   ",
"    ....XooooOo##   ",
"      ...o.o.oo.    ",
"       o+oo..       ",
"         +oo.       ",
"          +++       ",
"                    ",
"                    ",
"                    ",
"           .        ",
"    .X      .       ",
"   .oo.XX    .      ",
"   XoOOoX    ..     ",
"    .OOO.XX   .o    ",
"    XoOoOOX  XXo+   ",
"    XX.OOO. Xoooo+  ",
"      XOOooOoOo..o+ ",
"      XX.OOOOOoo..+ ",
"  .     XOOOOOoo..  ",
"   .    XoOOOOOoo   ",
"    ..XXoOOOOOOo    ",
"     ..XooooOO@#.   ",
"      ooo.oooo##    ",
"       +o...o .     ",
"        +o..        ",
"         ++         ",
"                    ",
"                    ",
"                    ",
"     .     ..       ",
"    .oo.     .      ",
"    XoOOOX    .     ",
"     .OOoX   ..     ",
"    XOOOo.X   ..    ",
"     XooOOOX  ..o   ",
"  .    OOO. X X.+   ",
"      XOOooOXoooo+  ",
"  .     .OOOOOo.oo+ ",
"   ..   XOOOOooo.o+ ",
"   ...X oOOOOOo...+ ",
"    ..XXoOOOOOOo    ",
"     o.ooooOOOoo    ",
"     +oo.ooOO@#.    ",
"      +o...oo##     ",
"       +o.          ",
"       +++          ",
"                    ",
"                    ",
"       .            ",
"      .oX   .       ",
"     XoO. X   .     ",
"      .OOOX   .     ",
"     XOOOo     .    ",
"     XoOoo.X  ..    ",
"  .    .OOOX  ...   ",
"  .   XOOOO.  X.o   ",
"  .    XOooOX X.+   ",
"   ..   .OOOooooo+  ",
"   ..  XOOOOOOo.o+  ",
"   ...XooOOOOoo.oo+ ",
"    o.XoOOOOOOo..+  ",
"    +oo.ooOOOOo .   ",
"     +o.ooOO@oo     ",
"     +o..ooo@#.     ",
"      +o.  .#       ",
"       +            ",
"                    ",
"                    ",
"       ..           ",
"       oooX         ",
"       .OO.   .     ",
"       OOOOX   .    ",
"   .  XoOOoX   .    ",
"  .   X.oo.    .    ",
"  .    OOOOOX  ..   ",
"   .   XOOOO   ..   ",
"   ..   .oo.  X..   ",
"   ..  XOOOOXoX.o   ",
"   ..X XOOOOoooo+   ",
"   o.XooOOOOOoo.o+  ",
"    +ooooOOOOoo.o+  ",
"    +o.ooOOOOo..o+  ",
"    +o.ooOOOOo .+   ",
"    +o..oo@@o       ",
"     +.  .###       ",
"                    ",
"                    ",
"                    ",
};
