/* XPM */
static char * C4_xpm[] = {
/* width height colors chars_per_color */
"20  640 8 1"
/* colors */
" 	c None",
".	c #0000A0A0A0A0",
"X	c #0000FFFFFFFF",
"o	c #000078787878",
"O	c #0000C8C8C8C8",
"+	c #000078787878",
"@	c #000078787878",
"#	c #000078787878",
/* pixels */
"                    ",
"         ..         ",
"        .XX.        ",
"        .XX.        ",
"         oo         ",
"        .XX.        ",
"        .XX.        ",
"         oo         ",
"        .OO.        ",
"      O.OXXO.O      ",
"     OO.OXXO.OO     ",
"     OO.OXXO.OO     ",
"    +XO.OXXO.OX+    ",
"    +XO.OXXO.OX+    ",
"    +XO OXXO OX+    ",
"    +X  .OO.  X+    ",
"    +o   @@   o+    ",
"                    ",
"                    ",
"                    ",
"                    ",
"           ..       ",
"         .XXX       ",
"         .XX.       ",
"          oo        ",
"         .XX.       ",
"         .XX.       ",
"         ooo        ",
"      O..OO.        ",
"     OO.OXXO.       ",
"     OO.OXXO.O      ",
"    +XO.OXXO.OO     ",
"   +XO.OXXXO.OO     ",
"   +XO OXXO.OX+     ",
"   +X  OXXO OX+     ",
"   +o  .OO. OX+     ",
"        @@   X+     ",
"             o+     ",
"                    ",
"                    ",
"                    ",
"            .       ",
"           .X.      ",
"           .XX.     ",
"           oX.      ",
"          .Xo       ",
"         .XXX.      ",
"          oo.       ",
"     OO.O.OO        ",
"     OO.OXX.        ",
"   +XOO.OXXO.O      ",
"   +XO.OXXOO.O      ",
"  ++XO.OXXO.OO      ",
"  +X  OXXXO.OO      ",
"   o  .OXO.OXX+     ",
"       @O. OX+      ",
"       @    X+      ",
"           o+       ",
"            +       ",
"                    ",
"                    ",
"                    ",
"              .     ",
"            .XX.    ",
"            oXX.    ",
"           .oo.     ",
"          .XXX      ",
"       O .ooX.      ",
"     OO..OOo        ",
"   +XXO.OXXO.       ",
"  ++XO.OXXXO.       ",
"  +XO..OXXO..O      ",
" +oX  OXXXO.OO      ",
"     .XXXO.OOO      ",
"      OOO .OX       ",
"      @O. OX++      ",
"          XX+       ",
"          X+        ",
"          ++        ",
"                    ",
"                    ",
"                    ",
"                    ",
"              ..    ",
"             .XX.   ",
"            .oXX.   ",
"      O    .XXo.    ",
"    +OOO.  oXX.     ",
"   +XXO..OOoo.      ",
"  +XXO..OXXO        ",
" +XXO..OXXXO        ",
"  o   OXXXO..       ",
"     OXXXO..O       ",
"     OXXO..OO       ",
"     @OO .OXO       ",
"         OXX+       ",
"         XX+        ",
"        oX+         ",
"         +          ",
"                    ",
"                    ",
"                    ",
"                    ",
"                    ",
"               ..   ",
"              .XX.  ",
"    + OOO   .XoXX   ",
"   ++XOO... XXoo.   ",
" ++XXOO..OOooX.     ",
" +XXO..OOXXOo.      ",
"      OXXXXO.       ",
"    .OXXXXO.        ",
"    OOXXOO..O       ",
"    @OXO..OO        ",
"      . .OXO        ",
"        OXX         ",
"       XX++         ",
"       o++          ",
"       +            ",
"                    ",
"                    ",
"                    ",
"                    ",
"                    ",
"                    ",
"     +          .   ",
"   ++XOOOO   . .X.  ",
" ++XXXOO..  .XoXXX. ",
"  o OO..OO.OoXXo..  ",
"     .OOOXXOoX.     ",
"    .OXXXXX. .      ",
"    OXXXXOOO        ",
"   @@OXOO...        ",
"     .O..OOO        ",
"       OOOOO        ",
"       XXX          ",
"     oX+++          ",
"      ++            ",
"                    ",
"                    ",
"                    ",
"                    ",
"                    ",
"                    ",
"                    ",
"  +++++OO           ",
"  oXXXXOOO          ",
"    OOO....  .. .X. ",
"      .OOOO.oXXoXX. ",
"    .OOXXXXOoXXoXX  ",
"   @OXXXXXXOo.. ..  ",
"   @OXXXOOO.        ",
"    .OOO....        ",
"       .OOOO        ",
"      OOXOO         ",
"    oXXX+           ",
"    ++++            ",
"                    ",
"                    ",
"                    ",
"                    ",
"                    ",
"                    ",
"                    ",
"   +++++            ",
"   oXXXXOO          ",
"     OOOOOO         ",
"      .....         ",
"    .OOOOOO. .. ..  ",
"   @OXXXXXXOoXXoXX. ",
"   @OXXXXXXOoXXoXX. ",
"    .OOOOOO. .. ..  ",
"      .....         ",
"     OOOOOO         ",
"   oXXXXOO          ",
"   +++++            ",
"                    ",
"                    ",
"                    ",
"                    ",
"                    ",
"                    ",
"                    ",
"    ++++            ",
"    oXXX+           ",
"      OOXOO         ",
"       .OOOO        ",
"    .OOO....        ",
"   @OXXXOOO.        ",
"   @OXXXXXXOo.. ..  ",
"    .OOXXXXOoXXoXX  ",
"      .OOOO.oXXoXX. ",
"    OOO....  .. .X. ",
"  oXXXXOOO          ",
"  +++++OO           ",
"                    ",
"                    ",
"                    ",
"                    ",
"                    ",
"                    ",
"                    ",
"      ++            ",
"     oX+++          ",
"       XXX          ",
"       OOOOO        ",
"     .O..OOO        ",
"   @@OXOO...        ",
"    OXXXXOOO        ",
"    .OXXXXX. .      ",
"     .OOOXXOoX.     ",
"  o OO..OO.OoXXo..  ",
" ++XXXOO..  .XoXXX. ",
"   ++XOOOO   . .X.  ",
"     +          .   ",
"                    ",
"                    ",
"                    ",
"                    ",
"                    ",
"                    ",
"       +            ",
"       o++          ",
"       XX++         ",
"        OXX         ",
"      . .OXO        ",
"    @OXO..OO        ",
"    OOXXOO..O       ",
"    .OXXXXO.        ",
"      OXXXXO.       ",
" +XXO..OOXXOo.      ",
" ++XXOO..OOooX.     ",
"   ++XOO... XXoo.   ",
"    + OOO   .XoXX   ",
"              .XX.  ",
"               ..   ",
"                    ",
"                    ",
"                    ",
"                    ",
"                    ",
"         +          ",
"        oX+         ",
"         XX+        ",
"         OXX+       ",
"     @OO .OXO       ",
"     OXXO..OOO      ",
"     OXXXO..O       ",
"  o   OXXXO..       ",
" +XXO..OXXXO        ",
"  +XXO..OXXO        ",
"   +XXO..OOoo.      ",
"    +OOO.  oXX.     ",
"           .XXo.    ",
"            .oXX.   ",
"             .XX.   ",
"              ..    ",
"                    ",
"                    ",
"                    ",
"                    ",
"          ++        ",
"          X+        ",
"          XX+       ",
"      @O. OX++      ",
"      OOO .OX       ",
"     .XXXO.OOO      ",
" +oX  OXXXO.OO      ",
"  +XO..OXXO..O      ",
"  ++XO.OXXXO.       ",
"   +XXO.OXXO.       ",
"     OO..OOo        ",
"       O .ooX.      ",
"          .XXX      ",
"           .oo.     ",
"            oXX.    ",
"            .XX.    ",
"              .     ",
"                    ",
"                    ",
"                    ",
"            +       ",
"           o+       ",
"       @    X+      ",
"       @O. OX+      ",
"   o  .OXO.OXX+     ",
"  +X  OXXXO.OO      ",
"  ++XO.OXXO.OO      ",
"   +XO.OXXOO.O      ",
"   +XOO.OXXO.O      ",
"     OO.OXX.        ",
"     OO.O.OO        ",
"          oo.       ",
"         .XXX.      ",
"          .Xo       ",
"           oX.      ",
"           .XX.     ",
"           .X.      ",
"            .       ",
"                    ",
"                    ",
"                    ",
"             o+     ",
"        @@   X+     ",
"   +o  .OO. OX+     ",
"   +X  OXXO OX+     ",
"   +XO OXXO.OX+     ",
"   +XO.OXXXO.OO     ",
"    +XO.OXXO.OO     ",
"     OO.OXXO.O      ",
"     OO.OXXO.       ",
"      O..OO.        ",
"         ooo        ",
"         .XX.       ",
"         .XX.       ",
"          oo        ",
"         .XX.       ",
"         .XXX       ",
"           ..       ",
"                    ",
"                    ",
"                    ",
"                    ",
"    +o   @@   o+    ",
"    +X  .OO.  X+    ",
"    +XO OXXO OX+    ",
"    +XO.OXXO.OX+    ",
"    +XO.OXXO.OX+    ",
"     OO.OXXO.OO     ",
"     OO.OXXO.OO     ",
"      O.OXXO.O      ",
"        .OO.        ",
"         oo         ",
"        .XX.        ",
"        .XX.        ",
"         oo         ",
"        .XX.        ",
"        .XX.        ",
"         ..         ",
"                    ",
"                    ",
"                    ",
"     +o             ",
"     +X   @@        ",
"     +XO .OO.  o+   ",
"     +XO OXXO  X+   ",
"     +XO.OXXO OX+   ",
"     OO.OXXXO.OX+   ",
"     OO.OXXO.OX+    ",
"      O.OXXO.OO     ",
"       .OXXO.OO     ",
"        .OO..O      ",
"        ooo         ",
"       .XX.         ",
"       .XX.         ",
"        oo          ",
"       .XX.         ",
"       XXX.         ",
"       ..           ",
"                    ",
"                    ",
"       +            ",
"       +o           ",
"      +X    @       ",
"      +XO .O@       ",
"     +XXO.OXO.  o   ",
"      OO.OXXXO  X+  ",
"      OO.OXXO.OX++  ",
"      O.OOXXO.OX+   ",
"      O.OXXO.OOX+   ",
"        .XXO.OO     ",
"        OO.O.OO     ",
"       .oo          ",
"      .XXX.         ",
"       oX.          ",
"      .Xo           ",
"     .XX.           ",
"      .X.           ",
"       .            ",
"                    ",
"                    ",
"        ++          ",
"        +X          ",
"       +XX          ",
"      ++XO .O@      ",
"       XO. OOO      ",
"      OOO.OXXX.     ",
"      OO.OXXXO  Xo+ ",
"      O..OXXO..OX+  ",
"       .OXXXO.OX++  ",
"       .OXXO.OXX+   ",
"        oOO..OO     ",
"      .Xoo. O       ",
"      XXX.          ",
"     .oo.           ",
"    .XXo            ",
"    .XX.            ",
"     .              ",
"                    ",
"                    ",
"                    ",
"          +         ",
"         +Xo        ",
"        +XX         ",
"       +XXO         ",
"       OXO. OO@     ",
"       OO..OXXO     ",
"       O..OXXXO     ",
"       ..OXXXO   o  ",
"        OXXXO..OXX+ ",
"        OXXO..OXX+  ",
"      .ooOO..OXX+   ",
"     .XXo  .OOO+    ",
"    .oXX.    O      ",
"   .XXo.            ",
"   .XX.             ",
"    ..              ",
"                    ",
"                    ",
"                    ",
"                    ",
"            +       ",
"          ++o       ",
"         ++XX       ",
"         XXO        ",
"        OXO. .      ",
"        OO..OXO@    ",
"       O..OOXXOO    ",
"        .OXXXXO.    ",
"       .OXXXXO      ",
"      .oOXXOO..OXX+ ",
"     .XooOO..OOXX++ ",
"   .ooXX ...OOX++   ",
"   XXoX.   OOO +    ",
"  .XX.              ",
"   ..               ",
"                    ",
"                    ",
"                    ",
"                    ",
"                    ",
"                    ",
"            ++      ",
"          +++Xo     ",
"          XXX       ",
"        OOOOO       ",
"        OOO..O.     ",
"        ...OOXO@@   ",
"        OOOXXXXO    ",
"      . .XXXXXO.    ",
"     .XoOXXOOO.     ",
"  ..oXXoO.OO..OO o  ",
" .XXXoX.  ..OOXXX++ ",
"  .X. .   OOOOX++   ",
"   .          +     ",
"                    ",
"                    ",
"                    ",
"                    ",
"                    ",
"                    ",
"                    ",
"                    ",
"            ++++    ",
"           +XXXo    ",
"         OOXOO      ",
"        OOOO.       ",
"        ....OOO.    ",
"        .OOOXXXO@   ",
"  .. ..oOXXXXXXO@   ",
"  XXoXXoOXXXXOO.    ",
" .XXoXXo.OOOO.      ",
" .X. ..  ....OOO    ",
"          OOOXXXXo  ",
"           OO+++++  ",
"                    ",
"                    ",
"                    ",
"                    ",
"                    ",
"                    ",
"                    ",
"                    ",
"                    ",
"            +++++   ",
"          OOXXXXo   ",
"         OOOOOO     ",
"         .....      ",
"  .. .. .OOOOOO.    ",
" .XXoXXoOXXXXXXO@   ",
" .XXoXXoOXXXXXXO@   ",
"  .. .. .OOOOOO.    ",
"         .....      ",
"         OOOOOO     ",
"          OOXXXXo   ",
"            +++++   ",
"                    ",
"                    ",
"                    ",
"                    ",
"                    ",
"                    ",
"                    ",
"                    ",
"                    ",
"           OO+++++  ",
"          OOOXXXXo  ",
" .X. ..  ....OOO    ",
" .XXoXXo.OOOO.      ",
"  XXoXXoOXXXXOO.    ",
"  .. ..oOXXXXXXO@   ",
"        .OOOXXXO@   ",
"        ....OOO.    ",
"        OOOO.       ",
"         OOXOO      ",
"           +XXXo    ",
"            ++++    ",
"                    ",
"                    ",
"                    ",
"                    ",
"                    ",
"                    ",
"                    ",
"                    ",
"   .          +     ",
"  .X. .   OOOOX++   ",
" .XXXoX.  ..OOXXX++ ",
"  ..oXXoO.OO..OO o  ",
"     .XoOXXOOO.     ",
"      . .XXXXXO.    ",
"        OOOXXXXO    ",
"        ...OOXO@@   ",
"        OOO..O.     ",
"        OOOOO       ",
"          XXX       ",
"          +++Xo     ",
"            ++      ",
"                    ",
"                    ",
"                    ",
"                    ",
"                    ",
"                    ",
"   ..               ",
"  .XX.              ",
"   XXoX.   OOO +    ",
"   .ooXX ...OOX++   ",
"     .XooOO..OOXX++ ",
"      .oOXXOO..OXX+ ",
"       .OXXXXO      ",
"        .OXXXXO.    ",
"       O..OOXXOO    ",
"        OO..OXO@    ",
"        OXO. .      ",
"         XXO        ",
"         ++XX       ",
"          ++o       ",
"            +       ",
"                    ",
"                    ",
"                    ",
"                    ",
"    ..              ",
"   .XX.             ",
"   .XXo.            ",
"    .oXX.           ",
"     .XXo  .OOO+    ",
"      .ooOO..OXX+   ",
"        OXXO..OXX+  ",
"        OXXXO..OXX+ ",
"       ..OXXXO   o  ",
"       O..OXXXO     ",
"      OOO..OXXO     ",
"       OXO. OO@     ",
"       +XXO         ",
"        +XX         ",
"         +Xo        ",
"          +         ",
"                    ",
"                    ",
"                    ",
"     .              ",
"    .XX.            ",
"    .XXo            ",
"     .oo.           ",
"      XXX.          ",
"      .Xoo. O       ",
"        oOO..OO     ",
"       .OXXO.OXX+   ",
"       .OXXXO.OX++  ",
"      O..OXXO..OX+  ",
"      OO.OXXXO  Xo+ ",
"      OOO.OXXX.     ",
"       XO. OOO      ",
"      ++XO .O@      ",
"       +XX          ",
"        +X          ",
"        ++          ",
"                    ",
"                    ",
"       .            ",
"      .X.           ",
"     .XX.           ",
"      .Xo           ",
"       oX.          ",
"      .XXX.         ",
"       .oo          ",
"        OO.O.OO     ",
"        .XXO.OO     ",
"      O.OXXO.OOX+   ",
"      O.OOXXO.OX+   ",
"      OO.OXXO.OX++  ",
"      OO.OXXXO  X+  ",
"     +XXO.OXO.  o   ",
"      +XO .O@       ",
"      +X    @       ",
"       +o           ",
"       +            ",
"                    ",
"                    ",
"       ..           ",
"       XXX.         ",
"       .XX.         ",
"        oo          ",
"       .XX.         ",
"       .XX.         ",
"        ooo         ",
"        .OO..O      ",
"       .OXXO.OO     ",
"      O.OXXO.OO     ",
"     OO.OXXO.OX+    ",
"     OO.OXXXO.OX+   ",
"     +XO.OXXO OX+   ",
"     +XO OXXO  X+   ",
"     +XO .OO.  o+   ",
"     +X   @@        ",
"     +o             ",
"                    ",
"                    ",
};
