/* XPM */
static char * C4_xpm[] = {
"20 320 8 1",
" 	c None",
".	c #9A9A9A9AAFAF",
"X	c #8D8D8D8DA0A0",
"o	c #A9A9A9A9C0C0",
"O	c #C6C6C6C6E0E0",
"+	c #FFFFFFFF0000",
"@	c #FFFF00000000",
"#	c #B0B000000000",
"                    ",
"         ..         ",
"        XooX        ",
"        .OO.        ",
"    .  XOOOOX  .    ",
"   .   XoOOoX   .   ",
"   .    .oo.    .   ",
"   .   XOOOOX   .   ",
"   ..  XOOOOX  ..   ",
"   ..   .oo.   ..   ",
"   ..X XOOOOX X..   ",
"   o.XooOOOOooX.o   ",
"   +oooOOOOOOooo+   ",
"   +o.ooOOOOoo.o+   ",
"   +o.ooOOOOoo.o+   ",
"   +o..oOOOOo..o+   ",
"    +. oo@@oo .+    ",
"        .##.        ",
"                    ",
"                    ",
"                    ",
"             .      ",
"       .   Xoo.     ",
"      X   .oOO.     ",
"     .    oOOO.X    ",
"     .    oOOOo     ",
"    ..   .o.oo.  X  ",
"    ..  XoOOo.   X  ",
"   o..X  .OOOo   .  ",
"   +oXooOO.Oo.   .  ",
"   +o.oOOOO.X   .X  ",
"  +o.ooOOOOOo X..   ",
"  +o.ooOOOOOOoX..   ",
"  +...oOOOOoo.o+    ",
"     ooOOOOoo.o+    ",
"      .@@Oo..oo+    ",
"       ##ooX.o+     ",
"             .+     ",
"                    ",
"                    ",
"                    ",
"         ..         ",
"        .           ",
"       .     oo.X   ",
"      ..    oOOO.   ",
"     ..     oOOOo   ",
"    +.XX  oo.oOOo   ",
"   +o.X  oOOo.oo    ",
"  +o.oooXoOOOo      ",
"  +..oOOOoOOOo    . ",
"  X.ooOOOOooo     . ",
"    ooOOOOOX     .  ",
"    oOOOOOOo X ..   ",
"    .@OOOOOoXX..    ",
"    ##@Oooooo..     ",
"     #.ooo..o+      ",
"         ..o+       ",
"         X++        ",
"                    ",
"                    ",
"                    ",
"                    ",
"         ...XX      ",
"       ...          ",
"    +++..      X    ",
"  ++oooXX    XX...  ",
"  .oo..o  XoX.OOOo. ",
"   ..ooOoXoOOoOOOo  ",
"   X.ooOOOoOOOoOo.  ",
"   ooOOOOOOoOOX..   ",
"   oOOOOOOO..X      ",
"   #@OOOOOO X       ",
"   #@OOOOOo      .  ",
"    .ooooooX    .   ",
"     ..oo.X.....    ",
"      ...oo...      ",
"      .oo++o        ",
"      +++           ",
"                    ",
"                    ",
"                    ",
"                    ",
"                    ",
"    ++++o......     ",
"   +oooo....   .    ",
"   ....oXX          ",
"    .oooo           ",
"   ooooOoX XX XX    ",
"  .oOOOOOO.OO.oO.X  ",
"  #@OOOOOOoOOoOOOo. ",
"  #@OOOOOOoOOoOOOo. ",
"  .oOOOOOO.OO.oO.X  ",
"   ooooOoX XX XX    ",
"    .oooo           ",
"   ....oXX          ",
"   +oooo....   .    ",
"    ++++o......     ",
"                    ",
"                    ",
"                    ",
"                    ",
"                    ",
"      +++           ",
"      .oo++o        ",
"      ...oo...      ",
"     o.oo.X.....    ",
"    .ooooooX    .   ",
"   #@OOOOOo      .  ",
"   #@OOOOOO X       ",
"   oOOOOOOO.o.      ",
"   ooOOOOO.OOooo.   ",
"   X.ooOO.OOO.OOoX  ",
"   ..ooOoXoOooOOOo  ",
"  .oo..o  .o.oOOOo. ",
"  ++oooXX    .o...  ",
"    +++..      X    ",
"       ...          ",
"         X..XX      ",
"                    ",
"                    ",
"                    ",
"                    ",
"         X++        ",
"         ..o+       ",
"     #.ooo..o+      ",
"    ##@Ooooo...     ",
"    .@OOOOOoXX..    ",
"    oOOOOOOo X ..   ",
"    ooOOOOOX     .  ",
"  X.ooOOOOooo     . ",
"  +..oOOOoOOOo    . ",
"  +o.oooXoOOOo      ",
"   +ooX  oOOo.oo    ",
"    +.XX  oo.oOOo   ",
"     ..     oOOOo   ",
"      ..    oOOO.   ",
"       .     oo.X   ",
"        .           ",
"         ..         ",
"                    ",
"                    ",
"                    ",
"             .+     ",
"       ##ooX.o+     ",
"      .@@Oo..oo+    ",
"     .oOOOOoo.o+    ",
"  +...oOOOOoo.o+    ",
"  +o.ooOOOOOOoX..   ",
"  +o.ooOOOOOo X..   ",
"   +o.oOOOOOX   ..  ",
"   +oXooOOOooX   .  ",
"   o..X  .oOOo   X  ",
"    ..  X.OOOX   .  ",
"    ..   XOOo.X  X  ",
"     .    XoOOX     ",
"     .    .OOO.X    ",
"      .   .oOO.     ",
"       .   .oo.     ",
"             .      ",
"                    ",
"                    ",
"                    ",
"        .##.        ",
"    +. oo@@oo .+    ",
"   +o..oOOOOo..o+   ",
"   +o.ooOOOOoo.o+   ",
"   +o.ooOOOOoo.o+   ",
"   +oooOOOOOOooo+   ",
"   o.XooOOOOooX.o   ",
"   ..X XOOOOX X..   ",
"   ..   .oo.   ..   ",
"   ..  XOOOOX  ..   ",
"   .   XOOOOX   .   ",
"   .    .oo.    .   ",
"   .   XoOOoX   .   ",
"    .  XOOOOX  .    ",
"        .OO.        ",
"        XooX        ",
"         ..         ",
"                    ",
"                    ",
"                    ",
"     +.             ",
"     +o.Xoo##       ",
"    +oo..oO@@.      ",
"    +o.ooOOOOoo     ",
"    +o.ooOOOOo...+  ",
"   ..XoOOOOOOoo.o+  ",
"   ..X oOOOOOoo.o+  ",
"  X.   X.OOOOo.o+   ",
"  .   .oO.OOooXo+   ",
"  .   oOOO.  X..o   ",
"  X   .oOOoX  ..    ",
"  X  .oo.o.   ..    ",
"     oOOOo    .     ",
"    X.OOOo    .     ",
"     .OOo.   .      ",
"     .ooX   .       ",
"      .             ",
"                    ",
"                    ",
"                    ",
"        ++X         ",
"       +o..         ",
"      +o..ooo.#     ",
"     ..oooooO@##    ",
"    ..XXoOOOOO@.    ",
"   .. X oOOOOOOo    ",
"  .     XOOOOOoo    ",
" .     oooOOOOoo.X  ",
" .    oOOOoOOOo..+  ",
"      oOOOoXooo.o+  ",
"    oo.oOOo  X.o+   ",
"   oOOo.oo  XX.+    ",
"   oOOOo     ..     ",
"   .OOOo    ..      ",
"   X.oo     .       ",
"           .        ",
"         ..         ",
"                    ",
"                    ",
"                    ",
"           +++      ",
"        o++oo.      ",
"      ...oo...      ",
"    .....X.oo.o     ",
"   .    XooooooX    ",
"  .      oOOOOO@#   ",
"       X OOOOOO@#   ",
"      X..OOOOOOOo   ",
"   ..XOOoOOOOOOoo   ",
"  .oOoOOOoOOOoo.X   ",
"  oOOOoOOoXoOoo..   ",
" .oOOO.XoX  o..oo.  ",
"  ...XX    XXooo++  ",
"    X      ..+++    ",
"          ...       ",
"      X.X..         ",
"                    ",
"                    ",
"                    ",
"                    ",
"                    ",
"     ......o++++    ",
"    .   ....oooo+   ",
"          XXo....   ",
"           oooo.    ",
"    XX XX XoOoooo   ",
"  X.Oo.OO.OOOOOOo.  ",
" .oOOOoOOoOOOOOO@#  ",
" .oOOOoOOoOOOOOO@#  ",
"  X.Oo.OO.OOOOOOo.  ",
"    XX XX XoOoooo   ",
"           oooo.    ",
"          XXo....   ",
"    .   ....oooo+   ",
"     ......o++++    ",
"                    ",
"                    ",
"                    ",
"                    ",
"                    ",
"      XX..X         ",
"          ...       ",
"    X      ..++     ",
"  ...o.    XXoo+    ",
" .oOOOo.o.  o..o++  ",
"  oOOOooOoXoOoo...  ",
"  XoOO.OOO.OOoo.X   ",
"   .oooOO.OOOOOoo   ",
"      .o.OOOOOOOo   ",
"       X OOOOOO@#   ",
"  .      oOOOOO@#   ",
"   .    Xoooooo.    ",
"    .....X.oo.o     ",
"      ...oo...      ",
"        o++oo.      ",
"           +++      ",
"                    ",
"                    ",
"                    ",
"         ..         ",
"           .        ",
"   X.oo     .       ",
"   .OOOo    ..      ",
"   oOOOo     ..     ",
"   oOOo.oo  XX.+    ",
"    oo.oOOo  Xoo+   ",
"      oOOOoXooo.o+  ",
" .    oOOOoOOOo..+  ",
" .     oooOOOOoo.X  ",
"  .     XOOOOOoo    ",
"   .. X oOOOOOOo    ",
"    ..XXoOOOOO@.    ",
"     ...ooooO@##    ",
"      +o..ooo.#     ",
"       +o..         ",
"        ++X         ",
"                    ",
"                    ",
"                    ",
"      .             ",
"     .oo.   .       ",
"     .OOo.   .      ",
"    X.OOO.    .     ",
"     XOOoX    .     ",
"  X  X.oOOX   ..    ",
"  .   XOOO.X  ..    ",
"  X   oOOo.  X..o   ",
"  .   XooOOOooXo+   ",
"  ..   XOOOOOo.o+   ",
"   ..X oOOOOOoo.o+  ",
"   ..XoOOOOOOoo.o+  ",
"    +o.ooOOOOo.X.+  ",
"    +o.ooOOOOoo     ",
"    +oo..oO@@X      ",
"     +o.Xoo##       ",
"     +.             ",
"                    ",
"                    "};
