/* XPM */
static char * C8_xpm[] = {
/* width height colors chars_per_color */
"20  640 7 1"
/* colors */
" 	c None",
".	c #0000A0A0A0A0",
"X	c #000078787878",
"o	c #0000FFFFFFFF",
"O	c #0000C8C8C8C8",
"+	c #000078787878",
"@	c #000078787878",
/* pixels */
"                    ",
"         ..         ",
"        XooX        ",
"     . .OooO. .     ",
"    .O .OooO. O.    ",
"    O  . oo .  O    ",
"    O  . OO .  O    ",
"   .O    oo    O.   ",
"   OO   OooO   OO   ",
"   OO XOOooOOX OO   ",
"   +OX.  oo  .XO+   ",
"   +O   OooO   O+   ",
"   +OX.  oo  .XO+   ",
"   +OXXO oo OXXO+   ",
"   ++  OOooOO  ++   ",
"    +O  OooO  O+    ",
"     .  @OO@  .     ",
"         XX         ",
"                    ",
"                    ",
"                    ",
"           ..       ",
"      .  Xooo       ",
"     .O .OooO       ",
"     O  .OooO. .    ",
"     O  . oo . O.   ",
"    .O  . OO .  O   ",
"   OO    ooo .  O   ",
"   OO XOOooO   O.   ",
"   +OX.OOooOO  OO   ",
"   +O    oo  X OO   ",
"   +OX. OooO .XO+   ",
"  +OXXO ooo    O+   ",
"  ++  O oo O.XO+    ",
"   +O  OooOOXXO+    ",
"    .  OooO   ++    ",
"       @OO@  O+     ",
"       XXX   .      ",
"                    ",
"                    ",
"                    ",
"            .       ",
"       ..  Xo.      ",
"      OO ..OooX     ",
"      O  .OooO.     ",
"    .O   . ooO. .   ",
"    OO    OOo . O   ",
"   +OO    oo .  O.  ",
"   +OXXOOOoo    O   ",
"   +O .  ooO    O   ",
"  +OX.  OooOOX O.   ",
"  +OXX  ooO  . OO   ",
"  ++  O oo   XO+O   ",
"   O OOooo  . O+    ",
"   .  OooOOXXXO+    ",
"      @OoOO  O+     ",
"      XO@   O++     ",
"       X   .+       ",
"                    ",
"                    ",
"                    ",
"                    ",
"        .O    .     ",
"       O O .Ooo.    ",
"     .OO  .OoooX    ",
"     OO  .. ooO.    ",
"    +O     OooO.    ",
"   +OO X OooO . O.  ",
"   +O . OOoo ..  .  ",
"  +OXX   oooO   OO  ",
"  ++X. OoooOO   O   ",
"  +  OO oo  OX O.   ",
"  .O OOoooO .XOOO   ",
"     Oooo  . XOO    ",
"     @ooOOO.XO+     ",
"     XOoOO XOO+     ",
"     XX@  O ++      ",
"          O++       ",
"                    ",
"                    ",
"                    ",
"                    ",
"         OO.        ",
"       .O   . X.    ",
"      OO   ..Ooo.   ",
"     +O   .. oooX   ",
"    +OX     oooO    ",
"   +O X.O  oOo ..   ",
"  +OXX   Oooo .. .  ",
"  + X.   ooo  .  O  ",
"  O  O  oooO     O  ",
"  . OO ooo OO   O   ",
"     Oooo   X  O.   ",
"    @ooo    X OO    ",
"    XOoOOO.X OO     ",
"    XX@ O XXO+      ",
"           O+       ",
"        .O++        ",
"                    ",
"                    ",
"                    ",
"                    ",
"          O..       ",
"       O.OO O       ",
"      OOO    ..X.   ",
"    ++OO   ..OOoo.  ",
"   +OOXXX  . oooo   ",
"  ++OX .OOO OoooO   ",
"  + X..  OoooO O.   ",
"  OO O O oooo ..    ",
"    OO ooooOO . OO  ",
"    OOoooo O     .  ",
"   @oooo O  X  OO   ",
"   XOooOO  .  OO    ",
"   XX@OOO.X OOO.    ",
"         XXOO+      ",
"       O +O++       ",
"       .+++         ",
"                    ",
"                    ",
"                    ",
"                    ",
"            .       ",
"       OO.OOOO.     ",
"     +++OO          ",
"   ++OOO     ...X   ",
"   +OX X.X  . OOo.  ",
"  +O X.  O   ooooo. ",
"  .  X   OOooOooOX  ",
"    OO  OooooO O.   ",
"    OOoooooO  ...   ",
"   @oooooO O     .  ",
"  XOOoo    O    O.  ",
"   X@OOO  .X   OO   ",
"      O X. XOOO     ",
"        XXOOOO.     ",
"     .O+OO+++       ",
"       +++          ",
"                    ",
"                    ",
"                    ",
"                    ",
"                    ",
"       ++OO.OO.     ",
"    +++OOOOO  O.    ",
"   ++OO X           ",
"  .O XX .X  ....    ",
"     X.   O    OOo. ",
"     OO O OOoOoooo. ",
"   @OO ooooooOoooo  ",
"  XOooooooooo  OOX  ",
"  XOooooO OO ....   ",
"  X@OO    OO        ",
"      OO. .X    O.  ",
"       XX X  OOO.   ",
"    .O XOOOOO.      ",
"     ++O+++OO       ",
"      ++            ",
"                    ",
"                    ",
"                    ",
"                    ",
"                    ",
"     +++++OO.       ",
"    ++OOOOOOOOO.    ",
"   .O XX X     O.   ",
"      X. .X         ",
"     OO   O  ....   ",
"   @OO  O OO   OOX  ",
"  XOoooooooooOoooo. ",
"  XOoooooooooOoooo. ",
"   @OO  O OO   OOX  ",
"     OO   O  ....   ",
"      X. .X         ",
"   .O XX X     O.   ",
"    ++OOOOOOOOO.    ",
"     +++++OO.       ",
"                    ",
"                    ",
"                    ",
"                    ",
"                    ",
"      ++            ",
"     ++O+++OO       ",
"    .O XOOOOO.      ",
"       XX X  OOO.   ",
"      OO. .X    O.  ",
"  X@OO    OO        ",
"  XOooooO OO ....   ",
"  XOooooooooo  OOX  ",
"   @OO ooooooOoooo  ",
"     OO O OOoOoooo. ",
"     X.   O    OOo. ",
"  .O XX .X  ....    ",
"   ++OO X           ",
"    +++OOOOO  O.    ",
"       ++OO.OO.     ",
"                    ",
"                    ",
"                    ",
"                    ",
"                    ",
"       +++          ",
"     .O+OO+++       ",
"        XXOOOO.     ",
"      O X. XOOO     ",
"   X@OOO  .X   OO   ",
"  XOOoo    O    O.  ",
"   @oooooO O     .  ",
"    OOoooooO  ...   ",
"    OO  OooooO O.   ",
"  .  X   OOooOooOX  ",
"  +O X.  O   ooooo. ",
"   +OX X.X  . OOo.  ",
"   ++OOO     ...X   ",
"     +++OO          ",
"       OO.OOOO.     ",
"            .       ",
"                    ",
"                    ",
"                    ",
"                    ",
"       .+++         ",
"       O +O++       ",
"         XXOO+      ",
"   XX@OOO.X OOO.    ",
"   XOooOO  .  OO    ",
"   @oooo O  X  OO   ",
"    OOoooo O     .  ",
"    OO ooooOO . OO  ",
"  OO O O oooo ..    ",
"  + X..  OoooO O.   ",
"  ++OX .OOO OoooO   ",
"   +OOXXX  . oooo   ",
"    ++OO   ..OOoo.  ",
"      OOO    ..X.   ",
"       O.OO O       ",
"          O..       ",
"                    ",
"                    ",
"                    ",
"                    ",
"        .O++        ",
"           O+       ",
"    XX@ O XXO+      ",
"    XOoOOO.X O+     ",
"    @ooo    XXOO    ",
"     Oooo   .  O.   ",
"  . OO ooo  O   O   ",
"  O  O  oooO     O  ",
"  + X.   ooo  .  O  ",
"  +OXX  OOooo .. .  ",
"   +O XXO  oOo ..   ",
"    +O      oooO    ",
"     OO   .. oooX   ",
"      OO   ..Ooo.   ",
"       .O   . X.    ",
"         OO.        ",
"                    ",
"                    ",
"                    ",
"                    ",
"          O++       ",
"     XX@  O ++      ",
"     XOoOO XOO+     ",
"     @ooOOO.XO+     ",
"     Oooo  . XOO    ",
"  .O OOoooO .XOOO   ",
"  +  OO oo  OX O.   ",
"  ++X. OoooOO   O   ",
"  +OXX   oooO   OO  ",
"   +O . OOoo ..  .  ",
"   +OO X OooO . O.  ",
"    +O     OooO.    ",
"     OO  .. ooO.    ",
"     .OO  .OoooX    ",
"       O O .Ooo.    ",
"        .O    .     ",
"                    ",
"                    ",
"                    ",
"                    ",
"       X   .+       ",
"      XO@   O++     ",
"      @OoOO  O+     ",
"   .  OooOOXXXO+    ",
"   O OOooo  . O+    ",
"  ++  O oo   XO+O   ",
"  +OXX  ooO  . OO   ",
"  +OX.  OooOOX O.   ",
"   +O .  ooO    O   ",
"   +OXXOOOoo    O   ",
"   +OO    oo .  O.  ",
"    OO    OOo . O   ",
"    .O   . ooO. .   ",
"      O  .OooO.     ",
"      OO ..OooX     ",
"       ..  Xo.      ",
"            .       ",
"                    ",
"                    ",
"                    ",
"       XXX   .      ",
"       @OO@  O+     ",
"    .  OooO   ++    ",
"   +O  OooOOXXO+    ",
"  ++  O oo O.XO+    ",
"  +OXXO ooo    O+   ",
"   +OX. OooO .XO+   ",
"   +O    oo  X OO   ",
"   +OX.OOooOO  OO   ",
"   OO XOOooO   O.   ",
"   OO    ooo .  O   ",
"    .O  . OO .  O   ",
"     O  . oo . O.   ",
"     O  .OooO. .    ",
"     .O .OooO       ",
"      .  Xooo       ",
"           ..       ",
"                    ",
"                    ",
"                    ",
"         XX         ",
"     .  @OO@  .     ",
"    +O  OooO  O+    ",
"   ++  OOooOO  ++   ",
"   +OXXO oo OXXO+   ",
"   +OX.  oo  .XO+   ",
"   +O   OooO   O+   ",
"   +OX.  oo  .XO+   ",
"   OO XOOooOOX OO   ",
"   OO   OooO   OO   ",
"   .O    oo    O.   ",
"    O  . OO .  O    ",
"    O  . oo .  O    ",
"    .O .OooO. O.    ",
"     . .OooO. .     ",
"        XooX        ",
"         ..         ",
"                    ",
"                    ",
"                    ",
"      .   XXX       ",
"     +O  @OO@       ",
"    ++   OooO  .    ",
"    +OXXOOooO  O+   ",
"    +OX.O oo O  ++  ",
"   +O    ooo OXXO+  ",
"   +OX. OooO .XO+   ",
"   OO X  oo    O+   ",
"   OO  OOooOO.XO+   ",
"   .O   OooOOX OO   ",
"   O  . ooo    OO   ",
"   O  . OO .  O.    ",
"   .O . oo .  O     ",
"    . .OooO.  O     ",
"       OooO. O.     ",
"       oooX  .      ",
"       ..           ",
"                    ",
"                    ",
"                    ",
"       +.   X       ",
"     ++O   @OX      ",
"     +O  OOoO@      ",
"    +OXXXOOooO  .   ",
"    +O .  oooOO O   ",
"   O+OX   oo O  ++  ",
"   OO .  Ooo  XXO+  ",
"   .O XOOooO  .XO+  ",
"   O    Ooo  . O+   ",
"   O    ooOOOXXO+   ",
"  .O  . oo    OO+   ",
"   O . oOO    OO    ",
"   . .Ooo .   O.    ",
"     .OooO.  O      ",
"     XooO.. OO      ",
"      .oX  ..       ",
"       .            ",
"                    ",
"                    ",
"                    ",
"       ++O          ",
"      ++ O  @XX     ",
"     +OOX OOoOX     ",
"     +OX.OOOoo@     ",
"    OOX .  oooO     ",
"   OOOX. OoooOO O.  ",
"   .O XO  oo OO  +  ",
"   O   OOoooO .X++  ",
"  OO   Oooo   XXO+  ",
"  .  .. ooOO . O+   ",
"  .O . OooO X OO+   ",
"    .OooO     O+    ",
"    .Ooo ..  OO     ",
"    XoooO.  OO.     ",
"    .ooO. O O       ",
"     .    O.        ",
"                    ",
"                    ",
"                    ",
"                    ",
"        ++O.        ",
"       +O           ",
"      +OXX O @XX    ",
"     OO X.OOOoOX    ",
"    OO X    ooo@    ",
"   .O  X   oooO     ",
"   O   OO ooo OO .  ",
"  O     Oooo  O  O  ",
"  O  .  ooo   .X +  ",
"  . .. oooO   XXO+  ",
"   .. oOo  O.X O+   ",
"    Oooo     XO+    ",
"   Xooo ..   O+     ",
"   .ooO..   OO      ",
"    .X .   O.       ",
"        .OO         ",
"                    ",
"                    ",
"                    ",
"                    ",
"         +++.       ",
"       ++O+ O       ",
"      +OOXX         ",
"    .OOO X.OOO@XX   ",
"    OO  .  OOooOX   ",
"   OO  X  O oooo@   ",
"  .     O ooooOO    ",
"  OO . OOoooo OO    ",
"    .. oooo O O OO  ",
"   .O OoooO  ..X +  ",
"   OoooO OOO. XO++  ",
"   oooo .  XXXOO+   ",
"  .ooOO..   OO++    ",
"   .X..    OOO      ",
"       O OO.O       ",
"       ..O          ",
"                    ",
"                    ",
"                    ",
"                    ",
"          +++       ",
"       +++OO+O.     ",
"     .OOOOXX        ",
"     OOOX .X O      ",
"   OO   X.  OOO@X   ",
"  .O    O    ooOOX  ",
"  .     O Oooooo@   ",
"   ...  OoooooOO    ",
"   .O OooooO  OO    ",
"  XOooOooOO   X  .  ",
" .ooooo   O  .X O+  ",
"  .oOO .  X.X XO+   ",
"   X...     OOO++   ",
"          OO+++     ",
"     .OOOO.OO       ",
"       .            ",
"                    ",
"                    ",
"                    ",
"                    ",
"            ++      ",
"       OO+++O++     ",
"      .OOOOOX O.    ",
"   .OOO  X XX       ",
"  .O    X. .OO      ",
"        OO    OO@X  ",
"   .... OO OooooOX  ",
"  XOO  oooooooooOX  ",
"  ooooOoooooo OO@   ",
" .ooooOoOO O OO     ",
" .oOO    O   .X     ",
"    ....  X. XX O.  ",
"           X OO++   ",
"    .O  OOOOO+++    ",
"     .OO.OO++       ",
"                    ",
"                    ",
"                    ",
"                    ",
"                    ",
"                    ",
"       .OO+++++     ",
"    .OOOOOOOOO++    ",
"   .O     X XX O.   ",
"         X. .X      ",
"   ....  O   OO     ",
"  XOO   OO O  OO@   ",
" .ooooOoooooooooOX  ",
" .ooooOoooooooooOX  ",
"  XOO   OO O  OO@   ",
"   ....  O   OO     ",
"         X. .X      ",
"   .O     X XX O.   ",
"    .OOOOOOOOO++    ",
"       .OO+++++     ",
"                    ",
"                    ",
"                    ",
"                    ",
"                    ",
"                    ",
"     .OO.OO++       ",
"    .O  OOOOO+++    ",
"           X OO++   ",
"    ....  X. XX O.  ",
" .oOO    O   .X     ",
" .ooooOoOO O OO     ",
"  ooooOoooooo OO@   ",
"  XOO  oooooooooOX  ",
"   .... OO OooooOX  ",
"        OO    OO@X  ",
"  .O    X. .OO      ",
"   .OOO  X XX       ",
"      .OOOOOX O.    ",
"       OO+++O++     ",
"            ++      ",
"                    ",
"                    ",
"                    ",
"                    ",
"       .            ",
"     .OOOO.OO       ",
"          OO+++     ",
"   X...     OOO++   ",
"  .oOO .  X.X XO+   ",
" .ooooo   O  .X O+  ",
"  XOooOooOO   X  .  ",
"   .O OooooO  OO    ",
"   ...  OoooooOO    ",
"  .     O Oooooo@   ",
"  .O    O    ooOOX  ",
"   OO   X.  OOO@X   ",
"     OOOX .X O      ",
"     .OOOOXX        ",
"       +++OO+O.     ",
"          +++       ",
"                    ",
"                    ",
"                    ",
"                    ",
"       ..O          ",
"       O OO.O       ",
"   .X..    OOO      ",
"  .ooOO..   OO++    ",
"   oooo .  XXXOO+   ",
"   OoooO OOO. XO++  ",
"   .O OoooO  ..X +  ",
"    .. oooo O O OO  ",
"  OO . OOoooo OO    ",
"  .     O ooooOO    ",
"   OO  X  O oooo@   ",
"    OO  .  OOooOX   ",
"    .OOO X.OOO@XX   ",
"      +OOXX         ",
"       ++O+ O       ",
"         +++.       ",
"                    ",
"                    ",
"                    ",
"                    ",
"        .OO         ",
"    .X .   O.       ",
"   .ooO..   OO      ",
"   Xooo ..   OO     ",
"    Oooo      O+    ",
"   .. oOo  OXX O+   ",
"  . .. oooOO  XXO+  ",
"  O  .  ooo   .X +  ",
"  O     Oooo  O  O  ",
"   O   O  ooo OO .  ",
"   .O  .   oooO     ",
"    OOXX    ooo@    ",
"     +O X.OOOoOX    ",
"      +OXX O @XX    ",
"       +O           ",
"        ++O.        ",
"                    ",
"                    ",
"                    ",
"                    ",
"     .    O.        ",
"    .ooO. O O       ",
"    XoooO.  OO.     ",
"    .Ooo ..  OO     ",
"    .OooO     O+    ",
"  .O . OooO X OO+   ",
"  .  .. ooOO . O+   ",
"  OO   Oooo   XXO+  ",
"   O   OOoooO .X++  ",
"   .O XO  oo OO  +  ",
"   OOOX. OoooOO O.  ",
"    OOX .  oooO     ",
"     +OX.OOOoo@     ",
"     +OOX OOoOX     ",
"      ++ O  @XX     ",
"       ++O          ",
"                    ",
"                    ",
"                    ",
"       .            ",
"      .oX  ..       ",
"     XooO.. OO      ",
"     .OooO.  O      ",
"   . .Ooo .   O.    ",
"   O . oOO    OO    ",
"  .O  . oo    OO+   ",
"   O    ooOOOXXO+   ",
"   O    Ooo  . O+   ",
"   .O XOOooO  .XO+  ",
"   OO .  Ooo  XXO+  ",
"   O+OX   oo O  ++  ",
"    +O .  oooOO O   ",
"    +OXXXOOooO  .   ",
"     +O  OOoO@      ",
"     ++O   @OX      ",
"       +.   X       ",
"                    ",
"                    ",
"                    ",
"       ..           ",
"       oooX  .      ",
"       OooO. O.     ",
"    . .OooO.  O     ",
"   .O . oo .  O     ",
"   O  . OO .  O.    ",
"   O  . ooo    OO   ",
"   .O   OooOOX OO   ",
"   OO  OOooOO.XO+   ",
"   OO X  oo    O+   ",
"   +OX. OooO .XO+   ",
"   +O    ooo OXXO+  ",
"    +OX.O oo O  ++  ",
"    +OXXOOooO  O+   ",
"    ++   OooO  .    ",
"     +O  @OO@       ",
"      .   XXX       ",
"                    ",
"                    ",
};
