/* XPM */
static char * C3_xpm[] = {
/* width height colors chars_per_color */
"20  640 8 1"
/* colors */
" 	c None",
".	c #9A9A9A9AAFAF",
"X	c #C6C6C6C6E0E0",
"o	c #8D8D8D8DA0A0",
"O	c #A9A9A9A9C0C0",
"+	c #00008080FFFF",
"@	c #FFFF00000000",
"#	c #B0B000000000",
/* pixmap */
"                    ",
"         ..         ",
"        .XX.        ",
"       oXXXXo       ",
"     . .XXXX. .     ",
"    .  .XOOX.  .    ",
"    .  .OOOO.  .    ",
"   .O  o OO o  O.   ",
"   .O    OO    O.   ",
"   OO    OO    OO   ",
"   OO.  .XX.  .OO   ",
"   +XOOOOXXOOOOX+   ",
"   +XXXOXXXXOXXX+   ",
"   ++XXXXXXXXXX++   ",
"    +OXXXXXXXXO+    ",
"    +OOXOXXOXOO+    ",
"    .OOOOXXOOOO.    ",
"     ..@@..@@..     ",
"       o#..#o       ",
"                    ",
"                    ",
"           ..       ",
"         .XXX       ",
"      . oXXXX       ",
"     .  .XXXXo      ",
"     .  .XOOX. .    ",
"    .O  .OOOO.  .   ",
"   .O    OOO .  .   ",
"   OO    OO    O.   ",
"   OO.   OO    O.   ",
"   +XOO .XX.   OO   ",
"   +XXXOOXXO  .OO   ",
"  ++XXXXXXXXOOOX+   ",
"   +OXXXXXXXXXX+    ",
"   +OOXXXXXXXX++    ",
"   .OOOOXXOXXO+     ",
"    ..@OXXOOOO+     ",
"     o#...@@OO.     ",
"       ..#o .       ",
"                    ",
"                    ",
"            .       ",
"           .X.      ",
"      .. .oXXX.     ",
"      .  .XXXXo     ",
"    .O   .XOXX.     ",
"    .O  oOOOOX. .   ",
"   OOO    OOO.  .   ",
"   +O.    OO o  .   ",
"   +XO  .OO     O   ",
"  +XXXOOOXX    O.   ",
"   +XXOXXXO.   O.   ",
"  ++OXXXXXXOO.OOO   ",
"  .OOXXXXXXOXOX+    ",
"   OOXOXXXXXXXX+    ",
"  ..@OOXXOXXO++     ",
"    o@.XOOXOO+      ",
"     #..@@OO+       ",
"       .#o...       ",
"                    ",
"                    ",
"                    ",
"         .    .     ",
"       . . oXXX.    ",
"     .O.  .XXXX.    ",
"     .O  ..XXXXo    ",
"    OO   oOOOOX.    ",
"   +OO    OOOX. .   ",
"   +XO    OO ..     ",
"  ++XXO .OOO o  ..  ",
"  ++XXOOXXX     .   ",
"  +OXXXXXX.    O.   ",
" .OOOXXXXXOO .OO.   ",
"  .OXOXXXXOXO.OO    ",
"  .@OOXXXXXXXX+     ",
"   o@.XXOXXX+X+     ",
"    ...OOOOO++      ",
"     .#@@OO+        ",
"       o....        ",
"                    ",
"                    ",
"                    ",
"         ..         ",
"       ..   o ..    ",
"      .O   ..XXX.   ",
"     OO   ..XXXX.   ",
"    +O.  ooOOOXX    ",
"   +XO.    OOOX.o   ",
"   +XXO   OOOO..    ",
"  +OXXOO.XOO o.  .  ",
" .OOXXOXXXO  o   .  ",
" .OOXXXXXX.     .   ",
" ..OXXXXXXO    O.   ",
"  @@OXXXXOOO. O.    ",
"  o@.XXXXXXXOOO     ",
"   ...OXXXXXX+      ",
"    .@@OOOO++       ",
"     o@.OO+         ",
"       ...          ",
"                    ",
"                    ",
"                    ",
"          .         ",
"       .... .       ",
"      OOO    .o..   ",
"    ++OO   ..XXXX.  ",
"   +XX..  o.XOXXX   ",
"   ++XO     OOXXX   ",
" .+OXXXO  OOOOXXo   ",
" .OOXXOO.XOOOO..    ",
" .OOXXXXXXO  o. ..  ",
" .@OOXXXXX.         ",
" o@OXXXXXO     ..   ",
"  #.XXXXXOO   OO    ",
"  ...OOXXXXOOO..    ",
"   .@OXOXXXXOO      ",
"    o@OOO++++       ",
"     ..O+++         ",
"       .            ",
"                    ",
"                    ",
"                    ",
"                    ",
"       O..O...      ",
"     ++OOO          ",
"    +XXO     ..o.   ",
"   ++XO.   o.XXXX.  ",
" .+OOXXO    OOXXXX. ",
" .OOXXOO.  OOOOXX.  ",
" .OXXXXXOXOOOOXXo   ",
" o@OOXXXXXO  O...   ",
" #@OXXXXXO.  o      ",
" ..XXXXXXO      .   ",
"  ..OOXXOO     ..   ",
"  #@OXXXXXO.OOO     ",
"   o@OOOXXXOO..     ",
"    .OO++X++O       ",
"    . .+ +          ",
"                    ",
"                    ",
"                    ",
"                    ",
"                    ",
"       +OO....      ",
"     ++XOOOO  .     ",
"  .+++XO.           ",
"  OOOXXO    ...o    ",
" .OOXXXO     OXXXX. ",
"  @OXXXXO.  OOOXXX. ",
" o@OOXXXXXOOOOOXXX  ",
" #.XXXXXXXOOOOXXX.  ",
" ..XXXXXO.   ...o   ",
" ..OOXXXO           ",
"  #@OXXXXO      .   ",
"  o.OOXXXO.  O..    ",
"   .OOOXXXOOO.      ",
"    .+++++OO.       ",
"       +            ",
"                    ",
"                    ",
"                    ",
"                    ",
"                    ",
"      +++OO..       ",
"   .+++XXOOOO..     ",
"  .OOOXXO.     .    ",
"  .OOXXXO           ",
" o@OXXXOO   o...o   ",
" #@OOXXXO.   OXXX.  ",
" ..XXXXXXXOOOOOXXX. ",
" ..XXXXXXXOOOOOXXX. ",
" #@OOXXXO.   OXXX.  ",
" o@OXXXOO   o...o   ",
"  .OOXXXO           ",
"  .OOOXXO.     .    ",
"   .+++XXOOOO..     ",
"      +++OO..       ",
"                    ",
"                    ",
"                    ",
"                    ",
"                    ",
"       +            ",
"    .+++++OO.       ",
"   .OOOXXXOOO.      ",
"  o.OOXXXO.  O..    ",
"  #@OXXXXO      .   ",
" ..OOXXXO           ",
" ..XXXXXO.   ...o   ",
" #.XXXXXXXOOOOXXX.  ",
" o@OOXXXXXOOOOOXXX  ",
"  @OXXXXO.  OOOXXX. ",
" .OOXXXO     OXXXX. ",
"  OOOXXO    ...o    ",
"  .+++XO.           ",
"     ++XOOOO  .     ",
"       +OO....      ",
"                    ",
"                    ",
"                    ",
"                    ",
"                    ",
"    . .+ +          ",
"    .OO++X++O       ",
"   o@OOOXXXOO..     ",
"  #@OXXXXXO.OOO     ",
"  ..OOXXOO     ..   ",
" ..XXXXXXO      .   ",
" #@OXXXXXO.  o      ",
" o@OOXXXXXO  O...   ",
" .OXXXXXOXOOOOXXo   ",
" .OOXXOO.  OOOOXX.  ",
" .+OOXXO    OOXXXX. ",
"   ++XO.   o.XXXX.  ",
"    +XXO     ..o.   ",
"     ++OOO          ",
"       O..O...      ",
"                    ",
"                    ",
"                    ",
"                    ",
"       .            ",
"     ..O+++         ",
"    o@OOO++++       ",
"   .@OXOXXXXOO      ",
"  ...OOXXXXOOO..    ",
"  #.XXXXXOO   OO    ",
" o@OXXXXXO     ..   ",
" .@OOXXXXX.         ",
" .OOXXXXXXO  o. ..  ",
" .OOXXOO.XOOOO..    ",
" .+OXXXO  OOOOXXo   ",
"   ++XO     OOXXX   ",
"   +XX..  o.XOXXX   ",
"    ++OO   ..XXXX.  ",
"      OOO    .o..   ",
"       .... .       ",
"          .         ",
"                    ",
"                    ",
"                    ",
"       ...          ",
"     o@.OO+         ",
"    .@@OOOO++       ",
"   ...OXXXXXX+      ",
"  o@.XXXXXXXOOO     ",
"  @@OXXXXOOO..O.    ",
" ..OXXXXXXO    O.   ",
" .OOXXXXXX.     .   ",
" .OOXXOXXXX  o   .  ",
"  +OXXOO.OOO o.  .  ",
"   +XXO   OOOO..    ",
"   +XO.    OOOX.o   ",
"    +O   ooOOOXX    ",
"     OO   ..XXXX.   ",
"      .O   ..XXX.   ",
"       ..   o ..    ",
"         ..         ",
"                    ",
"                    ",
"                    ",
"       o....        ",
"     .#@@OO+        ",
"    ...OOOOO++      ",
"   o@.XXOXXX+X+     ",
"  .@OOXXXXXXXX+     ",
"  .OXOXXXXOXO.OO    ",
" .OOOXXXXXOO .OO.   ",
"  +OXXXXXX.    O.   ",
"  ++XXOOXXX     .   ",
"  ++XXO .OOO o  ..  ",
"   +XO    OO ..     ",
"   +OO    OOOX. .   ",
"    OO   oOOOOX.    ",
"     .O  ..XXXXo    ",
"     .O.  .XXXX.    ",
"       . . oXXX.    ",
"         .    .     ",
"                    ",
"                    ",
"                    ",
"       .#o...       ",
"     #..@@OO+       ",
"    o@.XOOXOO+      ",
"  ..@OOXXOXXO++     ",
"   OOXOXXXXXXXX+    ",
"  .OOXXXXXXOXOX+    ",
"  ++OXXXXXXOO.OOO   ",
"   +XXOXXXO.   O.   ",
"  +XXXOOOXX    O.   ",
"   +XO  .OO     O   ",
"   +O.    OO o  .   ",
"   OOO    OOO.  .   ",
"    .O  oOOOOX. .   ",
"    .O   .XOXX.     ",
"      .  .XXXXo     ",
"      .. .oXXX.     ",
"           .X.      ",
"            .       ",
"                    ",
"                    ",
"       ..#o .       ",
"     o#...@@OO.     ",
"    ..@OXXOOOO+     ",
"   .OOOOXXOXXO+     ",
"   +OOXXXXXXXX++    ",
"   +OXXXXXXXXXX+    ",
"  ++XXXXXXXXOOOX+   ",
"   +XXXOOXXO  .OO   ",
"   +XOO .XX.   OO   ",
"   OO.   OO    O.   ",
"   OO    OO    O.   ",
"   .O    OOO .  .   ",
"    .O  .OOOO.  .   ",
"     .  .XOOX. .    ",
"     .  .XXXXo      ",
"      . oXXXX       ",
"         .XXX       ",
"           ..       ",
"                    ",
"                    ",
"       o#..#o       ",
"     ..@@..@@..     ",
"    .OOOOXXOOOO.    ",
"    +OOXOXXOXOO+    ",
"    +OXXXXXXXXO+    ",
"   ++XXXXXXXXXX++   ",
"   +XXXOXXXXOXXX+   ",
"   +XOOOOXXOOOOX+   ",
"   OO.  .XX.  .OO   ",
"   OO    OO    OO   ",
"   .O    OO    O.   ",
"   .O  o OO o  O.   ",
"    .  .OOOO.  .    ",
"    .  .XOOX.  .    ",
"     . .XXXX. .     ",
"       oXXXXo       ",
"        .XX.        ",
"         ..         ",
"                    ",
"                    ",
"       . o#..       ",
"     .OO@@...#o     ",
"     +OOOOXXO@..    ",
"     +OXXOXXOOOO.   ",
"    ++XXXXXXXXOO+   ",
"    +XXXXXXXXXXO+   ",
"   +XOOOXXXXXXXX++  ",
"   OO.  OXXOOXXX+   ",
"   OO   .XX. OOX+   ",
"   .O    OO   .OO   ",
"   .O    OO    OO   ",
"   .  . OOO    O.   ",
"   .  .OOOO.  O.    ",
"    . .XOOX.  .     ",
"      oXXXX.  .     ",
"       XXXXo .      ",
"       XXX.         ",
"       ..           ",
"                    ",
"                    ",
"       ...o#.       ",
"       +OO@@..#     ",
"      +OOXOOX.@o    ",
"     ++OXXOXXOO@..  ",
"    +XXXXXXXXOXOO   ",
"    +XOXOXXXXXXOO.  ",
"   OOO.OOXXXXXXO++  ",
"   .O   .OXXXOXX+   ",
"   .O    XXOOOXXX+  ",
"   O     OO.  OX+   ",
"   .  o OO    .O+   ",
"   .  .OOO    OOO   ",
"   . .XOOOOo  O.    ",
"     .XXOX.   O.    ",
"     oXXXX.  .      ",
"     .XXXo. ..      ",
"      .X.           ",
"       .            ",
"                    ",
"                    ",
"        ....o       ",
"        +OO@@#.     ",
"      ++OOOOO...    ",
"     +X+XXXOXX.@o   ",
"     +XXXXXXXXOO@.  ",
"    OO.OXOXXXXOXO.  ",
"   .OO. OOXXXXXOOO. ",
"   .O    .XXXXXXO+  ",
"   .     XXXOOXX++  ",
"  ..  o OOO. OXX++  ",
"     .. OO    OX+   ",
"   . .XOOO    OO+   ",
"    .XOOOOo   OO    ",
"    oXXXX..  O.     ",
"    .XXXX.  .O.     ",
"    .XXXo . .       ",
"     .    .         ",
"                    ",
"                    ",
"                    ",
"          ...       ",
"         +OO.@o     ",
"       ++OOOO@@.    ",
"      +XXXXXXO...   ",
"     OOOXXXXXXX.@o  ",
"    .O .OOOXXXXO@@  ",
"   .O    OXXXXXXO.. ",
"   .     .XXXXXXOO. ",
"  .   o  OXXXOXXOO. ",
"  .  .o OOX.OOXXO+  ",
"    ..OOOO   OXX+   ",
"   o.XOOO    .OX+   ",
"    XXOOOoo  .O+    ",
"   .XXXX..   OO     ",
"   .XXX..   O.      ",
"    .. o   ..       ",
"         ..         ",
"                    ",
"                    ",
"                    ",
"            .       ",
"         +++O..     ",
"       ++++OOO@o    ",
"      OOXXXXOXO@.   ",
"    ..OOOXXXXOO...  ",
"    OO   OOXXXXX.#  ",
"   ..     OXXXXXO@o ",
"         .XXXXXOO@. ",
"  .. .o  OXXXXXXOO. ",
"    ..OOOOX.OOXXOO. ",
"   oXXOOOO  OXXXO+. ",
"   XXXOO     OX++   ",
"   XXXOX.o  ..XX+   ",
"  .XXXX..   OO++    ",
"   ..o.    OOO      ",
"       . ....       ",
"         .          ",
"                    ",
"                    ",
"                    ",
"                    ",
"          + +. .    ",
"       O++X++OO.    ",
"     ..OOXXXOOO@o   ",
"     OOO.OXXXXXO@#  ",
"   ..     OOXXOO..  ",
"   .      OXXXXXX.. ",
"      o  .OXXXXXO@# ",
"   ...O  OXXXXXOO@o ",
"   oXXOOOOXOXXXXXO. ",
"  .XXOOOO  .OOXXOO. ",
" .XXXXOO    OXXOO+. ",
"  .XXXX.o   .OX++   ",
"   .o..     OXX+    ",
"          OOO++     ",
"      ...O..O       ",
"                    ",
"                    ",
"                    ",
"                    ",
"                    ",
"            +       ",
"       .OO+++++.    ",
"      .OOOXXXOOO.   ",
"    ..O  .OXXXOO.o  ",
"   .      OXXXXO@#  ",
"           OXXXOO.. ",
"   o...   .OXXXXX.. ",
"  .XXXOOOOXXXXXXX.# ",
"  XXXOOOOOXXXXXOO@o ",
" .XXXOOO  .OXXXXO@  ",
" .XXXXO     OXXXOO. ",
"    o...    OXXOOO  ",
"           .OX+++.  ",
"     .  OOOOX++     ",
"      ....OO+       ",
"                    ",
"                    ",
"                    ",
"                    ",
"                    ",
"                    ",
"       ..OO+++      ",
"     ..OOOOXX+++.   ",
"    .     .OXXOOO.  ",
"           OXXXOO.  ",
"   o...o   OOXXXO@o ",
"  .XXXO   .OXXXOO@# ",
" .XXXOOOOOXXXXXXX.. ",
" .XXXOOOOOXXXXXXX.. ",
"  .XXXO   .OXXXOO@# ",
"   o...o   OOXXXO@o ",
"           OXXXOO.  ",
"    .     .OXXOOO.  ",
"     ..OOOOXX+++.   ",
"       ..OO+++      ",
"                    ",
"                    ",
"                    ",
"                    ",
"                    ",
"                    ",
"      ....OO+       ",
"     .  OOOOX++     ",
"           .OX+++.  ",
"    o...    OXXOOO  ",
" .XXXXO     OXXXOO. ",
" .XXXOOO  .OXXXXO@  ",
"  XXXOOOOOXXXXXOO@o ",
"  .XXXOOOOXXXXXXX.# ",
"   o...   .OXXXXX.. ",
"           OXXXOO.. ",
"   .      OXXXXO@#  ",
"    ..O  .OXXXOO.o  ",
"      .OOOXXXOOO.   ",
"       .OO+++++.    ",
"            +       ",
"                    ",
"                    ",
"                    ",
"                    ",
"                    ",
"      ...O..O       ",
"          OOO++     ",
"   .o..     OXX+    ",
"  .XXXX.o   .OX++   ",
" .XXXXOO    OXXOO+. ",
"  .XXOOOO  .OOXXOO. ",
"   oXXOOOOXOXXXXXO. ",
"   ...O  OXXXXXOO@o ",
"      o  .OXXXXXO@# ",
"   .      OXXXXXX.. ",
"   ..     OOXXOO..  ",
"     OOO.OXXXXXO@#  ",
"     ..OOXXXOOO@o   ",
"       O++X++OO.    ",
"          + +. .    ",
"                    ",
"                    ",
"                    ",
"                    ",
"         .          ",
"       . ....       ",
"   ..o.    OOO      ",
"  .XXXX..   OO++    ",
"   XXXOX.o  ..XX+   ",
"   XXXOO     OX++   ",
"   oXXOOOO  OXXXO+. ",
"    ..OOOOX.OOXXOO. ",
"  .. .o  OXXXXXXOO. ",
"         .XXXXXOO@. ",
"   ..     OXXXXXO@o ",
"    OO   OOXXXXX.#  ",
"    ..OOOXXXXOO...  ",
"      OOXXXXOXO@.   ",
"       ++++OOO@o    ",
"         +++O..     ",
"            .       ",
"                    ",
"                    ",
"                    ",
"         ..         ",
"    .. o   ..       ",
"   .XXX..   O.      ",
"   .XXXX..   OO     ",
"    XXOOOoo   O+    ",
"   o.XOOO    .OX+   ",
"    ..OOOO   OXX+   ",
"  .  .o OOO.OOXXO+  ",
"  .   o  XXXXOXXOO. ",
"   .     .XXXXXXOO. ",
"   .O    OXXXXXXO.. ",
"    .O..OOOXXXXO@@  ",
"     OOOXXXXXXX.@o  ",
"      +XXXXXXO...   ",
"       ++OOOO@@.    ",
"         +OO.@o     ",
"          ...       ",
"                    ",
"                    ",
"                    ",
"     .    .         ",
"    .XXXo . .       ",
"    .XXXX.  .O.     ",
"    oXXXX..  O.     ",
"    .XOOOOo   OO    ",
"   . .XOOO    OO+   ",
"     .. OO    OX+   ",
"  ..  o OOO. OXX++  ",
"   .     XXXOOXX++  ",
"   .O    .XXXXXXO+  ",
"   .OO. OOXXXXXOOO. ",
"    OO.OXOXXXXOXO.  ",
"     +XXXXXXXXOO@.  ",
"     +X+XXXOXX.@o   ",
"      ++OOOOO...    ",
"        +OO@@#.     ",
"        ....o       ",
"                    ",
"                    ",
"       .            ",
"      .X.           ",
"     .XXXo. ..      ",
"     oXXXX.  .      ",
"     .XXOX.   O.    ",
"   . .XOOOOo  O.    ",
"   .  .OOO    OOO   ",
"   .  o OO    .O+   ",
"   O     OO.  OX+   ",
"   .O    XXOOOXXX+  ",
"   .O   .OXXXOXX+   ",
"   OOO.OOXXXXXXO++  ",
"    +XOXOXXXXXXOO.  ",
"    +XXXXXXXXOXOO   ",
"     ++OXXOXXOO@..  ",
"      +OOXOOX.@o    ",
"       +OO@@..#     ",
"       ...o#.       ",
"                    ",
"                    ",
"       ..           ",
"       XXX.         ",
"       XXXXo .      ",
"      oXXXX.  .     ",
"    . .XOOX.  .     ",
"   .  .OOOO.  O.    ",
"   .  . OOO    O.   ",
"   .O    OO    OO   ",
"   .O    OO   .OO   ",
"   OO   .XX. OOX+   ",
"   OO.  OXXOOXXX+   ",
"   +XOOOXXXXXXXX++  ",
"    +XXXXXXXXXXO+   ",
"    ++XXXXXXXXOO+   ",
"     +OXXOXXOOOO.   ",
"     +OOOOXXO@..    ",
"     .OO@@...#o     ",
"       . o#..       ",
"                    ",
"                    ",
};
