/* XPM */
static char * BB9_xpm[] = {
/* width height colors chars_per_color */
"20  640 5 1"
/* colors */
" 	c None",
".	c #000078787878",
"X	c #0000A0A0A0A0",
"o	c #0000C8C8C8C8",
"O	c #0000FFFFFFFF",
/* pixels */
"                    ",
"         .X.        ",
"        .oOo.       ",
"        XOOOX       ",
"        oOOOo       ",
"        oOOOo       ",
"        oOOOo       ",
"      . oOOOo .     ",
"      . .XOX. .     ",
"      .  XOX  .     ",
"      .  XOX  .     ",
"      .  XOX  .     ",
"      .X oOo X.     ",
"      .XXoOoXX.     ",
"      .XXoOoXX.     ",
"      .XXoOoXX.     ",
"      .XXoOoXX.     ",
"      .X oOo X.     ",
"      .. .X. ..     ",
"                    ",
"                    ",
"           .X       ",
"         .oOO.      ",
"         XOOO.      ",
"         oOOOX      ",
"         oOOOo      ",
"       . oOOOo      ",
"      . oOOOOo      ",
"      . .XOX. .     ",
"      .  XOX  .     ",
"      .  XOX  .     ",
"      .  XOX  .     ",
"     .X ooOo  .     ",
"     .XXoOoXX.      ",
"     .XXoOoXX.      ",
"     .XXoOoXX.      ",
"     .XXoOoXX.      ",
"    .. ooOo X.      ",
"       .X. ..       ",
"            .       ",
"                    ",
"            .       ",
"           .oX.     ",
"           XOOo     ",
"          oOOOX.    ",
"          oOOOo     ",
"       . oOOOOo     ",
"       . oOOOo      ",
"      .  .XOOo      ",
"      .  XOX.  .    ",
"     ..  XOX  .     ",
"     .X XOXX  .     ",
"     .XXoOo  .      ",
"    .XXooOo X.      ",
"    .XXoOoXX..      ",
"   .XXXoOoXX.       ",
"   .. oOoXXX.       ",
"      .Oo X.        ",
"       X. X.        ",
"         ..         ",
"                    ",
"                    ",
"              .     ",
"            XoOX    ",
"           oOOOo    ",
"        .  oOOOX.   ",
"        . oOOOOo    ",
"       . .OOOOo     ",
"      .   XOOoo     ",
"      .  XOOXo      ",
"     .X XXOX  ..    ",
"    .XX oOX   .     ",
"    .XXoOOX  .      ",
"   .XXooOo X..      ",
"  .XXXoOoXXX.       ",
"  .. oOOoXX.        ",
"    .oOoXX..        ",
"     X.  X.         ",
"        X.          ",
"        ..          ",
"                    ",
"                    ",
"                    ",
"              ..    ",
"             XoOX   ",
"         .  oOOOo   ",
"        .  oOOOO..  ",
"       .  oOOOOoX   ",
"      .   XOOOoo    ",
"     .X  XOOOoo     ",
"    .XX XOOX.o      ",
"   .XXXoOOX   ..    ",
"  .XXXoOOo   ..     ",
" .XXXoOOo   ..      ",
"  . oOOoXXX..       ",
"   .OOoXXX..        ",
"    Xo XX..         ",
"       X..          ",
"      ...           ",
"       .            ",
"                    ",
"                    ",
"                    ",
"                    ",
"               ..   ",
"          .  oXooX  ",
"        ..  oOOOO.  ",
"       .  .oOOOOO.  ",
"     ..   XOOOOOX.  ",
"    .XX  XXOOOoo    ",
"  ..XXXoXOOXXoo     ",
" .XXXXooOOX .       ",
" .XXooOOoX   ..     ",
"   ooOOoX   ..      ",
"  .OOooXXX..        ",
"   XoXXXX..         ",
"      X..           ",
"    .X..            ",
"     .              ",
"                    ",
"                    ",
"                    ",
"                    ",
"                    ",
"                    ",
"          .     .   ",
"        ...  ooXo.  ",
"      ..   ooOOOOOX ",
"   ...X   .XOOOOOo. ",
" ..XXXX  XXOOOOOX.  ",
"..XXXXooXOOXOOooo   ",
"   XooOOOXXX.o      ",
" .ooOOOoo           ",
"  XOoooX    ...     ",
"  .oXXXXXX..        ",
"     XX...          ",
"   .X..             ",
"   ..               ",
"                    ",
"                    ",
"                    ",
"                    ",
"                    ",
"                    ",
"                    ",
"                    ",
"       .....        ",
"  .....     ooooXo. ",
" .XXXXX    .OOOOOoX ",
" . XXXXoXXXXOOOOOO. ",
"  oooooOOOOOOOOOOo  ",
" .OOOOOOXXXXOoooX.  ",
" XOooooo    .       ",
"  . XXXXX    .      ",
"   XXXXX.....       ",
"  ......            ",
"  .                 ",
"                    ",
"                    ",
"                    ",
"                    ",
"                    ",
"                    ",
"                    ",
"                    ",
"                    ",
" ............       ",
" .XXXXXX            ",
"   XXXX    .ooooX.  ",
" .ooooooXXXXOOOOOo. ",
" XOOOOOOOOOOOOOOOOX ",
" .ooooooXXXXOOOOOo. ",
"   XXXX    .ooooX.  ",
" .XXXXXX            ",
" ............       ",
"                    ",
"                    ",
"                    ",
"                    ",
"                    ",
"                    ",
"                    ",
"                    ",
"                    ",
"  .                 ",
"  ......            ",
"   XXXXX.....       ",
" .oXXXX      .      ",
" Xoooooo   .o       ",
" .OOOOOoXXXXOoooX.  ",
"  oooooOOOOOOOOOOo  ",
" . XXXXoXXXXOOOOOO. ",
"..XXXXX    .OOOOOOX ",
"  .....     oooX..  ",
"       .....        ",
"                    ",
"                    ",
"                    ",
"                    ",
"                    ",
"                    ",
"                    ",
"                    ",
"   ..               ",
"   .X..             ",
"    XXX...          ",
"  .oXXXXX...        ",
" XOOoooX    ..      ",
" .ooOOooX           ",
".  XooOOOXX.oo      ",
".XXXXXooXOOXOOoo    ",
" ..XXX  XXXOOOOOX.  ",
"   ...X   .OOOOOOo. ",
"     ...   ooOOOOX  ",
"        ..   ooXo.  ",
"          .    .    ",
"                    ",
"                    ",
"                    ",
"                    ",
"                    ",
"                    ",
"    ..              ",
"    .X.             ",
"   . XX..           ",
"  XooXXXX.          ",
"  .OOooXXX..        ",
"   oOOoo    .       ",
".X XooOOoX   ..     ",
"..XXXXoOOXX .       ",
"  ..XX XXOOXOo      ",
"   ..XX  XOOOOoo    ",
"     ..   XOOOOOX   ",
"      ..  ooOOOOo   ",
"        .. ooOOOO.  ",
"         .   oXoX   ",
"              .     ",
"                    ",
"                    ",
"                    ",
"                    ",
"      .             ",
"     .X.            ",
"    . XX.           ",
"   XOoXXX.          ",
"   oOOoXXX.         ",
" .  oOOoXXX.        ",
"..XXXoOOo   .       ",
" ..XXXoOOX   .      ",
"  ..XX oOOX   .     ",
"   ..X  XOXXo       ",
"    ..   XOOOo      ",
"     ..  .OOOOo     ",
"      .. ooOOOOX    ",
"       .. ooOOOo.   ",
"        .  ooOOo.   ",
"            X.oX    ",
"             .      ",
"                    ",
"                    ",
"                    ",
"       ..           ",
"     . XX.          ",
"    XOoXX.          ",
"  . oOooXX.         ",
" .X XoOoXXX.        ",
"  .XXoOOoXX.        ",
"  ..XXoOoo  .       ",
"   .XXXoOX   .      ",
"    .X XOOX  .      ",
"    ..  XOXX. .     ",
"     .   XOOo       ",
"      . .XOOOo      ",
"      .. oOOOOo     ",
"       . ooOOOX     ",
"          oOOOo.    ",
"           XOOo.    ",
"           ...X     ",
"                    ",
"                    ",
"         .          ",
"       . ..         ",
"     .Xo X.         ",
"  .. oOoXXX.        ",
"  .X XoOoXX.        ",
"   .XXoOoXX.        ",
"   .XXoOOoXX.       ",
"    .XXoOo  .       ",
"    .X oOX   .      ",
"    .X  XOX  .      ",
"     .  XOX. ..     ",
"     .  XXOXo       ",
"      . .OOOo       ",
"      . oOOOOo      ",
"      .  oOOOo      ",
"         oOOOX      ",
"         oXOOo.     ",
"          .oO.      ",
"           .X       ",
"                    ",
"                    ",
"       X. ..        ",
"   .. .OOo X.       ",
"    .X oOoXX.       ",
"    .XXoOoXX.       ",
"    .XXoOoXX.       ",
"    .XXoOoXX.       ",
"    .XXoOOo  .      ",
"     .X XOX  .      ",
"     .  XOX  .      ",
"     .  XOX  .      ",
"     .  XOX. .      ",
"     . .OOOOo       ",
"      . oOOOo       ",
"        oOOOo       ",
"        oOOOo       ",
"        XOOOX       ",
"        .oOoo       ",
"          .X.       ",
"                    ",
"                    ",
"     .. .X. ..      ",
"     .X oOo X.      ",
"     .XXoOoXX.      ",
"     .XXoOoXX.      ",
"     .XXoOoXX.      ",
"     .XXoOoXX.      ",
"     .X oOo X.      ",
"     .  XOX  .      ",
"     .  XOX  .      ",
"     .  XOX  .      ",
"     . .XOX. .      ",
"     . oOOOo .      ",
"       oOOOo        ",
"       oOOOo        ",
"       oOOOo        ",
"       XOOOX        ",
"       .oOo.        ",
"        .X.         ",
"                    ",
"       .            ",
"       .. .X.       ",
"      .X oOoo ..    ",
"      .XXoOoXX.     ",
"      .XXoOoXX.     ",
"      .XXoOoXX.     ",
"      .XXoOoXX.     ",
"     .  oOoo X.     ",
"     .  XOX  .      ",
"     .  XOX  .      ",
"     .  XOX  .      ",
"     . .XOX. .      ",
"      oOOOOo .      ",
"      oOOOo .       ",
"      oOOOo         ",
"      XOOOo         ",
"      .OOOX         ",
"      .OOo.         ",
"       X.           ",
"                    ",
"         ..         ",
"        .X .X       ",
"        .X oO.      ",
"       .XXXoOo ..   ",
"       .XXoOoXXX.   ",
"      ..XXoOoXX.    ",
"      .X oOooXX.    ",
"      .  oOoXX.     ",
"     .  XXOX X.     ",
"     .  XOX  ..     ",
"    .  .XOX  .      ",
"      oOOX.  .      ",
"      oOOOo .       ",
"     oOOOOo .       ",
"     oOOOo          ",
"    .XOOOo          ",
"     oOOX           ",
"     .Xo.           ",
"       .            ",
"                    ",
"          ..        ",
"          .X        ",
"         .X  .X     ",
"        ..XXoOo.    ",
"        .XXoOOo ..  ",
"       .XXXoOoXXX.  ",
"      ..X oOooXX.   ",
"      .  XOOoXX.    ",
"     .   XOo XX.    ",
"    ..  XOXX X.     ",
"      oXOOX  .      ",
"     ooOOX   .      ",
"     oOOOO. .       ",
"    oOOOOo .        ",
"   .XOOOo  .        ",
"    oOOOo           ",
"    XOoX            ",
"     .              ",
"                    ",
"                    ",
"            .       ",
"           ...      ",
"          ..X       ",
"         ..XX oX    ",
"        ..XXXoOO.   ",
"       ..XXXoOOo .  ",
"      ..   oOOoXXX. ",
"     ..   oOOoXXX.  ",
"    ..   XOOoXXX.   ",
"      o.XOOX XX.    ",
"     ooOOXX  X.     ",
"    ooOOOX   .      ",
"   XoOOOOo  .       ",
"  ..OOOOo  .        ",
"   oOOOo  .         ",
"   XooX             ",
"    ..              ",
"                    ",
"                    ",
"                    ",
"                    ",
"              .     ",
"            ..X.    ",
"           ..X      ",
"         ..XXXXoX   ",
"        ..XXXooOO.  ",
"      ..   XoOOoo   ",
"     ..   XoOOooXX. ",
"       . XOOooXXXX. ",
"     ooXXOOXoXXX..  ",
"    ooOOOXX  XX.    ",
"  .XOOOOOX   ..     ",
"  .OOOOOo.  .       ",
"  .OOOOo  ..        ",
"  XooXo  .          ",
"   ..               ",
"                    ",
"                    ",
"                    ",
"                    ",
"                    ",
"                    ",
"               ..   ",
"             ..X.   ",
"          ...XX     ",
"        ..XXXXXXo.  ",
"     ...    XoooOX  ",
"           ooOOOoo. ",
"      o.XXXOOOooX   ",
"   oooOOXOOXooXXXX..",
"  .XOOOOOXX  XXXX.. ",
" .oOOOOOX.   X...   ",
" XOOOOOoo   ..      ",
"  .oXoo  ...        ",
"   .     .          ",
"                    ",
"                    ",
"                    ",
"                    ",
"                    ",
"                    ",
"                    ",
"                    ",
"                 .  ",
"            ......  ",
"       .....XXXXX   ",
"      .    XXXXX .  ",
"       .    oooooOX ",
"  .XoooOXXXXOOOOOO. ",
"  oOOOOOOOOOOooooo  ",
" .OOOOOOXXXXoXXXX . ",
" XoOOOOO.    XXXXX. ",
" .oXoooo     .....  ",
"        .....       ",
"                    ",
"                    ",
"                    ",
"                    ",
"                    ",
"                    ",
"                    ",
"                    ",
"                    ",
"                    ",
"                    ",
"       ............ ",
"            XXXXXX. ",
"  .Xoooo.    XXXX   ",
" .oOOOOOXXXXoooooo. ",
" XOOOOOOOOOOOOOOOOX ",
" .oOOOOOXXXXoooooo. ",
"  .Xoooo.    XXXX   ",
"            XXXXXX. ",
"       ............ ",
"                    ",
"                    ",
"                    ",
"                    ",
"                    ",
"                    ",
"                    ",
"                    ",
"                    ",
"                    ",
"                    ",
"        .....       ",
"  ..Xooo     .....  ",
" XOOOOOO.    XXXXX..",
" .OOOOOOXXXXoXXXX . ",
"  oOOOOOOOOOOooooo  ",
"  .XoooOXXXXoOOOOO. ",
"       o.   ooooooX ",
"      .      XXXXo. ",
"       .....XXXXX   ",
"            ......  ",
"                 .  ",
"                    ",
"                    ",
"                    ",
"                    ",
"                    ",
"                    ",
"                    ",
"                    ",
"    .    .          ",
"  .oXoo   ..        ",
"  XOOOOoo   ...     ",
" .oOOOOOO.   X...   ",
"  .XOOOOOXXX  XXX.. ",
"    ooOOXOOXooXXXXX.",
"      oo.XXOOOooX  .",
"           XooOOoo. ",
"      ..    XoooOOX ",
"        ...XXXXXo.  ",
"          ...XXX    ",
"             ..X.   ",
"               ..   ",
"                    ",
"                    ",
"                    ",
"                    ",
"                    ",
"                    ",
"     .              ",
"   XoXo   .         ",
"  .OOOOoo ..        ",
"   oOOOOoo  ..      ",
"   XOOOOOX   ..     ",
"    ooOOOOX  XX..   ",
"      oOXOOXX XX..  ",
"       . XXOOoXXXX..",
"     ..   XoOOooX X.",
"       .    ooOOo   ",
"        ..XXXooOO.  ",
"          .XXXXooX  ",
"           ..XX .   ",
"             .X.    ",
"              ..    ",
"                    ",
"                    ",
"                    ",
"                    ",
"      .             ",
"    Xo.X            ",
"   .oOOoo  .        ",
"   .oOOOoo ..       ",
"    XOOOOoo ..      ",
"     oOOOO.  ..     ",
"      oOOOX   ..    ",
"       oXXOX  X..   ",
"     .   XOOo XX..  ",
"      .   XOOoXXX.. ",
"       .   oOOoXXX..",
"        .XXXoOOo  . ",
"         .XXXoOOo   ",
"          .XXXoOX   ",
"           .XX .    ",
"            .X.     ",
"             .      ",
"                    ",
"                    ",
"                    ",
"     X...           ",
"    .oOOX           ",
"    .oOOOo          ",
"     XOOOoo .       ",
"     oOOOOo ..      ",
"      oOOOX. .      ",
"       oOOX   .     ",
"     . .XXOX  ..    ",
"      .  XOOX X.    ",
"      .   XOoXXX.   ",
"       .  ooOoXX..  ",
"        .XXoOOoXX.  ",
"        .XXXoOoX X. ",
"         .XXooOo .  ",
"          .XXoOX    ",
"          .XX .     ",
"           ..       ",
"                    ",
"                    ",
"       X.           ",
"      .Oo.          ",
"     .oOOXo         ",
"      XOOOo         ",
"      oOOOo  .      ",
"      oOOOOo .      ",
"       oOOO. .      ",
"       oXOXX  .     ",
"     .. .XOX  .     ",
"      .  XOX  X.    ",
"      .   XOo X.    ",
"       .  oOoXX.    ",
"       .XXoOOoXX.   ",
"        .XXoOoXX.   ",
"        .XXoOoX X.  ",
"        .XXXoOo ..  ",
"         .X oX.     ",
"         .. .       ",
"          .         ",
"                    ",
"       .X.          ",
"       ooOo.        ",
"       XOOOX        ",
"       oOOOo        ",
"       oOOOo        ",
"       oOOOo .      ",
"       oOOOO. .     ",
"      . .XOX  .     ",
"      .  XOX  .     ",
"      .  XOX  .     ",
"      .  XOX X.     ",
"      .  oOOoXX.    ",
"       .XXoOoXX.    ",
"       .XXoOoXX.    ",
"       .XXoOoXX.    ",
"       .XXoOo X.    ",
"       .X oOO. ..   ",
"        .. .X       ",
"                    ",
};
