/* XPM */
static char * C2_xpm[] = {
/* width height colors chars_per_color */
"20  640 8 1"
/* colors */
" 	c None",
".	c #9A9A9A9AAFAF",
"X	c #C6C6C6C6E0E0",
"o	c #A9A9A9A9C0C0",
"O	c #8D8D8D8DA0A0",
"+	c #00008080FFFF",
"@	c #FFFF00000000",
"#	c #B0B000000000",
/* pixmap */
"                    ",
"         ..         ",
"        .XX.        ",
"        oXXo        ",
"     .  OXXO  .     ",
"    .    oo    .    ",
"    o    oo    o    ",
"    o   .oo.   o    ",
"    o.  oooo  .o    ",
"    oo  oXXo  oo    ",
"    +o .oXXo. o+    ",
"    +o.oXXXXo.o+    ",
"    +o.XX@@XX.o+    ",
"    +o. .##. .o+    ",
"     +        +     ",
"     o        o     ",
"      o      o      ",
"                    ",
"                    ",
"                    ",
"                    ",
"           ..       ",
"         .XXX       ",
"      .  oXXo       ",
"     .   OXXO       ",
"     o    oo   .    ",
"     o    oo    .   ",
"    o.  .ooo.   o   ",
"    oo  oooo   o    ",
"    +o  oXXo  .o    ",
"    +o..oXXo. oo    ",
"    +o.oXXXX. o+    ",
"   +o. X@@@Xo.o+    ",
"    +  .##. .o+     ",
"    o       .o+     ",
"     o       +      ",
"             o      ",
"            o       ",
"                    ",
"                    ",
"                    ",
"            .       ",
"           .X.      ",
"      ..   oXX.     ",
"      o   OXXo      ",
"     o     oXO      ",
"     o.   ooo   .   ",
"     oo  .oo    .   ",
"    +o  oooo.   o   ",
"    +o .oXXo    o   ",
"   +o..oXXXo  .o    ",
"   +o.XXXXXo. oo    ",
"    +  .@@Xo.o+     ",
"   o    ##.X.o+     ",
"    o      .oo+     ",
"            ++      ",
"            o       ",
"          o         ",
"                    ",
"                    ",
"                    ",
"                    ",
"         .    .     ",
"       . .  oXX.    ",
"      oo   OXXX.    ",
"      o     XXo     ",
"     oo.   oooO     ",
"    ++o  oooo   .   ",
"    +o . ooo.       ",
"   +oo..oXXoo   ..  ",
"    o.XXXXXo    o   ",
"   +   X@Xo.  .o    ",
"   o   #@@Xo ooo    ",
"   o    #.X.oo+     ",
"           .o+      ",
"           o++      ",
"          o+        ",
"         oo         ",
"                    ",
"                    ",
"                    ",
"                    ",
"         ..         ",
"        o     ..    ",
"       o     oXX.   ",
"      o.     XXX.   ",
"     +oo    ooXo    ",
"    +oo   .ooo      ",
"   +oo...oooo       ",
"   +o.XooXXo.    .  ",
"  o+  XXXXXo     .  ",
"      .@@Xo     o   ",
"       #@Xo. o.o    ",
"        .XX.ooo     ",
"          .oo+      ",
"          oo+       ",
"         +++        ",
"         o          ",
"                    ",
"                    ",
"                    ",
"                    ",
"          .         ",
"         o. .       ",
"       oo      ..   ",
"      +o.    OoXX.  ",
"    ++oo     oXXX   ",
"    +oo   o.ooXXo   ",
"   +o..o.ooooo O    ",
"  oo  XXoXXoo       ",
"  o   .@XXXoo   ..  ",
"      #@@Xo         ",
"       #XX.. . o.   ",
"         X. oooo    ",
"         .oo+o      ",
"         oo++       ",
"      oo+ +         ",
"                    ",
"                    ",
"                    ",
"                    ",
"                    ",
"                    ",
"          oo..      ",
"        oo          ",
"     +++o.      .   ",
"    +ooo      OoX.  ",
"   o+o...  . oXXXX. ",
"     .XooooooooXo.  ",
"  o   .XXXXooo O    ",
"      #@XXXo.       ",
"      #@XXoo        ",
"       .Xo.     .   ",
"        X.  o. o.   ",
"        ..ooooo     ",
"     o +oo++        ",
"      o ++          ",
"                    ",
"                    ",
"                    ",
"                    ",
"                    ",
"                    ",
"            o.      ",
"       ++ooo  .     ",
"     ++ooo.         ",
"   o+oo.            ",
"  o  ..o..  .  OoX. ",
"       XXooooooXXX. ",
"      .@XXXooooXXX  ",
"      #@XXXoo  Oo.  ",
"      #@Xooo.       ",
"      .Xo.          ",
"        ..      .   ",
"    o  .oooo.oo.    ",
"     o+o+++oo       ",
"       +            ",
"                    ",
"                    ",
"                    ",
"                    ",
"                    ",
"                    ",
"                    ",
"      ++++oooo.     ",
"    o+ooooo.   .    ",
"   o  ...           ",
"       Xo.          ",
"      .XXooo.  Oo.  ",
"      #@XXXooooXXX. ",
"      #@XXXooooXXX. ",
"      .XXooo.  Oo.  ",
"       Xo.          ",
"   o  ...           ",
"    o+ooooo.   .    ",
"      ++++oooo.     ",
"                    ",
"                    ",
"                    ",
"                    ",
"                    ",
"                    ",
"                    ",
"       +            ",
"     o+o+++oo       ",
"    o  .oooo.oo.    ",
"        ..      .   ",
"      .Xo.          ",
"      #@Xooo.       ",
"      #@XXXoo  Oo.  ",
"      .@XXXooooXXX  ",
"       XXooooooXXX. ",
"  o  ..o..  .  OoX. ",
"   o+oo.            ",
"     ++ooo.         ",
"       ++ooo  .     ",
"            o.      ",
"                    ",
"                    ",
"                    ",
"                    ",
"                    ",
"                    ",
"      o ++          ",
"     o +oo++        ",
"        ..ooooo     ",
"        X.  o. o.   ",
"       .Xo.     .   ",
"      #@XXoo        ",
"      #@XXXo.       ",
"  o   .XXXXooo O    ",
"     .XooooooooXo.  ",
"   o+o...  . oXXXX. ",
"    +ooo      OoX.  ",
"     +++o.      .   ",
"        oo          ",
"          oo..      ",
"                    ",
"                    ",
"                    ",
"                    ",
"                    ",
"                    ",
"      oo+ +         ",
"         oo++       ",
"         .oo+o      ",
"         X. oooo    ",
"       #XX.. . o.   ",
"      #@@Xo         ",
"  o   .@XXXoo   ..  ",
"  oo  XXoXXoo       ",
"   +o..o.ooooo O    ",
"    +oo   o.ooXXo   ",
"    ++oo     oXXX   ",
"      +o.    OoXX.  ",
"       oo      ..   ",
"         o. .       ",
"          .         ",
"                    ",
"                    ",
"                    ",
"                    ",
"         o          ",
"         +++        ",
"          oo+       ",
"          .oo+      ",
"        .XX.ooo     ",
"       #@Xo. o.o    ",
"      .@@Xo.    o   ",
"  o+  XXXXXo     .  ",
"   +o.XooXXo.    .  ",
"   +oo.. oooo       ",
"    +oo   .ooo      ",
"     +oo    ooXo    ",
"      o.     XXX.   ",
"       o     oXX.   ",
"        o     ..    ",
"         ..         ",
"                    ",
"                    ",
"                    ",
"                    ",
"         oo         ",
"          o+        ",
"           o++      ",
"           .o+      ",
"   o    #.X.oo+     ",
"   o   #@@Xo ooo    ",
"   +   X@Xo.  .o    ",
"    o.XXXXXo    o   ",
"   +oo..oXXoo   ..  ",
"    +o . ooo.       ",
"    ++o  oooo   .   ",
"     oo.   oooO     ",
"      o     XXo     ",
"      oo   OXXX.    ",
"       . .  oXX.    ",
"         .    .     ",
"                    ",
"                    ",
"                    ",
"                    ",
"          o         ",
"            o       ",
"            ++      ",
"    o      .oo+     ",
"   o    ##.X.o+     ",
"    +  .@@Xo.o+     ",
"   +o.XXXXXo. oo    ",
"   +o..oXXXo  .o    ",
"    +o .oXXo    o   ",
"    +o  oooo.   o   ",
"     oo  .oo    .   ",
"     o.   ooo   .   ",
"     o     oXO      ",
"      o   OXXo      ",
"      ..   oXX.     ",
"           .X.      ",
"            .       ",
"                    ",
"                    ",
"                    ",
"            o       ",
"             o      ",
"     o       +      ",
"    o       .o+     ",
"    +  .##. .o+     ",
"   +o. X@@@Xo.o+    ",
"    +o.oXXXX. o+    ",
"    +o..oXXo. oo    ",
"    +o  oXXo  .o    ",
"    oo  oooo   o    ",
"    o.  .ooo.   o   ",
"     o    oo    .   ",
"     o    oo   .    ",
"     .   OXXO       ",
"      .  oXXo       ",
"         .XXX       ",
"           ..       ",
"                    ",
"                    ",
"                    ",
"                    ",
"      o      o      ",
"     o        o     ",
"     +        +     ",
"    +o. .##. .o+    ",
"    +o.XX@@XX.o+    ",
"    +o.oXXXXo.o+    ",
"    +o .oXXo. o+    ",
"    oo  oXXo  oo    ",
"    o.  oooo  .o    ",
"    o   .oo.   o    ",
"    o    oo    o    ",
"    .    oo    .    ",
"     .  OXXO  .     ",
"        oXXo        ",
"        .XX.        ",
"         ..         ",
"                    ",
"                    ",
"                    ",
"       o            ",
"      o             ",
"      +       o     ",
"     +o.       o    ",
"     +o. .##.  +    ",
"    +o.oX@@@X .o+   ",
"    +o .XXXXo.o+    ",
"    oo .oXXo..o+    ",
"    o.  oXXo  o+    ",
"    o   oooo  oo    ",
"   o   .ooo.  .o    ",
"   .    oo    o     ",
"    .   oo    o     ",
"       OXXO   .     ",
"       oXXo  .      ",
"       XXX.         ",
"       ..           ",
"                    ",
"                    ",
"                    ",
"         o          ",
"       o            ",
"      ++            ",
"     +oo.      o    ",
"     +o.X.##    o   ",
"     +o.oX@@.  +    ",
"    oo .oXXXXX.o+   ",
"    o.  oXXXo..o+   ",
"   o    oXXo. o+    ",
"   o   .oooo  o+    ",
"   .    oo.  oo     ",
"   .   ooo   .o     ",
"      OXo     o     ",
"      oXXO   o      ",
"     .XXo   ..      ",
"      .X.           ",
"       .            ",
"                    ",
"                    ",
"                    ",
"         oo         ",
"        +o          ",
"      ++o           ",
"      +o.           ",
"     +oo.X.#    o   ",
"    ooo oX@@#   o   ",
"    o.  .oX@X   +   ",
"   o    oXXXXX.o    ",
"  ..   ooXXo..oo+   ",
"       .ooo . o+    ",
"   .   oooo  o++    ",
"     Oooo   .oo     ",
"     oXX     o      ",
"    .XXXO   oo      ",
"    .XXo  . .       ",
"     .    .         ",
"                    ",
"                    ",
"                    ",
"                    ",
"          o         ",
"        +++         ",
"       +oo          ",
"      +oo.          ",
"     ooo.XX.        ",
"    o.o .oX@#       ",
"   o     oX@@.      ",
"  .     oXXXXX  +o  ",
"  .    .oXXooX.o+   ",
"       oooo...oo+   ",
"      ooo.   oo+    ",
"    oXoo    oo+     ",
"   .XXX     .o      ",
"   .XXo     o       ",
"    ..     o        ",
"         ..         ",
"                    ",
"                    ",
"                    ",
"                    ",
"                    ",
"         + +oo      ",
"       ++oo         ",
"      o+oo.         ",
"    oooo .X         ",
"   .o . ..XX#       ",
"         oX@@#      ",
"  ..   ooXXX@.   o  ",
"       ooXXoXX  oo  ",
"    O ooooo.o..o+   ",
"   oXXoo.o   oo+    ",
"   XXXo     oo++    ",
"  .XXoO    .o+      ",
"   ..      oo       ",
"       . .o         ",
"         .          ",
"                    ",
"                    ",
"                    ",
"                    ",
"                    ",
"          ++ o      ",
"        ++oo+ o     ",
"     ooooo..        ",
"   .o .o  .X        ",
"   .     .oX.       ",
"        ooXX@#      ",
"       .oXXX@#      ",
"    O oooXXXX.   o  ",
"  .oXooooooooX.     ",
" .XXXXo .  ...o+o   ",
"  .XoO      ooo+    ",
"   .      .o+++     ",
"          oo        ",
"      ..oo          ",
"                    ",
"                    ",
"                    ",
"                    ",
"                    ",
"                    ",
"            +       ",
"       oo+++o+o     ",
"    .oo.oooo.  o    ",
"   .      ..        ",
"          .oX.      ",
"       .oooX@#      ",
"  .oO  ooXXX@#      ",
"  XXXooooXXX@.      ",
" .XXXooooooXX       ",
" .XoO  .  ..o..  o  ",
"            .oo+o   ",
"         .ooo++     ",
"     .  ooo++       ",
"      .o            ",
"                    ",
"                    ",
"                    ",
"                    ",
"                    ",
"                    ",
"                    ",
"     .oooo++++      ",
"    .   .ooooo+o    ",
"           ...  o   ",
"          .oX       ",
"  .oO  .oooXX.      ",
" .XXXooooXXX@#      ",
" .XXXooooXXX@#      ",
"  .oO  .oooXX.      ",
"          .oX       ",
"           ...  o   ",
"    .   .ooooo+o    ",
"     .oooo++++      ",
"                    ",
"                    ",
"                    ",
"                    ",
"                    ",
"                    ",
"                    ",
"      .o            ",
"     .  ooo++       ",
"         .ooo++     ",
"            .oo+o   ",
" .XoO  .  ..o..  o  ",
" .XXXooooooXX       ",
"  XXXooooXXX@.      ",
"  .oO  ooXXX@#      ",
"       .oooX@#      ",
"          .oX.      ",
"   .      ..        ",
"    .oo.oooo.  o    ",
"       oo+++o+o     ",
"            +       ",
"                    ",
"                    ",
"                    ",
"                    ",
"                    ",
"                    ",
"      ..oo          ",
"          oo        ",
"   .      .o+++     ",
"  .XoO      ooo+    ",
" .XXXXo .  ...o+o   ",
"  .oXooooooooX.     ",
"    O oooXXXX.   o  ",
"       .oXXX@#      ",
"        ooXX@#      ",
"   .     .oX.       ",
"   .o .o  .X        ",
"     ooooo..        ",
"        ++oo+ o     ",
"          ++ o      ",
"                    ",
"                    ",
"                    ",
"                    ",
"                    ",
"         .          ",
"       . .o         ",
"   ..      oo       ",
"  .XXoO    .o+      ",
"   XXXo     oo++    ",
"   oXXoo.o   oo+    ",
"    O ooooo.o..o+   ",
"       ooXXoXX  oo  ",
"  ..   ooXXX@.   o  ",
"         oX@@#      ",
"   .o . ..XX#       ",
"    oooo .X         ",
"      o+oo.         ",
"       ++oo         ",
"         + +oo      ",
"                    ",
"                    ",
"                    ",
"                    ",
"                    ",
"         ..         ",
"    ..     o        ",
"   .XXo     o       ",
"   .XXX     .o      ",
"    oXoo    oo+     ",
"      ooo.   oo+    ",
"       oooo ..oo+   ",
"  .    .oXXooX.o+   ",
"  .     oXXXXX  +o  ",
"   o    .oX@@.      ",
"    o.o .oX@#       ",
"     ooo.XX.        ",
"      +oo.          ",
"       +oo          ",
"        +++         ",
"          o         ",
"                    ",
"                    ",
"                    ",
"                    ",
"     .    .         ",
"    .XXo  . .       ",
"    .XXXO   oo      ",
"     oXX     o      ",
"     Oooo   .oo     ",
"   .   oooo  o++    ",
"       .ooo . o+    ",
"  ..   ooXXo..oo+   ",
"   o    oXXXXX.o    ",
"    o.  .oX@X   +   ",
"    ooo oX@@#   o   ",
"     +oo.X.#    o   ",
"      +o.           ",
"      ++o           ",
"        +o          ",
"         oo         ",
"                    ",
"                    ",
"                    ",
"       .            ",
"      .X.           ",
"     .XXo   ..      ",
"      oXXO   o      ",
"      OXo     o     ",
"   .   ooo   .o     ",
"   .    oo.  oo     ",
"   o   .oooo  o+    ",
"   o    oXXo. o+    ",
"    o.  oXXXo..o+   ",
"    oo .oXXXXX.o+   ",
"     +o.oX@@.  +    ",
"     +o.X.##    o   ",
"     +oo.      o    ",
"      ++            ",
"       o            ",
"         o          ",
"                    ",
"                    ",
"                    ",
"       ..           ",
"       XXX.         ",
"       oXXo  .      ",
"       OXXO   .     ",
"    .   oo    o     ",
"   .    oo    o     ",
"   o   .ooo.  .o    ",
"    o   oooo  oo    ",
"    o.  oXXo  o+    ",
"    oo .oXXo..o+    ",
"    +o .XXXXo.o+    ",
"    +o.oX@@@X .o+   ",
"     +o. .##.  +    ",
"     +o.       o    ",
"      +       o     ",
"      o             ",
"       o            ",
"                    ",
"                    ",
"                    ",
};
