/* XPM */
static char * C2_xpm[] = {
/* width height colors chars_per_color */
"20  640 8 1"
/* colors */
" 	c None",
".	c #0000A0A0A0A0",
"X	c #0000C8C8C8C8",
"o	c #0000FFFFFFFF",
"O	c #000078787878",
"+	c #000078787878",
"@	c #000078787878",
"#	c #000078787878",
/* pixels */
"                    ",
"                    ",
"         ..         ",
"        .XX.        ",
"        XooX        ",
"        OooO        ",
"         ..         ",
"         ..         ",
"     o  OXXO  o     ",
"     o  XooX  o     ",
"    Oo  XooX  oO    ",
"    .o .XooX. o.    ",
"    +o..XooX..o+    ",
"    +o..XooX..o+    ",
"    +o .@OO@. o+    ",
"    +o  #XX#  o+    ",
"     X        X     ",
"     .        .     ",
"                    ",
"                    ",
"                    ",
"                    ",
"          ...       ",
"         .XX.       ",
"         XooX       ",
"         OooO       ",
"          ..        ",
"     o   ...        ",
"     o  OXXO        ",
"    Oo  XooX  o     ",
"    .o  XooX  o     ",
"    +o..XooX  oO    ",
"   +o..XoooX. o.    ",
"   +o .XooX..o+     ",
"   +o  @OO@..o+     ",
"    X  #XX#  o+     ",
"    .        o+     ",
"             X      ",
"            .       ",
"                    ",
"                    ",
"                    ",
"            .       ",
"           .X.      ",
"          XoX.      ",
"          OooX      ",
"      o   ..oO      ",
"      o   ..        ",
"    Oo  XOXX        ",
"    .o  XooO        ",
"   +o. .XooX  o     ",
"   +o..XooXX  o     ",
"  ++o .XooX. oO     ",
"   o .@OooX..o.     ",
"   X  #XO@..oo+     ",
"  .     X#. o+      ",
"            o+      ",
"           X+       ",
"           .        ",
"                    ",
"                    ",
"                    ",
"                    ",
"            ...     ",
"           XoX.     ",
"           Ooo.     ",
"      oo   .ooX     ",
"    OOo  O...O      ",
"    .o   XX.        ",
"   +oo  XooXO       ",
"  ++o..XoooX        ",
"  +o ..XooX   o     ",
"  Xo .@oooX. o      ",
"  .  #OOoX..ooO     ",
"      XX@...o.      ",
"       X#. o++      ",
"          oo+       ",
"          o+        ",
"         .          ",
"                    ",
"                    ",
"                    ",
"                    ",
"                    ",
"             ...    ",
"       o    OoX.    ",
"     Ooo    ooo.    ",
"    +oo    ..oO     ",
"   +oo   XX..       ",
"  +oo...XooX        ",
"  oo ..XoooX        ",
" .X ..XoooX         ",
" .   @OooX.  oo     ",
"     XOOX.. oo      ",
"      X@...ooO      ",
"        . oo+       ",
"         oo+        ",
"        Xo+         ",
"       ..           ",
"                    ",
"                    ",
"                    ",
"                    ",
"                    ",
"                    ",
"      O o    X...   ",
"    +.oo    OooX.   ",
"   ++oo   O .ooo.   ",
"  +oo... XX...OX    ",
"  oo ..XXooX.       ",
" .  ..XooooXO       ",
"    #@ooooX         ",
"    XXOoXX   o      ",
"     XO@..  oo      ",
"      #...ooO       ",
"         oo.O       ",
"       oo++         ",
"      .X++          ",
"                    ",
"                    ",
"                    ",
"                    ",
"                    ",
"                    ",
"                    ",
"     +.Ooo          ",
"   ++ooo     OX..   ",
"  +ooo.      ooXX.  ",
" .X  ...XXOX..oo.   ",
"    ..XXXooX..OX    ",
"    #@oooooO        ",
"    XOoooXXX        ",
"     XOXX.          ",
"     #@..   oo      ",
"      . ..oo        ",
"       ooo.O        ",
"     Xo+++          ",
"    .  +            ",
"                    ",
"                    ",
"                    ",
"                    ",
"                    ",
"                    ",
"       .O           ",
"   ++++oooo         ",
"  Xoooo             ",
" .   ...      OX..  ",
"     ..XXXXO..ooX.  ",
"    #@XooooX..ooX.  ",
"    XOoooooX. OX.   ",
"    XOooXXXO        ",
"    #@XX.           ",
"      ...           ",
"       .ooooo       ",
"   .Xooo+.O         ",
"     +++            ",
"                    ",
"                    ",
"                    ",
"                    ",
"                    ",
"                    ",
"                    ",
"    ++++.O          ",
"  .Xoooooooo        ",
"      ..            ",
"     ....           ",
"    #@XXXXXO  OX.   ",
"    XOoooooX..ooX.  ",
"    XOoooooX..ooX.  ",
"    #@XXXXXO  OX.   ",
"     ....           ",
"      ..            ",
"  .Xoooooooo        ",
"    ++++.O          ",
"                    ",
"                    ",
"                    ",
"                    ",
"                    ",
"                    ",
"                    ",
"     +++            ",
"   .Xooo+.O         ",
"       .ooooo       ",
"      ...           ",
"    #@XX.           ",
"    XOooXXXO        ",
"    XOoooooX. OX.   ",
"    #@XooooX..ooX.  ",
"     ..XXXXO..ooX.  ",
" .   ...      OX..  ",
"  Xoooo             ",
"   ++++oooo         ",
"       .O           ",
"                    ",
"                    ",
"                    ",
"                    ",
"                    ",
"                    ",
"    .  +            ",
"     Xo+++          ",
"       ooo.O        ",
"      . ..oo        ",
"     #@..   oo      ",
"     XOXX.          ",
"    XOoooXXX        ",
"    #@oooooO        ",
"    ..XXXooX..OX    ",
" .X  ...XXOX..oo.   ",
"  +ooo.      ooXX.  ",
"   ++ooo     OX..   ",
"     +.Ooo          ",
"                    ",
"                    ",
"                    ",
"                    ",
"                    ",
"                    ",
"                    ",
"      .X++          ",
"       oo++         ",
"         oo.O       ",
"      #...ooO       ",
"     XO@..  oo      ",
"    XXOoXX   o      ",
"    #@ooooX         ",
" .  ..XooooXO       ",
"  oo ..XXooX.       ",
"  +oo... XX...OX    ",
"   ++oo   O .ooo.   ",
"    +.oo    OooX.   ",
"      O o    X...   ",
"                    ",
"                    ",
"                    ",
"                    ",
"                    ",
"                    ",
"       ..           ",
"        Xo+         ",
"         oo+        ",
"        . oo+       ",
"      X@...ooO      ",
"     XOOX.. oo      ",
" .   @OooX.  oo     ",
" .X ..XoooX         ",
"  oo ..XoooX        ",
"  +oo...XooX        ",
"   +oo   XX..       ",
"    +oo    ..oO     ",
"     Ooo    ooo.    ",
"       o    OoX.    ",
"             ...    ",
"                    ",
"                    ",
"                    ",
"                    ",
"                    ",
"         .          ",
"          o+        ",
"          oo+       ",
"       X#. o++      ",
"      XX@...o.      ",
"  .  #OOoX..ooO     ",
"  Xo .@oooX. o      ",
"  +o ..XooX   o     ",
"  ++o..XoooX        ",
"   +oo  XooXO       ",
"    .o   XX.        ",
"    OOo  O...O      ",
"      oo   .ooX     ",
"           Ooo.     ",
"           XoX.     ",
"            ...     ",
"                    ",
"                    ",
"                    ",
"                    ",
"           .        ",
"           X+       ",
"            o+      ",
"  .     X#. o+      ",
"   X  #XO@..oo+     ",
"   o .@OooX..o.     ",
"  ++o .XooX. oO     ",
"   +o..XooXX  o     ",
"   +o. .XooX  o     ",
"    .o  XooO        ",
"    Oo  XOXX        ",
"      o   ..        ",
"      o   ..oO      ",
"          OooX      ",
"          XoX.      ",
"           .X.      ",
"            .       ",
"                    ",
"                    ",
"                    ",
"            .       ",
"             X      ",
"    .        o+     ",
"    X  #XX#  o+     ",
"   +o  @OO@..o+     ",
"   +o .XooX..o+     ",
"   +o..XoooX. o.    ",
"    +o..XooX  oO    ",
"    .o  XooX  o     ",
"    Oo  XooX  o     ",
"     o  OXXO        ",
"     o   ...        ",
"          ..        ",
"         OooO       ",
"         XooX       ",
"         .XX.       ",
"          ...       ",
"                    ",
"                    ",
"                    ",
"                    ",
"     .        .     ",
"     X        X     ",
"    +o  #XX#  o+    ",
"    +o .@OO@. o+    ",
"    +o..XooX..o+    ",
"    +o..XooX..o+    ",
"    .o .XooX. o.    ",
"    Oo  XooX  oO    ",
"     o  XooX  o     ",
"     o  OXXO  o     ",
"         ..         ",
"         ..         ",
"        OooO        ",
"        XooX        ",
"        .XX.        ",
"         ..         ",
"                    ",
"                    ",
"                    ",
"       .            ",
"      X             ",
"     +o        .    ",
"     +o  #XX#  X    ",
"     +o..@OO@  o+   ",
"     +o..XooX. o+   ",
"    .o .XoooX..o+   ",
"    Oo  XooX..o+    ",
"     o  XooX  o.    ",
"     o  XooX  oO    ",
"        OXXO  o     ",
"        ...   o     ",
"        ..          ",
"       OooO         ",
"       XooX         ",
"       .XX.         ",
"       ...          ",
"                    ",
"                    ",
"                    ",
"        .           ",
"       +X           ",
"      +o            ",
"      +o .#X     .  ",
"     +oo..@OX#  X   ",
"     .o..XooO@. o   ",
"     Oo .XooX. o++  ",
"     o  XXooX..o+   ",
"     o  XooX. .o+   ",
"        OooX  o.    ",
"        XXOX  oO    ",
"        ..   o      ",
"      Oo..   o      ",
"      XooO          ",
"      .XoX          ",
"      .X.           ",
"       .            ",
"                    ",
"                    ",
"                    ",
"          .         ",
"        +o          ",
"       +oo          ",
"      ++o .#X       ",
"      .o...@XX      ",
"     Ooo..XoOO#  .  ",
"      o .Xooo@. oX  ",
"     o   XooX.. o+  ",
"        XoooX..o++  ",
"       OXooX  oo+   ",
"        .XX   o.    ",
"      O...O  oOO    ",
"     Xoo.   oo      ",
"     .ooO           ",
"     .XoX           ",
"     ...            ",
"                    ",
"                    ",
"                    ",
"                    ",
"           ..       ",
"         +oX        ",
"        +oo         ",
"       +oo .        ",
"      Ooo...@X      ",
"      oo ..XOOX     ",
"     oo  .XooO@   . ",
"         XoooX.. X. ",
"        XoooX.. oo  ",
"        XooX...oo+  ",
"       ..XX   oo+   ",
"     Oo..    oo+    ",
"    .ooo    ooO     ",
"    .XoO    o       ",
"    ...             ",
"                    ",
"                    ",
"                    ",
"                    ",
"                    ",
"                    ",
"          ++X.      ",
"         ++oo       ",
"       O.oo         ",
"       Ooo...#      ",
"      oo  ..@OX     ",
"      o   XXoOXX    ",
"         Xoooo@#    ",
"       OXooooX..  . ",
"       .XooXX.. oo  ",
"    XO...XX ...oo+  ",
"   .ooo. O   oo++   ",
"   .XooO    oo.+    ",
"   ...X    o O      ",
"                    ",
"                    ",
"                    ",
"                    ",
"                    ",
"                    ",
"                    ",
"            +  .    ",
"          +++oX     ",
"        O.ooo       ",
"        oo.. .      ",
"      oo   ..@#     ",
"          .XXOX     ",
"        XXXoooOX    ",
"        Oooooo@#    ",
"    XO..XooXXX..    ",
"   .oo..XOXX...  X. ",
"  .XXoo      .ooo+  ",
"   ..XO     ooo++   ",
"          ooO.+     ",
"                    ",
"                    ",
"                    ",
"                    ",
"                    ",
"                    ",
"                    ",
"                    ",
"            +++     ",
"         O.+oooX.   ",
"       ooooo.       ",
"           ...      ",
"           .XX@#    ",
"        OXXXooOX    ",
"   .XO .XoooooOX    ",
"  .Xoo..XooooX@#    ",
"  .Xoo..OXXXX..     ",
"  ..XO      ...   . ",
"             ooooX  ",
"         oooo++++   ",
"           O.       ",
"                    ",
"                    ",
"                    ",
"                    ",
"                    ",
"                    ",
"                    ",
"                    ",
"          O.++++    ",
"        ooooooooX.  ",
"            ..      ",
"           ....     ",
"   .XO  OXXXXX@#    ",
"  .Xoo..XoooooOX    ",
"  .Xoo..XoooooOX    ",
"   .XO  OXXXXX@#    ",
"           ....     ",
"            ..      ",
"        ooooooooX.  ",
"          O.++++    ",
"                    ",
"                    ",
"                    ",
"                    ",
"                    ",
"                    ",
"                    ",
"                    ",
"           O.       ",
"         oooo++++   ",
"             ooooX  ",
"  ..XO      ...   . ",
"  .Xoo..OXXXX..     ",
"  .Xoo..XooooX@#    ",
"   .XO .XoooooOX    ",
"        OXXXooOX    ",
"           .XX@#    ",
"           ...      ",
"       ooooo.       ",
"         O.+oooX.   ",
"            +++     ",
"                    ",
"                    ",
"                    ",
"                    ",
"                    ",
"                    ",
"                    ",
"                    ",
"          ooO.+     ",
"   ..XO     ooo++   ",
"  .XXoo      .ooo+  ",
"   .oo..XOXX...  X. ",
"    XO..XooXXX..    ",
"        Oooooo@#    ",
"        XXXoooOX    ",
"          .XXOX     ",
"      oo   ..@#     ",
"        oo.. .      ",
"        O.ooo       ",
"          +++oX     ",
"            +  .    ",
"                    ",
"                    ",
"                    ",
"                    ",
"                    ",
"                    ",
"                    ",
"   ...X    o O      ",
"   .XooO    oo.+    ",
"   .ooo. O   oo++   ",
"    XO...XX ...oo+  ",
"       .XooXX.. oo  ",
"       OXooooX..  . ",
"         Xoooo@#    ",
"      o   XXoOXX    ",
"      oo  ..@OX     ",
"       Ooo...#      ",
"       O.oo         ",
"         ++oo       ",
"          ++X.      ",
"                    ",
"                    ",
"                    ",
"                    ",
"                    ",
"                    ",
"    ...             ",
"    .XoO    o       ",
"    .ooo    ooO     ",
"     Oo..    oo+    ",
"       ..XX   oo+   ",
"        XooX...oo+  ",
"        XoooX.. oo  ",
"         XoooX.. X. ",
"     oo  .XooO@   . ",
"      oo ..XOOX     ",
"      Ooo...@X      ",
"       +oo .        ",
"        +oo         ",
"         +oX        ",
"           ..       ",
"                    ",
"                    ",
"                    ",
"                    ",
"     ...            ",
"     .XoX           ",
"     .ooO           ",
"     Xoo.   oo      ",
"      O...O  oOO    ",
"        .XX   o.    ",
"       OXooX  oo+   ",
"        XoooX..o++  ",
"     o   XooX.. o+  ",
"      o .Xooo@. oX  ",
"     Ooo..XoOO#  .  ",
"      .o...@XX      ",
"      ++o .#X       ",
"       +oo          ",
"        +o          ",
"          .         ",
"                    ",
"                    ",
"                    ",
"       .            ",
"      .X.           ",
"      .XoX          ",
"      XooO          ",
"      Oo..   o      ",
"        ..   o      ",
"        XXOX  oO    ",
"        OooX  o.    ",
"     o  XooX. .o+   ",
"     o  XXooX..o+   ",
"     Oo .XooX. o++  ",
"     .o..XooO@. o   ",
"     +oo..@OX#  X   ",
"      +o .#X     .  ",
"      +o            ",
"       +X           ",
"        .           ",
"                    ",
"                    ",
"                    ",
"       ...          ",
"       .XX.         ",
"       XooX         ",
"       OooO         ",
"        ..          ",
"        ...   o     ",
"        OXXO  o     ",
"     o  XooX  oO    ",
"     o  XooX  o.    ",
"    Oo  XooX..o+    ",
"    .o .XoooX..o+   ",
"     +o..XooX. o+   ",
"     +o..@OO@  o+   ",
"     +o  #XX#  X    ",
"     +o        .    ",
"      X             ",
"       .            ",
"                    ",
};
