/* XPM */
static char * C1_xpm[] = {
/* width height colors chars_per_color */
"20  640 7 1"
/* colors */
" 	c None",
".	c #9A9A9A9AAFAF",
"X	c #A9A9A9A9C0C0",
"o	c #C6C6C6C6E0E0",
"O	c #8D8D8D8DA0A0",
"+	c #00008080FFFF",
"@	c #FFFF00000000",
/* pixmaps */
"                    ",
"                    ",
"         ..         ",
"         XX         ",
"        XooX        ",
"        .oo.        ",
"         XX         ",
"     O   XX   O     ",
"    .    XX    .    ",
"    .    XX    .    ",
"    ..   oo   ..    ",
"    +..XooooX..+    ",
"     +.XXooXX.+     ",
"     +.XX@@XX.+     ",
"      +X    X+      ",
"       .O  O.       ",
"                    ",
"                    ",
"                    ",
"                    ",
"                    ",
"                    ",
"          ...       ",
"          XX        ",
"         XooX       ",
"         .oo.       ",
"      O   XX        ",
"    .    XXX        ",
"    .    XX   O     ",
"    ..   XX    .    ",
"    +..  oo    .    ",
"     +.Xoooo  ..    ",
"    +.XXoooXX..+    ",
"     +XX@@XX.+      ",
"      .    X.+      ",
"       O  O.+       ",
"                    ",
"                    ",
"                    ",
"                    ",
"                    ",
"                    ",
"            .       ",
"            X.      ",
"          XoX       ",
"      O   .ooX      ",
"     .    XXo.      ",
"     .    XX        ",
"    ..    XX        ",
"    +.   XX    O    ",
"    +..Xooo    .    ",
"    +.XXooo    .    ",
"     +XXooXX...     ",
"     X  @@XX..+     ",
"     .O   X.++      ",
"         OX+        ",
"          .         ",
"                    ",
"                    ",
"                    ",
"                    ",
"                    ",
"                    ",
"             ..     ",
"           XoX.     ",
"      .O   .oo      ",
"     .     XooX     ",
"    ..    XXX.      ",
"    +.    XX        ",
"    ++.  XXX        ",
"    +.Xoooo   OO    ",
"    +XXXoo     .    ",
"     X @oooX ...    ",
"    .O  @XX....     ",
"         XX.++      ",
"        OX++        ",
"                    ",
"                    ",
"                    ",
"                    ",
"                    ",
"                    ",
"                    ",
"                    ",
"        O     ..    ",
"      . O   .oX.    ",
"     ..     ooo     ",
"     ..    XXo.     ",
"    ++.   XXX       ",
"    +.XX oXX        ",
"    +XXXooX         ",
"    XXXooo    OO    ",
"    .  @oXX         ",
"        XXX.. .     ",
"        XX.+..      ",
"       .X+++        ",
"                    ",
"                    ",
"                    ",
"                    ",
"                    ",
"                    ",
"                    ",
"                    ",
"       ..O          ",
"      .. O   X ..   ",
"     +..    .ooX.   ",
"     +.     Xooo    ",
"    +..X  XXXX.X    ",
"    +XXo oXXX       ",
"    XXXoooX         ",
"    O @ooo          ",
"       @Xo    O     ",
"        XX.   .     ",
"      OXX.+...      ",
"      . ++++.       ",
"                    ",
"                    ",
"                    ",
"                    ",
"                    ",
"                    ",
"                    ",
"                    ",
"        ..O         ",
"      +.            ",
"     +..     .X .   ",
"     +..     ooXX.  ",
"    +.XX   XXXoo    ",
"   .XXXXooXXXX.X    ",
"    O @oooX         ",
"      @ooo          ",
"       XXX          ",
"     O XX.    O     ",
"     .X+......      ",
"        +++.        ",
"                    ",
"                    ",
"                    ",
"                    ",
"                    ",
"                    ",
"                    ",
"                    ",
"       +...         ",
"       ..  O        ",
"     ++.            ",
"    +..X      .X .  ",
"    .XXXo   XXooX.  ",
"    O XoooXXXXooX.  ",
"      @oooXXX .X    ",
"      @oo           ",
"    O XXX           ",
"     .XX..   O      ",
"      +.+..         ",
"       + +...       ",
"                    ",
"                    ",
"                    ",
"                    ",
"                    ",
"                    ",
"                    ",
"                    ",
"        +...        ",
"      ++..  O       ",
"     +...           ",
"    .XXXX           ",
"    O XXo     .X    ",
"      @oooXXXXooX.  ",
"      @oooXXXXooX.  ",
"    O XXo     .X    ",
"    .XXXX           ",
"     +...           ",
"      ++..  O       ",
"        +...        ",
"                    ",
"                    ",
"                    ",
"                    ",
"                    ",
"                    ",
"                    ",
"                    ",
"       + +...       ",
"      +.+..         ",
"     .XX..   O      ",
"    O XXX           ",
"      @oo           ",
"      @oooXXX .X    ",
"    O XoooXXXXooX.  ",
"    .XXXo   XXooX.  ",
"    +..X      .X .  ",
"     ++.            ",
"       ..  O        ",
"       +...         ",
"                    ",
"                    ",
"                    ",
"                    ",
"                    ",
"                    ",
"                    ",
"                    ",
"        +++.        ",
"     .X+......      ",
"     O XX.    O     ",
"       XXX          ",
"      @ooo          ",
"    O @oooX         ",
"   .XXXXooXXXX.X    ",
"    +.XX   XXXoo    ",
"     +..     ooXX.  ",
"     +..     .X .   ",
"      +.            ",
"        ..O         ",
"                    ",
"                    ",
"                    ",
"                    ",
"                    ",
"                    ",
"                    ",
"                    ",
"      . ++++.       ",
"      OXX.+...      ",
"        XX.   .     ",
"       @Xo    O     ",
"    O @ooo          ",
"    XXXoooX         ",
"    +XXo oXXX       ",
"    +..X  XXXX.X    ",
"     +.     Xooo    ",
"     +..    .ooX.   ",
"      .. O   X ..   ",
"       ..O          ",
"                    ",
"                    ",
"                    ",
"                    ",
"                    ",
"                    ",
"                    ",
"                    ",
"       .X+++        ",
"        XX.+..      ",
"        XXX....     ",
"    .  @oXX         ",
"    XXXooo    OO    ",
"    +XXXooo         ",
"    +.XX XXX        ",
"    ++.   XXX       ",
"     ..    XXo.     ",
"     .      ooo     ",
"      . O   .oX.    ",
"        O     ..    ",
"                    ",
"                    ",
"                    ",
"                    ",
"                    ",
"                    ",
"                    ",
"                    ",
"        OX++        ",
"         XX.++      ",
"    .O  @XX....     ",
"     X @oooX ...    ",
"    +XXXoo     .    ",
"    +.Xoooo   OO    ",
"    ++.  XXX        ",
"    +.    XX        ",
"    ..    XXX.      ",
"     .     XooX     ",
"      .O   .oo      ",
"           XoX.     ",
"             ..     ",
"                    ",
"                    ",
"                    ",
"                    ",
"                    ",
"                    ",
"          .         ",
"         OX+        ",
"     .O   X.++      ",
"     X  @@XX..+     ",
"     +XXooXX...     ",
"    +.XXooo    .    ",
"    +..Xooo    .    ",
"    +.   XX    O    ",
"    ..    XX        ",
"     .    XX        ",
"     .    XXo.      ",
"      O   .ooX      ",
"          XoX       ",
"            X.      ",
"            .       ",
"                    ",
"                    ",
"                    ",
"                    ",
"                    ",
"                    ",
"       O  O.+       ",
"      .    X.+      ",
"     +XX@@XX.+      ",
"    +.XXoooXX..+    ",
"     +.Xoooo  ..    ",
"    +..  oo    .    ",
"    ..   XX    .    ",
"    .    XX   O     ",
"    .    XXX        ",
"      O   XX        ",
"         .oo.       ",
"         XooX       ",
"          XX        ",
"          ...       ",
"                    ",
"                    ",
"                    ",
"                    ",
"                    ",
"                    ",
"       .O  O.       ",
"      +X    X+      ",
"     +.XX@@XX.+     ",
"     +.XXooXX.+     ",
"    +..XooooX..+    ",
"    ..   oo   ..    ",
"    .    XX    .    ",
"    .    XX    .    ",
"     O   XX   O     ",
"         XX         ",
"        .oo.        ",
"        XooX        ",
"         XX         ",
"         ..         ",
"                    ",
"                    ",
"                    ",
"                    ",
"                    ",
"                    ",
"       +.O  O       ",
"      +.X    .      ",
"      +.XX@@XX+     ",
"    +..XXoooXX.+    ",
"    ..  ooooX.+     ",
"    .    oo  ..+    ",
"    .    XX   ..    ",
"     O   XX    .    ",
"        XXX    .    ",
"        XX   O      ",
"       .oo.         ",
"       XooX         ",
"        XX          ",
"       ...          ",
"                    ",
"                    ",
"                    ",
"                    ",
"                    ",
"         .          ",
"        +XO         ",
"      ++.X   O.     ",
"     +..XX@@  X     ",
"     ...XXooXX+     ",
"    .    oooXX.+    ",
"    .    oooX..+    ",
"    O    XX   .+    ",
"        XX    ..    ",
"        XX    .     ",
"      .oXX    .     ",
"      Xoo.   O      ",
"       XoX          ",
"      .X            ",
"       .            ",
"                    ",
"                    ",
"                    ",
"                    ",
"                    ",
"                    ",
"        ++XO        ",
"      ++.XX         ",
"     ....XX@  O.    ",
"    ... Xooo@ X     ",
"    .     ooXXX+    ",
"    OO   ooooX.+    ",
"        XXX  .++    ",
"        XX    .+    ",
"      .XXX    ..    ",
"     XooX     .     ",
"      oo.   O.      ",
"     .XoX           ",
"     ..             ",
"                    ",
"                    ",
"                    ",
"                    ",
"                    ",
"                    ",
"                    ",
"        +++X.       ",
"      ..+.XX        ",
"     . ..XXX        ",
"         XXo@  .    ",
"    OO    oooXXX    ",
"         XooXXX+    ",
"        XXo XX.+    ",
"       XXX   .++    ",
"     .oXX    ..     ",
"     ooo     ..     ",
"    .Xo.   O .      ",
"    ..     O        ",
"                    ",
"                    ",
"                    ",
"                    ",
"                    ",
"                    ",
"                    ",
"                    ",
"       .++++ .      ",
"      ...+.XXO      ",
"     .   .XX        ",
"     O    oX@       ",
"          ooo@ O    ",
"         XoooXXX    ",
"       XXXo oXX+    ",
"    X.XXXX  X..+    ",
"    oooX     .+     ",
"   .Xoo.    ..+     ",
"   .. X   O ..      ",
"          O..       ",
"                    ",
"                    ",
"                    ",
"                    ",
"                    ",
"                    ",
"                    ",
"                    ",
"        .+++        ",
"      ......+X.     ",
"     O    .XX O     ",
"          XXX       ",
"          ooo@      ",
"         Xooo@ O    ",
"    X.XXXXooXXXX.   ",
"    ooXXX   XX.+    ",
"  .XXoo     ..+     ",
"   . X.     ..+     ",
"            .+      ",
"         O..        ",
"                    ",
"                    ",
"                    ",
"                    ",
"                    ",
"                    ",
"                    ",
"                    ",
"       ...+ +       ",
"         ..+.+      ",
"      O   ..XX.     ",
"           XXX O    ",
"           oo@      ",
"    X. XXXooo@      ",
"  .XooXXXXoooX O    ",
"  .XooXX   oXXX.    ",
"  . X.      X..+    ",
"            .++     ",
"        O  ..       ",
"         ...+       ",
"                    ",
"                    ",
"                    ",
"                    ",
"                    ",
"                    ",
"                    ",
"                    ",
"        ...+        ",
"       O  ..++      ",
"           ...+     ",
"           XXXX.    ",
"    X.     oXX O    ",
"  .XooXXXXooo@      ",
"  .XooXXXXooo@      ",
"    X.     oXX O    ",
"           XXXX.    ",
"           ...+     ",
"       O  ..++      ",
"        ...+        ",
"                    ",
"                    ",
"                    ",
"                    ",
"                    ",
"                    ",
"                    ",
"                    ",
"         ...+       ",
"        O  ..       ",
"            .++     ",
"  . X.      X..+    ",
"  .XooXX   oXXX.    ",
"  .XooXXXXoooX O    ",
"    X. XXXooo@      ",
"           oo@      ",
"           XXX O    ",
"      O   ..XX.     ",
"         ..+.+      ",
"       ...+ +       ",
"                    ",
"                    ",
"                    ",
"                    ",
"                    ",
"                    ",
"                    ",
"                    ",
"         O..        ",
"            .+      ",
"   . X.     ..+     ",
"  .XXoo     ..+     ",
"    ooXXX   XX.+    ",
"    X.XXXXooXXXX.   ",
"         Xooo@ O    ",
"          ooo@      ",
"          XXX       ",
"     O    .XX O     ",
"      ......+X.     ",
"        .+++        ",
"                    ",
"                    ",
"                    ",
"                    ",
"                    ",
"                    ",
"                    ",
"                    ",
"          O..       ",
"   .. X   O ..      ",
"   .Xoo.    ..+     ",
"    oooX     .+     ",
"    X.XXXX  X..+    ",
"       XXXo oXX+    ",
"         XoooXXX    ",
"          ooo@ O    ",
"     O    oX@       ",
"     .   .XX        ",
"      ...+.XXO      ",
"       .++++ .      ",
"                    ",
"                    ",
"                    ",
"                    ",
"                    ",
"                    ",
"                    ",
"                    ",
"    ..     O        ",
"    .Xo.   O .      ",
"     ooo      .     ",
"     .oXX    ..     ",
"       XXX   .++    ",
"        XXX XX.+    ",
"         oooXXX+    ",
"    OO    oooXXX    ",
"         XXo@  .    ",
"     ....XXX        ",
"      ..+.XX        ",
"        +++X.       ",
"                    ",
"                    ",
"                    ",
"                    ",
"                    ",
"                    ",
"                    ",
"     ..             ",
"     .XoX           ",
"      oo.   O.      ",
"     XooX     .     ",
"      .XXX    ..    ",
"        XX    .+    ",
"        XXX  .++    ",
"    OO   ooooX.+    ",
"    .     ooXXX+    ",
"    ... Xooo@ X     ",
"     ....XX@  O.    ",
"      ++.XX         ",
"        ++XO        ",
"                    ",
"                    ",
"                    ",
"                    ",
"                    ",
"                    ",
"       .            ",
"      .X            ",
"       XoX          ",
"      Xoo.   O      ",
"      .oXX    .     ",
"        XX    .     ",
"        XX    ..    ",
"    O    XX   .+    ",
"    .    oooX..+    ",
"    .    oooXX.+    ",
"     ...XXooXX+     ",
"     +..XX@@  X     ",
"      ++.X   O.     ",
"        +XO         ",
"         .          ",
"                    ",
"                    ",
"                    ",
"                    ",
"                    ",
"       ...          ",
"        XX          ",
"       XooX         ",
"       .oo.         ",
"        XX   O      ",
"        XXX    .    ",
"     O   XX    .    ",
"    .    XX   ..    ",
"    .    oo  ..+    ",
"    ..  ooooX.+     ",
"    +..XXoooXX.+    ",
"      +.XX@@XX+     ",
"      +.X    .      ",
"       +.O  O       ",
"                    ",
"                    ",
"                    ",
"                    ",
"                    ",
};
