/* XPM */
static char * C1_xpm[] = {
/* width height colors chars_per_color */
"20  640 8 1"
/* colors */
" 	c None",
".	c #000078787878",
"X	c #0000C8C8C8C8",
"o	c #0000FFFFFFFF",
"O	c #0000A0A0A0A0",
"+	c #000078787878",
"@	c #000078787878",
"#	c #000078787878",
/* pixels */
"                    ",
"         ..         ",
"         XX         ",
"        .oo.        ",
"        XooX        ",
"        XooX        ",
"        XooX        ",
"        OXXO        ",
"      o  XX  o      ",
"      oX XX Xo      ",
"     XoXOXXOXoX     ",
"    .XoXOXXOXoX.    ",
"    +Xo@#OO#@oX+    ",
"    +Xo  ..  oX+    ",
"    +X        X+    ",
"    +O        O+    ",
"    .O        O.    ",
"    .          .    ",
"                    ",
"                    ",
"                    ",
"           ..       ",
"          XXX       ",
"         .oo.       ",
"         XooX       ",
"         XooX       ",
"         XooX       ",
"      o OXXXO       ",
"      oX XX         ",
"     XoX XX Xo      ",
"    .XoXOXXOXo      ",
"    +XoXOXXOXoX     ",
"   +Xo #OOO#XoX.    ",
"   +X   ..  oX+     ",
"   +O       oX+     ",
"   .O        X+     ",
"   .         O+     ",
"             O.     ",
"             .      ",
"                    ",
"                    ",
"            .       ",
"            X.      ",
"           .oX      ",
"          Xoo.      ",
"          XooX      ",
"         XoooX      ",
"       o OXXX       ",
"     XoX  XXO       ",
"    .XoXOXX  o      ",
"   +XooXOXX Xo      ",
"   +Xo@#XXOOXo      ",
"  ++X   OO#XoX      ",
"  .O    .. @oX.     ",
"  .O       oXX+     ",
"            X+      ",
"            O+      ",
"           O+       ",
"            .       ",
"            .       ",
"                    ",
"                    ",
"              .     ",
"            .XX.    ",
"           XooX     ",
"           Xoo.     ",
"          XoooX     ",
"       o  XXoX      ",
"    .XoXX XXO       ",
"   +XXoXOXXX        ",
"  ++Xo@OXXX Xo      ",
"  +X   #OXOXXo      ",
" .OO   .OOOXoX      ",
" .      . @oXX      ",
"           oX.      ",
"           X++      ",
"          OX+       ",
"          O+        ",
"          ..        ",
"          .         ",
"                    ",
"                    ",
"                    ",
"               .    ",
"             .XX.   ",
"            XooX    ",
"      X o  Xooo.    ",
"    +XXoX OXooX     ",
"   +XXoXX XXXX      ",
"  +XXo@XOXXXO       ",
" .OX  @#XXX         ",
". O    OOXOXXo      ",
"       .O#XXo       ",
"         @@oX       ",
"          oXX       ",
"          XX+       ",
"         XX+        ",
"        OO+         ",
"         .          ",
"        .           ",
"                    ",
"                    ",
"                    ",
"                    ",
"                .   ",
"             X.XX.  ",
"    +.XXoo  XoooX   ",
"   ++XXoXX Ooooo.   ",
" .+XXooXX XXXoXX    ",
"..OO  @OOXXXXX      ",
"       OXXX         ",
"      .OOXOX        ",
"       .#OXXo       ",
"         @oo        ",
"         oXX        ",
"         XX.        ",
"       OX++         ",
"       O++          ",
"      ..            ",
"                    ",
"                    ",
"                    ",
"                    ",
"                    ",
"                    ",
"     +.             ",
"   ++XXXooo  XX.X.  ",
"..+OXXooXX OXooooX. ",
"  O  o@XO  XXooo.   ",
"       #OXXXXoXX    ",
"      .OXXX OX      ",
"      .OXOO         ",
"        #XXXo       ",
"        @ooo        ",
"        ooXX        ",
"       XXX.         ",
"     OO+++          ",
"     ..+            ",
"                    ",
"                    ",
"                    ",
"                    ",
"                    ",
"                    ",
"       .            ",
"  .++++XX           ",
" .OOXXXoooo         ",
"     ooXXXX OXXX.X. ",
"       #OO  XooooX. ",
"       OXXXXXooooX  ",
"      .OXXXXXXXX.   ",
"      .OOO  O       ",
"       #XXXX        ",
"        ooooo       ",
"       oXXX         ",
"    OOXX+.          ",
"   ..+++            ",
"                    ",
"                    ",
"                    ",
"                    ",
"                    ",
"                    ",
"                    ",
"  ..++++.           ",
"   OOXXXXX          ",
"      oooooo        ",
"       @XXX         ",
"       #OO  OXXX.   ",
"      .OXXXXXooooX. ",
"      .OXXXXXooooX. ",
"       #OO  OXXX.   ",
"       @XXX         ",
"      oooooo        ",
"   OOXXXXX          ",
"  ..++++.           ",
"                    ",
"                    ",
"                    ",
"                    ",
"                    ",
"                    ",
"                    ",
"   ..+++            ",
"    OOXX+.          ",
"       oXXX         ",
"        ooooo       ",
"       #XXXX        ",
"      .OOO  O       ",
"      .OXXXXXXXX.   ",
"       OXXXXXooooX  ",
"       #OO  XooooX. ",
"     ooXXXX OXXX.X. ",
" .OOXXXoooo         ",
"  .++++XX           ",
"       .            ",
"                    ",
"                    ",
"                    ",
"                    ",
"                    ",
"                    ",
"     ..+            ",
"     OO+++          ",
"       XXX.         ",
"        ooXX        ",
"        @ooo        ",
"        #XXXo       ",
"      .OXOO         ",
"      .OXXX OX      ",
"       #OXXXXoXX    ",
"  O  o@XO  XXooo.   ",
"..+OXXooXX OXooooX. ",
"   ++XXXooo  XX.X.  ",
"     +.             ",
"                    ",
"                    ",
"                    ",
"                    ",
"                    ",
"                    ",
"      ..            ",
"       O++          ",
"       OX++         ",
"         XX.        ",
"         oXX        ",
"         @oo        ",
"       .#OXXo       ",
"      .OOXOX        ",
"       OXXX         ",
"..OO  @OOXXXXX      ",
" .+XXooXX XXXoXX    ",
"   ++XXoXX Ooooo.   ",
"    +.XXoo  XoooX   ",
"             X.XX.  ",
"                .   ",
"                    ",
"                    ",
"                    ",
"                    ",
"        .           ",
"         .          ",
"        OO+         ",
"         XX+        ",
"          XX+       ",
"          oXX       ",
"         @@oXX      ",
"       .O#XXo       ",
". O    OOXOXXo      ",
" .OX  @#XXX         ",
"  +XXo@XOXXXO       ",
"   +XXoXX XXXX      ",
"    +XXoX OXooX     ",
"        o  Xooo.    ",
"            XooX    ",
"             .XX.   ",
"               .    ",
"                    ",
"                    ",
"                    ",
"          .         ",
"          ..        ",
"          O+        ",
"          OX+       ",
"           X++      ",
"           oX.      ",
" .      . @oXX      ",
" .OO   .OOOXoX      ",
"  +X   #OXOXXo      ",
"  ++Xo@OXXX Xo      ",
"   +XXoXOXXX        ",
"    .XoXX XXO       ",
"       o  XXoX      ",
"          XoooX     ",
"           Xoo.     ",
"           XooX     ",
"            .XX.    ",
"              .     ",
"                    ",
"                    ",
"            .       ",
"            .       ",
"           O+       ",
"            O+      ",
"            X+      ",
"  .O       oXX+     ",
"  .O    .. @oX.     ",
"  ++X   OO#XoX      ",
"   +Xo@#XXOOXo      ",
"   +XooXOXX Xo      ",
"    .XoXOXX  o      ",
"     XoX  XXO       ",
"       o OXXX       ",
"         XoooX      ",
"          XooX      ",
"          Xoo.      ",
"           .oX      ",
"            X.      ",
"            .       ",
"                    ",
"                    ",
"             .      ",
"             O.     ",
"   .         O+     ",
"   .O        X+     ",
"   +O       oX+     ",
"   +X   ..  oX+     ",
"   +Xo #OOO#XoX.    ",
"    +XoXOXXOXoX     ",
"    .XoXOXXOXo      ",
"     XoX XX Xo      ",
"      oX XX         ",
"      o OXXXO       ",
"         XooX       ",
"         XooX       ",
"         XooX       ",
"         .oo.       ",
"          XXX       ",
"           ..       ",
"                    ",
"                    ",
"                    ",
"    .          .    ",
"    .O        O.    ",
"    +O        O+    ",
"    +X        X+    ",
"    +Xo  ..  oX+    ",
"    +Xo@#OO#@oX+    ",
"    .XoXOXXOXoX.    ",
"     XoXOXXOXoX     ",
"      oX XX Xo      ",
"      o  XX  o      ",
"        OXXO        ",
"        XooX        ",
"        XooX        ",
"        XooX        ",
"        .oo.        ",
"         XX         ",
"         ..         ",
"                    ",
"                    ",
"      .             ",
"     .O             ",
"     +O         .   ",
"     +X        O.   ",
"     +Xo       O+   ",
"     +Xo  ..   X+   ",
"    .XoX#OOO# oX+   ",
"     XoXOXXOXoX+    ",
"      oXOXXOXoX.    ",
"      oX XX XoX     ",
"         XX Xo      ",
"       OXXXO o      ",
"       XooX         ",
"       XooX         ",
"       XooX         ",
"       .oo.         ",
"       XXX          ",
"       ..           ",
"                    ",
"       .            ",
"       .            ",
"       +O           ",
"      +O            ",
"      +X            ",
"     +XXo       O.  ",
"     .Xo@ ..    O.  ",
"      XoX#OO   X++  ",
"      oXOOXX#@oX+   ",
"      oX XXOXooX+   ",
"      o  XXOXoX.    ",
"       OXX  XoX     ",
"       XXXO o       ",
"      XoooX         ",
"      XooX          ",
"      .ooX          ",
"      Xo.           ",
"      .X            ",
"       .            ",
"                    ",
"         .          ",
"        ..          ",
"        +O          ",
"       +XO          ",
"      ++X           ",
"      .Xo           ",
"      XXo@ .      . ",
"      XoXOOO.   OO. ",
"      oXXOXO#   X+  ",
"      oX XXXO@oX++  ",
"        XXXOXoXX+   ",
"       OXX XXoX.    ",
"      XoXX  o       ",
"     XoooX          ",
"     .ooX           ",
"     XooX           ",
"    .XX.            ",
"     .              ",
"                    ",
"                    ",
"           .        ",
"          .         ",
"         +OO        ",
"        +XX         ",
"       +XX          ",
"       XXo          ",
"       Xo@@         ",
"       oXX#O.       ",
"      oXXOXOO    O .",
"         XXX#@  XO. ",
"       OXXXOX@oXX+  ",
"      XXXX XXoXX+   ",
"     XooXO XoXX+    ",
"    .oooX  o X      ",
"    XooX            ",
"   .XX.             ",
"    .               ",
"                    ",
"                    ",
"                    ",
"                    ",
"            ..      ",
"          ++O       ",
"         ++XO       ",
"        .XX         ",
"        XXo         ",
"        oo@         ",
"       oXXO#.       ",
"        XOXOO.      ",
"         XXXO       ",
"      XXXXXOO@  OO..",
"    XXoXXX XXooXX+. ",
"   .ooooO XXoXX++   ",
"   XoooX  ooXX.+    ",
"  .XX.X             ",
"   .                ",
"                    ",
"                    ",
"                    ",
"                    ",
"                    ",
"                    ",
"            +..     ",
"          +++OO     ",
"         .XXX       ",
"        XXoo        ",
"        ooo@        ",
"       oXXX#        ",
"         OOXO.      ",
"      XO XXXO.      ",
"    XXoXXXXO#       ",
"   .oooXX  OX@o  O  ",
" .XooooXO XXooXXO+..",
"  .X.XX  oooXXX++   ",
"             .+     ",
"                    ",
"                    ",
"                    ",
"                    ",
"                    ",
"                    ",
"                    ",
"                    ",
"            +++..   ",
"          .+XXOO    ",
"         XXXo       ",
"       ooooo        ",
"        XXXX#       ",
"       O  OOO.      ",
"   .XXXXXXXXO.      ",
"  XooooXXXXXO       ",
" .XooooX  OO#       ",
" .X.XXXO XXXXoo     ",
"         ooooXXXOO. ",
"           XX++++.  ",
"            .       ",
"                    ",
"                    ",
"                    ",
"                    ",
"                    ",
"                    ",
"                    ",
"                    ",
"           .++++..  ",
"          XXXXXOO   ",
"        oooooo      ",
"         XXX@       ",
"   .XXXO  OO#       ",
" .XooooXXXXXO.      ",
" .XooooXXXXXO.      ",
"   .XXXO  OO#       ",
"         XXX@       ",
"        oooooo      ",
"          XXXXXOO   ",
"           .++++..  ",
"                    ",
"                    ",
"                    ",
"                    ",
"                    ",
"                    ",
"                    ",
"                    ",
"            .       ",
"           XX++++.  ",
"         ooooXXXOO. ",
" .X.XXXO XXXXoo     ",
" .XooooX  OO#       ",
"  XooooXXXXXO       ",
"   .XXXXXXXXO.      ",
"       O  OOO.      ",
"        XXXX#       ",
"       ooooo        ",
"         XXXo       ",
"          .+XXOO    ",
"            +++..   ",
"                    ",
"                    ",
"                    ",
"                    ",
"                    ",
"                    ",
"                    ",
"                    ",
"             .+     ",
"  .X.XX  oooXXX++   ",
" .XooooXO XXooXXO+..",
"   .oooXX  OX@o  O  ",
"    XXoXXXXO#       ",
"      XO XXXO.      ",
"         OOXO.      ",
"       oXXX#        ",
"        ooo@        ",
"        XXoo        ",
"         .XXX       ",
"          +++OO     ",
"            +..     ",
"                    ",
"                    ",
"                    ",
"                    ",
"                    ",
"                    ",
"   .                ",
"  .XX.X             ",
"   XoooX  ooXX.+    ",
"   .ooooO XXoXX++   ",
"    XXoXXX XXooXX+. ",
"      XXXXXOO@  OO..",
"         XXXO       ",
"        XOXOO.      ",
"       oXXO#.       ",
"        oo@         ",
"        XXo         ",
"        .XX         ",
"         ++XO       ",
"          ++O       ",
"            ..      ",
"                    ",
"                    ",
"                    ",
"                    ",
"    .               ",
"   .XX.             ",
"    XooX            ",
"    .oooX  o        ",
"     XooXO XoXX+    ",
"      XXXX XXoXX+   ",
"       OXXXOX@oXX+  ",
"         XXX#@  XO. ",
"      oXXOXOO    O .",
"       oXX#O.       ",
"      XXo@@         ",
"       XXo          ",
"       +XX          ",
"        +XX         ",
"         +OO        ",
"          .         ",
"           .        ",
"                    ",
"                    ",
"     .              ",
"    .XX.            ",
"     XooX           ",
"     .ooX           ",
"     XoooX          ",
"      XoXX  o       ",
"       OXX XXoX.    ",
"        XXXOXoXX+   ",
"      oX XXXO@oX++  ",
"      oXXOXO#   X+  ",
"      XoXOOO.   OO. ",
"      XXo@ .      . ",
"      .Xo           ",
"      ++X           ",
"       +XO          ",
"        +O          ",
"        ..          ",
"         .          ",
"                    ",
"       .            ",
"      .X            ",
"      Xo.           ",
"      .ooX          ",
"      XooX          ",
"      XoooX         ",
"       XXXO o       ",
"       OXX  XoX     ",
"      o  XXOXoX.    ",
"      oX XXOXooX+   ",
"      oXOOXX#@oX+   ",
"      XoX#OO   X++  ",
"     .Xo@ ..    O.  ",
"     +XXo       O.  ",
"      +X            ",
"      +O            ",
"       +O           ",
"       .            ",
"       .            ",
"                    ",
"       ..           ",
"       XXX          ",
"       .oo.         ",
"       XooX         ",
"       XooX         ",
"       XooX         ",
"       OXXXO o      ",
"         XX Xo      ",
"      oX XX XoX     ",
"      oXOXXOXoX.    ",
"     XoXOXXOXoX+    ",
"    .XoX#OOO# oX+   ",
"     +Xo  ..   X+   ",
"     +Xo       O+   ",
"     +X        O.   ",
"     +O         .   ",
"     .O             ",
"      .             ",
"                    ",
};
