/* XPM */
static char * C1_xpm[] = {
"20 320 7 1",
" 	c None",
".	c #9A9A9A9AAFAF",
"X	c #A9A9A9A9C0C0",
"o	c #C6C6C6C6E0E0",
"O	c #8D8D8D8DA0A0",
"+	c #FFFFFFFF0000",
"@	c #FFFF00000000",
"                    ",
"                    ",
"         ..         ",
"         XX         ",
"        XooX        ",
"        .oo.        ",
"         XX         ",
"     O   XX   O     ",
"    .    XX    .    ",
"    .    XX    .    ",
"    ..   oo   ..    ",
"    +..XooooX..+    ",
"     +.XXooXX.+     ",
"     +.XX@@XX.+     ",
"      +X    X+      ",
"       .O  O.       ",
"                    ",
"                    ",
"                    ",
"                    ",
"                    ",
"                    ",
"                    ",
"            ..      ",
"           XXX      ",
"          .ooX      ",
"      O    oo.      ",
"     .    .X        ",
"    ..    XX        ",
"    O.O  OXO        ",
"    +..X oX    .    ",
"    +.XXooo    .    ",
"    +XXXoooXXO..    ",
"     +XX@@XX..+     ",
"     .X   XX.+      ",
"      .   X++       ",
"         ..         ",
"                    ",
"                    ",
"                    ",
"                    ",
"                    ",
"                    ",
"                    ",
"       OO     .O    ",
"      .     XoX.    ",
"     OO     ooo     ",
"    O+O    XXoX     ",
"    +..   XXX       ",
"    +.XX XXX        ",
"    +XXoooX         ",
"    XXXooo     O    ",
"    X @oooX    O    ",
"       @XXX.OO.     ",
"        XX..+O      ",
"       .X+++O       ",
"                    ",
"                    ",
"                    ",
"                    ",
"                    ",
"                    ",
"                    ",
"                    ",
"        ...         ",
"       +.           ",
"      +.O     .XX.  ",
"     +..X     ooX.  ",
"     +XXX  OXXooX   ",
"    OXXXooXXX. .    ",
"    O  @oooO        ",
"       @oo          ",
"       XXXX         ",
"     .XXXX.O  O     ",
"      O+O.....      ",
"        +++O.       ",
"                    ",
"                    ",
"                    ",
"                    ",
"                    ",
"                    ",
"                    ",
"                    ",
"        +...        ",
"      ++..  O       ",
"     +...           ",
"    .XXXX           ",
"    O XXo     .X    ",
"      @oooXXXXooX.  ",
"      @oooXXXXooX.  ",
"    O XXo     .X    ",
"    .XXXX           ",
"     +...           ",
"      ++..  O       ",
"        +...        ",
"                    ",
"                    ",
"                    ",
"                    ",
"                    ",
"                    ",
"                    ",
"                    ",
"       +++O.        ",
"     .+X.....       ",
"    .XXXX.O  O      ",
"      XXXX          ",
"      @oo           ",
"   .  @oooO         ",
"   .XXXooXXX. .     ",
"    +XXX  OXXooX    ",
"    +..X     ooX.   ",
"     +.O     .XX.   ",
"      +.            ",
"       ...          ",
"                    ",
"                    ",
"                    ",
"                    ",
"                    ",
"                    ",
"                    ",
"                    ",
"       XX+++O       ",
"        XX..+O      ",
"       @XXX.OO.     ",
"    . @oooX    O    ",
"    XXXooo     O    ",
"    +XXoooX         ",
"    +.XX XXX        ",
"    +..   XXX       ",
"    O+O    XXoX     ",
"     OO     ooo     ",
"      .     XoX.    ",
"       OO     .O    ",
"                    ",
"                    ",
"                    ",
"                    ",
"                    ",
"                    ",
"                    ",
"                    ",
"         OO         ",
"      .   X++       ",
"     OX   XX.+      ",
"     +XX@@XX..+     ",
"    +OXXoooXXO..    ",
"    +.XXooo    .    ",
"    +..X oX    .    ",
"    O.O  OXO        ",
"    ..    XX        ",
"     .    .X        ",
"      O    oo.      ",
"          .ooX      ",
"           XXX      ",
"            ..      ",
"                    ",
"                    ",
"                    ",
"                    ",
"                    ",
"                    ",
"       .O  O.       ",
"      +X    X+      ",
"     +.XX@@XX.+     ",
"     +.XXooXX.+     ",
"    +..XooooX..+    ",
"    ..   oo   ..    ",
"    .    XX    .    ",
"    .    XX    .    ",
"     O   XX   O     ",
"         XX         ",
"        .oo.        ",
"        XooX        ",
"         XX         ",
"         ..         ",
"                    ",
"                    ",
"                    ",
"                    ",
"                    ",
"         ..         ",
"       ++X   .      ",
"      +.XX   X.     ",
"     +..XX@@XX+     ",
"    ..OXXoooXXX+    ",
"    .    oooXX.+    ",
"    .    Xo X..+    ",
"        OXO  O.O    ",
"        XX    ..    ",
"        X.    .     ",
"      .oo    O      ",
"      Xoo.          ",
"      XXX           ",
"      ..            ",
"                    ",
"                    ",
"                    ",
"                    ",
"                    ",
"                    ",
"                    ",
"       O+++X.       ",
"      O+..XX        ",
"     .OO.XXX@       ",
"    O    Xooo@ X    ",
"    O     oooXXX    ",
"         XoooXX+    ",
"        XXX XX.+    ",
"       XXX   ..+    ",
"     XoXX    O+O    ",
"     ooo     OO     ",
"    .XoX     .      ",
"    O.     OO       ",
"                    ",
"                    ",
"                    ",
"                    ",
"                    ",
"                    ",
"                    ",
"                    ",
"       .O+++        ",
"      .....O+O      ",
"     O  O.XXXX.     ",
"         XXXX       ",
"          oo@       ",
"        Oooo@  O    ",
"    . .XXXooXXXO    ",
"   XooXXO  XXX+     ",
"  .Xoo     X..+     ",
"  .XX.     O.+      ",
"           .+       ",
"         ...        ",
"                    ",
"                    ",
"                    ",
"                    ",
"                    ",
"                    ",
"                    ",
"                    ",
"        ...+        ",
"       O  ..++      ",
"           ...+     ",
"           XXXX.    ",
"    X.     oXX O    ",
"  .XooXXXXooo@      ",
"  .XooXXXXooo@      ",
"    X.     oXX O    ",
"           XXXX.    ",
"           ...+     ",
"       O  ..++      ",
"        ...+        ",
"                    ",
"                    ",
"                    ",
"                    ",
"                    ",
"                    ",
"                    ",
"                    ",
"          ...       ",
"            .+      ",
"   .XX.     O.+     ",
"   .Xoo     X..+    ",
"    XooXXO  XXX+    ",
"     . .XXXooXXX.   ",
"         Oooo@  .   ",
"           oo@      ",
"          XXXX      ",
"      O  O.XXXX.    ",
"       .....X+.     ",
"        .O+++       ",
"                    ",
"                    ",
"                    ",
"                    ",
"                    ",
"                    ",
"                    ",
"                    ",
"    O.     OO       ",
"    .XoX     .      ",
"     ooo     OO     ",
"     XoXX    O+O    ",
"       XXX   ..+    ",
"        XXX XX.+    ",
"         XoooXX+    ",
"    O     oooXXX    ",
"    O    Xooo@ .    ",
"     .OO.XXX@       ",
"      O+..XX        ",
"       O+++XX       ",
"                    ",
"                    ",
"                    ",
"                    ",
"                    ",
"                    ",
"      ..            ",
"      XXX           ",
"      Xoo.          ",
"      .oo    O      ",
"        X.    .     ",
"        XX    ..    ",
"        OXO  O.O    ",
"    .    Xo X..+    ",
"    .    oooXX.+    ",
"    ..OXXoooXXO+    ",
"     +..XX@@XX+     ",
"      +.XX   XO     ",
"       ++X   .      ",
"         OO         ",
"                    ",
"                    ",
"                    ",
"                    "};
