/* XPM */
static char *ga0[] = {
/* width height ncolors chars_per_pixel */
"20  640 8 1"
/* colors */
"  c None",
"+ c #0080ff",
"o c #8d8da0",
". c #9a9aaf",
"O c #a9a9c0",
"# c #b00000",
"X c #c6c6e0",
"@ c #ff0000",
/* pixels */
"                    ",
"         ..         ",
"       ..XX..       ",
"      oXXXXXXo      ",
"    . .XXXXXX. .    ",
"   .  .XXOOXX.  .   ",
"   .  .OOOOOO.  .   ",
"  .O  o  OO  o  O.  ",
"  .O     OO    O..  ",
"  .OO    OO    OO.  ",
"  .OO.  .XX.  .OO.  ",
"  +XXOOOOXXOOOOXX+  ",
"   +XXXOXXXXOXXX+   ",
"   ++XXXXXXXXXX++   ",
"    +OXXXXXXXXO+    ",
"    +OOXOXXOXOO+    ",
"    .OO@@XX@@OO.    ",
"     ..@@..@@..     ",
"       o#..#o       ",
"                    ",
"                    ",
"           ..       ",
"       o..XXX       ",
"     . .XXXXX.      ",
"    .  .XXXXXXo     ",
"    .  .XXOOXX. .   ",
"   .O  oOOOOOX.  .  ",
"  .O     OOO O.  .  ",
"  .OO    OO  o  O.  ",
"  .OO.   OO    O..  ",
"  +XXOO .XX.   OO.  ",
"   +XXXOOXXO  .OO.  ",
"  ++XXXXXXXXOOOXX.  ",
"   +OXXXXXXXXXX+    ",
"   +OOXXXXXXXX++    ",
"   .OO@OXXOXXO+     ",
"    ..@@XX@@OO+     ",
"     o#...@@OO.     ",
"       ..#o .       ",
"                    ",
"                    ",
"            .       ",
"       . o..X.      ",
"     .  .XXXXX.     ",
"    ..  .XXXXXX.    ",
"   .O   .OXOXXXo    ",
"   .O  o OOOOXX.    ",
"  .OOO    OOOO.  .  ",
"  +XO.    OO  .  .  ",
"   +XO  .OO   o  .  ",
"  +XXXOOOXX    OO.  ",
"   +XXOXXXO.   O..  ",
"  ++OXXXXXXOO.OOO.  ",
"  .OOXXXXXXOXOXX.   ",
"   OOXOXXXXXXXX++   ",
"  ..@@@XXOXXO++     ",
"    o@.X@@XOO+      ",
"     #..@@OO+       ",
"       .#o...       ",
"                    ",
"                    ",
"                    ",
"       .. o.. .     ",
"     ..   .XXXX.    ",
"    .O   .XXXXX.    ",
"   ..O  oOXXXXXX.   ",
"   .OO  o OOOOXXo   ",
"   XOO    OOOXX.    ",
"   +XO    OO OO. .  ",
"  ++XXO .OOO  o     ",
"  ++XXOOXXX      .  ",
"  +OXXXXXX.    OO.  ",
" .OOOXXXXXOO .OO..  ",
"  .OXOXXXXOXO.OO.   ",
"  .@@@XXXXXXXXX..   ",
"   o@.XXOXXX+X++    ",
"    ...@@OOO++      ",
"     .#@@OO+        ",
"       o....        ",
"                    ",
"                    ",
"                    ",
"      . .    .      ",
"     ..O   .X...    ",
"    ..O   .XXXXX.   ",
"   +.OO  oOXXXXX.   ",
"    XO.    OOOXX..  ",
"   +XO.    OOOXXX   ",
"   +XXO   OOOOXX.   ",
"  +OXXOO.XOO  O.    ",
" .OOXXOXXXO   o     ",
" .OOXXXXXX.      .  ",
" ..@XXXXXXO     O   ",
"  @@@XXXXOOO. O...  ",
"  o@.XXXXXXXOOO..   ",
"   ...@XXXXXXX..    ",
"    .@@@OOO++ +     ",
"     o@.OO+         ",
"       ...          ",
"                    ",
"                    ",
"                    ",
"       ... .        ",
"     ..OO    o.     ",
"    +.OO   ..XX..   ",
"    +XOO  oOXXXXX.  ",
"   +XX..   OXOXXX   ",
"   ++XO     OOXXX.  ",
" .+OXXXO  OOOOXXX.  ",
" .OOXXOO.XOOOOXX.o  ",
" .OOXXXXXXO   O.    ",
" .@@OXXXXX.  oo  .  ",
" o@@XXXXXO       .  ",
"  #.XXXXXOO   O .   ",
"  ...@OXXXXOOO.O.   ",
"   .@@XOXXXXOO..    ",
"    o@OOO+++X..     ",
"     ..O+++         ",
"       .            ",
"                    ",
"                    ",
"                    ",
"       ......       ",
"     +.OOO          ",
"     +XOO    .o.    ",
"    +XXO  o..XXX.   ",
"   ++XO.    OXXXX.  ",
" .+OOXXO    OOXXXX. ",
" .OOXXOO.  OOOOXX.  ",
" .OXXXXXOXOOOOXXX.  ",
" o@@OXXXXXO  OOXXo  ",
" #@@XXXXXO.   ...   ",
" ..XXXXXXO   o   .  ",
"  ..@OXXOO          ",
"  #@@XXXXXO.OO ..   ",
"   o@OOOXXXOO.O.    ",
"    .OO++X+XO..     ",
"    . .+ + +.       ",
"                    ",
"                    ",
"                    ",
"                    ",
"       .......      ",
"       XOOOO  .     ",
"     ++XOO          ",
"  .+++XO.   ...o    ",
"  OOOXXO   oOXXX.   ",
" .OOXXXO     OXXXX. ",
"  @@XXXXO.  OOOXXX. ",
" o@@OXXXXXOOOOOXXX  ",
" #.XXXXXXXOOOOXXX.  ",
" ..XXXXXO.   OXXX.  ",
" ..@OXXXO    o...o  ",
"  #@@XXXXO          ",
"  o.OOXXXO.     .   ",
"   .OOOXXXOOOO..    ",
"    .++++XOO..      ",
"       + +...       ",
"                    ",
"                    ",
"                    ",
"                    ",
"        +....       ",
"      ++XOOOO..     ",
"   .+++XXOO    .    ",
"  .OOOXXO.          ",
"  .OOXXXO   o...o   ",
" o@@XXXOO    OXXX.  ",
" #@@OXXXO.   OXXX.  ",
" ..XXXXXXXOOOOOXXX. ",
" ..XXXXXXXOOOOOXXX. ",
" #@@OXXXO.   OXXX.  ",
" o@@XXXOO    OXXX.  ",
"  .OOXXXO   o...o   ",
"  .OOOXXO.          ",
"   .+++XXOOO   .    ",
"      ++XOO.O..     ",
"        +....       ",
"                    ",
"                    ",
"                    ",
"                    ",
"       + +...       ",
"    .++++XOOO.      ",
"   .OOOXXXOO O..    ",
"  o.OOXXXO.     .   ",
"  #@@XXXXO          ",
" ..@OXXXO    o...o  ",
" ..XXXXXO.   OXXX.  ",
" #.XXXXXXXOOOOXXX.  ",
" o@@OXXXXXOOOOOXXX  ",
"  @@XXXXO.  OOOXXX. ",
" .OOXXXO     OXXXX. ",
"  OOOXXO   oOXXX.   ",
"  .+++XO.   ...o    ",
"     ++XOOO         ",
"       XOO.O  .     ",
"       .......      ",
"                    ",
"                    ",
"                    ",
"                    ",
"    . .+ + +.       ",
"    .OO++X+XO..     ",
"   o@OOOXXXOOOO.    ",
"  #@@XXXXXO.O  ..   ",
"  ..@OXXOO          ",
" ..XXXXXXO   o   .  ",
" #@@XXXXXO.   ...   ",
" o@@OXXXXXO  OOXXo  ",
" .OXXXXXOXOOOOXXX.  ",
" .OOXXOO.  OOOOXX.  ",
" .+OOXXO    OOXXXX. ",
"   ++XO.    OXXXX.  ",
"    +XXO  o..XXX.   ",
"     +XOOO   .o.    ",
"     +.O.O          ",
"       ......       ",
"                    ",
"                    ",
"                    ",
"       .            ",
"     ..O+++         ",
"    o@OOO+++X..     ",
"   .@@XOXXXXOO..    ",
"  ...@OXXXXOOOOO.   ",
"  #.XXXXXOO     .   ",
" o@@XXXXXO       .  ",
" .@@OXXXXX.  oo  .  ",
" .OOXXXXXXO   O.    ",
" .OOXXOO.XOOOOXX.o  ",
" .+OXXXO  OOOOXXX.  ",
"   ++XO     OOXXX.  ",
"   +XX..   OXOXXX   ",
"    +XOO  oOXXXXX.  ",
"    +.OOO  ..XX..   ",
"     ...O    o.     ",
"       ... .        ",
"                    ",
"                    ",
"                    ",
"       ...          ",
"     o@.OO+         ",
"    .@@@OOO++ +     ",
"   ...@XXXXXXX..    ",
"  o@.XXXXXXXOOO..   ",
"  @@@XXXXOOO..OO..  ",
" ..@XXXXXXO     O   ",
" .OOXXXXXX.      .  ",
" .OOXXOXXXX   o     ",
"  +OXXOO.OOO  O.    ",
"   +XXO   OOOOXX.   ",
"   +XO.    OOOXXX   ",
"    XO     OOOXX..  ",
"   +.OO  oOXXXXX.   ",
"    ...   .XXXXX.   ",
"     ..O   .X...    ",
"      . .    .      ",
"                    ",
"                    ",
"                    ",
"       o....        ",
"     .#@@OO+        ",
"    ...@@OOO++      ",
"   o@.XXOXXX+X++    ",
"  .@@@XXXXXXXXX..   ",
"  .OXOXXXXOXO.OO.   ",
" .OOOXXXXXOO .OOO.  ",
"  +OXXXXXX.     O.  ",
"  ++XXOOXXX      .  ",
"  ++XXO .OOO  o     ",
"   +XO    OO OO. .  ",
"   XOO    OOOXX.    ",
"   .OO  o OOOOXXo   ",
"   ...O oOXXXXXX.   ",
"    .O   .XXXXX.    ",
"     ..   .XXXX.    ",
"       .. o.. .     ",
"                    ",
"                    ",
"                    ",
"       .#o...       ",
"     #..@@OO+       ",
"    o@.X@@XOO+      ",
"  ..@@@XXOXXO++     ",
"   OOXOXXXXXXXX++   ",
"  .OOXXXXXXOXOXX.   ",
"  ++OXXXXXXOO.OOO.  ",
"   +XXOXXXO.   OO.  ",
"  +XXXOOOXX     O.  ",
"   +XO  .OO   o  .  ",
"  +XO.    OO  .  .  ",
"  .OOO    OOOO.  .  ",
"   ..O o OOOOXX.    ",
"   .O   .OXOXXXo    ",
"    ..  .XXXXXX.    ",
"     .  .XXXXX.     ",
"       . o..X.      ",
"            .       ",
"                    ",
"                    ",
"       ..#o .       ",
"     o#...@@OO.     ",
"    ..@@XX@@OO+     ",
"   .OO@OXXOXXO+     ",
"   +OOXXXXXXXX++    ",
"   +OXXXXXXXXXX+    ",
"  ++XXXXXXXXOOOXX.  ",
"   +XXXOOXXO  .OO.  ",
"  +XXOO .XX.   OO.  ",
"  .OO.   OO     O.  ",
"  .OO    OO  o  O.  ",
"  ..O    OOO O.  .  ",
"   .O  oOOOOOX.  .  ",
"    .  .XXOOXX. .   ",
"    .  .XXXXXXo     ",
"     . .XXXXX.      ",
"       o..XXX       ",
"           ..       ",
"                    ",
"                    ",
"       o#..#o       ",
"     ..@@..@@..     ",
"    .OO@@XX@@OO.    ",
"    +OOXOXXOXOO+    ",
"    +OXXXXXXXXO+    ",
"   ++XXXXXXXXXX++   ",
"   +XXXOXXXXOXXX+   ",
"  +XXOOOOXXOOOOXX+  ",
"  .OO.  .XX.  .OO.  ",
"  .OO    OO    OO.  ",
"  ..O    OO     O.  ",
"  .O  o  OO  o  O.  ",
"   .  .OOOOOO.  .   ",
"   .  .XXOOXX.  .   ",
"    . .XXXXXX. .    ",
"      oXXXXXXo      ",
"       ..XX..       ",
"         ..         ",
"                    ",
"                    ",
"       . o#..       ",
"     .OO@@...#o     ",
"     +OO@@XX@@..    ",
"     +OXXOXXO@OO.   ",
"    ++XXXXXXXXOO+   ",
"    +XXXXXXXXXXO+   ",
"  .XXOOOXXXXXXXX++  ",
"  .OO.  OXXOOXXX+   ",
"  .OO   .XX. OOXX+  ",
"  ..O    OO   .OO.  ",
"  .O  o  OO    OO.  ",
"  .  .O OOO     O.  ",
"  .  .XOOOOOo  O.   ",
"   . .XXOOXX.  .    ",
"     oXXXXXX.  .    ",
"      .XXXXX. .     ",
"       XXX..o       ",
"       ..           ",
"                    ",
"                    ",
"       ...o#.       ",
"       +OO@@..#     ",
"      +OOX@@X.@o    ",
"     ++OXXOXX@@@..  ",
"   ++XXXXXXXXOXOO   ",
"   .XXOXOXXXXXXOO.  ",
"  .OOO.OOXXXXXXO++  ",
"  ..O   .OXXXOXX+   ",
"  .OO    XXOOOXXX+  ",
"  .  o   OO.  OX+   ",
"  .  .  OO    .OX+  ",
"  .  .OOOO    OOO.  ",
"    .XXOOOO o  O.   ",
"    oXXXOXO.   O.   ",
"    .XXXXXX.  ..    ",
"     .XXXXX.  .     ",
"      .X..o .       ",
"       .            ",
"                    ",
"                    ",
"        ....o       ",
"        +OO@@#.     ",
"      ++OOO@@...    ",
"    ++X+XXXOXX.@o   ",
"   ..XXXXXXXXX@@@.  ",
"   .OO.OXOXXXXOXO.  ",
"  ..OO. OOXXXXXOOO. ",
"  .OO    .XXXXXXO+  ",
"  .      XXXOOXX++  ",
"     o  OOO. OXX++  ",
"  . .OO OO    OX+   ",
"    .XXOOO    OOX   ",
"   oXXOOOO o  OO.   ",
"   .XXXXXXOo  O..   ",
"    .XXXXX.   O.    ",
"    .XXXX.   ..     ",
"     . ..o ..       ",
"                    ",
"                    ",
"                    ",
"          ...       ",
"         +OO.@o     ",
"     + ++OOO@@@.    ",
"    ..XXXXXXX@...   ",
"   ..OOOXXXXXXX.@o  ",
"  ...O .OOOXXXX@@@  ",
"   O     OXXXXXX@.. ",
"  .      .XXXXXXOO. ",
"     o   OXXXOXXOO. ",
"    .O  OOX.OOXXO+  ",
"   .XXOOOO   OXX+   ",
"   XXXOOO    .OX+   ",
"  ..XXOOO    .OX    ",
"   .XXXXXOo  OO.+   ",
"   .XXXXX.   O..    ",
"    ...X.   O..     ",
"      .    . .      ",
"                    ",
"                    ",
"                    ",
"            .       ",
"         +++O..     ",
"     ..X+++OOO@o    ",
"    ..OOXXXXOX@@.   ",
"   .O.OOOXXXXO@...  ",
"   . O   OOXXXXX.#  ",
"  .       OXXXXX@@o ",
"  .  oo  .XXXXXO@@. ",
"    .O   OXXXXXXOO. ",
"  o.XXOOOOX.OOXXOO. ",
"  .XXXOOOO  OXXXO+. ",
"  .XXXOO     OX++   ",
"   XXXOXO   ..XX+   ",
"  .XXXXXOo  OOX+    ",
"   ..XX..   OO.+    ",
"     .o    OO..     ",
"        . ...       ",
"                    ",
"                    ",
"                    ",
"                    ",
"       .+ + +. .    ",
"     ..OX+X++OO.    ",
"    .O.OOXXXOOO@o   ",
"   .. OO.OXXXXX@@#  ",
"          OOXXO@..  ",
"  .   o   OXXXXXX.. ",
"   ...   .OXXXXX@@# ",
"  oXXOO  OXXXXXO@@o ",
"  .XXXOOOOXOXXXXXO. ",
"  .XXOOOO  .OOXXOO. ",
" .XXXXOO    OXXOO+. ",
"  .XXXXO    .OX++   ",
"   .XXX..o  OXX+    ",
"    .o.    OOX+     ",
"          OOO.+     ",
"       ......       ",
"                    ",
"                    ",
"                    ",
"                    ",
"       ...+ +       ",
"      ..OOX++++.    ",
"    ..OOOOXXXOOO.   ",
"   .     .OXXXOO.o  ",
"          OXXXX@@#  ",
"  o...o    OXXXO@.. ",
"  .XXXO   .OXXXXX.. ",
"  .XXXOOOOXXXXXXX.# ",
"  XXXOOOOOXXXXXO@@o ",
" .XXXOOO  .OXXXX@@  ",
" .XXXXO     OXXXOO. ",
"   .XXXOo   OXXOOO  ",
"    o...   .OX+++.  ",
"          OOX++     ",
"     .  OOOOX       ",
"      .......       ",
"                    ",
"                    ",
"                    ",
"                    ",
"       ....+        ",
"     ..O.OOX++      ",
"    .   OOOXX+++.   ",
"          .OXXOOO.  ",
"   o...o   OXXXOO.  ",
"  .XXXO    OOXXX@@o ",
"  .XXXO   .OXXXO@@# ",
" .XXXOOOOOXXXXXXX.. ",
" .XXXOOOOOXXXXXXX.. ",
"  .XXXO   .OXXXO@@# ",
"  .XXXO    OOXXX@@o ",
"   o...o   OXXXOO.  ",
"          .OXXOOO.  ",
"    .    OOXX+++.   ",
"     ..OOOOX++      ",
"       ....+        ",
"                    ",
"                    ",
"                    ",
"                    ",
"      .......       ",
"     .  O.OOX       ",
"         OOOX++     ",
"    o...   .OX+++.  ",
"   .XXXOo   OXXOOO  ",
" .XXXXO     OXXXOO. ",
" .XXXOOO  .OXXXX@@  ",
"  XXXOOOOOXXXXXO@@o ",
"  .XXXOOOOXXXXXXX.# ",
"  .XXXO   .OXXXXX.. ",
"  o...o    OXXXO@.. ",
"          OXXXX@@#  ",
"   .     .OXXXOO.o  ",
"    ..O OOXXXOOO.   ",
"      .OOOX++++.    ",
"       ...+ +       ",
"                    ",
"                    ",
"                    ",
"                    ",
"       ......       ",
"          O.O.+     ",
"    .o.   OOOX+     ",
"   .XXX..o  OXX+    ",
"  .XXXXO    .OX++   ",
" .XXXXOO    OXXOO+. ",
"  .XXOOOO  .OOXXOO. ",
"  .XXXOOOOXOXXXXXO. ",
"  oXXOO  OXXXXXO@@o ",
"   ...   .OXXXXX@@# ",
"  .   o   OXXXXXX.. ",
"          OOXXO@..  ",
"   ..  O.OXXXXX@@#  ",
"    .OOOOXXXOOO@o   ",
"     ..OX+X++OO.    ",
"       .+ + +. .    ",
"                    ",
"                    ",
"                    ",
"                    ",
"        . ...       ",
"     .o    O...     ",
"   ..XX..  OOO.+    ",
"  .XXXXXOo  OOX+    ",
"   XXXOXO   ..XX+   ",
"  .XXXOO     OX++   ",
"  .XXXOOOO  OXXXO+. ",
"  o.XXOOOOX.OOXXOO. ",
"    .O   OXXXXXXOO. ",
"  .  oo  .XXXXXO@@. ",
"  .       OXXXXX@@o ",
"   .     OOXXXXX.#  ",
"   .OOOOOXXXXO@...  ",
"    ..OOXXXXOX@@.   ",
"     ..X+++OOO@o    ",
"         +++O..     ",
"            .       ",
"                    ",
"                    ",
"                    ",
"      .    . .      ",
"    ...X.   O..     ",
"   .XXXXX.   ...    ",
"   .XXXXXOo  OO.+   ",
"  ..XXOOO     OX    ",
"   XXXOOO    .OX+   ",
"   .XXOOOO   OXX+   ",
"    .O  OOO.OOXXO+  ",
"     o   XXXXOXXOO. ",
"  .      .XXXXXXOO. ",
"   O     OXXXXXX@.. ",
"  ..OO..OOOXXXX@@@  ",
"   ..OOOXXXXXXX.@o  ",
"    ..XXXXXXX@...   ",
"     + ++OOO@@@.    ",
"         +OO.@o     ",
"          ...       ",
"                    ",
"                    ",
"                    ",
"     . ..o ..       ",
"    .XXXX.   ..     ",
"    .XXXXX.   O.    ",
"   .XXXXXXOo O...   ",
"   oXXOOOO o  OO.   ",
"    .XXOOO    OOX   ",
"  . .OO OO    OX+   ",
"     o  OOO. OXX++  ",
"  .      XXXOOXX++  ",
"  .O     .XXXXXXO+  ",
"  .OOO. OOXXXXXOOO. ",
"   .OO.OXOXXXXOXO.  ",
"   ..XXXXXXXXX@@@.  ",
"    ++X+XXXOXX.@o   ",
"      ++OOO@@...    ",
"        +OO@@#.     ",
"        ....o       ",
"                    ",
"                    ",
"       .            ",
"      .X..o .       ",
"     .XXXXX.  .     ",
"    .XXXXXX.  ..    ",
"    oXXXOXO.   O.   ",
"    .XXOOOO o O..   ",
"  .  .OOOO    OOO.  ",
"  .  .  OO    .OX+  ",
"  .  o   OO.  OX+   ",
"  .O     XXOOOXXX+  ",
"  .OO   .OXXXOXX+   ",
"  .OOO.OOXXXXXXO++  ",
"   .XXOXOXXXXXXOO.  ",
"   ++XXXXXXXXOXOO   ",
"     ++OXXOXX@@@..  ",
"      +OOX@@X.@o    ",
"       +OO@@..#     ",
"       ...o#.       ",
"                    ",
"                    ",
"       ..           ",
"       XXX..o       ",
"      .XXXXX. .     ",
"     oXXXXXX.  .    ",
"   . .XXOOXX.  .    ",
"  .  .XOOOOOo  O.   ",
"  .  .O OOO    O..  ",
"  .O  o  OO    OO.  ",
"  .O     OO   .OO.  ",
"  .OO   .XX. OOXX+  ",
"  .OO.  OXXOOXXX+   ",
"  .XXOOOXXXXXXXX++  ",
"    +XXXXXXXXXXO+   ",
"    ++XXXXXXXXOO+   ",
"     +OXXOXXO@OO.   ",
"     +OO@@XX@@..    ",
"     .OO@@...#o     ",
"       . o#..       ",
"                    ",
};
