/* XPM */
static char * C5_xpm[] = {
"20 320 7 1",
" 	c None",
".	c #000078787878",
"X	c #0000A0A0A0A0",
"o	c #0000C8C8C8C8",
"O	c #0000FFFFFFFF",
"+	c #000078787878",
"@	c #00007F7FEFEF",
"                    ",
"  .X.          .X.  ",
" .Xoo          ooX. ",
" Xooo          oooX ",
" .oooo O   O  oooo. ",
"    ooo.    Oooo    ",
"   O ooo....ooo O   ",
"  O  .oooXX+oo.     ",
"      .oOOO++.      ",
"      .XO@OOX.      ",
"      .XOO@OX.      ",
"      .++OOOo.      ",
"     .oo+XXooo.  O  ",
"   O ooo....ooo O   ",
"    oooO    .ooo    ",
" .oooo  O   O oooo. ",
" Xooo          oooX ",
" .Xoo          ooX. ",
"  .X.          .X.  ",
"                    ",
"                    ",
"  .X.          .X.  ",
" .Xoo          ooX. ",
" Xooo          oooX ",
" .oooo O   O  oooo. ",
"    ooo.    Oooo    ",
"   O ooo....ooo O   ",
"  O  .oooXX+oo.     ",
"      .oOOO++.      ",
"      .XO@OOX.      ",
"      .XOO@OX.      ",
"      .++OOOo.      ",
"     .oo+XXooo.  O  ",
"   O ooo....ooo O   ",
"    oooO    .ooo    ",
" .oooo  O   O oooo. ",
" Xooo          oooX ",
" .Xoo          ooX. ",
"  .X.          .X.  ",
"                    ",
"                    ",
"  .X.          .X.  ",
" .Xoo          ooX. ",
" Xooo          oooX ",
" .oooo O   O  oooo. ",
"    ooo.    Oooo    ",
"   O ooo....ooo O   ",
"  O  .oooXX+oo.     ",
"      .oOOO++.      ",
"      .XO@OOX.      ",
"      .XOO@OX.      ",
"      .++OOOo.      ",
"     .oo+XXooo.  O  ",
"   O ooo....ooo O   ",
"    oooO    .ooo    ",
" .oooo  O   O oooo. ",
" Xooo          oooX ",
" .Xoo          ooX. ",
"  .X.          .X.  ",
"                    ",
"                    ",
"  .X.          .X.  ",
" .Xoo          ooX. ",
" Xooo          oooX ",
" .oooo O   O  oooo. ",
"    ooo.    Oooo    ",
"   O ooo....ooo O   ",
"  O  .oooXX+oo.     ",
"      .oOOO++.      ",
"      .XO@OOX.      ",
"      .XOO@OX.      ",
"      .++OOOo.      ",
"     .oo+XXooo.  O  ",
"   O ooo....ooo O   ",
"    oooO    .ooo    ",
" .oooo  O   O oooo. ",
" Xooo          oooX ",
" .Xoo          ooX. ",
"  .X.          .X.  ",
"                    ",
"                    ",
"  .X.          .X.  ",
" .Xoo          ooX. ",
" Xooo          oooX ",
" .oooo O   O  oooo. ",
"    ooo.    Oooo    ",
"   O ooo....ooo O   ",
"  O  .oooXX+oo.     ",
"      .oOOO++.      ",
"      .XO@OOX.      ",
"      .XOO@OX.      ",
"      .++OOOo.      ",
"     .oo+XXooo.  O  ",
"   O ooo....ooo O   ",
"    oooO    .ooo    ",
" .oooo  O   O oooo. ",
" Xooo          oooX ",
" .Xoo          ooX. ",
"  .X.          .X.  ",
"                    ",
"                    ",
"  .X.          .X.  ",
" .Xoo          ooX. ",
" Xooo          oooX ",
" .oooo O   O  oooo. ",
"    ooo.    Oooo    ",
"   O ooo....ooo O   ",
"  O  .oooXX+oo.     ",
"      .oOOO++.      ",
"      .XO@OOX.      ",
"      .XOO@OX.      ",
"      .++OOOo.      ",
"     .oo+XXooo.  O  ",
"   O ooo....ooo O   ",
"    oooO    .ooo    ",
" .oooo  O   O oooo. ",
" Xooo          oooX ",
" .Xoo          ooX. ",
"  .X.          .X.  ",
"                    ",
"                    ",
"  .X.          .X.  ",
" .Xoo          ooX. ",
" Xooo          oooX ",
" .oooo O   O  oooo. ",
"    ooo.    Oooo    ",
"   O ooo....ooo O   ",
"  O  .oooXX+oo.     ",
"      .oOOO++.      ",
"      .XO@OOX.      ",
"      .XOO@OX.      ",
"      .++OOOo.      ",
"     .oo+XXooo.  O  ",
"   O ooo....ooo O   ",
"    oooO    .ooo    ",
" .oooo  O   O oooo. ",
" Xooo          oooX ",
" .Xoo          ooX. ",
"  .X.          .X.  ",
"                    ",
"                    ",
"  .X.          .X.  ",
" .Xoo          ooX. ",
" Xooo          oooX ",
" .oooo O   O  oooo. ",
"    ooo.    Oooo    ",
"   O ooo....ooo O   ",
"  O  .oooXX+oo.     ",
"      .oOOO++.      ",
"      .XO@OOX.      ",
"      .XOO@OX.      ",
"      .++OOOo.      ",
"     .oo+XXooo.  O  ",
"   O ooo....ooo O   ",
"    oooO    .ooo    ",
" .oooo  O   O oooo. ",
" Xooo          oooX ",
" .Xoo          ooX. ",
"  .X.          .X.  ",
"                    ",
"                    ",
"  .X.          .X.  ",
" .Xoo          ooX. ",
" Xooo          oooX ",
" .oooo O   O  oooo. ",
"    ooo.    Oooo    ",
"   O ooo....ooo O   ",
"  O  .oooXX+oo.     ",
"      .oOOO++.      ",
"      .XO@OOX.      ",
"      .XOO@OX.      ",
"      .++OOOo.      ",
"     .oo+XXooo.  O  ",
"   O ooo....ooo O   ",
"    oooO    .ooo    ",
" .oooo  O   O oooo. ",
" Xooo          oooX ",
" .Xoo          ooX. ",
"  .X.          .X.  ",
"                    ",
"                    ",
"  .X.          .X.  ",
" .Xoo          ooX. ",
" Xooo          oooX ",
" .oooo O   O  oooo. ",
"    ooo.    Oooo    ",
"   O ooo....ooo O   ",
"  O  .oooXX+oo.     ",
"      .oOOO++.      ",
"      .XO@OOX.      ",
"      .XOO@OX.      ",
"      .++OOOo.      ",
"     .oo+XXooo.  O  ",
"   O ooo....ooo O   ",
"    oooO    .ooo    ",
" .oooo  O   O oooo. ",
" Xooo          oooX ",
" .Xoo          ooX. ",
"  .X.          .X.  ",
"                    ",
"                    ",
"  .X.          .X.  ",
" .Xoo          ooX. ",
" Xooo          oooX ",
" .oooo O   O  oooo. ",
"    ooo.    Oooo    ",
"   O ooo....ooo O   ",
"  O  .oooXX+oo.     ",
"      .oOOO++.      ",
"      .XO@OOX.      ",
"      .XOO@OX.      ",
"      .++OOOo.      ",
"     .oo+XXooo.  O  ",
"   O ooo....ooo O   ",
"    oooO    .ooo    ",
" .oooo  O   O oooo. ",
" Xooo          oooX ",
" .Xoo          ooX. ",
"  .X.          .X.  ",
"                    ",
"                    ",
"  .X.          .X.  ",
" .Xoo          ooX. ",
" Xooo          oooX ",
" .oooo O   O  oooo. ",
"    ooo.    Oooo    ",
"   O ooo....ooo O   ",
"  O  .oooXX+oo.     ",
"      .oOOO++.      ",
"      .XO@OOX.      ",
"      .XOO@OX.      ",
"      .++OOOo.      ",
"     .oo+XXooo.  O  ",
"   O ooo....ooo O   ",
"    oooO    .ooo    ",
" .oooo  O   O oooo. ",
" Xooo          oooX ",
" .Xoo          ooX. ",
"  .X.          .X.  ",
"                    ",
"                    ",
"  .X.          .X.  ",
" .Xoo          ooX. ",
" Xooo          oooX ",
" .oooo O   O  oooo. ",
"    ooo.    Oooo    ",
"   O ooo....ooo O   ",
"  O  .oooXX+oo.     ",
"      .oOOO++.      ",
"      .XO@OOX.      ",
"      .XOO@OX.      ",
"      .++OOOo.      ",
"     .oo+XXooo.  O  ",
"   O ooo....ooo O   ",
"    oooO    .ooo    ",
" .oooo  O   O oooo. ",
" Xooo          oooX ",
" .Xoo          ooX. ",
"  .X.          .X.  ",
"                    ",
"                    ",
"  .X.          .X.  ",
" .Xoo          ooX. ",
" Xooo          oooX ",
" .oooo O   O  oooo. ",
"    ooo.    Oooo    ",
"   O ooo....ooo O   ",
"  O  .oooXX+oo.     ",
"      .oOOO++.      ",
"      .XO@OOX.      ",
"      .XOO@OX.      ",
"      .++OOOo.      ",
"     .oo+XXooo.  O  ",
"   O ooo....ooo O   ",
"    oooO    .ooo    ",
" .oooo  O   O oooo. ",
" Xooo          oooX ",
" .Xoo          ooX. ",
"  .X.          .X.  ",
"                    ",
"                    ",
"  .X.          .X.  ",
" .Xoo          ooX. ",
" Xooo          oooX ",
" .oooo O   O  oooo. ",
"    ooo.    Oooo    ",
"   O ooo....ooo O   ",
"  O  .oooXX+oo.     ",
"      .oOOO++.      ",
"      .XO@OOX.      ",
"      .XOO@OX.      ",
"      .++OOOo.      ",
"     .oo+XXooo.  O  ",
"   O ooo....ooo O   ",
"    oooO    .ooo    ",
" .oooo  O   O oooo. ",
" Xooo          oooX ",
" .Xoo          ooX. ",
"  .X.          .X.  ",
"                    ",
"                    ",
"  .X.          .X.  ",
" .Xoo          ooX. ",
" Xooo          oooX ",
" .oooo O   O  oooo. ",
"    ooo.    Oooo    ",
"   O ooo....ooo O   ",
"  O  .oooXX+oo.     ",
"      .oOOO++.      ",
"      .XO@OOX.      ",
"      .XOO@OX.      ",
"      .++OOOo.      ",
"     .oo+XXooo.  O  ",
"   O ooo....ooo O   ",
"    oooO    .ooo    ",
" .oooo  O   O oooo. ",
" Xooo          oooX ",
" .Xoo          ooX. ",
"  .X.          .X.  ",
"                    "};
