/* XPM */
static char * C0_xpm[] = {
/* width height colors chars_per_color */
"20  640 8 1"
/* colors */
" 	c None",
".	c #9A9A9A9AAFAF",
"X	c #A9A9A9A9C0C0",
"o	c #C6C6C6C6E0E0",
"O	c #8D8D8D8DA0A0",
"+	c #00008080FFFF",
"@	c #B0B000000000",
"#	c #FFFF00000000",
/* pixmap */
"                    ",
"                    ",
"                    ",
"          .         ",
"          X         ",
"         XoX        ",
"         .o.        ",
"      O   X   O     ",
"      .   X   .     ",
"      ..  X  ..     ",
"      .Xo X oX.     ",
"      OX+.X.+XO     ",
"       X+@#@+X      ",
"       .+   +.      ",
"        +   +       ",
"                    ",
"                    ",
"                    ",
"                    ",
"                    ",
"                    ",
"                    ",
"                    ",
"           .        ",
"           X        ",
"          XoX       ",
"       O  .o.       ",
"      .   XX        ",
"      ..  X   O     ",
"      ..  X   .     ",
"      OXo X o..     ",
"       X+.X.oX.     ",
"      .+@@#@+XO     ",
"       +   +X       ",
"       +   +.       ",
"                    ",
"                    ",
"                    ",
"                    ",
"                    ",
"                    ",
"                    ",
"                    ",
"                    ",
"            .       ",
"           XX       ",
"       O  .ooX      ",
"       .   X.       ",
"      ..   X        ",
"      .Xo X    O    ",
"      OX+ X  ..     ",
"      X+.X. oX.     ",
"      .+@#@+X.      ",
"      +    +XO      ",
"          +.        ",
"          +         ",
"                    ",
"                    ",
"                    ",
"                    ",
"                    ",
"                    ",
"                    ",
"                    ",
"                    ",
"        O    X      ",
"        O  .oo      ",
"       .    oX      ",
"      .X.  X        ",
"      OXo XX        ",
"      X+. X   OO    ",
"     ..+@X o ..     ",
"      + ##.+X.      ",
"          +XO.      ",
"         ++X        ",
"         +          ",
"                    ",
"                    ",
"                    ",
"                    ",
"                    ",
"                    ",
"                    ",
"                    ",
"                    ",
"         O    .     ",
"        .   XoX     ",
"       ..   ooX     ",
"      OXX  XX.      ",
"      XXo XX        ",
"     .X+.XX         ",
"      +@#X    OO    ",
"     +  #@+o...     ",
"         ++X..      ",
"        ++X O       ",
"        +           ",
"                    ",
"                    ",
"                    ",
"                    ",
"                    ",
"                    ",
"                    ",
"                    ",
"                    ",
"          O         ",
"        ..   X .    ",
"       ...  .XXX    ",
"       XX   XoX     ",
"     .X+o  XX.      ",
"      +@.XX         ",
"     + @#X          ",
"        @.oo..O     ",
"        ++XX..      ",
"       ++X O        ",
"                    ",
"                    ",
"                    ",
"                    ",
"                    ",
"                    ",
"                    ",
"                    ",
"                    ",
"                    ",
"          O         ",
"        ...         ",
"       OX.   X  .   ",
"      XXo    .oX    ",
"     .+++  XXoX     ",
"     + @.XX  .      ",
"       #X.          ",
"        @+o         ",
"       ++XX...O     ",
"      + .XO.        ",
"                    ",
"                    ",
"                    ",
"                    ",
"                    ",
"                    ",
"                    ",
"                    ",
"                    ",
"                    ",
"                    ",
"       O...O        ",
"       XXX.         ",
"      .++o   .X     ",
"     ++@.    ooX.   ",
"       #XXXXX.X     ",
"       #.           ",
"       @+o          ",
"      ++XXX. O      ",
"       . O...       ",
"                    ",
"                    ",
"                    ",
"                    ",
"                    ",
"                    ",
"                    ",
"                    ",
"                    ",
"                    ",
"                    ",
"        O...O       ",
"      .XXX.         ",
"     ++++o          ",
"       @.    .X     ",
"       #XXXXXooX.   ",
"       @.    .X     ",
"     ++++o          ",
"      .XXX.         ",
"        O...O       ",
"                    ",
"                    ",
"                    ",
"                    ",
"                    ",
"                    ",
"                    ",
"                    ",
"                    ",
"                    ",
"                    ",
"       . O...       ",
"     +++XX.. O      ",
"       @+o          ",
"       @.           ",
"       #XXXXX.X     ",
"     ++@.   XooX.   ",
"     .X+oo   .X     ",
"       XX.          ",
"       O...O        ",
"                    ",
"                    ",
"                    ",
"                    ",
"                    ",
"                    ",
"                    ",
"                    ",
"                    ",
"                    ",
"                    ",
"      +.XO..        ",
"       ++XX..O      ",
"       @.+o         ",
"       #X           ",
"    ++ @.XX  .      ",
"     .++   XXoX     ",
"      XXo   .oX.    ",
"      O.X.   X      ",
"        ..          ",
"          O         ",
"                    ",
"                    ",
"                    ",
"                    ",
"                    ",
"                    ",
"                    ",
"                    ",
"                    ",
"        .           ",
"       +.XO.        ",
"        ++XX.       ",
"       #@.o. OO     ",
"    ++ #X           ",
"     ++. XX         ",
"     XX+o XX .      ",
"      OX    oo      ",
"      ...   XoX     ",
"        .O          ",
"         O          ",
"                    ",
"                    ",
"                    ",
"                    ",
"                    ",
"                    ",
"                    ",
"                    ",
"                    ",
"       + .          ",
"        +XXO        ",
"        @+XX.       ",
"    ++ ##.oX..      ",
"     ++@XX    O     ",
"     X++ X          ",
"      Xo  X         ",
"     O..   X.X      ",
"      ..   .oX      ",
"       .O   XX      ",
"        O           ",
"                    ",
"                    ",
"                    ",
"                    ",
"                    ",
"                    ",
"                    ",
"                    ",
"                    ",
"        + .         ",
"         +X         ",
"     +  @@+X.       ",
"     ++@#.oX..      ",
"     X+.XX  ..      ",
"      Xo X    O     ",
"     OXo  X         ",
"      ..  XX.       ",
"      ..  .oXX      ",
"       O   XX       ",
"            X.      ",
"                    ",
"                    ",
"                    ",
"                    ",
"                    ",
"                    ",
"                    ",
"                    ",
"                    ",
"         +.         ",
"     +    +X        ",
"      + #@+XO       ",
"     .+@X.+oX.      ",
"     XX+.X  ..      ",
"     OXo X   .O     ",
"     ..   X         ",
"      .   X         ",
"      .  .o.X       ",
"      O   Xo        ",
"           X        ",
"            .       ",
"                    ",
"                    ",
"                    ",
"                    ",
"                    ",
"                    ",
"                    ",
"                    ",
"          +         ",
"      +   +.        ",
"     .+@##@+XO      ",
"      X+.X.+X.      ",
"     OXo X oX.      ",
"     .X  X  ..      ",
"     ..  X   O      ",
"     .   X          ",
"      O  .o.        ",
"         XoX        ",
"          X         ",
"          .         ",
"                    ",
"                    ",
"                    ",
"                    ",
"                    ",
"                    ",
"                    ",
"                    ",
"       +   +        ",
"      .+   +.       ",
"      X+@#@+X       ",
"     OX+.X.+XO      ",
"     .Xo X oX.      ",
"     ..  X  ..      ",
"     .   X   .      ",
"     O   X   O      ",
"        .o.         ",
"        XoX         ",
"         X          ",
"         .          ",
"                    ",
"                    ",
"                    ",
"                    ",
"                    ",
"                    ",
"                    ",
"                    ",
"       .+   +       ",
"       X+   +       ",
"     OX+@#@@+.      ",
"     .Xo.X.+X       ",
"     ..o X oXO      ",
"     .   X  ..      ",
"     O   X  ..      ",
"        XX   .      ",
"       .o.  O       ",
"       XoX          ",
"        X           ",
"        .           ",
"                    ",
"                    ",
"                    ",
"                    ",
"                    ",
"                    ",
"                    ",
"         +          ",
"        .+          ",
"      OX+    +      ",
"      .X+@#@+.      ",
"     .Xo .X.+X      ",
"     ..  X +XO      ",
"    O    X oX.      ",
"        X   ..      ",
"       .X   .       ",
"      Xoo.  O       ",
"       XX           ",
"       .            ",
"                    ",
"                    ",
"                    ",
"                    ",
"                    ",
"                    ",
"                    ",
"                    ",
"          +         ",
"        X++         ",
"      .OX+          ",
"      .X+.## +      ",
"     .. o X@+..     ",
"    OO   X .+X      ",
"        XX oXO      ",
"        X  .X.      ",
"      Xo    .       ",
"      oo.  O        ",
"      X    O        ",
"                    ",
"                    ",
"                    ",
"                    ",
"                    ",
"                    ",
"                    ",
"                    ",
"                    ",
"           +        ",
"       O X++        ",
"      ..X++         ",
"     ...o+@#  +     ",
"    OO    X#@+      ",
"         XX.+X.     ",
"        X  oXX      ",
"      .X   XXO      ",
"     Xo.   ..       ",
"     XXX   .        ",
"          O         ",
"                    ",
"                    ",
"                    ",
"                    ",
"                    ",
"                    ",
"                    ",
"                    ",
"                    ",
"                    ",
"        O X++       ",
"      ..XX++        ",
"     O..oo.@        ",
"          X#@ +     ",
"         XX.@+      ",
"      .XX  o+X.     ",
"     XoX   XX       ",
"    XXX.  ...       ",
"    . X   ..        ",
"         O          ",
"                    ",
"                    ",
"                    ",
"                    ",
"                    ",
"                    ",
"                    ",
"                    ",
"                    ",
"                    ",
"        .OX. +      ",
"     O...XX++       ",
"         o+@        ",
"          .X#       ",
"      .  XX.@ +     ",
"     XoXX  +++.     ",
"    Xo.    oXX      ",
"   .  X   .XO       ",
"         ...        ",
"         O          ",
"                    ",
"                    ",
"                    ",
"                    ",
"                    ",
"                    ",
"                    ",
"                    ",
"                    ",
"                    ",
"       ...O .       ",
"      O .XXX++      ",
"          o+@       ",
"           .#       ",
"     X.XXXXX#       ",
"   .Xoo    .@++     ",
"     X.   o++.      ",
"         .XXX       ",
"        O...O       ",
"                    ",
"                    ",
"                    ",
"                    ",
"                    ",
"                    ",
"                    ",
"                    ",
"                    ",
"                    ",
"                    ",
"       O...O        ",
"         .XXX.      ",
"          o++++     ",
"     X.    .@       ",
"   .XooXXXXX#       ",
"     X.    .@       ",
"          o++++     ",
"         .XXX.      ",
"       O...O        ",
"                    ",
"                    ",
"                    ",
"                    ",
"                    ",
"                    ",
"                    ",
"                    ",
"                    ",
"                    ",
"                    ",
"        O...O       ",
"          .XX       ",
"     X.   oo+X.     ",
"   .XooX   .@++     ",
"     X.XXXXX#       ",
"           .@       ",
"          o+@       ",
"      O ..XX+++     ",
"       ...O .       ",
"                    ",
"                    ",
"                    ",
"                    ",
"                    ",
"                    ",
"                    ",
"                    ",
"                    ",
"                    ",
"         O          ",
"          ..        ",
"      X   .X.O      ",
"    .Xo.   oXX      ",
"     XoXX   ++.     ",
"      .  XX.@ ++    ",
"           X#       ",
"         o+.@       ",
"      O..XX++       ",
"        ..OX.+      ",
"                    ",
"                    ",
"                    ",
"                    ",
"                    ",
"                    ",
"                    ",
"                    ",
"                    ",
"                    ",
"          O         ",
"          O.        ",
"     XoX   ...      ",
"      oo    XO      ",
"      . XX o+XX     ",
"         XX .++     ",
"           X# ++    ",
"     OO .o.@#       ",
"       .XX++        ",
"        .OX.+       ",
"           .        ",
"                    ",
"                    ",
"                    ",
"                    ",
"                    ",
"                    ",
"                    ",
"                    ",
"                    ",
"           O        ",
"      XX   O.       ",
"      Xo.   ..      ",
"      X.X   ..O     ",
"         X  oX      ",
"          X ++X     ",
"     O    XX@++     ",
"      ..Xo.## ++    ",
"       .XX+@        ",
"        OXX+        ",
"          . +       ",
"                    ",
"                    ",
"                    ",
"                    ",
"                    ",
"                    ",
"                    ",
"                    ",
"                    ",
"      .X            ",
"       XX   O       ",
"      XXo.  ..      ",
"       .XX  ..      ",
"         X  oXO     ",
"     O    X oX      ",
"      ..  XX.+X     ",
"      ..Xo.#@++     ",
"       .X+@@  +     ",
"         X+         ",
"         . +        ",
"                    ",
"                    ",
"                    ",
"                    ",
"                    ",
"                    ",
"                    ",
"                    ",
"       .            ",
"        X           ",
"        oX   O      ",
"       X.o.  .      ",
"         X   .      ",
"         X   ..     ",
"     O.   X oXO     ",
"      ..  X.+XX     ",
"      .Xo+.X@+.     ",
"       OX+@# +      ",
"        X+    +     ",
"         .+         ",
"                    ",
"                    ",
"                    ",
"                    ",
"                    ",
"                    ",
"                    ",
"                    ",
"         .          ",
"         X          ",
"        XoX         ",
"        .o.  O      ",
"          X   .     ",
"      O   X  ..     ",
"      ..  X  X.     ",
"      .Xo X oXO     ",
"      .X+.X.+X      ",
"      OX+@##@+.     ",
"        .+   +      ",
"         +          ",
"                    ",
"                    ",
"                    ",
"                    ",
"                    ",
"                    ",
};
