/* XPM */
static char * SC9_xpm[] = {
/* width height colors chars_per_color */
"20  640 5 1"
/* colors */
" 	c None",
".	c #0000C8C8C8C8",
"X	c #0000FFFFFFFF",
"o	c #000078787878",
"O	c #0000A0A0A0A0",
/* pixels */
"                    ",
"                    ",
"          .         ",
"         .X.        ",
"         o.o        ",
"          .         ",
"        .....       ",
"         O.O        ",
"          .         ",
"        X . X       ",
"        o . o       ",
"        o.o.o       ",
"        X. .X       ",
"        o   o       ",
"        X   X       ",
"        X   X       ",
"        o   o       ",
"                    ",
"                    ",
"                    ",
"                    ",
"                    ",
"           ..       ",
"          .X.       ",
"          o.o       ",
"           .        ",
"         ....       ",
"         O..O.      ",
"          .         ",
"        X . X       ",
"        o . o       ",
"        o.o.o       ",
"       X.. .o       ",
"       o   o        ",
"       X   X        ",
"       X   X        ",
"       o   o        ",
"                    ",
"                    ",
"                    ",
"                    ",
"                    ",
"                    ",
"            ..      ",
"           oX.      ",
"            .o      ",
"         ....       ",
"          O...      ",
"        X  .O       ",
"        o .         ",
"        o . X       ",
"       X.o. o       ",
"       o. .o        ",
"      X    X        ",
"      X   o         ",
"      o   X         ",
"         oX         ",
"                    ",
"                    ",
"                    ",
"                    ",
"                    ",
"                    ",
"              .     ",
"            o..     ",
"            o..     ",
"          ....o     ",
"          OO.       ",
"         X .O..     ",
"        o ..        ",
"       o. . X       ",
"       X.o oX       ",
"      X   .o        ",
"     X    X         ",
"     o   Xo         ",
"         X          ",
"        o           ",
"                    ",
"                    ",
"                    ",
"                    ",
"                    ",
"                    ",
"                    ",
"               .    ",
"             oX.    ",
"           . ...    ",
"           O..      ",
"         X ...      ",
"        o ..O .     ",
"       X...         ",
"      o. o XX       ",
"     X   .oo        ",
"    o    XX         ",
"        Xo          ",
"       XX           ",
"       o            ",
"                    ",
"                    ",
"                    ",
"                    ",
"                    ",
"                    ",
"                    ",
"                    ",
"                    ",
"              oX.   ",
"            . ...   ",
"         X O.. o    ",
"       oo  ...      ",
"      o....   .     ",
"    XX . o X        ",
"   o    ..oo        ",
"        oX          ",
"       Xo           ",
"     oX             ",
"                    ",
"                    ",
"                    ",
"                    ",
"                    ",
"                    ",
"                    ",
"                    ",
"                    ",
"                    ",
"                    ",
"            . o.X.  ",
"        oX  O....   ",
"      oXo  ... o    ",
"    XX .... O..     ",
"   o    o.          ",
"        .ooX        ",
"       oX           ",
"    oXX             ",
"                    ",
"                    ",
"                    ",
"                    ",
"                    ",
"                    ",
"                    ",
"                    ",
"                    ",
"                    ",
"                    ",
"                    ",
"             .      ",
"       XooX O. o.   ",
"   oXXo..   O...X.  ",
"        o..... o.   ",
"        .   O.      ",
"       .ooXX        ",
"    oXXo            ",
"                    ",
"                    ",
"                    ",
"                    ",
"                    ",
"                    ",
"                    ",
"                    ",
"                    ",
"                    ",
"                    ",
"                    ",
"                    ",
"                    ",
"   oXXoXooX  .      ",
"       ..   O. o.   ",
"        o.......X.  ",
"       ..   O. o.   ",
"   oXXoXooX  .      ",
"                    ",
"                    ",
"                    ",
"                    ",
"                    ",
"                    ",
"                    ",
"                    ",
"                    ",
"                    ",
"                    ",
"                    ",
"                    ",
"                    ",
"   oXXoX            ",
"       .ooX         ",
"       ..   O.      ",
"        o..... o.   ",
"   oXXo..   ....X.  ",
"       oooX O. o..  ",
"            .       ",
"                    ",
"                    ",
"                    ",
"                    ",
"                    ",
"                    ",
"                    ",
"                    ",
"                    ",
"                    ",
"                    ",
"                    ",
"    oXX             ",
"       oX           ",
"       ..ooX        ",
"   o    o    .      ",
"   XXo .... O.      ",
"      Xo   ... o    ",
"        oX O...X.   ",
"            . o..   ",
"                    ",
"                    ",
"                    ",
"                    ",
"                    ",
"                    ",
"                    ",
"                    ",
"                    ",
"                    ",
"                    ",
"     oX             ",
"       X            ",
"        Xo          ",
"   o    ..o         ",
"    XX  o  X        ",
"     oX. .. O.      ",
"       oo ..O.      ",
"        XX O..oo    ",
"           . ...    ",
"           . o...   ",
"                    ",
"                    ",
"                    ",
"                    ",
"                    ",
"                    ",
"                    ",
"                    ",
"                    ",
"      o             ",
"       X            ",
"        o           ",
"   oX   .X          ",
"    XX   .o         ",
"     oX.o. X        ",
"      Xo .          ",
"       oX .OO.      ",
"        X O..       ",
"           .. o     ",
"          .  ..     ",
"             ..     ",
"                    ",
"                    ",
"                    ",
"                    ",
"                    ",
"                    ",
"                    ",
"       o            ",
"        X           ",
"    o   X           ",
"    X    o          ",
"     X  ..o         ",
"     oo. .o         ",
"      X.o. X        ",
"       o .          ",
"       oX .O        ",
"          ...       ",
"          ..        ",
"         .  .o      ",
"           o.X      ",
"            ..      ",
"                    ",
"                    ",
"                    ",
"                    ",
"                    ",
"                    ",
"        o           ",
"     o   X          ",
"     X   X          ",
"     X    o         ",
"      o  .X         ",
"      X.o.oo        ",
"       o.. X        ",
"       o .          ",
"       X  .         ",
"         O.O.       ",
"         ...        ",
"         . .o       ",
"          o..       ",
"           .X       ",
"            .       ",
"                    ",
"                    ",
"                    ",
"                    ",
"                    ",
"          o         ",
"      o   X         ",
"      X   X         ",
"      X   o         ",
"      o.  .X        ",
"       o.o.o        ",
"       o . o        ",
"       X . X        ",
"       X .          ",
"        O.OO        ",
"        .....       ",
"          .         ",
"         o.o        ",
"         .X.        ",
"          .         ",
"                    ",
"                    ",
"                    ",
"                    ",
"                    ",
"       o   o        ",
"       X   X        ",
"       X   X        ",
"       o   o        ",
"       X. .X        ",
"       o.o.o        ",
"       o . o        ",
"       X . X        ",
"         .          ",
"        O.O         ",
"       .....        ",
"         .          ",
"        o.o         ",
"        .X.         ",
"         .          ",
"                    ",
"                    ",
"                    ",
"                    ",
"                    ",
"        o   o       ",
"        X   X       ",
"        X   X       ",
"        o   o       ",
"       o. ..X       ",
"       o.o.o        ",
"       o . o        ",
"       X . X        ",
"         .          ",
"      .O..O         ",
"       ....         ",
"        .           ",
"       o.o          ",
"       .X.          ",
"       ..           ",
"                    ",
"                    ",
"                    ",
"                    ",
"                    ",
"         Xo         ",
"         X   o      ",
"         o   X      ",
"        X    X      ",
"        o. .o       ",
"       o .o.X       ",
"       X . o        ",
"         . o        ",
"       O.  X        ",
"      ...O          ",
"       ....         ",
"      o.            ",
"      .Xo           ",
"      ..            ",
"                    ",
"                    ",
"                    ",
"                    ",
"                    ",
"                    ",
"           o        ",
"          X         ",
"         oX   o     ",
"         X    X     ",
"        o.   X      ",
"       Xo o.X       ",
"       X . .o       ",
"        .. o        ",
"     ..O. X         ",
"       .OO          ",
"     o....          ",
"     ..o            ",
"     ..o            ",
"     .              ",
"                    ",
"                    ",
"                    ",
"                    ",
"                    ",
"                    ",
"            o       ",
"           XX       ",
"          oX        ",
"         XX    o    ",
"        oo.   X     ",
"       XX o .o      ",
"         ...X       ",
"     . O.  o        ",
"      ..O X         ",
"      ..O           ",
"    ..  .           ",
"    ..o             ",
"                    ",
"                    ",
"                    ",
"                    ",
"                    ",
"                    ",
"                    ",
"                    ",
"                    ",
"             Xo     ",
"           oX       ",
"          Xo        ",
"        oo..    o   ",
"        X o . XX    ",
"     .   ....o      ",
"      ...  oo       ",
"    o ..O X         ",
"   ... .            ",
"   .Xo              ",
"                    ",
"                    ",
"                    ",
"                    ",
"                    ",
"                    ",
"                    ",
"                    ",
"                    ",
"                    ",
"                    ",
"             XXo    ",
"           Xo       ",
"        Xoo.        ",
"          .o    o   ",
"     ..O .... XX    ",
"    o ...  oXo      ",
"   ....O  Xo        ",
"  .X.o .            ",
"                    ",
"                    ",
"                    ",
"                    ",
"                    ",
"                    ",
"                    ",
"                    ",
"                    ",
"                    ",
"                    ",
"                    ",
"                    ",
"            oXXo    ",
"        XXoo.       ",
"      .O   .        ",
"   .o .....o        ",
"  .X...O   ..oXXo   ",
"   .o .O XooX       ",
"      .             ",
"                    ",
"                    ",
"                    ",
"                    ",
"                    ",
"                    ",
"                    ",
"                    ",
"                    ",
"                    ",
"                    ",
"                    ",
"                    ",
"                    ",
"      .  XooXoXXo   ",
"   .o .O   ..       ",
"  .X.......o        ",
"   .o .O   ..       ",
"      .  XooXoXXo   ",
"                    ",
"                    ",
"                    ",
"                    ",
"                    ",
"                    ",
"                    ",
"                    ",
"                    ",
"                    ",
"                    ",
"                    ",
"                    ",
"                    ",
"       .            ",
"  ..o .O Xooo       ",
"  .X....   ..oXXo   ",
"   .o .....o        ",
"      .O   ..       ",
"         Xoo.       ",
"            XoXXo   ",
"                    ",
"                    ",
"                    ",
"                    ",
"                    ",
"                    ",
"                    ",
"                    ",
"                    ",
"                    ",
"                    ",
"                    ",
"                    ",
"   ..o .            ",
"   .X...O Xo        ",
"    o ...   oX      ",
"      .O .... oXX   ",
"      .    o    o   ",
"        Xoo..       ",
"           Xo       ",
"             XXo    ",
"                    ",
"                    ",
"                    ",
"                    ",
"                    ",
"                    ",
"                    ",
"                    ",
"                    ",
"                    ",
"                    ",
"   ...o .           ",
"    ... .           ",
"    oo..O XX        ",
"      .O.. oo       ",
"      .O .. .Xo     ",
"        X  o  XX    ",
"         o..    o   ",
"          oX        ",
"            X       ",
"             Xo     ",
"                    ",
"                    ",
"                    ",
"                    ",
"                    ",
"                    ",
"                    ",
"                    ",
"                    ",
"     ..             ",
"     ..  .          ",
"     o ..           ",
"       ..O X        ",
"      .OO. Xo       ",
"          . oX      ",
"        X .o.Xo     ",
"         o.   XX    ",
"          X.   Xo   ",
"           o        ",
"            X       ",
"             o      ",
"                    ",
"                    ",
"                    ",
"                    ",
"                    ",
"                    ",
"                    ",
"      ..            ",
"      X.o           ",
"      o.  .         ",
"        ..          ",
"       ...          ",
"        O. Xo       ",
"          . o       ",
"        X .o.X      ",
"         o. .oo     ",
"         o..  X     ",
"          o    X    ",
"           X   o    ",
"           X        ",
"            o       ",
"                    ",
"                    ",
"                    ",
"                    ",
"                    ",
"       .            ",
"       X.           ",
"       ..o          ",
"       o. .         ",
"        ...         ",
"       .O.O         ",
"         .  X       ",
"          . o       ",
"        X ..o       ",
"        oo.o.X      ",
"         X.  o      ",
"         o    X     ",
"          X   X     ",
"          X   o     ",
"           o        ",
"                    ",
"                    ",
"                    ",
"                    ",
"                    ",
"         .          ",
"        .X.         ",
"        o.o         ",
"         .          ",
"       .....        ",
"        OO.O        ",
"          . X       ",
"        X . X       ",
"        o . o       ",
"        o.o.o       ",
"        X.  .o      ",
"         o   X      ",
"         X   X      ",
"         X   o      ",
"         o          ",
"                    ",
"                    ",
"                    ",
};
