/* XPM */
static char * C0_xpm[] = {
"20 320 8 1",
" 	c None",
".	c #9A9A9A9AAFAF",
"X	c #A9A9A9A9C0C0",
"o	c #C6C6C6C6E0E0",
"O	c #8D8D8D8DA0A0",
"+	c #FFFFFFFF0000",
"@	c #B0B000000000",
"#	c #FFFF00000000",
"                    ",
"                    ",
"                    ",
"          .         ",
"          X         ",
"         XoX        ",
"         .o.        ",
"      O   X   O     ",
"      .   X   .     ",
"      ..  X  ..     ",
"      .Xo X oX.     ",
"      OX+.X.+XO     ",
"       X+@#@+X      ",
"       .+   +.      ",
"        +   +       ",
"                    ",
"                    ",
"                    ",
"                    ",
"                    ",
"                    ",
"                    ",
"                    ",
"                    ",
"             X      ",
"           O.X      ",
"           XoO      ",
"       .   XXO      ",
"       .   X        ",
"      O..  X   .    ",
"      OXoOOX   .    ",
"      OX+.XOo..     ",
"       X+#X.+X.     ",
"       +  #++XO     ",
"       +   +X       ",
"           +.       ",
"                    ",
"                    ",
"                    ",
"                    ",
"                    ",
"                    ",
"                    ",
"                    ",
"                    ",
"        O    O      ",
"       O   OOXO     ",
"      O.   OoO      ",
"     O.X   oOO      ",
"     .X+  o         ",
"     X+O.o          ",
"     +@O..    O     ",
"       #OO+o..      ",
"        @+X..       ",
"        +X.O        ",
"                    ",
"                    ",
"                    ",
"                    ",
"                    ",
"                    ",
"                    ",
"                    ",
"                    ",
"                    ",
"         OO.        ",
"       O..          ",
"      OXXX   OOX.   ",
"      .++o   XoX    ",
"     ++ .OXXXXXO    ",
"        #XX         ",
"        @.O         ",
"        ++OO        ",
"      +++XXOOO      ",
"         OOO        ",
"                    ",
"                    ",
"                    ",
"                    ",
"                    ",
"                    ",
"                    ",
"                    ",
"                    ",
"                    ",
"                    ",
"        O...O       ",
"      .XXX.         ",
"     ++++o          ",
"       @.    .X     ",
"       #XXXXXooX.   ",
"       @.    .X     ",
"     ++++o          ",
"      .XXX.         ",
"        O...O       ",
"                    ",
"                    ",
"                    ",
"                    ",
"                    ",
"                    ",
"                    ",
"                    ",
"                    ",
"                    ",
"                    ",
"        OOO         ",
"     ++XXX...       ",
"       ++o.         ",
"       #.O          ",
"      #XXO          ",
"    +++.OXXXXXO     ",
"    .X++o   Xo.     ",
"      XX.   OOXX    ",
"      O..           ",
"         ..         ",
"                    ",
"                    ",
"                    ",
"                    ",
"                    ",
"                    ",
"                    ",
"                    ",
"                    ",
"        +X.O        ",
"        @+X.O       ",
"       #OO+X.O      ",
"     +@O..    O     ",
"     X+O.o          ",
"     .X+  o         ",
"     O.o   oOO      ",
"      ..   OoO      ",
"       .   OOXO     ",
"        O    O      ",
"                    ",
"                    ",
"                    ",
"                    ",
"                    ",
"                    ",
"                    ",
"                    ",
"                    ",
"                    ",
"          +         ",
"      +   +.O       ",
"      +    +XO      ",
"      ++@#.+X.      ",
"     OX+.XOoX.O     ",
"     OXOOXX   O     ",
"     OOO  X   .     ",
"      O   X         ",
"      O   XXO       ",
"          XoO       ",
"          OXX       ",
"            .       ",
"                    ",
"                    ",
"                    ",
"                    ",
"                    ",
"                    ",
"                    ",
"                    ",
"       +   +        ",
"      .+   +.       ",
"      X+@#@+X       ",
"     OX+.X.+XO      ",
"     .Xo X oX.      ",
"     ..  X  ..      ",
"     .   X   .      ",
"     O   X   O      ",
"        .o.         ",
"        XoX         ",
"         X          ",
"         .          ",
"                    ",
"                    ",
"                    ",
"                    ",
"                    ",
"                    ",
"                    ",
"       .+           ",
"       X+   +       ",
"     OX++#  +       ",
"     .X+.X#+X       ",
"     ..oOX.+XO      ",
"    .   XOOoXO      ",
"    .   X  ..O      ",
"        X   .       ",
"      OXX   .       ",
"      OoX           ",
"      X.O           ",
"      X             ",
"                    ",
"                    ",
"                    ",
"                    ",
"                    ",
"                    ",
"                    ",
"                    ",
"                    ",
"        O.X+        ",
"       ..X+@        ",
"      ..o+OO#       ",
"     O    ..O@+     ",
"          o.O+X     ",
"         o  +X.     ",
"      OOo   X.O     ",
"      OoO   .O      ",
"     OXOO   O       ",
"      O    O        ",
"                    ",
"                    ",
"                    ",
"                    ",
"                    ",
"                    ",
"                    ",
"                    ",
"                    ",
"                    ",
"        OOO         ",
"      OOOXX+++      ",
"        OO++        ",
"         O.@        ",
"         XX#        ",
"    OXXXXXO. ++     ",
"    XoX   o++.      ",
"   .XOO   XXXO      ",
"          ..O       ",
"        .OO         ",
"                    ",
"                    ",
"                    ",
"                    ",
"                    ",
"                    ",
"                    ",
"                    ",
"                    ",
"                    ",
"       O...O        ",
"         .XXX.      ",
"          o++++     ",
"     X.    .@       ",
"   .XooXXXXX#       ",
"     X.    .@       ",
"          o++++     ",
"         .XXX.      ",
"       O...O        ",
"                    ",
"                    ",
"                    ",
"                    ",
"                    ",
"                    ",
"                    ",
"                    ",
"                    ",
"                    ",
"         ..         ",
"           ..O      ",
"    XXOO   .XX      ",
"     .oX   o++X.    ",
"     OXXXXXO.+++    ",
"          OXX#      ",
"          O.#       ",
"         .o++       ",
"       ...XXX++     ",
"         OOO        ",
"                    ",
"                    ",
"                    ",
"                    ",
"                    ",
"                    ",
"                    ",
"                    ",
"                    ",
"                    ",
"                    ",
"      O    O        ",
"     OXOO   .       ",
"      OoO   ..      ",
"      OOo   o.O     ",
"         o  +X.     ",
"          o.O+X     ",
"     O    ..O@+     ",
"      O.X+OO#       ",
"       O.X+@        ",
"        O.X+        ",
"                    ",
"                    ",
"                    ",
"                    ",
"                    ",
"                    ",
"                    ",
"                    ",
"       .            ",
"       XXO          ",
"       OoX          ",
"       OXX   O      ",
"         X   O      ",
"     .   X  OOO     ",
"     O   XXOOXO     ",
"     O.XoOX.+XO     ",
"      .X+.#@++      ",
"      OX+    +      ",
"       O.+   +      ",
"         +          ",
"                    ",
"                    ",
"                    ",
"                    ",
"                    "};
