/* XPM */
static char * AGRI_xpm[] = {
"16 16 15 1 XPMEXT",
". c none    g none",
"  c #000000 g #a0a0a0",
"# c #007d58 g #a0a0a0",
"a c #006b4b g #a0a0a0",
"b c #005239 g #a0a0a0",
"c c #003d2b g #a0a0a0",
"d c #008f64 g #a0a0a0",
"e c #00a171 g #a0a0a0",
"r c #ff0000 g #000000",
"y c #ffff00 g #a0a0a0",
"g c #d0d0d0 g #000000",
"G c #a0a0a0 g #404040",
"x c #ffffff g #000000",
"X c #8080ff g #ffffff",
"p c #ffc0c0 g #ffffff",
".....ccba#......",
"...cccccba#d....",
"..cccccccba#d...",
".ccccccccba#de..",
".ccccccccba#de..",
"ccccccccccba#de.",
"ccccccccccba#de.",
"ccccccccccba#de.",
"ccccccccccba#de.",
"ccccccccccba#de.",
".cccccccccba#de.",
".ccccccccba#de..",
"..cccccccba#d...",
"...cccccba#d....",
".....ccba#......",
"................"
"XPMEXT num_views",
"1",
"XPMENDEXT"
};
