/* XPM */
static char * fedmplanet_xpm[] = {
"16 16 6 1",
" 	c None",
".	c #C1C1C1C1C1C1",
"X	c #00007F7FEFEF",
"o	c #B0B0B0B0B0B0",
"O	c #E0E0E0E0E0E0",
"+	c #D0D0D0D0D0D0",
"                ",
"                ",
"       .        ",
"      .X.       ",
"      .X.       ",
"     .XXX.      ",
"     .oXX.      ",
"     .XO..      ",
"    .oO Oo.     ",
"    ..  Oo.     ",
"    .    O.     ",
"    .    O+     ",
"                ",
"                ",
"                ",
"                "};
