/* XPM */
static char * klimplanet_xpm[] = {
"16 16 10 1",
" 	c None",
".	c #FFFF00000000",
"X	c #A1A1A1A1A1A1",
"o	c #B0B0B0B0B0B0",
"O	c #00007F7FEFEF",
"+	c #D0D0D0D0D0D0",
"@	c #C1C1C1C1C1C1",
"#	c #0000FFFF0000",
"$	c #E0E0E0E0E0E0",
"%	c #909090909090",
"                ",
"                ",
"       .        ",
"       .        ",
"       .        ",
"      ...       ",
"      .X.       ",
"      .oX       ",
"     Oo+@@#     ",
"     Oo$XX##    ",
"    OOO% ####   ",
"    OO          ",
"    O           ",
"                ",
"                ",
"                "};
