/* XPM */
static char * orimplanet_xpm[] = {
"16 16 6 1",
" 	c None",
".	c #0000FFFFFFFF",
"X	c #9A9A9A9AAFAF",
"o	c #C6C6C6C6E0E0",
"O	c #A9A9A9A9C0C0",
"+	c #8D8D8D8DA0A0",
"                ",
"                ",
"                ",
"   .  XoX  .    ",
"    o     o     ",
"     O   O      ",
"   X  X X  X    ",
"   O       O    ",
"   o   +   o    ",
"   o   X   o    ",
"    O  O  O     ",
"     X o X      ",
"       .        ",
"                ",
"                ",
"                "};
