/* XPM */
static char * repair_xpm[] = {
"16 16 15 1 XPMEXT",
". c none    g none",
"  c #000000 g #666666",
"# c #7d6000 g #666666",
"a c #6b5200 g #666666",
"b c #523f00 g #666666",
"c c #3d2f00 g #666666",
"d c #8f6e00 g #666666",
"e c #a17b00 g #666666",
"r c #ff0000 g #000000",
"y c #ffff00 g #666666",
"g c #d0d0d0 g #000000",
"G c #a0a0a0 g #404040",
"x c #ffffff g #000000",
"X c #8080ff g #ffffff",
"p c #ffc0c0 g #ffffff",
"................",
".....g...g......",
"....gg...gg.....",
".....ggggg......",
"......GGG.......",
"......GGG.......",
"......GGG.......",
"......GGG.......",
"......GGG.......",
"......GGG.......",
"......GGG.......",
".....ggggg......",
"....gg...gg.....",
".....g...g......",
"................",
"................"
"XPMEXT num_views",
"1",
"XPMENDEXT"
};
