/* XPM */
static char * rommplanet_xpm[] = {
"16 16 7 1",
" 	c None",
".	c #FFFF00000000",
"X	c #A1A1A1A1A1A1",
"o	c #FFFFC8C80000",
"O	c #D0D0D0D0D0D0",
"+	c #0000FFFF0000",
"@	c #00007F7FEFEF",
"       .        ",
"       X        ",
"      oXo       ",
"       O        ",
"     +@O@@      ",
"    ++@O@+@     ",
"   @@+@@@@@@    ",
"   @@++@@@@+    ",
"   @++++@++@    ",
"   @++@@++@@    ",
"   +@@@@++++    ",
"    @@+@@++     ",
"     @@@@@      ",
"       @        ",
"       O        ",
"       O        "};
