/* XPM */
static char * UNKN_xpm[] = {
"16 16 15 1 XPMEXT",
" 	c None",
".	c #7F7F7F7F7F7F",
"X	c #6C6C6C6C6C6C",
"o	c #545454545454",
"O	c #3F3F3F3F3F3F",
"+	c #909090909090",
"@	c #A1A1A1A1A1A1",
"R	c #FFFFFFFFFFFF",
"S	c #FFFFFFFFFFFF",
"T	c #FFFFFFFFFFFF",
"U	c #FFFFFFFFFFFF",
"V	c #FFFFFFFFFFFF",
"W	c #FFFFFFFFFFFF",
"X	c #FFFFFFFFFFFF",
"_	c #000000000000",
"     .XoOO      ",
"   +.X____OO    ",
"  +.X_RRRR_OO   ",
" @+._RRRRRR_OO  ",
" @+_RR____RR_O  ",
"@+._RR_OO_RR_OO ",
"@+.____OO_RR_OO ",
"@+.XoOO__RR_OOO ",
"@+.XoO_RRR_OOOO ",
"@+.XoO_RR_OOOOO ",
" @+.Xo_RR_OOOO  ",
" @+.Xo____OOOO  ",
"  +.Xo_RR_OOO   ",
"   +.X_RR_OO    ",
"     .____      ",
"                "
"XPMEXT num_views",
"1",
"XPMENDEXT"
};
