/* XPM */
static char *ca0[] = {
/* width height ncolors chars_per_pixel */
"20 20 3 1",
/* colors */
"a c #000000",
"b c #435243",
"c c #7b947b",
/* pixels */
"aaaaaaaaaaaaaaaaaaaa",
"aaaaaaaaaaaaaaaaaaaa",
"aaaaaaaaaaaaaaaaaaaa",
"aaaaaaaaaaaaaaaaaaaa",
"aaaaccbbccbbccaaaaaa",
"aaaacbcbcbcbbbaaaaaa",
"aaaaccbcbcbcbcbaaaaa",
"aaaabbccbcbccbbbaaaa",
"aaaacbbccbcbbcaaaaaa",
"aaaacbcbbbbcbcabaaaa",
"aaaabccbcccbcbbaaaaa",
"aaaacbbcbbcbbcaaaaaa",
"aaaabbcbcbbccbbbaaaa",
"aaaaccbcbccbbcbaaaaa",
"aaaaababbaabbaabaaaa",
"aaaaaabbabababbaaaaa",
"aaaaaaaaaaaaaaaaaaaa",
"aaaaaaaaaaaaaaaaaaaa",
"aaaaaaaaaaaaaaaaaaaa",
"aaaaaaaaaaaaaaaaaaaa"
};
