/* XPM */
static char *dd0[] = {
/* width height ncolors chars_per_pixel */
"20 20 3 1",
/* colors */
"a c None",
"b c #435243",
"c c #7b947b",
/* pixels */
"aaaaaaaaaaaaaaaaaaaa",
"aaaaaaaaaaaaaaaaaaaa",
"aaaaaaaaaaaaaaaaaaaa",
"aaaaaaaaaaaaaaaaaaaa",
"aaaaabcbcbcbbbaaaaaa",
"aaaaacbcbcbcbcbaaaaa",
"aaaaabccbcbccbbbaaaa",
"aaaaabbccbcbbcaaaaaa",
"aaaaabcbbbbcbcabaaaa",
"aaaaaccbcccbcbbaaaaa",
"aaaaabbcbbcbbcaaaaaa",
"aaaaabcbcbbccbbbaaaa",
"aaaaacbcbccbbcbaaaaa",
"aaaaaaabbaabbaabaaaa",
"aaaaaaababababbaaaaa",
"aaaaaaaaaaaaaaaaaaaa",
"aaaaaaaaaaaaaaaaaaaa",
"aaaaaaaaaaaaaaaaaaaa",
"aaaaaaaaaaaaaaaaaaaa",
"aaaaaaaaaaaaaaaaaaaa"
};
