/* XPM */
static char *sc0[] = {
/* width height ncolors chars_per_pixel */
"20 120 3 1",
/* colors */
"a c None",
"b c #435243",
"c c #7b947b",
/* pixels */
"aaaaaaaaaaaaaaaaaaaa",
"aaaaaaaaaaaaaaaaaaaa",
"aaaaaaaaaaaaaaaaaaaa",
"aaaaaaaccccccaaaaaaa",
"aaaaabcbbbbbbcbaaaaa",
"aaaabccbbcbbcbcbaaaa",
"aaaacbbbbbbbbbbcaaaa",
"aaacbbcbbcbbcbbccaaa",
"aaacbbbbbbbbbbbbcaaa",
"aaacbcbcbcbcbcbccaaa",
"aaaccbcbcbcbcbcbcaaa",
"aaacbbbbbbbbbbbbcaaa",
"aaacbbcbbcbbcbbccaaa",
"aaaacbbbbbbbbbbcaaaa",
"aaaabccbbcbbcbcbaaaa",
"aaaaabcbbbbbbcbaaaaa",
"aaaaaaaccccccaaaaaaa",
"aaaaaaaaaaaaaaaaaaaa",
"aaaaaaaaaaaaaaaaaaaa",
"aaaaaaaaaaaaaaaaaaaa",
"aaaaaaaaaaaaaaaaaaaa",
"aaaaaaaaaaaaaaaaaaaa",
"aaaaaaaaaaaaaaaaaaaa",
"aaaaaaaccccccaaaaaaa",
"aaaaabcbbbbbbcbaaaaa",
"aaaabcbcbbcbbccbaaaa",
"aaaacbbbbbbbbbbcaaaa",
"aaaccbbcbbcbbcbbcaaa",
"aaacbbbbbbbbbbbbcaaa",
"aaaccbcbcbcbcbcbcaaa",
"aaacbcbcbcbcbcbccaaa",
"aaacbbbbbbbbbbbbcaaa",
"aaaccbbcbbcbbcbbcaaa",
"aaaacbbbbbbbbbbcaaaa",
"aaaabcbcbbcbbccbaaaa",
"aaaaabcbbbbbbcbaaaaa",
"aaaaaaaccccccaaaaaaa",
"aaaaaaaaaaaaaaaaaaaa",
"aaaaaaaaaaaaaaaaaaaa",
"aaaaaaaaaaaaaaaaaaaa",
"aaaaaaaaaaaaaaaaaaaa",
"aaaaaaaaaaaaaaaaaaaa",
"aaaaaaaaaaaaaaaaaaaa",
"aaaaaaaccccccaaaaaaa",
"aaaaabcbbbbbbcbaaaaa",
"aaaabcbbcbbcbbcbaaaa",
"aaaacbbbbbbbbbbcaaaa",
"aaacbcbbcbbcbbcbcaaa",
"aaacbbbbbbbbbbbbcaaa",
"aaacbcbcbcbcbcbccaaa",
"aaaccbcbcbcbcbcbcaaa",
"aaacbbbbbbbbbbbbcaaa",
"aaacbcbbcbbcbbcbcaaa",
"aaaacbbbbbbbbbbcaaaa",
"aaaabcbbcbbcbbcbaaaa",
"aaaaabcbbbbbbcbaaaaa",
"aaaaaaaccccccaaaaaaa",
"aaaaaaaaaaaaaaaaaaaa",
"aaaaaaaaaaaaaaaaaaaa",
"aaaaaaaaaaaaaaaaaaaa",
"aaaaaaaaaaaaaaaaaaaa",
"aaaaaaaaaaaaaaaaaaaa",
"aaaaaaaaaaaaaaaaaaaa",
"aaaaaaaccccccaaaaaaa",
"aaaaabcbbbbbbcbaaaaa",
"aaaabccbbcbbcbcbaaaa",
"aaaacbbbbbbbbbbcaaaa",
"aaacbbcbbcbbcbbccaaa",
"aaacbbbbbbbbbbbbcaaa",
"aaaccbcbcbcbcbcbcaaa",
"aaacbcbcbcbcbcbccaaa",
"aaacbbbbbbbbbbbbcaaa",
"aaacbbcbbcbbcbbccaaa",
"aaaacbbbbbbbbbbcaaaa",
"aaaabccbbcbbcbcbaaaa",
"aaaaabcbbbbbbcbaaaaa",
"aaaaaaaccccccaaaaaaa",
"aaaaaaaaaaaaaaaaaaaa",
"aaaaaaaaaaaaaaaaaaaa",
"aaaaaaaaaaaaaaaaaaaa",
"aaaaaaaaaaaaaaaaaaaa",
"aaaaaaaaaaaaaaaaaaaa",
"aaaaaaaaaaaaaaaaaaaa",
"aaaaaaaccccccaaaaaaa",
"aaaaabcbbbbbbcbaaaaa",
"aaaabcbcbbcbbccbaaaa",
"aaaacbbbbbbbbbbcaaaa",
"aaaccbbcbbcbbcbbcaaa",
"aaacbbbbbbbbbbbbcaaa",
"aaacbcbcbcbcbcbccaaa",
"aaaccbcbcbcbcbcbcaaa",
"aaacbbbbbbbbbbbbcaaa",
"aaaccbbcbbcbbcbbcaaa",
"aaaacbbbbbbbbbbcaaaa",
"aaaabcbcbbcbbccbaaaa",
"aaaaabcbbbbbbcbaaaaa",
"aaaaaaaccccccaaaaaaa",
"aaaaaaaaaaaaaaaaaaaa",
"aaaaaaaaaaaaaaaaaaaa",
"aaaaaaaaaaaaaaaaaaaa",
"aaaaaaaaaaaaaaaaaaaa",
"aaaaaaaaaaaaaaaaaaaa",
"aaaaaaaaaaaaaaaaaaaa",
"aaaaaaaccccccaaaaaaa",
"aaaaabcbbbbbbcbaaaaa",
"aaaabcbbcbbcbbcbaaaa",
"aaaacbbbbbbbbbbcaaaa",
"aaacbcbbcbbcbbcbcaaa",
"aaacbbbbbbbbbbbbcaaa",
"aaaccbcbcbcbcbcbcaaa",
"aaacbcbcbcbcbcbccaaa",
"aaacbbbbbbbbbbbbcaaa",
"aaacbcbbcbbcbbcbcaaa",
"aaaacbbbbbbbbbbcaaaa",
"aaaabcbbcbbcbbcbaaaa",
"aaaaabcbbbbbbcbaaaaa",
"aaaaaaaccccccaaaaaaa",
"aaaaaaaaaaaaaaaaaaaa",
"aaaaaaaaaaaaaaaaaaaa",
"aaaaaaaaaaaaaaaaaaaa"
};
