/* XPM */
static char * SC_xpm[] = {
"20 320 8 1 XPMEXT",
" 	c #000000000000",
".	c #E1E190900000",
"X	c #FFFFC8C80000",
"o	c #B0B070700000",
"O	c #7F7F50503F3F",
"+	c #0000FFFF0000",
"@	c #FFFF00000000",
"#	c #FFFFFFFF0000",
"                    ",
"                    ",
"                    ",
"         ..         ",
"         XX         ",
"        oXXo        ",
"        .XX.        ",
"        .XX.        ",
"       o.XX.o       ",
"       o.XX.o       ",
"       ..XX..       ",
"      O..XX..O      ",
"      o..XX..o      ",
"     oo..XX..oo     ",
"     o+..XX..+o     ",
"      o+....+o      ",
"        .@@.        ",
"                    ",
"                    ",
"                    ",
"                    ",
"                    ",
"                    ",
"            oO      ",
"           .X.      ",
"          o.Xo      ",
"         O.XXO      ",
"        o.XX.o      ",
"       O..XX.O      ",
"      O...XX.o      ",
"     Oo..XX..O      ",
"    oo...XX..o      ",
"     +..XX...O      ",
"     o+.XX..oo      ",
"      ...X..oO      ",
"       @@.++oO      ",
"         o          ",
"                    ",
"                    ",
"                    ",
"                    ",
"                    ",
"                    ",
"                    ",
"              o     ",
"           OoX.o    ",
"         Oo.XXX     ",
"       Oo..XXXo     ",
"    Oooo..XXX.O     ",
"    oo...XXX.o      ",
"    +...XXX..O      ",
"    +..XXX..o       ",
"     .XXX..oO       ",
"     @.X...o        ",
"      @...oo        ",
"        ++oO        ",
"                    ",
"                    ",
"                    ",
"                    ",
"                    ",
"                    ",
"                    ",
"                    ",
"                    ",
"                    ",
"    OOoOoOoOoOo.O   ",
"    ooo......XXXo   ",
"    +.....XXXX..    ",
"    +...XXXXX.o     ",
"   o.XXXXX...O      ",
"    @.XX....o       ",
"    @......O        ",
"     .+..oO         ",
"      o+oO          ",
"        o           ",
"                    ",
"                    ",
"                    ",
"                    ",
"                    ",
"                    ",
"                    ",
"                    ",
"                    ",
"     oo             ",
"    o+ooO           ",
"    +.....oo        ",
"   ...........o     ",
"   @.XXXXXXXXXXX.   ",
"   @.XXXXXXXXXXX.   ",
"   ...........o     ",
"    +.....oo        ",
"    o+ooO           ",
"     oo             ",
"                    ",
"                    ",
"                    ",
"                    ",
"                    ",
"                    ",
"                    ",
"                    ",
"        o           ",
"      o+oO          ",
"     .+..oO         ",
"    @......O        ",
"    @.XX....o       ",
"   o.XXXXX...O      ",
"    +...XXXXX.o     ",
"    +.....XXXX..    ",
"    ooo......XXXo   ",
"    OOoOoOoOoOo.O   ",
"                    ",
"                    ",
"                    ",
"                    ",
"                    ",
"                    ",
"                    ",
"                    ",
"                    ",
"                    ",
"                    ",
"        ++oO        ",
"      @...oo        ",
"     @.X...o        ",
"     .XXX..oO       ",
"    +..XXX..o       ",
"    +...XXX..O      ",
"    oo...XXX.o      ",
"    Oooo..XXX.O     ",
"       Oo..XXXo     ",
"         Oo.XXX     ",
"           OoX.o    ",
"              o     ",
"                    ",
"                    ",
"                    ",
"                    ",
"                    ",
"                    ",
"                    ",
"         o          ",
"       @@.++oO      ",
"      ...X..oO      ",
"     o+.XX..oo      ",
"     +..XX...O      ",
"    oo...XX..o      ",
"     Oo..XX..O      ",
"      O...XX.o      ",
"       O..XX.O      ",
"        o.XX.o      ",
"         O.XXO      ",
"          o.Xo      ",
"           .X.      ",
"            oO      ",
"                    ",
"                    ",
"                    ",
"                    ",
"                    ",
"                    ",
"        .@@.        ",
"      o+....+o      ",
"     o+..XX..+o     ",
"     oo..XX..oo     ",
"      o..XX..o      ",
"      O..XX..O      ",
"       ..XX..       ",
"       o.XX.o       ",
"       o.XX.o       ",
"        .XX.        ",
"        .XX.        ",
"        oXXo        ",
"         XX         ",
"         ..         ",
"                    ",
"                    ",
"                    ",
"                    ",
"                    ",
"                    ",
"          o         ",
"      Oo++.@@       ",
"      Oo..X...      ",
"      oo..XX.+o     ",
"      O...XX..+     ",
"      o..XX...oo    ",
"      O..XX..oO     ",
"      o.XX...O      ",
"      O.XX..O       ",
"      o.XX.o        ",
"      OXX.O         ",
"      oX.o          ",
"      .X.           ",
"      Oo            ",
"                    ",
"                    ",
"                    ",
"                    ",
"                    ",
"                    ",
"                    ",
"        Oo++        ",
"        oo...@      ",
"        o...X.@     ",
"       Oo..XXX.     ",
"       o..XXX..+    ",
"      O..XXX...+    ",
"      o.XXX...oo    ",
"     O.XXX..oooO    ",
"     oXXX..oO       ",
"     XXX.oO         ",
"    o.XoO           ",
"     o              ",
"                    ",
"                    ",
"                    ",
"                    ",
"                    ",
"                    ",
"                    ",
"                    ",
"           o        ",
"          Oo+o      ",
"         Oo..+.     ",
"        O......@    ",
"       o....XX.@    ",
"      O...XXXXX.o   ",
"     o.XXXXX...+    ",
"    ..XXXX.....+    ",
"   oXXX......ooo    ",
"   O.oOoOoOoOoOO    ",
"                    ",
"                    ",
"                    ",
"                    ",
"                    ",
"                    ",
"                    ",
"                    ",
"                    ",
"                    ",
"                    ",
"             oo     ",
"           Ooo+o    ",
"        oo.....+    ",
"     o...........   ",
"   .XXXXXXXXXXX.@   ",
"   .XXXXXXXXXXX.@   ",
"     o...........   ",
"        oo.....+    ",
"           Ooo+o    ",
"             oo     ",
"                    ",
"                    ",
"                    ",
"                    ",
"                    ",
"                    ",
"                    ",
"                    ",
"                    ",
"                    ",
"                    ",
"   O.oOoOoOoOoOO    ",
"   oXXX......ooo    ",
"    ..XXXX.....+    ",
"     o.XXXXX...+    ",
"      O...XXXXX.o   ",
"       o....XX.@    ",
"        O......@    ",
"         Oo..+.     ",
"          Oo+o      ",
"           o        ",
"                    ",
"                    ",
"                    ",
"                    ",
"                    ",
"                    ",
"                    ",
"                    ",
"     o              ",
"    o.XoO           ",
"     XXX.oO         ",
"     oXXX..oO       ",
"     O.XXX..oooO    ",
"      o.XXX...oo    ",
"      O..XXX...+    ",
"       o..XXX..+    ",
"       Oo..XXX.     ",
"        o...X.@     ",
"        oo...@      ",
"        Oo++        ",
"                    ",
"                    ",
"                    ",
"                    ",
"                    ",
"                    ",
"                    ",
"       Oo           ",
"       .X.          ",
"       oX.o         ",
"       OXX.O        ",
"       o.XX.o       ",
"       O.XX..O      ",
"       o.XX...O     ",
"       O..XX..oO    ",
"       o..XX...oo   ",
"       O...XX..+    ",
"       oo..XX.+o    ",
"       Oo..X...     ",
"       Oo++.@@      ",
"           o        ",
"                    ",
"                    ",
"                    "
"XPMEXT num_views",
"16",
"XPMENDEXT"};
