/* XPM */
static char * torp_white[] = {
"5 40 7 1 XPMEXT",
" 	c None",
".	c #6A6A6A",
"X	c #858585",
"o	c #AFAFAF",
"O	c #959595",
"+	c #FFFFFF",
"@	c #CFCFCF",
"  .  ",
" XoX.",
"Oo+oO",
".XoX ",
"  .  ",
"   . ",
"oXXO ",
".@+o.",
" @XXo",
" .   ",
"o   .",
".oXO ",
" X+@@",
"OOXO.",
".   O",
"@O   ",
" @XX.",
" o+O ",
".XXo ",
"   o.",
" .O  ",
" XoX ",
".o+o.",
" XoX ",
"  O. ",
"@ .o ",
".@OX ",
" X+X ",
" XOo.",
" O.  ",
".  .O",
" OX@ ",
" X+X ",
" oXo ",
"o.  .",
" . ..",
" @XXo",
" O+o ",
"oXXo ",
".  .@"
"XPMEXT num_views",
"8",
"XPMENDEXT"};
