/* XPM */
static char *as0_xpm[] = {
/* width height colors chars_per_color */
"20  640 6 1"
/* colors */
"  c none",
"b c #00ffff",
"* c #b0b0b0",
"@ c #d6d6d6",
"# c #e7e7e7",
"o c #ff0000",
/* pixels */
"                    ",
"        @@@@        ",
"      @@@**@@@      ",
"     @@**##**@@     ",
"     @**####**@     ",
"    @@**####**@@    ",
"    @**********@    ",
"    @**********@    ",
"    @@@******@@@    ",
"      @@****@@      ",
"    o  @****@  o    ",
"    @@ @****@ @@    ",
"    b@ @****@ @b    ",
"    b@*@****@*@b    ",
"    b@*@****@*@b    ",
"    b@*@****@*@b    ",
"    @@ @****@ @@    ",
"     @ @@@@@@ @     ",
"                    ",
"                    "
"                    ",
"          @@@       ",
"      @@@@***@      ",
"      @***##*@@     ",
"     @@**####*@@    ",
"     @***####**@    ",
"     @*********@@   ",
"    @@@*********@   ",
"      @@*******@    ",
"    o  @****@@@@    ",
"    @@ @****@@      ",
"    b@ @****@  o    ",
"   b@*@*****@ @@    ",
"   b@*@****@ @b     ",
"   b@*@****@*@b     ",
"   @@ @****@*@b     ",
"    @ @****@*@b     ",
"       @@@@@ @@     ",
"            @       ",
"                    ",
"                    ",
"         @ @@       ",
"        @@@@*@@     ",
"      @@****#*@     ",
"      @@**###**@@   ",
"     @****####*@@   ",
"     @@*****##**@   ",
"       @*******@@   ",
"    o @@********@   ",
"    @@ @*****@**@   ",
"   b@  @****@@@@    ",
"   b@*@*****@       ",
"  bb@*@****@  o     ",
"  @@*@*****@ @@     ",
"   @ @****@*@@b     ",
"  @ @@****@*@b      ",
"     @@**@@*@b      ",
"       @@@ @b       ",
"           @@       ",
"                    ",
"                    ",
"           @        ",
"         @@@@@@     ",
"       @@@*****@    ",
"      @@***###*@    ",
"      @****###**@@  ",
"       @****###*@   ",
"    oo @*****#**@@  ",
"    @@ @@*******@   ",
"   b@@ @********@@  ",
"  bb@ @*****@@**@   ",
"  b@*@@****@@@@@    ",
" @@@*@*****@        ",
"  @ @*****@ @ o     ",
"   @@****@@ @@      ",
"    @@***@*@bb      ",
"     @@*@*@@b       ",
"       @@ @b        ",
"         @@@        ",
"                    ",
"                    ",
"                    ",
"         @@@@@      ",
"        @@@**@@@    ",
"       @********@   ",
"       @****###*@   ",
"     o  @***###*@@  ",
"    b@  @****##**@  ",
"   b@@ @@********@  ",
"  b@@ @@********@@  ",
" @@@*@@*********@@  ",
" @@*@@*****@@@**@   ",
" @ @@*****@@@ @@    ",
"  @@*****@@         ",
"   @@***@@ @@o      ",
"    @@*@@*@@b       ",
"     @@@*@@b        ",
"      @ @@b         ",
"       @@@          ",
"                    ",
"                    ",
"                    ",
"          @ @ @     ",
"         @@@@@@     ",
"        @******@@   ",
"      o @****#***@  ",
"    b@  @@**####*@  ",
"   bb@@ @@***###*@  ",
" @b@@  @@*****##*@@ ",
" @@@*@@**********@  ",
" @ *@@**********@@  ",
"  @@*******@****@   ",
"  @*******@@@@*@@   ",
"   @****@@    @@    ",
"   @@**@@ @@o       ",
"    @@@**@@@o       ",
"     @ @@bb         ",
"      @@bb          ",
"       @            ",
"                    ",
"                    ",
"                    ",
"                    ",
"          @@@@@@    ",
"         @**@*@@    ",
"     b@o @******@@  ",
"   bb@@  @@**##**@  ",
" @b@@@  @@***####*@ ",
" @@***@@******##*@@ ",
"   @@@********##*@  ",
"  @@*************@@ ",
"  @**************@  ",
"  @******@@@@**@@   ",
"   @***@@  @ @*@@   ",
"   @@@@** @  @@     ",
"    @ *@@@@o        ",
"     @@bbb          ",
"    @ @b            ",
"                    ",
"                    ",
"                    ",
"                    ",
"                    ",
"            @@      ",
"       @o @@*@@@    ",
"  @bbbb@  @****@@   ",
"  @@@@@  @@*****@@  ",
" @ *** @@@@***##**@ ",
"  @@@@@*******###*@ ",
"  @***********###*@ ",
"  @***********##*@  ",
"  @**************@  ",
"  @*****@@@@*****@  ",
"   @@@@@   @@**@@@  ",
"     ***@@  @@@@    ",
"   @@@@@b@o @       ",
"    @bbb            ",
"                    ",
"                    ",
"                    ",
"                    ",
"                    ",
"                    ",
"                    ",
"   @bbbb@o @@@@     ",
"  @@@@@@@  @**@@@   ",
"    ***   @@****@@  ",
"  @@@@@@@@@******@  ",
"  @***********##*@@ ",
"  @***********###*@ ",
"  @***********###*@ ",
"  @***********##*@@ ",
"  @@@@@@@@@******@  ",
"    ***   @@****@@  ",
"  @@@@@@@  @**@@@   ",
"   @bbbb@o @@@@     ",
"                    ",
"                    ",
"                    ",
"                    ",
"                    ",
"                    ",
"                    ",
"    @bbb            ",
"   @@@@@b@o @       ",
"     ***@@  @@@@    ",
"   @@@@@   @@**@@@  ",
"  @*****@@@@*****@  ",
"  @**************@  ",
"  @***********##*@  ",
"  @***********###*@ ",
"  @@@@@*******###*@ ",
" @ *** @@@@***##**@ ",
"  @@@@@  @@*****@@  ",
"  @bbbb@  @****@@   ",
"       @o @@*@@@    ",
"            @@      ",
"                    ",
"                    ",
"                    ",
"                    ",
"                    ",
"    @ @b            ",
"     @@bbb          ",
"    @ *@@@@o        ",
"   @@@@** @  @@     ",
"   @***@@  @ @*@@   ",
"  @******@@@@**@@   ",
"  @**************@  ",
"  @@*************@@ ",
"   @@@********##*@  ",
" @@***@@******##*@@ ",
" @b@@@  @@***####*@ ",
"   bb@@  @@**##**@  ",
"     b@o @******@@  ",
"         @**@*@@    ",
"          @@@@@@    ",
"                    ",
"                    ",
"                    ",
"                    ",
"       @            ",
"      @@bb          ",
"     @ @@bb         ",
"    @@@**@@@o       ",
"   @@**@@ @@o       ",
"   @****@@    @@    ",
"  @*******@@@@*@@   ",
"  @@*******@****@   ",
" @ *@@**********@@  ",
" @@@*@@**********@  ",
" @b@@  @@*****##*@@ ",
"   bb@@ @@***###*@  ",
"    b@  @@**####*@  ",
"      o @****#***@  ",
"        @******@@   ",
"         @@@@@@     ",
"          @ @ @     ",
"                    ",
"                    ",
"                    ",
"       @@@          ",
"      @ @@b         ",
"     @@@*@@b        ",
"    @@*@@*@@b       ",
"   @@***@@ @@o      ",
"  @@*****@@         ",
" @ @@*****@@  @@    ",
" @@*@@*****@@@**@   ",
" @@@*@@*********@@  ",
"  b@@ @@********@@  ",
"   b@@ @@********@  ",
"    b@ @@****##**@  ",
"     o  @***###*@@  ",
"       @****###*@   ",
"       @********@   ",
"        @@@**@@@    ",
"         @@@@@      ",
"                    ",
"                    ",
"                    ",
"         @@@        ",
"       @@ @b        ",
"     @@*@*@@b       ",
"    @@***@*@bb      ",
"   @@****@@ @@      ",
"  @ @*****@ @ o     ",
" @@@*@*****@        ",
"  b@*@@****@@@@@    ",
"  bb@ @*****@@**@   ",
"   b@@ @********@@  ",
"    @@ @@*******@   ",
"    oo @*****#**@@  ",
"       @****###*@   ",
"      @****###**@@  ",
"      @@***###*@    ",
"       @@@*****@    ",
"         @@@@@@     ",
"           @        ",
"                    ",
"                    ",
"           @@       ",
"       @@@ @b       ",
"     @@**@@*@b      ",
"  @ @@****@*@b      ",
"   @ @****@*@@b     ",
"  @@*@*****@ @@     ",
"  bb@*@****@  o     ",
"   b@*@*****@       ",
"   b@  @****@@@@    ",
"    @@ @*****@**@   ",
"    o @@********@   ",
"       @*******@@   ",
"     @@*****##**@   ",
"     @****####*@@   ",
"      @@**###**@@   ",
"      @@****#*@     ",
"        @@@@*@@     ",
"         @ @@       ",
"                    ",
"                    ",
"            @       ",
"       @@@@@ @@     ",
"    @ @****@*@b     ",
"   @@ @****@*@b     ",
"   b@*@****@*@b     ",
"   b@*@****@ @b     ",
"   b@*@*****@ @@    ",
"    b@ @****@  o    ",
"    @@ @****@@      ",
"    o  @****@@@@    ",
"      @@*******@    ",
"    @@@*********@   ",
"     @*********@@   ",
"     @***####**@    ",
"     @@**####*@@    ",
"      @***##*@@     ",
"      @@@@***@      ",
"          @@@       ",
"                    ",
"                    ",
"                    ",
"     @ @@@@@@ @     ",
"    @@ @****@ @@    ",
"    b@*@****@*@b    ",
"    b@*@****@*@b    ",
"    b@*@****@*@b    ",
"    b@ @****@ @b    ",
"    @@ @****@ @@    ",
"    o  @****@  o    ",
"      @@****@@      ",
"    @@@******@@@    ",
"    @**********@    ",
"    @**********@    ",
"    @@**####**@@    ",
"     @**####**@     ",
"     @@**##**@@     ",
"      @@@**@@@      ",
"        @@@@        ",
"                    ",
"                    ",
"       @            ",
"     @@ @@@@@       ",
"     b@*@****@ @    ",
"     b@*@****@ @@   ",
"     b@*@****@*@b   ",
"     b@ @****@*@b   ",
"    @@ @*****@*@b   ",
"    o  @****@ @b    ",
"      @@****@ @@    ",
"    @@@@****@  o    ",
"    @*******@@      ",
"   @*********@@@    ",
"   @@*********@     ",
"    @**####***@     ",
"    @@*####**@@     ",
"     @@*##***@      ",
"      @***@@@@      ",
"       @@@          ",
"                    ",
"                    ",
"       @@           ",
"       b@ @@@       ",
"      b@*@@**@@     ",
"      b@*@****@@ @  ",
"     b@@*@****@ @   ",
"     @@ @*****@*@@  ",
"     o  @****@*@bb  ",
"       @*****@*@b   ",
"    @@@@****@  @b   ",
"   @**@*****@ @@    ",
"   @********@@ o    ",
"   @@*******@       ",
"   @**##*****@@     ",
"   @@*####****@     ",
"   @@**###**@@      ",
"     @*#****@@      ",
"     @@*@@@@        ",
"       @@ @         ",
"                    ",
"                    ",
"        @@@         ",
"        b@ @@       ",
"       b@@*@*@@     ",
"      bb@*@***@@    ",
"      @@ @@****@@   ",
"     o @ @*****@ @  ",
"        @*****@*@@@ ",
"    @@@@@****@@*@b  ",
"   @**@@*****@ @bb  ",
"  @@********@ @@b   ",
"   @*******@@ @@    ",
"  @@**#*****@ oo    ",
"   @*###****@       ",
"  @@**###****@      ",
"    @*###***@@      ",
"    @*****@@@       ",
"     @@@@@@         ",
"        @           ",
"                    ",
"                    ",
"          @@@       ",
"         b@@ @      ",
"        b@@*@@@     ",
"       b@@*@@*@@    ",
"      o@@ @@***@@   ",
"         @@*****@@  ",
"    @@ @@@*****@@ @ ",
"   @**@@@*****@@*@@ ",
"  @@*********@@*@@@ ",
"  @@********@@ @@b  ",
"  @********@@ @@b   ",
"  @**##****@  @b    ",
"  @@*###***@  o     ",
"   @*###****@       ",
"   @********@       ",
"    @@@**@@@        ",
"      @@@@@         ",
"                    ",
"                    ",
"                    ",
"            @       ",
"          bb@@      ",
"         bb@@ @     ",
"       o@@@**@@@    ",
"       o@@ @@**@@   ",
"    @@    @@****@   ",
"   @@*@@@@*******@  ",
"   @****@*******@@  ",
"  @@**********@@* @ ",
"  @**********@@*@@@ ",
" @@*##*****@@  @@b@ ",
"  @*###***@@ @@bb   ",
"  @*####**@@  @b    ",
"  @***#****@ o      ",
"   @@******@        ",
"     @@@@@@         ",
"     @ @ @          ",
"                    ",
"                    ",
"                    ",
"                    ",
"            b@ @    ",
"          bbb@@     ",
"        o@@@@* @    ",
"     @@  @ **@@@@   ",
"   @@*@ @  @@***@   ",
"   @@**@@@@******@  ",
"  @**************@  ",
" @@*************@@  ",
"  @*##********@@@   ",
" @@*##******@@***@@ ",
" @*####***@@  @@@b@ ",
"  @**##**@@  @@bb   ",
"  @@******@ o@b     ",
"    @@*@**@         ",
"    @@@@@@          ",
"                    ",
"                    ",
"                    ",
"                    ",
"                    ",
"                    ",
"            bbb@    ",
"       @ o@b@@@@@   ",
"    @@@@  @@***     ",
"  @@@**@@   @@@@@   ",
"  @*****@@@@*****@  ",
"  @**************@  ",
"  @*##***********@  ",
" @*###***********@  ",
" @*###*******@@@@@  ",
" @**##***@@@@ *** @ ",
"  @@*****@@  @@@@@  ",
"   @@****@  @bbbb@  ",
"    @@@*@@ o@       ",
"      @@            ",
"                    ",
"                    ",
"                    ",
"                    ",
"                    ",
"                    ",
"                    ",
"     @@@@ o@bbbb@   ",
"   @@@**@  @@@@@@@  ",
"  @@****@@   ***    ",
"  @******@@@@@@@@@  ",
" @@*##***********@  ",
" @*###***********@  ",
" @*###***********@  ",
" @@*##***********@  ",
"  @******@@@@@@@@@  ",
"  @@****@@   ***    ",
"   @@@**@  @@@@@@@  ",
"     @@@@ o@bbbb@   ",
"                    ",
"                    ",
"                    ",
"                    ",
"                    ",
"                    ",
"                    ",
"      @@            ",
"    @@@*@@ o@       ",
"   @@****@  @bbbb@  ",
"  @@*****@@  @@@@@  ",
" @**##***@@@@ *** @ ",
" @*###*******@@@@@  ",
" @*###***********@  ",
"  @*##***********@  ",
"  @**************@  ",
"  @*****@@@@*****@  ",
"  @@@**@@   @@@@@   ",
"    @@@@  @@***     ",
"       @ o@b@@@@@   ",
"            bbb@    ",
"                    ",
"                    ",
"                    ",
"                    ",
"                    ",
"                    ",
"    @@@@@@          ",
"    @@*@**@         ",
"  @@******@ o@b     ",
"  @**##**@@  @@bb   ",
" @*####***@@  @@@b@ ",
" @@*##******@@***@@ ",
"  @*##********@@@   ",
" @@*************@@  ",
"  @**************@  ",
"   @@**@@@@******@  ",
"   @@*@ @  @@***@   ",
"     @@  @ **@@@@   ",
"        o@@@@* @    ",
"          bbb@@     ",
"            b@ @    ",
"                    ",
"                    ",
"                    ",
"                    ",
"     @ @ @          ",
"     @@@@@@         ",
"   @@******@        ",
"  @***#****@ o      ",
"  @*####**@@  @b    ",
"  @*###***@@ @@bb   ",
" @@*##*****@@  @@b@ ",
"  @**********@@*@@@ ",
"  @@**********@@* @ ",
"   @****@*******@@  ",
"   @@*@@@@*******@  ",
"    @@    @@****@   ",
"       o@@ @@**@@   ",
"       o@@@**@@@    ",
"         bb@@ @     ",
"          bb@@      ",
"            @       ",
"                    ",
"                    ",
"                    ",
"      @@@@@         ",
"    @@@**@@@        ",
"   @********@       ",
"   @*###****@       ",
"  @@*###***@  o     ",
"  @**##****@@ @b    ",
"  @********@@ @@b   ",
"  @@********@@ @@b  ",
"  @@*********@@*@@@ ",
"   @**@@@*****@@*@@ ",
"    @@  @@*****@@ @ ",
"         @@*****@@  ",
"      o@@ @@***@@   ",
"       b@@*@@*@@    ",
"        b@@*@@@     ",
"         b@@ @      ",
"          @@@       ",
"                    ",
"                    ",
"        @           ",
"     @@@@@@         ",
"    @*****@@@       ",
"    @*###***@@      ",
"  @@**###****@      ",
"   @*###****@       ",
"  @@**#*****@ oo    ",
"   @*******@@ @@    ",
"  @@********@ @@b   ",
"   @**@@*****@ @bb  ",
"    @@@@@****@@*@b  ",
"        @*****@*@@@ ",
"     o @ @*****@ @  ",
"      @@ @@****@@   ",
"      bb@*@***@@    ",
"       b@@*@*@@     ",
"        b@ @@       ",
"        @@@         ",
"                    ",
"                    ",
"       @@ @         ",
"     @@*@@@@        ",
"     @*#****@@      ",
"   @@**###**@@      ",
"   @@*####****@     ",
"   @**##*****@@     ",
"   @@*******@       ",
"   @********@@ o    ",
"   @**@*****@ @@    ",
"    @@@@****@  @b   ",
"       @*****@*@b   ",
"     o  @****@*@bb  ",
"     @@ @*****@*@@  ",
"     b@@*@****@ @   ",
"      b@*@****@@ @  ",
"      b@*@@**@@     ",
"       b@ @@@       ",
"       @@           ",
"                    ",
"                    ",
"       @@@          ",
"      @***@@@@      ",
"     @@*##***@      ",
"    @@*####**@@     ",
"    @**####***@     ",
"   @@*********@     ",
"   @*********@@@    ",
"    @*******@@      ",
"    @@@@****@  o    ",
"      @@****@ @@    ",
"    o  @****@ @b    ",
"    @@ @*****@*@b   ",
"     b@ @****@*@b   ",
"     b@*@****@*@b   ",
"     b@*@****@ @@   ",
"     b@*@****@ @    ",
"     @@ @@@@@       ",
"       @            ",
"                    ",
};
