/* XPM */
static char * C4_xpm[] = {
/* width height color chars_per_color */
"20  640 5 1"
/* colors */
" 	c None",
".	c #A0A0A0A00000",
"X	c #C8C8C8C80000",
"o	c #FFFFFFFF0000",
"O	c #787878780000",
/* pixmap */
"                    ",
"                    ",
"        ....        ",
"       .XXXX.       ",
"      .XXooXX.      ",
"      .XXooXX.      ",
"      .XXooXX.      ",
"       .XXXX.       ",
"     O ..XX.. O     ",
"     .OO.oo.OO.     ",
"     .O OooO O.     ",
"     .   OO   .     ",
"     .  OooO  .     ",
"     .  OooO  .     ",
"     .   OO   .     ",
"     .  OooO  .     ",
"     .  OooO  .     ",
"     O   OO   O     ",
"                    ",
"                    ",
"                    ",
"                    ",
"         ....       ",
"       ..XXXX       ",
"       .XXooX.      ",
"       .XXooXX.     ",
"        XXooXX.     ",
"     O .XXXXXX.     ",
"     .OO.XX..       ",
"     .OO.oo.O O     ",
"     .  OooO O.     ",
"     .   OO  O.     ",
"    .  OoooO  .     ",
"    .  OooO  .      ",
"    .   OO   .      ",
"    .  OooO  .      ",
"    O  OooO  .      ",
"       OOO   .      ",
"            O       ",
"                    ",
"                    ",
"                    ",
"           ..       ",
"        .X.XX..     ",
"        .XXoXX.     ",
"        .XXooXX     ",
"      O .XoooXX.    ",
"      . .XXXXX.     ",
"     .OO..XXX..     ",
"     .O Ooo..       ",
"    .    oo.OOO     ",
"    .  OOO O O.     ",
"    .  OooO  .      ",
"   .   OooO  .      ",
"   .  OoO   ..      ",
"  O   OooO  .       ",
"      OoO   .       ",
"       O   .        ",
"           O        ",
"                    ",
"                    ",
"                    ",
"                    ",
"          ..X..     ",
"         .XXoX..    ",
"         XXXooX.    ",
"      .O .XoooXX    ",
"      .O..XXoXX.    ",
"     .O O.XXXXX.    ",
"    ..  OooX..      ",
"    .   Ooo.O       ",
"   .   OoOO OOO     ",
"  ..   ooo  O.      ",
"  O  OOOoO  ..      ",
"     Ooo    .       ",
"     OooO  .        ",
"     OOO  ..        ",
"          .         ",
"         O          ",
"                    ",
"                    ",
"                    ",
"                    ",
"           .. .     ",
"          .XXX..    ",
"       O  XXXoX..   ",
"      .. ..XoooX    ",
"     ..OO.XXooXX.   ",
"    ..   .XXXXXX.   ",
"   ..   OooXX.X.    ",
"  ..   OOoo...      ",
" O.   OooOOOO       ",
" O    OooO  O.O     ",
"    OoOOO   ..      ",
"    Ooo    ..       ",
"    OOO   ..        ",
"         ..         ",
"        ..          ",
"       OO           ",
"                    ",
"                    ",
"                    ",
"                    ",
"                    ",
"           ..X..    ",
"        O  XXXX..   ",
"      ..O .XXooX.   ",
"     ..OOO.XooooX   ",
"   ..    .XXXoXX.   ",
"  ..    OooXXXXX.   ",
" O    OoOoo...X.    ",
"    O oooOOO.       ",
"   OooOoO   OO      ",
"   OooO    O..      ",
"   OOOO   ..        ",
"         ..         ",
"       ..           ",
"      O.            ",
"                    ",
"                    ",
"                    ",
"                    ",
"                    ",
"                    ",
"             .      ",
"        .O ..XX..   ",
"     ...OO .XXXX.   ",
"   ...   O.XXooXX.  ",
" O.     O..XXoooX.  ",
"      OO ooXXoXX.   ",
"    O ooOoo.XXXXX   ",
"   OoOooO O......   ",
"  OoooOOO  O        ",
"   OOO    OO.O      ",
"          ..        ",
"       ...          ",
"     ..             ",
"    O               ",
"                    ",
"                    ",
"                    ",
"                    ",
"                    ",
"                    ",
"                    ",
"       ...O ...     ",
"  ..... OO  XXX.    ",
" O        O.XXXXX.  ",
"       O O..XoooX.  ",
"   OO OoOooXXoooX.  ",
"  OooOooOooXXXXXX.  ",
"  OooOoo O..XXXX.   ",
"  OOO OO  OO. ...   ",
"          OO        ",
"        ....O       ",
"   O....            ",
"                    ",
"                    ",
"                    ",
"                    ",
"                    ",
"                    ",
"                    ",
"                    ",
"                    ",
"  O........O        ",
"         OO  ...    ",
"          O..XXX.   ",
"   OO OO O..XXXXX.  ",
"  OooOooOooXXoooX.  ",
"  OooOooOooXXoooX.  ",
"   OO OO O..XXXXX.  ",
"          O..XXX.   ",
"         OO  ...    ",
"  O........O        ",
"                    ",
"                    ",
"                    ",
"                    ",
"                    ",
"                    ",
"                    ",
"                    ",
"                    ",
"   O....            ",
"        ....O       ",
"          OO        ",
"  OOO OO  OO. ...   ",
"  OooOoo O..XXXX.   ",
"  OooOooOooXXXXXX.  ",
"   OO OoOooXXoooX.  ",
"       O O..XoooX.  ",
" O        O.XXXXX.  ",
"  ..... OO  XXX.    ",
"       ...O ...     ",
"                    ",
"                    ",
"                    ",
"                    ",
"                    ",
"                    ",
"                    ",
"    O               ",
"     ..             ",
"       ...          ",
"          ..        ",
"   OOO    OO.O      ",
"  OoooOOO  O        ",
"   OoOooO O......   ",
"    O ooOoo.XXXXX   ",
"      OO ooXXoXX.   ",
" O.     O..XXoooX.  ",
"   ...   O.XXooXX.  ",
"     ...OO .XXXX.   ",
"        .O ..XX..   ",
"             .      ",
"                    ",
"                    ",
"                    ",
"                    ",
"                    ",
"                    ",
"      O.            ",
"       ..           ",
"         ..         ",
"   OOOO   ..        ",
"   OooO    O..      ",
"   OooOoO   OO      ",
"    O oooOOO.       ",
" O    OoOoo...X.    ",
"  ..    OooXXXXX.   ",
"   ..    .XXXoXX.   ",
"     ..OOO.XooooX   ",
"      ..O .XXooX.   ",
"        O  XXXX..   ",
"           ..X..    ",
"                    ",
"                    ",
"                    ",
"                    ",
"                    ",
"       OO           ",
"        ..          ",
"         ..         ",
"    OOO   ..        ",
"    Ooo    ..       ",
"    OoOOO   ..      ",
" O    OooO  O.O     ",
" O.   OooOO O       ",
"  ..   OOoo...      ",
"   ..   OooXX.X.    ",
"    ..  O.XXXXXX.   ",
"     ..OO.XXooXX.   ",
"      .. ..XoooX    ",
"       O  XXXoX..   ",
"          .XXX..    ",
"           .. .     ",
"                    ",
"                    ",
"                    ",
"                    ",
"         O          ",
"          .         ",
"     OOO  ..        ",
"     OooO  .        ",
"     Ooo    .       ",
"  O  OOOoO  ..      ",
"  ..   ooo  O.      ",
"   .   OoOO OOO     ",
"    .   Ooo.O       ",
"    ..  OooX..      ",
"     .O O.XXXXX.    ",
"      .O..XXoXX.    ",
"      .O .XoooXX    ",
"         XXXooX.    ",
"         .XXoX..    ",
"          ..X..     ",
"                    ",
"                    ",
"                    ",
"                    ",
"           O        ",
"       O   .        ",
"      OoO   .       ",
"  O   OooO  .       ",
"   .  OoO   ..      ",
"   .   OooO  .      ",
"    .  OooO  .      ",
"    .  OOO O O.     ",
"    .    oo.OOO     ",
"     .O Ooo..       ",
"     .OO..XXX..     ",
"      . .XXXXX.     ",
"      O .XoooXX.    ",
"        .XXooXX     ",
"        .XXoXX.     ",
"        .X.XX..     ",
"           ..       ",
"                    ",
"                    ",
"                    ",
"            O       ",
"       OOO   .      ",
"    O  OooO  .      ",
"    .  OooO  .      ",
"    .   OO   .      ",
"    .  OooO  .      ",
"    .  OoooO  .     ",
"     .   OO  O.     ",
"     .  OooO O.     ",
"     .OO.oo.O O     ",
"     .OO.XX..       ",
"     O .XXXXXX.     ",
"        XXooXX.     ",
"       .XXooXX.     ",
"       .XXooX.      ",
"       ..XXXX       ",
"         ....       ",
"                    ",
"                    ",
"                    ",
"                    ",
"     O   OO   O     ",
"     .  OooO  .     ",
"     .  OooO  .     ",
"     .   OO   .     ",
"     .  OooO  .     ",
"     .  OooO  .     ",
"     .   OO   .     ",
"     .O OooO O.     ",
"     .OO.oo.OO.     ",
"     O ..XX.. O     ",
"       .XXXX.       ",
"      .XXooXX.      ",
"      .XXooXX.      ",
"      .XXooXX.      ",
"       .XXXX.       ",
"        ....        ",
"                    ",
"                    ",
"                    ",
"       O            ",
"      .   OOO       ",
"      .  OooO  O    ",
"      .  OooO  .    ",
"      .   OO   .    ",
"      .  OooO  .    ",
"     .  OoooO  .    ",
"     .O  OO   .     ",
"     .O OooO  .     ",
"     O O.oo.OO.     ",
"       ..XX.OO.     ",
"     .XXXXXX. O     ",
"     .XXooXX        ",
"     .XXooXX.       ",
"      .XooXX.       ",
"       XXXX..       ",
"       ....         ",
"                    ",
"                    ",
"                    ",
"        O           ",
"        .   O       ",
"       .   OoO      ",
"       .  OooO   O  ",
"      ..   OoO  .   ",
"      .  OooO   .   ",
"      .  OooO  .    ",
"     .O O OOO  .    ",
"     OOO.oo    .    ",
"       ..ooO O.     ",
"     ..XXX..OO.     ",
"     .XXXXX. .      ",
"    .XXoooX. O      ",
"     XXooXX.        ",
"     .XXoXX.        ",
"     ..XX.X.        ",
"       ..           ",
"                    ",
"                    ",
"                    ",
"          O         ",
"         .          ",
"        ..  OOO     ",
"        .  OooO     ",
"       .    ooO     ",
"      ..  OoOOO  O  ",
"      .O  ooo   ..  ",
"     OOO OOoO   .   ",
"       O.ooO   .    ",
"      ..XooO  ..    ",
"    .XXXXX.O O.     ",
"    .XXoXX..O.      ",
"    XXoooX. O.      ",
"    .XooXXX         ",
"    ..XoXX.         ",
"     ..X..          ",
"                    ",
"                    ",
"                    ",
"                    ",
"           OO       ",
"          ..        ",
"         ..         ",
"        ..   OOO    ",
"       ..    ooO    ",
"      ..   OOOoO    ",
"     O.O  OooO    O ",
"       OOOOooO   .O ",
"      ...ooOO   ..  ",
"    .X.XXooO   ..   ",
"   .XXXXXX.   ..    ",
"   .XXooXX.OO..     ",
"    XoooX.. ..      ",
"   ..XoXXX  O       ",
"    ..XXX.          ",
"     . ..           ",
"                    ",
"                    ",
"                    ",
"                    ",
"                    ",
"            .O      ",
"           ..       ",
"         ..         ",
"        ..   OOOO   ",
"      ..O    OooO   ",
"      OO   OoOooO   ",
"       .OOOooo O    ",
"    .X...ooOoO    O ",
"   .XXXXXooO    ..  ",
"   .XXoXXX.    ..   ",
"   XooooX.OOO..     ",
"   .XooXX. O..      ",
"   ..XXXX  O        ",
"    ..X..           ",
"                    ",
"                    ",
"                    ",
"                    ",
"                    ",
"                    ",
"               O    ",
"             ..     ",
"          ...       ",
"        ..          ",
"      O.OO    OOO   ",
"        O  OOOoooO  ",
"   ......O OooOoO   ",
"   XXXXX.ooOoo O    ",
"   .XXoXXoo OO      ",
"  .XoooXX..O     .O ",
"  .XXooXX.O   ...   ",
"   .XXXX. OO...     ",
"   ..XX.. O.        ",
"      .             ",
"                    ",
"                    ",
"                    ",
"                    ",
"                    ",
"                    ",
"                    ",
"                    ",
"            ....O   ",
"       O....        ",
"        OO          ",
"   ... .OO  OO OOO  ",
"   .XXXX..O ooOooO  ",
"  .XXXXXXooOooOooO  ",
"  .XoooXXooOoO OO   ",
"  .XoooX..O O       ",
"  .XXXXX.O        O ",
"    .XXX  OO .....  ",
"     ... O...       ",
"                    ",
"                    ",
"                    ",
"                    ",
"                    ",
"                    ",
"                    ",
"                    ",
"                    ",
"                    ",
"        O........O  ",
"    ...  OO         ",
"   .XXX..O          ",
"  .XXXXX..O OO OO   ",
"  .XoooXXooOooOooO  ",
"  .XoooXXooOooOooO  ",
"  .XXXXX..O OO OO   ",
"   .XXX..O          ",
"    ...  OO         ",
"        O........O  ",
"                    ",
"                    ",
"                    ",
"                    ",
"                    ",
"                    ",
"                    ",
"                    ",
"                    ",
"                    ",
"     ... O...       ",
"    .XXX  OO .....  ",
"  .XXXXX.O        O ",
"  .XoooX..O O       ",
"  .XoooXXooOoO OO   ",
"  .XXXXXXooOooOooO  ",
"   .XXXX..O ooOooO  ",
"   ... .OO  OO OOO  ",
"        OO          ",
"       O....        ",
"            ....O   ",
"                    ",
"                    ",
"                    ",
"                    ",
"                    ",
"                    ",
"                    ",
"                    ",
"      .             ",
"   ..XX.. O.        ",
"   .XXXX. OO...     ",
"  .XXooXX.O   ...   ",
"  .XoooXX..O     .O ",
"   .XXoXXoo OO      ",
"   XXXXX.ooOoo O    ",
"   ......O OooOoO   ",
"        O  OOOoooO  ",
"      O.OO    OOO   ",
"        ..          ",
"          ...       ",
"             ..     ",
"               O    ",
"                    ",
"                    ",
"                    ",
"                    ",
"                    ",
"                    ",
"    ..X..           ",
"   ..XXXX  O        ",
"   .XooXX. O..      ",
"   XooooX.OOO..     ",
"   .XXoXXX.    ..   ",
"   .XXXXXooO    ..  ",
"    .X...ooOoO    O ",
"       .OOOooo O    ",
"      OO   OoOooO   ",
"      ..O    OooO   ",
"        ..   OOOO   ",
"         ..         ",
"           ..       ",
"            .O      ",
"                    ",
"                    ",
"                    ",
"                    ",
"                    ",
"     . ..           ",
"    ..XXX.          ",
"   ..XoXXX  O       ",
"    XoooX.. ..      ",
"   .XXooXX.OO..     ",
"   .XXXXXX.O  ..    ",
"    .X.XXooO   ..   ",
"      ...ooOO   ..  ",
"       O OOooO   .O ",
"     O.O  OooO    O ",
"      ..   OOOoO    ",
"       ..    ooO    ",
"        ..   OOO    ",
"         ..         ",
"          ..        ",
"           OO       ",
"                    ",
"                    ",
"                    ",
"                    ",
"     ..X..          ",
"    ..XoXX.         ",
"    .XooXXX         ",
"    XXoooX. O.      ",
"    .XXoXX..O.      ",
"    .XXXXX.O O.     ",
"      ..XooO  ..    ",
"       O.ooO   .    ",
"     OOO OOoO   .   ",
"      .O  ooo   ..  ",
"      ..  OoOOO  O  ",
"       .    ooO     ",
"        .  OooO     ",
"        ..  OOO     ",
"         .          ",
"          O         ",
"                    ",
"                    ",
"                    ",
"       ..           ",
"     ..XX.X.        ",
"     .XXoXX.        ",
"     XXooXX.        ",
"    .XXoooX. O      ",
"     .XXXXX. .      ",
"     ..XXX..OO.     ",
"       ..ooO O.     ",
"     OOO.oo    .    ",
"     .O O OOO  .    ",
"      .  OooO  .    ",
"      .  OooO   .   ",
"      ..   OoO  .   ",
"       .  OooO   O  ",
"       .   OoO      ",
"        .   O       ",
"        O           ",
"                    ",
"                    ",
"                    ",
"       ....         ",
"       XXXX..       ",
"      .XooXX.       ",
"     .XXooXX.       ",
"     .XXooXX        ",
"     .XXXXXX. O     ",
"       ..XX.OO.     ",
"     O O.oo.OO.     ",
"     .O OooO  .     ",
"     .O  OO   .     ",
"     .  OoooO  .    ",
"      .  OooO  .    ",
"      .   OO   .    ",
"      .  OooO  .    ",
"      .  OooO  O    ",
"      .   OOO       ",
"       O            ",
"                    ",
};
