/* XPM */
static char * C4_xpm[] = {
"20 320 7 1",
" 	c None",
".	c #B0B0B0B0B0B0",
"X	c #C1C1C1C1C1C1",
"o	c #D0D0D0D0D0D0",
"O	c #E0E0E0E0E0E0",
"+	c #FFFF00000000",
"@	c #0000FFFFFFFF",
"                    ",
"        .XX.        ",
"      ..XooX..      ",
"     .XXoOOooX.     ",
"     .XoOOOOoo.     ",
"    .XoOOOOOOoX.    ",
"     .oOOOOOOo.     ",
"     .XoOOOOoX.     ",
"      .oOOOOo.      ",
"       XOOOOX       ",
"     + .XOOX. +     ",
"     .. XooX ..     ",
"     @.  oo  .@     ",
"     @.oooooo.@     ",
"     @.  ++  .@     ",
"     @.      .@     ",
"     ..      ..     ",
"      .      .      ",
"                    ",
"                    ",
"                    ",
"         ......     ",
"       ..XXoooX.    ",
"       .XXoOOOX..   ",
"       XoOOOOOooX   ",
"       XoOOOOOoo..  ",
"       .ooOOOOOo.   ",
"        oOOOOoOoX.  ",
"      + XOOOOoX.    ",
"     .. XOOOOo.     ",
"     @. .oOX.       ",
"    @.o  oo.  +     ",
"    @. ooo   ..     ",
"   .@.  ++oo.@      ",
"    .       .@      ",
"    .      .@       ",
"           .@       ",
"          ...       ",
"                    ",
"                    ",
"                    ",
"           . .      ",
"         .X.X...    ",
"         .XooXXoX   ",
"        ..oOOOOoo.  ",
"         XoOOOOOX.  ",
"      +  ooOOOOOo.. ",
"     @. .XOOOOOOoX  ",
"    @o. .XOOOOOOo.. ",
"   @o.  XOOOOoooXX  ",
"  .o. o ooOXXoX...  ",
"  X.   oooX..  .    ",
"      +oo           ",
"       + o ..+      ",
"          .o@       ",
"         .o@        ",
"        .o@         ",
"        X.          ",
"                    ",
"                    ",
"                    ",
"                    ",
"            . .     ",
"            X..X.   ",
"           .ooXX..  ",
"       .+ .XOOooXXX ",
"     @@.  oooOOOOoX ",
"  .@@..  .OOOOOOOo. ",
"  ... o XXOOOOOOOo. ",
"  .   o oOOOOOOOoo. ",
"      +oooOOOoOOoX. ",
"      +o XXXooXoX.  ",
"       o     .....  ",
"        o..+        ",
"      ...@.         ",
"    ..@@@           ",
"      .             ",
"                    ",
"                    ",
"                    ",
"                    ",
"                    ",
"                    ",
"                    ",
"              .     ",
"   .@@@@.+  ..X..   ",
"  .......  .Xoo...  ",
"      o  .XooOOoX.  ",
"      o XXOOOOOOoX. ",
"     +oooOOOOOOOOoX ",
"     +oooOOOOOOOOoX ",
"      o XXOOOOOOoX. ",
"      o  .XooOOoo.  ",
"  .......  .XoooX.  ",
"   .@@@@.+  ..X..   ",
"              .     ",
"                    ",
"                    ",
"                    ",
"                    ",
"                    ",
"                    ",
"                    ",
"      .             ",
"    ..@@@           ",
"      ...@.         ",
"        o..+        ",
"       o     .XX..  ",
"      +o .XXooooX.  ",
"      +oooOOOoOOXX. ",
"  .   o oOOOOOOOoX. ",
"  ... o .XOOOOOOOo. ",
"  .@@..  .OOOOOOOo. ",
"     @@.  oooOOOOo. ",
"       .+ .XOOooXX. ",
"           .oooo..  ",
"            X.X..   ",
"            . .     ",
"                    ",
"                    ",
"                    ",
"                    ",
"        X.          ",
"        .o@         ",
"         .o@        ",
"          .o@       ",
"       + o ..+      ",
"      +oo           ",
"  X.   oooX..  .    ",
"  .o. o ooOXXoX...  ",
"   @o.  XOOOOoooXX  ",
"    @o. .XOOOOOOo.. ",
"     @. .XOOOOOOoX  ",
"      +  ooOOOOOo.. ",
"         XoOOOOOX.  ",
"        ..oOOOOoo.  ",
"         .XoooXoX   ",
"         .X.X...    ",
"           . .      ",
"                    ",
"                    ",
"                    ",
"          ...       ",
"           .@       ",
"    .      .@       ",
"    .       .@      ",
"   .@.  ++oo.@      ",
"    @. ooo   ..     ",
"    @.o  ooX  +     ",
"     @. XoOX.       ",
"     .. XOOOOo.     ",
"      + XOOOOoX.    ",
"        oOOOOoOoX.  ",
"       .ooOOOOOo.   ",
"       .XOOOOOoX..  ",
"       .oOOOOOoXX   ",
"       .XooOOO...   ",
"       ..XoooX..    ",
"         .....X     ",
"                    ",
"                    ",
"                    ",
"      .      .      ",
"     ..      ..     ",
"     @.      .@     ",
"     @.  ++  .@     ",
"     @.oooooo.@     ",
"     @.  oo  .@     ",
"     .. XooX ..     ",
"     + .XOOX. +     ",
"       XOOOOX       ",
"      .oOOOOo.      ",
"     .XoOOOOoX.     ",
"     .oOOOOOOo.     ",
"    .XoOOOOOOoX.    ",
"     .ooOOOOoX.     ",
"     .XooOOoX..     ",
"      ..XooX..      ",
"        .XX.        ",
"                    ",
"                    ",
"                    ",
"       ...          ",
"       @.           ",
"       @.           ",
"      @.       .    ",
"      @.oo++  ..    ",
"     ..   ooo .@    ",
"     +  .oo  o.@    ",
"       .XOo. .@     ",
"     .oOOOOX ..     ",
"    .XoOOOOX +      ",
"  .XoOoOOOOo        ",
"   .oOOOOOoo.       ",
"  .XooOOOOOoX       ",
"   .ooOOOOOoX       ",
"   ..XOOOoXX.       ",
"    .XoooXX..       ",
"     ......         ",
"                    ",
"                    ",
"                    ",
"          .X        ",
"         @o.        ",
"        @o.         ",
"       @o.          ",
"      +.. o +       ",
"           oo+      ",
"    .  ..Xooo   .X  ",
"  ...XoXXOoo o .o.  ",
"  XXoooOOOOX  .o@   ",
" ..oOOOOOOX. .o@    ",
"  XoOOOOOOX. .@     ",
" ..oOOOOOoo  +      ",
"  .XOOOOOoX         ",
"  .ooOOOOo..        ",
"   XoXoooX.         ",
"    ...X.X.         ",
"      . .           ",
"                    ",
"                    ",
"                    ",
"                    ",
"             .      ",
"           @@@..    ",
"         .@...      ",
"        +..o        ",
"  .....     o       ",
"  .XoXooXXX o+      ",
" .XoOOoOOOooo+      ",
" .ooOOOOOOOo o   .  ",
" .oOOOOOOOXX o ...  ",
" .oOOOOOOO.  ..@@.  ",
" .XOOOOooo  .@@     ",
" X..ooOOX. +.       ",
"  ..XXoo.           ",
"   .X..X            ",
"     . .            ",
"                    ",
"                    ",
"                    ",
"                    ",
"                    ",
"                    ",
"     .              ",
"   ..X..  +.@@@@.   ",
"  .XoooX.  .......  ",
"  .ooOOooX.  o      ",
" .XoOOOOOOXX o      ",
" XoOOOOOOOOooo+     ",
" XoOOOOOOOOooo+     ",
" .XoOOOOOOXX o      ",
"  .XoOOooX.  o      ",
"  ..XooX.  .......  ",
"   ..X..  +.@@@@.   ",
"     .              ",
"                    ",
"                    ",
"                    ",
"                    ",
"                    ",
"                    ",
"     . .            ",
"   ..X.X            ",
"  ..oooo.           ",
" XXXooOOX. +.       ",
" .oOOOOooo  .@@     ",
" .oOOOOOOO.  ..@@.  ",
" .oOOOOOOOX. o ...  ",
" .XoOOOOOOOo o   .  ",
" .XXOOoOOOooo+      ",
"  .XooooXX. o+      ",
"  ..XX.     o       ",
"        +..o        ",
"         .@...      ",
"           @@@..    ",
"             .      ",
"                    ",
"                    ",
"                    ",
"                    ",
"      . .           ",
"    ...X.X.         ",
"   XoXoooX.         ",
"  .ooOOOOo..        ",
"  .XOOOOOoX         ",
" ..oOOOOOoo  +      ",
"  XoOOOOOOX. .@     ",
" ..oOOOOOOX. .o@    ",
"  XXoooOOOOX  .o@   ",
"  ...XoXXOoo o .o.  ",
"    .  ..Xooo   .X  ",
"           oo+      ",
"      +.. o +       ",
"       @o.          ",
"        @o.         ",
"         @o.        ",
"          .X        ",
"                    ",
"                    ",
"                    ",
"     X.....         ",
"    ..XoooX..       ",
"   ...OOOooX.       ",
"   XXoOOOOOo.       ",
"  ..XoOOOOOX.       ",
"   .oOOOOOoo.       ",
"  .XoOoOOOOo        ",
"    .XoOOOOX +      ",
"     .oOOOOX ..     ",
"       .XOoX .@     ",
"     +  Xoo  o.@    ",
"     ..   ooo .@    ",
"      @.oo++  .@.   ",
"      @.       .    ",
"       @.      .    ",
"       @.           ",
"       ...          ",
"                    ",
"                    "};
