/* XPM */
static char *at0[] = {
/* width height ncolors chars_per_pixel */
"20  320 3 1"
/* colors */
"  c none",
". c #7b947b",
"# c #00ffff",
/* pixels */
"                    ",
"                    ",
"                    ",
"       ######       ",
"     .#......#.     ",
"    .#........#.    ",
"    #..........#    ",
"   #..##....##..#   ",
"   #............#   ",
"   #.....##.....#   ",
"   #....####....#   ",
"   #............#   ",
"   #..#......#..#   ",
"    #..######..#    ",
"    .#........#.    ",
"     .#......#.     ",
"       ######       ",
"                    ",
"                    ",
"                    ",
"                    ",
"                    ",
"                    ",
"      ..#.###       ",
"      ##....###     ",
"    #..........     ",
"    #..##......#.   ",
"   ##..........#.   ",
"   #.........#..#   ",
"   #....###...#..   ",
"   ..#...##.....#   ",
"   #.......#....#   ",
"   .#.##.......##   ",
"   .#...###.#..#    ",
"     .....#....#    ",
"     ###....##      ",
"       ###.#..      ",
"                    ",
"                    ",
"                    ",
"                    ",
"                    ",
"         ..         ",
"       ######       ",
"      #......#      ",
"     #...#....#     ",
"    #....##....#    ",
"   #............#   ",
"   #............#   ",
"  .#.#..###..#..#.  ",
"  .#.#...##..##.#.  ",
"   #..#...#.....#   ",
"   #...#........#   ",
"    #...#......#    ",
"     #...##...#     ",
"      #......#      ",
"       ######       ",
"         ..         ",
"                    ",
"                    ",
"                    ",
"                    ",
"                    ",
"       ###.#..      ",
"     ###....##      ",
"     .....#....#    ",
"   .#......#...#    ",
"   .#.#........##   ",
"   #....#.......#   ",
"   ..##..##.....#   ",
"   #..#..##......   ",
"   #..#...#..#..#   ",
"   ##..#.....#.#.   ",
"    #..#.......#.   ",
"    #....#.....     ",
"      ##....###     ",
"      ..#.###       ",
"                    ",
"                    ",
"                    ",
"                    ",
"                    ",
"                    ",
"       ######       ",
"     .#......#.     ",
"    .#........#.    ",
"    #..#....#..#    ",
"   #..#.....#...#   ",
"   #..#..#......#   ",
"   #..#..##.....#   ",
"   #..#..##.....#   ",
"   #..#..#......#   ",
"   #..#.....#...#   ",
"    #..#....#..#    ",
"    .#........#.    ",
"     .#......#.     ",
"       ######       ",
"                    ",
"                    ",
"                    ",
"                    ",
"                    ",
"                    ",
"      ..#.###       ",
"      ##....###     ",
"    #....#.....     ",
"    #..#.......#.   ",
"   ##..#.....#.#.   ",
"   #..#...#..#..#   ",
"   #..#..##......   ",
"   ..##..##.....#   ",
"   #....#.......#   ",
"   .#.#........##   ",
"   .#......#...#    ",
"     .....#....#    ",
"     ###....##      ",
"       ###.#..      ",
"                    ",
"                    ",
"                    ",
"                    ",
"                    ",
"         ..         ",
"       ######       ",
"      #......#      ",
"     #...##...#     ",
"    #...#......#    ",
"   #...#........#   ",
"   #..#...#.....#   ",
"  .#.#...##..##.#.  ",
"  .#.#..###..#..#.  ",
"   #............#   ",
"   #............#   ",
"    #....##....#    ",
"     #...#....#     ",
"      #......#      ",
"       ######       ",
"         ..         ",
"                    ",
"                    ",
"                    ",
"                    ",
"                    ",
"       ###.#..      ",
"     ###....##      ",
"     .....#....#    ",
"   .#...###.#..#    ",
"   .#.##.......##   ",
"   #.......#....#   ",
"   ..#...##.....#   ",
"   #....###...#..   ",
"   #.........#..#   ",
"   ##..........#.   ",
"    #..##......#.   ",
"    #..........     ",
"      ##....###     ",
"      ..#.###       ",
"                    ",
"                    ",
"                    ",
"                    ",
"                    ",
"                    ",
"       ######       ",
"     .#......#.     ",
"    .#........#.    ",
"    #..######..#    ",
"   #..#......#..#   ",
"   #............#   ",
"   #....####....#   ",
"   #.....##.....#   ",
"   #............#   ",
"   #..##....##..#   ",
"    #..........#    ",
"    .#........#.    ",
"     .#......#.     ",
"       ######       ",
"                    ",
"                    ",
"                    ",
"                    ",
"                    ",
"                    ",
"      ..#.###       ",
"      ##....###     ",
"    #....#.....     ",
"    #..#.###...#.   ",
"   ##.......##.#.   ",
"   #....#.......#   ",
"   #.....##...#..   ",
"   ..#...###....#   ",
"   #..#.........#   ",
"   .#..........##   ",
"   .#......##..#    ",
"     ..........#    ",
"     ###....##      ",
"       ###.#..      ",
"                    ",
"                    ",
"                    ",
"                    ",
"                    ",
"         ..         ",
"       ######       ",
"      #......#      ",
"     #...##...#     ",
"    #......#...#    ",
"   #........#...#   ",
"   #.....#...#..#   ",
"  .#.##..##...#.#.  ",
"  .#..#..###..#.#.  ",
"   #............#   ",
"   #............#   ",
"    #....##....#    ",
"     #....#...#     ",
"      #......#      ",
"       ######       ",
"         ..         ",
"                    ",
"                    ",
"                    ",
"                    ",
"                    ",
"       ###.#..      ",
"     ###....##      ",
"     .....#....#    ",
"   .#.......#..#    ",
"   .#.#.....#..##   ",
"   #..#..#...#..#   ",
"   ......##..#..#   ",
"   #.....##..##..   ",
"   #.......#....#   ",
"   ##........#.#.   ",
"    #...#......#.   ",
"    #....#.....     ",
"      ##....###     ",
"      ..#.###       ",
"                    ",
"                    ",
"                    ",
"                    ",
"                    ",
"                    ",
"       ######       ",
"     .#......#.     ",
"    .#........#.    ",
"    #..#....#..#    ",
"   #...#.....#..#   ",
"   #......#..#..#   ",
"   #.....##..#..#   ",
"   #.....##..#..#   ",
"   #......#..#..#   ",
"   #...#.....#..#   ",
"    #..#....#..#    ",
"    .#........#.    ",
"     .#......#.     ",
"       ######       ",
"                    ",
"                    ",
"                    ",
"                    ",
"                    ",
"                    ",
"      ..#.###       ",
"      ##....###     ",
"    #....#.....     ",
"    #...#......#.   ",
"   ##........#.#.   ",
"   #.......#....#   ",
"   #.....##..##..   ",
"   ......##..#..#   ",
"   #..#..#...#..#   ",
"   .#.#.....#..##   ",
"   .#.......#..#    ",
"     .....#....#    ",
"     ###....##      ",
"       ###.#..      ",
"                    ",
"                    ",
"                    ",
"                    ",
"                    ",
"         ..         ",
"       ######       ",
"      #......#      ",
"     #....#...#     ",
"    #....##....#    ",
"   #............#   ",
"   #............#   ",
"  .#..#..###..#.#.  ",
"  .#.##..##...#.#.  ",
"   #.....#...#..#   ",
"   #........#...#   ",
"    #......#...#    ",
"     #...##...#     ",
"      #......#      ",
"       ######       ",
"         ..         ",
"                    ",
"                    ",
"                    ",
"                    ",
"                    ",
"       ###.#..      ",
"     ###....##      ",
"     ..........#    ",
"   .#......##..#    ",
"   .#..........##   ",
"   #..#.........#   ",
"   ..#...###....#   ",
"   #.....##...#..   ",
"   #....#.......#   ",
"   ##.......##.#.   ",
"    #..#.###...#.   ",
"    #....#.....     ",
"      ##....###     ",
"      ..#.###       ",
"                    ",
"                    ",
"                    ",
};
