/* XPM */
static char * C8_xpm[] = {
/* width height color chars_per_color */
"20  640 7 1"
/* colors */
" 	c None",
".	c #787878780000",
"X	c #A0A0A0A00000",
"o	c #C8C8C8C80000",
"O	c #FFFFFFFF0000",
"+	c #787878780000",
"@	c #787878780000",
/* pixels */
"                    ",
"                    ",
"       .XXXX.       ",
"     ..XooooX..     ",
"     .XoOOOOoX.     ",
"    .XoOOOOOOoX.    ",
"    .XoOOOOOOoX.    ",
"    .XooOOOOooX.    ",
"     XooOOOOooX     ",
"     .XooOOooX.     ",
"      .XooooX.      ",
"    +  .oooo.  +    ",
"    @o  X++X  o@    ",
"    @o  .XX.  o@    ",
"    @o   ..   o@    ",
"    @o   ..   o@    ",
"    OoX......XoO    ",
"    O X......X O    ",
"                    ",
"                    ",
"                    ",
"                    ",
"      ...XXXX       ",
"      .XXoooo.      ",
"     .XooOOOOX..    ",
"     .XoOOOOOoX.    ",
"     .XoOOOOOOoX.   ",
"     XooOOOOOOoX.   ",
"     .XoOOOOooX.    ",
"      .ooOOoooX     ",
"    +  XooooXX.     ",
"    @o .ooooX.      ",
"   @o  X+++X.  +    ",
"   @o  .XX.  o@     ",
"   @o   ..   o@     ",
"   OoX. ..   o@     ",
"   O X...... o@     ",
"       .....XoO     ",
"             O      ",
"                    ",
"                    ",
"                    ",
"        ...XX       ",
"      ..XoXooXX     ",
"      .XoOOOooX.    ",
"     .XXoOOOOOo..   ",
"      XooOOOOOOX.   ",
"      .ooOOOOOoX.   ",
"      XooOOOOooX.   ",
"    + .XoOOOoooX.   ",
"   @o  .oooooXX     ",
"   @o  XooooX..     ",
"  @@o  .++X.        ",
"  Oo   .XX.   +     ",
"  OoX  ..   oo@     ",
"   X.....   o@      ",
"     .....  o@      ",
"       ...Xo@       ",
"          X O       ",
"            O       ",
"                    ",
"                    ",
"         ....       ",
"       .X.XXoXX     ",
"      ..XoOOOoXX    ",
"       XoOOOOOoX.   ",
"      .XooOOOOOo.   ",
"      .XoOOOOOOX..  ",
"    + .XooOOOOOoX   ",
"   @oo XoOOOOooX..  ",
"  @@o  oooooooXX.   ",
"  @o   X+ooXoXX     ",
" Ooo   X++o..       ",
" O X  ..X.          ",
"  X.....    o+      ",
"    ....   o@@      ",
"     .... oo@       ",
"       ..Xo@        ",
"        X OO        ",
"          O         ",
"                    ",
"                    ",
"         ... .      ",
"        .XXXX.X     ",
"       .XXoOooXX    ",
"       XXoOOOOoXX   ",
"       .oooOOOOo..  ",
"    @  .ooOOOOOoX   ",
"   @oo XXoOOOOOOX.  ",
"  @oo  .ooOOOoOoX.  ",
" Ooo   XooOooooXX.  ",
"O o   .++oooooXX.   ",
"  X.  .X+X.XX.X.    ",
"  .......    .      ",
"   ....    o        ",
"    ...   oo@       ",
"     ... oo@        ",
"      .Xoo@         ",
"         O          ",
"        O           ",
"                    ",
"                    ",
"          . .       ",
"         ..X...     ",
"         XXoXoXX    ",
"        XXoOOOoXX   ",
"    @+  XooOOOOoX   ",
"   @@o .ooOOOOOOo.  ",
" O@oo  .XoOOOOOOX.  ",
"OOoo   oooOOOOOOX.  ",
"  X   .+ooOoOoOo..  ",
" X..  X++ooooooXX   ",
"  .....XXoXXXXX..   ",
"   ....    ... .    ",
"   ...    o         ",
"    ..   oo+        ",
"     .Xoo@@         ",
"     X o@@          ",
"      OO            ",
"                    ",
"                    ",
"                    ",
"                    ",
"          .....     ",
"          XXXX..    ",
"     @+ .XoooOoXX   ",
"   @@o  .XooOOOoX   ",
"OO@ooo  XooOOOOooX  ",
"  o    .ooOOOOOOoX  ",
" XX   .XooOOOOOOX.  ",
"  ..  X+ooOOOOOOo.  ",
"  ....X+ooooooooX.  ",
"  ......X.XoooXX.   ",
"   ..     .X.XX..   ",
"   ..         .     ",
"    .X ooo+         ",
"    Xoo@@@          ",
"     OO@            ",
"                    ",
"                    ",
"                    ",
"                    ",
"                    ",
"            ..      ",
"       +   .XX..    ",
"  O@@@@  .XXooX.    ",
" Oooooo .XooOOoX.   ",
"  X    .XXooOOOOoX  ",
"  ..   XoooOOOOOoX  ",
"  ..  .+ooOOOOOOoX  ",
"  ....X+ooOOOOOOoX  ",
"  ....X+oooOOOOoX.  ",
"  ..  .X.XooooooX.  ",
"   ..     .XoXXX..  ",
"   XX   o  .X...    ",
"    oooo@+          ",
"   OO@@@            ",
"                    ",
"                    ",
"                    ",
"                    ",
"                    ",
"                    ",
"                    ",
"  OO@@@@+   ...     ",
"   ooooo  .XXXX..   ",
"  XX     .XooooX.   ",
"  ..    .XoooOOoX.  ",
"  ..  .XoooOOOOOoX  ",
"  ....X+ooOOOOOOoX  ",
"  ....X+ooOOOOOOoX  ",
"  ..  .XoooOOOOOoX  ",
"  ..    .XoooOOoX.  ",
"  XX     .XooooX.   ",
"   ooooo  .XXXX..   ",
"  OO@@@@+   ...     ",
"                    ",
"                    ",
"                    ",
"                    ",
"                    ",
"                    ",
"                    ",
"   OO@@@            ",
"    oooo@+          ",
"   XX   o  .X...    ",
"   ..     .XoXXX..  ",
"  ..  .X.XooooooX.  ",
"  ....X+oooOOOOoX.  ",
"  ....X+ooOOOOOOoX  ",
"  ..  .+ooOOOOOOoX  ",
"  ..   XoooOOOOOoX  ",
"  X    .XXooOOOOoX  ",
" Oooooo .XooOOoX.   ",
"  O@@@@  .XXooX.    ",
"       +   .XX..    ",
"            ..      ",
"                    ",
"                    ",
"                    ",
"                    ",
"                    ",
"     OO@            ",
"    Xoo@@@          ",
"    .X ooo+         ",
"   ..         .     ",
"   ..     .X.XX..   ",
"  ......X.XoooXX.   ",
"  ....X+ooooooooX.  ",
"  ..  X+ooOOOOOOo.  ",
" XX   .XooOOOOOOX.  ",
"  o    .ooOOOOOOoX  ",
"OO@ooo  XooOOOOooX  ",
"   @@o  .XooOOOoX   ",
"     @+ .XoooOoXX   ",
"          XXXX..    ",
"          .....     ",
"                    ",
"                    ",
"                    ",
"                    ",
"      OO            ",
"     X o@@          ",
"     .Xoo@@         ",
"    ..   oo+        ",
"   ...    o         ",
"   ....    ... .    ",
"  .....XXoXXXXX..   ",
" X..  X++ooooooXX   ",
"  X   .+ooOoOoOo..  ",
"OOoo   oooOOOOOOX.  ",
" O@oo  .XoOOOOOOX.  ",
"   @@o .ooOOOOOOo.  ",
"    @+  XooOOOOoX   ",
"        XXoOOOoXX   ",
"         XXoXoXX    ",
"         ..X...     ",
"          . .       ",
"                    ",
"                    ",
"        O           ",
"         O          ",
"      .Xoo@         ",
"     ... oo@        ",
"    ...   oo@       ",
"   ....    o        ",
"  .......           ",
"  X.  .X+X.X..X.    ",
"O o   .++ooXooXX.   ",
" Ooo   XoooooooXX.  ",
"  @oo  .oOOOOoOoX.  ",
"   @oo XooOOOOOOX.  ",
"    @  XooOOOOOoX   ",
"      ..oooOOOOo..  ",
"       XXoOOOOoXX   ",
"       .XXoOooXX    ",
"        .XXXX.X     ",
"         ... .      ",
"                    ",
"                    ",
"          O         ",
"        X OO        ",
"       ..Xo@        ",
"     .... oo@       ",
"    ....   o@@      ",
"  X.....    o+      ",
" O X  ..X.          ",
" Ooo   X++o..       ",
"  @o   X+ooXoXX     ",
"  @@o  oooooooXX.   ",
"   @oo XoOOOOooX..  ",
"    + .XooOOOOOoX   ",
"      .XoOOOOOOX..  ",
"      .XooOOOOOo.   ",
"       XoOOOOOoX.   ",
"      ..XoOOOoXX    ",
"       .X.XXoXX     ",
"         ....       ",
"                    ",
"                    ",
"            O       ",
"          X O       ",
"       ...Xo@       ",
"     .....  o@      ",
"   X.....   o@      ",
"  OoX  ..   oo@     ",
"  Oo   .XX.   +     ",
"  @@o  .++X.        ",
"   @o  XooooX..     ",
"   @o  .oooooXX     ",
"    + .XoOOOoooX.   ",
"      XooOOOOooX.   ",
"      .ooOOOOOoX.   ",
"      XooOOOOOOX.   ",
"     .XXoOOOOOo..   ",
"      .XoOOOooX.    ",
"      ..XoXooXX     ",
"        ...XX       ",
"                    ",
"                    ",
"                    ",
"             O      ",
"       .....XoO     ",
"   O X...... o@     ",
"   OoX. ..   o@     ",
"   @o   ..   o@     ",
"   @o  .XX.  o@     ",
"   @o  X+++X.  +    ",
"    @o .ooooX.      ",
"    +  XooooXX.     ",
"      .ooOOoooX     ",
"     .XoOOOOooX.    ",
"     XooOOOOOOoX.   ",
"     .XoOOOOOOoX.   ",
"     .XoOOOOOoX.    ",
"     .XooOOOOX..    ",
"      .XXoooo.      ",
"      ...XXXX       ",
"                    ",
"                    ",
"                    ",
"                    ",
"    O X......X O    ",
"    OoX......XoO    ",
"    @o   ..   o@    ",
"    @o   ..   o@    ",
"    @o  .XX.  o@    ",
"    @o  X++X  o@    ",
"    +  .oooo.  +    ",
"      .XooooX.      ",
"     .XooOOooX.     ",
"     XooOOOOooX     ",
"    .XooOOOOooX.    ",
"    .XoOOOOOOoX.    ",
"    .XoOOOOOOoX.    ",
"     .XoOOOOoX.     ",
"     ..XooooX..     ",
"       .XXXX.       ",
"                    ",
"                    ",
"                    ",
"      O             ",
"     OoX.....       ",
"     @o ......X O   ",
"     @o   .. .XoO   ",
"     @o   ..   o@   ",
"     @o  .XX.  o@   ",
"    +  .X+++X  o@   ",
"      .Xoooo. o@    ",
"     .XXooooX  +    ",
"     XoooOOoo.      ",
"    .XooOOOOoX.     ",
"   .XoOOOOOOooX     ",
"   .XoOOOOOOoX.     ",
"    .XoOOOOOoX.     ",
"    ..XOOOOooX.     ",
"      .ooooXX.      ",
"       XXXX...      ",
"                    ",
"                    ",
"       O            ",
"       O X          ",
"       @oX...       ",
"      @o  .....     ",
"      @o   .....X   ",
"     @oo   ..  XoO  ",
"     +   .XX.   oO  ",
"        .X++.  o@@  ",
"     ..XooooX  o@   ",
"     XXooooo.  o@   ",
"   .XoooOOOoX. +    ",
"   .XooOOOOooX      ",
"   .XoOOOOOoo.      ",
"   .XOOOOOOooX      ",
"   ..oOOOOOoXX.     ",
"    .XooOOOoX.      ",
"     XXooXoX..      ",
"       XX...        ",
"                    ",
"                    ",
"         O          ",
"        OO X        ",
"        @oX..       ",
"       @oo ....     ",
"      @@o   ....    ",
"      +o    .....X  ",
"          .X..  X O ",
"       ..o++X   ooO ",
"     XXoXoo+X   o@  ",
"   .XXooooooo  o@@  ",
"  ..XooOOOOoX oo@   ",
"   XoOOOOOooX. +    ",
"  ..XOOOOOOoX.      ",
"   .oOOOOOooX.      ",
"   .XoOOOOOoX       ",
"    XXoOOOoX..      ",
"     XXoXX.X.       ",
"       ....         ",
"                    ",
"                    ",
"           O        ",
"          O         ",
"         @ooX.      ",
"        @oo ...     ",
"       @oo   ...    ",
"        o    ....   ",
"      .    .......  ",
"    .X.XX.X+X.  .X  ",
"   .XXooooo++.   o O",
"  .XXooooOooX   ooO ",
"  .XoOoOOOoo.  oo@  ",
"  .XOOOOOOoXX oo@   ",
"   XoOOOOOoo.  @    ",
"  ..oOOOOooo.       ",
"   XXoOOOOoXX       ",
"    XXooOoXX.       ",
"     X.XXXX.        ",
"      . ...         ",
"                    ",
"                    ",
"                    ",
"            OO      ",
"          @@o X     ",
"         @@ooX.     ",
"        +oo   ..    ",
"         o    ...   ",
"    . ...    ....   ",
"   ..XXXXXoXX.....  ",
"   XXoooooo++X  ..X ",
"  ..oOoOoOoo+.   X  ",
"  .XOOOOOOooo   ooOO",
"  .XOOOOOOoX.  oo@O ",
"  .oOOOOOOoo. o@@   ",
"   XoOOOOooX  +@    ",
"   XXoOOOoXX        ",
"    XXoXoXX         ",
"     ...X..         ",
"       . .          ",
"                    ",
"                    ",
"                    ",
"                    ",
"            @OO     ",
"          @@@ooX    ",
"         +ooo X.    ",
"     .         ..   ",
"   ..XX.X.     ..   ",
"   .XXoooX.X......  ",
"  .Xoooooooo+X....  ",
"  .oOOOOOOoo+X  ..  ",
"  .XOOOOOOooX.   XX ",
"  XoOOOOOOoo.    o  ",
"  XooOOOOooX  ooo@OO",
"   XoOOOooX.  o@@   ",
"   XXoOoooX. +@     ",
"    ..XXXX          ",
"     .....          ",
"                    ",
"                    ",
"                    ",
"                    ",
"                    ",
"                    ",
"            @@@OO   ",
"          +@oooo    ",
"    ...X.  o   XX   ",
"  ..XXXoX.     ..   ",
"  .XooooooX.X.  ..  ",
"  .XoOOOOooo+X....  ",
"  XoOOOOOOoo+X....  ",
"  XoOOOOOOoo+.  ..  ",
"  XoOOOOOoooX   ..  ",
"  XoOOOOooXX.    X  ",
"   .XoOOooX. oooooO ",
"    .XooXX.  @@@@O  ",
"    ..XX.   +       ",
"      ..            ",
"                    ",
"                    ",
"                    ",
"                    ",
"                    ",
"                    ",
"                    ",
"     ...   +@@@@OO  ",
"   ..XXXX.  ooooo   ",
"   .XooooX.     XX  ",
"  .XoOOoooX.    ..  ",
"  XoOOOOOoooX.  ..  ",
"  XoOOOOOOoo+X....  ",
"  XoOOOOOOoo+X....  ",
"  XoOOOOOoooX.  ..  ",
"  .XoOOoooX.    ..  ",
"   .XooooX.     XX  ",
"   ..XXXX.  ooooo   ",
"     ...   +@@@@OO  ",
"                    ",
"                    ",
"                    ",
"                    ",
"                    ",
"                    ",
"                    ",
"      ..            ",
"    ..XX.   +       ",
"    .XooXX.  @@@@O  ",
"   .XoOOooX. oooooO ",
"  XoOOOOooXX.    X  ",
"  XoOOOOOoooX   ..  ",
"  XoOOOOOOoo+.  ..  ",
"  XoOOOOOOoo+X....  ",
"  .XoOOOOooo+X....  ",
"  .XooooooX.X.  ..  ",
"  ..XXXoX.     ..   ",
"    ...X.  o   XX   ",
"          +@oooo    ",
"            @@@OO   ",
"                    ",
"                    ",
"                    ",
"                    ",
"                    ",
"                    ",
"     .....          ",
"    ..XXXX          ",
"   XXoOoooX. +@     ",
"   XoOOOooX.  o@@   ",
"  XooOOOOooX  ooo@OO",
"  XoOOOOOOoo.    o  ",
"  .XOOOOOOooX.   XX ",
"  .oOOOOOOoo+X  ..  ",
"  .Xoooooooo+X....  ",
"   .XXoooX.X......  ",
"   ..XX.X.     ..   ",
"     .         ..   ",
"         +ooo X.    ",
"          @@@ooX    ",
"            @OO     ",
"                    ",
"                    ",
"                    ",
"                    ",
"       . .          ",
"     ...X..         ",
"    XXoXoXX         ",
"   XXoOOOoXX        ",
"   XoOOOOooX  +@    ",
"  .oOOOOOOoo. o@@   ",
"  .XOOOOOOoX.  oo@O ",
"  .XOOOOOOooo   ooOO",
"  ..oOoOoOoo+.   X  ",
"   XXoooooo++X  ..X ",
"   ..XXXXXoXX.....  ",
"    . ...    ....   ",
"         o    ...   ",
"        +oo   ..    ",
"         @@ooX.     ",
"          @@o X     ",
"            OO      ",
"                    ",
"                    ",
"                    ",
"      . ...         ",
"     X.XXXX.        ",
"    XXooOoXX.       ",
"   XXoOOOOoXX       ",
"  ..oOOOOooo..      ",
"   XoOOOOOooX  @    ",
"  .XOOOOOOooX oo@   ",
"  .XoOoOOOOo.  oo@  ",
"  .XXoooooooX   ooO ",
"   .XXooXoo++.   o O",
"    .X..X.X+X.  .X  ",
"           .......  ",
"        o    ....   ",
"       @oo   ...    ",
"        @oo ...     ",
"         @ooX.      ",
"          O         ",
"           O        ",
"                    ",
"                    ",
"       ....         ",
"     XXoXX.X.       ",
"    XXoOOOoX..      ",
"   .XoOOOOOoX       ",
"   .oOOOOOooX.      ",
"  ..XOOOOOOoX.      ",
"   XoOOOOOooX. +    ",
"  ..XooOOOOoX oo@   ",
"   .XXooooooo  o@@  ",
"     XXoXoo+X   o@  ",
"       ..o++X   ooO ",
"          .X..  X O ",
"      +o    .....X  ",
"      @@o   ....    ",
"       @oo ....     ",
"        @oX..       ",
"        OO X        ",
"         O          ",
"                    ",
"                    ",
"       XX...        ",
"     XXooXoX..      ",
"    .XooOOOoX.      ",
"   ..oOOOOOoXX.     ",
"   .XOOOOOOooX      ",
"   .XoOOOOOoo.      ",
"   .XooOOOOooX      ",
"   .XoooOOOoX. +    ",
"     XXooooo.  o@   ",
"     ..XooooX  o@   ",
"        .X++.  o@@  ",
"     +   .XX.   oO  ",
"     @oo   ..  XoO  ",
"      @o   .....X   ",
"      @o  .....     ",
"       @oX...       ",
"       O X          ",
"       O            ",
"                    ",
"                    ",
"       XXXX...      ",
"      .ooooXX.      ",
"    ..XOOOOooX.     ",
"    .XoOOOOOoX.     ",
"   .XoOOOOOOoX.     ",
"   .XoOOOOOOooX     ",
"    .XooOOOOoX.     ",
"     XoooOOoo.      ",
"     .XXooooX  +    ",
"      .Xoooo. o@    ",
"    +  .X+++X  o@   ",
"     @o  .XX.  o@   ",
"     @o   ..   o@   ",
"     @o   .. .XoO   ",
"     @o ......X O   ",
"     OoX.....       ",
"      O             ",
"                    ",
};
