/* XPM */
static char *bb0[] = {
/* width height ncolors chars_per_pixel */
"20  640 6 1"
/* colors */
"  c none",
"b c #00ffff",
"* c #b5b5b5",
"% c #d6d6d6",
"# c #e7e7e7",
"x c #ff0000",
/* pixels */
"                    ",
"       %%%%%%       ",
"     %%%****%%%     ",
"     %**####**%     ",
"    %%*######*%%    ",
"    %*########*%    ",
"    %%*######*%%    ",
"     %**####**%     ",
"     %%%****%%%     ",
"       %%%%%%       ",
"    xx  *%%*  xx    ",
"    b%  *%%*  %b    ",
"    b%***%%***%b    ",
"    b%%%%%%%%%%b    ",
"    b%********%b    ",
"    b%        %b    ",
"    %%        %%    ",
"                    ",
"                    ",
"                    "
"                    ",
"       % %%%%       ",
"      %*%****%%     ",
"     %%**####%%%    ",
"     %*######**%    ",
"     %%*######*%%   ",
"      %*#######*%   ",
"     %%%######*%%   ",
"       %****%*%     ",
"    xx %%%%%%%%     ",
"    b%  *%%*        ",
"    b%* *%%*  xx    ",
"   b%%%*%%%*  %b    ",
"   b%**%%%%%*%b     ",
"   b%  *****%%b     ",
"   %%       *%b     ",
"             %b     ",
"             %%     ",
"                    ",
"                    ",
"                    ",
"        %%%%%       ",
"       %%*%**%%     ",
"      %%*#*##**%    ",
"      %*######*%%%  ",
"      %%*######*%   ",
"      %**######*%   ",
"       %%######*%%  ",
"    xx %%***#**%%   ",
"    b%  *%%*%%*%    ",
"   b%*  *%%%% %     ",
"   b%%**%%**        ",
"  bb%*%%%%*  xx     ",
"  %% ***%%%**%b     ",
"   %    **%%%%b     ",
"          **%b      ",
"            %b      ",
"           %b       ",
"            %       ",
"                    ",
"                    ",
"          %%%       ",
"        %%*%%%%     ",
"       %*%**#**%    ",
"       %%#####**%   ",
"       %*######*%%  ",
"       %**######*%  ",
"    xx  %*#####*%%  ",
"    b%  %%*#####*%  ",
"   b%%  *%%****%%%  ",
"  bb%***%%%%%%%%%   ",
"  b%*%%*%%* % %     ",
" %%% **%%%*  x      ",
"      **%%**%xx     ",
"        **%*%b      ",
"         **%bb      ",
"          %%b       ",
"          %b        ",
"          %%        ",
"                    ",
"                    ",
"           %%       ",
"         %%%%%%     ",
"        %****%*%    ",
"        %%####**%   ",
"       %%*#####**%  ",
"     xx %**#####%%  ",
"    b%x %%######*%% ",
"   b%%   %*#####*%% ",
"  b%%** *%%*#*##*%  ",
" %%%*%**%%%%%**%*%  ",
"  % **%%%%*%%%%%%   ",
"     **%%*    %     ",
"      **%** x       ",
"       **%*%%x      ",
"        **%%b       ",
"         %%b        ",
"        %%b         ",
"         %          ",
"                    ",
"                    ",
"                    ",
"          %%%%%     ",
"         %%*%*%%    ",
"         %%#*#**%   ",
"      x %%*####**%  ",
"    bbxx %*#####*%  ",
"   bb%% %%*######%% ",
" %b%%**  %*#####*%% ",
" %%%*%***%%*####**% ",
"    **%%%%%%**##%%  ",
"     *%%%%*%%**%*%  ",
"      *%**   %%%%   ",
"      **%*          ",
"       *%*%%x       ",
"        *%%bx       ",
"       %%bb         ",
"       %bb          ",
"       %            ",
"                    ",
"                    ",
"                    ",
"            %  %    ",
"           %%%%%    ",
"          %%***%%   ",
"     bbx %**###**%  ",
"   bb%%x  %*####*%  ",
" %b%%%*  %%######*% ",
"  % *%* *%**#####*% ",
"    *%%**%%*####*%% ",
"     *%%%%%*#####*% ",
"     *%%%**%%**#*%% ",
"      *%*  %%*%*%%  ",
"      *%*    %%%%   ",
"      **%*%x        ",
"       %%%bx        ",
"     %%bbb          ",
"      %b            ",
"                    ",
"                    ",
"                    ",
"                    ",
"                    ",
"            %%%     ",
"       bx   %*%%%   ",
"  %bbbb%x %%*#**%%  ",
"  %%%%%   %*###*%%  ",
"    *%*   %%#####*% ",
"     *%***%*#####*% ",
"     *%%%%%*#####*% ",
"     *%%%%%*#####*% ",
"     *%%**%*####*%  ",
"     *%*  %%%**#**% ",
"      *%*   %%%*%%  ",
"      *%%%x % %%%   ",
"    %%%%bbx         ",
"    %bbb            ",
"                    ",
"                    ",
"                    ",
"                    ",
"                    ",
"                    ",
"                    ",
"   %bbbbbx   %%%    ",
"   %%%%%%x %%%*%%%  ",
"     *%*   %**#**%  ",
"     *%*  %%*###*%% ",
"     *%***%*#####*% ",
"     *%%%%%*#####*% ",
"     *%%%%%*#####*% ",
"     *%***%*#####*% ",
"     *%*  %%*###*%% ",
"     *%*   %**#**%  ",
"   %%%%%%x %%%*%%%  ",
"   %bbbbbx   %%%    ",
"                    ",
"                    ",
"                    ",
"                    ",
"                    ",
"                    ",
"                    ",
"    %bbb            ",
"    %%%%bbx         ",
"      *%%%x % %%%   ",
"      *%*   %%%*%%  ",
"     *%*  %%%**#**% ",
"     *%%**%*####*%  ",
"     *%%%%%*#####*% ",
"     *%%%%%*#####*% ",
"     *%***%*#####*% ",
"    *%*   %%#####*% ",
"  %%%%%   %*###*%%  ",
"  %bbbb%x %%*#**%%  ",
"       bx   %*%%%   ",
"            %%%     ",
"                    ",
"                    ",
"                    ",
"                    ",
"                    ",
"      %b            ",
"     %%bbb          ",
"       %%%bx        ",
"      **%*%x        ",
"      *%*    %%%%   ",
"      *%*  %%*%*%%  ",
"     *%%%**%%**#*%% ",
"     *%%%%%*#####*% ",
"    *%%**%%*####*%% ",
"  % *%* *%**#####*% ",
" %b%%%*  %%######*% ",
"   bb%%x  %*####*%  ",
"     bbx %**###**%  ",
"          %%***%%   ",
"           %%%%%    ",
"            %  %    ",
"                    ",
"                    ",
"                    ",
"       %            ",
"       %bb          ",
"       %%bb         ",
"        *%%bx       ",
"       *%*%%x       ",
"      **%*          ",
"      *%**   %%%%   ",
"     *%%%%*%%**%*%  ",
"    **%%%%%%**##%%  ",
" %%%*%***%%*####**% ",
" %b%%**  %*#####*%% ",
"   bb%% %%*######%% ",
"    bbxx %*#####*%  ",
"      x %%*####**%  ",
"         %%#*#**%   ",
"         %%*%*%%    ",
"          %%%%%     ",
"                    ",
"                    ",
"                    ",
"         %          ",
"        %%b         ",
"         %%b        ",
"        **%%b       ",
"       **%*%%x      ",
"      **%** xx      ",
"     **%%*    %     ",
"  % **%%%%* %%%%%   ",
" %%%*%**%%%%%**%*%  ",
"  b%%** *%%*#*##*%  ",
"   b%%  %%*#####*%% ",
"    b%x %%######*%% ",
"     x  %**#####%%  ",
"       %%*#####**%  ",
"        %%####**%   ",
"        %****%*%    ",
"         %%%%%%     ",
"           %%       ",
"                    ",
"                    ",
"          %%        ",
"          %b        ",
"          %%b       ",
"         **%bb      ",
"        **%*%b      ",
"      **%%**%xx     ",
" %%% **%%%*  x      ",
"  b%*%%*%%* % %     ",
"  bb%***%%%%%%%%%   ",
"   b%%  *%%****%%%  ",
"    b%  %%*#####*%  ",
"    xx  %*#####*%%  ",
"       %**######*%  ",
"       %*######*%%  ",
"       %%#####**%   ",
"       %*%**#**%    ",
"        %%*%%%%     ",
"          %%%       ",
"                    ",
"                    ",
"            %       ",
"           %b       ",
"            %b      ",
"          **%b      ",
"   %    **%%%%b     ",
"  %% ***%%%**%b     ",
"  bb%*%%%%*  xx     ",
"   b%%**%%**        ",
"   b%*  *%%%% %     ",
"    b%  *%%*%%*%    ",
"    xx %%***#**%%   ",
"       %%######*%%  ",
"      %**######*%   ",
"      %%*######*%   ",
"      %*######*%%%  ",
"      %%*#*##**%    ",
"       %%*%**%%     ",
"        %%%%%       ",
"                    ",
"                    ",
"                    ",
"             %%     ",
"             %b     ",
"   %%       *%b     ",
"   b%  *****%%b     ",
"   b%**%%%%%*%b     ",
"   b%%%*%%%*  %b    ",
"    b%* *%%*  xx    ",
"    b%  *%%*        ",
"    xx %%%%%%%%     ",
"       %****%*%     ",
"     %%%######*%%   ",
"      %*#######*%   ",
"     %%*######*%%   ",
"     %*######**%    ",
"     %%**####%%%    ",
"      %*%****%%     ",
"       % %%%%       ",
"                    ",
"                    ",
"                    ",
"                    ",
"    %%        %%    ",
"    b%        %b    ",
"    b%********%b    ",
"    b%%%%%%%%%%b    ",
"    b%***%%***%b    ",
"    b%  *%%*  %b    ",
"    xx  *%%*  xx    ",
"       %%%%%%       ",
"     %%%****%%%     ",
"     %**####**%     ",
"    %%*######*%%    ",
"    %*########*%    ",
"    %%*######*%%    ",
"     %**####**%     ",
"     %%%****%%%     ",
"       %%%%%%       ",
"                    ",
"                    ",
"                    ",
"     %%             ",
"     b%             ",
"     b%*       %%   ",
"     b%%*****  %b   ",
"     b%*%%%%%**%b   ",
"    b%  *%%%*%%%b   ",
"    xx  *%%* *%b    ",
"        *%%*  %b    ",
"     %%%%%%%% xx    ",
"     %*%****%       ",
"   %%*######%%%     ",
"   %*#######*%      ",
"   %%*######*%%     ",
"    %**######*%     ",
"    %%%####**%%     ",
"     %%****%*%      ",
"       %%%% %       ",
"                    ",
"                    ",
"       %            ",
"       b%           ",
"      b%            ",
"      b%**          ",
"     b%%%%**    %   ",
"     b%**%%%*** %%  ",
"     xx  *%%%%*%bb  ",
"        **%%**%%b   ",
"     % %%%%*  *%b   ",
"    %*%%*%%*  %b    ",
"   %%**#***%% xx    ",
"  %%*######%%       ",
"   %*######**%      ",
"   %*######*%%      ",
"  %%%*######*%      ",
"    %**##*#*%%      ",
"     %%**%*%%       ",
"       %%%%%        ",
"                    ",
"                    ",
"        %%          ",
"        b%          ",
"       b%%          ",
"      bb%**         ",
"      b%*%**        ",
"     xx%**%%**      ",
"      x  *%%%** %%% ",
"     % % *%%*%%*%b  ",
"   %%%%%%%%%***%bb  ",
"  %%%****%%*  %%b   ",
"  %*#####*%%  %b    ",
"  %%*#####*%  xx    ",
"  %*######**%       ",
"  %%*######*%       ",
"   %**#####%%       ",
"    %**#**%*%       ",
"     %%%%*%%        ",
"       %%%          ",
"                    ",
"                    ",
"          %         ",
"         b%%        ",
"        b%%         ",
"       b%%**        ",
"      x%%*%**       ",
"       x **%**      ",
"     %    *%%**     ",
"   %%%%%%*%%%%** %  ",
"  %*%**%%%%%**%*%%% ",
"  %*##*#*%%* **%%b  ",
" %%*#####*%   %%b   ",
" %%*######%% x%b    ",
"  %%#####**% xx     ",
"  %**#####*%%       ",
"   %**####%%        ",
"    %*%****%        ",
"     %%%%%%         ",
"       %%           ",
"                    ",
"                    ",
"            %       ",
"          bb%       ",
"         bb%%       ",
"       xb%%*        ",
"       x%%*%*       ",
"          *%**      ",
"   %%%%   **%*      ",
"  %*%**%%*%%%%*     ",
"  %%##**%%%%%%**    ",
" %**####*%%***%*%%% ",
" %%*#####*%  **%%b% ",
" %%######*%% %%bb   ",
"  %*#####*% xxbb    ",
"  %**####*%% x      ",
"   %**#*#%%         ",
"    %%*%*%%         ",
"     %%%%%          ",
"                    ",
"                    ",
"                    ",
"                    ",
"            b%      ",
"          bbb%%     ",
"        xb%%%       ",
"        x%*%**      ",
"   %%%%    *%*      ",
"  %%*%*%%  *%*      ",
" %%*#**%%**%%%*     ",
" %*#####*%%%%%*     ",
" %%*####*%%**%%*    ",
" %*#####**%* *%* %  ",
" %*######%%  *%%%b% ",
"  %*####*%  x%%bb   ",
"  %**###**% xbb     ",
"   %%***%%          ",
"    %%%%%           ",
"    %  %            ",
"                    ",
"                    ",
"                    ",
"                    ",
"                    ",
"            bbb%    ",
"         xbb%%%%    ",
"   %%% % x%%%*      ",
"  %%*%%%   *%*      ",
" %**#**%%%  *%*     ",
"  %*####*%**%%*     ",
" %*#####*%%%%%*     ",
" %*#####*%%%%%*     ",
" %*#####*%***%*     ",
" %*#####%%   *%*    ",
"  %%*###*%   %%%%%  ",
"  %%**#*%% x%bbbb%  ",
"   %%%*%   xb       ",
"     %%%            ",
"                    ",
"                    ",
"                    ",
"                    ",
"                    ",
"                    ",
"                    ",
"    %%%   xbbbbb%   ",
"  %%%*%%% x%%%%%%   ",
"  %**#**%   *%*     ",
" %%*###*%%  *%*     ",
" %*#####*%***%*     ",
" %*#####*%%%%%*     ",
" %*#####*%%%%%*     ",
" %*#####*%***%*     ",
" %%*###*%%  *%*     ",
"  %**#**%   *%*     ",
"  %%%*%%% x%%%%%%   ",
"    %%%   xbbbbb%   ",
"                    ",
"                    ",
"                    ",
"                    ",
"                    ",
"                    ",
"                    ",
"     %%%            ",
"   %%%*%   xb       ",
"  %%**#*%% x%bbbb%  ",
"  %%*###*%   %%%%%  ",
" %*#####%%   *%*    ",
" %*#####*%***%*     ",
" %*#####*%%%%%*     ",
" %*#####*%%%%%*     ",
"  %*####*%**%%*     ",
" %**#**%%%  *%*     ",
"  %%*%%%   *%*      ",
"   %%% % x%%%*      ",
"         xbb%%%%    ",
"            bbb%    ",
"                    ",
"                    ",
"                    ",
"                    ",
"                    ",
"    %  %            ",
"    %%%%%           ",
"   %%***%%          ",
"  %**###**% xbb     ",
"  %*####*%  x%%bb   ",
" %*######%%  *%%%b% ",
" %*#####**%* *%* %  ",
" %%*####*%%**%%*    ",
" %*#####*%%%%%*     ",
" %%*#**%%**%%%*     ",
"  %%*%*%%  *%*      ",
"   %%%%    *%*      ",
"        x%*%**      ",
"        xb%%%       ",
"          bbb%%     ",
"            b%      ",
"                    ",
"                    ",
"                    ",
"                    ",
"     %%%%%          ",
"    %%*%*%%         ",
"   %**#*#%%         ",
"  %**####*%% x      ",
"  %*#####*% xxbb    ",
" %%######*%% %%bb   ",
" %%*#####*%  **%%b% ",
" %**####*%%***%*%%% ",
"  %%##**%%%%%%**    ",
"  %*%**%%*%%%%*     ",
"   %%%%   **%*      ",
"          *%**      ",
"       x%%*%*       ",
"       xb%%*        ",
"         bb%%       ",
"          bb%       ",
"            %       ",
"                    ",
"                    ",
"       %%           ",
"     %%%%%%         ",
"    %*%****%        ",
"   %**####%%        ",
"  %**#####*%%       ",
"  %%#####**%  x     ",
" %%*######%% x%b    ",
" %%*#####*%%  %%b   ",
"  %*##*#*%%* **%%b  ",
"  %*%**%%%%%**%*%%% ",
"   %%%%% *%%%%** %  ",
"     %    *%%**     ",
"      xx **%**      ",
"      x%%*%**       ",
"       b%%**        ",
"        b%%         ",
"         b%%        ",
"          %         ",
"                    ",
"                    ",
"       %%%          ",
"     %%%%*%%        ",
"    %**#**%*%       ",
"   %**#####%%       ",
"  %%*######*%       ",
"  %*######**%       ",
"  %%*#####*%  xx    ",
"  %*#####*%%  %b    ",
"  %%%****%%*  %%b   ",
"   %%%%%%%%%***%bb  ",
"     % % *%%*%%*%b  ",
"      x  *%%%** %%% ",
"     xx%**%%**      ",
"      b%*%**        ",
"      bb%**         ",
"       b%%          ",
"        b%          ",
"        %%          ",
"                    ",
"                    ",
"       %%%%%        ",
"     %%**%*%%       ",
"    %**##*#*%%      ",
"  %%%*######*%      ",
"   %*######*%%      ",
"   %*######**%      ",
"  %%*######%%       ",
"   %%**#***%% xx    ",
"    %*%%*%%*  %b    ",
"     % %%%%*  *%b   ",
"        **%%**%%b   ",
"     xx  *%%%%*%bb  ",
"     b%**%%%*** %%  ",
"     b%%%%**    %   ",
"      b%**          ",
"      b%            ",
"       b%           ",
"       %            ",
"                    ",
"                    ",
"       %%%% %       ",
"     %%****%*%      ",
"    %%%####**%%     ",
"    %**######*%     ",
"   %%*######*%%     ",
"   %*#######*%      ",
"   %%*######%%%     ",
"     %*%****%       ",
"     %%%%%%%% xx    ",
"        *%%*  %b    ",
"    xx  *%%* *%b    ",
"    b%  *%%%*%%%b   ",
"     b%*%%%%%**%b   ",
"     b%%*****  %b   ",
"     b%*       %%   ",
"     b%             ",
"     %%             ",
"                    ",
"                    ",
};
