/* XPM */
static char * C3_xpm[] = {
/* width height colors chars_per_color */
"20  640 9 1"
/* colors */
" 	c None",
".	c #A0A0A0A00000",
"X	c #C8C8C8C80000",
"o	c #FFFFFFFF0000",
"O	c #787878780000",
"+	c #787878780000",
"@	c #787878780000",
"#	c #787878780000",
"$	c #787878780000",
/* pixmaps */
"                    ",
"        ....        ",
"       .XXXX.       ",
"      .XXooXX.      ",
"      .XXooXX.      ",
"      .XXooXX.      ",
"       .XXXX.       ",
"        XOOX        ",
"      +  ..  +      ",
"      o @XX@ o      ",
"      o #XX# o      ",
"      o #XX# o      ",
"      o#@XX@#o      ",
"      o#@XX@#o      ",
"      o $XX$ o      ",
"      o  $$  o      ",
"      o      o      ",
"      o      o      ",
"      #      #      ",
"                    ",
"                    ",
"          ...       ",
"       ..XXXX.      ",
"       .XXooX.      ",
"       .XXooXX.     ",
"        XXooXX.     ",
"        .XXXXX.     ",
"      + XOOOX.      ",
"      o  ..         ",
"      o @XX@ +      ",
"      o #XX# o      ",
"      o #XX# o      ",
"     o#@XXX@ o      ",
"     o @XX@#o       ",
"     o $XX$ o       ",
"     o  $$  o       ",
"     o      o       ",
"    #       o       ",
"           #        ",
"                    ",
"                    ",
"           ..       ",
"         ..XX..     ",
"        .XXXoXX     ",
"        .XXooXX.    ",
"         .XooXX.    ",
"         XXXoXX.    ",
"       + XOOX..     ",
"      o @ ..X       ",
"      o #XX  +      ",
"     oo #XX@ o      ",
"     o#@XX## o      ",
"     o#@XX@ o       ",
"    o $XXX@#o       ",
"    o  $X$#o        ",
"   o    $  o        ",
"   #       o        ",
"          o         ",
"          o         ",
"         #          ",
"                    ",
"                    ",
"          .....     ",
"          .XXXX.    ",
"         .XXooXX    ",
"         .XXooXX.   ",
"          XXooXX.   ",
"       o  OOXXX.    ",
"      o  @.OX...    ",
"      o #XX.        ",
"     o##XXX@ +      ",
"    o##@XX#  o      ",
"    o $XXX# o       ",
"   o  XXX@#o        ",
"  o   $$$ #o        ",
"  #    $  o         ",
"         o          ",
"         o          ",
"        o           ",
"                    ",
"                    ",
"                    ",
"             .      ",
"           .X.X.    ",
"          .XXXXX.   ",
"          .XXooXX   ",
"        +  XoooX..  ",
"       o  XOXoXXX   ",
"      o  @.OOXXX.   ",
"     o# #XX.X ..    ",
"    o##@XXX@        ",
"   o  @XXX#  +      ",
"  o  $XXX@  o       ",
" #   $XX@##o        ",
"      $$ #o         ",
"         o          ",
"        o           ",
"       o            ",
"      #             ",
"                    ",
"                    ",
"                    ",
"                    ",
"             ..     ",
"           ..XXX.   ",
"           .XXXXX.  ",
"        o+ .XoooX.  ",
"       o   XXoooX.  ",
"     oo  @.OOXXXX.  ",
"    o####XX.OXXX..  ",
"  oo  @XXXX@  ..    ",
" o   $XXXX#         ",
"    $$XX@#  o       ",
"     $X$##oo        ",
"        #o          ",
"       oo           ",
"      o             ",
"    #o              ",
"                    ",
"                    ",
"                    ",
"                    ",
"                    ",
"                    ",
"             ...    ",
"            .XXXX.  ",
"        oo+ .XXXX.  ",
"      oo   XXooooX. ",
"   ooo# #@ .OXooXX. ",
" oo  #@@#XX.OXXXX.  ",
"#    $XXXXX XX.XX.  ",
"    $XXXX##@   ..   ",
"     $X@@   +       ",
"      $##ooo        ",
"       ooo          ",
"     oo             ",
"   #o               ",
"                    ",
"                    ",
"                    ",
"                    ",
"                    ",
"                    ",
"                    ",
"                    ",
"             ...    ",
"       ooo+ .XXX..  ",
"  ooooo     XXXXXX. ",
" #    #@##@ OXoooX. ",
"     $@XXXX.OXoooX. ",
"    $XXXXXX.OXXXXX  ",
"    $XXX##@ X.XXX.  ",
"     $@@       ...  ",
"       #oooo+       ",
"   ooooo            ",
"  #                 ",
"                    ",
"                    ",
"                    ",
"                    ",
"                    ",
"                    ",
"                    ",
"                    ",
"                    ",
"                    ",
" #ooooooooo+  ...   ",
"      ##     .XXX.  ",
"     $@@##@ XXXXXX. ",
"    $XXXXXX.OXoooX. ",
"    $XXXXXX.OXoooX. ",
"     $@@##@ XXXXXX. ",
"      ##     .XXX.  ",
" #ooooooooo+  ...   ",
"                    ",
"                    ",
"                    ",
"                    ",
"                    ",
"                    ",
"                    ",
"                    ",
"                    ",
"                    ",
"  #                 ",
"   ooooo            ",
"       #oooo+       ",
"     $@@       ...  ",
"    $XXX##@ X.XXX.  ",
"    $XXXXXX.OXXXXX  ",
"     $@XXXX.OXoooX. ",
" #    #@##@ OXoooX. ",
"  ooooo     XXXXXX. ",
"       ooo+ .XXX..  ",
"             ...    ",
"                    ",
"                    ",
"                    ",
"                    ",
"                    ",
"                    ",
"                    ",
"                    ",
"   #o               ",
"     oo             ",
"       ooo          ",
"      $##ooo        ",
"     $X@@   +       ",
"    $XXXX##@   ..   ",
"#    $XXXXX XX.XX.  ",
" oo  #@@#XX.OXXXX.  ",
"   ooo# #@ .OXooXX. ",
"      oo   XXooooX. ",
"        oo+ .XXXX.  ",
"            .XXXX.  ",
"             ...    ",
"                    ",
"                    ",
"                    ",
"                    ",
"                    ",
"                    ",
"    #o              ",
"      o             ",
"       oo           ",
"        #o          ",
"     $X$##oo        ",
"    $$XX@#  o       ",
" o   $XXXX#         ",
"  oo  @XXXX@  ..    ",
"    o####XX.OXXX..  ",
"     oo  @.OOXXXX.  ",
"       o   XXoooX.  ",
"        o+ .XoooX.  ",
"           .XXXXX.  ",
"           ..XXX.   ",
"             ..     ",
"                    ",
"                    ",
"                    ",
"                    ",
"      #             ",
"       o            ",
"        o           ",
"         o          ",
"      $$ #o         ",
" #   $XX@##o        ",
"  o  $XXX@  o       ",
"   o  @XXX#  +      ",
"    o##@XXX@        ",
"     o# #XX.X ..    ",
"      o  @.OOXXX.   ",
"       o  XOXoXXX   ",
"        +  XoooX..  ",
"          .XXooXX   ",
"          .XXXXX.   ",
"           .X.X.    ",
"             .      ",
"                    ",
"                    ",
"                    ",
"        o           ",
"         o          ",
"         o          ",
"  #    $  o         ",
"  o   $$$ #o        ",
"   o  XXX@#o        ",
"    o $XXX# o       ",
"    o##@XX#  o      ",
"     o##XXX@ +      ",
"      o #XX.        ",
"      o  @.OX...    ",
"       o  OOXXX.    ",
"          XXooXX.   ",
"         .XXooXX.   ",
"         .XXooXX    ",
"          .XXXX.    ",
"          .....     ",
"                    ",
"                    ",
"         #          ",
"          o         ",
"          o         ",
"   #       o        ",
"   o    $  o        ",
"    o  $X$#o        ",
"    o $XXX@#o       ",
"     o#@XX@ o       ",
"     o#@XX## o      ",
"     oo #XX@ o      ",
"      o #XX  +      ",
"      o @ ..X       ",
"       + XOOX..     ",
"         XXXoXX.    ",
"         .XooXX.    ",
"        .XXooXX.    ",
"        .XXXoXX     ",
"         ..XX..     ",
"           ..       ",
"                    ",
"                    ",
"           #        ",
"    #       o       ",
"     o      o       ",
"     o  $$  o       ",
"     o $XX$ o       ",
"     o @XX@#o       ",
"     o#@XXX@ o      ",
"      o #XX# o      ",
"      o #XX# o      ",
"      o @XX@ +      ",
"      o  ..         ",
"      + XOOOX.      ",
"        .XXXXX.     ",
"        XXooXX.     ",
"       .XXooXX.     ",
"       .XXooX.      ",
"       ..XXXX.      ",
"          ...       ",
"                    ",
"                    ",
"      #      #      ",
"      o      o      ",
"      o      o      ",
"      o  $$  o      ",
"      o $XX$ o      ",
"      o#@XX@#o      ",
"      o#@XX@#o      ",
"      o #XX# o      ",
"      o #XX# o      ",
"      o @XX@ o      ",
"      +  ..  +      ",
"        XOOX        ",
"       .XXXX.       ",
"      .XXooXX.      ",
"      .XXooXX.      ",
"      .XXooXX.      ",
"       .XXXX.       ",
"        ....        ",
"                    ",
"                    ",
"        #           ",
"       o       #    ",
"       o      o     ",
"       o  $$  o     ",
"       o $XX$ o     ",
"       o#@XX@ o     ",
"      o @XXX@#o     ",
"      o #XX# o      ",
"      o #XX# o      ",
"      + @XX@ o      ",
"         ..  o      ",
"      .XOOOX +      ",
"     .XXXXX.        ",
"     .XXooXX        ",
"     .XXooXX.       ",
"      .XooXX.       ",
"      .XXXX..       ",
"       ...          ",
"                    ",
"          #         ",
"         o          ",
"         o          ",
"        o       #   ",
"        o  $    o   ",
"        o#$X$  o    ",
"       o#@XXX$ o    ",
"       o @XX@#o     ",
"      o ##XX@#o     ",
"      o @XX# oo     ",
"      +  XX# o      ",
"       X.. @ o      ",
"     ..XOOX +       ",
"    .XXoXXX         ",
"    .XXooX.         ",
"    .XXooXX.        ",
"     XXoXXX.        ",
"     ..XX..         ",
"       ..           ",
"                    ",
"                    ",
"           o        ",
"          o         ",
"          o         ",
"         o  $    #  ",
"        o# $$$   o  ",
"        o#@XXX  o   ",
"       o #XXX$ o    ",
"      o  #XX@##o    ",
"      + @XXX##o     ",
"        .XX# o      ",
"    ...XO.@  o      ",
"    .XXXOO  o       ",
"   .XXooXX          ",
"   .XXooXX.         ",
"    XXooXX.         ",
"    .XXXX.          ",
"     .....          ",
"                    ",
"                    ",
"                    ",
"             #      ",
"            o       ",
"           o        ",
"          o         ",
"         o# $$      ",
"        o##@XX$   # ",
"       o  @XXX$  o  ",
"      +  #XXX@  o   ",
"        @XXX@##o    ",
"    .. X.XX# #o     ",
"   .XXXOO.@  o      ",
"   XXXoXOX  o       ",
"  ..XoooX  +        ",
"   XXooXX.          ",
"   .XXXXX.          ",
"    .X.X.           ",
"      .             ",
"                    ",
"                    ",
"                    ",
"                    ",
"              o#    ",
"             o      ",
"           oo       ",
"          o#        ",
"        oo##$X$     ",
"       o  #@XX$$    ",
"         #XXXX$   o ",
"    ..  @XXXX@  oo  ",
"  ..XXXO.XX####o    ",
"  .XXXXOO.@  oo     ",
"  .XoooXX   o       ",
"  .XoooX. +o        ",
"  .XXXXX.           ",
"   .XXX..           ",
"     ..             ",
"                    ",
"                    ",
"                    ",
"                    ",
"                    ",
"                    ",
"               o#   ",
"             oo     ",
"          ooo       ",
"        ooo##$      ",
"       +   @@X$     ",
"   ..   @##XXXX$    ",
"  .XX.XX XXXXX$    #",
"  .XXXXO.XX#@@#  oo ",
" .XXooXO. @# #ooo   ",
" .XooooXX   oo      ",
"  .XXXX. +oo        ",
"  .XXXX.            ",
"    ...             ",
"                    ",
"                    ",
"                    ",
"                    ",
"                    ",
"                    ",
"                    ",
"                    ",
"                 #  ",
"            ooooo   ",
"       +oooo#       ",
"  ...       @@$     ",
"  .XXX.X @##XXX$    ",
"  XXXXXO.XXXXXX$    ",
" .XoooXO.XXXX@$     ",
" .XoooXO @##@#    # ",
" .XXXXXX     ooooo  ",
"  ..XXX. +ooo       ",
"    ...             ",
"                    ",
"                    ",
"                    ",
"                    ",
"                    ",
"                    ",
"                    ",
"                    ",
"                    ",
"                    ",
"                    ",
"   ...  +ooooooooo# ",
"  .XXX.     ##      ",
" .XXXXXX @##@@$     ",
" .XoooXO.XXXXXX$    ",
" .XoooXO.XXXXXX$    ",
" .XXXXXX @##@@$     ",
"  .XXX.     ##      ",
"   ...  +ooooooooo# ",
"                    ",
"                    ",
"                    ",
"                    ",
"                    ",
"                    ",
"                    ",
"                    ",
"                    ",
"                    ",
"                    ",
"    ...             ",
"  ..XXX. +ooo       ",
" .XXXXXX     ooooo  ",
" .XoooXO @##@#    # ",
" .XoooXO.XXXX@$     ",
"  XXXXXO.XXXXXX$    ",
"  .XXX.X @##XXX$    ",
"  ...       @@$     ",
"       +oooo#       ",
"            ooooo   ",
"                 #  ",
"                    ",
"                    ",
"                    ",
"                    ",
"                    ",
"                    ",
"                    ",
"                    ",
"    ...             ",
"  .XXXX.            ",
"  .XXXX. +oo        ",
" .XooooXX   oo      ",
" .XXooXO. @# #ooo   ",
"  .XXXXO.XX#@@#  oo ",
"  .XX.XX XXXXX$    #",
"   ..   @##XXXX$    ",
"       +   @@X$     ",
"        ooo##$      ",
"          ooo       ",
"             oo     ",
"               o#   ",
"                    ",
"                    ",
"                    ",
"                    ",
"                    ",
"                    ",
"     ..             ",
"   .XXX..           ",
"  .XXXXX.           ",
"  .XoooX. +o        ",
"  .XoooXX   o       ",
"  .XXXXOO.@  oo     ",
"  ..XXXO.XX####o    ",
"    ..  @XXXX@  oo  ",
"         #XXXX$   o ",
"       o  #@XX$$    ",
"        oo##$X$     ",
"          o#        ",
"           oo       ",
"             o      ",
"              o#    ",
"                    ",
"                    ",
"                    ",
"                    ",
"      .             ",
"    .X.X.           ",
"   .XXXXX.          ",
"   XXooXX.          ",
"  ..XoooX  +        ",
"   XXXoXOX  o       ",
"   .XXXOO.@  o      ",
"    .. X.XX# #o     ",
"        @XXX@##o    ",
"      +  #XXX@  o   ",
"       o  @XXX$  o  ",
"        o##@XX$   # ",
"         o# $$      ",
"          o         ",
"           o        ",
"            o       ",
"             #      ",
"                    ",
"                    ",
"                    ",
"     .....          ",
"    .XXXX.          ",
"    XXooXX.         ",
"   .XXooXX.         ",
"   .XXooXX          ",
"    .XXXOO  o       ",
"    ...XO.@  o      ",
"        .XX# o      ",
"      + @XXX##o     ",
"      o  #XX@##o    ",
"       o #XXX$ o    ",
"        o#@XXX  o   ",
"        o# $$$   o  ",
"         o  $    #  ",
"          o         ",
"          o         ",
"           o        ",
"                    ",
"                    ",
"       ..           ",
"     ..XX..         ",
"     XXoXXX.        ",
"    .XXooXX.        ",
"    .XXooX.         ",
"    .XXoXXX         ",
"     ..XOOX +       ",
"       X.. @ o      ",
"      +  XX# o      ",
"      o @XX# oo     ",
"      o ##XX@#o     ",
"       o @XX@#o     ",
"       o#@XXX$ o    ",
"        o#$X$  o    ",
"        o  $    o   ",
"        o       #   ",
"         o          ",
"         o          ",
"          #         ",
"                    ",
"       ...          ",
"      .XXXX..       ",
"      .XooXX.       ",
"     .XXooXX.       ",
"     .XXooXX        ",
"     .XXXXX.        ",
"      .XOOOX +      ",
"         ..  o      ",
"      + @XX@ o      ",
"      o #XX# o      ",
"      o #XX# o      ",
"      o @XXX@#o     ",
"       o#@XX@ o     ",
"       o $XX$ o     ",
"       o  $$  o     ",
"       o      o     ",
"       o       #    ",
"        #           ",
"                    ",
};
