/* XPM */
static char * C3_xpm[] = {
"20 320 8 1",
" 	c None",
".	c #B0B0B0B0B0B0",
"X	c #C1C1C1C1C1C1",
"o	c #D0D0D0D0D0D0",
"O	c #E0E0E0E0E0E0",
"+	c #FFFF00000000",
"@	c #D0D000000000",
"#	c #0000FFFFFFFF",
"                    ",
"                    ",
"      ...X...       ",
"    ..XXXoXXX..     ",
"    .XoooOoooX.     ",
"   .XoooOOOoooX.    ",
"   .XooOOOOOooX.    ",
"   .XooOOOOOooX.    ",
"    .XooOOOooX.     ",
"    ..XoooooX..     ",
"      .XoooX.       ",
"    +@ o+++o @+     ",
"    #o  ...  o#     ",
"    #o ..... o#     ",
"    #oX.....Xo#     ",
"    #oX.   .Xo#     ",
"    #oX     Xo#     ",
"    Oo       oO     ",
"                    ",
"                    ",
"                    ",
"       ......       ",
"      ..XXXXX..     ",
"     .XXoooooX..    ",
"     .XoooOOOoXX.   ",
"     .XooOOOOooX..  ",
"     .XoOOOOOOoo..  ",
"      .XoOOOOoooX.  ",
"    +  .oooOoooX.   ",
"    #@ oooooooX..   ",
"    #o  ++oX...     ",
"   #o X ..+O        ",
"   #oXX...   @+     ",
"  #oXX..... o#      ",
"  OXX    .XXo#      ",
"         .Xo#       ",
"          Xo#       ",
"          Xo#       ",
"           O        ",
"                    ",
"                    ",
"          ....      ",
"         .XoXX..    ",
"        .XooooX.X   ",
"        .oooOooo..  ",
"        .XoOOOOoX.  ",
"      + .XoOOOOooX. ",
"     #o@.XoOOOOOoo. ",
"    #oo oXooOOOooo. ",
"   #oo  .+oooooooX. ",
"  #ooX....+XXXooX.  ",
" .ooX......o.....   ",
"       ...  @       ",
"        ..  o+      ",
"        .XXo#       ",
"        XXo#        ",
"        Xo#         ",
"        o#          ",
"        .           ",
"                    ",
"                    ",
"                    ",
"            .       ",
"          ..X..     ",
"         .XXoXXX.   ",
"      +  .XooooX.   ",
"    ###@..ooOooX..  ",
"  ###oo .XoOOOOOoX  ",
" .ooo   oXoOOOOoX.. ",
"  .XX.. +ooOOOOooX. ",
"    ....+oooOOOooX. ",
"      ...+XoooooX.  ",
"      .. oXXooooX.  ",
"      ..   ..XXX..  ",
"     .XX o@  ....   ",
"     Xooo#+         ",
"     oO##           ",
"     .#             ",
"                    ",
"                    ",
"                    ",
"                    ",
"                    ",
"            ...     ",
"  O#####+ ..XXX..   ",
"  oooooo@ .Xooo..   ",
"   XXX   .XooooX..  ",
"    ... oXooOOooX.  ",
"     ...+ooOOOOoX.  ",
"     ...+ooOOOOOoX  ",
"     ...+ooOOOOoX.  ",
"    ... oXooOOooX.  ",
"   XXX   .XoooooX.  ",
"  oooooo@ .XoooX.   ",
"  O#####+ ..XXX..   ",
"            ...     ",
"                    ",
"                    ",
"                    ",
"                    ",
"                    ",
"                    ",
"     O#             ",
"     Xo##           ",
"     XXoo##+        ",
"      XX o@  ..     ",
"      .XX   .XX..   ",
"      ..  o.XoooX.  ",
"      ...+oooOoooX. ",
"    .....+ooOOOooX. ",
"  XXXX. +oooOOOOoX. ",
" OoooX  OXoOOOOOoX. ",
"  ###oo  .ooOOOOoX. ",
"     ##@ .oooOooX.  ",
"       + .XooooX..  ",
"          .XooXX.   ",
"          ..X...    ",
"            ..      ",
"                    ",
"                    ",
"                    ",
"        .           ",
"        o#          ",
"        oo#         ",
"        Xoo#        ",
"        .Xoo#       ",
"        .. oo+      ",
"       ...  @       ",
" .oXX......o.....   ",
"  #oXX....+oXXXoX.  ",
"   #oX  .+oooooooX. ",
"    #o  ooooOOOooo. ",
"     #o@.XoOOOOOoX. ",
"      + .XoOOOOooX. ",
"        .ooOOOOoX.  ",
"        .oooOooo..  ",
"        .XoooXX.X   ",
"         .Xoo...    ",
"          ...       ",
"                    ",
"                    ",
"           .        ",
"          .o#       ",
"          Xo#       ",
"         .Xo##      ",
"  .oX.   .. o#      ",
"  #OoX..... o#+     ",
"   #oX....   @      ",
"   #o   .++o..      ",
"    #o o+ooXX...    ",
"    +@ XXoooooXX.   ",
"      .XooOOOooX.   ",
"      .ooOOOOOooX.  ",
"     .XooOOOOooX.   ",
"     .XooOOOOooX.   ",
"     .XoooooOXXX    ",
"     ..XXooXo...    ",
"      ...XX.X.      ",
"         ...        ",
"                    ",
"                    ",
"                    ",
"     Oo       oO    ",
"     #oX     XoO    ",
"     #oX.   .Xo#    ",
"     #oX.....Xo#    ",
"     #o ..... o#    ",
"     #o  ...  o#    ",
"     +@ o+++o @+    ",
"       .XoooX.      ",
"     ..XoooooX..    ",
"     .XooOOOooX.    ",
"    .XooOOOOOooX.   ",
"    .XooOOOOOooX.   ",
"    .XoooOOOoooX.   ",
"     .XoooOooX..    ",
"     ..XXXoXX...    ",
"       ...X...      ",
"                    ",
"                    ",
"                    ",
"        O           ",
"       #oX          ",
"       #oX          ",
"       #oX.         ",
"      #oXX.    ooO  ",
"      #o .....XXX#  ",
"     +@   ...XXo#   ",
"        O+.. X o#   ",
"     ...Xo++  o#    ",
"   ..Xooooooo @#    ",
"   .XoooOooo.  +    ",
"  .XoooOOOOoX.      ",
"  ..ooOOOOOOoX.     ",
"   .XooOOOOooX.     ",
"   .XXoOOOooo.      ",
"    ..XoooooX.      ",
"     ..XXXXX.       ",
"       .....        ",
"                    ",
"                    ",
"           .        ",
"          #o        ",
"         #oX        ",
"        #oXX        ",
"       #oXX.        ",
"      +o  ..        ",
"       @  ...       ",
"   .....o......Xoo. ",
"  .XoXXXo+....Xoo#  ",
" .Xooooooo+.  oo#   ",
" .oooOOOoooo oo#    ",
" .XoOOOOOoX.@o#     ",
" ..XoOOOOoX. +      ",
"  .XoOOOOoX.        ",
"  ..XooOooo.        ",
"   X.XXoooX.        ",
"    ..XXoX.         ",
"      ....          ",
"                    ",
"                    ",
"                    ",
"             #.     ",
"           ##Oo     ",
"         +#oooX     ",
"   ....  @o XX.     ",
"  ..XXX..   ..      ",
"  .XooooXXo ..      ",
"  .Xoooooo+...      ",
" .XooOOOooo+....    ",
" .XooOOOOoo+ ..XX.  ",
" ..XoOOOOoXo   ooo. ",
"  XoOOOOOoX. oo###  ",
"  ..XooOoo..@###    ",
"   .XooooX.  +      ",
"   .XXXoXX.         ",
"     ..X..          ",
"       .            ",
"                    ",
"                    ",
"                    ",
"                    ",
"                    ",
"                    ",
"     ...            ",
"   ..XXX.. +#####O  ",
"   .XoooX. @oooooo  ",
"  .XoooooX.   XXX   ",
"  .XooOOooXo ...    ",
"  .XoOOOOoo+...     ",
"  XoOOOOOoo+...     ",
"  .XoOOOOoo+...     ",
"  .XooOOooXo ...    ",
"  ..XooooX.   XXX   ",
"   ..oooX. @oooooo  ",
"   ..XXX.. +####OO  ",
"     ...            ",
"                    ",
"                    ",
"                    ",
"                    ",
"                    ",
"      ..            ",
"    ...X..          ",
"   .XXooX.          ",
"  ..XooooX. +       ",
"  .XooOooo. @##     ",
" .XoOOOOoo.  oo###  ",
" .XoOOOOOoXO  Xooo. ",
" .XoOOOOooo+ .XXXX  ",
" .XooOOOoo+.....    ",
" .XoooOooo+...      ",
"  .XoooX.o  ..      ",
"   ..XX.   XX.      ",
"     ..  @o XX      ",
"        +##ooXo     ",
"           ##oo     ",
"             #O     ",
"                    ",
"                    ",
"                    ",
"      ....          ",
"    ...XoX.         ",
"   X.XXoooX.        ",
"  ..XooOooo.        ",
"  .XoOOOOoX.        ",
" .XXoOOOOoX. +      ",
" .XoOOOOOoX.@o#     ",
" .oooOOOoooo  o#    ",
" .Xooooooo+.  Xo#   ",
"  .XoXXXo+....XXo#  ",
"   .....o......XXo. ",
"       @  ...       ",
"      +oo ..        ",
"       #ooX.        ",
"        #ooX        ",
"         #oo        ",
"          #o        ",
"           .        ",
"                    ",
"                    ",
"        ...         ",
"      .X.XX...      ",
"    ...oXooXX..     ",
"    XXXOoooooX.     ",
"   .XooOOOOooX.     ",
"   .XooOOOOooX.     ",
"  .XooOOOOOoo.      ",
"   .XooOOOooX.      ",
"   .XXooooooX @+    ",
"    ...XXoo+o o#    ",
"      ..o++.   o#   ",
"      @   ....Xo#   ",
"     +#o .....XoO#  ",
"      #o ..   .Xo.  ",
"      ##oX.         ",
"       #oX          ",
"       #o.          ",
"        .           ",
"                    "};
