/* XPM */
static char *ca0[] = {
/* width height ncolors chars_per_pixel */
"20  640 6 1"
/* colors */
"  c #000000",
"b c #00ffff",
"* c #b5b5b5",
"% c #d6d6d6",
"# c #e7e7e7",
"x c #ff0000",
/* pixels */
"                    ",
"                    ",
"       %%%%%%       ",
"      %%****%%      ",
"     %%*####*%%     ",
"     %*######*%     ",
"     %%*####*%%     ",
"      %*####*%      ",
"      %%*##*%%      ",
"       %%**%%       ",
"     x  %%%%  x     ",
"     %  %%%%  %     ",
"     b   %%   b     ",
"     b   %%   b     ",
"     b% %%%% %b     ",
"     b%%%%%%%%b     ",
"     %        %     ",
"     %        %     ",
"                    ",
"                    "
"                    ",
"                    ",
"       %%%%%%       ",
"      %%%****%      ",
"      %**####%%     ",
"      %%#####*%%    ",
"       %*#####*%    ",
"      %%#####*%%    ",
"       %*##*%%      ",
"     x %%**%%%      ",
"     %  %%%%        ",
"     b  %%%%  x     ",
"    b   %%%   %     ",
"    b%  %%   b      ",
"    b%%%%%%  b      ",
"    %  %%%%%%b      ",
"    %       %b      ",
"             %      ",
"            %       ",
"                    ",
"                    ",
"                    ",
"         %%%%       ",
"       %%*%**%%     ",
"       %*###**%%    ",
"       %%*####*%    ",
"       %*######%%   ",
"       %%####**%    ",
"     x %%*###*%%    ",
"     %  %***%%%     ",
"    b   %%%%%       ",
"    b   %%%%        ",
"    b%  %%   x      ",
"   b% %%%%   %      ",
"   % %%%%%  bb      ",
"  %     %% %b       ",
"          %%b       ",
"           %        ",
"           %        ",
"                    ",
"                    ",
"                    ",
"         %%%%       ",
"        %%%%*%%     ",
"        %*###*%%    ",
"        %*####*%%   ",
"        %*#####*%   ",
"        %*#####%%   ",
"     %  %%###***%   ",
"    bb  %**#**%%    ",
"    b  %%%%%%%      ",
"   b%   %%% %       ",
"  %b% %%%%%  x      ",
"  % %%%%%   %x      ",
"      %%%   b       ",
"       %% %b        ",
"         %bb        ",
"          b         ",
"         %          ",
"                    ",
"                    ",
"                    ",
"          %  %      ",
"         %%%%%%     ",
"         %*#**%%    ",
"         %*###*%%   ",
"      x %**####*%%  ",
"     %x %%#####*%   ",
"    bb   %######%   ",
"   bb   %%*##***%%  ",
"  bb%   %%*%%*%%%   ",
" %%%   %%%%%%%      ",
" %  %%%%%           ",
"     %%%    x       ",
"      %%   b%       ",
"       % %bb        ",
"        %bb         ",
"        %b          ",
"       %%           ",
"                    ",
"                    ",
"                    ",
"                    ",
"           %%%%     ",
"          %*%*%%    ",
"          %*##*%%   ",
"      xx %**###*%   ",
"     b% %%*#####*%  ",
"   bb    %######%%  ",
"  bb%  %%%*#####%%  ",
" % %   %%%*%****%%  ",
"    %%%%%%%%%%%%%   ",
"    %%%% %          ",
"     %%%            ",
"      %   b%        ",
"      %%%bb         ",
"       bb           ",
"      %%            ",
"                    ",
"                    ",
"                    ",
"                    ",
"                    ",
"             %      ",
"           %%%%%    ",
"          %%*#*%%   ",
"     b%x  %**##*%   ",
"   bbb   %%####**%  ",
" %%%%   %%*#####*%  ",
"   %    %%*#####%%  ",
"    %%%%%%**##*#*%  ",
"    %%%%%%%%%*%*%   ",
"     %%    %%%%%%   ",
"     %%             ",
"     % %  %x        ",
"      %bbb          ",
"     %b             ",
"    %               ",
"                    ",
"                    ",
"                    ",
"                    ",
"                    ",
"                    ",
"            %%%     ",
"       %x   %*%%    ",
"  %bbbb   %%*#*%%   ",
" % %%     %%####*%  ",
"    %   %%%*####*%  ",
"    %% %%%*#####*%  ",
"    %%%%%%*#####*%  ",
"    %%%%%%%*#*#*%%  ",
"    %%    %%%%%*%%  ",
"     %      % %%%   ",
"     %% b%x         ",
"   %%bbb            ",
"                    ",
"                    ",
"                    ",
"                    ",
"                    ",
"                    ",
"                    ",
"                    ",
"                    ",
"  %%bbbb%x   %%%    ",
"    %%     %%%*%%   ",
"    %     %%**#*%%  ",
"    %%  %%%*####*%  ",
"    %%%%%%*#####*%  ",
"    %%%%%%*#####*%  ",
"    %%  %%%*####*%  ",
"    %     %%**#*%%  ",
"    %%     %%%*%%   ",
"  %%bbbb%x   %%%    ",
"                    ",
"                    ",
"                    ",
"                    ",
"                    ",
"                    ",
"                    ",
"                    ",
"                    ",
"   %%bbb            ",
"     %% b%x         ",
"     %      % %%%   ",
"    %%    %%%%%*%%  ",
"    %%%%%%%*#*#*%%  ",
"    %%%%%%*#####*%  ",
"    %% %%%*#####*%  ",
"    %   %%%*####*%  ",
" % %%     %%####*%  ",
"  %bbbb   %%*#*%%   ",
"       %x   %*%%    ",
"            %%%     ",
"                    ",
"                    ",
"                    ",
"                    ",
"                    ",
"                    ",
"    %               ",
"     %b             ",
"      %bbb          ",
"     % %  %x        ",
"     %%             ",
"     %%    %%%%%%   ",
"    %%%%%%%%%*%*%   ",
"    %%%%%%**##*#*%  ",
"   %    %%*#####%%  ",
" %%%%   %%*#####*%  ",
"   bbb   %%####**%  ",
"     b%x  %**##*%   ",
"          %%*#*%%   ",
"           %%%%%    ",
"             %      ",
"                    ",
"                    ",
"                    ",
"                    ",
"                    ",
"      %%            ",
"       bb           ",
"      %%%bb         ",
"      %   b%        ",
"     %%%            ",
"    %%%% %          ",
"    %%%%%%%%%%%%%   ",
" % %   %%%*%****%%  ",
"  bb%  %%%*#####%%  ",
"   bb    %######%%  ",
"     b% %%*#####*%  ",
"      xx %**###*%   ",
"          %*##*%%   ",
"          %*%*%%    ",
"           %%%%     ",
"                    ",
"                    ",
"                    ",
"                    ",
"       %%           ",
"        %b          ",
"        %bb         ",
"       % %bb        ",
"      %%   b%       ",
"     %%%    xx      ",
" %  %%%%%           ",
" %%%   %%%% %%      ",
"  bb%   %%%%%*%%%   ",
"   bb   %**##***%%  ",
"    bb  %%######%   ",
"     %x %%#####*%   ",
"        %**####*%%  ",
"         %*###*%%   ",
"         %*#**%%    ",
"         %%%%%%     ",
"          %  %      ",
"                    ",
"                    ",
"                    ",
"         %          ",
"          b         ",
"         %bb        ",
"       %% %b        ",
"      %%%   b       ",
"  % %%%%%   %x      ",
"  %b% %%%%%  x      ",
"   b%   %%% %       ",
"    b  %%%%%%%      ",
"    bb  %**#**%%    ",
"     %  %%###***%   ",
"        %*#####%%   ",
"        %*#####*%   ",
"        %*####*%%   ",
"        %*###*%%    ",
"        %%%%*%%     ",
"         %%%%       ",
"                    ",
"                    ",
"                    ",
"           %        ",
"           %        ",
"          %%b       ",
"  %     %% %b       ",
"   % %%%%%  bb      ",
"   b% %%%%   %      ",
"    b%  %%   x      ",
"    b   %%%%        ",
"    b   %%%%%       ",
"     %  %***%%%     ",
"     x %%*###*%%    ",
"       %%####**%    ",
"       %*######%%   ",
"       %%*####*%    ",
"       %*###**%%    ",
"       %%*%**%%     ",
"         %%%%       ",
"                    ",
"                    ",
"                    ",
"            %       ",
"             %      ",
"    %       %b      ",
"    %  %%%%%%b      ",
"    b%%%%%%  b      ",
"    b%  %%   b      ",
"    b   %%%   %     ",
"     b  %%%%  x     ",
"     %  %%%%        ",
"     x %%**%%%      ",
"       %*##*%%      ",
"      %%#####*%%    ",
"       %*#####*%    ",
"      %%#####*%%    ",
"      %**####%%     ",
"      %%%****%      ",
"       %%%%%%       ",
"                    ",
"                    ",
"                    ",
"                    ",
"     %        %     ",
"     %        %     ",
"     b%%%%%%%%b     ",
"     b% %%%% %b     ",
"     b   %%   b     ",
"     b   %%   b     ",
"     %  %%%%  %     ",
"     x  %%%%  x     ",
"       %%**%%       ",
"      %%*##*%%      ",
"      %*####*%      ",
"     %%*####*%%     ",
"     %*######*%     ",
"     %%*####*%%     ",
"      %%****%%      ",
"       %%%%%%       ",
"                    ",
"                    ",
"                    ",
"       %            ",
"      %             ",
"      b%       %    ",
"      b%%%%%%  %    ",
"      b  %%%%%%b    ",
"      b   %%  %b    ",
"     %   %%%   b    ",
"     x  %%%%  b     ",
"        %%%%  %     ",
"      %%%**%% x     ",
"      %%*##*%       ",
"    %%*#####%%      ",
"    %*#####*%       ",
"    %%*#####%%      ",
"     %%####**%      ",
"      %****%%%      ",
"       %%%%%%       ",
"                    ",
"                    ",
"                    ",
"        %           ",
"        %           ",
"       b%%          ",
"       b% %%     %  ",
"      bb  %%%%% %   ",
"      %   %%%% %b   ",
"      x   %%  %b    ",
"        %%%%   b    ",
"       %%%%%   b    ",
"     %%%***%  %     ",
"    %%*###*%% x     ",
"    %**####%%       ",
"   %%######*%       ",
"    %*####*%%       ",
"    %%**###*%       ",
"     %%**%*%%       ",
"       %%%%         ",
"                    ",
"                    ",
"                    ",
"          %         ",
"         b          ",
"        bb%         ",
"        b% %%       ",
"       b   %%%      ",
"      x%   %%%%% %  ",
"      x  %%%%% %b%  ",
"       % %%%   %b   ",
"      %%%%%%%  b    ",
"    %%**#**%  bb    ",
"   %***###%%  %     ",
"   %%#####*%        ",
"   %*#####*%        ",
"   %%*####*%        ",
"    %%*###*%        ",
"     %%*%%%%        ",
"       %%%%         ",
"                    ",
"                    ",
"                    ",
"           %%       ",
"          b%        ",
"         bb%        ",
"        bb% %       ",
"       %b   %%      ",
"       x    %%%     ",
"           %%%%%  % ",
"      %%%%%%%   %%% ",
"   %%%*%%*%%   %bb  ",
"  %%***##*%%   bb   ",
"   %######%   bb    ",
"   %*#####%% x%     ",
"  %%*####**% x      ",
"   %%*###*%         ",
"    %%**#*%         ",
"     %%%%%%         ",
"      %  %          ",
"                    ",
"                    ",
"                    ",
"                    ",
"            %%      ",
"           bb       ",
"         bb%%%      ",
"        %b   %      ",
"            %%%     ",
"          % %%%%    ",
"   %%%%%%%%%%%%%    ",
"  %%****%*%%%   % % ",
"  %%#####*%%%  %bb  ",
"  %%######%    bb   ",
"  %*#####*%% %b     ",
"   %*###**% xx      ",
"   %%*##*%          ",
"    %%*%*%          ",
"     %%%%           ",
"                    ",
"                    ",
"                    ",
"                    ",
"                    ",
"               %    ",
"             b%     ",
"          bbb%      ",
"        x%  % %     ",
"             %%     ",
"   %%%%%%    %%     ",
"   %*%*%%%%%%%%%    ",
"  %*#*##**%%%%%%    ",
"  %%#####*%%    %   ",
"  %*#####*%%   %%%% ",
"  %**####%%   bbb   ",
"   %*##**%  x%b     ",
"   %%*#*%%          ",
"    %%%%%           ",
"      %             ",
"                    ",
"                    ",
"                    ",
"                    ",
"                    ",
"                    ",
"                    ",
"            bbb%%   ",
"         x%b %%     ",
"   %%% %      %     ",
"  %%*%%%%%    %%    ",
"  %%*#*#*%%%%%%%    ",
"  %*#####*%%%%%%    ",
"  %*#####*%%% %%    ",
"  %*####*%%%   %    ",
"  %*####%%     %% % ",
"   %%*#*%%   bbbb%  ",
"    %%*%   x%       ",
"     %%%            ",
"                    ",
"                    ",
"                    ",
"                    ",
"                    ",
"                    ",
"                    ",
"                    ",
"                    ",
"    %%%   x%bbbb%%  ",
"   %%*%%%     %%    ",
"  %%*#**%%     %    ",
"  %*####*%%%  %%    ",
"  %*#####*%%%%%%    ",
"  %*#####*%%%%%%    ",
"  %*####*%%%  %%    ",
"  %%*#**%%     %    ",
"   %%*%%%     %%    ",
"    %%%   x%bbbb%%  ",
"                    ",
"                    ",
"                    ",
"                    ",
"                    ",
"                    ",
"                    ",
"                    ",
"                    ",
"     %%%            ",
"    %%*%   x%       ",
"   %%*#*%%   bbbb%  ",
"  %*####%%     %% % ",
"  %*####*%%%   %    ",
"  %*#####*%%% %%    ",
"  %*#####*%%%%%%    ",
"  %%*#*#*%%%%%%%    ",
"  %%*%%%%%    %%    ",
"   %%% %      %     ",
"         x%b %%     ",
"            bbb%%   ",
"                    ",
"                    ",
"                    ",
"                    ",
"                    ",
"                    ",
"                    ",
"      %             ",
"    %%%%%           ",
"   %%*#*%%          ",
"   %*##**%  x%b     ",
"  %**####%%   bbb   ",
"  %*#####*%%   %%%% ",
"  %%#####*%%    %   ",
"  %*#*##**%%%%%%    ",
"   %*%*%%%%%%%%%    ",
"   %%%%%%    %%     ",
"             %%     ",
"        x%  % %     ",
"          bbb%      ",
"             b%     ",
"               %    ",
"                    ",
"                    ",
"                    ",
"                    ",
"                    ",
"     %%%%           ",
"    %%*%*%          ",
"   %%*##*%          ",
"   %*###**% xx      ",
"  %*#####*%% %b     ",
"  %%######%    bb   ",
"  %%#####*%%%  %bb  ",
"  %%****%*%%%   % % ",
"   %%%%%%%%%%%%%    ",
"          % %%%%    ",
"            %%%     ",
"        %b   %      ",
"         bb%%%      ",
"           bb       ",
"            %%      ",
"                    ",
"                    ",
"                    ",
"                    ",
"      %  %          ",
"     %%%%%%         ",
"    %%**#*%         ",
"   %%*###*%         ",
"  %%*####**%        ",
"   %*#####%% x%     ",
"   %######%%  bb    ",
"  %%***##**%   bb   ",
"   %%%*%%%%%   %bb  ",
"      %% %%%%   %%% ",
"           %%%%%  % ",
"      xx    %%%     ",
"       %b   %%      ",
"        bb% %       ",
"         bb%        ",
"          b%        ",
"           %%       ",
"                    ",
"                    ",
"                    ",
"       %%%%         ",
"     %%*%%%%        ",
"    %%*###*%        ",
"   %%*####*%        ",
"   %*#####*%        ",
"   %%#####*%        ",
"   %***###%%  %     ",
"    %%**#**%  bb    ",
"      %%%%%%%  b    ",
"       % %%%   %b   ",
"      x  %%%%% %b%  ",
"      x%   %%%%% %  ",
"       b   %%%      ",
"        b% %%       ",
"        bb%         ",
"         b          ",
"          %         ",
"                    ",
"                    ",
"                    ",
"       %%%%         ",
"     %%**%*%%       ",
"    %%**###*%       ",
"    %*####*%%       ",
"   %%######*%       ",
"    %**####%%       ",
"    %%*###*%% x     ",
"     %%%***%  %     ",
"       %%%%%   b    ",
"        %%%%   b    ",
"      x   %%  %b    ",
"      %   %%%% %b   ",
"      bb  %%%%% %   ",
"       b% %%     %  ",
"       b%%          ",
"        %           ",
"        %           ",
"                    ",
"                    ",
"                    ",
"       %%%%%%       ",
"      %****%%%      ",
"     %%####**%      ",
"    %%*#####%%      ",
"    %*#####*%       ",
"    %%*#####%%      ",
"      %%*##*%       ",
"      %%%**%% x     ",
"        %%%%  %     ",
"     x  %%%%  b     ",
"     %   %%%   b    ",
"      b   %%  %b    ",
"      b  %%%%%%b    ",
"      b%%%%%%  %    ",
"      b%       %    ",
"      %             ",
"       %            ",
"                    ",
};
