/* XPM */
static char * C2_xpm[] = {
/* width height colors chars_per_color */
"20  640 9 1"
/* colors */
" 	c None",
".	c #A0A0A0A00000",
"X	c #C8C8C8C80000",
"o	c #FFFFFFFF0000",
"O	c #787878780000",
"+	c #787878780000",
"@	c #787878780000",
"#	c #787878780000",
"$	c #787878780000",
/* pixels */
"                    ",
"        .XX.        ",
"       .XXXX.       ",
"      .XXooXX.      ",
"      .XXooXX.      ",
"      .XXooXX.      ",
"       .XXXX.       ",
"        XOOX        ",
"      +  ..  +      ",
"      o  ..  o      ",
"      o @..@ o      ",
"      o#@..@#o      ",
"      o# .. #o      ",
"      o  $$  o      ",
"      o      o      ",
"      o      o      ",
"      o      o      ",
"      #      #      ",
"                    ",
"                    ",
"                    ",
"          .XX       ",
"       ..XXXX.      ",
"       .XXooX.      ",
"       .XXooXX.     ",
"        XXooXX.     ",
"        .XXXXX.     ",
"      + XOOOX.      ",
"      o  ..         ",
"      o  ..  +      ",
"      o @..@ o      ",
"      o#@..@ o      ",
"     o  ... #o      ",
"     o  $$  o       ",
"     o      o       ",
"     o      o       ",
"     #      o       ",
"            o       ",
"                    ",
"                    ",
"                    ",
"           .X       ",
"         ..XXX.     ",
"        .XXXoXX     ",
"        .XXooXX.    ",
"         .XooXX.    ",
"         XXXoXX.    ",
"       + XOOX..     ",
"      o   ..X       ",
"      o @..  +      ",
"     oo#@..  o      ",
"     o# ..@@ o      ",
"     o  .. #o       ",
"    o   $$ #o       ",
"    o      o        ",
"   #       o        ",
"           o        ",
"          o         ",
"          #         ",
"                    ",
"                    ",
"                    ",
"          ....X     ",
"          .XXXXX    ",
"         .XXooXX    ",
"         .XXooXX.   ",
"          XXooXX.   ",
"       o  OOXXX.    ",
"      o   .OX...    ",
"      o @...        ",
"     o#@...  +      ",
"    o   ..@  o      ",
"    o  $..@#o       ",
"   o    $ #o        ",
"  #        o        ",
"          o         ",
"         o          ",
"         o          ",
"        #           ",
"                    ",
"                    ",
"                    ",
"             .      ",
"           .X.XX    ",
"          .XXXXXX   ",
"          .XXooXX   ",
"        +  XoooX..  ",
"       o  XOXoXXX   ",
"      o   .OOXXX.   ",
"     o##@...X ..    ",
"    o # ...         ",
"   o   ...@  +      ",
"  #    $. # o       ",
"         ##o        ",
"          o         ",
"         o          ",
"        o           ",
"       #            ",
"                    ",
"                    ",
"                    ",
"                    ",
"                    ",
"             ..     ",
"           ..XXXX   ",
"           .XXXXXX  ",
"        o+ .XoooX.  ",
"       o   XXoooX.  ",
"     oo#  .OOXXXX.  ",
"    o #@@...OXXX..  ",
"  oo   ....   ..    ",
" #    $...@         ",
"       $ @  o       ",
"         #oo        ",
"         o          ",
"       oo           ",
"      o             ",
"     #              ",
"                    ",
"                    ",
"                    ",
"                    ",
"                    ",
"                    ",
"             ...    ",
"            .XXXX.  ",
"        oo+ .XXXXX  ",
"      oo   XXooooXX ",
"   ooo##@  .OXooXX. ",
" #o     @...OXXXX.  ",
"      $.... XX.XX.  ",
"      $..@@    ..   ",
"         #  +       ",
"        #ooo        ",
"       ooo          ",
"     oo             ",
"    #               ",
"                    ",
"                    ",
"                    ",
"                    ",
"                    ",
"                    ",
"                    ",
"                    ",
"             ...    ",
"       ooo+ .XXX..  ",
"  ooooo#    XXXXXXX ",
"        @@  OXoooXX ",
"       .....OXoooX. ",
"      $.....OXXXXX  ",
"      $.@@  X.XXX.  ",
"        #      ...  ",
"        oooo+       ",
"   #oooo            ",
"                    ",
"                    ",
"                    ",
"                    ",
"                    ",
"                    ",
"                    ",
"                    ",
"                    ",
"                    ",
"                    ",
"  #oooooooo+  ...   ",
"       ##    .XXX.  ",
"        @@  XXXXXX. ",
"      $.....OXoooXX ",
"      $.....OXoooXX ",
"        @@  XXXXXX. ",
"       ##    .XXX.  ",
"  #oooooooo+  ...   ",
"                    ",
"                    ",
"                    ",
"                    ",
"                    ",
"                    ",
"                    ",
"                    ",
"                    ",
"                    ",
"                    ",
"   #oooo            ",
"        oooo+       ",
"        #      ...  ",
"      $.@@  X.XXX.  ",
"      $.....OXXXXX  ",
"       .....OXoooX. ",
"        @@  OXoooXX ",
"  ooooo#    XXXXXXX ",
"       ooo+ .XXX..  ",
"             ...    ",
"                    ",
"                    ",
"                    ",
"                    ",
"                    ",
"                    ",
"                    ",
"                    ",
"    #               ",
"     oo             ",
"       ooo          ",
"        #ooo        ",
"         #  +       ",
"      $..@@    ..   ",
"      $.... XX.XX.  ",
" #o     @...OXXXX.  ",
"   ooo##@  .OXooXX. ",
"      oo   XXooooXX ",
"        oo+ .XXXXX  ",
"            .XXXX.  ",
"             ...    ",
"                    ",
"                    ",
"                    ",
"                    ",
"                    ",
"                    ",
"     #              ",
"      o             ",
"       oo           ",
"         o          ",
"         #oo        ",
"       $ @  o       ",
" #    $...@         ",
"  oo   ....   ..    ",
"    o #@@...OXXX..  ",
"     oo#  .OOXXXX.  ",
"       o   XXoooX.  ",
"        o+ .XoooX.  ",
"           .XXXXXX  ",
"           ..XXXX   ",
"             ..     ",
"                    ",
"                    ",
"                    ",
"                    ",
"                    ",
"       #            ",
"        o           ",
"         o          ",
"          o         ",
"         ##o        ",
"  #    $. # o       ",
"   o   ...@  +      ",
"    o # ...         ",
"     o##@...X ..    ",
"      o   .OOXXX.   ",
"       o  XOXoXXX   ",
"        +  XoooX..  ",
"          .XXooXX   ",
"          .XXXXXX   ",
"           .X.XX    ",
"             .      ",
"                    ",
"                    ",
"                    ",
"        #           ",
"         o          ",
"         o          ",
"          o         ",
"  #        o        ",
"   o    $ #o        ",
"    o  $..@#o       ",
"    o   ..@  o      ",
"     o#@...  +      ",
"      o @...        ",
"      o   .OX...    ",
"       o  OOXXX.    ",
"          XXooXX.   ",
"         .XXooXX.   ",
"         .XXooXX    ",
"          .XXXXX    ",
"          ....X     ",
"                    ",
"                    ",
"                    ",
"          #         ",
"          o         ",
"           o        ",
"   #       o        ",
"    o      o        ",
"    o   $$ #o       ",
"     o  .. #o       ",
"     o# ..@@ o      ",
"     oo#@..  o      ",
"      o @..  +      ",
"      o   ..X       ",
"       + XOOX..     ",
"         XXXoXX.    ",
"         .XooXX.    ",
"        .XXooXX.    ",
"        .XXXoXX     ",
"         ..XXX.     ",
"           .X       ",
"                    ",
"                    ",
"                    ",
"            o       ",
"     #      o       ",
"     o      o       ",
"     o      o       ",
"     o  $$  o       ",
"     o  ... #o      ",
"      o#@..@ o      ",
"      o @..@ o      ",
"      o  ..  +      ",
"      o  ..         ",
"      + XOOOX.      ",
"        .XXXXX.     ",
"        XXooXX.     ",
"       .XXooXX.     ",
"       .XXooX.      ",
"       ..XXXX.      ",
"          .XX       ",
"                    ",
"                    ",
"                    ",
"      #      #      ",
"      o      o      ",
"      o      o      ",
"      o      o      ",
"      o  $$  o      ",
"      o# .. #o      ",
"      o#@..@#o      ",
"      o @..@ o      ",
"      o  ..  o      ",
"      +  ..  +      ",
"        XOOX        ",
"       .XXXX.       ",
"      .XXooXX.      ",
"      .XXooXX.      ",
"      .XXooXX.      ",
"       .XXXX.       ",
"        .XX.        ",
"                    ",
"                    ",
"                    ",
"       o            ",
"       o      #     ",
"       o      o     ",
"       o      o     ",
"       o  $$  o     ",
"      o# ...  o     ",
"      o @..@#o      ",
"      o @..@ o      ",
"      +  ..  o      ",
"         ..  o      ",
"      .XOOOX +      ",
"     .XXXXX.        ",
"     .XXooXX        ",
"     .XXooXX.       ",
"      .XooXX.       ",
"      .XXXX..       ",
"       XX.          ",
"                    ",
"                    ",
"         #          ",
"         o          ",
"        o           ",
"        o       #   ",
"        o      o    ",
"       o# $$   o    ",
"       o# ..  o     ",
"      o @@.. #o     ",
"      o  ..@#oo     ",
"      +  ..@ o      ",
"       X..   o      ",
"     ..XOOX +       ",
"    .XXoXXX         ",
"    .XXooX.         ",
"    .XXooXX.        ",
"     XXoXXX.        ",
"     .XXX..         ",
"       X.           ",
"                    ",
"                    ",
"           #        ",
"          o         ",
"          o         ",
"         o          ",
"        o        #  ",
"        o# $    o   ",
"       o#@..$  o    ",
"      o  @..   o    ",
"      +  ...@#o     ",
"        ...@ o      ",
"    ...XO.   o      ",
"    .XXXOO  o       ",
"   .XXooXX          ",
"   .XXooXX.         ",
"    XXooXX.         ",
"    XXXXX.          ",
"     X....          ",
"                    ",
"                    ",
"                    ",
"                    ",
"            #       ",
"           o        ",
"          o         ",
"         o          ",
"        o##         ",
"       o # .$    #  ",
"      +  @...   o   ",
"         ... # o    ",
"    .. X...@##o     ",
"   .XXXOO.   o      ",
"   XXXoXOX  o       ",
"  ..XoooX  +        ",
"   XXooXX.          ",
"   XXXXXX.          ",
"    XX.X.           ",
"      .             ",
"                    ",
"                    ",
"                    ",
"                    ",
"              #     ",
"             o      ",
"           oo       ",
"          o         ",
"        oo#         ",
"       o  @ $       ",
"         @...$    # ",
"    ..   ....   oo  ",
"  ..XXXO...@@# o    ",
"  .XXXXOO.  #oo     ",
"  .XoooXX   o       ",
"  .XoooX. +o        ",
"  XXXXXX.           ",
"   XXXX..           ",
"     ..             ",
"                    ",
"                    ",
"                    ",
"                    ",
"                    ",
"                    ",
"               #    ",
"             oo     ",
"          ooo       ",
"        ooo#        ",
"       +  #         ",
"   ..    @@..$      ",
"  .XX.XX ....$      ",
"  .XXXXO...@     o# ",
" .XXooXO.  @##ooo   ",
" XXooooXX   oo      ",
"  XXXXX. +oo        ",
"  .XXXX.            ",
"    ...             ",
"                    ",
"                    ",
"                    ",
"                    ",
"                    ",
"                    ",
"                    ",
"                    ",
"                    ",
"            oooo#   ",
"       +oooo        ",
"  ...      #        ",
"  .XXX.X  @@.$      ",
"  XXXXXO.....$      ",
" .XoooXO.....       ",
" XXoooXO  @@        ",
" XXXXXXX    #ooooo  ",
"  ..XXX. +ooo       ",
"    ...             ",
"                    ",
"                    ",
"                    ",
"                    ",
"                    ",
"                    ",
"                    ",
"                    ",
"                    ",
"                    ",
"                    ",
"   ...  +oooooooo#  ",
"  .XXX.    ##       ",
" .XXXXXX  @@        ",
" XXoooXO.....$      ",
" XXoooXO.....$      ",
" .XXXXXX  @@        ",
"  .XXX.    ##       ",
"   ...  +oooooooo#  ",
"                    ",
"                    ",
"                    ",
"                    ",
"                    ",
"                    ",
"                    ",
"                    ",
"                    ",
"                    ",
"                    ",
"    ...             ",
"  ..XXX. +ooo       ",
" XXXXXXX    #ooooo  ",
" XXoooXO  @@        ",
" .XoooXO.....       ",
"  XXXXXO.....$      ",
"  .XXX.X  @@.$      ",
"  ...      #        ",
"       +oooo        ",
"            oooo#   ",
"                    ",
"                    ",
"                    ",
"                    ",
"                    ",
"                    ",
"                    ",
"                    ",
"                    ",
"    ...             ",
"  .XXXX.            ",
"  XXXXX. +oo        ",
" XXooooXX   oo      ",
" .XXooXO.  @##ooo   ",
"  .XXXXO...@     o# ",
"  .XX.XX ....$      ",
"   ..    @@..$      ",
"       +  #         ",
"        ooo#        ",
"          ooo       ",
"             oo     ",
"               #    ",
"                    ",
"                    ",
"                    ",
"                    ",
"                    ",
"                    ",
"     ..             ",
"   XXXX..           ",
"  XXXXXX.           ",
"  .XoooX. +o        ",
"  .XoooXX   o       ",
"  .XXXXOO.  #oo     ",
"  ..XXXO...@@# o    ",
"    ..   ....   oo  ",
"         @...$    # ",
"       o  @ $       ",
"        oo#         ",
"          o         ",
"           oo       ",
"             o      ",
"              #     ",
"                    ",
"                    ",
"                    ",
"                    ",
"      .             ",
"    XX.X.           ",
"   XXXXXX.          ",
"   XXooXX.          ",
"  ..XoooX  +        ",
"   XXXoXOX  o       ",
"   .XXXOO.   o      ",
"    .. X...@##o     ",
"         ... # o    ",
"      +  @...   o   ",
"       o # .$    #  ",
"        o##         ",
"         o          ",
"          o         ",
"           o        ",
"            #       ",
"                    ",
"                    ",
"                    ",
"                    ",
"     X....          ",
"    XXXXX.          ",
"    XXooXX.         ",
"   .XXooXX.         ",
"   .XXooXX          ",
"    .XXXOO  o       ",
"    ...XO.   o      ",
"        ...@ o      ",
"      +  ...@#o     ",
"      o  @..   o    ",
"       o#@..$  o    ",
"        o# $    o   ",
"        o        #  ",
"         o          ",
"          o         ",
"          o         ",
"           #        ",
"                    ",
"                    ",
"       X.           ",
"     .XXX..         ",
"     XXoXXX.        ",
"    .XXooXX.        ",
"    .XXooX.         ",
"    .XXoXXX         ",
"     ..XOOX +       ",
"       X..   o      ",
"      +  ..@ o      ",
"      o  ..@#oo     ",
"      o @@.. #o     ",
"       o# ..  o     ",
"       o# $$   o    ",
"        o      o    ",
"        o       #   ",
"        o           ",
"         o          ",
"         #          ",
"                    ",
"                    ",
"       XX.          ",
"      .XXXX..       ",
"      .XooXX.       ",
"     .XXooXX.       ",
"     .XXooXX        ",
"     .XXXXX.        ",
"      .XOOOX +      ",
"         ..  o      ",
"      +  ..  o      ",
"      o @..@ o      ",
"      o @..@#o      ",
"      o# ...  o     ",
"       o  $$  o     ",
"       o      o     ",
"       o      o     ",
"       o      #     ",
"       o            ",
"                    ",
"                    ",
};
