/* XPM */
static char * C2_xpm[] = {
"20 320 7 1",
".	c None",
"X	c #B0B0B0B0B0B0",
"o	c #C1C1C1C1C1C1",
"O	c #D0D0D0D0D0D0",
"+	c #E0E0E0E0E0E0",
"@	c #FFFF00000000",
"#	c #0000FFFFFFFF",
"....................",
"....................",
".......XXXXXX.......",
"......XooooooX......",
".....XoOO++OOoX.....",
".....XoO++++OoX.....",
".....XoO++++OoX.....",
"......XoO++OoX......",
"......XoO++OoX......",
".......oOOOOo.......",
".....@..O@@O..@.....",
".....+..XXXX..+.....",
".....#...XX...#.....",
".....#...XX...#.....",
".....+...XX...O.....",
".....#o.XXXX.o#.....",
".....+oXXXXXXo+.....",
".....+........+.....",
"....................",
"....................",
"....................",
"...........X........",
"........XXooXXX.....",
"........XoOOooXX....",
".......XoO++++ooX...",
".......XXO++++OoX...",
".......XooO+++OoX...",
"........oO++OoOoX...",
"......@.oOO+OoXX....",
".....+..O@OOOoX.....",
".....#..XX@O........",
"....#....XXX..@.....",
"....+...XX....o.....",
"...#oo..XX...#......",
"...OXXXXXX...#......",
".......XXX.oO.......",
".........XXo#.......",
"...........o+.......",
"....................",
"....................",
"....................",
"....................",
"..........XXXXX.....",
".........XXoOoXX....",
".........XoOOOoXX...",
".........XoO+++oXX..",
".......@.ooO+++OoX..",
"......#..oO++++OOX..",
".....#X..OO++OOOoX..",
"....+X..X@OOOoooXX..",
"...#X...XX@OooXXX...",
"..+O...XXXX.........",
"....ooXXX....@......",
".....XXX...X#.......",
"......Xo..X#........",
".......o.X+.........",
"........O#..........",
"........+...........",
"....................",
"....................",
"....................",
"....................",
"....................",
"............XXXX....",
"...........XooooX...",
".......+@.XXOOOoXX..",
".....##...ooo+++oX..",
"..+#+.....OOO+++oX..",
"..ooo...XOO+++++OoX.",
"...X....X@OO+O++Oo..",
"...XXXXXXX@OOoOOoX..",
"....XXXX.XOoooXoXX..",
"....XX.......XXX....",
".....X.....@........",
".....Xo..#+.........",
".....oo+#...........",
".....+#.............",
"....................",
"....................",
"....................",
"....................",
"....................",
"....................",
"....................",
"....................",
"..++#+##+@...XXX....",
"...oo......XXoooX...",
"...X......oooOOOoX..",
"...XX...XOOOO++OoX..",
"...XXXXXX@O+++++oX..",
"...XXXXXX@O+++++oX..",
"...XX...XOOOO++OoX..",
"...X......oooOOOoX..",
"...oo......XXoooX...",
"..++#O##+@...XXX....",
"....................",
"....................",
"....................",
"....................",
"....................",
"....................",
"....................",
"....................",
".....O#.............",
".....Xo+#...........",
".....Xo..#+.........",
".....X.....@........",
"....XX.......XXX....",
"....XXXX.XOoooXoXX..",
"...XXXXXXX@OOoOOoX..",
"...X....X@OO+O++Oo..",
"..ooo...XOO+++++OoX.",
"..+#O.....OOO+++oX..",
".....##...ooo+++oX..",
".......o@.XXOOOoXX..",
"...........XooooX...",
"............XXX.....",
"....................",
"....................",
"....................",
"....................",
"....................",
"........+...........",
"........O#..........",
".......o.X+.........",
"......Xo..X#........",
".....XXX...X#.......",
"....ooXXX....@......",
"..+O...XXXX.........",
"...#X...XX@OooXXX...",
"....+X..X@OOOoooXX..",
".....#X..OO++OOOoX..",
"......#..oO++++OOX..",
".......@.ooO+++OoX..",
".........XoO+++oXX..",
".........XoOOOoXX...",
".........XXooXXX....",
"..........XXXXX.....",
"....................",
"....................",
"....................",
"....................",
"...........o+.......",
".........XXo#.......",
".......XXX.o+.......",
"...+oXXXXX...#......",
"...#oo..XX...#......",
"....+...XX....+.....",
"....#....XXX..@.....",
".....#..XX@O........",
".....+..O@OOOoX.....",
"......@.oOO+OoXX....",
"........oO++OoOoX...",
".......XooO+++OoX...",
".......XXO++++OoX...",
".......XoO++++oo....",
"........XoOOoXXX....",
"........XXooXXX.....",
"...........X........",
"....................",
"....................",
"....................",
".....+........+.....",
".....+oXXXXXXo+.....",
".....#o.XXXX.o#.....",
".....O...XX...+.....",
".....#...XX...#.....",
".....#...XX...#.....",
".....+..XXXX..+.....",
".....@..O@@O..@.....",
".......oOOOOo.......",
"......XoO++OoX......",
"......XoO++OoX......",
".....XoO++++OoX.....",
".....XoO++++OoX.....",
".....XoOO++OOoX.....",
"......XooooooX......",
".......XXXXXX.......",
"....................",
"....................",
"....................",
"....................",
".......+o...........",
".......#oXX.........",
".......Oo.XXX.......",
"......#...XXXXXXO...",
"......#...XX..oX#...",
".....o....XX...+....",
".....@..XXX....#....",
"........O@XX..#.....",
".....XoOOO@O..+.....",
"....XXoO+OOo.@......",
"...XoOoO++Oo........",
"...XoO+++OooX.......",
"...XoO++++OXX.......",
"....oo++++OoX.......",
"....XXooOOoX........",
".....XXXooXX........",
"........X...........",
"....................",
"....................",
"....................",
"...........+........",
"..........#O........",
".........+X.o.......",
"........#X..oX......",
".......#X...XXX.....",
"......@....XXXoo....",
".........XXXX...O+..",
"...XXXooO@XX...X#...",
"..XXoooOOO@X..X+....",
"..XoOOO++OO..X#.....",
"..XoO++++Oo..#......",
"..XXO+++Ooo.@.......",
"..XXo+++OoX.........",
"...XXoOOOoX.........",
"....XXoOoXX.........",
".....XXXXX..........",
"....................",
"....................",
"....................",
"....................",
"....................",
".............#+.....",
"...........#+oo.....",
".........+#..oX.....",
"........@.....X.....",
"....XXX.......XX....",
"..XXoXoooOX.XXXX....",
"..XoOOoOO@XXXXXXX...",
"..oO++O+OO@X....X...",
".XoO+++++OOX...ooo..",
"..Xo+++OOO.....+#+..",
"..XX+++ooo...##.....",
"..XXoOOOXX.@+.......",
"...XooooX...........",
".....XXX............",
"....................",
"....................",
"....................",
"....................",
"....................",
"....................",
"....................",
"....................",
"....XXX...@+##O#++..",
"...XoooXX......oo...",
"..XoOOOooo......X...",
"..XoO++OOOOX...XX...",
"..Xo+++++O@XXXXXX...",
"..Xo+++++O@XXXXXX...",
"..XoO++OOOOX...XX...",
"..XoOOOooo......X...",
"...XoooXX......oo...",
"....XXX...@+##+#++..",
"....................",
"....................",
"....................",
"....................",
"....................",
"....................",
"....................",
"....................",
".....XXX............",
"...XooooX...........",
"..XXoOOOXX.@o.......",
"..Xo+++ooo...##.....",
"..Xo+++OOO.....O#+..",
".XoO+++++OOX...ooo..",
"..oO++O+OO@X....X...",
"..XoOOoOO@XXXXXXX...",
"..XXoXoooOX.XXXX....",
"....XXX.......XX....",
"........@.....X.....",
".........+#..oX.....",
"...........#+XX.....",
".............#O.....",
"....................",
"....................",
"....................",
"....................",
"....................",
".....XXXXX..........",
"....XXXooXX.........",
"...XXoOOOoX.........",
"..XXo+++OoX.........",
"..XoO+++Ooo.@.......",
"..XOO++++Oo..#......",
"..XoOOO++OO..X#.....",
"..XXoooOOO@X..X+....",
"...XXXooO@XX...X#...",
".........XXXX...O+..",
"......@....XXXoo....",
".......#X...XXX.....",
"........#X..oX......",
".........+X.o.......",
"..........#O........",
"...........+........",
"....................",
"....................",
"....................",
"........X...........",
".....XXXooXX........",
"....XXXoOOoX........",
"....oo++++OoX.......",
"...XoO++++OXX.......",
"...XoO+++OooX.......",
"...XoOoO++Oo........",
"....XXoO+OOo.@......",
".....XoOOO@O..+.....",
"........O@XX..#.....",
".....@..XXX....#....",
".....+....XX...+....",
"......#...XX..oo#...",
"......#...XXXXXo+...",
".......+o.XXX.......",
".......#oXX.........",
".......+o...........",
"....................",
"...................."};
