/* XPM */
static char *dd0[] = {
/* width height ncolors chars_per_pixel */
"20  640 7 1"
/* colors */
"  c #000000",
"b c #00ffff",
"o c #b5b5b5",
"* c #d6d6d6",
"@ c #e7e7e7",
"x c #ff0000",
"# c #ffffff",
/* pixels */
"                    ",
"                    ",
"                    ",
"        ****        ",
"       **oo**       ",
"      **o@@o**      ",
"      *o@@@@o*      ",
"      **o@@o**      ",
"       **oo**       ",
"        ****        ",
"      x  **  x      ",
"      *  @@  *      ",
"      b* ** *b      ",
"      b******b      ",
"      b  xx  b      ",
"      *      *      ",
"      *      *      ",
"                    ",
"                    ",
"                    "
"                    ",
"                    ",
"                    ",
"         ****       ",
"       ***oo*       ",
"       **o@@o*      ",
"       *o@@@@**     ",
"       *o@@@oo*     ",
"        *oo***      ",
"      x ****        ",
"      *  **         ",
"      b  @@  x      ",
"     b* ***  *      ",
"     b *****b       ",
"     *  xx  b       ",
"     *      b       ",
"            *       ",
"            *       ",
"                    ",
"                    ",
"                    ",
"                    ",
"                    ",
"         * **       ",
"        ***o**      ",
"        *oo@o**     ",
"       **@@@@o*     ",
"        *o@@@o*     ",
"        **ooo**     ",
"      x  **** *     ",
"     b*  ***        ",
"     b* @@   x      ",
"     b****  *       ",
"    *  x****b       ",
"    *   x *b        ",
"           b        ",
"           *        ",
"          *         ",
"                    ",
"                    ",
"                    ",
"                    ",
"                    ",
"            *       ",
"         ***o*      ",
"        *o*ooo*     ",
"        **@@@@**    ",
"        **@@@o*     ",
"      x  *o@ooo*    ",
"      *  **o***     ",
"     b* @***        ",
"    b** *@          ",
"    *  ***  x       ",
"   *  xx***b        ",
"          *b        ",
"          b         ",
"         *          ",
"         *          ",
"                    ",
"                    ",
"                    ",
"                    ",
"                    ",
"                    ",
"          ****      ",
"         *o*oo*     ",
"         **@@@o*    ",
"       x *o@@@o*    ",
"      *  *o@@@**    ",
"     b*  **oo*o*    ",
"    b** @******     ",
"   *  ***@          ",
"      x**           ",
"      xx****        ",
"         *b         ",
"         b          ",
"        *           ",
"                    ",
"                    ",
"                    ",
"                    ",
"                    ",
"                    ",
"                    ",
"           * *      ",
"          *o***     ",
"          *oo@o*    ",
"       x  *o@@oo*   ",
"     bb  *o@@@o*    ",
"    b**  **o@@**    ",
"  **  **@*****o*    ",
"      ***@  ***     ",
"      x*            ",
"      x ***x        ",
"        *b          ",
"       *b           ",
"      *             ",
"                    ",
"                    ",
"                    ",
"                    ",
"                    ",
"                    ",
"                    ",
"                    ",
"          *****     ",
"        x  *oo**    ",
"      b*  *o@@o**   ",
"   *bb*  **o@@@o*   ",
"  *  **  **o@@o*    ",
"      **@***o@o**   ",
"     x**@  *****    ",
"      x*     *      ",
"       ***x         ",
"       bbb          ",
"     **             ",
"                    ",
"                    ",
"                    ",
"                    ",
"                    ",
"                    ",
"                    ",
"                    ",
"                    ",
"            **      ",
"       *x  *o**     ",
"  **bbb    *o@o**   ",
"      *   **@@@o*   ",
"      **@**o@@@o*   ",
"     x**@**o@@o**   ",
"     x**  **oo**    ",
"      *     ****    ",
"       *b*x         ",
"    **bb            ",
"                    ",
"                    ",
"                    ",
"                    ",
"                    ",
"                    ",
"                    ",
"                    ",
"                    ",
"                    ",
"                    ",
"   **bbb*x  ***     ",
"      **   **o**    ",
"      *   **o@o**   ",
"     x**@**o@@@o*   ",
"     x**@**o@@@o*   ",
"      *   **o@o**   ",
"      **   **o**    ",
"   **bbb*x  ***     ",
"                    ",
"                    ",
"                    ",
"                    ",
"                    ",
"                    ",
"                    ",
"                    ",
"                    ",
"                    ",
"                    ",
"    **bb            ",
"       *b*x         ",
"      *     ****    ",
"     x**  **oo**    ",
"     x**@**o@@o**   ",
"      **@**o@@@o*   ",
"      *   **@@@o*   ",
"  **bbb    *o@o**   ",
"       *x  *o**     ",
"            **      ",
"                    ",
"                    ",
"                    ",
"                    ",
"                    ",
"                    ",
"                    ",
"                    ",
"                    ",
"     **             ",
"       bbb          ",
"       ***x         ",
"      x*     *      ",
"     x**@  *****    ",
"      **@***o@o**   ",
"  *  **  **o@@o*    ",
"   *bb*  **o@@@o*   ",
"      b*  *o@@o**   ",
"        x  *oo**    ",
"          *****     ",
"                    ",
"                    ",
"                    ",
"                    ",
"                    ",
"                    ",
"                    ",
"                    ",
"      *             ",
"       *b           ",
"        *b          ",
"      x ***x        ",
"      x*            ",
"      ***@  ***     ",
"  **  **@*****o*    ",
"    b**  **o@@**    ",
"     bb  *o@@@o*    ",
"       x  *o@@oo*   ",
"          *oo@o*    ",
"          *o***     ",
"           * *      ",
"                    ",
"                    ",
"                    ",
"                    ",
"                    ",
"                    ",
"                    ",
"        *           ",
"         b          ",
"         *b         ",
"      xx****        ",
"      x**   x       ",
"   *  ***@          ",
"    b** @******     ",
"     b*  **oo*o*    ",
"      *  *o@@@**    ",
"         *o@@@o*    ",
"         **@@@o*    ",
"         *o*oo*     ",
"          ****      ",
"                    ",
"                    ",
"                    ",
"                    ",
"                    ",
"                    ",
"         *          ",
"         *          ",
"          b         ",
"          *b        ",
"   *  xx***b        ",
"    *  ***  x       ",
"    b** *@          ",
"     b* @***        ",
"      *  **o***     ",
"      x  *o@ooo*    ",
"        **@@@o*     ",
"        **@@@@**    ",
"        *o*ooo*     ",
"         ***o*      ",
"            *       ",
"                    ",
"                    ",
"                    ",
"                    ",
"                    ",
"          *         ",
"           *        ",
"           b        ",
"    *   x *b        ",
"    *  x****b       ",
"     b****  *       ",
"     b* @@   x      ",
"     b*  ***        ",
"      x  **** *     ",
"        **ooo**     ",
"        *o@@@o*     ",
"       **@@@@o*     ",
"        *oo@o**     ",
"        ***o**      ",
"         * **       ",
"                    ",
"                    ",
"                    ",
"                    ",
"                    ",
"            *       ",
"            *       ",
"     *      b       ",
"     *  xx  b       ",
"     b *****b       ",
"     b* ***  *      ",
"      b  @@  x      ",
"      *  **         ",
"      x ****        ",
"        *oo***      ",
"       *o@@@oo*     ",
"       *o@@@@**     ",
"       **o@@o*      ",
"       ***oo*       ",
"         ****       ",
"                    ",
"                    ",
"                    ",
"                    ",
"                    ",
"                    ",
"      *      *      ",
"      *      *      ",
"      b  xx  b      ",
"      b******b      ",
"      b* ** *b      ",
"      *  @@  *      ",
"      x  **  x      ",
"        ****        ",
"       **oo**       ",
"      **o@@o**      ",
"      *o@@@@o*      ",
"      **o@@o**      ",
"       **oo**       ",
"        ****        ",
"                    ",
"                    ",
"                    ",
"                    ",
"                    ",
"       *            ",
"       *            ",
"       b      *     ",
"       b  xx  *     ",
"       b***** b     ",
"      *  *** *b     ",
"      x  @@  b      ",
"         **  *      ",
"        **** x      ",
"      ***oo*        ",
"     *oo@@@o*       ",
"     **@@@@o*       ",
"      *o@@o**       ",
"       *oo***       ",
"       ****         ",
"                    ",
"                    ",
"                    ",
"                    ",
"                    ",
"         *          ",
"        *           ",
"        b           ",
"        b* x   *    ",
"       b****x  *    ",
"       *  ****b     ",
"      x   @@ *b     ",
"        ***  *b     ",
"     * ****  x      ",
"     **ooo**        ",
"     *o@@@o*        ",
"     *o@@@@**       ",
"     **o@oo*        ",
"      **o***        ",
"       ** *         ",
"                    ",
"                    ",
"                    ",
"                    ",
"                    ",
"          *         ",
"          *         ",
"         b          ",
"        b*          ",
"        b***xx  *   ",
"       x  ***  *    ",
"          @* **b    ",
"        ***@ *b     ",
"     ***o**  *      ",
"    *ooo@o*  x      ",
"     *o@@@**        ",
"    **@@@@**        ",
"     *ooo*o*        ",
"      *o***         ",
"       *            ",
"                    ",
"                    ",
"                    ",
"                    ",
"                    ",
"                    ",
"           *        ",
"          b         ",
"         b*         ",
"        ****xx      ",
"           **x      ",
"          @***  *   ",
"     ******@ **b    ",
"    *o*oo**  *b     ",
"    **@@@o*  *      ",
"    *o@@@o* x       ",
"    *o@@@**         ",
"     *oo*o*         ",
"      ****          ",
"                    ",
"                    ",
"                    ",
"                    ",
"                    ",
"                    ",
"                    ",
"             *      ",
"           b*       ",
"          b*        ",
"        x*** x      ",
"            *x      ",
"     ***  @***      ",
"    *o*****@**  **  ",
"    **@@o**  **b    ",
"    *o@@@o*  bb     ",
"   *oo@@o*  x       ",
"    *o@oo*          ",
"     ***o*          ",
"      * *           ",
"                    ",
"                    ",
"                    ",
"                    ",
"                    ",
"                    ",
"                    ",
"                    ",
"             **     ",
"          bbb       ",
"         x***       ",
"      *     *x      ",
"    *****  @**x     ",
"   **o@o***@**      ",
"    *o@@o**  **  *  ",
"   *o@@@o**  *bb*   ",
"   **o@@o*  *b      ",
"    **oo*  x        ",
"     *****          ",
"                    ",
"                    ",
"                    ",
"                    ",
"                    ",
"                    ",
"                    ",
"                    ",
"                    ",
"                    ",
"            bb**    ",
"         x*b*       ",
"    ****     *      ",
"    **oo**  **x     ",
"   **o@@o**@**x     ",
"   *o@@@o**@**      ",
"   *o@@@**   *      ",
"   **o@o*    bbb**  ",
"     **o*  x*       ",
"      **            ",
"                    ",
"                    ",
"                    ",
"                    ",
"                    ",
"                    ",
"                    ",
"                    ",
"                    ",
"                    ",
"                    ",
"     ***  x*bbb**   ",
"    **o**   **      ",
"   **o@o**   *      ",
"   *o@@@o**@**x     ",
"   *o@@@o**@**x     ",
"   **o@o**   *      ",
"    **o**   **      ",
"     ***  x*bbb**   ",
"                    ",
"                    ",
"                    ",
"                    ",
"                    ",
"                    ",
"                    ",
"                    ",
"                    ",
"                    ",
"                    ",
"      **            ",
"     **o*  x*       ",
"   **o@o*    bbb**  ",
"   *o@@@**   *      ",
"   *o@@@o**@**      ",
"   **o@@o**@**x     ",
"    **oo**  **x     ",
"    ****     *      ",
"         x*b*       ",
"            bb**    ",
"                    ",
"                    ",
"                    ",
"                    ",
"                    ",
"                    ",
"                    ",
"                    ",
"                    ",
"                    ",
"     *****          ",
"    **oo*  x        ",
"   **o@@o*  *b      ",
"   *o@@@o**  *bb*   ",
"    *o@@o**  **  *  ",
"   **o@o***@**      ",
"    *****  @**x     ",
"      *     *x      ",
"         x***       ",
"          bbb       ",
"             **     ",
"                    ",
"                    ",
"                    ",
"                    ",
"                    ",
"                    ",
"                    ",
"                    ",
"      * *           ",
"     ***o*          ",
"    *o@oo*          ",
"   *oo@@o*  x       ",
"    *o@@@o*  bb     ",
"    **@@o**  **b    ",
"    *o*****@**  **  ",
"     ***  @***      ",
"            *x      ",
"        x*** x      ",
"          b*        ",
"           b*       ",
"             *      ",
"                    ",
"                    ",
"                    ",
"                    ",
"                    ",
"                    ",
"                    ",
"      ****          ",
"     *oo*o*         ",
"    *o@@@**         ",
"    *o@@@o*         ",
"    **@@@o*  *      ",
"    *o*oo**  *b     ",
"     ******@ **b    ",
"          @***  *   ",
"       x   **x      ",
"        ****xx      ",
"         b*         ",
"          b         ",
"           *        ",
"                    ",
"                    ",
"                    ",
"                    ",
"                    ",
"                    ",
"       *            ",
"      *o***         ",
"     *ooo*o*        ",
"    **@@@@**        ",
"     *o@@@**        ",
"    *ooo@o*  x      ",
"     ***o**  *      ",
"        ***@ *b     ",
"          @* **b    ",
"       x  ***  *    ",
"        b***xx  *   ",
"        b*          ",
"         b          ",
"          *         ",
"          *         ",
"                    ",
"                    ",
"                    ",
"                    ",
"                    ",
"       ** *         ",
"      **o***        ",
"     **o@oo*        ",
"     *o@@@@**       ",
"     *o@@@o*        ",
"     **ooo**        ",
"     * ****  x      ",
"        ***  *b     ",
"      x   @@ *b     ",
"       *  ****b     ",
"       b****x  *    ",
"        b* x   *    ",
"        b           ",
"        *           ",
"         *          ",
"                    ",
"                    ",
"                    ",
"                    ",
"                    ",
"       ****         ",
"       *oo***       ",
"      *o@@o**       ",
"     **@@@@o*       ",
"     *oo@@@o*       ",
"      ***oo*        ",
"        **** x      ",
"         **  *      ",
"      x  @@  b      ",
"      *  *** *b     ",
"       b***** b     ",
"       b  xx  *     ",
"       b      *     ",
"       *            ",
"       *            ",
"                    ",
"                    ",
};
