/* XPM */
static char * C1_xpm[] = {
/* width height colors chars_per_color */
"20  640 8 1"
/* colors */
" 	c None",
".	c #A0A0A0A00000",
"X	c #C8C8C8C80000",
"o	c #FFFFFFFF0000",
"O	c #787878780000",
"+	c #787878780000",
"@	c #787878780000",
"#	c #787878780000",
/* pixels */
"                    ",
"                    ",
"        ....        ",
"       .XXXX.       ",
"      ..XooX..      ",
"      ..XooX..      ",
"      ..XXXX..      ",
"       ..XX..       ",
"        ....        ",
"      O  ..  O      ",
"      .XXXX.X.      ",
"      . +@@+ .      ",
"      .      .      ",
"      .      .      ",
"      .      .      ",
"      .      .      ",
"      .      .      ",
"      #      #      ",
"                    ",
"                    ",
"                    ",
"                    ",
"         ....       ",
"       ..XXXX       ",
"       ..XooX.      ",
"       ..XooX..     ",
"        .XXXX..     ",
"        .XXX...     ",
"      O ....        ",
"      .  ..         ",
"      .XXXX.XO      ",
"      . +@@+X.      ",
"     .       .      ",
"     .      .       ",
"     .      .       ",
"     .      .       ",
"     #      .       ",
"            .       ",
"                    ",
"                    ",
"                    ",
"                    ",
"           ..       ",
"        ...XX..     ",
"        ..XoXX.     ",
"        ..XooX.     ",
"        .XXXoX..    ",
"         .XXX..     ",
"      O  ......     ",
"      .XX...        ",
"     .. +XX  O      ",
"     .  @@+.X.      ",
"     .      .       ",
"    .       .       ",
"    .      .        ",
"   #       .        ",
"           .        ",
"          .         ",
"          #         ",
"                    ",
"                    ",
"                    ",
"                    ",
"          ..X..     ",
"         ..XoX..    ",
"         ..XooX.    ",
"         .XXooX.    ",
"       O .XXXX..    ",
"      .X  .X....    ",
"      .XX.....      ",
"     . +@XX         ",
"    .    @.X O      ",
"    .     + .       ",
"   .       .        ",
"  #        .        ",
"          .         ",
"         .          ",
"         .          ",
"        #           ",
"                    ",
"                    ",
"                    ",
"                    ",
"           .. .     ",
"          ...X..    ",
"          ..XoX..   ",
"         ..XoooX    ",
"       .  .XXoX..   ",
"      .XX .XXX...   ",
"     .  XX......    ",
"    .   @X.  .      ",
"   .     @.         ",
"  #        XO       ",
"           .        ",
"          .         ",
"         .          ",
"        .           ",
"       #            ",
"                    ",
"                    ",
"                    ",
"                    ",
"                    ",
"                    ",
"           .....    ",
"           ..XX..   ",
"        O ..XooX.   ",
"       .  ..XoooX   ",
"     .. X .XXXXX.   ",
"    .  +XX..XX...   ",
"  ..    @X. ....    ",
" #       @.         ",
"         +XXO       ",
"          ..        ",
"         .          ",
"       ..           ",
"      .             ",
"     #              ",
"                    ",
"                    ",
"                    ",
"                    ",
"                    ",
"                    ",
"             .      ",
"           ......   ",
"        .O ..XXX.   ",
"      ..X  .XooXX.  ",
"   ...  X ..XXooX.  ",
" #.     +X..XXXX.   ",
"        @X...X...   ",
"        @+.  ....   ",
"          X         ",
"         ..O        ",
"       ...          ",
"     ..             ",
"    #               ",
"                    ",
"                    ",
"                    ",
"                    ",
"                    ",
"                    ",
"                    ",
"                    ",
"            ...     ",
"       ..O  ....    ",
"  ..... XX  .XXXX.  ",
"        +X .XXooX.  ",
"        @X..XXooX.  ",
"        @X..XXXXX.  ",
"        +. ......   ",
"         X    ...   ",
"        ...O        ",
"   #....            ",
"                    ",
"                    ",
"                    ",
"                    ",
"                    ",
"                    ",
"                    ",
"                    ",
"                    ",
"                    ",
"                    ",
"  #.......O  ...    ",
"         X  .....   ",
"        +X ..XXXX.  ",
"        @X..XXooX.  ",
"        @X..XXooX.  ",
"        +. ..XXXX.  ",
"         X  .....   ",
"  #.......O  ...    ",
"                    ",
"                    ",
"                    ",
"                    ",
"                    ",
"                    ",
"                    ",
"                    ",
"                    ",
"                    ",
"                    ",
"   #....            ",
"        ...O        ",
"         X    ...   ",
"        +X ......   ",
"        @X..XXXXX.  ",
"        @X..XXooX.  ",
"        +. .XXooX.  ",
"  ..... XX  .XXXX.  ",
"       ..O  ....    ",
"            ...     ",
"                    ",
"                    ",
"                    ",
"                    ",
"                    ",
"                    ",
"                    ",
"                    ",
"    #               ",
"     ..             ",
"       ...          ",
"         ..O        ",
"          X         ",
"        @+X  ....   ",
"        @X...X...   ",
" #.     +X..XXXX.   ",
"   ...  . ..XXooX.  ",
"      ..X  .XooXX.  ",
"        .O ..XXX.   ",
"           ......   ",
"             .      ",
"                    ",
"                    ",
"                    ",
"                    ",
"                    ",
"                    ",
"     #              ",
"      .             ",
"       ..           ",
"         .          ",
"          ..        ",
"         +XXO       ",
" #       @X         ",
"  ..    @X. ....    ",
"    .  +.X..XX...   ",
"     .. X .XXXXX.   ",
"       .  ..XoooX   ",
"        O ..XooX.   ",
"           ..XX..   ",
"           .....    ",
"                    ",
"                    ",
"                    ",
"                    ",
"                    ",
"                    ",
"       #            ",
"        .           ",
"         .          ",
"          .         ",
"           .        ",
"  #        X.       ",
"   .     @XX        ",
"    .   @XX  .      ",
"     .  ........    ",
"      .X  .XXX...   ",
"       O  .XXoX..   ",
"         ..XoooX    ",
"          ..XoX..   ",
"          ...X..    ",
"           .. .     ",
"                    ",
"                    ",
"                    ",
"                    ",
"        #           ",
"         .          ",
"         .          ",
"          .         ",
"  #        .        ",
"   .       .        ",
"    .     + .       ",
"    .    @XX O      ",
"     . +@XX         ",
"      .X......      ",
"      .X  .X....    ",
"       O .XXXX..    ",
"         .XXooX.    ",
"         ..XooX.    ",
"         ..XoX..    ",
"          ..X..     ",
"                    ",
"                    ",
"                    ",
"                    ",
"          #         ",
"          .         ",
"           .        ",
"   #       .        ",
"    .      .        ",
"    .       .       ",
"     .      .       ",
"     .  @@+XX.      ",
"     .. +XX  O      ",
"      .X....        ",
"      O  ......     ",
"         .XXX..     ",
"        .XXXoX..    ",
"        ..XooX.     ",
"        ..XoXX.     ",
"        ...XX..     ",
"           ..       ",
"                    ",
"                    ",
"                    ",
"                    ",
"            .       ",
"     #      .       ",
"     .      .       ",
"     .      .       ",
"     .      .       ",
"     .       .      ",
"      . +@@+X.      ",
"      .X.XXXXO      ",
"      .  ..         ",
"      O ....        ",
"        .XXX...     ",
"        .XXXX..     ",
"       ..XooX..     ",
"       ..XooX.      ",
"       ..XXXX       ",
"         ....       ",
"                    ",
"                    ",
"                    ",
"                    ",
"      #      #      ",
"      .      .      ",
"      .      .      ",
"      .      .      ",
"      .      .      ",
"      .      .      ",
"      . +@@+ .      ",
"      .X.XXXX.      ",
"      O  ..  O      ",
"        ....        ",
"       ..XX..       ",
"      ..XXXX..      ",
"      ..XooX..      ",
"      ..XooX..      ",
"       .XXXX.       ",
"        ....        ",
"                    ",
"                    ",
"                    ",
"                    ",
"       .            ",
"       .      #     ",
"       .      .     ",
"       .      .     ",
"       .      .     ",
"      .       .     ",
"      .X+@@+ .      ",
"      OX.XXXX.      ",
"         ..  .      ",
"        .... O      ",
"     ...XXX.        ",
"     ..XXXX.        ",
"     ..XooX..       ",
"      .XooX..       ",
"       XXXX..       ",
"       ....         ",
"                    ",
"                    ",
"                    ",
"         #          ",
"         .          ",
"        .           ",
"        .       #   ",
"        .      .    ",
"       .       .    ",
"       .      .     ",
"      .X.+@@  .     ",
"      O  XX+ ..     ",
"        ...XX.      ",
"     ......  O      ",
"     ..XXX.         ",
"    ..XoXXX.        ",
"     .XooX..        ",
"     .XXoX..        ",
"     ..XX...        ",
"       ..           ",
"                    ",
"                    ",
"                    ",
"           #        ",
"          .         ",
"          .         ",
"         .          ",
"        .        #  ",
"        .       .   ",
"       . +     .    ",
"      O X.@    .    ",
"         XX@+ .     ",
"      .....XX.      ",
"    ....X.  X.      ",
"    ..XXXX. O       ",
"    .XooXX.         ",
"    .XooX..         ",
"    ..XoX..         ",
"     ..X..          ",
"                    ",
"                    ",
"                    ",
"                    ",
"                    ",
"            #       ",
"           .        ",
"          .         ",
"         .          ",
"        .           ",
"       OX        #  ",
"         .@     .   ",
"      .  .X@   .    ",
"    ......XX  .     ",
"   ...XXX. XX.      ",
"   ..XoXX.  .       ",
"    XoooX..         ",
"   ..XoX..          ",
"    ..X...          ",
"     . ..           ",
"                    ",
"                    ",
"                    ",
"                    ",
"                    ",
"              #     ",
"             .      ",
"           ..       ",
"          .         ",
"        ..          ",
"       OXX+         ",
"         .@       # ",
"    .... .X@    ..  ",
"   ...XX..XX+  .    ",
"   .XXXXX. X ..     ",
"   XoooX..  .       ",
"   .XooX.. O        ",
"   ..XX..           ",
"    .....           ",
"                    ",
"                    ",
"                    ",
"                    ",
"                    ",
"                    ",
"                    ",
"               #    ",
"             ..     ",
"          ...       ",
"        O..         ",
"         X          ",
"   ....  .+@        ",
"   ...X...X@        ",
"   .XXXX..X+     .# ",
"  .XooXX.. X  ...   ",
"  .XXooX.  X..      ",
"   .XXX.. O.        ",
"   ......           ",
"      .             ",
"                    ",
"                    ",
"                    ",
"                    ",
"                    ",
"                    ",
"                    ",
"                    ",
"                    ",
"            ....#   ",
"        O...        ",
"   ...    X         ",
"   ...... .+        ",
"  .XXXXX..X@        ",
"  .XooXX..X@        ",
"  .XooXX. X+        ",
"  .XXXX.  XX .....  ",
"    ....  O..       ",
"     ...            ",
"                    ",
"                    ",
"                    ",
"                    ",
"                    ",
"                    ",
"                    ",
"                    ",
"                    ",
"                    ",
"                    ",
"    ...  O.......#  ",
"   .....  X         ",
"  .XXXX.. .+        ",
"  .XooXX..X@        ",
"  .XooXX..X@        ",
"  .XXXX.. X+        ",
"   .....  X         ",
"    ...  O.......#  ",
"                    ",
"                    ",
"                    ",
"                    ",
"                    ",
"                    ",
"                    ",
"                    ",
"                    ",
"                    ",
"                    ",
"     ...            ",
"    ....  O..       ",
"  .XXXX.  XX .....  ",
"  .XooXX. .+        ",
"  .XooXX..X@        ",
"  .XXXXX..X@        ",
"   ...... X+        ",
"   ...    X         ",
"        O...        ",
"            ....#   ",
"                    ",
"                    ",
"                    ",
"                    ",
"                    ",
"                    ",
"                    ",
"                    ",
"                    ",
"      .             ",
"   ......           ",
"   .XXX.. O.        ",
"  .XXooX.  X..      ",
"  .XooXX.. .  ...   ",
"   .XXXX..X+     .# ",
"   ...X...X@        ",
"   ....  X+@        ",
"         X          ",
"        O..         ",
"          ...       ",
"             ..     ",
"               #    ",
"                    ",
"                    ",
"                    ",
"                    ",
"                    ",
"                    ",
"                    ",
"    .....           ",
"   ..XX..           ",
"   .XooX.. O        ",
"   XoooX..  .       ",
"   .XXXXX. X ..     ",
"   ...XX..X.+  .    ",
"    .... .X@    ..  ",
"         X@       # ",
"       OXX+         ",
"        ..          ",
"          .         ",
"           ..       ",
"             .      ",
"              #     ",
"                    ",
"                    ",
"                    ",
"                    ",
"                    ",
"     . ..           ",
"    ..X...          ",
"   ..XoX..          ",
"    XoooX..         ",
"   ..XoXX.  O       ",
"   ...XXX.  X.      ",
"    ........  .     ",
"      .  XX@   .    ",
"        XX@     .   ",
"       .X        #  ",
"        .           ",
"         .          ",
"          .         ",
"           .        ",
"            #       ",
"                    ",
"                    ",
"                    ",
"                    ",
"                    ",
"     ..X..          ",
"    ..XoX..         ",
"    .XooX..         ",
"    .XooXX.         ",
"    ..XXXX. O       ",
"    ....X.  X.      ",
"      ......X.      ",
"         XX@+ .     ",
"      O XX@    .    ",
"       . +     .    ",
"        .       .   ",
"        .        #  ",
"         .          ",
"          .         ",
"          .         ",
"           #        ",
"                    ",
"                    ",
"                    ",
"       ..           ",
"     ..XX...        ",
"     .XXoX..        ",
"     .XooX..        ",
"    ..XoXXX.        ",
"     ..XXX.         ",
"     ......  O      ",
"        ....X.      ",
"      O  XX+ ..     ",
"      .XX+@@  .     ",
"       .      .     ",
"       .       .    ",
"        .      .    ",
"        .       #   ",
"        .           ",
"         .          ",
"         #          ",
"                    ",
"                    ",
"                    ",
"       ....         ",
"       XXXX..       ",
"      .XooX..       ",
"     ..XooX..       ",
"     ..XXXX.        ",
"     ...XXX.        ",
"        .... O      ",
"         ..  .      ",
"      OXXXX.X.      ",
"      .X+@@+ .      ",
"      .       .     ",
"       .      .     ",
"       .      .     ",
"       .      .     ",
"       .      #     ",
"       .            ",
"                    ",
"                    ",
};
