/* XPM */
static char * C1_xpm[] = {
"20 320 7 1",
" 	c None",
".	c #B0B0B0B0B0B0",
"X	c #D0D0D0D0D0D0",
"o	c #E0E0E0E0E0E0",
"O	c #FFFF00000000",
"+	c #C1C1C1C1C1C1",
"@	c #0000FFFFFFFF",
"                    ",
"                    ",
"                    ",
"        ....        ",
"       .XXXX.       ",
"      .XXooXX.      ",
"      .XXooXX.      ",
"      .XXooXX.      ",
"       .XXXX.       ",
"        .XX.        ",
"      O  XX  O      ",
"      .+ XX +.      ",
"      @+XXXX+@      ",
"      @  OO  @      ",
"      @      @      ",
"      .      .      ",
"      .      .      ",
"                    ",
"                    ",
"                    ",
"                    ",
"                    ",
"           .        ",
"         ..X..      ",
"        .XXXXX.     ",
"        .XXooX..    ",
"        XXXooXX.    ",
"        .XXoXXX.    ",
"       O .XXXX.     ",
"      .+ XXX..      ",
"      @+ XX         ",
"     @ +XXX +O      ",
"     @  OOX++.      ",
"     +      @       ",
"    .       @       ",
"           @        ",
"           +        ",
"                    ",
"                    ",
"                    ",
"                    ",
"                    ",
"                    ",
"           ..       ",
"          .XXX.     ",
"         .XXXoX.    ",
"         .XXoooX    ",
"       O .XoooXX.   ",
"      @+  XXoXXX.   ",
"     @++ XXXXXX.    ",
"    @  XXXX ...     ",
"   .   OXX          ",
"        OX++O       ",
"          +@        ",
"          @         ",
"         @          ",
"        .           ",
"                    ",
"                    ",
"                    ",
"                    ",
"                    ",
"                    ",
"                    ",
"            ...     ",
"           .XX..    ",
"       .O .XXXXX.   ",
"     @@++ .XXooX.   ",
"   .@  +  XXoooXX.  ",
"       XXXXXXXXX.   ",
"       OXXX.XXXX.   ",
"       OX   .X..    ",
"        +++O        ",
"         @.         ",
"      +@@           ",
"     .              ",
"                    ",
"                    ",
"                    ",
"                    ",
"                    ",
"                    ",
"                    ",
"                    ",
"                    ",
"                    ",
"   ..@@@.O  ...     ",
"       ++  .XXX.    ",
"       X  .XXXXX.   ",
"      OXXXXXoooX.   ",
"      OXXXXXoooX.   ",
"       X  .XXXXX.   ",
"       ++  .XXX.    ",
"   ..@@@.O  ...     ",
"                    ",
"                    ",
"                    ",
"                    ",
"                    ",
"                    ",
"                    ",
"                    ",
"                    ",
"                    ",
"    .               ",
"     +@@            ",
"        @.          ",
"       +++O         ",
"      OX   .X..     ",
"      OXXX.XXXX.    ",
"      XXXXXXXXX.    ",
"  +@  +  XXoooXX.   ",
"    @@++ .XXooX.    ",
"      .O .XXXXX.    ",
"          .XX..     ",
"           ...      ",
"                    ",
"                    ",
"                    ",
"                    ",
"                    ",
"                    ",
"                    ",
"        .           ",
"         @          ",
"          @         ",
"          +@        ",
"        OX++O       ",
"   .   OXX          ",
"    @  XXXX ...     ",
"     @++ XXXXXX.    ",
"      @+  XXoXXX.   ",
"       O .XoooXX.   ",
"         .XXoooX    ",
"         .XXXoX.    ",
"          .XXX.     ",
"           ..       ",
"                    ",
"                    ",
"                    ",
"                    ",
"                    ",
"                    ",
"           .        ",
"           @        ",
"    .       @       ",
"     +      @       ",
"     @  OOX++.      ",
"     @ +XXX +O      ",
"      @+ XX         ",
"      .+ XXX..      ",
"       O .XXXX.     ",
"        .XXoXXX.    ",
"        XXXooXX.    ",
"        .XXooX..    ",
"        .XXXXX.     ",
"         ..X..      ",
"           .        ",
"                    ",
"                    ",
"                    ",
"                    ",
"                    ",
"      .      .      ",
"      .      .      ",
"      @      @      ",
"      @  OO  @      ",
"      @+XXXX+@      ",
"      .+ XX +.      ",
"      O  XX  O      ",
"        .XX.        ",
"       .XXXX.       ",
"      .XXooXX.      ",
"      .XXooXX.      ",
"      .XXooXX.      ",
"       .XXXX.       ",
"        ....        ",
"                    ",
"                    ",
"                    ",
"                    ",
"                    ",
"                    ",
"         +          ",
"         @          ",
"        @       .   ",
"        @      +    ",
"       .++XOO  @    ",
"       O+ XXX+ @    ",
"          XX +@     ",
"       ..XXX +.     ",
"      .XXXX. O      ",
"     .XXXoXX.       ",
"     .XXooXXX       ",
"     ..XooXX.       ",
"      .XXXXX.       ",
"       ..X..        ",
"         .          ",
"                    ",
"                    ",
"                    ",
"                    ",
"                    ",
"           .        ",
"          @         ",
"         @          ",
"        @+          ",
"       O++XO        ",
"          XXO   .   ",
"     ... XXXX  @    ",
"    .XXXXXX ++@     ",
"   .XXXoXX  +@      ",
"   .XXoooX. O       ",
"    XoooXX.         ",
"    .XoXXX.         ",
"     .XXX.          ",
"       ..           ",
"                    ",
"                    ",
"                    ",
"                    ",
"                    ",
"                    ",
"                    ",
"               .    ",
"            @@+     ",
"          .@        ",
"         O+++       ",
"     ..X.   XO      ",
"    .XXXX.XXXO      ",
"    .XXXXXXXXX      ",
"   .XXoooXX  +  @.  ",
"    .XooXX. ++@@    ",
"    .XXXXX. O.      ",
"     ..XX.          ",
"      ...           ",
"                    ",
"                    ",
"                    ",
"                    ",
"                    ",
"                    ",
"                    ",
"                    ",
"                    ",
"                    ",
"     ...  O.@@@..   ",
"    .XXX.  ++       ",
"   .XXXXX.  X       ",
"   .XoooXXXXXO      ",
"   .XoooXXXXXO      ",
"   .XXXXX.  X       ",
"    .XXX.  ++       ",
"     ...  O.@@@..   ",
"                    ",
"                    ",
"                    ",
"                    ",
"                    ",
"                    ",
"                    ",
"                    ",
"                    ",
"                    ",
"     ...            ",
"    ..XX.           ",
"   .XXXXX. O.       ",
"   .XooXX. ++@@     ",
"  .XXoooXX  +  @+   ",
"   .XXXXXXXXX       ",
"   .XXXX.XXXO       ",
"    ..X.   XO       ",
"        O+++        ",
"         .@         ",
"           @@+      ",
"              .     ",
"                    ",
"                    ",
"                    ",
"                    ",
"                    ",
"                    ",
"                    ",
"       ..           ",
"     .XXX.          ",
"    .XoXXX.         ",
"    XoooXX.         ",
"   .XXoooX. O       ",
"   .XXXoXX  +@      ",
"    .XXXXXX ++@     ",
"     ... XXXX  @    ",
"          XXO   .   ",
"       O++XO        ",
"        @+          ",
"         @          ",
"          @         ",
"           .        ",
"                    ",
"                    ",
"                    ",
"                    ",
"                    ",
"        .           ",
"      ..X..         ",
"     .XXXXX.        ",
"    ..XooXX.        ",
"    .XXooXXX        ",
"    .XXXoXX.        ",
"     .XXXX. O       ",
"      ..XXX +.      ",
"         XX +@      ",
"      O+ XXX+ @     ",
"      .++XOO  @     ",
"       @      +     ",
"       @       .    ",
"        @           ",
"        .           ",
"                    ",
"                    ",
"                    "};
