/* XPM */
static char *ga0[] = {
/* width height ncolors chars_per_pixel */
"20  640 8 1"
/* colors */
"  c #000000",
"b c #00ffff",
"x c #b5b5b5",
"o c #d60000",
"* c #d6d6d6",
"# c #e7e7e7",
"O c #ff0000",
"# c #ffffff",
/* pixels */
"                    ",
"      ********      ",
"    ***xxxxxx***    ",
"    *xx######xx*    ",
"   **x########x**   ",
"   *x##########x*   ",
"   *x##########x*   ",
"   *xxx######xxx*   ",
"   ****xx##xx****   ",
"      ***xx***      ",
"   OO   ****   OO   ",
"   b*   x**x   *b   ",
"   b*xxxx**xxxx*b   ",
"   b************b   ",
"   b*xxxxxxxxxx*b   ",
"   b*          *b   ",
"   **          **   ",
"                    ",
"                    ",
"                    "
"                    ",
"      *******       ",
"     *xxxxxxx***    ",
"    **x######x***   ",
"    *x########xx*   ",
"    *x#########x**  ",
"    *xxx########x*  ",
"   ****x########x*  ",
"      **x##xxxxx*   ",
"   OO  **xx******   ",
"   b*   **** *      ",
"   b*xx x**x   OO   ",
"  b****x***x   *b   ",
"  b*xxx*****xx*b    ",
"  b*   xxxxx***b    ",
"  **        xx*b    ",
"              *b    ",
"              **    ",
"                    ",
"                    ",
"       *  *         ",
"       ******       ",
"      **xxxxx**     ",
"     *xx#####xx**   ",
"     *x########x**  ",
"    *xx########xx*  ",
"    ***x########x*  ",
"   O   *x#######x** ",
"   bO ***x######x*  ",
"   b*   *xxxx*xxx*  ",
"  b*xx  x********   ",
"  b***xx**x*    *   ",
" b**xx****x   OO    ",
" **  xxx***xx *b    ",
"        xx***x*b    ",
"          xxx*b     ",
"             *b     ",
"            *b      ",
"            **      ",
"                    ",
"         *          ",
"       ******       ",
"       **xxxx**     ",
"      *x#x###xx*    ",
"     *xx######xx**  ",
"     **xx#######x*  ",
"    O  *x#######x** ",
"   bOO *xx######xx* ",
"   b*   **#######** ",
"  b*xx  *xx#x#x#xx* ",
" b***xxx******xxx*  ",
" b*xx**x*** *****   ",
" *   xx***x     *   ",
"      xx**xx  O     ",
"        xx*xx*b     ",
"         xx***b     ",
"           x*b      ",
"           *b       ",
"          **b       ",
"                    ",
"           *        ",
"         *****      ",
"        *xxx*x*     ",
"       *x####xx*    ",
"      *xx#####xx*   ",
"     O *xx#####xx*  ",
"    bO  *#######xx* ",
"   b*   *x#######** ",
"  b*xx   *#######x**",
" b*x*xx **x######x* ",
" * xx*xx**x*x#x##x* ",
"    xx********xxx*  ",
"     xx**x  * *x*   ",
"      xx*xx    *    ",
"       xx*xx O      ",
"        xx*x*b      ",
"         xx*b       ",
"          *b        ",
"         *b         ",
"                    ",
"                    ",
"          ****      ",
"         *x*x***    ",
"       **xx#xxx*    ",
"        *x#####x*   ",
"    bbO *xx####xx*  ",
"   b**  **######x*  ",
" bb**x  **x######x* ",
" **x*xx  *#######x* ",
" *  x*xx**x######x* ",
"    xx****x*x###xx**",
"     x******xxx##** ",
"      x*xx  **xxx** ",
"      xx*x    *x*   ",
"       x*xx O **    ",
"        x*x*OO      ",
"        x**bb       ",
"        **b         ",
"       *bb          ",
"                    ",
"                    ",
"            *       ",
"          ******    ",
"        **xxxxx**   ",
"     bbO *x###xx*   ",
"   bb**O *x#####x*  ",
" *b**x   **#####x*  ",
" ** x*x  *x######x* ",
"    x*x **x######x* ",
"    x**xx*x######x**",
"     x****xx#####x* ",
"     x***x**x####x* ",
"      x*x  **x##x***",
"      x*x  * *xxx*  ",
"      xx*x   *x**   ",
"       x*x*O **     ",
"       ***bbO       ",
"      **bb          ",
"      *b            ",
"                    ",
"                    ",
"                    ",
"            ***     ",
"       bO **xx***   ",
"  *bbbb*O *x##xx**  ",
"  *****   *x###x**  ",
"    x*x  **x####x*  ",
"    x*x   *x#####x* ",
"     x*xx**x#####x* ",
"     x****x######x* ",
"     x****x######x* ",
"     x**x**x#####x* ",
"     x*x  **xx###x* ",
"      x*x  **x##xx* ",
"      x*x   *xxx**  ",
"      x***O *****   ",
"    ****bbO *       ",
"    *bbb            ",
"                    ",
"                    ",
"                    ",
"                    ",
"                    ",
"   *bbbbbO *****    ",
"   ******O *xxx***  ",
"     x*x   *x##xx*  ",
"     x*x  **x###x** ",
"     x*x  *x#####x* ",
"     x*xx**x#####x* ",
"     x****x######x* ",
"     x****x######x* ",
"     x*xx**x#####x* ",
"     x*x  *x#####x* ",
"     x*x  **x###x** ",
"     x*x   *x##xx*  ",
"   ******O *xxx***  ",
"   *bbbbbO *****    ",
"                    ",
"                    ",
"                    ",
"                    ",
"                    ",
"    *bbb            ",
"    ****bbO *       ",
"      x***O *****   ",
"      x*x   *xxx**  ",
"      x*x  **x##xx* ",
"     x*x  **xx###x* ",
"     x**x**x#####x* ",
"     x****x######x* ",
"     x****x######x* ",
"     x*xx**x#####x* ",
"    x*x   *x#####x* ",
"    x*x  **x####x*  ",
"  *****   *x###x**  ",
"  *bbbb*O *x##xx**  ",
"       bO **xx***   ",
"            ***     ",
"                    ",
"                    ",
"                    ",
"      *b            ",
"      **bb          ",
"       ***bbO       ",
"       x*x*O **     ",
"      xx*x   *x**   ",
"      x*x  * *xxx*  ",
"      x*x  **x##x***",
"     x***x**x####x* ",
"     x****xx#####x* ",
"    x**xx*x######x**",
"    x*x **x######x* ",
" ** x*x  *x######x* ",
" *b**x   **#####x*  ",
"   bb**O *x#####x*  ",
"     bbO *x###xx*   ",
"        **xxxxx**   ",
"          ******    ",
"            *       ",
"                    ",
"                    ",
"       *bb          ",
"        **b         ",
"        x**bb       ",
"        x*x*OO      ",
"       x*xx O **    ",
"      xx*x    *x*   ",
"      x*xx  **xxx** ",
"     x******xxx##** ",
"    xx****x*x###xx**",
" *  x*xx**x######x* ",
" **x*xx  *#######x* ",
" bb**x  **x######x* ",
"   b**  **######x*  ",
"    bbO *xx####xx*  ",
"        *x#####x*   ",
"       **xx#xxx*    ",
"         *x*x***    ",
"          ****      ",
"                    ",
"                    ",
"         *b         ",
"          *b        ",
"         xx*b       ",
"        xx*x*b      ",
"       xx*xx OO     ",
"      xx*xx    *    ",
"     xx**x    *x*   ",
"    xx***** **xxx*  ",
" * xx*xx****x#x##x* ",
" b*x*xx *xx######x* ",
"  b*xx  **#######x**",
"   b*  **x#######** ",
"    bO  *#######xx* ",
"       *xx#####xx*  ",
"      *xx#####xx*   ",
"       *x####xx*    ",
"        *xxx*x*     ",
"         *****      ",
"           *        ",
"                    ",
"          **b       ",
"           *b       ",
"           x*b      ",
"         xx***b     ",
"        xx*xx*b     ",
"      xx**xx  O     ",
" *   xx***x     *   ",
" b*xx**x*** *****   ",
" b***xxx******xxx*  ",
"  b*xx  *xx#x#x#xx* ",
"   b*   **#######** ",
"   bOO *xx######xx* ",
"    O  *x#######x** ",
"     **xx#######x*  ",
"     *xx######xx**  ",
"      *x#x###xx*    ",
"       **xxxx**     ",
"       ******       ",
"         *          ",
"                    ",
"            **      ",
"            *b      ",
"             *b     ",
"          xxx*b     ",
"        xx***x*b    ",
" **  xxx***xx *b    ",
" b**xx****x   OO    ",
"  b***xx**x*    *   ",
"  b*xx  x********   ",
"   b*   *xxxx*xxx*  ",
"   bO ***x######x*  ",
"   O   *x#######x** ",
"    ***x########x*  ",
"    *xx########xx*  ",
"     *x########x**  ",
"     *xx#####xx**   ",
"      **xxxxx**     ",
"       ******       ",
"       *  *         ",
"                    ",
"                    ",
"              **    ",
"              *b    ",
"  **        xx*b    ",
"  b*   xxxxx***b    ",
"  b*xxx*****xx*b    ",
"  b****x***x   *b   ",
"   b*xx x**x   OO   ",
"   b*   **** *      ",
"   OO  **xx******   ",
"      **x##xxxxx*   ",
"   ****x########x*  ",
"    *xxx########x*  ",
"    *x#########x**  ",
"    *x########xx*   ",
"    **x######x***   ",
"     *xxxxxxx***    ",
"      *******       ",
"                    ",
"                    ",
"                    ",
"                    ",
"   **          **   ",
"   b*          *b   ",
"   b*xxxxxxxxxx*b   ",
"   b************b   ",
"   b*xxxx**xxxx*b   ",
"   b*   x**x   *b   ",
"   OO   ****   OO   ",
"      ***xx***      ",
"   ****xx##xx****   ",
"   *xxx######xxx*   ",
"   *x##########x*   ",
"   *x##########x*   ",
"   **x########x**   ",
"    *xx######xx*    ",
"    ***xxxxxx***    ",
"      ********      ",
"                    ",
"                    ",
"                    ",
"    **              ",
"    b*              ",
"    b*xx        **  ",
"    b***xxxxx   *b  ",
"    b*xx*****xxx*b  ",
"   b*   x***x****b  ",
"   OO   x**x xx*b   ",
"      * ****   *b   ",
"   ******xx**  OO   ",
"   *xxxxx##x**      ",
"  *x########x****   ",
"  *x########xxx*    ",
"  **x#########x*    ",
"   *xx########x*    ",
"   ***x######x**    ",
"    ***xxxxxxx*     ",
"       *******      ",
"                    ",
"                    ",
"      **            ",
"      b*            ",
"     b*             ",
"     b*xxx          ",
"    b*x***xx        ",
"    b* xx***xxx  ** ",
"    OO   x****xx**b ",
"   *    *x**xx***b  ",
"   ********x  xx*b  ",
"  *xxx*xxxx*   *b   ",
"  *x######x*** Ob   ",
" **x#######x*   O   ",
"  *x########x***    ",
"  *xx########xx*    ",
"  **x########x*     ",
"   **xx#####xx*     ",
"     **xxxxx**      ",
"       ******       ",
"         *  *       ",
"                    ",
"       b**          ",
"       b*           ",
"      b*x           ",
"     b***xx         ",
"     b*xx*xx        ",
"     O  xx**xx      ",
"   *     x***xx   * ",
"   ***** ***x**xx*b ",
"  *xxx******xxx***b ",
" *xx#x#x#xx*  xx*b  ",
" **#######**   *b   ",
" *xx######xx* OOb   ",
" **x#######x*  O    ",
"  *x#######xx**     ",
"  **xx######xx*     ",
"    *xx###x#x*      ",
"     **xxxx**       ",
"       ******       ",
"          *         ",
"                    ",
"         b*         ",
"        b*          ",
"       b*xx         ",
"      b*x*xx        ",
"      O xx*xx       ",
"    *    xx*xx      ",
"   *x* *  x**xx     ",
"  *xxx********xx    ",
" *x##x#x*x**xx*xx * ",
" *x######x** xx*x*b ",
"**x#######*   xx*b  ",
" **#######x*   *b   ",
" *xx#######*  Ob    ",
"  *xx#####xx* O     ",
"   *xx#####xx*      ",
"    *xx####x*       ",
"     *x*xxx*        ",
"      *****         ",
"        *           ",
"                    ",
"          bb*       ",
"         b**        ",
"       bb**x        ",
"      OO*x*x        ",
"    ** O xx*x       ",
"   *x*    x*xx      ",
" **xxx**  xx*x      ",
" **##xxx******x     ",
"**xx###x*x****xx    ",
" *x######x**xx*x  * ",
" *x#######*  xx*x** ",
" *x######x**  x**bb ",
"  *x######**  **b   ",
"  *xx####xx* Obb    ",
"   *x#####x*        ",
"    *xxx#xx**       ",
"    ***x*x*         ",
"      ****          ",
"                    ",
"                    ",
"            b*      ",
"          bb**      ",
"       Obb***       ",
"     ** O*x*x       ",
"   **x*   x*xx      ",
"  *xxx* *  x*x      ",
"***x##x**  x*x      ",
" *x####x**x***x     ",
" *x#####xx****x     ",
"**x######x*xx**x    ",
" *x######x** x*x    ",
" *x######x*  x*x ** ",
"  *x#####**   x**b* ",
"  *x#####x* O**bb   ",
"   *xx###x* Obb     ",
"   **xxxxx**        ",
"    ******          ",
"       *            ",
"                    ",
"                    ",
"                    ",
"            bbb*    ",
"       * Obb****    ",
"   ***** O***x      ",
"  **xxx*   x*x      ",
" *xx##x**  x*x      ",
" *x###xx**  x*x     ",
" *x#####x**x**x     ",
" *x######x****x     ",
" *x######x****x     ",
" *x#####x**xx*x     ",
" *x#####x*   x*x    ",
"  *x####x**  x*x    ",
"  **x###x*   *****  ",
"  **xx##x* O*bbbb*  ",
"   ***xx** Ob       ",
"     ***            ",
"                    ",
"                    ",
"                    ",
"                    ",
"                    ",
"    ***** Obbbbb*   ",
"  ***xxx* O******   ",
"  *xx##x*   x*x     ",
" **x###x**  x*x     ",
" *x#####x*  x*x     ",
" *x#####x**xx*x     ",
" *x######x****x     ",
" *x######x****x     ",
" *x#####x**xx*x     ",
" *x#####x*  x*x     ",
" **x###x**  x*x     ",
"  *xx##x*   x*x     ",
"  ***xxx* O******   ",
"    ***** Obbbbb*   ",
"                    ",
"                    ",
"                    ",
"                    ",
"                    ",
"     ***            ",
"   ***xx** Ob       ",
"  **xx##x* O*bbbb*  ",
"  **x###x*   *****  ",
"  *x####x**  x*x    ",
" *x#####x*   x*x    ",
" *x#####x**xx*x     ",
" *x######x****x     ",
" *x######x****x     ",
" *x#####x**x**x     ",
" *x###xx**  x*x     ",
" *xx##x**  x*x      ",
"  **xxx*   x*x      ",
"   ***** O***x      ",
"       * Obb****    ",
"            bbb*    ",
"                    ",
"                    ",
"                    ",
"       *            ",
"    ******          ",
"   **xxxxx**        ",
"   *xx###x* Obb     ",
"  *x#####x* O**bb   ",
"  *x#####**   x**b* ",
" *x######x*  x*x ** ",
" *x######x** x*x    ",
"**x######x*xx**x    ",
" *x#####xx****x     ",
" *x####x**x***x     ",
"***x##x**  x*x      ",
"  *xxx* *  x*x      ",
"   **x*   x*xx      ",
"     ** O*x*x       ",
"       Obb***       ",
"          bb**      ",
"            b*      ",
"                    ",
"                    ",
"      ****          ",
"    ***x*x*         ",
"    *xxx#xx**       ",
"   *x#####x*        ",
"  *xx####xx* Obb    ",
"  *x######**  **b   ",
" *x######x**  x**bb ",
" *x#######*  xx*x** ",
" *x######x**xx*x  * ",
"**xx###x*x****xx    ",
" **##xxx******x     ",
" **xxx**  xx*x      ",
"   *x*    x*xx      ",
"    ** O xx*x       ",
"      OO*x*x        ",
"       bb**x        ",
"         b**        ",
"          bb*       ",
"                    ",
"        *           ",
"      *****         ",
"     *x*xxx*        ",
"    *xx####x*       ",
"   *xx#####xx*      ",
"  *xx#####xx*       ",
" *xx#######*  Ob    ",
" **#######x**  *b   ",
"**x#######**  xx*b  ",
" *x######xx* xx*x*b ",
" *x##x#x****xx*xx * ",
"  *xxx** *****xx    ",
"   *x*    x**xx     ",
"    *    xx*xx      ",
"     OO xx*xx       ",
"      b*x*xx        ",
"       b*xx         ",
"        b*          ",
"         b*         ",
"                    ",
"          *         ",
"       ******       ",
"     **xxxx**       ",
"    *xx###x#x*      ",
"  **xx######xx*     ",
"  *x#######xx**     ",
" **x#######x*  O    ",
" *xx######xx* OOb   ",
" **#######**   *b   ",
" *xx#x#x#xx*  xx*b  ",
"  *xxx******xxx***b ",
"   ***** ***x**xx*b ",
"   *     x***xx   * ",
"     O  xx**xx      ",
"     b*xx*xx        ",
"     b***xx         ",
"      b*x           ",
"       b*           ",
"       b**          ",
"                    ",
"         *  *       ",
"       ******       ",
"     **xxxxx**      ",
"   **xx#####xx*     ",
"  **x########x*     ",
"  *xx########xx*    ",
"  *x########x***    ",
" **x#######x*   O   ",
"  *x######x*** Ob   ",
"  *xxx*xxxx*   *b   ",
"   ********x  xx*b  ",
"   *    *x**xx***b  ",
"    OO   x****xx**b ",
"    b* xx***xxx  ** ",
"    b*x***xx        ",
"     b*xxx          ",
"     b*             ",
"      b*            ",
"      **            ",
"                    ",
"                    ",
"       *******      ",
"    ***xxxxxxx*     ",
"   ***x######x**    ",
"   *xx########x*    ",
"  **x#########x*    ",
"  *x########xxx*    ",
"  *x########x****   ",
"   *xxxxx##x**      ",
"   ******xx**  OO   ",
"      * ****   *b   ",
"   OO   x**x xx*b   ",
"   b*   x***x****b  ",
"    b*xx*****xxx*b  ",
"    b***xxxxx   *b  ",
"    b*xx        **  ",
"    b*              ",
"    **              ",
"                    ",
"                    ",
};
