/* XPM */
static char * plasmatorp_yellow[] = {
"7 56 6 1",
" 	c None",
".	c #B0B070700000",
"X	c #E1E190900000",
"o	c #FFFFC1C10000",
"O	c #FFFFFFFF0000",
"+	c #FFFFFFFF7F7F",
"       ",
"  .X.  ",
" .XoX. ",
" XoOoX ",
" .XoX. ",
"  .X.  ",
"       ",
"       ",
"  X... ",
" ..oOX ",
" XoOo. ",
" ..Oo. ",
"  .XX  ",
"       ",
"       ",
"  X..  ",
" ..oo+ ",
" XOOOX ",
" +oOXX ",
"  X..  ",
"       ",
"       ",
"  XXX  ",
" .OoO. ",
" XOOo. ",
" .XoX. ",
"  XX.  ",
"       ",
"       ",
"  ..X  ",
" .XoO. ",
" OoOOX ",
" .XoX. ",
"  .X.  ",
"       ",
"       ",
"  ..o  ",
" XXoO+ ",
" XOoo. ",
" ..oOX ",
"  X..  ",
"       ",
"       ",
"  .X.  ",
" .ooO. ",
" oOXo. ",
" +oOo. ",
"  o..  ",
"       ",
"       ",
"  X.X  ",
" X.ooO ",
" .oOO. ",
" O.ooX ",
"  X.X  ",
"       "};
