/* XPM */
static char * C0_xpm[] = {
/* width height colors chars_per_color */
"20  640 7 1"
/* colors */
"       c #000000000000",
".	c #B0B0B0B0B0B0",
"X	c #C1C1C1C1C1C1",
"o	c #D0D0D0D0D0D0",
"O	c #E0E0E0E0E0E0",
"+	c #FFFF00000000",
"@	c #0000FFFFFFFF",
/* pixmap */
"                    ",
"                    ",
"                    ",
"                    ",
"          .         ",
"        .XoX.       ",
"       .XoOoX.      ",
"       .XoOoX.      ",
"        .XoX.       ",
"       + .o. +      ",
"       @  +  @      ",
"       @  O  @      ",
"       X  @  X      ",
"          @         ",
"          @         ",
"          O         ",
"                    ",
"                    ",
"                    ",
"                    ",
"                    ",
"                    ",
"                    ",
"                    ",
"           .        ",
"         .XoX       ",
"        .XoOo.      ",
"        XoOOoX.     ",
"       +.XoX..      ",
"       + .o.        ",
"       @  +  +      ",
"       @  O  @      ",
"          @  @      ",
"         @  X       ",
"         @          ",
"         O          ",
"                    ",
"                    ",
"                    ",
"                    ",
"                    ",
"                    ",
"                    ",
"                    ",
"                    ",
"         ..X.       ",
"        .XoOoX.     ",
"         XoOoX      ",
"       + .XooX.     ",
"       @ .oX. .     ",
"       @  +. +      ",
"      X  O   @      ",
"         @  @       ",
"         @  X       ",
"        @           ",
"        O           ",
"                    ",
"                    ",
"                    ",
"                    ",
"                    ",
"                    ",
"                    ",
"                    ",
"                    ",
"         . . .      ",
"         .Xooo      ",
"         .ooOX.     ",
"       @+ XOoXX     ",
"       @ .ooXX.     ",
"      X   +.        ",
"         O   +      ",
"        @@  @       ",
"        @  X        ",
"       O   X        ",
"       O            ",
"                    ",
"                    ",
"                    ",
"                    ",
"                    ",
"                    ",
"                    ",
"                    ",
"                    ",
"          . .       ",
"         ..XXo.     ",
"        + XoOoX     ",
"       @@ XOOo..    ",
"      X@  oooXX     ",
"      X  +o..X.     ",
"        @O          ",
"       @@   +       ",
"      @@   @        ",
"      O   X         ",
"                    ",
"                    ",
"                    ",
"                    ",
"                    ",
"                    ",
"                    ",
"                    ",
"                    ",
"                    ",
"           .        ",
"          ...X      ",
"        ++.XoX..    ",
"       @@ XoOOX     ",
"      X   .oOo..    ",
"         +o.XXX     ",
"        @O  ...     ",
"      @@    +       ",
"     O@   @@        ",
"         X          ",
"                    ",
"                    ",
"                    ",
"                    ",
"                    ",
"                    ",
"                    ",
"                    ",
"                    ",
"                    ",
"                    ",
"           ...      ",
"        @+ XXX      ",
"      X@  .Xooo.    ",
"          .oOOX     ",
"         +oXooX.    ",
"      @@O  ..X.     ",
"     O@      .      ",
"         @@+        ",
"         X          ",
"                    ",
"                    ",
"                    ",
"                    ",
"                    ",
"                    ",
"                    ",
"                    ",
"                    ",
"                    ",
"                    ",
"            .       ",
"       @@@+ XX.     ",
"           .ooX     ",
"          .XoOo.    ",
"       @O+ooOoX     ",
"    O@@@  .XoX.     ",
"            ...     ",
"        X@@+        ",
"                    ",
"                    ",
"                    ",
"                    ",
"                    ",
"                    ",
"                    ",
"                    ",
"                    ",
"                    ",
"                    ",
"                    ",
"                    ",
"       X@@+ ..      ",
"           .XX.     ",
"          .XooX     ",
"    O@@@O+ooOOo.    ",
"          .XooX     ",
"           .XX.     ",
"       X@@+ ..      ",
"                    ",
"                    ",
"                    ",
"                    ",
"                    ",
"                    ",
"                    ",
"                    ",
"                    ",
"                    ",
"                    ",
"                    ",
"                    ",
"        @@++        ",
"           .X.      ",
"    O@@   .XoX.     ",
"       @O+ooOoX     ",
"          .XOOo.    ",
"      X    .ooX     ",
"       @@+ .X.      ",
"            .       ",
"                    ",
"                    ",
"                    ",
"                    ",
"                    ",
"                    ",
"                    ",
"                    ",
"                    ",
"                    ",
"                    ",
"        X           ",
"         @@+        ",
"    O@       .      ",
"      @@O ..XX.     ",
"         +oXoo.     ",
"         .XoOOX     ",
"      X@  .ooo.     ",
"        @+ XXX      ",
"          .. .      ",
"                    ",
"                    ",
"                    ",
"                    ",
"                    ",
"                    ",
"                    ",
"                    ",
"                    ",
"                    ",
"                    ",
"         X          ",
"    OO    @@        ",
"      @@   +        ",
"       @O . ...     ",
"         +oXoX      ",
"     XX  .oOoo.     ",
"       @  XoOo      ",
"        + XXXo.     ",
"          .X.       ",
"                    ",
"                    ",
"                    ",
"                    ",
"                    ",
"                    ",
"                    ",
"                    ",
"                    ",
"                    ",
"                    ",
"     O@  XX         ",
"      @@  @@        ",
"       @@  @+       ",
"        O+   .      ",
"     X   o.XX..     ",
"      @  .oooX      ",
"       + .oOoX.     ",
"         XXooX      ",
"         .X.X.      ",
"           .        ",
"                    ",
"                    ",
"                    ",
"                    ",
"                    ",
"                    ",
"                    ",
"                    ",
"                    ",
"      O             ",
"      @@  X         ",
"       @   @        ",
"        @  @+       ",
"     X  O+  +       ",
"      @  o.X..      ",
"      @  .ooX..     ",
"       +.XOOo.      ",
"        .XoOXX      ",
"        .X.X.       ",
"          . .       ",
"                    ",
"                    ",
"                    ",
"                    ",
"                    ",
"                    ",
"                    ",
"                    ",
"                    ",
"       O            ",
"       @@  X        ",
"        @  @        ",
"        O   @       ",
"     X@  +  +       ",
"      @  o..        ",
"      + .XoXX.      ",
"        .oOoX.      ",
"       .XoOoX.      ",
"        .XXo        ",
"         . .        ",
"                    ",
"                    ",
"                    ",
"                    ",
"                    ",
"                    ",
"                    ",
"                    ",
"        O           ",
"        @           ",
"        @           ",
"        @@  @       ",
"      X  O  @       ",
"      @  +  @       ",
"      @ .o. +       ",
"      + XoX.        ",
"       .oOooX.      ",
"       .XoOoX       ",
"       ..XoX.       ",
"          .         ",
"                    ",
"                    ",
"                    ",
"                    ",
"                    ",
"                    ",
"                    ",
"                    ",
"         O          ",
"         @          ",
"         @          ",
"      X  @  X       ",
"      @  O  @       ",
"      @  +  @       ",
"      + .o. +       ",
"       .XoX.        ",
"      .XoOoX.       ",
"      .XoOoX.       ",
"       .XoX.        ",
"         .          ",
"                    ",
"                    ",
"                    ",
"                    ",
"                    ",
"                    ",
"                    ",
"                    ",
"          O         ",
"          @         ",
"       X  @         ",
"      @  @          ",
"      @  O  @       ",
"      +  +  @       ",
"        .o. +       ",
"      ..XoX.+       ",
"     .XoOOoX        ",
"      .oOoX.        ",
"       XoX.         ",
"        .           ",
"                    ",
"                    ",
"                    ",
"                    ",
"                    ",
"                    ",
"                    ",
"                    ",
"           O        ",
"           @        ",
"       X  @         ",
"       @  @         ",
"      @   O  X      ",
"      + .+  @       ",
"     . .Xo. @       ",
"     .XooX. +       ",
"      XoOoX         ",
"     .XoOoX.        ",
"       .X..         ",
"                    ",
"                    ",
"                    ",
"                    ",
"                    ",
"                    ",
"                    ",
"                    ",
"                    ",
"            O       ",
"        X   O       ",
"        X  @        ",
"       @  @@        ",
"      +   O         ",
"        .+   X      ",
"     .XXoo. @       ",
"     XXoOX +@       ",
"     .XOoo.         ",
"      oooX.         ",
"      . . .         ",
"                    ",
"                    ",
"                    ",
"                    ",
"                    ",
"                    ",
"                    ",
"                    ",
"                    ",
"                    ",
"         X   O      ",
"        @   @@      ",
"       +   @@       ",
"          O@        ",
"     .X..o+  X      ",
"     XXoo.  @X      ",
"    ..oOoX @@       ",
"     XoooX +        ",
"     .XXX..         ",
"       . .          ",
"                    ",
"                    ",
"                    ",
"                    ",
"                    ",
"                    ",
"                    ",
"                    ",
"                    ",
"                    ",
"          X         ",
"        @@   @O     ",
"       +    @@      ",
"     ...  O@        ",
"     XXX.o+         ",
"    ..oOo.   X      ",
"     XOOoX @@       ",
"    ..XoX.++        ",
"      X...          ",
"        .           ",
"                    ",
"                    ",
"                    ",
"                    ",
"                    ",
"                    ",
"                    ",
"                    ",
"                    ",
"                    ",
"          X         ",
"        +@@         ",
"      .      @O     ",
"     .X..  O@@      ",
"    .XooXo+         ",
"     XOOo.          ",
"    .oooX.  @X      ",
"      XXX +@        ",
"      ...           ",
"                    ",
"                    ",
"                    ",
"                    ",
"                    ",
"                    ",
"                    ",
"                    ",
"                    ",
"                    ",
"                    ",
"                    ",
"        +@@X        ",
"     ...            ",
"     .XoX.  @@@O    ",
"     XoOoo+O@       ",
"    .oOoX.          ",
"     Xoo.           ",
"     .XX +@@@       ",
"       .            ",
"                    ",
"                    ",
"                    ",
"                    ",
"                    ",
"                    ",
"                    ",
"                    ",
"                    ",
"                    ",
"                    ",
"                    ",
"      .. +@@X       ",
"     .XX.           ",
"     XooX.          ",
"    .oOOoo+O@@@O    ",
"     XooX.          ",
"     .XX.           ",
"      .. +@@X       ",
"                    ",
"                    ",
"                    ",
"                    ",
"                    ",
"                    ",
"                    ",
"                    ",
"                    ",
"                    ",
"                    ",
"                    ",
"       .            ",
"      .X. +@@       ",
"     Xoo.    X      ",
"    .oOOX.          ",
"     XoOoo+O@       ",
"     .XoX.   @@O    ",
"      .X.           ",
"        ++@@        ",
"                    ",
"                    ",
"                    ",
"                    ",
"                    ",
"                    ",
"                    ",
"                    ",
"                    ",
"                    ",
"                    ",
"                    ",
"      . ..          ",
"      XXX +@        ",
"     .ooo.  @X      ",
"     XOOoX.         ",
"     .ooXo+         ",
"     .XX.. O@@      ",
"      .       @O    ",
"        +@@         ",
"           X        ",
"                    ",
"                    ",
"                    ",
"                    ",
"                    ",
"                    ",
"                    ",
"                    ",
"                    ",
"                    ",
"                    ",
"       .X.          ",
"     .oXXX +        ",
"      oOoX  @       ",
"     .ooOo.  XX     ",
"      XoXo+         ",
"     ... . O@       ",
"        +   @@      ",
"        @@    OO    ",
"          X         ",
"                    ",
"                    ",
"                    ",
"                    ",
"                    ",
"                    ",
"                    ",
"                    ",
"                    ",
"                    ",
"        .           ",
"      .X.X.         ",
"      XooXX         ",
"     .XoOo. +       ",
"      Xooo.  @      ",
"     ..XX.o   X     ",
"      .   +O        ",
"       +@  @@       ",
"        @@  @@      ",
"         XX  @O     ",
"                    ",
"                    ",
"                    ",
"                    ",
"                    ",
"                    ",
"                    ",
"                    ",
"                    ",
"                    ",
"       . .          ",
"       .X.X.        ",
"      XXOoX.        ",
"      .oOOX.+       ",
"     ..Xoo.  @      ",
"      ..X.o  @      ",
"       +  +O  X     ",
"       +@  @        ",
"        @   @       ",
"         X  @@      ",
"             O      ",
"                    ",
"                    ",
"                    ",
"                    ",
"                    ",
"                    ",
"                    ",
"                    ",
"                    ",
"        . .         ",
"        oXX.        ",
"      .XoOoX.       ",
"      .XoOo.        ",
"      .XXoX. +      ",
"        ..o  @      ",
"       +  +  @X     ",
"       @   O        ",
"        @  @        ",
"        X  @@       ",
"            O       ",
"                    ",
"                    ",
"                    ",
"                    ",
"                    ",
"                    ",
"                    ",
"                    ",
"                    ",
"         .          ",
"       .XoX..       ",
"       XoOoX.       ",
"      .XooOo.       ",
"        .XoX +      ",
"       + .o. @      ",
"       @  +  @      ",
"       @  O  X      ",
"       @  @@        ",
"           @        ",
"           @        ",
"           O        ",
"                    ",
"                    ",
"                    ",
"                    ",
};
