/* XPM */
static char * C0_xpm[] = {
/* width height colors chars_per_color */
"20  640 7 1"
/* colors */
" 	c None",
".	c #A0A0A0A00000",
"X	c #C8C8C8C80000",
"o	c #FFFFFFFF0000",
"O	c #787878780000",
"+	c #787878780000",
"@	c #787878780000",
/* pixels */
"                    ",
"                    ",
"         ...        ",
"        XXXXX       ",
"       .XXoXX.      ",
"       .XoooX.      ",
"       .XXoXX.      ",
"        .XXX.       ",
"         XOX        ",
"          +         ",
"          +         ",
"          +         ",
"          +         ",
"          +         ",
"          +         ",
"          +         ",
"          @         ",
"                    ",
"                    ",
"                    ",
"                    ",
"                    ",
"          ...       ",
"         XXXX       ",
"        .XXoXX      ",
"        .XoooX.     ",
"        .XXoXX.     ",
"        .XXXXX.     ",
"         XOX        ",
"          +         ",
"          +         ",
"          +         ",
"          +         ",
"         +          ",
"         +          ",
"         +          ",
"         @          ",
"                    ",
"                    ",
"                    ",
"                    ",
"                    ",
"            .       ",
"         . XX..     ",
"         .XXXXX     ",
"         .XooXX     ",
"         XXoooX.    ",
"         .XXXX.     ",
"          XOX..     ",
"          +X        ",
"          +         ",
"         +          ",
"         +          ",
"         +          ",
"        +           ",
"        +           ",
"       @            ",
"                    ",
"                    ",
"                    ",
"                    ",
"                    ",
"                    ",
"            X..     ",
"          .XXX..    ",
"         ..XXoXX    ",
"          XXooXX    ",
"          XXooX.    ",
"          XXXXX.    ",
"          +OX.      ",
"          +         ",
"         +          ",
"        ++          ",
"        +           ",
"       +            ",
"      @+            ",
"                    ",
"                    ",
"                    ",
"                    ",
"                    ",
"                    ",
"                    ",
"                    ",
"           ..X..    ",
"          ..XXX..   ",
"           XoooX    ",
"          .XoooXX   ",
"          XXXXXX.   ",
"          +OX.X.    ",
"         ++  .      ",
"        ++          ",
"       ++           ",
"      ++            ",
"     @+             ",
"                    ",
"                    ",
"                    ",
"                    ",
"                    ",
"                    ",
"                    ",
"                    ",
"                    ",
"             .      ",
"           ..XX..   ",
"           .XoXX.   ",
"           .XoooX   ",
"          XXXooXX   ",
"           OXXXX.   ",
"         ++ X.X.    ",
"        ++          ",
"      ++            ",
"     ++             ",
"                    ",
"                    ",
"                    ",
"                    ",
"                    ",
"                    ",
"                    ",
"                    ",
"                    ",
"                    ",
"                    ",
"             ..     ",
"            .XXX.   ",
"           .XoXXX.  ",
"           XXXooX.  ",
"           OXooXX   ",
"         ++XXXXXX   ",
"      +++    ....   ",
"    @++             ",
"                    ",
"                    ",
"                    ",
"                    ",
"                    ",
"                    ",
"                    ",
"                    ",
"                    ",
"                    ",
"                    ",
"                    ",
"                    ",
"            ...     ",
"            .XXXX.  ",
"            XXoXX.  ",
"           XXoooX.  ",
"       ++++OXXoXX.  ",
"   @++++   XXXXXX   ",
"              ...   ",
"                    ",
"                    ",
"                    ",
"                    ",
"                    ",
"                    ",
"                    ",
"                    ",
"                    ",
"                    ",
"                    ",
"                    ",
"                    ",
"                    ",
"             ...    ",
"            .XXXX   ",
"           XXXoXX.  ",
"   @+++++++OXoooX.  ",
"           XXXoXX.  ",
"            .XXXX   ",
"             ...    ",
"                    ",
"                    ",
"                    ",
"                    ",
"                    ",
"                    ",
"                    ",
"                    ",
"                    ",
"                    ",
"                    ",
"                    ",
"                    ",
"                    ",
"            ....    ",
"   @+++    XXXXXX   ",
"       ++++OXXoXX.  ",
"           XXoooX.  ",
"            XXoXX.  ",
"            XXXX    ",
"            ...     ",
"                    ",
"                    ",
"                    ",
"                    ",
"                    ",
"                    ",
"                    ",
"                    ",
"                    ",
"                    ",
"                    ",
"                    ",
"   @                ",
"    ++              ",
"      +++   .X...   ",
"         ++XXXXX    ",
"          XOXooXX   ",
"           XXooXX.  ",
"           .XoXX.   ",
"           ..XXX.   ",
"             .      ",
"                    ",
"                    ",
"                    ",
"                    ",
"                    ",
"                    ",
"                    ",
"                    ",
"                    ",
"                    ",
"    @               ",
"    ++              ",
"      ++            ",
"       ++     .     ",
"         ++XXX..    ",
"          OXXXXX    ",
"          XXooXXX   ",
"          .XoooX.   ",
"           XXXX..   ",
"           ..XX.    ",
"                    ",
"                    ",
"                    ",
"                    ",
"                    ",
"                    ",
"                    ",
"                    ",
"                    ",
"     @              ",
"     ++             ",
"      ++            ",
"       ++           ",
"        ++          ",
"         + X. .     ",
"          OXXX..    ",
"          XXXoX.    ",
"         ..XooXX    ",
"          XXooX.    ",
"          .XXX..    ",
"           .X .     ",
"                    ",
"                    ",
"                    ",
"                    ",
"                    ",
"                    ",
"                    ",
"                    ",
"      +             ",
"      ++            ",
"       +            ",
"        +           ",
"        ++          ",
"         + X        ",
"          OX...     ",
"         XXXXX.     ",
"         .XoooX.    ",
"         XXooXX     ",
"         .XXoX.     ",
"          .XX..     ",
"                    ",
"                    ",
"                    ",
"                    ",
"                    ",
"                    ",
"                    ",
"       @            ",
"       +            ",
"       ++           ",
"        +           ",
"        +           ",
"         +          ",
"         +          ",
"         XOX.       ",
"         XXXX.      ",
"        .XoXoX.     ",
"        .XooXX.     ",
"        .XXoXX      ",
"        .XXXX.      ",
"           ..       ",
"                    ",
"                    ",
"                    ",
"                    ",
"                    ",
"        @           ",
"        +           ",
"        +           ",
"        +           ",
"        ++          ",
"         +          ",
"         +          ",
"         +          ",
"        XOX         ",
"        XXXX..      ",
"        XXoXX.      ",
"       .XoooX.      ",
"       .XXoXX       ",
"       .XXXXX       ",
"         ....       ",
"                    ",
"                    ",
"                    ",
"                    ",
"                    ",
"         @          ",
"         +          ",
"         +          ",
"         +          ",
"         +          ",
"         +          ",
"         +          ",
"         +          ",
"        XOX         ",
"       .XXX.        ",
"      .XXoXX.       ",
"      .XoooX.       ",
"      .XXoXX.       ",
"       XXXXX        ",
"        ...         ",
"                    ",
"                    ",
"                    ",
"                    ",
"                    ",
"          @         ",
"          +         ",
"          +         ",
"          +         ",
"         +          ",
"         +          ",
"         +          ",
"         +          ",
"        XOX         ",
"     .XXXXX.        ",
"     .XXoXX.        ",
"     .XoooX.        ",
"      XXoXX.        ",
"       XXXX         ",
"       ...          ",
"                    ",
"                    ",
"                    ",
"                    ",
"                    ",
"            @       ",
"           +        ",
"           +        ",
"          +         ",
"          +         ",
"          +         ",
"         +          ",
"        X+          ",
"     ..XOX          ",
"     .XXXX.         ",
"    .XoooXX         ",
"     XXooX.         ",
"     XXXXX.         ",
"     ..XX .         ",
"       .            ",
"                    ",
"                    ",
"                    ",
"                    ",
"                    ",
"                    ",
"            +@      ",
"            +       ",
"           +        ",
"          ++        ",
"          +         ",
"         +          ",
"      .XO+          ",
"    .XXXXX          ",
"    .XooXX          ",
"    XXooXX          ",
"    XXoXX..         ",
"    ..XXX.          ",
"     ..X            ",
"                    ",
"                    ",
"                    ",
"                    ",
"                    ",
"                    ",
"                    ",
"                    ",
"             +@     ",
"            ++      ",
"           ++       ",
"          ++        ",
"      .  ++         ",
"    .X.XO           ",
"   .XXXXXX          ",
"   XXooXX.          ",
"    XoooX           ",
"   ..XXX..          ",
"    ..X..           ",
"                    ",
"                    ",
"                    ",
"                    ",
"                    ",
"                    ",
"                    ",
"                    ",
"                    ",
"                    ",
"             ++     ",
"            ++      ",
"          ++        ",
"    .X.X ++         ",
"   .XXXXO           ",
"   XXooXXX          ",
"   XoooX.           ",
"   .XXoX.           ",
"   ..XX..           ",
"      .             ",
"                    ",
"                    ",
"                    ",
"                    ",
"                    ",
"                    ",
"                    ",
"                    ",
"                    ",
"                    ",
"                    ",
"             ++@    ",
"   ....    +++      ",
"   XXXXXX++         ",
"   XXooXO           ",
"  .XooXXX           ",
"  .XXXoX.           ",
"   .XXX.            ",
"     ..             ",
"                    ",
"                    ",
"                    ",
"                    ",
"                    ",
"                    ",
"                    ",
"                    ",
"                    ",
"                    ",
"                    ",
"                    ",
"   ...              ",
"   XXXXXX   ++++@   ",
"  .XXoXXO++++       ",
"  .XoooXX           ",
"  .XXoXX            ",
"  .XXXX.            ",
"     ...            ",
"                    ",
"                    ",
"                    ",
"                    ",
"                    ",
"                    ",
"                    ",
"                    ",
"                    ",
"                    ",
"                    ",
"                    ",
"    ...             ",
"   XXXX.            ",
"  .XXoXXX           ",
"  .XoooXO+++++++@   ",
"  .XXoXXX           ",
"   XXXX.            ",
"    ...             ",
"                    ",
"                    ",
"                    ",
"                    ",
"                    ",
"                    ",
"                    ",
"                    ",
"                    ",
"                    ",
"                    ",
"                    ",
"     ...            ",
"    XXXX            ",
"  .XXoXX            ",
"  .XoooXX           ",
"  .XXoXXO++++       ",
"   XXXXXX    +++@   ",
"    ....            ",
"                    ",
"                    ",
"                    ",
"                    ",
"                    ",
"                    ",
"                    ",
"                    ",
"                    ",
"                    ",
"                    ",
"                    ",
"      .             ",
"   .XXX..           ",
"   .XXoX.           ",
"  .XXooXX           ",
"   XXooXOX          ",
"    XXXXX++         ",
"   ...X.   +++      ",
"              ++    ",
"                @   ",
"                    ",
"                    ",
"                    ",
"                    ",
"                    ",
"                    ",
"                    ",
"                    ",
"                    ",
"                    ",
"                    ",
"    .XX..           ",
"   ..XXXX           ",
"   .XoooX.          ",
"   XXXooXX          ",
"    XXXXXO          ",
"    ..XXX++         ",
"     .     ++       ",
"            ++      ",
"              ++    ",
"               @    ",
"                    ",
"                    ",
"                    ",
"                    ",
"                    ",
"                    ",
"                    ",
"                    ",
"                    ",
"     . X.           ",
"    ..XXX.          ",
"    .XooXX          ",
"    XXooX..         ",
"    .XoXXX          ",
"    ..XXXO          ",
"     . .X +         ",
"          ++        ",
"           ++       ",
"            ++      ",
"             ++     ",
"              @     ",
"                    ",
"                    ",
"                    ",
"                    ",
"                    ",
"                    ",
"                    ",
"                    ",
"     ..XX.          ",
"     .XoXX.         ",
"     XXooXX         ",
"    .XoooX.         ",
"     .XXXXX         ",
"     ...XO          ",
"        X +         ",
"          ++        ",
"           +        ",
"            +       ",
"            ++      ",
"             +      ",
"                    ",
"                    ",
"                    ",
"                    ",
"                    ",
"                    ",
"                    ",
"       ..           ",
"      .XXXX.        ",
"      XXoXX.        ",
"     .XXooX.        ",
"     .XoXoX.        ",
"      .XXXX         ",
"       .XOX         ",
"          +         ",
"          +         ",
"           +        ",
"           +        ",
"           ++       ",
"            +       ",
"            @       ",
"                    ",
"                    ",
"                    ",
"                    ",
"                    ",
"                    ",
"       ....         ",
"       XXXXX.       ",
"       XXoXX.       ",
"      .XoooX.       ",
"      .XXoXX        ",
"      ..XXXX        ",
"         XOX        ",
"          +         ",
"          +         ",
"          +         ",
"          ++        ",
"           +        ",
"           +        ",
"           +        ",
"           @        ",
"                    ",
"                    ",
"                    ",
};
