/* XPM */
static char * torp_yellow[] = {
"5 40 5 1",
" 	c None",
".	c #7F7F50503F3F",
"X	c #B0B070700000",
"o	c #FFFFC8C80000",
"O	c #FFFFFFFF7F7F",
"  .  ",
" XoX.",
"XoOoX",
".XoX ",
"  .  ",
"   . ",
"oXXX ",
".oOo.",
" oXXo",
" .   ",
"o   .",
".oXX ",
" XOoo",
"XXXX.",
".   X",
"o.   ",
" oXX.",
" oOX ",
".XXo ",
"   o.",
" .X  ",
" XoX ",
".oOo.",
" XoX ",
"  X. ",
"  .o ",
".XXo ",
" oOX ",
"oXXX.",
"X .  ",
".  .o",
" XXo ",
" XOX ",
" oXo ",
"o.  .",
" . ..",
" oXXo",
" XOo ",
"oXXo ",
".  .o"};
