/* XPM */
static char * C4_xpm[] = {
/* width height colors chars_per_color */
"20  640 7 1"
/* colors */
" 	c None",
".	c #9191ACAC9191",
"X	c #A1A1C1C1A1A1",
"o	c #B0B0D0D0B0B0",
"O	c #7F7F97977F7F",
"+	c #E0E000000000",
"@	c #FFFF00000000",
/* pixels */
"                    ",
"                    ",
"                    ",
"         .X.        ",
"        .XoX.       ",
"       .XoooX.      ",
"     O .XoooX. O    ",
"     O..XoooX..O    ",
"    +O..XoooX..O+   ",
"    +O..XoooX..O+   ",
"    +O. .ooo. .O+   ",
"    .O  OoooO  O.   ",
"     O   .o.   O    ",
"     O  O.o.O  O    ",
"     O  O.X.O  O    ",
"     O  ..O..  O    ",
"        .@ @.       ",
"        O   O       ",
"                    ",
"                    ",
"                    ",
"                    ",
"                    ",
"          .X.       ",
"         .XoX       ",
"      O .Xooo.      ",
"      O..XoooX.     ",
"    +O..XooooX. O   ",
"    +O..XoooX..O    ",
"    +O..XoooX..O+   ",
"    .O  .ooo...O+   ",
"     O  Oooo. .O+   ",
"    O   ..o.O  O.   ",
"    O  O.o.O  O     ",
"    O  O.X.O  O     ",
"       ..O..  O     ",
"       .@ @.  O     ",
"           O        ",
"                    ",
"                    ",
"                    ",
"                    ",
"                    ",
"            .       ",
"         ..XX.      ",
"      OO .XooX.     ",
"     +O..XooooX     ",
"     +O..XoooX.     ",
"    +O..XXoooX. O   ",
"    .O. .oooX...O   ",
"    O   OoooX..O    ",
"    O   oooo. .O+   ",
"    O  O.o.O .O++   ",
"   O  O..o.   O.    ",
"      ..X.O   O     ",
"      .@O.O  O      ",
"     O  @..  O      ",
"         O  O       ",
"                    ",
"                    ",
"                    ",
"                    ",
"                    ",
"                    ",
"        O ..X.      ",
"      +O...XXo.     ",
"     +OO..XoooX.    ",
"    ++O..XooooX     ",
"    .O. .XoooXX.    ",
"    OO  .ooooX.     ",
"    O  OooooX...O   ",
"   O    .oo.X..O    ",
"   O  O.oooO .OO+   ",
"     ...o.   .O+    ",
"     ..O.OO  O.     ",
"    O  O.O  OO      ",
"       @.   O       ",
"       OO  O        ",
"                    ",
"                    ",
"                    ",
"                    ",
"                    ",
"                    ",
"        OO .        ",
"      +OO...XXX     ",
"     +OO...Xooo.    ",
"     OO...Xoooo.    ",
"    OO   XooooXX    ",
"   OO   .ooooXX.    ",
"  OO    ooooXX.     ",
"      O.oooXX...O   ",
"     O.oo.O....O    ",
"    ..XX.   ..O+    ",
"   O  O.OO   O+     ",
"      @.O   O.      ",
"      O.   O        ",
"      O   O         ",
"                    ",
"                    ",
"                    ",
"                    ",
"                    ",
"                    ",
"       ++OO         ",
"      ++OO....      ",
"     .OO....XoXX    ",
"     OO...XXoooo.   ",
"   OO    XoooooX    ",
"  OO   O.oooooXX    ",
"      O.oooooXX.    ",
"    .O..oooXX..     ",
"   ...Xo.o.....O    ",
"    @OX.O   ..OO    ",
"     @.OO   OO+     ",
"     ..    OO+      ",
"     O   OO .       ",
"        OO          ",
"                    ",
"                    ",
"                    ",
"                    ",
"                    ",
"                    ",
"        ++OO        ",
"      .+OO.  .      ",
"     OOO.....X.     ",
"   OOO   ..XXoX.X   ",
"        .XXooooo.   ",
"      O OooooooX    ",
"    .O..ooooooXX.   ",
"  O...ooooooXX..    ",
"   @ OX..O.X..      ",
"    @..O   ....O    ",
"    ..O    .OOO     ",
"    O     OO++      ",
"       OOO .+       ",
"       O            ",
"                    ",
"                    ",
"                    ",
"                    ",
"                    ",
"                    ",
"       .+++ O       ",
"       OOOOO        ",
"   OOOO ......      ",
"          ..XXX.    ",
"        O.XXoooX.   ",
"  O..OO.ooooooooX   ",
"   @...ooooooooX.   ",
"    OXoooooooXX.    ",
"   @....O.XXX...    ",
"   O..OO   ...      ",
"          ...OO     ",
"        OOOOO       ",
"     OOO .+++       ",
"                    ",
"                    ",
"                    ",
"                    ",
"                    ",
"                    ",
"                    ",
"        .+++        ",
"    OOOOOOOOOO      ",
"         ....       ",
"          .....     ",
"  O..OO O.XXXXX.    ",
"   @....oooooooX.   ",
"    OXooooooooooX   ",
"   @....oooooooX.   ",
"  O..OO O.XXXXX.    ",
"          .....     ",
"         ....       ",
"    OOOOOOOOOO      ",
"        .+++        ",
"                    ",
"                    ",
"                    ",
"                    ",
"                    ",
"                    ",
"                    ",
"     OOO .+++       ",
"        OOOOO       ",
"          ...OO     ",
"   ..OO   ....      ",
"   @....O.XXX..     ",
"    OXo.oooooXX.    ",
"   @...ooooooooX.   ",
"  O..OO.ooooooooX   ",
"       O..XXoooX.   ",
"         ...XX.     ",
"   OOOO ......      ",
"       OOOOO        ",
"       .+++ O       ",
"                    ",
"                    ",
"                    ",
"                    ",
"                    ",
"                    ",
"      O             ",
"       OOO.+        ",
"   O      OO++      ",
"    ..O   ..OOO     ",
"    @..O   ...O     ",
"   @OX..oO.X..      ",
"  O...oooooXXX..    ",
"   .OO..ooooooX.    ",
"       OoooooooX    ",
"  O     .XXooooX.   ",
"   OO  . ..XXoX.    ",
"     OOO.....X.     ",
"      .+OO.         ",
"       ++ OO        ",
"                    ",
"                    ",
"                    ",
"                    ",
"                    ",
"                    ",
"       OO           ",
"    O    OO.+       ",
"     ..   OO++      ",
"     ..O   .OO+     ",
"  O@OO.. O  .OO     ",
"  O...oo.o.....O    ",
"    OO.ooooXX..     ",
"     O ooooooX..    ",
"  O    O.oooooX.    ",
"   OO   XXooooXX    ",
"    OO....XXooo.    ",
"     .OO...XXX.     ",
"      +OO. . .      ",
"       + O          ",
"                    ",
"                    ",
"                    ",
"                    ",
"                    ",
"         O          ",
"     O   OO         ",
"      .   OO        ",
"      .O   OO+      ",
"  OO@OX.O   OO+     ",
"   ...Xo.   .OO     ",
"    OO.ooo. ..OO    ",
"     O .oooX...O    ",
"  O    OooooX..     ",
"   O   .XooooX..    ",
"    O ..XXooooX     ",
"    .O...XXoooX     ",
"     +O...XXoo.     ",
"      +O. .X..      ",
"        O           ",
"                    ",
"                    ",
"                    ",
"                    ",
"                    ",
"          O         ",
"       .  OO        ",
"      @..  O        ",
"   O.@O.O   O.      ",
"    ..XX.O  OO+     ",
"     O.o..O .O++    ",
"  O  OO.oo. ..O+    ",
"  OO   ooooX..OO    ",
"   O   .ooooX..O    ",
"    O  .XoooX..     ",
"   .OO..XooooX.     ",
"    +O...Xoooo.     ",
"     +O..XXooX      ",
"      OO .XXoX      ",
"            .       ",
"                    ",
"                    ",
"                    ",
"                    ",
"                    ",
"        O           ",
"       @.   O       ",
"    O.@ ..  O       ",
"     ..O.O  OO      ",
"     O.Xo.O  O.     ",
"  OO  O.o.   O+     ",
"   O   .ooO. .O+    ",
"   O   OoooX..O+    ",
"    O  .oooX...O    ",
"   .O..XooooX. O    ",
"   ++O..XoooX.      ",
"    +O..XooooX.     ",
"     O. .XooX.      ",
"      O .XXo.       ",
"         . .X       ",
"                    ",
"                    ",
"                    ",
"                    ",
"                    ",
"          O         ",
"      O@ @.  O      ",
"      ..O..  O      ",
"   O  ..X.O  O      ",
"   O  O.o.O  O      ",
"   O  O.oo.   O.    ",
"    O  OoooO .O+    ",
"   .O  .ooo. .O+    ",
"   +O. XoooX..O+    ",
"   +O..XoooX..O     ",
"   +O..XooooX. O    ",
"     O..XoooX.      ",
"     O .XoooX       ",
"       ..XoX.       ",
"         .X.        ",
"                    ",
"                    ",
"                    ",
"                    ",
"                    ",
"       O   O        ",
"       .@ @.        ",
"    O  ..O..  O     ",
"    O  O.X.O  O     ",
"    O  O.o.O  O     ",
"    O   .o.   O     ",
"   .O  OoooO  O.    ",
"   +O. .ooo. .O+    ",
"   +O..XoooX..O+    ",
"   +O..XoooX..O+    ",
"    O..XoooX..O     ",
"    O .XoooX. O     ",
"      .XoooX.       ",
"       .XoX.        ",
"        .X.         ",
"                    ",
"                    ",
"                    ",
"                    ",
"                    ",
"        O           ",
"     O  .@ @.       ",
"     O  ..O..       ",
"     O  O.X.O  O    ",
"     O  O.o.O  O    ",
"   .O  O.o..   O    ",
"   +O. .oooO  O     ",
"   +O...ooo.  O.    ",
"   +O..XoooX..O+    ",
"    O..XoooX..O+    ",
"   O .XooooX..O+    ",
"     .XoooX..O      ",
"      .oooX. O      ",
"       XoX.         ",
"       .X.          ",
"                    ",
"                    ",
"                    ",
"                    ",
"                    ",
"       O  O         ",
"      O  ..@  O     ",
"      O  O.O@.      ",
"     O   O.X..      ",
"    .O   .o..O  O   ",
"   ++O. O.o.O  O    ",
"   +O. .oooo   O    ",
"    O..XoooO   O    ",
"   O...Xooo. .O.    ",
"   O .XoooXX..O+    ",
"     .XoooX..O+     ",
"     XooooX..O+     ",
"     .XooX. OO      ",
"      .XX..         ",
"       .            ",
"                    ",
"                    ",
"                    ",
"                    ",
"                    ",
"        O  OO       ",
"       O   .@       ",
"      OO  O.O  O    ",
"     .O  OO.O..     ",
"    +O.   .o...     ",
"   +OO. Oooo.O  O   ",
"    O..X.oo.    O   ",
"   O...XooooO  O    ",
"     .Xoooo.  OO    ",
"    .XXoooX. .O.    ",
"     XooooX..O++    ",
"    .XoooX..OO+     ",
"     .oXX...O+      ",
"      .X.. O        ",
"                    ",
"                    ",
"                    ",
"                    ",
"                    ",
"                    ",
"         O   O      ",
"        O   .O      ",
"      .O   O.@      ",
"     +O   OO.O  O   ",
"    +O..   .XX..    ",
"    O....O.oo.O     ",
"   O...XXooo.O      ",
"     .XXoooo    OO  ",
"    .XXoooo.   OO   ",
"    XXooooX   OO    ",
"    .ooooX...OO     ",
"    .oooX...OO+     ",
"     .XX...OO+      ",
"        . OO        ",
"                    ",
"                    ",
"                    ",
"                    ",
"                    ",
"                    ",
"          OO        ",
"       . OO   O     ",
"      +OO    ..     ",
"     +OO   OO.@     ",
"    OO..   O.XO@    ",
"    O.....o.oX...   ",
"     ..XXooo..O.    ",
"    .XXooooo.O      ",
"    XXooooo.O   OO  ",
"    XoooooX    OO   ",
"   .ooooXX...OO     ",
"    XXoX....OO.     ",
"      ....OO++      ",
"         OO++       ",
"                    ",
"                    ",
"                    ",
"                    ",
"                    ",
"                    ",
"            O       ",
"       +. OOO       ",
"      ++OO     O    ",
"     OOO.    O..    ",
"    O....   O..@    ",
"      ..X.O..XO @   ",
"    ..XXoooooo...O  ",
"   .XXoooooo..O.    ",
"    XooooooO O      ",
"   .oooooXX.        ",
"   X.XoXX..   OOO   ",
"     .X.....OOO     ",
"      .  .OO+.      ",
"        OO++        ",
"                    ",
"                    ",
"                    ",
"                    ",
"                    ",
"                    ",
"                    ",
"       +++. OOO     ",
"       OOOOO        ",
"     OO...          ",
"      ...   OO..O   ",
"    ...XXX.O....@   ",
"    .XXoooooooXO    ",
"   .Xoooooooo...@   ",
"   Xoooooooo.OO..O  ",
"   .XoooXX.O        ",
"    .XXX..          ",
"      ...... OOOO   ",
"        OOOOO       ",
"       O +++.       ",
"                    ",
"                    ",
"                    ",
"                    ",
"                    ",
"                    ",
"                    ",
"        +++.        ",
"      OOOOOOOOOO    ",
"       ....         ",
"     .....          ",
"    .XXXXX.O OO..O  ",
"   .Xooooooo....@   ",
"   XooooooooooXO    ",
"   .Xooooooo....@   ",
"    .XXXXX.O OO..O  ",
"     .....          ",
"       ....         ",
"      OOOOOOOOOO    ",
"        +++.        ",
"                    ",
"                    ",
"                    ",
"                    ",
"                    ",
"                    ",
"                    ",
"       O +++.       ",
"        OOOOO       ",
"      ...... OOOO   ",
"     .XX...         ",
"   .XoooXX..O       ",
"   Xoooooooo.OO..O  ",
"   .Xoooooooo...@   ",
"    .XXooooo.oXO    ",
"     ..XXX.O....@   ",
"      ....   OO..   ",
"     OO...          ",
"       OOOOO        ",
"       +++. OOO     ",
"                    ",
"                    ",
"                    ",
"                    ",
"                    ",
"                    ",
"                    ",
"        OO ++       ",
"         .OO+.      ",
"     .X.....OOO     ",
"    .XoXX.. .  OO   ",
"   .XooooXX.     O  ",
"    XoooooooO       ",
"    .Xoooooo..OO.   ",
"    ..XXXooooo...O  ",
"      ..X.Oo..XO@   ",
"     O...   O..@    ",
"     OOO..   O..    ",
"      ++OO      O   ",
"        +.OOO       ",
"             O      ",
"                    ",
"                    ",
"                    ",
"                    ",
"                    ",
"                    ",
"          O +       ",
"      . . .OO+      ",
"     .XXX...OO.     ",
"    .oooXX....OO    ",
"    XXooooXX   OO   ",
"    .Xooooo.O    O  ",
"    ..Xoooooo O     ",
"     ..XXoooo.OO    ",
"    O.....o.oo...O  ",
"     OO.  O ..OO@O  ",
"     +OO.   O..     ",
"      ++OO   ..     ",
"       +.OO    O    ",
"           OO       ",
"                    ",
"                    ",
"                    ",
"                    ",
"                    ",
"                    ",
"           O        ",
"      ..X. .O+      ",
"     .ooXX...O+     ",
"     XoooXX...O.    ",
"     XooooXX.. O    ",
"    ..XooooX.   O   ",
"     ..XooooO    O  ",
"    O...Xooo. O     ",
"    OO.. .ooo.OO    ",
"     OO.   .oX...   ",
"     +OO   O.XO@OO  ",
"      +OO   O.      ",
"        OO   .      ",
"         OO   O     ",
"          O         ",
"                    ",
"                    ",
"                    ",
"                    ",
"                    ",
"       .            ",
"      XoXX. OO      ",
"      XooXX..O+     ",
"     .ooooX...O+    ",
"     .XooooX..OO.   ",
"     ..XoooX.  O    ",
"    O..Xoooo.   O   ",
"    OO..Xoooo   OO  ",
"    +O.. .oo.OO  O  ",
"    ++O. O..o.O     ",
"     +OO  O.XX..    ",
"      .O   O.O@.O   ",
"        O  ..@      ",
"        OO  .       ",
"         O          ",
"                    ",
"                    ",
"                    ",
"                    ",
"                    ",
"       X. .         ",
"       .oXX. O      ",
"      .XooX. .O     ",
"     .XooooX..O+    ",
"      .XoooX..O++   ",
"    O .XooooX..O.   ",
"    O...Xooo.  O    ",
"    +O..XoooO   O   ",
"    +O. .Ooo.   O   ",
"     +O   .o.O  OO  ",
"     .O  O.oX.O     ",
"      OO  O.O..     ",
"       O  .. @.O    ",
"       O   .@       ",
"           O        ",
"                    ",
"                    ",
"                    ",
"                    ",
"                    ",
"        .X.         ",
"       .XoX..       ",
"       XoooX. O     ",
"      .XoooX..O     ",
"    O .XooooX..O+   ",
"     O..XoooX..O+   ",
"    +O..XoooX .O+   ",
"    +O. .ooo.  O.   ",
"    +O. OoooO  O    ",
"    .O   .oo.O  O   ",
"      O  O.o.O  O   ",
"      O  O.X..  O   ",
"      O  ..O..      ",
"      O  .@ @O      ",
"         O          ",
"                    ",
"                    ",
};
