/* XPM */
static char * C4_xpm[] = {
/* width height colors chars_per_pixel */
"20  640 7 1"
/* colors */
" 	c None",
".	c #A0A000000000",
"X	c #C8C800000000",
"o	c #787800000000",
"O	c #FFFF00000000",
"+	c #787800000000",
"@	c #787800000000",
/* pixels */
"                    ",
"         .X.        ",
"        oXOXo       ",
"       oXOOOXo      ",
"     o .XXXXX. o    ",
"     ooXXOOOXXoo    ",
"     +.XXOOOXX.+    ",
"     +.XXOOOXX.+    ",
"     +..XXXXX..+    ",
"     +o  ooo  o+    ",
"     o  oXOXo  o    ",
"     o  .XOX.  o    ",
"     o  oXOXo  o    ",
"         ooo        ",
"        oXXXo       ",
"        .X@X.       ",
"        .o o.       ",
"        o   o       ",
"                    ",
"                    ",
"                    ",
"           .X       ",
"         oXOO.      ",
"      o oXOOOo      ",
"      oo.XXXXXo     ",
"      +.XXOOOX. o   ",
"      +.XXOOOXXoo   ",
"     +..XOOOOXX.+   ",
"     +o XXXXXX.+    ",
"     o   ooo ..+    ",
"     o  oXOXo o+    ",
"     o  .XOXo  o    ",
"       oXXOX.  o    ",
"        ooo   o     ",
"       oXXXo        ",
"       .X@X.        ",
"       .o o.        ",
"           o        ",
"                    ",
"                    ",
"                    ",
"            .       ",
"           oXX.     ",
"       o .oXOOX     ",
"       ooXXXOOXo    ",
"      ++.XXOXXXo    ",
"      +.XXOOOOX.    ",
"      +..XOOOXXooo  ",
"     oo  XXXOXX.+   ",
"     o  oooXX.X.+   ",
"    o   .XOo  .+    ",
"       oXOXXo o+    ",
"        XOX.  o     ",
"      oXoooo  o     ",
"      .XXX    o     ",
"      .o@Xo         ",
"     o  o..         ",
"         o          ",
"                    ",
"                    ",
"                    ",
"                    ",
"         o    .     ",
"        oo oXXOX    ",
"        +oXXXOOX    ",
"       +.XXXXXOXo   ",
"      ++.XXOOOXXo   ",
"      +o.XOOOOX.    ",
"     o    XOOXXXoo  ",
"    oo  oooXXXX.oo  ",
"       .XXOo ...+   ",
"       oXOXo  .+    ",
"      ooOOX.  ++    ",
"     .XXooo   o     ",
"     .X@Xo   o      ",
"    o  @Xo   o      ",
"       o.           ",
"       oo           ",
"                    ",
"                    ",
"                    ",
"                    ",
"          o         ",
"         oo o o.    ",
"        ++oX.XXOX   ",
"       ++.XXXXOOX   ",
"      o+.XXXOOXOoo  ",
"     oo  .XOOOOXX   ",
"    oo    XOOOXX.   ",
"        oXoXOXXXo   ",
"       oXOooXXX.oo  ",
"       XOOX  ...+   ",
"     oXoOX.o o.+    ",
"    .XXXooo  o+     ",
"   o  @Xo    o      ",
"      o.o   o       ",
"      o.            ",
"      o             ",
"                    ",
"                    ",
"                    ",
"                    ",
"                    ",
"           oo       ",
"         ++o .oo.   ",
"        ++.XXXXXXX  ",
"      ooo.XXXOXOO.  ",
"     oo   XXOOXXOo  ",
"          XOOOOXXo  ",
"       .oXoXOOXX.o  ",
"       XXOooXXXX    ",
"    .ooXOOX XXX.oo  ",
"   .XXXoXXoo ..+o   ",
"    o@XX o  oo++    ",
"     oXo    o+      ",
"     ..    oo       ",
"     o              ",
"                    ",
"                    ",
"                    ",
"                    ",
"                    ",
"                    ",
"             o      ",
"          ++o       ",
"        ++..oX.oo   ",
"     ooo o.XXXXXX.  ",
"          .XXOXOOOX ",
"        o XXOOOXOX. ",
"       o.XoXOOOXXo  ",
"    .ooXXOoXOOXXXo  ",
"  o.XXoOOXXoXXXX.   ",
"   o @XoX.o .X.o o  ",
"    oXX o   o..+o   ",
"    ..o     +++     ",
"    o     oo        ",
"         o          ",
"                    ",
"                    ",
"                    ",
"                    ",
"                    ",
"                    ",
"                    ",
"            +oo     ",
"       oo+++.o      ",
"      o  o..XX.o    ",
"           .XXXXXX. ",
"       o.o XOOOXOXX ",
"  o..o XXXoXOOOXOO. ",
"   oXXoOOOoXOOOXOX  ",
"    @XoOXXoXOXXXXo  ",
"   oXXoX.o  XXXX.o  ",
"   o..o     ...o    ",
"           o.++oo   ",
"        ooo++       ",
"                    ",
"                    ",
"                    ",
"                    ",
"                    ",
"                    ",
"                    ",
"                    ",
"                    ",
"       ooo++++oo    ",
"          o...o     ",
"           .XXX.o   ",
"  o..o o.o XXXXXXo  ",
"   oXXoXXXoXOOOXOX. ",
"    @XoOOOoXOOOXOOX ",
"   oXXoXXXoXOOOXOX. ",
"  o..o o.o XXXXXXo  ",
"           .XXX.o   ",
"          o...o     ",
"       ooo++++oo    ",
"                    ",
"                    ",
"                    ",
"                    ",
"                    ",
"                    ",
"                    ",
"                    ",
"                    ",
"        ooo++       ",
"           o.++oo   ",
"   ..o o    ...o    ",
"   oXXoX.o XXXX.o   ",
"    @XoXXXoXOXXXXo  ",
"   oXXoOOOoXOOOXOX  ",
"  o..o XXXoXOOOXOO. ",
"       .oo XOOOXOOX ",
"          .XXXXXo.  ",
"      o  o..XX.o    ",
"       oo+++.o      ",
"            +oo     ",
"                    ",
"                    ",
"                    ",
"                    ",
"                    ",
"                    ",
"                    ",
"         o          ",
"   o      oo        ",
"    ..o    o+++     ",
"    oXX o   ..+oo   ",
"   o@XoXX.o .X.o    ",
"  o.XXoOOXoXXXXX.   ",
"   .o oXXOoXOOXXo   ",
"      o.XoXXOOOXXo  ",
"        o XOOOXOOX. ",
"          .XXOXOOX  ",
"     oooo.XXXXXXX.  ",
"        ++..o.oo    ",
"          ++o       ",
"            o       ",
"                    ",
"                    ",
"                    ",
"                    ",
"                    ",
"                    ",
"    o     o         ",
"     ..   oo        ",
"     XXo    ++      ",
"  oo@@Xoo.  o++     ",
"  o.XXoOXXo ...+o   ",
"    oooOOXo XXXooo  ",
"      oXXOoXOXXX    ",
"       .ooXOOOXXo   ",
"          XOOOXXX   ",
"    oo   .XXOOXOX   ",
"      o+..XXXXOOO.  ",
"       ++..X.XXXX   ",
"         +oo oo     ",
"          oo        ",
"                    ",
"                    ",
"                    ",
"                    ",
"                    ",
"     o              ",
"      .    o        ",
"      Xo   oo       ",
"  ooo@XX    oo      ",
"   ..XXoXo   ++     ",
"    oooOOXo  .++    ",
"      oXOOX .X.+o   ",
"      o.XooXXXXooo  ",
"       o oXOOXXX    ",
"    o    XOOOOX.o   ",
"     ooo.XXOOOXX    ",
"      +..XXXOXOXo   ",
"       +..XXXOOX.   ",
"        +oo.XoXX    ",
"         o   o      ",
"                    ",
"                    ",
"                    ",
"                    ",
"                    ",
"       .            ",
"      oX.           ",
"   o.o@Xo   o       ",
"    .XXXo   oo      ",
"     oXoXX.  o      ",
"       XOXo  o+     ",
"      oXOOX  .++    ",
"       oXooXXX.+    ",
"    o  o oXOXXXoo   ",
"    ooo XXOOOXX o   ",
"     +o.XXOOOOX.    ",
"      +.XXXOXXXo    ",
"      ++.XXXXOXo    ",
"       oo .XOOX.    ",
"        o ooo.X     ",
"                    ",
"                    ",
"                    ",
"                    ",
"        o           ",
"       o.           ",
"    o.o X.          ",
"     .X@Xo   o      ",
"     oXXoo   o      ",
"       oOXo  o      ",
"      oXOX.o  +     ",
"   o   .XOX  o+     ",
"    o  oXooX...+    ",
"    o   oXXXXX.+    ",
"     +o.XOOOXXoo    ",
"     +.XXOOOOXX o   ",
"     +..XXOOXX.     ",
"      +oXXXXOXo     ",
"      o .XXOOXo     ",
"       o ooXO.      ",
"           .X       ",
"                    ",
"                    ",
"                    ",
"          o         ",
"      oo o.         ",
"      .X@X.         ",
"      .XXXo         ",
"      oooo   o      ",
"       XOOXo  o     ",
"    o  .XOX.  o     ",
"    o  oXOXo o+     ",
"    o   ooo  .+     ",
"    +o  XXXX..+     ",
"    +..XOOOOXX.+    ",
"     +.XXOOOXXoo    ",
"     +.XXOOOX. o    ",
"     ooXXXXXXo      ",
"     o .XOOOX       ",
"       ooXOXX       ",
"          .X.       ",
"                    ",
"                    ",
"                    ",
"       o   o        ",
"       .o o.        ",
"       .X@X.        ",
"       oXXXo        ",
"        ooo         ",
"    o  oXOXo  o     ",
"    o  .XOX.  o     ",
"    o  oXOXo  o     ",
"    +o  ooo  o+     ",
"    +..XXXXX..+     ",
"    +.XXOOOXX.+     ",
"    +.XXOOOXX.+     ",
"    ooXXOOOXXoo     ",
"    o .XXXXX. o     ",
"      oXOOOXo       ",
"       oXOXo        ",
"        .X.         ",
"                    ",
"                    ",
"                    ",
"        o           ",
"        .o o.       ",
"        .X@X.       ",
"        oXXXo       ",
"     o   ooo        ",
"    o  .XOXXo       ",
"    o  oXOX.  o     ",
"    +o oXOXo  o     ",
"    +.. ooo   o     ",
"    +.XXXXXX o+     ",
"   +.XXOOOOX..+     ",
"   ooXXOOOXX.+      ",
"   o .XOOOXX.+      ",
"     oXXXXX.oo      ",
"      oOOOXo o      ",
"      .OOXo         ",
"       X.           ",
"                    ",
"                    ",
"                    ",
"          o         ",
"         ..o  o     ",
"         oX@o.      ",
"     o    XXX.      ",
"     o  ooooXo      ",
"     o  .XOX        ",
"    +o oXXOXo       ",
"    +.  oOX.   o    ",
"   +.X.XXooo  o     ",
"   +.XXOXXX  oo     ",
"  oooXXOOOX..+      ",
"    .XOOOOXX.+      ",
"    oXXXOXX.++      ",
"    oXOOXXXoo       ",
"     XOOXo. o       ",
"     .XXo           ",
"       .            ",
"                    ",
"                    ",
"                    ",
"           oo       ",
"           .o       ",
"      o   oX@  o    ",
"      o   oX@X.     ",
"     o   oooXX.     ",
"    ++  .XOOoo      ",
"    +.  oXOXo       ",
"   +... oOXX.       ",
"  oo.XXXXooo  oo    ",
"  ooXXXOOX    o     ",
"    .XOOOOX.o+      ",
"   oXXOOOXX.++      ",
"   oXOXXXXX.+       ",
"    XOOXXXo+        ",
"    XOXXo oo        ",
"     .    o         ",
"                    ",
"                    ",
"                    ",
"                    ",
"             o      ",
"            .o      ",
"       o   o.o      ",
"      o    oX@  o   ",
"     +o  oooXXX.    ",
"    +.o o.XOoXo     ",
"   +...  XOOX       ",
"  oo.XXXooOXo       ",
"   oXXXOXoXo        ",
"   .XXOOOX    oo    ",
"   XXOOOOX.  oo     ",
"  ooOXOOXXX.+o      ",
"   XOOXXXX.++       ",
"   XXXX.Xo++        ",
"    .o o oo         ",
"         o          ",
"                    ",
"                    ",
"                    ",
"                    ",
"                    ",
"              o     ",
"       oo    ..     ",
"      +o    oXo     ",
"    ++oo  o XX@o    ",
"   o+.. ooXXoXXX.   ",
"  oo.XXX XOOXoo.    ",
"    XXXXooOXX       ",
"  o.XXOOXoXo.       ",
"  oXXOOOOX          ",
"  oOXXOOXX   oo     ",
"  .OOXOXXX.ooo      ",
"  XXXXXXX.++        ",
"   .oo. o++         ",
"       oo           ",
"                    ",
"                    ",
"                    ",
"                    ",
"                    ",
"                    ",
"          o         ",
"        oo     o    ",
"     +++     o..    ",
"   o+..o   o XXo    ",
"  o o.X. o.XoX@ o   ",
"   .XXXXoXXOOoXX.o  ",
"  oXXXOOXoOXXoo.    ",
"  oXXOOOXoX.o       ",
" .XOXOOOXX o        ",
" XOOOXOXX.          ",
"  .XXXXXX.o ooo     ",
"   oo.Xo..++        ",
"       o++          ",
"      o             ",
"                    ",
"                    ",
"                    ",
"                    ",
"                    ",
"                    ",
"                    ",
"       ++ooo        ",
"   oo++.o           ",
"    o...     o..o   ",
"  o.XXXX  o.XoXXo   ",
"  oXXXXOXoXXOoX@    ",
"  XOXOOOXoOOOoXXo   ",
" .OOXOOOXoXXX o..o  ",
" XXOXOOOX o.o       ",
" .XXXXXX.           ",
"    o.XX..o  o      ",
"      o.+++oo       ",
"     oo+            ",
"                    ",
"                    ",
"                    ",
"                    ",
"                    ",
"                    ",
"                    ",
"                    ",
"    oo++++ooo       ",
"     o...o          ",
"   o.XXX.           ",
"  oXXXXXX o.o o..o  ",
" .XOXOOOXoXXXoXXo   ",
" XOOXOOOXoOOOoX@    ",
" .XOXOOOXoXXXoXXo   ",
"  oXXXXXX o.o o..o  ",
"   o.XXX.           ",
"     o...o          ",
"    oo++++ooo       ",
"                    ",
"                    ",
"                    ",
"                    ",
"                    ",
"                    ",
"                    ",
"                    ",
"     oo+            ",
"      o.+++oo       ",
"    o.XX..o  o      ",
"  .oXXXXX.          ",
" XOOXOOOX oo.       ",
" .OOXOOOXoXXX o..o  ",
"  XOXOOOXoOOOoXXo   ",
"  oXXXXOXoXXXoX@    ",
"   o.XXXX o.XoXXo   ",
"    o...    o o..   ",
"   oo++.o           ",
"       ++ooo        ",
"                    ",
"                    ",
"                    ",
"                    ",
"                    ",
"                    ",
"                    ",
"       o            ",
"       o++          ",
"    oo.o..++        ",
"  .XXXXXXX.oooo     ",
"  XOOXOXX.          ",
" .XOOXOOOX o        ",
"  oXXOOOXXoX.o      ",
"   oXXOOXoOXXo o.   ",
"   .XXXXXoXOOoXX.o  ",
"    o.X. o.XXoX@o   ",
"   oo+..   o XXo    ",
"     +++o    o..    ",
"        oo      o   ",
"          o         ",
"                    ",
"                    ",
"                    ",
"                    ",
"                    ",
"                    ",
"        oo          ",
"     oo oo+         ",
"   XXXX.X..++       ",
"  .OOOXXXX..+o      ",
"   XOXOOXX.   oo    ",
"   XXXOOOX          ",
"   oXXOOOXoo.       ",
"    XXXOXoOXXo      ",
"  oooXXX oXOOooo    ",
"   o+... oXXOoXX.o  ",
"     ++o  .ooX@@oo  ",
"      ++    oXX     ",
"        oo   ..     ",
"         o     o    ",
"                    ",
"                    ",
"                    ",
"                    ",
"                    ",
"                    ",
"      o   o         ",
"    XXoX.oo+        ",
"   .XOOXXX..+       ",
"   oXOXOXXX..+      ",
"    XXOOOXX.ooo     ",
"   o.XOOOOX    o    ",
"    XXXOOXo o       ",
"  oooXXXXooX.o      ",
"   o+.X. XOOXo      ",
"    ++.  oXOOooo    ",
"     ++   oXoXX..   ",
"      oo    XX@ooo  ",
"       oo   oX      ",
"        o    .      ",
"              o     ",
"                    ",
"                    ",
"                    ",
"                    ",
"                    ",
"     X.ooo o        ",
"    .XOOX. oo       ",
"    oXOXXXX.++      ",
"    oXXXOXXX.+      ",
"    .XOOOOXX.o+     ",
"   o XXOOOXX ooo    ",
"   ooXXXOXo o  o    ",
"    +.XXXooXo       ",
"    ++.  XOOXo      ",
"     +o  oXOX       ",
"      o  .XXoXo     ",
"      oo   oXXX.    ",
"       o   oX@o.o   ",
"           .Xo      ",
"            .       ",
"                    ",
"                    ",
"                    ",
"                    ",
"       X.           ",
"      .OXoo o       ",
"     oXOOXX. o      ",
"     oXOXXXXo+      ",
"     .XXOOXX..+     ",
"   o XXOOOOXX.+     ",
"    ooXXOOOX.o+     ",
"    +.XXXXXo   o    ",
"    +...XooXo  o    ",
"     +o  XOX.   o   ",
"     +  o.XOXo      ",
"      o  oXOo       ",
"      o   ooXXo     ",
"      o   oX@X.     ",
"          .X o.o    ",
"           .o       ",
"           o        ",
"                    ",
"                    ",
"                    ",
"       .X.          ",
"       XXOXoo       ",
"       XOOOX. o     ",
"      oXXXXXXoo     ",
"    o .XOOOXX.+     ",
"    ooXXOOOXX.+     ",
"    +.XXOOOOX..+    ",
"     +..XXXX  o+    ",
"     +.  ooo   o    ",
"     +o oXOXo  o    ",
"     o  .XOX.  o    ",
"     o  oXOOX       ",
"      o   oooo      ",
"         oXXX.      ",
"         .X@X.      ",
"         .o oo      ",
"         o          ",
"                    ",
"                    ",
};
