/* XPM */
static char * C8_xpm[] = {
/* widht height colors chars_per_color */
"20  640 6 1"
/* colors */
" 	c None",
".	c #A0A000000000",
"X	c #C8C800000000",
"o	c #FFFF00000000",
"O	c #787800000000",
"+	c #787800000000",
/* pixels */
"                    ",
"                    ",
"         ..         ",
"         XX         ",
"        .oo.        ",
"        .oo.        ",
"         XX         ",
"         XX         ",
"  .      XX      .  ",
"  O   XXXooXXX   O  ",
"  O.XXX XooX XXX.O  ",
"  ..     oo     ..  ",
"  ..XXXXXooXXXXX..  ",
"  O.XXXXooooXXXX.O  ",
"   +XXXXooooXXXX+   ",
"    +.XXooooXX.+    ",
"     ...XooX...     ",
"       ++oo++       ",
"                    ",
"                    ",
"                    ",
"                    ",
"          ...       ",
"          XX        ",
"         .oo.       ",
"         .oo.       ",
"          XX        ",
"  O      XXX        ",
"  O   XX XX         ",
"  O.XXXXXooXX    .  ",
"  ..    XooX X   O  ",
"  ..XXX  oo  XXX.O  ",
"  .XXXXXoooX    .O  ",
"  +XXXXooooXXXX..   ",
"   +.XXooooXXXX.O   ",
"    ...ooooXXXX+    ",
"      +XooX.X.+     ",
"       ooo++..      ",
"                    ",
"                    ",
"                    ",
"                    ",
"            .       ",
"            X.      ",
"          .oX       ",
"   .      .oo.      ",
"   O      XXo.      ",
"  O.      XX        ",
"  ..XXXXX XX        ",
"  ..  X Xoo         ",
" O.XXX   ooXXX      ",
"  +XXXXXoo X X   .  ",
"  +XXXXoooX  XX. O  ",
"   .XXoooooXX  .O   ",
"   ..XooooXXXXX..   ",
"    +.XoooXXXX..    ",
"     +ooX.XX.X+O    ",
"       o++..+       ",
"                    ",
"                    ",
"                    ",
"                    ",
"                    ",
"             ..     ",
"    .      .oX.     ",
"   OO      .oo      ",
"   O.      Xoo.     ",
"  ..XX X  XXX.      ",
" O..  X XXXX        ",
"  .XXX  XooX        ",
"  XXXXX oooXX       ",
"  +XXXXXooX XX      ",
"  ..XXoooo  XX      ",
"   .XoooooXX XX O   ",
"   +.XoooXXXX .OO   ",
"    +ooooXXXXX..    ",
"     ooX.X.XX..     ",
"       ++..++ O     ",
"                    ",
"                    ",
"                    ",
"                    ",
"                    ",
"     .              ",
"    OO        ..    ",
"   .O.      .oX.    ",
"  ...XX     ooo     ",
"  O.X XXX  XXo.     ",
"  +XXX   XXXX       ",
"  XXXXX XooX        ",
"  .XXXXXoooX        ",
"  .XXXooooXXX       ",
"   .XooooX  X       ",
"  ++XooooXX X       ",
"   +ooooXXXX X O.   ",
"    ooXXXXXXX.OO    ",
"     ++.XXXX...     ",
"      + ..X+O.      ",
"                    ",
"                    ",
"                    ",
"                    ",
"                    ",
"     OO             ",
"    .O              ",
"  O...X      . ..   ",
"   .X XXX   .ooX.   ",
"  +XXX XXX  Xooo    ",
"  +XXXX  XXXXX..    ",
"  ..XXX XooXX       ",
"  .XXXoooooX        ",
"  +.ooooooXX        ",
"  +XooooX   X       ",
"   oooooXX X        ",
"   ooXoXXXX X       ",
"    +.XXXXX X.O.    ",
"     +..XXX..OO     ",
"       .+X...       ",
"           O        ",
"                    ",
"                    ",
"                    ",
"       O.           ",
"     .O             ",
"   O....            ",
"   +.X X            ",
"   XXX XXX   .. .   ",
"  +.XXX  X   ooXX.  ",
"  .XXXX XX XXXoo    ",
"  .XXXoX ooXXX..    ",
"  +.ooooooo         ",
"  +Xooooo XX        ",
"  ooooooX  X        ",
"   oXooXX XX        ",
"   +.XXXXX X        ",
"    +.XXXX X        ",
"     ..XXX...O.     ",
"       ++...O       ",
"         O          ",
"                    ",
"                    ",
"                    ",
"       OOO.         ",
"     O...           ",
"    +.. X           ",
"   +XXX X           ",
"  ..XXX XX          ",
"  .XXXX   X   .. .  ",
"  +.XXXX XX XXooX.  ",
"  +XoooooooXXXooX.  ",
"  oooooooooXX ..    ",
"  oooooo XX         ",
"  oXoooX  XX        ",
"   +.XXXX XX        ",
"    .XXXX X         ",
"    ..XXX X         ",
"     +XX...         ",
"      +...OOO       ",
"                    ",
"                    ",
"                    ",
"                    ",
"      O..OO.        ",
"     +....          ",
"    +XXX X          ",
"   ..XXX X          ",
"   .XXXX XX         ",
"  +.XXXX  X         ",
"  +XoooX XX   ..    ",
"  oooooooooXXXooX.  ",
"  oooooooooXXXooX.  ",
"  +XoooX XX   ..    ",
"  +.XXXX  X         ",
"   .XXXX XX         ",
"   ..XXX X          ",
"    +XXX X          ",
"     +....          ",
"      O..OO.        ",
"                    ",
"                    ",
"                    ",
"                    ",
"      +...OOO       ",
"     +XX...         ",
"    ..XXX X         ",
"    .XXXX X         ",
"   +.XXXX XX        ",
"  oXoooX  XX        ",
"  oooooo XX         ",
"  oooooooooXX ..    ",
"  +XoooooooXXXooX.  ",
"  +.XXXX XX XXooX.  ",
"  .XXXX   X   .. .  ",
"  ..XXX XX          ",
"   +XXX X           ",
"    +.. X           ",
"     O...           ",
"       OOO.         ",
"                    ",
"                    ",
"                    ",
"         O          ",
"       ++...O       ",
"     ..XXX...O.     ",
"    +.XXXX X        ",
"   +.XXXXX X        ",
"   oXooXX XX        ",
"  ooooooX  X        ",
"  +Xooooo XX        ",
"  +.ooooooo         ",
"  .XXXoX ooXXX..    ",
"  .XXXX XX XXXoo    ",
"  +.XXX  X   ooXX.  ",
"   XXX XXX   .. .   ",
"   +.X X            ",
"   O....            ",
"     .O             ",
"       O.           ",
"                    ",
"                    ",
"                    ",
"           O        ",
"       .+X...       ",
"     +..XXX..OO     ",
"    +.XXXXX X.O.    ",
"   ooXoXXXX X       ",
"   oooooXX X        ",
"  +XooooX   X       ",
"  +.ooooooXX        ",
"  .XXXoooooX        ",
"  ..XXX XooXX       ",
"  +XXXX  XXXXX..    ",
"  +XXX XXX  Xooo    ",
"   .X XXX   .ooX.   ",
"  O...X      . ..   ",
"    .O              ",
"     OO             ",
"                    ",
"                    ",
"                    ",
"                    ",
"                    ",
"      + ..X+O.      ",
"     ++.XXXX...     ",
"    ooXXXXXXX.OO    ",
"   +ooooXXXX X.O.   ",
"  ++XooooXX XX      ",
"   .XooooX  X       ",
"  .XXXooooX X       ",
"  .XXXXXoooX        ",
"  XXXXX XooX        ",
"  +XXX  XXXXX       ",
"  O.X XXX  XXo.     ",
"  ...X      ooo     ",
"   .O       .oX.    ",
"    OO        ..    ",
"     .              ",
"                    ",
"                    ",
"                    ",
"                    ",
"                    ",
"       ++..++ O     ",
"     ooX.X.XX..     ",
"    +ooooXXXXX..    ",
"   +.XoooXXXX .OO   ",
"   .XoooooXX XX O   ",
"  ..XXoooo  XX      ",
"  +XXXXXooX XX      ",
"  XXXXX oooXX       ",
"  .XXX  XooX        ",
" O..  X XXXX        ",
"  ..XX X  XXX.      ",
"   O.      Xoo.     ",
"   OO      .oo      ",
"    .      .oX.     ",
"             ..     ",
"                    ",
"                    ",
"                    ",
"                    ",
"                    ",
"       o++..+       ",
"     +ooX.XX.X+O    ",
"    +.XoooXXXX..    ",
"   ..XooooXXXXX..   ",
"   .XXoooooXX  .O   ",
"  +XXXXoooX  XX. O  ",
"  +XXXXXoo X X   .  ",
" O.XXX   ooXXX      ",
"  ..  X Xoo         ",
"  ..XXXXX XX        ",
"  O.      XX        ",
"   O      XXo.      ",
"   .      .oo.      ",
"          .oX       ",
"            X.      ",
"            .       ",
"                    ",
"                    ",
"                    ",
"                    ",
"       ooo++..      ",
"      +XooX.X.+     ",
"    ...ooooXXXX+    ",
"   +.XXooooXXXX.O   ",
"  +XXXXooooXXXX..   ",
"  .XXXXXoooX    .O  ",
"  ..XXX  oo  XXX.O  ",
"  ..    XooX X   O  ",
"  O.XXXXXooXX    .  ",
"  O   XX XX         ",
"  O      XXX        ",
"          XX        ",
"         .oo.       ",
"         .oo.       ",
"          XX        ",
"          ...       ",
"                    ",
"                    ",
"                    ",
"                    ",
"       ++oo++       ",
"     ...XooX...     ",
"    +.XXooooXX.+    ",
"   +XXXXooooXXXX+   ",
"  O.XXXXooooXXXX.O  ",
"  ..XXXXXooXXXXX..  ",
"  ..     oo     ..  ",
"  O.XXX XooX XXX.O  ",
"  O   XXXooXXX   O  ",
"  .      XX      .  ",
"         XX         ",
"         XX         ",
"        .oo.        ",
"        .oo.        ",
"         XX         ",
"         ..         ",
"                    ",
"                    ",
"                    ",
"                    ",
"      ..++ooo       ",
"     +.X.XooX+      ",
"    +XXXXoooo...    ",
"   O.XXXXooooXX.+   ",
"   ..XXXXooooXXXX+  ",
"  O.    XoooXXXXX.  ",
"  O.XXX  oo  XXX..  ",
"  O   X XooX    ..  ",
"  .    XXooXXXXX.O  ",
"         XX XX   O  ",
"        XXX      O  ",
"        XX          ",
"       .oo.         ",
"       .oo.         ",
"        XX          ",
"       ...          ",
"                    ",
"                    ",
"                    ",
"                    ",
"       +..++o       ",
"    O+X.XX.Xoo+     ",
"    ..XXXXoooX.+    ",
"   ..XXXXXooooX..   ",
"   O.  XXoooooXX.   ",
"  O .XX  XoooXXXX+  ",
"  .   X X ooXXXXX+  ",
"      XXXoo   XXX.O ",
"         ooX X  ..  ",
"        XX XXXXX..  ",
"        XX      .O  ",
"      .oXX      O   ",
"      .oo.      .   ",
"       Xo.          ",
"      .X            ",
"       .            ",
"                    ",
"                    ",
"                    ",
"                    ",
"     O ++..++       ",
"     ..XX.X.Xoo     ",
"    ..XXXXXoooo+    ",
"   OO. XXXXoooX.+   ",
"   O XX XXoooooX.   ",
"      XX  ooooXX..  ",
"      XX XooXXXXX+  ",
"       XXooo XXXXX  ",
"        XooX  XXX.  ",
"        XXXX X  ..O ",
"      .XXX  X XX..  ",
"     .ooX      .O   ",
"      oo.      OO   ",
"     .Xo.      .    ",
"     ..             ",
"                    ",
"                    ",
"                    ",
"                    ",
"                    ",
"      .O+X.. +      ",
"     ...XXXX.++     ",
"    OO.XXXXXXXoo    ",
"   .O X XXXXoooo+   ",
"       X XXooooX++  ",
"       X  XooooX.   ",
"       XXXooooXXX.  ",
"        XoooXXXXX.  ",
"        XooX XXXXX  ",
"       XXXX   XXX+  ",
"     .oXX  XXX X.O  ",
"     ooo     XX...  ",
"    .Xo.      .O.   ",
"    ..        OO    ",
"              .     ",
"                    ",
"                    ",
"                    ",
"                    ",
"        O           ",
"       ...X+.       ",
"     OO..XXX..+     ",
"    .O.X XXXXX.+    ",
"       X XXXXoXoo   ",
"        X XXooooo   ",
"       X   XooooX+  ",
"        XXoooooo.+  ",
"        XoooooXXX.  ",
"       XXooX XXX..  ",
"    ..XXXXX  XXXX+  ",
"    oooX  XXX XXX+  ",
"   .Xoo.   XXX X.   ",
"   .. .      X...O  ",
"              O.    ",
"             OO     ",
"                    ",
"                    ",
"                    ",
"                    ",
"          O         ",
"       O...++       ",
"     .O...XXX..     ",
"        X XXXX.+    ",
"        X XXXXX.+   ",
"        XX XXooXo   ",
"        X  Xoooooo  ",
"        XX oooooX+  ",
"         ooooooo.+  ",
"    ..XXXoo XoXXX.  ",
"    ooXXX XX XXXX.  ",
"  .XXoo   X  XXX.+  ",
"   . ..   XXX XXX   ",
"            X X.+   ",
"            ....O   ",
"             O.     ",
"           .O       ",
"                    ",
"                    ",
"                    ",
"                    ",
"       OOO...+      ",
"         ...XX+     ",
"         X XXX..    ",
"         X XXXX.    ",
"        XX XXXX.+   ",
"        XX  XoooXo  ",
"         XX oooooo  ",
"    .. XXooooooooo  ",
"  .XooXXXoooooooX+  ",
"  .XooXX XX XXXX.+  ",
"  . ..   X   XXXX.  ",
"          XX XXX..  ",
"           X XXX+   ",
"           X ..+    ",
"           ...O     ",
"         .OOO       ",
"                    ",
"                    ",
"                    ",
"                    ",
"        .OO..O      ",
"          ....+     ",
"          X XXX+    ",
"          X XXX..   ",
"         XX XXXX.   ",
"         X  XXXX.+  ",
"    ..   XX XoooX+  ",
"  .XooXXXooooooooo  ",
"  .XooXXXooooooooo  ",
"    ..   XX XoooX+  ",
"         X  XXXX.+  ",
"         XX XXXX.   ",
"          X XXX..   ",
"          X XXX+    ",
"          ....+     ",
"        .OO..O      ",
"                    ",
"                    ",
"                    ",
"                    ",
"         .OOO       ",
"           ...O     ",
"           X ..+    ",
"           X XXX+   ",
"          XX XXX..  ",
"  . ..   X   XXXX.  ",
"  .XooXX XX XXXX.+  ",
"  .XooXXXoooooooX+  ",
"    .. XXooooooooo  ",
"         XX oooooo  ",
"        XX  XoooXo  ",
"        XX XXXX.+   ",
"         X XXXX.    ",
"         X XXX..    ",
"         ...XX+     ",
"       OOO...+      ",
"                    ",
"                    ",
"                    ",
"                    ",
"           .O       ",
"             O.     ",
"            ....O   ",
"            X X.+   ",
"   . ..   XXX XXX   ",
"  .XXoo   X  XXX.+  ",
"    ooXXX XX XXXX.  ",
"    ..XXXoo XoXXX.  ",
"         ooooooo.+  ",
"        XX oooooX+  ",
"        X  Xoooooo  ",
"        XX XXooXo   ",
"        X XXXXX.+   ",
"        X XXXX.+    ",
"     .O...XXX..     ",
"       O...++       ",
"          O         ",
"                    ",
"                    ",
"                    ",
"                    ",
"             OO     ",
"              O.    ",
"   .. .      X...O  ",
"   .Xoo.   XXX X.   ",
"    oooX  XXX XXX+  ",
"    ..XXXXX  XXXX+  ",
"       XXooX XXX..  ",
"        XoooooXXX.  ",
"        XXoooooo.+  ",
"       X   XooooX+  ",
"        X XXooooo   ",
"       X XXXXoXoo   ",
"    .O.X XXXXX.+    ",
"     OO..XXX..+     ",
"       ...X+.       ",
"        O           ",
"                    ",
"                    ",
"                    ",
"                    ",
"              .     ",
"    ..        OO    ",
"    .Xo.       O.   ",
"     ooo      X...  ",
"     .oXX  XXX X.O  ",
"       XXXXX  XXX+  ",
"        XooX XXXXX  ",
"        XoooXXXXX.  ",
"       X XooooXXX.  ",
"       X  XooooX.   ",
"      XX XXooooX++  ",
"   .O.X XXXXoooo+   ",
"    OO.XXXXXXXoo    ",
"     ...XXXX.++     ",
"      .O+X.. +      ",
"                    ",
"                    ",
"                    ",
"                    ",
"                    ",
"     ..             ",
"     .Xo.      .    ",
"      oo.      OO   ",
"     .ooX      .O   ",
"      .XXX  X XX..  ",
"        XXXX X  ..O ",
"        XooX  XXX.  ",
"       XXooo XXXXX  ",
"      XX XooXXXXX+  ",
"      XX  ooooXX..  ",
"   O XX XXoooooX.   ",
"   OO. XXXXoooX.+   ",
"    ..XXXXXoooo+    ",
"     ..XX.X.Xoo     ",
"     O ++..++       ",
"                    ",
"                    ",
"                    ",
"                    ",
"       .            ",
"      .X            ",
"       Xo.          ",
"      .oo.      .   ",
"      .oXX      O   ",
"        XX      .O  ",
"        XX XXXXX..  ",
"         ooX X  ..  ",
"      XXXoo   XXX.O ",
"  .   X X ooXXXXX+  ",
"  O .XX  XoooXXXX+  ",
"   O.  XXoooooXX.   ",
"   ..XXXXXooooX..   ",
"    ..XXXXoooX.+    ",
"    O+X.XX.Xoo+     ",
"       +..++o       ",
"                    ",
"                    ",
"                    ",
"                    ",
"       ...          ",
"        XX          ",
"       .oo.         ",
"       .oo.         ",
"        XX          ",
"        XXX      O  ",
"         XX XX   O  ",
"  .    XXooXXXXX.O  ",
"  O   X XooX    ..  ",
"  O.XXX  oo  XXX..  ",
"  O.    XoooXXXXX.  ",
"   ..XXXXooooXXXX+  ",
"   O.XXXXooooXX.+   ",
"    +XXXXoooo...    ",
"     +.X.XooX+      ",
"      ..++ooo       ",
"                    ",
"                    ",
};
