/* XPM */
static char *bb0[] = {
/* width height ncolors chars_per_pixel */
"20  640 5 1"
/* colors */
"  c None",
": c #7b947b",
"% c #a5c6a5",
"@ c #c0dcc0",
"x c #ff0000",
/* pixels */
"                    ",
"         :::        ",
"        :@@@:       ",
"        :%%%:       ",
"         :%:        ",
"     :x  :::  x:    ",
"    :%%:::::::%%:   ",
"    :%%%%%:%%%%%:   ",
"    x%@@@%%%@@@%x   ",
"   :x@@@@@@@@@@@x:  ",
"   :x@@@%@@@%@@@x:  ",
"   :x@@::@@@::@@x:  ",
"   :@@: :@@@: :@@:  ",
"   :%%   @@@   %%:  ",
"    :    %@%    :   ",
"    :   :%@%:   :   ",
"    @   %% %%   @   ",
"        xx xx       ",
"                    ",
"                    ",
"                    ",
"           ::       ",
"         :@@@:      ",
"         :%%%:      ",
"      :x  :%::      ",
"     :%%  :::       ",
"     :%%:::::  x:   ",
"    x%@@%%::%::%%:  ",
"   :x@@@@%%%@%%%:   ",
"   :x@@@@@@@@@@%x   ",
"   :x@@@%@@@%@@@x:  ",
"   :@@:::@@@%@@@x:  ",
"  :%%  :@@@@::@@x:  ",
"   :    @@@  :@@:   ",
"   :    %@%   %%:   ",
"   @   :%@%:   :    ",
"       %% %%   :    ",
"       xx xx   @    ",
"                    ",
"                    ",
"                    ",
"            :       ",
"           :@::     ",
"           :%@@     ",
"      ::x  :%%::    ",
"     :%%%: :%:      ",
"     x%%%:::::      ",
"   ::x@@@%%::: x:   ",
"   :x@@@@@%%%%:%%   ",
"   :x@@@%@@%@@%%%:  ",
"  :@@:@::@@@@@@%:   ",
"   %%  :@@@@%@@@x   ",
"  ::    @@@::@@xx:  ",
"  @    %@@@: @@x:   ",
"      :%@%   :@@:   ",
"      %%@%   %%:    ",
"     xx %%:   ::    ",
"        xx   :      ",
"             @      ",
"                    ",
"                    ",
"                    ",
"              :     ",
"        :   :@@:    ",
"      ::%x  :%@@    ",
"      x%%:  :%%::   ",
"    :x@%%%:::::     ",
"   :xx@@@@%%::      ",
"   :x@@@@@%:%:: x   ",
"  :%@@@@%@@%%%%%::  ",
"  ::%: :@@@@@@%%%:  ",
"  :    :@@@%@@@%:   ",
" @     @@@@:@@@@x   ",
"     :%%@@: @@@x:   ",
"     %%@%   :@x::   ",
"    xx @%   %@@:    ",
"     x %%    %:     ",
"       xx   : :     ",
"            :       ",
"                    ",
"                    ",
"                    ",
"                    ",
"        :::   ::    ",
"       :%%x  :@@:   ",
"     :x%%%:  :%@@   ",
"    :x@@@%%:::%%::  ",
"   :@@@@@@%%::: :   ",
"   %@@@@@@%:::      ",
"  : %: :%@@%%%: x   ",
" @     :@@@@@%%%x:  ",
"       @@@@@@@%%%   ",
"      %@@@:%@@@%:   ",
"    %%@@@:::@@@x    ",
"   xx @%   :@@x:    ",
"      %:   :@x::    ",
"     xx%   %@::     ",
"      x    :::      ",
"          :         ",
"                    ",
"                    ",
"                    ",
"                    ",
"         : :        ",
"      :xx%%x   ::   ",
"    ::xx%%%:  :@@:  ",
"   :@x@@@@%: ::%@:  ",
"   :%@@@@@@%::%%%:  ",
" @: %:::@@%%::::::  ",
" @     :%@@%::      ",
"       @@@@@%%:     ",
"    : @@@@@@@%%%x   ",
"   %%%@@@@%%@@%%:   ",
"   x%@@% ::@@@%%:   ",
"     %%   :@@@x:    ",
"    x%:   :@@x:     ",
"     x    %@x::     ",
"          %::       ",
"        :: :        ",
"                    ",
"                    ",
"                    ",
"                    ",
"       :  ::        ",
"     :::xx%%:       ",
"    :@xx@%%%x   :   ",
"   :%@@@@@@%:  :@:  ",
" @:  %:@@@@%:::%%@: ",
"       :%@@%%::%%@: ",
"       ::@@%::::::  ",
"    : @@@@@%%::     ",
"  x%%%@@@@@@@%:     ",
"  x% @@@@:%@@%%x    ",
"    %%% ::@@@@%%:   ",
"   x%:    @@@%%:    ",
"    x    :@@xx:     ",
"        %@@xx:      ",
"        :%:::       ",
"      @: :          ",
"                    ",
"                    ",
"                    ",
"                    ",
"       :::  :       ",
"     ::xxxx:%:      ",
"  @::%@@@@%%%x      ",
"     %@@@@@%:       ",
"      ::@@@@%:  :@: ",
"       ::%@@%:::%@: ",
"  x%:  @@@@%%::%%@: ",
"  x%%%@@@@@%::::%@  ",
"    @@@@@@@%%:  ::  ",
"   %%%@@:%@@@%:     ",
"   x%:   :@@@%%x    ",
"        :@@@@%%:    ",
"        @@@@%::     ",
"       %@xxxx       ",
"    @::%:::::       ",
"                    ",
"                    ",
"                    ",
"                    ",
"                    ",
"      :::::         ",
"   @::%@xxxx::      ",
"      %@@@@%%%:     ",
"       :@@@@%%x     ",
"        :@@@%:      ",
"  x%:  ::%@@%:  ::  ",
"  x%%%@@@@@%%:::%@: ",
"    @@@@@@@%:::%%@: ",
"  x%%%@@@@@%%:::%@: ",
"  x%:  ::%@@%:  ::  ",
"        :@@@%:      ",
"       :@@@@%%x     ",
"      %@@@@%%%:     ",
"   @::%@xxxx::      ",
"      :::::         ",
"                    ",
"                    ",
"                    ",
"                    ",
"       :            ",
"    @::%::::        ",
"       %@xxxx       ",
"        @@@@%::     ",
"        :@@@@%%:    ",
"  x%:  ::@@@@%%x    ",
"  x%%%@@:%@@%:      ",
"    @@@@@@@%%:  ::  ",
"  x%%%@@@@@%::::%@  ",
"  x%:  @@@@%:::%%@: ",
"       :%%@@%:::%@: ",
"      ::@@@%:  :::  ",
"     %@@@@@%:       ",
"  @::%@@@@%%%x      ",
"     ::xxxx:%:      ",
"       :::  :       ",
"                    ",
"                    ",
"                    ",
"                    ",
"      @: :          ",
"       :%@:::       ",
"        %@xx:       ",
"   x     :@@xx:     ",
"   x%:   @@@@%%:    ",
"    %%% ::@@@%%:    ",
"  x%@@@@@:%@@%%x    ",
"  x%%%@@@@@@%::     ",
"   :  @@@@@%%:      ",
"      ::@@%%::::::  ",
"       :%@@%::%%%@: ",
" @: %:@@@@@%:::%@:  ",
"   :%@@@@@%:   :@:  ",
"   ::@xx@%%%x  :    ",
"     ::xx:%%:       ",
"       :  :         ",
"                    ",
"                    ",
"                    ",
"       @            ",
"        :::         ",
"         :%::       ",
"    x    %@xx:      ",
"   xx%:  :@@xx      ",
"     %%   @@@@x:    ",
"  x%@@%@::@@@%%:    ",
"  x%%%@@@@%@@%%%:   ",
"      @@@@@@@%:x    ",
"      :@@@@%%:      ",
"       :%@%:%:      ",
" :: %:@@@@%%:::::   ",
"   %@@@@@@%:::%%@   ",
"  ::@x@@@%%: :%@@:  ",
"    ::x@%%%   :@:   ",
"     ::x:%:x  :     ",
"         ::         ",
"                    ",
"                    ",
"                    ",
"         @          ",
"          :         ",
"     x     %:       ",
"     x%   %@@:      ",
"   x  %   :@@x:     ",
"  xx%@@%   @@@x     ",
"   %:%@@@::@@@%:    ",
"      @@@@%@@@%%:   ",
"      :@@@@@@%%%:   ",
" :    ::@@@%%%:x:   ",
"  :%:::%@@%%%:      ",
"  :@@@@@@@%:::      ",
"  ::x@@@@%%:::::    ",
"   ::x@@%%: :%%@:   ",
"    ::x%%%   %@@:   ",
"       :%xx ::@:    ",
"         :   :      ",
"                    ",
"                    ",
"                    ",
"          @@        ",
"           :        ",
"      x%    ::      ",
"    x %%:  %%@:     ",
"   x%%@%   :@x:     ",
"    :%@@@  :@@x:    ",
"      %@@@::@@xx    ",
" :     @@@%@@@%x    ",
" :    :@@@@@@@%%:   ",
"  %%:::%@@@%@%%%    ",
" ::@@@@%@@%%%::x:   ",
"  :x@@@@@%:::       ",
"   :x@@@%%::::      ",
"   ::x%%%: :%::     ",
"     :%%%  :%%@:    ",
"      ::x  :%@@:    ",
"           ::::     ",
"                    ",
"                    ",
"                    ",
"            @       ",
"       xx   :       ",
"     x %%    :      ",
"    x%% %:   %:     ",
"     :%@%   %@@:    ",
" @    %@@@  :@x:    ",
" :     @@@::@@x::   ",
"  :%  :@@@:%@@@x    ",
" :%@: ::@@@@@@%x    ",
"  :@@@@%@@@@@@%%:   ",
"  :x@@@@@%%%%%%%:   ",
"  :xx@@@@%:%::x:    ",
"   :x%@%%::::       ",
"    :%%%:::::       ",
"     :%x  :%%:      ",
"      :   :%%@:     ",
"          :@@:      ",
"           ::       ",
"                    ",
"                    ",
"                    ",
"         xx   @     ",
"      x% %%   :     ",
"  @   %%@%:   :     ",
"  :   :%@%   %%:    ",
"  :    @@@  :@@:    ",
"  %%   @@@@::@@x:   ",
"  :@@: :@@@:@@@x:   ",
"  :x@@:%@@@%@@@x:   ",
"  :x@@@@@@@@@@%x    ",
"  :x@@@@%%%@@%%:    ",
"  :x%@@@%:%%%:%%:   ",
"    :%%%::::: x:    ",
"    :%%: :::        ",
"     :x  :%:        ",
"        :%%%:       ",
"        :@@@@       ",
"          :::       ",
"                    ",
"                    ",
"                    ",
"       xx xx        ",
"   @   %% %%   @    ",
"   :   :%@%:   :    ",
"   :    %@%    :    ",
"  :%%   @@@   %%:   ",
"  :@@: :@@@: :@@:   ",
"  :x@@::@@@::@@x:   ",
"  :x@@@%@@@%@@@x:   ",
"  :x@@@@@@@@@@@x:   ",
"   x%@@@%%%@@@%x    ",
"   :%%%%%:%%%%%:    ",
"   :%%:::::::%%:    ",
"    :x  :::  x:     ",
"        :%:         ",
"       :%%%:        ",
"       :@@@:        ",
"        :::         ",
"                    ",
"                    ",
"                    ",
"    @   xx xx       ",
"    :   %% %%       ",
"    :   :%@%:   @   ",
"   :%%   %@%    :   ",
"   :@@:  @@@    :   ",
"  :x@@::@@@@:  %%:  ",
"  :x@@@%@@@:::@@:   ",
"  :x@@@%@@@%@@@x:   ",
"   x%@@@@@@@@@@x:   ",
"   :%%%@%%%@@@@x:   ",
"  :%%::%::%%@@%x    ",
"   :x  :::::%%:     ",
"       :::  %%:     ",
"      ::%:  x:      ",
"      :%%%:         ",
"      :@@@:         ",
"       ::           ",
"                    ",
"                    ",
"      @             ",
"      :   xx        ",
"    ::   :%% xx     ",
"    :%%   %@%%      ",
"   :@@:   %@%:      ",
"   :x@@ :@@@%    @  ",
"  :xx@@::@@@    ::  ",
"   x@@@%@@@@:  %%   ",
"   :%@@@@@@::@:@@:  ",
"  :%%%@@%@@%@@@x:   ",
"   %%:%%%%@@@@@x:   ",
"   :x :::%%@@@x::   ",
"      :::::%%%x     ",
"      :%: :%%%:     ",
"    ::%%:  x::      ",
"     @@%:           ",
"     ::@:           ",
"       :            ",
"                    ",
"                    ",
"       :            ",
"     : :   xx       ",
"     :%    %% x     ",
"    :@@%   %@ xx    ",
"   ::x@:   %@%%     ",
"   :x@@@ :@@%%:     ",
"   x@@@@:@@@@     @ ",
"   :%@@@%@@@:    :  ",
"  :%%%@@@@@@: :%::  ",
"  ::%%%%%@@%@@@@%:  ",
"   x ::%:%@@@@@x:   ",
"      ::%%@@@@xx:   ",
"     :::::%%%@x:    ",
"   ::%%:  :%%x      ",
"    @@%:  x%::      ",
"    :@@:   :        ",
"     :              ",
"                    ",
"                    ",
"                    ",
"         :          ",
"      :::    x      ",
"     ::@%   %xx     ",
"    ::x@:   :%      ",
"    :x@@:   %@ xx   ",
"    x@@@:::@@@%%    ",
"   :%@@@%:@@@%      ",
"   %%%@@@@@@@       ",
"  :x%%%@@@@@:     @ ",
"   x :%%%@@%: :% :  ",
"      ::%%@@@@@@%   ",
"   : :::%%@@@@@@:   ",
"  ::%%:::%%@@@x:    ",
"   @@%:  :%%%x:     ",
"   :@@:  x%%:       ",
"    ::   :::        ",
"                    ",
"                    ",
"                    ",
"                    ",
"        : ::        ",
"       ::%          ",
"     ::x@%    x     ",
"     :x@@:   :%x    ",
"    :x@@@:   %%     ",
"   :%%@@@:: %@@%x   ",
"   :%%@@%%@@@@%%%   ",
"   x%%%@@@@@@@ :    ",
"     :%%@@@@@       ",
"      ::%@@%:     @ ",
"  ::::::%%@@:::% :@ ",
"  :%%%::%@@@@@@%:   ",
"  :@%:: :%@@@@x@:   ",
"  :@@:  :%%%xx::    ",
"   ::   x%%xx:      ",
"        : :         ",
"                    ",
"                    ",
"                    ",
"                    ",
"          : :@      ",
"       :::%:        ",
"      :xx@@%        ",
"     :xx@@:    x    ",
"    :%%@@@    :%x   ",
"   :%%@@@@:: %%%    ",
"    x%%@@%:@@@@ %x  ",
"     :%@@@@@@@%%%x  ",
"     ::%%@@@@@ :    ",
"  ::::::%@@::       ",
" :@%%::%%@@%:       ",
" :@%%:::%@@@@:%  :@ ",
"  :@:  :%@@@@@@%:   ",
"   :   x%%%@xx@:    ",
"       :%%xx:::     ",
"        ::  :       ",
"                    ",
"                    ",
"                    ",
"                    ",
"                    ",
"       :::::%::@    ",
"       xxxx@%       ",
"     ::%@@@@        ",
"    :%%@@@@:        ",
"    x%%@@@:   :%x   ",
"     :%@@@%:@@%%%   ",
"  ::  :%%@@@@@@@    ",
"  @%::::%@@@@@%%%x  ",
" :@%%::%%@@@@  :%x  ",
" :@%:::%@@%::       ",
" :@:  :%@@@@::      ",
"       :%@@@@@%     ",
"      x%%%@@@@%::@  ",
"      :%:xxxx::     ",
"       :  :::       ",
"                    ",
"                    ",
"                    ",
"                    ",
"                    ",
"         :::::      ",
"      ::xxxx@%::@   ",
"     :%%%@@@@%      ",
"     x%%@@@@:       ",
"      :%@@@:        ",
"  ::  :%@@%::  :%x  ",
" :@%:::%%@@@@@%%%x  ",
" :@%%:::%@@@@@@@    ",
" :@%:::%%@@@@@%%%x  ",
"  ::  :%@@%::  :%x  ",
"      :%@@@:        ",
"     x%%@@@@:       ",
"     :%%%@@@@%      ",
"      ::xxxx@%::@   ",
"         :::::      ",
"                    ",
"                    ",
"                    ",
"                    ",
"                    ",
"       :  :::       ",
"      :%:xxxx::     ",
"      x%%%@@@@%::@  ",
"       :%@@@@@%     ",
"  :::  :%@@@::      ",
" :@%:::%@@%%:       ",
" :@%%:::%@@@@  :%x  ",
"  @%::::%@@@@@%%%x  ",
"  ::  :%%@@@@@@@    ",
"      :%@@%:@@%%%x  ",
"    x%%@@@@::  :%x  ",
"    :%%@@@@:        ",
"     ::%@@@@        ",
"       xxxx@%       ",
"        ::::%::@    ",
"            :       ",
"                    ",
"                    ",
"                    ",
"                    ",
"         :  :       ",
"       :%%:xx::     ",
"    :  x%%%@xx@::   ",
"  :@:   :%@@@@@%:   ",
"  :@%:::%@@@@@:% :@ ",
" :@%%%::%@@%:       ",
"  ::::::%%@@::      ",
"      :%%@@@@@  :   ",
"     ::%@@@@@@%%%x  ",
"    x%%@@%:@@@@@%x  ",
"    :%%@@@:: %%%    ",
"    :%%@@@@   :%x   ",
"     :xx@@:     x   ",
"       :xx@%        ",
"       :::@%:       ",
"          : :@      ",
"                    ",
"                    ",
"                    ",
"                    ",
"         ::         ",
"     :  x:%:x::     ",
"   :@:   %%%@x::    ",
"  :@@%: :%%@@@x@::  ",
"   @%%:::%@@@@@@%   ",
"   :::::%%@@@@:% :: ",
"      :%:%@%:       ",
"      :%%@@@@:      ",
"    x:%@@@@@@@      ",
"   :%%%@@%@@@@%%%x  ",
"    :%%@@@::@%@@%x  ",
"    :x@@@@   %%     ",
"      xx@@:  :%xx   ",
"      :xx@%    x    ",
"       ::%:         ",
"         :::        ",
"            @       ",
"                    ",
"                    ",
"                    ",
"      :   :         ",
"    :@:: xx%:       ",
"   :@@%   %%%x::    ",
"   :@%%: :%%@@x::   ",
"    :::::%%@@@@x::  ",
"      :::%@@@@@@@:  ",
"      :%%%@@%:::%:  ",
"   :x:%%%@@@::    : ",
"   :%%%@@@@@@:      ",
"   :%%@@@%@@@@      ",
"    :%@@@::@@@%:%   ",
"     x@@@   %@@%xx  ",
"     :x@@:   %  x   ",
"      :@@%   %x     ",
"       :%     x     ",
"         :          ",
"          @         ",
"                    ",
"                    ",
"                    ",
"     ::::           ",
"    :@@%:  x::      ",
"    :@%%:  %%%:     ",
"     ::%: :%%%x::   ",
"      ::::%%@@@x:   ",
"       :::%@@@@@x:  ",
"   :x::%%%@@%@@@@:: ",
"    %%%@%@@@%:::%%  ",
"   :%%@@@@@@@:    : ",
"    x%@@@%@@@     : ",
"    xx@@::@@@%      ",
"    :x@@:  @@@%:    ",
"     :x@:   %@%%x   ",
"     :@%%  :%% x    ",
"      ::    %x      ",
"        :           ",
"        @@          ",
"                    ",
"                    ",
"       ::           ",
"      :@@:          ",
"     :@%%:   :      ",
"      :%%:  x%:     ",
"       :::::%%%:    ",
"       ::::%%@%x:   ",
"    :x::%:%@@@@xx:  ",
"   :%%%%%%%@@@@@x:  ",
"   :%%@@@@@@%@@@@:  ",
"    x%@@@@@@:: :@%: ",
"    x@@@%:@@@:  %:  ",
"   ::x@@::@@@     : ",
"    :x@:  @@@%    @ ",
"    :@@%   %@%:     ",
"     :%   :% %%x    ",
"      :    %% x     ",
"       :   xx       ",
"       @            ",
"                    ",
"                    ",
"       :::          ",
"       @@@@:        ",
"       :%%%:        ",
"        :%:  x:     ",
"        ::: :%%:    ",
"    :x :::::%%%:    ",
"   :%%:%%%:%@@@%x:  ",
"    :%%@@%%%@@@@x:  ",
"    x%@@@@@@@@@@x:  ",
"   :x@@@%@@@%:@@x:  ",
"   :x@@@:@@@: :@@:  ",
"   :x@@::@@@@   %%  ",
"    :@@:  @@@    :  ",
"    :%%   %@%:   :  ",
"     :   :%@%%   @  ",
"     :   %% %x      ",
"     @   xx         ",
"                    ",
"                    ",
};
