/* XPM */
static char * C3_xpm_plain[] = {
/* width height colors chars_per_color */
"20  640 7 1"
/* colors */
" 	c None",
".	c #FFFF00000000",
"X	c #787800000000",
"o	c #A0A000000000",
"O	c #C8C800000000",
"+	c #787800000000",
"@	c #787800000000",
/* pixels */
"                    ",
"                    ",
"                    ",
"   .    XooX    .   ",
"   X   XOOOOX   X   ",
"   X  XOO..OOX  X   ",
"   X XO......OX X   ",
"   + OO......OO +   ",
"   +oO........Oo+   ",
"   +oOOOOOOOOOOo+   ",
"   +oX  oOOo  Xo+   ",
"   X     oo     X   ",
"   X  X oOOo X  X   ",
"      XoO..OoX      ",
"      +oO..Oo+      ",
"      +  @@  +      ",
"      +      +      ",
"      X      X      ",
"      X      X      ",
"                    ",
"                    ",
"                    ",
"    .               ",
"    X    XooX       ",
"    X  XXOOOO    .  ",
"    X XOOO..OX   X  ",
"    + OO.....OX  X  ",
"   +oO........OX X  ",
"   +oOOO.....OO +   ",
"   +oX OOOOOO.Oo+   ",
"   X    oOOo OOo+   ",
"   X  X  oo   Xo+   ",
"     XooOOOo    X   ",
"     +oO..OoX  X    ",
"     + O..OoX       ",
"     +  @@  +       ",
"     X      +       ",
"    X       +       ",
"           X        ",
"                    ",
"                    ",
"      .             ",
"      X             ",
"     X   X Xo       ",
"     X  XOOOoX      ",
"    + OXO.O.OOX     ",
"    +oOO.....OO   . ",
"   ++oO.......X   X ",
"   XoXOOO.....OX X  ",
"   X    oOO...OO X  ",
"     X   OOOOOOo+   ",
"     X ooo o  Oo+   ",
"     +oOOOo  Xo++   ",
"    +oO...O X  X    ",
"    +  @.OoX   X    ",
"   X    @ o+        ",
"   X       +        ",
"          +         ",
"          X         ",
"         X          ",
"                    ",
"       X            ",
"       X            ",
"      X     X       ",
"     +  XXOOOo      ",
"     +oOO.OOOOX     ",
"    +oOOO.....OX    ",
"   XooOO.....OO     ",
"   X    OO.....X  X ",
"        oOO...OX  X ",
"     X  oOOOO.OO X  ",
"    +oooOoo OOOo+   ",
"    +oO.OO   Xoo+   ",
"   +  ...O X Xo+    ",
"  X   @@OooX  X     ",
"  X    @ o+   X     ",
"         +          ",
"         +          ",
"        X           ",
"                    ",
"                    ",
"         X          ",
"        X           ",
"       +            ",
"      + OXXOXX      ",
"     +oOOO.OOOo     ",
"    XoXO......OX    ",
"   X  X O.....OX    ",
"         O....OO    ",
"     X  oOO....X    ",
"    +o ooOOO..OX  X ",
"   +ooOOOooOO.OO X  ",
"  X  O..Oo  OOO +   ",
" X   @..O   XOo+    ",
"      @OooX  o+     ",
"        o+   X      ",
"        +   X       ",
"       X            ",
"      X             ",
"                    ",
"                    ",
"          XX        ",
"         X          ",
"       ++           ",
"      +ooOXX X      ",
"    XXooOOO.OOX     ",
"      XXO...O.Oo    ",
"        OO....OOX   ",
"     XX  O....OO    ",
"    +o  oOO...OO    ",
"  ++ooOOoOOO...X    ",
" X   O.OOooO.OOX    ",
"    @@..o   OOO  XX ",
"     @.Oo   OOo X   ",
"       ooX  oo++    ",
"       ++   o+      ",
"      +    XX       ",
"    XX              ",
"                    ",
"                    ",
"                    ",
"            X.      ",
"          XX        ",
"       +++          ",
"     XX+ooOX        ",
"       oOOOOXOX     ",
"       X O...OOX    ",
"      X  O....Ooo   ",
"   ++X  oO.....OX   ",
" X+ ooOo OO...OO    ",
"X    O.OoOO....OX   ",
"    @..Oo oO..OX    ",
"     @.Oo  O.OX     ",
"      Oo   OOOO  X. ",
"      o+XX Xoo XX   ",
"     ++    o+++     ",
"   XX     XX+       ",
"                    ",
"                    ",
"                    ",
"                    ",
"                    ",
"            XXX.    ",
"       X++++        ",
"      X ooo X       ",
"        XOOOOX      ",
"         O.O.OX     ",
"  +++XX   O...OOX   ",
" X   ooo oO....Oo   ",
"     OOOoOO....Oo   ",
"    @..OoOO...OOX   ",
"    @..O oO...OX    ",
"     OOo  OO.OOX    ",
"      ooX  O.OX     ",
"   X+++X  XOO       ",
"  X       ooo+XXX.  ",
"        XX+++       ",
"                    ",
"                    ",
"                    ",
"                    ",
"                    ",
"                    ",
"       XX++++XXX.   ",
"         ooo        ",
"         XOOOX      ",
" XX+++XX  O.OOX     ",
"     oo   O...OX    ",
"     OOo oO...OOX   ",
"    @..OoOO....Oo   ",
"    @..OoOO....Oo   ",
"     OOo oO...OOX   ",
"     oo   O...OX    ",
" XX+++XX  O.OOX     ",
"         XOOOX      ",
"         ooo        ",
"       XX++++XXX.   ",
"                    ",
"                    ",
"                    ",
"                    ",
"                    ",
"                    ",
"        XX+++       ",
"  X       ooo+XXX.  ",
"   X+++X  XOO       ",
"      ooX  O.OX     ",
"     OOo  OO.OOX    ",
"    @..O oO...OX    ",
"    @..OoOO...OOX   ",
"     OOOoOO....Oo   ",
" X   ooo oO....Oo   ",
"  +++XX   O...OOX   ",
"         O.O.OX     ",
"        XOOOOX      ",
"      X ooo X       ",
"       X++++        ",
"            XXX.    ",
"                    ",
"                    ",
"                    ",
"                    ",
"                    ",
"   XX     XX+       ",
"     ++    o+++     ",
"      o+XX Xoo XX   ",
"      Oo   OOOO  X. ",
"     @.Oo  O.OX     ",
"    @..Oo oO..OX    ",
"X    O.OoOO....OX   ",
" X+ ooOo OO...OO    ",
"   ++X  oO.....OX   ",
"      X  O....Ooo   ",
"       X O...OOX    ",
"       oOOOOXOX     ",
"     XX+ooOX        ",
"       +++          ",
"          XX        ",
"            X.      ",
"                    ",
"                    ",
"                    ",
"    XX              ",
"      +    XX       ",
"       ++   o+      ",
"       ooX  oo++    ",
"     @.Oo   OOo X   ",
"    @@..o   OOO  XX ",
" X   O.OOooO.OOX    ",
"  ++ooOOoOOO...X    ",
"    +o  oOO...OO    ",
"     XX  O....OO    ",
"        OO....OOX   ",
"      XXO...O.Oo    ",
"    XXooOOO.OOX     ",
"      +ooOXX X      ",
"       ++           ",
"         X          ",
"          XX        ",
"                    ",
"                    ",
"      X             ",
"       X            ",
"        +   X       ",
"        o+   X      ",
"      @OooX  o+     ",
" X   @..O   XXo+    ",
"  X  O..Oo   OO +   ",
"   +ooOOOoo O.OO X  ",
"    +o ooOOO..OX  X ",
"     X  oOO....X    ",
"        OO....OO    ",
"   X  XOO.....OX    ",
"    XoOO......OX    ",
"     +oOOO.OOOo     ",
"      + OXXOXX      ",
"       +            ",
"        X           ",
"         X          ",
"                    ",
"                    ",
"        X           ",
"         +          ",
"         +          ",
"  X    @ o+   X     ",
"  X   @@OooX  X     ",
"   +  ...O X Xo+    ",
"    +oO.OO   Xoo+   ",
"    +oooOoo OOOo+   ",
"     X  oOOOO.OO X  ",
"        oOO...OX  X ",
"   X    OO.....X  X ",
"   XooOO.....OO     ",
"    +oOOO.....OX    ",
"     +oOO.OOOOX     ",
"     +  XXOOOo      ",
"      X     X       ",
"       X            ",
"       X            ",
"                    ",
"         X          ",
"          X         ",
"          +         ",
"   X       +        ",
"   X    @ o+        ",
"    +  @.OoX   X    ",
"    +oO...O X  X    ",
"     +oOOOo  Xo++   ",
"     X ooo o  Oo+   ",
"     X   OOOOOOo+   ",
"   X    oOO...OO X  ",
"   XoXOOO.....OX X  ",
"   ++oO.......X   X ",
"    +oOO.....OO   . ",
"    + OXO.O.OOX     ",
"     X  XOOOoX      ",
"     X   X Xo       ",
"      X             ",
"      .             ",
"                    ",
"                    ",
"           X        ",
"    X       +       ",
"     X      +       ",
"     +  @@  +       ",
"     + O..OoX       ",
"     +oO..OoX  X    ",
"     XooOOOo    X   ",
"   X  X  oo   Xo+   ",
"   X    oOOo OOo+   ",
"   +oX OOOOOO.Oo+   ",
"   +oOOO.....OO +   ",
"   +oO........OX X  ",
"    + OO.....OX  X  ",
"    X XOOO..OX   X  ",
"    X  XXOOOO    .  ",
"    X    XooX       ",
"    .               ",
"                    ",
"                    ",
"                    ",
"      X      X      ",
"      X      X      ",
"      +      +      ",
"      +  @@  +      ",
"      +oO..Oo+      ",
"      XoO..OoX      ",
"   X  X oOOo X  X   ",
"   X     oo     X   ",
"   +oX  oOOo  Xo+   ",
"   +oOOOOOOOOOOo+   ",
"   +oO........Oo+   ",
"   + OO......OO +   ",
"   X XO......OX X   ",
"   X  XOO..OOX  X   ",
"   X   XOOOOX   X   ",
"   .    XooX    .   ",
"                    ",
"                    ",
"                    ",
"                    ",
"        X           ",
"       +       X    ",
"       +      X     ",
"       +  @@  +     ",
"       XoO..O +     ",
"    X  XoO..Oo+     ",
"   X    oOOOooX     ",
"   +oX   oo  X  X   ",
"   +oOO oOOo    X   ",
"   +oO.OOOOOO Xo+   ",
"   + OO.....OOOo+   ",
"  X XO........Oo+   ",
"  X  XO.....OO +    ",
"  X   XO..OOOX X    ",
"  .    OOOOXX  X    ",
"       XooX    X    ",
"               .    ",
"                    ",
"                    ",
"          X         ",
"         X          ",
"         +          ",
"        +       X   ",
"        +o @    X   ",
"    X   XoO.@  +    ",
"    X  X O...Oo+    ",
"   ++oX  oOOOo+     ",
"   +oO  o ooo X     ",
"   +oOOOOOO   X     ",
"  X OO...OOo    X   ",
"  X XO.....OOOXoX   ",
" X   X.......Oo++   ",
" .   OO.....OOo+    ",
"     XOO.O.OXO +    ",
"      XoOOOX  X     ",
"       oX X   X     ",
"             X      ",
"             .      ",
"                    ",
"                    ",
"           X        ",
"          +         ",
"          +         ",
"     X   +o @    X  ",
"     X  XooO@@   X  ",
"    +oX X O...  +   ",
"   +ooX   OO.Oo+    ",
"   +oOOO ooOooo+    ",
"  X OO.OOOOo  X     ",
" X  XO...OOo        ",
" X  X.....OO    X   ",
"     OO.....OOooX   ",
"    XO.....OOOo+    ",
"     XOOOO.OOo+     ",
"      oOOOXX  +     ",
"       X     X      ",
"            X       ",
"            X       ",
"                    ",
"                    ",
"             X      ",
"            X       ",
"       X   +        ",
"      X   +o        ",
"     +o  XooO@      ",
"    +oOX   O..@   X ",
"   + OOO  oO..O  X  ",
"  X OO.OOooOOOoo+   ",
" X  XO..OOOoo o+    ",
"    X....OOo  X     ",
"    OO....O         ",
"    XO.....O X  X   ",
"    XO......OXoX    ",
"     oOOO.OOOo+     ",
"      XXOXXO +      ",
"            +       ",
"           X        ",
"          X         ",
"                    ",
"                    ",
"                    ",
"              XX    ",
"       XX    +      ",
"      +o   ++       ",
"    ++oo  Xoo       ",
"   X oOO   oO.@     ",
" XX  OOO   o..@@    ",
"    XOO.OooOO.O   X ",
"    X...OOOoOOoo++  ",
"    OO...OOo  o+    ",
"    OO....O  XX     ",
"   XOO....OO        ",
"    oO.O...OXX      ",
"     XOO.OOOooXX    ",
"      X XXOoo+      ",
"           ++       ",
"          X         ",
"        XX          ",
"                    ",
"                    ",
"                    ",
"                    ",
"       +XX     XX   ",
"     +++o    ++     ",
"   XX ooX XX+o      ",
" .X  OOOO   oO      ",
"     XO.O  oO.@     ",
"    XO..Oo oO..@    ",
"   XO....OOoO.O    X",
"    OO...OO oOoo +X ",
"   XO.....Oo  X++   ",
"   ooO....O  X      ",
"    XOO...O X       ",
"     XOXOOOOo       ",
"        XOoo+XX     ",
"          +++       ",
"        XX          ",
"      .X            ",
"                    ",
"                    ",
"                    ",
"                    ",
"       +++XX        ",
"  .XXX+ooo       X  ",
"       OOX  X+++X   ",
"     XO.O  Xoo      ",
"    XOO.OO  oOO     ",
"    XO...Oo O..@    ",
"   XOO...OOoO..@    ",
"   oO....OOoOOO     ",
"   oO....Oo ooo   X ",
"   XOO...O   XX+++  ",
"     XO.O.O         ",
"      XOOOOX        ",
"       X ooo X      ",
"        ++++X       ",
"    .XXX            ",
"                    ",
"                    ",
"                    ",
"                    ",
"                    ",
"   .XXX++++XX       ",
"        ooo         ",
"      XOOOX         ",
"     XOO.O  XX+++XX ",
"    XO...O   oo     ",
"   XOO...Oo oOO     ",
"   oO....OOoO..@    ",
"   oO....OOoO..@    ",
"   XOO...Oo oOO     ",
"    XO...O   oo     ",
"     XOO.O  XX+++XX ",
"      XOOOX         ",
"        ooo         ",
"   .XXX++++XX       ",
"                    ",
"                    ",
"                    ",
"                    ",
"                    ",
"    .XXX            ",
"        ++++X       ",
"       X ooo X      ",
"      XOOOOX        ",
"     XO.O.O         ",
"   XOO...O   XX+++  ",
"   oO....Oo ooo   X ",
"   oO....OOoOOO     ",
"   XOO...OOoO..@    ",
"    XO...Oo O..@    ",
"    XOO.OO  oOO     ",
"     XO.O  Xoo      ",
"       OOX  X+++X   ",
"  .XXX+ooo       X  ",
"       +++XX        ",
"                    ",
"                    ",
"                    ",
"                    ",
"      .X            ",
"        XX          ",
"          +++       ",
"        XOoo+XX     ",
"     XOXOOOOo       ",
"    XOO...O X       ",
"   ooO....O  X      ",
"   XO.....Oo  X++   ",
"    OO...OO oOoo +X ",
"   XO....OOoO.O    X",
"    XO..Oo oO..@    ",
"     XO.O  oO.@     ",
" .X  OOOO   oO      ",
"   XX ooX XX+o      ",
"     +++o    ++     ",
"       +XX     XX   ",
"                    ",
"                    ",
"                    ",
"                    ",
"        XX          ",
"          X         ",
"           ++       ",
"      X XXOoo+      ",
"     XOO.OOOooXX    ",
"    oO.O...OXX      ",
"   XOO....OO        ",
"    OO....O  XX     ",
"    OO...OOo  o+    ",
"    X...OOOoOOoo++  ",
"    XOO.OooOO.O   X ",
" XX  OOO   o..@@    ",
"   X oOO   oO.@     ",
"    ++oo  Xoo       ",
"      +o   ++       ",
"       XX    +      ",
"              XX    ",
"                    ",
"                    ",
"                    ",
"          X         ",
"           X        ",
"            +       ",
"      XXOXXO +      ",
"     oOOO.OOOo+     ",
"    XO......OOoX    ",
"    XO.....OOX  X   ",
"    OO....OO        ",
"    X....OOo  X     ",
" X  XO..OOOoo o+    ",
"  X OO.O ooOOOoo+   ",
"   + OO   oO..O  X  ",
"    +oXX   O..@   X ",
"     +o  XooO@      ",
"      X   +o        ",
"       X   +        ",
"            X       ",
"             X      ",
"                    ",
"                    ",
"            X       ",
"            X       ",
"       X     X      ",
"      oOOOXX  +     ",
"     XOOOO.OOo+     ",
"    XO.....OOOo+    ",
"     OO.....OOooX   ",
" X  X.....OO    X   ",
" X  XO...OOo        ",
"  X OO.OOOOo  X     ",
"   +oOOO ooOooo+    ",
"   +ooX   OO.Oo+    ",
"    +oX X O...  +   ",
"     X  XooO@@   X  ",
"     X   +o @    X  ",
"          +         ",
"          +         ",
"           X        ",
"                    ",
"                    ",
"             .      ",
"             X      ",
"       oX X   X     ",
"      XoOOOX  X     ",
"     XOO.O.OXO +    ",
" .   OO.....OOo+    ",
" X   X.......Oo++   ",
"  X XO.....OOOXoX   ",
"  X OO...OOo    X   ",
"   +oOOOOOO   X     ",
"   +oO  o ooo X     ",
"   ++oX  oOOOo+     ",
"    X  X O...Oo+    ",
"    X   XoO.@  +    ",
"        +o @    X   ",
"        +       X   ",
"         +          ",
"         X          ",
"          X         ",
"                    ",
"                    ",
"               .    ",
"       XooX    X    ",
"  .    OOOOXX  X    ",
"  X   XO..OOOX X    ",
"  X  XO.....OO +    ",
"  X XO........Oo+   ",
"   + OO.....OOOo+   ",
"   +oO.OOOOOO Xo+   ",
"   +oOO oOOo    X   ",
"   +oX   oo  X  X   ",
"   X    oOOOooX     ",
"    X  XoO..Oo+     ",
"       XoO..O +     ",
"       +  @@  +     ",
"       +      X     ",
"       +       X    ",
"        X           ",
"                    ",
};
