/* XPM */
static char *ca0[] = {
/* width height ncolors chars_per_pixel */
"20  320 5 1"
/* colors */
"  c #000000",
": c #7b947b",
"% c #a5c6a5",
"@ c #c0dcc0",
"x c #ff0000",
/* pixels */
"                    ",
"                    ",
"         ::         ",
"        :@@:        ",
"         %%         ",
"     :x  ::  x:     ",
"    :%%: :: :%%:    ",
"    :%%@%::%@%%:    ",
"    x%@@%%%%@@%x    ",
"    x@@ %@@% @@x    ",
"    x@   @@   @x    ",
"    @@   %%   @@    ",
"    %   %%%%   %    ",
"    :   %  %   :    ",
"    :   x  x   :    ",
"    @          @    ",
"                    ",
"                    ",
"                    ",
"                    ",
"                    ",
"                    ",
"            :       ",
"           :@:      ",
"      ::x  %@:      ",
"     :%%%: :%       ",
"     x%%@ :::       ",
"     x@@@%:: :x:    ",
"    x@@ %%%%%@%%:   ",
"    @@   @@%@@%%:   ",
"   %     @@% @%x    ",
"   :   %%%    @x    ",
"  @:   %%%%  @x     ",
"      x   %  @@     ",
"         x    %     ",
"             :      ",
"             :      ",
"            @       ",
"                    ",
"                    ",
"                    ",
"                    ",
"                    ",
"        :::         ",
"       :%%x  :::    ",
"      x%%%:  %@:    ",
"     x@@@@@ ::%:    ",
"    %@@  @%:::      ",
"   :     %%::       ",
"  :      @@%%@:x:   ",
"       %%@@%@@%%:   ",
"      %%%%   @%%:   ",
"     x  %%  @@%:    ",
"        %   @@x     ",
"       x    @x      ",
"            %       ",
"           :        ",
"          :         ",
"                    ",
"                    ",
"                    ",
"                    ",
"                    ",
"          ::        ",
"        xx%%:       ",
"     %@x@%%%x       ",
"   :: @@ @@@:  ::   ",
"  @       @% :%@@:  ",
"         %%%:::%:   ",
"      %% @@%::      ",
"     x %%@@%% :     ",
"       %%  %@@%x    ",
"       %%   @%%:    ",
"      x    @@%%:    ",
"          @@xx:     ",
"          @x        ",
"       ::%          ",
"       @            ",
"                    ",
"                    ",
"                    ",
"                    ",
"                    ",
"                    ",
"    @::%@xxx::      ",
"        @@@%%%:     ",
"          @@%%x     ",
"           @@:      ",
"     x%%  %%%   :   ",
"       %%@@%:::%@:  ",
"       %%@@%:::%@:  ",
"     x%%  %%%   :   ",
"           @@:      ",
"          @@%%x     ",
"        @@@%%%:     ",
"    @::%@xxx::      ",
"                    ",
"                    ",
"                    ",
"                    ",
"                    ",
"                    ",
"       @            ",
"       ::%          ",
"          @x        ",
"          @@xx:     ",
"      x    @@%%:    ",
"       %%   @%%:    ",
"       %%  %@@%x    ",
"     x %%@@%% :     ",
"      %% @@%::      ",
"         %%%:::%:   ",
"  @       @% :%@@:  ",
"   :: @@ @@@:  ::   ",
"     %@x@%%%x       ",
"        xx%%:       ",
"          ::        ",
"                    ",
"                    ",
"                    ",
"                    ",
"                    ",
"          :         ",
"           :        ",
"            %       ",
"       x    @x      ",
"        %   @@x     ",
"     x  %%   @%:    ",
"      %%%%   @%%:   ",
"       %%@@%@@%%:   ",
"  :      @@%%@:x:   ",
"   :     %%::       ",
"    %@@@ @%:::      ",
"     x@@@@@ ::%:    ",
"      x%%%:  %@:    ",
"       :%%x  :::    ",
"        :::         ",
"                    ",
"                    ",
"                    ",
"                    ",
"                    ",
"            @       ",
"             :      ",
"             :      ",
"         x    %     ",
"      x   %  @@     ",
"  @:   %%%%  @x     ",
"   :   %%%    @x    ",
"   %     @@% @%x    ",
"    @@   @@%@@%%:   ",
"    x@@ %%%%%@%%:   ",
"     x@@@%:: :x:    ",
"     x%%@ :::       ",
"     :%%%: :%       ",
"      ::x  %@:      ",
"           :@:      ",
"            :       ",
"                    ",
"                    ",
"                    ",
"                    ",
"                    ",
"                    ",
"    @          @    ",
"    :   x  x   :    ",
"    :   %  %   :    ",
"    %   %%%%   %    ",
"    @@   %%   @@    ",
"    x@   @@   @x    ",
"    x@@ %@@% @@x    ",
"    x%@@%%%%@@%x    ",
"    :%%@%::%@%%:    ",
"    :%%: :: :%%:    ",
"     :x  ::  x:     ",
"         %%         ",
"        :@@:        ",
"         ::         ",
"                    ",
"                    ",
"                    ",
"                    ",
"       @            ",
"      :             ",
"      :             ",
"     %    x         ",
"     @@  %   x      ",
"     x@  %%%%   :@  ",
"    x@    %%%   :   ",
"    x%@ %@@     %   ",
"   :%%@@%@@   @@    ",
"   :%%@%%%%% @@x    ",
"    :x: ::%@@@x     ",
"       ::: @%%x     ",
"       %: :%%%:     ",
"      :@%  x::      ",
"      :@:           ",
"       :            ",
"                    ",
"                    ",
"                    ",
"                    ",
"         :          ",
"        :           ",
"       %            ",
"      x@    x       ",
"     x@@   %        ",
"    :%@   %%  x     ",
"   :%%@   %%%%      ",
"   :%%@@%@@%%       ",
"   :x:@%%@@      :  ",
"       ::%%     :   ",
"      :::%@ @@@%    ",
"    :%:: @@@@@x     ",
"    :@%  :%%%x      ",
"    :::  x%%:       ",
"         :::        ",
"                    ",
"                    ",
"                    ",
"                    ",
"                    ",
"            @       ",
"          %::       ",
"        x@          ",
"     :xx@@          ",
"    :%%@@    x      ",
"    :%%@   %%       ",
"    x%@@%  %%       ",
"     : %%@@%% x     ",
"      ::%@@ %%      ",
"   :%:::%%%         ",
"  :@@%: %@       @  ",
"   ::  :@@@ @@ ::   ",
"       x%%%@x@%     ",
"       :%%xx        ",
"        ::          ",
"                    ",
"                    ",
"                    ",
"                    ",
"                    ",
"                    ",
"                    ",
"      ::xxx@%::@    ",
"     :%%%@@@        ",
"     x%%@@          ",
"      :@@           ",
"   :   %%%  %%x     ",
"  :@%:::%@@%%       ",
"  :@%:::%@@%%       ",
"   :   %%%  %%x     ",
"      :@@           ",
"     x%%@@          ",
"     :%%%@@@        ",
"      ::xxx@%::@    ",
"                    ",
"                    ",
"                    ",
"                    ",
"                    ",
"                    ",
"                    ",
"        ::          ",
"       :%%xx        ",
"       x%%%@x@%     ",
"   ::  :@@@ @@ ::   ",
"  :@@%: %@       @  ",
"   :%:::%%%         ",
"      ::%@@ %%      ",
"     : %%@@%% x     ",
"    x%@@%  %%       ",
"    :%%@   %%       ",
"    :%%@@    x      ",
"     :xx@@          ",
"        x@          ",
"          %::       ",
"            @       ",
"                    ",
"                    ",
"                    ",
"                    ",
"                    ",
"         :::        ",
"    :::  x%%:       ",
"    :@%  :%%%x      ",
"    :%:: @@@@@x     ",
"      :::%@ @@@%    ",
"       ::%%     :   ",
"   :x:@%%@@      :  ",
"   :%%@@%@@%%       ",
"   :%%@   %%%%      ",
"    :%@   %%  x     ",
"     x@@   %        ",
"      x@    x       ",
"       %            ",
"        :           ",
"         :          ",
"                    ",
"                    ",
"                    ",
"                    ",
"       :            ",
"      :@:           ",
"      :@%  x::      ",
"       %: :%%%:     ",
"       ::: @%%x     ",
"    :x: ::%@@@x     ",
"   :%%@%%%%% @@x    ",
"   :%%@@%@@   @@    ",
"    x%@ %@@     %   ",
"    x@    %%%   :   ",
"     x@  %%%%   :@  ",
"     @@  %   x      ",
"     %    x         ",
"      :             ",
"      :             ",
"       @            ",
"                    ",
"                    ",
};
