/* XPM */
static char * C2_xpm_plain[] = {
/* widht height colors chars_per_color */
"20  640 7 1"
/* colors */
" 	c None",
".	c #FFFF00000000",
"X	c #C8C800000000",
"o	c #787800000000",
"O	c #787800000000",
"+	c #A0A000000000",
"@	c #787800000000",
/* pixels */
"                    ",
"                    ",
"                    ",
"  .              .  ",
"  .      XX      .  ",
"  o    O+..+O    o  ",
"  oX  OXX..XXO  Xo  ",
"  oX+O+XX..XX+O+Xo  ",
"  oX+OXXXXXXXXO+Xo  ",
"  oX+OXXXXXXXXO+Xo  ",
"  . +OXXXXXXXXO+ .  ",
"  .  O+XXXXXX+O  .  ",
"  .   +XX++XX+   .  ",
"      OX+@@+XO      ",
"       XO  OX       ",
"       X    X       ",
"                    ",
"                    ",
"                    ",
"                    ",
"                    ",
"                    ",
"   .                ",
"   .                ",
"   o      XX        ",
"   oX  OO+..+     . ",
"   oX+O+XX..XO    . ",
"  oX+OXXX...XXO  Xo ",
"  oX+OXXXXXXX+O+Xo  ",
"  . +OXXXXXXXXO+Xo  ",
"  .  O+XXXXXXXO+Xo  ",
"  .   +XXXXXXXO+ .  ",
"     OXX+++XX+O  .  ",
"      X+@@+X+   .   ",
"      XO  OXO       ",
"           X        ",
"                    ",
"                    ",
"                    ",
"                    ",
"                    ",
"     .              ",
"    o.              ",
"    o               ",
"    oX   O X        ",
"   oX+O OX+.X       ",
"   oX+O+XX...+O    .",
"  . X+OXXX..XX     .",
"  . +OXXXXXXXXO   o ",
"  .  OXXXXXXXX+O+Xo ",
"     ++XXXXXXXO+Xo  ",
"     OXXXXXXXXO+Xo  ",
"      X+++XX+O+ Xo  ",
"     XO @@+X+O  .   ",
"     X   OXO    .   ",
"          X    .    ",
"          X         ",
"                    ",
"                    ",
"                    ",
"       .            ",
"      .             ",
"     oo             ",
"     oX             ",
"    oX+   O X       ",
"   ooX+O+XO+XX      ",
"   . +OO+XX...      ",
"  . ++OXXX...+O     ",
"  .  OXXXXX.XXX    .",
"      +XXXXXXX+    .",
"     +XXXXXXXXOO Xo ",
"     XXX+XXXXXO+Xoo ",
"     XO@++XXXO++Xo  ",
"    X   @+X+OO+Xo   ",
"        OXX+   ..   ",
"         X     .    ",
"              .     ",
"                    ",
"                    ",
"                    ",
"        ..          ",
"       oo           ",
"      oo            ",
"     ooX            ",
"    .oX+O  O        ",
"   .. +OO+XO+X      ",
"  .. +OOXXXX..X     ",
"     OOXXXX...+     ",
"      +XXXX..XOO    ",
"     +XXXXXXXXX     ",
"     XXXXXXXXX+    .",
"    XX+++XXXXXOO  o.",
"    XO @+XXXXOO+Xoo ",
"        +XX+OO+Xoo  ",
"       OXX+ O+Xoo   ",
"       XX     .o    ",
"             ..     ",
"             .      ",
"                    ",
"                    ",
"          ..        ",
"        oo          ",
"       ooX          ",
"     .oXX           ",
"    ..X++O          ",
"   .  ++OO+XO       ",
"      OOXXXX+.X     ",
"      OXXXXX..XX    ",
"     ++XXXX...+     ",
"     XXXXXXX.XOO    ",
"    XX++XXXXXXX     ",
"     O@++XXXX++     ",
"       @XXXXXOO    .",
"       OXX+XOO++Xo. ",
"       XX+ O++XXoo  ",
"      X     + oo    ",
"             .o     ",
"           ..       ",
"                    ",
"                    ",
"            ..      ",
"          oo        ",
"       oooX         ",
"     ..XXX+         ",
"    .   ++O         ",
"       +OO+O O      ",
"      OOXXXXX+      ",
"      ++XXXXX.X     ",
"     OXXXXXX...X    ",
"   XXX+XXXXX..+     ",
"     O@+XXXXXXXO    ",
"      @+XXXXXXO     ",
"       +XXXXX+      ",
"      OXX+XXOOO     ",
"     XX O+OO+++X .. ",
"           +XXXooo  ",
"             oo     ",
"          ...       ",
"                    ",
"                    ",
"                    ",
"            o..     ",
"       ..oooX       ",
"      .  XXX        ",
"        ++++        ",
"       OOOOOO       ",
"       +XXX+XO      ",
"     O+XXXXXXX+     ",
"    XXXXXXXX...X    ",
"     O++XXXX...X    ",
"      @+XXXX.X+     ",
"      @+XXXXXXO     ",
"     O+XXXXXX+O     ",
"     XXX++XXXO      ",
"       O OOOO+      ",
"          +++XX     ",
"           XXooo..  ",
"        ...oo       ",
"                    ",
"                    ",
"                    ",
"                    ",
"       ...ooooo..   ",
"          XXXX      ",
"         ++++       ",
"        OOOOO       ",
"      O++XXX+O      ",
"    XXXXXXXXXXO     ",
"     O+XXXXXXX+     ",
"      @+XXXX...X    ",
"      @+XXXX...X    ",
"     O+XXXXXXX+     ",
"    XXXXXXXXXXO     ",
"      O++XXX+O      ",
"        OOOOO       ",
"         ++++       ",
"          XXXX      ",
"       ...ooooo..   ",
"                    ",
"                    ",
"                    ",
"                    ",
"        ...oo       ",
"           XXooo..  ",
"          +++XX     ",
"       O OOOO+      ",
"     XXX++XXXO      ",
"     O+XXXXXX+O     ",
"      @+XXXXXXO     ",
"      @+XXXX.X+     ",
"     O++XXXX...X    ",
"    XXXXXXXX...X    ",
"     O+XXXXXXX+     ",
"       +XXX+XO      ",
"       OOOOOO       ",
"        ++++        ",
"      .  XXX        ",
"       ..oooX       ",
"            o..     ",
"                    ",
"                    ",
"                    ",
"          ...       ",
"             oo     ",
"           +XXXooo  ",
"     XX O+OO+++X .. ",
"      OXX+XXOOO     ",
"       +XXXXX+      ",
"      @+XXXXXXO     ",
"     O@+XXXXXXXO    ",
"   XXX+XXXXX..+     ",
"     OXXXXXX...X    ",
"      ++XXXXX.X     ",
"      OOXXXXX+      ",
"       +OO+O O      ",
"    .   ++O         ",
"     ..XXX+         ",
"       oooX         ",
"          oo        ",
"            ..      ",
"                    ",
"                    ",
"           ..       ",
"             .o     ",
"      X     + oo    ",
"       XX+ O++XXoo  ",
"       OXX+XOO++Xo. ",
"       @XXXXXOO    .",
"     O@++XXXX++     ",
"    XX++XXXXXXX     ",
"     XXXXXXX.XOO    ",
"     ++XXXX...+     ",
"      OXXXXX..XX    ",
"      OOXXXX+.X     ",
"   .  ++OO+XO       ",
"    ..X++O          ",
"     .oXX           ",
"       ooX          ",
"        oo          ",
"          ..        ",
"                    ",
"                    ",
"             .      ",
"             ..     ",
"       XX     ..    ",
"       OXX+ O+ oo   ",
"        +XX+OO+Xoo  ",
"    XO @+XXXXOO+Xoo ",
"    XX+++XXXXXOO  o.",
"     XXXXXXXXX+    .",
"     +XXXXXXXXX     ",
"      +XXXX..XOO    ",
"     OOXXXX...+     ",
"  .. +OOXXXX..X     ",
"   ..X+OO+XO+X      ",
"    ooX+O  O        ",
"     ooX            ",
"      oo            ",
"       oo           ",
"        ..          ",
"                    ",
"                    ",
"                    ",
"              .     ",
"         X     .    ",
"        OXX+   ..   ",
"    X   @+X+OO+Xo   ",
"     XO@++XXXO++Xo  ",
"     XXX+XXXXXO+Xoo ",
"     +XXXXXXXXOO Xo ",
"      +XXXXXXX+    .",
"  .  OXXXXX.XXX    .",
"  . ++OXXX...+O     ",
"   . +OO+XX...      ",
"   ooX+O+XO+XX      ",
"    oX+   O X       ",
"     oX             ",
"     oo             ",
"      .             ",
"       .            ",
"                    ",
"                    ",
"                    ",
"          X         ",
"          X    .    ",
"     X   OXO    .   ",
"     XO @@+X+O  .   ",
"      X+++XX+O+ Xo  ",
"     OXXXXXXXXO+Xo  ",
"     ++XXXXXXXO+Xo  ",
"  .  OXXXXXXXX+O+Xo ",
"  . +OXXXXXXXXO   o ",
"  . X+OXXX..XX     .",
"   oX+O+XX...+O    .",
"   oX+O OX+.X       ",
"    oX   O X        ",
"    o               ",
"    o.              ",
"     .              ",
"                    ",
"                    ",
"                    ",
"                    ",
"                    ",
"           X        ",
"      XO  OXO       ",
"      X+@@+X+   .   ",
"     OXX+++XX+O  .  ",
"  .   +XXXXXXXO+ .  ",
"  .  O+XXXXXXXO+Xo  ",
"  . +OXXXXXXXXO+Xo  ",
"  oX+OXXXXXXX+O+Xo  ",
"  oX+OXXX...XXO  Xo ",
"   oX+O+XX..XO    . ",
"   oX  OO+..+     . ",
"   o      XX        ",
"   .                ",
"   .                ",
"                    ",
"                    ",
"                    ",
"                    ",
"                    ",
"                    ",
"       X    X       ",
"       XO  OX       ",
"      OX+@@+XO      ",
"  .   +XX++XX+   .  ",
"  .  O+XXXXXX+O  .  ",
"  . +OXXXXXXXXO+ .  ",
"  oX+OXXXXXXXXO+Xo  ",
"  oX+OXXXXXXXXO+Xo  ",
"  oX+O+XX..XX+O+Xo  ",
"  oX  OXX..XXO  Xo  ",
"  o    O+..+O    o  ",
"  .      XX      .  ",
"  .              .  ",
"                    ",
"                    ",
"                    ",
"                    ",
"                    ",
"                    ",
"                    ",
"        X           ",
"       OXO  OX      ",
"   .   +X+@@+X      ",
"  .  O+XX+++XXO     ",
"  . +OXXXXXXX+   .  ",
"  oX+OXXXXXXX+O  .  ",
"  oX+OXXXXXXXXO+ .  ",
"  oX+O+XXXXXXXO+Xo  ",
" oX  OXX...XXXO+Xo  ",
" .    OX..XX+O+Xo   ",
" .     +..+OO  Xo   ",
"        XX      o   ",
"                .   ",
"                .   ",
"                    ",
"                    ",
"                    ",
"                    ",
"                    ",
"         X          ",
"    .    X          ",
"   .    OXO   X     ",
"   .  O+X+@@ OX     ",
"  oX +O+XX+++X      ",
"  oX+OXXXXXXXXO     ",
"  oX+OXXXXXXX++     ",
" oX+O+XXXXXXXXO  .  ",
" o   OXXXXXXXXO+ .  ",
".     XX..XXXO+X .  ",
".    O+...XX+O+Xo   ",
"       X.+XO O+Xo   ",
"        X O   Xo    ",
"               o    ",
"              .o    ",
"              .     ",
"                    ",
"                    ",
"                    ",
"                    ",
"     .              ",
"    .     X         ",
"   ..   +XXO        ",
"   oX+OO+X+@   X    ",
"  oX++OXXX++@OX     ",
" ooX+OXXXXX+XXX     ",
" oX OOXXXXXXXX+     ",
".    +XXXXXXX+      ",
".    XXX.XXXXXO  .  ",
"     O+...XXXO++ .  ",
"      ...XX+OO+ .   ",
"      XX+OX+O+Xoo   ",
"       X O   +Xo    ",
"             Xo     ",
"             oo     ",
"             .      ",
"            .       ",
"                    ",
"                    ",
"      .             ",
"     ..             ",
"    o.     XX       ",
"   ooX+O +XXO       ",
"  ooX+OO+XX+        ",
" ooX+OOXXXX+@ OX    ",
".o  OOXXXXX+++XX    ",
".    +XXXXXXXXX     ",
"     XXXXXXXXX+     ",
"    OOX..XXXX+      ",
"     +...XXXXOO     ",
"     X..XXXXOO+ ..  ",
"      X+OX+OO+ ..   ",
"        O  O+Xo.    ",
"            Xoo     ",
"            oo      ",
"           oo       ",
"          ..        ",
"                    ",
"                    ",
"       ..           ",
"     o.             ",
"    oo +     X      ",
"  ooXX++O +XX       ",
" .oX++OOX+XXO       ",
".    OOXXXXX@       ",
"     ++XXXX++@O     ",
"     XXXXXXX++XX    ",
"    OOX.XXXXXXX     ",
"     +...XXXX++     ",
"    XX..XXXXXO      ",
"     X.+XXXXOO      ",
"       OX+OO++  .   ",
"          O++X..    ",
"           XXo.     ",
"          Xoo       ",
"          oo        ",
"        ..          ",
"                    ",
"                    ",
"       ...          ",
"     oo             ",
"  oooXXX+           ",
" .. X+++OO+O XX     ",
"     OOOXX+XXO      ",
"      +XXXXX+       ",
"     OXXXXXX+@      ",
"    OXXXXXXX+@O     ",
"     +..XXXXX+XXX   ",
"    X...XXXXXXO     ",
"     X.XXXXX++      ",
"      +XXXXXOO      ",
"      O O+OO+       ",
"         O++   .    ",
"         +XXX..     ",
"         Xooo       ",
"        oo          ",
"      ..            ",
"                    ",
"                    ",
"       oo...        ",
"  ..oooXX           ",
"     XX+++          ",
"      +OOOO O       ",
"      OXXX++XXX     ",
"     O+XXXXXX+O     ",
"     OXXXXXX+@      ",
"     +X.XXXX+@      ",
"    X...XXXX++O     ",
"    X...XXXXXXXX    ",
"     +XXXXXXX+O     ",
"      OX+XXX+       ",
"       OOOOOO       ",
"        ++++        ",
"        XXX  .      ",
"       Xooo..       ",
"     ..o            ",
"                    ",
"                    ",
"                    ",
"   ..ooooo...       ",
"      XXXX          ",
"       ++++         ",
"       OOOOO        ",
"      O+XXX++O      ",
"     OXXXXXXXXXX    ",
"     +XXXXXXX+O     ",
"    X...XXXX+@      ",
"    X...XXXX+@      ",
"     +XXXXXXX+O     ",
"     OXXXXXXXXXX    ",
"      O+XXX++O      ",
"       OOOOO        ",
"       ++++         ",
"      XXXX          ",
"   ..ooooo...       ",
"                    ",
"                    ",
"                    ",
"     ..o            ",
"       Xooo..       ",
"        XXX  .      ",
"        ++++        ",
"       OOOOOO       ",
"      OX+XXX+       ",
"     +XXXXXXX+O     ",
"    X...XXXXXXXX    ",
"    X...XXXX++O     ",
"     +X.XXXX+@      ",
"     OXXXXXX+@      ",
"     O+XXXXXX+O     ",
"      OXXX++XXX     ",
"      +OOOO O       ",
"     XX+++          ",
"  ..oooXX           ",
"       oo...        ",
"                    ",
"                    ",
"      ..            ",
"        oo          ",
"         Xooo       ",
"         +XXX..     ",
"         O++   .    ",
"      O O+OO+       ",
"      +XXXXXOO      ",
"     X.XXXXX++      ",
"    X...XXXXXXO     ",
"     +..XXXXX+XXX   ",
"    OXXXXXXX+@O     ",
"     OXXXXXX+@      ",
"      +XXXXX+       ",
"     OOOXX+XXO      ",
" .. X+++OO+O XX     ",
"  oooXXX+           ",
"     oo             ",
"       ...          ",
"                    ",
"                    ",
"        ..          ",
"          oo        ",
"          Xoo       ",
"           XXo.     ",
"          O++X..    ",
"       OX+OO++  .   ",
"     X.+XXXXOO      ",
"    XX..XXXXXO      ",
"     +...XXXX++     ",
"    OOX.XXXXXXX     ",
"     XXXXXXX++XX    ",
"     ++XXXX++@O     ",
".    OOXXXXX@       ",
" .oX++OOX+XXO       ",
"  ooXX++O +XX       ",
"    oo +     X      ",
"     o.             ",
"       ..           ",
"                    ",
"                    ",
"          ..        ",
"           oo       ",
"            oo      ",
"            Xoo     ",
"        O  O+Xoo    ",
"      X+OX+OO+X..   ",
"     X..XXXXOO+ ..  ",
"     +...XXXXOO     ",
"    OOX..XXXX+      ",
"     XXXXXXXXX+     ",
".    +XXXXXXXXX     ",
".o  OOXXXXX+++XX    ",
" ooX+OOXXXX+@ OX    ",
"  ooX+OO+XX+        ",
"   oo +O +XXO       ",
"    ..     XX       ",
"     ..             ",
"      .             ",
"                    ",
"                    ",
"            .       ",
"             .      ",
"             oo     ",
"             Xo     ",
"       X O   +Xo    ",
"      XX+OX+O+Xoo   ",
"      ...XX+OO+ .   ",
"     O+...XXXO++ .  ",
".    XXX.XXXXXO  .  ",
".    +XXXXXXX+      ",
" oX OOXXXXXXXX+     ",
" ooX+OXXXXX+XXX     ",
"  oX++OXXX++@OX     ",
"   oX+OO+X+@   X    ",
"   ..   +XXO        ",
"    .     X         ",
"     .              ",
"                    ",
"                    ",
"                    ",
"                    ",
"              .     ",
"              .o    ",
"               o    ",
"        X O   Xo    ",
"       X.+XO O+Xo   ",
".    O+...XX+O+Xo   ",
".     XX..XXXO+X .  ",
" o   OXXXXXXXXO+ .  ",
" oX+O+XXXXXXXXO  .  ",
"  oX+OXXXXXXX++     ",
"  oX+OXXXXXXXXO     ",
"  oX +O+XX+++X      ",
"   .  O+X+@@ OX     ",
"   .    OXO   X     ",
"    .    X          ",
"         X          ",
"                    ",
"                    ",
"                    ",
"                    ",
"                    ",
"                .   ",
"                .   ",
"        XX      o   ",
" .     +..+OO  Xo   ",
" .    OX..XX+O+Xo   ",
" oX  OXX...XXXO+Xo  ",
"  oX+O+XXXXXXXO+Xo  ",
"  oX+OXXXXXXXXO+ .  ",
"  oX+OXXXXXXX+O  .  ",
"  . +OXXXXXXX+   .  ",
"  .  O+XX+++XXO     ",
"   .   +X+@@+X      ",
"       OXO  OX      ",
"        X           ",
"                    ",
"                    ",
"                    ",
"                    ",
};
