/* XPM */
static char * C1_xpm[] = {
/* width height colors chars_per_color */
"20  640 6 1"
/* colors */
" 	c None",
".	c #7F7F97977F7F",
"X	c #9090ABAB9090",
"o	c #B0B0D0D0B0B0",
"O	c #A1A1C1C1A1A1",
"+	c #E0E000000000",
/* pixels */
"                    ",
"          .         ",
"         XoX        ",
"         XoX        ",
"         OoO        ",
"          O         ",
"          O         ",
"          O         ",
"          O         ",
"       OOoooOO      ",
"     OOOXXoXXOOO    ",
"    OooXOOXOOXooO   ",
"    Ooo.+OXO+.ooO   ",
"     XO.+O O+.oX    ",
"        +O O+       ",
"        OO OO       ",
"         O O        ",
"                    ",
"                    ",
"                    ",
"                    ",
"            .       ",
"          Xoo       ",
"          XoX       ",
"          OoO       ",
"           O        ",
"           O        ",
"          OO        ",
"       O  O         ",
"     OOOOoooO       ",
"    OooOXXoXXO      ",
"    OooXOOXOXOOO    ",
"    XO.+OOXOOXooO   ",
"       +O O+.ooO    ",
"       +O O+.oX     ",
"       OO OO        ",
"        O O         ",
"                    ",
"                    ",
"                    ",
"                    ",
"                    ",
"            X.      ",
"            XoX     ",
"           OoX      ",
"            oO      ",
"           OO       ",
"           O        ",
"     O OO  O        ",
"    OoOOXoo         ",
"   OoooXOXooOO      ",
"    XO.+OXOXXO      ",
"      .+OXOOXOO     ",
"      +OO O+.ooO    ",
"      OO O+.oooO    ",
"       O O+  X      ",
"        O O         ",
"                    ",
"                    ",
"                    ",
"                    ",
"                    ",
"                    ",
"             Xo.    ",
"            OXoX    ",
"            OoX     ",
"            OOO     ",
"            O       ",
"    OoOOOO O        ",
"    oooOXooO        ",
"    Xo.OOXooO       ",
"     ..+OXXXOO      ",
"      +OXXOOOO      ",
"     OOO O+.oOO     ",
"      O O++.ooO     ",
"        O+ oXoO     ",
"       O            ",
"                    ",
"                    ",
"                    ",
"                    ",
"                    ",
"                    ",
"                    ",
"              Xo.   ",
"             OooX   ",
"      O      OoX    ",
"    OoOOO   OO      ",
"    oooOOO OO       ",
"    Xo.XXXoO        ",
"     ..+Oooo        ",
"      +OXXXOO       ",
"     +O XOOXO       ",
"     O  O++XO       ",
"       O++.ooO      ",
"      OO+ oooO      ",
"           XO       ",
"                    ",
"                    ",
"                    ",
"                    ",
"                    ",
"                    ",
"                    ",
"                    ",
"               XX.  ",
"    OOOO      Ooo   ",
"     ooOOO    ooX   ",
"    XooXOO  OO O    ",
"     ..OXXoOO       ",
"      +OOooo        ",
"    O+OOXXXO        ",
"    OO  OOXXO       ",
"    O  O++XO        ",
"     OO++.ooO       ",
"      O  oooO       ",
"          XOO       ",
"                    ",
"                    ",
"                    ",
"                    ",
"                    ",
"                    ",
"                    ",
"                    ",
"     OO             ",
"     ooOO       X   ",
"     XooOO    OXoo. ",
"     O.XXO    OoXX  ",
"     .++OXoOOO O    ",
"    O+OOOoo         ",
"    OO XXOXo        ",
"   O   OOOXO        ",
"    OOO++XOO        ",
"     O+ ..oO        ",
"        oooO        ",
"        XoOO        ",
"                    ",
"                    ",
"                    ",
"                    ",
"                    ",
"                    ",
"                    ",
"       O            ",
"      OoO           ",
"     XooO           ",
"     OoXOOO      X  ",
"      .+OXO    OXX. ",
"    O++OOXo  OOooo  ",
"   OOOOXXooOO  OXX  ",
"       XOXo         ",
"   OOOOOOXOO        ",
"     O++.XOO        ",
"       .ooO         ",
"       oooO         ",
"       XOO          ",
"                    ",
"                    ",
"                    ",
"                    ",
"                    ",
"                    ",
"                    ",
"       OO           ",
"      XooO          ",
"      OooO          ",
"      ..XOO         ",
"    O+++OXO         ",
"   OOOOOOXo    OXX  ",
"       XXooOOOOooo. ",
"   OOOOOOXo    OXX  ",
"    O+++OXO         ",
"      ..XOO         ",
"      oooO          ",
"      XooO          ",
"       OO           ",
"                    ",
"                    ",
"                    ",
"                    ",
"                    ",
"                    ",
"                    ",
"       XOO          ",
"       OooO         ",
"       .ooO         ",
"    O+++XOOO        ",
"   OOOOOOXO         ",
"       OOXo         ",
"   OOOOXXooOO  OXX  ",
"    O++OOXo OOOooo  ",
"     ..OXXO    OXo. ",
"     ooXOO          ",
"     XooO           ",
"      OoO           ",
"       O            ",
"                    ",
"                    ",
"                    ",
"                    ",
"                    ",
"                    ",
"         O          ",
"        XoO         ",
"        OooO        ",
"     O+..oO         ",
"    OOO++XOO        ",
"   O  OOOOXO        ",
"    OO XXXo         ",
"   O++OOOoo         ",
"     .+OXo OOO O    ",
"     o.XXO   OooXX  ",
"    XooOOO    OXo.  ",
"     ooO        X   ",
"     OO             ",
"                    ",
"                    ",
"                    ",
"                    ",
"                    ",
"                    ",
"                    ",
"                    ",
"         XoO        ",
"      O .ooo        ",
"     OO+..oO        ",
"   O  OO+OOO        ",
"    OO XOOXO        ",
"    ++OXXXoO        ",
"     ++OXoo         ",
"    o..OXoOO        ",
"    XooOOO  OOOO    ",
"    ooOOO    OoXX   ",
"    OOO      OXoo   ",
"               X.   ",
"                    ",
"                    ",
"                    ",
"                    ",
"                    ",
"                    ",
"                    ",
"                    ",
"          XoO       ",
"      O+ .ooo       ",
"    O  O+..oOO      ",
"    OO  O+XOO       ",
"    ++OXXOXOO       ",
"     ++OXoXO        ",
"    o.+OXoo         ",
"   XooXXOoO         ",
"   OooOOO  O        ",
"    OO      O O     ",
"             oXX    ",
"             XoX    ",
"              X.    ",
"                    ",
"                    ",
"                    ",
"                    ",
"                    ",
"                    ",
"                    ",
"      OOO  X O      ",
"     O O+ .ooO      ",
"    OO  O+.ooO      ",
"     +O OOOXOO      ",
"     ++OXOXOO       ",
"    o.+OXoXOO       ",
"   XooXXXoo         ",
"   OooOXOoO         ",
"   OOO O  OO        ",
"           O        ",
"            oO      ",
"           OooX     ",
"            XoX     ",
"              .     ",
"                    ",
"                    ",
"                    ",
"                    ",
"                    ",
"       O            ",
"      O OO          ",
"     OO O+.OXoO     ",
"     +O  O+.ooO     ",
"      +OXO+XoO      ",
"   Xo.+OXOOXOO      ",
"   oo.XOOoXOO       ",
"   OooOXXoo         ",
"   OOOOOo O         ",
"          O         ",
"          O         ",
"           OO       ",
"          OoX       ",
"           XoX      ",
"           Xo       ",
"            .       ",
"                    ",
"                    ",
"                    ",
"                    ",
"       O O          ",
"       O OO         ",
"      OO O+ OX      ",
"      +O O+.ooO     ",
"   Xo.+OXXO+XooO    ",
"   Ooo.OOXOOOOO     ",
"   OooXXXoXXO       ",
"    OOOOoooOO       ",
"      OO O          ",
"         O          ",
"          O         ",
"          O         ",
"         OoO        ",
"         XoX        ",
"         XoXX       ",
"           .        ",
"                    ",
"                    ",
"                    ",
"                    ",
"        O O         ",
"       OO OO        ",
"       +O O+        ",
"    Xo.+O O+.OX     ",
"   Ooo.+OXO+.ooO    ",
"   OooXOOXOOXooO    ",
"    OOOXXoXXOOO     ",
"      OOoooOO       ",
"         O          ",
"         O          ",
"         O          ",
"         O          ",
"        OoO         ",
"        XoX         ",
"        XoX         ",
"         .          ",
"                    ",
"                    ",
"                    ",
"                    ",
"         O O        ",
"        OO OO       ",
"     Xo.+O O+       ",
"    Ooo.+O O+       ",
"   OooXOOXOO+.OX    ",
"    OOOXOXOOXooO    ",
"      OXXoXXOooO    ",
"       OoooOOOO     ",
"         O  O       ",
"        OO          ",
"        O           ",
"        O           ",
"       OoO          ",
"       XoX          ",
"       ooX          ",
"       .            ",
"                    ",
"                    ",
"                    ",
"                    ",
"         O O        ",
"      X  +O O       ",
"    Oooo.+O OO      ",
"    Ooo.+O OO+      ",
"     OOXOOXO+.      ",
"      OXXOXO+.OX    ",
"      OOooXOXoooO   ",
"         ooXOOoO    ",
"        O  OO O     ",
"        O           ",
"       OO           ",
"      Oo            ",
"      XoO           ",
"     XoX            ",
"      .X            ",
"                    ",
"                    ",
"                    ",
"                    ",
"                    ",
"            O       ",
"     OoXo +O        ",
"     Ooo.++O O      ",
"     OOo.+O OOO     ",
"      OOOOXXO+      ",
"      OOXXXO+..     ",
"       OooXOO.oX    ",
"        OooXOooo    ",
"        O OOOOoO    ",
"       O            ",
"     OOO            ",
"     XoO            ",
"    XoXO            ",
"    .oX             ",
"                    ",
"                    ",
"                    ",
"                    ",
"                    ",
"                    ",
"       OX           ",
"      Oooo +OO      ",
"      Ooo.++O       ",
"       OX++O  O     ",
"       OXOOX O+     ",
"       OOXXXO+      ",
"        oooO+..     ",
"        OoXXX.oX    ",
"       O  OOOooo    ",
"      O    OOOoO    ",
"    Xo       O      ",
"   XoXO             ",
"   .XX              ",
"                    ",
"                    ",
"                    ",
"                    ",
"                    ",
"                    ",
"                    ",
"       OOX          ",
"       Oooo  O      ",
"       Ooo.++OO     ",
"        OX++O  O    ",
"       OXXOO  OO    ",
"        OXXXOO+O    ",
"        oooOO+      ",
"       OOoXXO..     ",
"    O OO  OOXooX    ",
"   Xoo    OOOoo     ",
"   ooO      OOOO    ",
"  .XX               ",
"                    ",
"                    ",
"                    ",
"                    ",
"                    ",
"                    ",
"                    ",
"                    ",
"        OOoX        ",
"        Oooo        ",
"        Oo.. +O     ",
"        OOX++OOO    ",
"        OXOOO   O   ",
"        oXOXX OO    ",
"         ooOOO+O    ",
"    O OOOoXO++.     ",
"  XXoO    OXX.O     ",
" .ooXO    OOooX     ",
"   X       OOoo     ",
"             OO     ",
"                    ",
"                    ",
"                    ",
"                    ",
"                    ",
"                    ",
"                    ",
"                    ",
"          OOX       ",
"         Oooo       ",
"         Ooo.       ",
"        OOX.++O     ",
"        OOXOOOOOO   ",
"         oXOX       ",
"  XXO  OOooXXOOOO   ",
"  oooOO  oXOO++O    ",
" .XXO    OXO+.      ",
"  X      OOOXoO     ",
"           OooX     ",
"           OoO      ",
"            O       ",
"                    ",
"                    ",
"                    ",
"                    ",
"                    ",
"                    ",
"                    ",
"           OO       ",
"          OooX      ",
"          Oooo      ",
"         OOX..      ",
"         OXO+++O    ",
"  XXO    oXOOOOOO   ",
" .oooOOOOooXX       ",
"  XXO    oXOOOOOO   ",
"         OXO+++O    ",
"         OOX..      ",
"          OooO      ",
"          OooX      ",
"           OO       ",
"                    ",
"                    ",
"                    ",
"                    ",
"                    ",
"                    ",
"                    ",
"            O       ",
"           OoO      ",
"           OooX     ",
"          OOXoo     ",
" .oXO    OXXO..     ",
"  oooOOO oXOO++O    ",
"  XXO  OOooXXOOOO   ",
"         oXOO       ",
"         OXOOOOOO   ",
"        OOOX+++O    ",
"         Ooo.       ",
"         OooO       ",
"          OOX       ",
"                    ",
"                    ",
"                    ",
"                    ",
"                    ",
"                    ",
"                    ",
"                    ",
"             OO     ",
"   X        Ooo     ",
"  .oXO    OOOooX    ",
"  XXooO   OXX.o     ",
"    O OOO oXO+.     ",
"         ooOOO++O   ",
"         oXXX OO    ",
"        OXOOOO  O   ",
"        OOX++OOO    ",
"         Oo..+O     ",
"        OooO        ",
"         OoX        ",
"          O         ",
"                    ",
"                    ",
"                    ",
"                    ",
"                    ",
"                    ",
"                    ",
"   .X               ",
"   ooXO      OOO    ",
"   XXoO    OOOoo    ",
"    OOOO  OOOooX    ",
"        OOoXO..o    ",
"         ooXO++     ",
"        OoXXXO++    ",
"        OXOOX OO    ",
"        OOO+OO  O   ",
"        Oo..+OO     ",
"        ooo. O      ",
"        OoX         ",
"                    ",
"                    ",
"                    ",
"                    ",
"                    ",
"                    ",
"                    ",
"    .X              ",
"    XoX             ",
"    XXo             ",
"     O O      OO    ",
"        O  OOOooO   ",
"         OoOXXooX   ",
"         ooXO+.o    ",
"        OXoXO++     ",
"       OOXOXXO++    ",
"       OOX+O  OO    ",
"      OOo..+O  O    ",
"       ooo. +O      ",
"       OoX          ",
"                    ",
"                    ",
"                    ",
"                    ",
"                    ",
"                    ",
"     .              ",
"     XoX            ",
"     XooO           ",
"      Oo            ",
"        O           ",
"        OO  O OOO   ",
"         OoOXOooO   ",
"         ooXXXooX   ",
"       OOXoXO+.o    ",
"       OOXOXO++     ",
"      OOXOOO O+     ",
"      Ooo.+O  OO    ",
"      Ooo. +O O     ",
"      O X  OOO      ",
"                    ",
"                    ",
"                    ",
"                    ",
"                    ",
"       .            ",
"       oX           ",
"      XoX           ",
"       XoO          ",
"       OO           ",
"         O          ",
"         O          ",
"         O oOOOOO   ",
"         ooXXOooO   ",
"       OOXoOOX.oo   ",
"      OOXOOXO+.oX   ",
"      OoX+OXO+      ",
"     Ooo.+O  O+     ",
"     OoXO.+O OO     ",
"          OO O      ",
"            O       ",
"                    ",
"                    ",
"                    ",
"                    ",
"        .           ",
"       XXoX         ",
"        XoX         ",
"        OoO         ",
"         O          ",
"         O          ",
"          O         ",
"          O OO      ",
"       OOoooOOOO    ",
"       OXXoXXXooO   ",
"     OOOOOXOO.ooO   ",
"    OooX+OXXO+.oX   ",
"     Ooo.+O O+      ",
"      XO +O OO      ",
"         OO O       ",
"          O O       ",
"                    ",
"                    ",
"                    ",
};
