/* XPM */
static char * C1_xpm_plain[] = {
/* width height colors chars_per_colors */
"20  640 7 1"
/* colors */
" 	c None",
".	c #787800000000",
"X	c #C8C800000000",
"o	c #FFFF00000000",
"O	c #A0A000000000",
"+	c #787800000000",
"@	c #787800000000",
/* pixels */
"                    ",
"          .         ",
"         .X.        ",
"         XoX        ",
"         OXO        ",
"          O         ",
"          O         ",
"   .      O      .  ",
"   +      O      +  ",
"   +      O      +  ",
"   +OOOOXXOXXOOOO+  ",
"   .OOOOXXXXXOOOO.  ",
"   .  OOXXoXXOO  .  ",
"        OXoXO       ",
"         OoO        ",
"         XoX        ",
"         OoO        ",
"         X@X        ",
"         . .        ",
"                    ",
"                    ",
"            .       ",
"          .XX       ",
"          XoX       ",
"          OXO       ",
"           O        ",
"    .      O        ",
"   +      OO        ",
"   +      O      .  ",
"   +OOO   O      +  ",
"   .OOOOXXOXX    +  ",
"   .  OOXXXXXOOOO+  ",
"       XXXoXXOOOO+  ",
"       OXoXOOO  .   ",
"        OoO         ",
"        XoX         ",
"        OoO         ",
"       XX@X         ",
"       . .          ",
"                    ",
"                    ",
"                    ",
"            ..      ",
"            XX.     ",
"           OoX      ",
"    .       XO      ",
"    +      OO       ",
"   ++      O        ",
"   .OO     O        ",
"   .OOOOX O         ",
"     OOOXXO      .  ",
"      OXXXXXXO   +  ",
"       OXoXXOOOO +  ",
"       OXoXXOOOO+   ",
"       XoOO  O  .   ",
"       OoX     .    ",
"      XoO           ",
"      .@X           ",
"        .           ",
"                    ",
"                    ",
"                    ",
"                    ",
"             .X.    ",
"     .      OXX.    ",
"     +      OXX     ",
"    +       OOO     ",
"   .OO      O       ",
"   .OOOO   O        ",
"      OOX OO        ",
"     OOXXXO         ",
"       XXXXX     .  ",
"       XooXXOO   .  ",
"      OOoXXOOOO +   ",
"      XoO OOOOO++   ",
"     XooX      .    ",
"    .X@O      .     ",
"      .             ",
"                    ",
"                    ",
"                    ",
"                    ",
"                    ",
"       .            ",
"      +       .X.   ",
"     +       OoX.   ",
"    .OO      OXX    ",
"   . OOO    OO      ",
"      OOO  OO       ",
"     OOOXXOO        ",
"      OXXOO         ",
"      OXoXX         ",
"      OooXXX        ",
"     XooXXXOO   ..  ",
"    XooO OOOOO ++   ",
"   .@@O    O O++    ",
"     X       ..     ",
"             .      ",
"                    ",
"                    ",
"                    ",
"                    ",
"                    ",
"       +.           ",
"      +             ",
"    ..O        ...  ",
"     OOO      OoX   ",
"      OO      XXX   ",
"     OOOO   OO O    ",
"      OXXX OO       ",
"      OXXOO         ",
"      XXoXX         ",
"    XXooXXXX        ",
"   XOooOOXOO        ",
"  .@@OX OOOOO   .   ",
"    X     OOOO++    ",
"            O++     ",
"           ..       ",
"                    ",
"                    ",
"                    ",
"                    ",
"                    ",
"       ++.          ",
"     ..+            ",
"      OO            ",
"      OOO       .   ",
"      OOO     OXoX. ",
"      OOX     OXX.  ",
"      OXXX OOO O    ",
"      XXXOO         ",
"    XOooXXX         ",
" .XOoooXXXX         ",
"   @OXOOXOO         ",
"  .X     OOO        ",
"         OOO   .    ",
"           OO++     ",
"          ..+       ",
"                    ",
"                    ",
"                    ",
"                    ",
"                    ",
"       .+++.        ",
"      .OO           ",
"       OO           ",
"       OO           ",
"      OOOO       .  ",
"       XXX     OX.. ",
"      OXXX   OOXoX  ",
"  XOXOXoXOOOO  OX.  ",
" .@oooooXX          ",
"  @OXOXXXX          ",
"  .    OOOO         ",
"        OOO         ",
"         OO         ",
"         OO  .      ",
"        ..+++       ",
"                    ",
"                    ",
"                    ",
"                    ",
"                    ",
"       ..+++.       ",
"        OO          ",
"        OO          ",
"       OOO          ",
"       OOO          ",
"      OXXX          ",
" .XOXOXXXX     OX.  ",
"  @oooooXOOOOOOXoX. ",
" .XOXOXXXX     OX.  ",
"      OXXX          ",
"       OOO          ",
"       OOO          ",
"        OO          ",
"        OO          ",
"       ..+++.       ",
"                    ",
"                    ",
"                    ",
"                    ",
"                    ",
"        ..+++       ",
"         OO  .      ",
"         OO         ",
"        OOO         ",
" .X   OXOO          ",
"  XOXOXXXX          ",
" .@ooooXXX          ",
"  XOXOXoXOOOO  OX.  ",
"      OXXX  OOOXoX  ",
"      OXXX     OXX. ",
"      OOO           ",
"       OO           ",
"       OO           ",
"      .OO           ",
"       ++++.        ",
"                    ",
"                    ",
"                    ",
"                    ",
"                    ",
"          ..+       ",
"          OO++.     ",
"         OOO        ",
"  .X    OOO         ",
"  @oOXOOXOO         ",
" .XOooXXXXX         ",
"    XOooXX          ",
"     OXXXOO         ",
"      XXX  OOO O    ",
"      OOX    OXoX.  ",
"     OOOO     OXX.  ",
"      OO        .   ",
"    . OO            ",
"     .+             ",
"       ++.          ",
"                    ",
"                    ",
"                    ",
"                    ",
"                    ",
"           ..       ",
"   .       OO+      ",
"   XX    O OO +.    ",
"  .@oXO  OOO        ",
"   OooOXXXOO        ",
"    XOooXXX         ",
"      XoXX          ",
"     OXXXOO         ",
"     OOXX OO        ",
"     OOO    OOOO    ",
"     OOO     OXX.   ",
"   . OO      OXXX   ",
"    .+         ..   ",
"     ++             ",
"       ..           ",
"                    ",
"                    ",
"                    ",
"                    ",
"                    ",
"    .       .       ",
"    @X       .      ",
"   X@oX   O OO+     ",
"    OooOOOOOOO +    ",
"     OooXXOOO   .   ",
"      XooXXO        ",
"     OXXXOX         ",
"     OXXXO          ",
"    OOOX  O         ",
"     OO    O        ",
"  ..OO      O O     ",
"   .+        XX.    ",
"    ++       XX.    ",
"     +.       ..    ",
"      .             ",
"                    ",
"                    ",
"                    ",
"                    ",
"     .              ",
"     @X             ",
"    X@OX      .     ",
"     OoX   O O.     ",
"     XooXOOOOOO+    ",
"      OoXXXOOO  +   ",
"     OOXoXXO    .   ",
"     OXXXOX         ",
"    OOOXXO          ",
"  . OOOX  O         ",
"  .OOO    OO        ",
"   +O      O        ",
"   ++       XO      ",
"    +      OXo.     ",
"     .      XX.     ",
"              .     ",
"                    ",
"                    ",
"                    ",
"       .            ",
"     . X            ",
"     X@O            ",
"      OoX           ",
"      XoO      .    ",
"      OooXOOOOO.    ",
"      OXoXXOOOO++   ",
"      XXXXXXOO  +   ",
"    OOOXXOX     .   ",
"  . OOOXXO          ",
"  .OOO    O         ",
"  +O      O         ",
"   +      O         ",
"   +       OO       ",
"    .     OXX       ",
"           Xo.      ",
"           .X       ",
"            .       ",
"                    ",
"                    ",
"        .           ",
"      .@@X          ",
"       OoO          ",
"       XoX          ",
"       OoO          ",
"       XoXO O  .    ",
"      OXooXXOOOO.   ",
"  .  OOXXXXXOOOO+   ",
"  .OOOOXXOXXO   +   ",
"  +OOOO  O      +   ",
"  +      O      .   ",
"  +      O          ",
"   .      O         ",
"          O         ",
"         OXO        ",
"         XoX        ",
"         .X..       ",
"           .        ",
"                    ",
"                    ",
"        . .         ",
"        X@X         ",
"        OoO         ",
"        XoX         ",
"        OoO         ",
"       OXoXO        ",
"  .  OOXXoXXOO  .   ",
"  .OOOOXXXXXOOOO.   ",
"  +OOOOXXOXXOOOO+   ",
"  +      O      +   ",
"  +      O      +   ",
"  .      O      .   ",
"         O          ",
"         O          ",
"        OXO         ",
"        XoX         ",
"        .X.         ",
"         .          ",
"                    ",
"                    ",
"          . .       ",
"         X@XX       ",
"         OoO        ",
"         XoX        ",
"         OoO        ",
"   .  OOOXoXO       ",
"  +OOOOXXoXXX       ",
"  +OOOOXXXXXOO  .   ",
"  +    XXOXXOOOO.   ",
"  +      O   OOO+   ",
"  .      O      +   ",
"        OO      +   ",
"        O      .    ",
"        O           ",
"       OXO          ",
"       XoX          ",
"       XX.          ",
"       .            ",
"                    ",
"                    ",
"           .        ",
"           X@.      ",
"           OoX      ",
"    .     XoO       ",
"   .  O  OOoX       ",
"   +OOOOXXoXO       ",
"  + OOOOXXoXO       ",
"  +   OXXXXXXO      ",
"  .      OXXOOO     ",
"         O XOOOO.   ",
"        O     OO.   ",
"        O      ++   ",
"       OO      +    ",
"      OX       .    ",
"      XoO           ",
"     .XX            ",
"      ..            ",
"                    ",
"                    ",
"                    ",
"                    ",
"             .      ",
"     .      O@X.    ",
"    .      XooX     ",
"   ++OOOOO OoX      ",
"   + OOOOXXoOO      ",
"  .   OOXXooX       ",
"  .     XXXXX       ",
"         OXXXOO     ",
"        OO XOO      ",
"        O   OOOO.   ",
"       O      OO.   ",
"     OOO       +    ",
"     XXO      +     ",
"    .XXO      .     ",
"    .X.             ",
"                    ",
"                    ",
"                    ",
"                    ",
"                    ",
"      .             ",
"     ..       X     ",
"    ++O O    O@@.   ",
"   ++ OOOOO OooX    ",
"  ..   OOXXXooX     ",
"        XXXooO      ",
"         XXoXO      ",
"         OOXXO      ",
"        O XXOOO     ",
"       O   OOO      ",
"      O     OOO .   ",
"    XX       OO.    ",
"   .XXO       +     ",
"   ...       +      ",
"            .       ",
"                    ",
"                    ",
"                    ",
"                    ",
"                    ",
"       ..           ",
"     ++O            ",
"    ++OOOO     X    ",
"   .   OOOOO XO@@.  ",
"        OOXOOooOX   ",
"        XXXXooXX    ",
"         XXoXX      ",
"         OOXXO      ",
"       OO XXXO      ",
"    O OO   OOOO     ",
"   XXX      OO      ",
"   XoO      OOO     ",
"  ...        O..    ",
"             +      ",
"           .+       ",
"                    ",
"                    ",
"                    ",
"                    ",
"                    ",
"       +..          ",
"     ++OO           ",
"    .   OOO         ",
"        OOO     X.  ",
"         OOXOOXO@   ",
"         XXXXoooOX. ",
"         XXXooOX    ",
"         OOXXX      ",
"    O OOO XXXO      ",
"  .XXO     XOO      ",
" .XoXO     OOO      ",
"   .       OOO      ",
"            OO      ",
"            +..     ",
"          .++       ",
"                    ",
"                    ",
"                    ",
"                    ",
"                    ",
"       +++..        ",
"      .  OO         ",
"         OO         ",
"         OOO        ",
"         OOOO    .  ",
"          XXXXOXO@  ",
"          XXooooo@. ",
"  .XO  OOOOXoXOXOX  ",
"  XoXOO   XXXO      ",
" ..XO     XXX       ",
"  .       OOOO      ",
"           OO       ",
"           OO       ",
"           OO.      ",
"        .+++.       ",
"                    ",
"                    ",
"                    ",
"                    ",
"                    ",
"       .+++..       ",
"          OO        ",
"          OO        ",
"          OOO       ",
"          OOO       ",
"          XXXO      ",
"  .XO     XXXXOXOX. ",
" .XoXOOOOOOXooooo@  ",
"  .XO     XXXXOXOX. ",
"          XXXO      ",
"          OOO       ",
"          OOO       ",
"          OO        ",
"          OO        ",
"       .+++..       ",
"                    ",
"                    ",
"                    ",
"                    ",
"                    ",
"        .++++       ",
"           OO.      ",
"           OO       ",
"           OO       ",
"           OOO      ",
" .XXO     XXXO      ",
"  XoXOOO  XXXO      ",
"  .XO  OOOOXoXOXOX  ",
"          XXXoooo@. ",
"          XXXXOXOX  ",
"          OOXO   X. ",
"         OOO        ",
"         OO         ",
"      .  OO         ",
"       +++..        ",
"                    ",
"                    ",
"                    ",
"                    ",
"                    ",
"          .++       ",
"             +.     ",
"            OO .    ",
"   .        OO      ",
"  .XXO     OOOO     ",
"  .XoXO    XOO      ",
"    O OOO  XXX      ",
"         OOXXXO     ",
"          XXooOX    ",
"         XXXXXooOX. ",
"         OOXOOXOo@  ",
"         OOO    X.  ",
"        OOO         ",
"     .++OO          ",
"       +..          ",
"                    ",
"                    ",
"                    ",
"                    ",
"                    ",
"           ..       ",
"             ++     ",
"   ..         +.    ",
"   XXXO      OO .   ",
"   .XXO     OOO     ",
"    OOOO    OOO     ",
"        OO XXOO     ",
"         OOXXXO     ",
"          XXoX      ",
"         XXXooOX    ",
"        OOXXXOooO   ",
"        OOO  OXo@.  ",
"    .+ OO O    XX   ",
"      +OO       .   ",
"       ..           ",
"                    ",
"                    ",
"                    ",
"                    ",
"                    ",
"             .      ",
"    ..       .+     ",
"    .XX       ++    ",
"    .XX        +.   ",
"     O O      OO..  ",
"        O    OO     ",
"         O  XOOO    ",
"          OXXXO     ",
"         XOXXXO     ",
"        OXXooX      ",
"   .   OOOXXooO     ",
"    + OOOOOOOooO    ",
"     +OO O   Xo@X   ",
"      .       X@    ",
"       .       .    ",
"                    ",
"                    ",
"                    ",
"                    ",
"                    ",
"     .              ",
"     .XX      .     ",
"     .oXO      +    ",
"      OX       ++   ",
"        O      O+   ",
"        OO    OOO.  ",
"         O  XOOO .  ",
"          OXXOOO    ",
"         XOXXXO     ",
"   .    OXXoXOO     ",
"   +  OOOXXXoO      ",
"    +OOOOOOXooX     ",
"     .O O   XoO     ",
"     .      XO@X    ",
"             X@     ",
"              .     ",
"                    ",
"                    ",
"                    ",
"       .            ",
"       X.           ",
"      .oX           ",
"       XXO     .    ",
"       OO       +   ",
"         O      +   ",
"         O      O+  ",
"         O    OOO.  ",
"          OXXOOO .  ",
"   .     XOXXOOO    ",
"   +  OOXXXXXX      ",
"   ++OOOOXXoXO      ",
"    .OOOOOXooO      ",
"    .      OoX      ",
"           XoO      ",
"            O@X     ",
"            X .     ",
"            .       ",
"                    ",
"                    ",
"        .           ",
"       ..X.         ",
"        XoX         ",
"        OXO         ",
"         O          ",
"         O      .   ",
"          O      +  ",
"   .      O      +  ",
"   +      O  OOOO+  ",
"   +   OXXOXXOOOO.  ",
"   +OOOOXXXXXOO  .  ",
"   .OOOOXXooXO      ",
"    .  O OXoX       ",
"          OoO       ",
"          XoX       ",
"          OoO       ",
"          X@@.      ",
"           .        ",
"                    ",
};
