/* XPM */
static char *ga0[] = {
/* width height ncolors chars_per_pixel */
"20  640 5 1"
/* colors */
"  c #000000",
": c #7b947b",
"% c #a5c6a5",
"@ c #c0dcc0",
"x c #ff0000",
/* pixels */
"                    ",
"        ::::        ",
"       :%@@%:       ",
"       :%@@%:       ",
"        :%%:        ",
"    :x  ::::  x:    ",
"   :%%::::::::%%:   ",
"   :%%@%::::%%%%:   ",
"  :x%@@%%%%%%@@%x:  ",
"  xx@@@@@@@@@@@@xx  ",
"  xx@@@%@@@@%@@@xx  ",
"  :x@@::@@@@::@@x:  ",
"  :@@: :@@@@: :@@:  ",
"  :%%   @@@@   %%:  ",
"  ::    :@@:    ::  ",
"   :   :%%%%:   :   ",
"   @   %%  %%   @   ",
"       xx  xx       ",
"                    ",
"                    ",
"                    ",
"          :::       ",
"        :%@@@:      ",
"        :%@@%:      ",
"     :x  :%%::      ",
"    :%%: ::::       ",
"    :%%@:::::  x:   ",
"  xx%@@%:::::::%%:  ",
"  xx@@@@%%%%%%%%:   ",
"  xx@@@@@@@@@@@%x:  ",
"  :x@@:%@@@@%@@@xx  ",
"  :@@: :@@@@%@@@xx  ",
" :%%   @@@@@::@@xx  ",
"  :    @@@@  :@@:   ",
"  :   ::@@:   %%:   ",
"  @   %%%%%:   ::   ",
"      x%  %%   :    ",
"          xx   @    ",
"                    ",
"                    ",
"                    ",
"           ::       ",
"          :%@::     ",
"      :   :%@@%     ",
"     :%x  :%@%::    ",
"   ::%%%::::%:      ",
"   xx%@@%:::::      ",
"  xxx@@@%::::: x:   ",
"  :x@@@@@%%%:%:%%   ",
"  :@@@@%@@@%%@%%%:  ",
" :%@: ::@@@@@@@%:   ",
" ::%  :@@@@@%@@@x:  ",
" :     @@@@::@@xxx  ",
" @    :@@@@: @@xx   ",
"     :%%@:   :@@:   ",
"    x%% %%   %%:    ",
"     x  %%:   ::    ",
"        xx   : :    ",
"             @      ",
"                    ",
"                    ",
"                    ",
"           ::::     ",
"      ::x  :%@@:    ",
"    ::%%%  :%@@%    ",
"   xxx%%@: :%%%::   ",
"   xx@@@@%:::::     ",
"  :x@@@@%%::::      ",
" ::@@@@%@@%:::: x   ",
" :%%:::%@@@%%%%%::  ",
" :    :@@@@@@@%%%:  ",
" :     @@@@%@@@%:   ",
"      :@@@@:@@@@x   ",
"    :%@@@@: @@@xx   ",
"   x%%%%:   :@xxx   ",
"    x  %%   %@@:    ",
"       %%    %:     ",
"       xx   :::     ",
"            :       ",
"                    ",
"                    ",
"                    ",
"         :   :      ",
"     : :%xx ::%:    ",
"    xxx%%%   %@@:   ",
"   :xx@@%@: :%@@%   ",
"  ::x@@@@%%:::%%::  ",
" ::@@@@@@%::::: :   ",
" ::%:::%%@%:::      ",
" :    ::@@@%:%: x   ",
"      :@@@@@%%%%x:  ",
"      @@@@@@@@%%%   ",
"   %::@@@@:%@@@%:   ",
"  xx%%@@@:::@@@x    ",
"   x  %:   :@@xx:   ",
"      %:   :@xxx    ",
"     xx%   %@::     ",
"      x    :::      ",
"          :::       ",
"                    ",
"                    ",
"                    ",
"         ::         ",
"     xxx:%:x  :     ",
"    :xx@%%%   :%:   ",
"  ::@x@@@%@: :%@@:  ",
"  :%@@@@@@%:::%@@:  ",
" :: %:@@@@%:::%%%:  ",
"       :%@%:::::::  ",
"      :@@@@%::      ",
"      @@@@@@%%:     ",
"  x%%:@@@@@@%%%%x   ",
"  x%%%@@@@%%@@%%:   ",
"     %@: ::@@@%%:   ",
"     %%   :@@@x:    ",
"    x%:   :@@xx:    ",
"     x    %@xxx     ",
"          %::       ",
"        ::::        ",
"                    ",
"                    ",
"                    ",
"       x: :         ",
"     :xxx:%%:       ",
"  :::@xx@%%%x  :    ",
"   :%@@@@@@:   :%:  ",
" @: %:@@@@@%:::%@:  ",
"       :%@%:::%@@@: ",
"      ::@@%%:::%%%: ",
"   :  @@@@@%::::::  ",
"  x%%:@@@@@%:::     ",
"  x%%@@@@@@@%%:     ",
"     %@@@:%@@%%x    ",
"    %%: ::@@@@%%:   ",
"   x%:    @@@%%:    ",
"    x    :@@xx:     ",
"        %@@xxx:     ",
"        :%::x       ",
"      @:::          ",
"                    ",
"                    ",
"                    ",
"       xxx: :       ",
"    :::xxxx:%:      ",
"  @::%@@@@%%%x      ",
"     %@@@@@%:       ",
"      ::@@@@:  :::  ",
"       :%%@%::::%@: ",
"  x%:  @@@@%:::%@@: ",
"  x%%:@@@@@%:::%@@: ",
"    %@@@@@@%::::%%  ",
"    %@@@@@@%::  ::  ",
"   %%:@@:%@@%%:     ",
"   x%:   :@@@%%x    ",
"        :@@@@%%:    ",
"        @@@@%::     ",
"       %@xxxx       ",
"    @::%::xxx       ",
"       :            ",
"                    ",
"                    ",
"                    ",
"     ::::xx:        ",
"   @::%@xxxx::      ",
"      %@@@@%%%:     ",
"       :@@@@%%x     ",
"        :@@@@:      ",
"  x%:  ::%@%%:  ::  ",
"  x%%:@@@@@%::::%%: ",
"    %@@@@@@%:::%@@: ",
"    %@@@@@@%:::%@@: ",
"  x%%:@@@@@%::::%%: ",
"  x%:  ::%@%%:  ::  ",
"        :@@@%:      ",
"       :@@@@%%x     ",
"      %@@@@%%%:     ",
"   @::%@xxxx::      ",
"     ::::xx:        ",
"                    ",
"                    ",
"                    ",
"       :            ",
"    @::%::xxx       ",
"       %@xxxx       ",
"        @@@@%::     ",
"        :@@@@%%:    ",
"   x%:   :@@@%%x    ",
"   %%:@@:%@@%@:     ",
"    %@@@@@@%::  ::  ",
"    %@@@@@@%::::%%  ",
"  x%%:@@@@@%:::%@@: ",
"  x%:  @@@@%:::%@@: ",
"       :%%@%::::%@: ",
"      ::@@@%:  :::  ",
"     %@@@@@%:       ",
"  @::%@@@@%%%x      ",
"    :::xxxx:%:      ",
"       xxx: :       ",
"                    ",
"                    ",
"                    ",
"      @:::          ",
"        :%::x       ",
"        %@@xxx:     ",
"    x    :@@xx:     ",
"   x%:    @@@%%:    ",
"    %%: ::@@@@%%:   ",
"     %@@@:%@@@%x    ",
"  x%%@@@@@@@%%:     ",
"  x%%:@@@@@%:::     ",
"   :  @@@@@%::::::  ",
"      ::@@%%:::%%%: ",
"       :%@%:::%@@@: ",
" @: %:@@@@@%:::%@:  ",
"   :%@@@@@%:   :%:  ",
"  :::@xx@%%%x  :    ",
"     :xxx:%%:       ",
"       x: :         ",
"                    ",
"                    ",
"                    ",
"        ::::        ",
"          %::       ",
"     x    %@xxx     ",
"    x%:   :@@xx:    ",
"     %%   :@@@x:    ",
"     %@: ::@@@%%:   ",
"  x%%%@@@@%%@@%%:   ",
"  x%%:@@@@@@%@@%x   ",
"      @@@@@@%%:     ",
"      :@@@@%::      ",
"       :%@%:::::::  ",
" :: %:@@@@%:::%%%:  ",
"  :%@@@@@@%:::%@@:  ",
"  ::@x@@@%%: :%@@:  ",
"    :xx@%%%   :%:   ",
"     xxx:%:x  :     ",
"         ::         ",
"                    ",
"                    ",
"                    ",
"          :::       ",
"      x    :::      ",
"     xx%   %@::     ",
"      %:   :@xxx    ",
"   x  %:   :@@xx:   ",
"  xx%%@@@:::@@@x    ",
"   %::@@@@:%@@@%:   ",
"      @@@@@%@@%%%   ",
"      :@@@@@%%@%x:  ",
" :    ::@@@%:%: x   ",
" ::%:::%@@%:::      ",
" ::@@@@@@%::::: :   ",
"  ::x@@@@%%:::%%::  ",
"   :xx@@%%: :%@@%   ",
"    xxx%%%   %@@:   ",
"     : :%xx ::%:    ",
"         :   :      ",
"                    ",
"                    ",
"                    ",
"            :       ",
"       xx   :::     ",
"       %%    %:     ",
"    x  %%   %@@:    ",
"   x%%%%:   :@xxx   ",
"    :%@@@@: @@@xx   ",
"      :@@@@:@@@@x   ",
" :     @@@@%@@@%:   ",
" :    :@@@@@@@%%%:  ",
" :%%:::%@@@%%%@%::  ",
" ::@@@@%@@%:::: x   ",
"  :x@@@@%%::::      ",
"   xx@@@%%:::::     ",
"   xxx%%%: :%%%::   ",
"    ::%%%  :%@@%    ",
"      ::x  :%@@:    ",
"           ::::     ",
"                    ",
"                    ",
"                    ",
"             @      ",
"        xx   : :    ",
"     x  %%:   ::    ",
"    x%% %%   %%:    ",
"     :%%@:   :@@:   ",
" @    :@@@@: @@xx   ",
" :     @@@@::@@xxx  ",
" ::%  :@@@@@%@@@x:  ",
" :%@: ::@@@@@@@%:   ",
"  :@@@@%@@@%%@@%%:  ",
"  :x@@@@@%%%:%:%%   ",
"  xxx@@@%::::: x:   ",
"   xx%@%%:::::      ",
"   ::%%%::::%:      ",
"     :%x  :%@%::    ",
"      :   :%@@%     ",
"          :%@::     ",
"           ::       ",
"                    ",
"                    ",
"                    ",
"          xx   @    ",
"      x%  %%   :    ",
"  @   %%%%%:   ::   ",
"  :   ::@@:   %%:   ",
"  :    @@@@  :@@:   ",
" :%%   @@@@@::@@xx  ",
"  :@@: :@@@@%@@@xx  ",
"  :x@@:%@@@@%@@@xx  ",
"  xx@@@@@@@@@@@%x:  ",
"  xx@@@@%%%%%@%%:   ",
"  xx%@@%:::::::%%:  ",
"    :%%%:::::  x:   ",
"    :%%: ::::       ",
"     :x  :%%::      ",
"        :%@@%:      ",
"        :%@@@:      ",
"          :::       ",
"                    ",
"                    ",
"                    ",
"       xx  xx       ",
"   @   %%  %%   @   ",
"   :   :%%%%:   :   ",
"  ::    :@@:    ::  ",
"  :%%   @@@@   %%:  ",
"  :@@: :@@@@: :@@:  ",
"  :x@@::@@@@::@@x:  ",
"  xx@@@%@@@@%@@@xx  ",
"  xx@@@@@@@@@@@@xx  ",
"  :x%@@%%%%%%@@%x:  ",
"   :%%%%::::%@%%:   ",
"   :%%::::::::%%:   ",
"    :x  ::::  x:    ",
"        :%%:        ",
"       :%@@%:       ",
"       :%@@%:       ",
"        ::::        ",
"                    ",
"                    ",
"                    ",
"    @   xx          ",
"    :   %%  %x      ",
"   ::   :%%%%%   @  ",
"   :%%   :@@::   :  ",
"   :@@:  @@@@    :  ",
"  xx@@::@@@@@   %%: ",
"  xx@@@%@@@@: :@@:  ",
"  xx@@@%@@@@%:@@x:  ",
"  :x%@@@@@@@@@@@xx  ",
"   :%%%%%%%%@@@@xx  ",
"  :%%:::::::%@@%xx  ",
"   :x  :::::@%%:    ",
"       :::: :%%:    ",
"      ::%%:  x:     ",
"      :%@@%:        ",
"      :@@@%:        ",
"       :::          ",
"                    ",
"                    ",
"      @             ",
"    : :   xx        ",
"    ::   :%%  x     ",
"    :%%   %% %%x    ",
"   :@@:   :@%%:     ",
"   xx@@ :@@@@:    @ ",
"  xxx@@::@@@@     : ",
"  :x@@@%@@@@@:  %:: ",
"   :%@@@@@@@:: :@%: ",
"  :%%%@%%@@@%@@@@:  ",
"   %%:%:%%%@@@@@x:  ",
"   :x :::::%@@@xxx  ",
"      :::::%@@%xx   ",
"      :%::::%%%::   ",
"    ::%@%:  x%:     ",
"     %@@%:   :      ",
"     ::@%:          ",
"       ::           ",
"                    ",
"                    ",
"       :            ",
"     :::   xx       ",
"     :%    %%       ",
"    :@@%   %%  x    ",
"   xxx@:   :%%%%x   ",
"   xx@@@ :@@@@%:    ",
"   x@@@@:@@@@:      ",
"   :%@@@%@@@@     : ",
"  :%%%@@@@@@@:    : ",
"  ::%%%%%@@@%:::%%: ",
"   x ::::%@@%@@@@:: ",
"      ::::%%@@@@x:  ",
"     :::::%@@@@xx   ",
"   ::%%%: :@%%xxx   ",
"    %@@%:  %%%::    ",
"    :@@%:  x::      ",
"     ::::           ",
"                    ",
"                    ",
"                    ",
"       :::          ",
"      :::    x      ",
"     ::@%   %xx     ",
"    xxx@:   :%      ",
"   :xx@@:   :%  x   ",
"    x@@@:::@@@%%xx  ",
"   :%@@@%:@@@@::%   ",
"   %%%@@@@@@@@      ",
"  :x%%%%@@@@@:      ",
"   x :%:%@@@::    : ",
"      :::%@%%:::%:: ",
"   : :::::%@@@@@@:: ",
"  ::%%:::%%@@@@x::  ",
"   %@@%: :@%@@xx:   ",
"   :@@%   %%%xxx    ",
"    :%:: xx%: :     ",
"      :   :         ",
"                    ",
"                    ",
"                    ",
"        ::::        ",
"       ::%          ",
"     xxx@%    x     ",
"    :xx@@:   :%x    ",
"    :x@@@:   %%     ",
"   :%%@@@:: :@%     ",
"   :%%@@%%@@@@%%%x  ",
"   x%%%%@@@@@@:%%x  ",
"     :%%@@@@@@      ",
"      ::%@@@@:      ",
"  :::::::%@%:       ",
"  :%%%:::%@@@@:% :: ",
"  :@@%:::%@@@@@@%:  ",
"  :@@%: :@%@@@x@::  ",
"   :%:   %%%@xx:    ",
"     :  x:%:xxx     ",
"         ::         ",
"                    ",
"                    ",
"                    ",
"          :::@      ",
"       x::%:        ",
"     :xxx@@%        ",
"     :xx@@:    x    ",
"    :%%@@@    :%x   ",
"   :%%@@@@:: :%%    ",
"    x%%@@%:@@@%     ",
"     :%%@@@@@@@%%x  ",
"     :::%@@@@@:%%x  ",
"  ::::::%@@@@@  :   ",
" :%%%:::%%@@::      ",
" :@@@%:::%@%:       ",
"  :@%:::%@@@@@:% :@ ",
"  :%:   :@@@@@@%:   ",
"    :  x%%%@xx@:::  ",
"       :%%:xxx:     ",
"         : :x       ",
"                    ",
"                    ",
"                    ",
"            :       ",
"       xxx::%::@    ",
"       xxxx@%       ",
"     ::%@@@@        ",
"    :%%@@@@:        ",
"    x%%@@@:   :%x   ",
"     :%%@@%:@@:%%   ",
"  ::  ::%@@@@@@%    ",
"  %%::::%@@@@@@%    ",
" :@@%:::%@@@@@:%%x  ",
" :@@%:::%@@@@  :%x  ",
" :@%::::%@%%:       ",
"  :::  :@@@@::      ",
"       :%@@@@@%     ",
"      x%%%@@@@%::@  ",
"      :%:xxxx:::    ",
"       : :xxx       ",
"                    ",
"                    ",
"                    ",
"                    ",
"        :xx::::     ",
"      ::xxxx@%::@   ",
"     :%%%@@@@%      ",
"     x%%@@@@:       ",
"      :%@@@:        ",
"  ::  :%%@%::  :%x  ",
" :%%::::%@@@@@:%%x  ",
" :@@%:::%@@@@@@%    ",
" :@@%:::%@@@@@@%    ",
" :%%::::%@@@@@:%%x  ",
"  ::  :%%@%::  :%x  ",
"      :@@@@:        ",
"     x%%@@@@:       ",
"     :%%%@@@@%      ",
"      ::xxxx@%::@   ",
"        :xx::::     ",
"                    ",
"                    ",
"                    ",
"                    ",
"       : :xxx       ",
"      :%:xxxx:::    ",
"      x%%%@@@@%::@  ",
"       :%@@@@@%     ",
"  :::  :%@@@::      ",
" :@%::::%@%%:       ",
" :@@%:::%@@@@  :%x  ",
" :@@%:::%@@@@@:%%x  ",
"  %%::::%@@@@@@%    ",
"  ::  ::%@@@@@@%    ",
"     :@%@@%:@@:%%   ",
"    x%%@@@:   :%x   ",
"    :%%@@@@:        ",
"     ::%@@@@        ",
"       xxxx@%       ",
"       xxx::%::@    ",
"            :       ",
"                    ",
"                    ",
"                    ",
"         : :x       ",
"       :%%:xxx:     ",
"    :  x%%%@xx@:::  ",
"  :%:   :%@@@@@%:   ",
"  :@%:::%@@@@@:% :@ ",
" :@@@%:::%@%:       ",
" :%%%:::%%@@::      ",
"  ::::::%@@@@@  :   ",
"     :::%@@@@@:%%x  ",
"     :%%@@@@@@@%%x  ",
"    x%@@@%:@@@%     ",
"   :%%@@@@:: :%%    ",
"    :%%@@@    :%x   ",
"     :xx@@:    x    ",
"     :xxx@@%        ",
"       x::%:        ",
"          :::@      ",
"                    ",
"                    ",
"                    ",
"         ::         ",
"     :  x:%:xxx     ",
"   :%:   %%%@xx:    ",
"  :@@%: :%%@@@x@::  ",
"  :@@%:::%@@@@@@%:  ",
"  :%%%:::%@@@@:% :: ",
"  :::::::%@%:       ",
"      ::%@@@@:      ",
"     :%%@@@@@@      ",
"   x%@@%@@@@@@:%%x  ",
"   :%%@@%%@@@@%%%x  ",
"   :%%@@@:: :@%     ",
"    :x@@@:   %%     ",
"    :xx@@:   :%x    ",
"     xxx@%    x     ",
"       ::%          ",
"        ::::        ",
"                    ",
"                    ",
"                    ",
"      :   :         ",
"    :%:: xx%: :     ",
"   :@@%   %%%xxx    ",
"   %@@%: :%%@@xx:   ",
"  ::%%:::%%@@@@x::  ",
"   : :::::%@@@@@@:: ",
"      :::%@@%:::%:: ",
"   x :%:%@@@::    : ",
"  :x%@%%@@@@@:      ",
"   %%%@@%@@@@@      ",
"   :%@@@%:@@@@::%   ",
"    x@@@:::@@@%%xx  ",
"   :xx@@:   :%  x   ",
"    xxx@:   :%      ",
"     ::@%   %xx     ",
"      :::    x      ",
"       :::          ",
"                    ",
"                    ",
"                    ",
"     ::::           ",
"    :@@%:  x::      ",
"    %@@%:  %%%::    ",
"   ::%%%: :%%%xxx   ",
"     :::::%%@@@xx   ",
"      ::::%%@@@@x:  ",
"   x ::::%@@%@@@@:: ",
"  ::%@%%%@@@%:::%%: ",
"  :%%%@@@@@@@:    : ",
"   :%@@@%@@@@     : ",
"   x@@@@:@@@@:      ",
"   xx@@@ :@@@@%:    ",
"   xxx@:   :%%%%x   ",
"    :@@%   %%  x    ",
"     :%    %%       ",
"     :::   xx       ",
"       :            ",
"                    ",
"                    ",
"       ::           ",
"     ::@%:          ",
"     %@@%:   :      ",
"    ::%@%:  x%:     ",
"      :%::::%%%::   ",
"      :::::%%@%xx   ",
"   :x :::::%@@@xxx  ",
"   %%:%:%%%@@@@@x:  ",
"  :%%@@%%@@@%@@@@:  ",
"   :%@@@@@@@:: :@%: ",
"  :x@@@%@@@@@:  %:: ",
"  xxx@@::@@@@     : ",
"   xx@@ :@@@@:    @ ",
"   :@@:   :@%%:     ",
"    :%%   %% %%x    ",
"    ::   :%%  x     ",
"    : :   xx        ",
"      @             ",
"                    ",
"                    ",
"       :::          ",
"      :@@@%:        ",
"      :%@@%:        ",
"      ::%%:  x:     ",
"       :::: :%%:    ",
"   :x  :::::%%%:    ",
"  :%%:::::::%@@%xx  ",
"   :%%@%%%%%@@@@xx  ",
"  :x%@@@@@@@@@@@xx  ",
"  xx@@@%@@@@%:@@x:  ",
"  xx@@@%@@@@: :@@:  ",
"  xx@@::@@@@@   %%: ",
"   :@@:  @@@@    :  ",
"   :%%   :@@::   :  ",
"   ::   :%%%%%   @  ",
"    :   %%  %x      ",
"    @   xx          ",
"                    ",
"                    ",
};
