/* XPM */
static char * C5_xpm[] = {
"20 320 7 1",
" 	c None",
".	c #A0A000000000",
"X	c #787800000000",
"o	c #C8C800000000",
"O	c #FFFF00000000",
"+	c #C8C800000000",
"@	c #787800000000",
"                    ",
"        ...X        ",
"      .ooo.o  ..    ",
"   X      .   Xo.   ",
"    oo.X  X  .oOo.  ",
"    o+o.  X  oOoX.  ",
"  . .o@@XXo XOo.    ",
"  o X.@++oo@@X      ",
" .o   X+oOOO@    oX ",
" .o   XoOOOOooXX... ",
" ...XXooOOOOoX   o. ",
" Xo    @OOOo+X   o. ",
"      X@@oo++@.X o  ",
"    .oOX oXX@@o. .  ",
"  .XoOo  X  .++o    ",
"  .oOo.  X  X.oo    ",
"   .oX   .      X   ",
"    ..  o.ooo.      ",
"        X...        ",
"                    ",
"                    ",
"        ...X        ",
"      .ooo.o  ..    ",
"   X      .   Xo.   ",
"    oo.X  X  .oOo.  ",
"    o+o.  X  oOoX.  ",
"  . .o@@XXo XOo.    ",
"  o X.@OOoo@@X      ",
" .o   XOoOOO@    oX ",
" .o   XoOOOOooXX... ",
" ...XXooOOOOoX   o. ",
" Xo    @OOOoOX   o. ",
"      X@@ooOo@.X o  ",
"    .oOX oXX@@o. .  ",
"  .XoOo  X  .o+o    ",
"  .oOo.  X  X.oo    ",
"   .oX   .      X   ",
"    ..  o.ooo.      ",
"        X...        ",
"                    ",
"                    ",
"        ...X        ",
"      .ooo.o  ..    ",
"   X      .   Xo.   ",
"    oo.X  X  .oOo.  ",
"    o+o.  X  oOoX.  ",
"  . .o@@XXo XOo.    ",
"  o X.@+Ooo@@X      ",
" .o   XOoOOO@    oX ",
" .o   XoOOOOooXX... ",
" ...XXooOOOOoX   o. ",
" Xo    @OOOoOX   o. ",
"      X@@ooOo@.X o  ",
"    .oOX oXX@@o. .  ",
"  .XoOo  X  .o+o    ",
"  .oOo.  X  X.oo    ",
"   .oX   .      X   ",
"    ..  o.ooo.      ",
"        X...        ",
"                    ",
"                    ",
"        ...X        ",
"      .ooo.o  ..    ",
"   X      .   Xo.   ",
"    oo.X  X  .oOo.  ",
"    o+o.  X  oOoX.  ",
"  . .o@@XXo XOo.    ",
"  o X.@OOoo@@X      ",
" .o   XOoOOO@    oX ",
" .o   XoOOOOooXX... ",
" ...XXooOOOOoX   o. ",
" Xo    @OOOoOX   o. ",
"      X@@ooOo@.X o  ",
"    .oOX oXX@@o. .  ",
"  .XoOo  X  .o+o    ",
"  .oOo.  X  X.oo    ",
"   .oX   .      X   ",
"    ..  o.ooo.      ",
"        X...        ",
"                    ",
"                    ",
"        ...X        ",
"      .ooo.o  ..    ",
"   X      .   Xo.   ",
"    oo.X  X  .oOo.  ",
"    o+o.  X  oOoX.  ",
"  . .o@@XXo XOo.    ",
"  o X.@OOoo@@X      ",
" .o   XOoOOO@    oX ",
" .o   XoOOOOooXX... ",
" ...XXooOOOOoX   o. ",
" Xo    @OOOoOX   o. ",
"      X@@ooOo@.X o  ",
"    .oOX oXX@@o. .  ",
"  .XoOo  X  .o+o    ",
"  .oOo.  X  X.oo    ",
"   .oX   .      X   ",
"    ..  o.ooo.      ",
"        X...        ",
"                    ",
"                    ",
"        ...X        ",
"      .ooo.o  ..    ",
"   X      .   Xo.   ",
"    oo.X  X  .oOo.  ",
"    o+o.  X  oOoX.  ",
"  . .o@@XXo XOo.    ",
"  o X.@OOoo@@X      ",
" .o   XOoOOO@    oX ",
" .o   XoOOOOooXX... ",
" ...XXooOOOOoX   o. ",
" Xo    @OOOoOX   o. ",
"      X@@ooOo@.X o  ",
"    .oOX oXX@@o. .  ",
"  .XoOo  X  .o+o    ",
"  .oOo.  X  X.oo    ",
"   .oX   .      X   ",
"    ..  o.ooo.      ",
"        X...        ",
"                    ",
"                    ",
"        ...X        ",
"      .ooo.o  ..    ",
"   X      .   Xo.   ",
"    oo.X  X  .oOo.  ",
"    o+o.  X  oOoX.  ",
"  . .o@@XXo XOo.    ",
"  o X.@OOoo@@X      ",
" .o   XOoOOO@    oX ",
" .o   XoOOOOooXX... ",
" ...XXooOOOOoX   o. ",
" Xo    @OOOoOX   o. ",
"      X@@ooOo@.X o  ",
"    .oOX oXX@@o. .  ",
"  .XoOo  X  .o+o    ",
"  .oOo.  X  X.oo    ",
"   .oX   .      X   ",
"    ..  o.ooo.      ",
"        X...        ",
"                    ",
"                    ",
"        ...X        ",
"      .ooo.o  ..    ",
"   X      .   Xo.   ",
"    oo.X  X  .oOo.  ",
"    o+o.  X  oOoX.  ",
"  . .o@@XXo XOo.    ",
"  o X.@OOoo@@X      ",
" .o   XOoOOO@    oX ",
" .o   XoOOOOooXX... ",
" ...XXooOOOOoX   o. ",
" Xo    @OOOoOX   o. ",
"      X@@ooOo@.X o  ",
"    .oOX oXX@@o. .  ",
"  .XoOo  X  .o+o    ",
"  .oOo.  X  X.oo    ",
"   .oX   .      X   ",
"    ..  o.ooo.      ",
"        X...        ",
"                    ",
"                    ",
"        ...X        ",
"      .ooo.o  ..    ",
"   X      .   Xo.   ",
"    oo.X  X  .oOo.  ",
"    o+o.  X  oOoX.  ",
"  . .o@@XXo XOo.    ",
"  o X.@OOoo@@X      ",
" .o   XOoOOO@    oX ",
" .o   XoOOOOooXX... ",
" ...XXooOOOOoX   o. ",
" Xo    @OOOoOX   o. ",
"      X@@ooOo@.X o  ",
"    .oOX oXX@@o. .  ",
"  .XoOo  X  .o+o    ",
"  .oOo.  X  X.oo    ",
"   .oX   .      X   ",
"    ..  o.ooo.      ",
"        X...        ",
"                    ",
"                    ",
"        ...X        ",
"      .ooo.o  ..    ",
"   X      .   Xo.   ",
"    oo.X  X  .oOo.  ",
"    o+o.  X  oOoX.  ",
"  . .o@@XXo XOo.    ",
"  o X.@OOoo@@X      ",
" .o   XOoOOO@    oX ",
" .o   XoOOOOooXX... ",
" ...XXooOOOOoX   o. ",
" Xo    @OOOoOX   o. ",
"      X@@ooOo@.X o  ",
"    .oOX oXX@@o. .  ",
"  .XoOo  X  .o+o    ",
"  .oOo.  X  X.oo    ",
"   .oX   .      X   ",
"    ..  o.ooo.      ",
"        X...        ",
"                    ",
"                    ",
"        ...X        ",
"      .ooo.o  ..    ",
"   X      .   Xo.   ",
"    oo.X  X  .oOo.  ",
"    o+o.  X  oOoX.  ",
"  . .o@@XXo XOo.    ",
"  o X.@OOoo@@X      ",
" .o   XOoOOO@    oX ",
" .o   XoOOOOooXX... ",
" ...XXooOOOOoX   o. ",
" Xo    @OOOoOX   o. ",
"      X@@ooOo@.X o  ",
"    .oOX oXX@@o. .  ",
"  .XoOo  X  .o+o    ",
"  .oOo.  X  X.oo    ",
"   .oX   .      X   ",
"    ..  o.ooo.      ",
"        X...        ",
"                    ",
"                    ",
"        ...X        ",
"      .ooo.o  ..    ",
"   X      .   Xo.   ",
"    oo.X  X  .oOo.  ",
"    o+o.  X  oOoX.  ",
"  . .o@@XXo XOo.    ",
"  o X.@OOoo@@X      ",
" .o   XOoOOO@    oX ",
" .o   XoOOOOooXX... ",
" ...XXooOOOOoX   o. ",
" Xo    @OOOoOX   o. ",
"      X@@ooOo@.X o  ",
"    .oOX oXX@@o. .  ",
"  .XoOo  X  .o+o    ",
"  .oOo.  X  X.oo    ",
"   .oX   .      X   ",
"    ..  o.ooo.      ",
"        X...        ",
"                    ",
"                    ",
"        ...X        ",
"      .ooo.o  ..    ",
"   X      .   Xo.   ",
"    oo.X  X  .oOo.  ",
"    o+o.  X  oOoX.  ",
"  . .o@@XXo XOo.    ",
"  o X.@OOoo@@X      ",
" .o   XOoOOO@    oX ",
" .o   XoOOOOooXX... ",
" ...XXooOOOOoX   o. ",
" Xo    @OOOoOX   o. ",
"      X@@ooOo@.X o  ",
"    .oOX oXX@@o. .  ",
"  .XoOo  X  .o+o    ",
"  .oOo.  X  X.oo    ",
"   .oX   .      X   ",
"    ..  o.ooo.      ",
"        X...        ",
"                    ",
"                    ",
"        ...X        ",
"      .ooo.o  ..    ",
"   X      .   Xo.   ",
"    oo.X  X  .oOo.  ",
"    o+o.  X  oOoX.  ",
"  . .o@@XXo XOo.    ",
"  o X.@OOoo@@X      ",
" .o   XOoOOO@    oX ",
" .o   XoOOOOooXX... ",
" ...XXooOOOOoX   o. ",
" Xo    @OOOoOX   o. ",
"      X@@ooOo@.X o  ",
"    .oOX oXX@@o. .  ",
"  .XoOo  X  .o+o    ",
"  .oOo.  X  X.oo    ",
"   .oX   .      X   ",
"    ..  o.ooo.      ",
"        X...        ",
"                    ",
"                    ",
"        ...X        ",
"      .ooo.o  ..    ",
"   X      .   Xo.   ",
"    oo.X  X  .oOo.  ",
"    o+o.  X  oOoX.  ",
"  . .o@@XXo XOo.    ",
"  o X.@OOoo@@X      ",
" .o   XOoOOO@    oX ",
" .o   XoOOOOooXX... ",
" ...XXooOOOOoX   o. ",
" Xo    @OOOoOX   o. ",
"      X@@ooOo@.X o  ",
"    .oOX oXX@@o. .  ",
"  .XoOo  X  .o+o    ",
"  .oOo.  X  X.oo    ",
"   .oX   .      X   ",
"    ..  o.ooo.      ",
"        X...        ",
"                    ",
"                    ",
"        ...X        ",
"      .ooo.o  ..    ",
"   X      .   Xo.   ",
"    oo.X  X  .oOo.  ",
"    ++o.  X  oOoX.  ",
"  . .o@@XXo XOo.    ",
"  o X.@OOoo@@X      ",
" .o   XOoOOO@    oX ",
" .o   XoOOOOooXX... ",
" ...XXooOOOOoX   o. ",
" Xo    @OOOoOX   o. ",
"      X@@ooOo@.X o  ",
"    .oOX oXX@@o. .  ",
"  .XoOo  X  .o+o    ",
"  .oOo.  X  X.oo    ",
"   .oX   .      X   ",
"    ..  o.ooo.      ",
"        X...        ",
"                    "};
