/* XPM */
static char * C0_xpm[] = {
/* width height colors chars_per_color */
"20  640 7 1"
/* colors */
" 	c None",
".	c #C8C800000000",
"X	c #FFFF00000000",
"o	c #787800000000",
"O	c #787800000000",
"+	c #A0A000000000",
"@	c #787800000000",
/* pixels */
"                    ",
"                    ",
"                    ",
"                    ",
"                    ",
"     .       .      ",
"     X       X      ",
"     X       X      ",
"     X   o   X      ",
"    .X  o.o  X.     ",
"    OX++.X.++XO     ",
"    OX++XXX++XO     ",
"    .X  @.@  X.     ",
"     X       X      ",
"     .       .      ",
"                    ",
"                    ",
"                    ",
"                    ",
"                    ",
"                    ",
"                    ",
"                    ",
"                    ",
"      .             ",
"      X             ",
"      X       .     ",
"     X        X     ",
"    .X   o   X      ",
"    OX+ o.o  X      ",
"    OX++.X.++X.     ",
"    .X +XXX++XO     ",
"    X  @..@ +XO     ",
"    .       X.      ",
"            X       ",
"            .       ",
"                    ",
"                    ",
"                    ",
"                    ",
"                    ",
"                    ",
"                    ",
"                    ",
"       .            ",
"      XX            ",
"      X             ",
"     .X       .     ",
"    OX  o o   X     ",
"    OX++..o  XX     ",
"   .X ++XX.  X      ",
"    X  @XX+++X.     ",
"    .   .@ +XO      ",
"            XO      ",
"           X .      ",
"           .        ",
"                    ",
"                    ",
"                    ",
"                    ",
"                    ",
"                    ",
"                    ",
"        .           ",
"        X           ",
"       X            ",
"     .XX            ",
"    OOX             ",
"    OX++ oo    .    ",
"    XX++..o   X     ",
"    X  XXX.  X      ",
"   .   @.X++ X      ",
"        @@++XO      ",
"           XOO      ",
"           X.       ",
"          .         ",
"                    ",
"                    ",
"                    ",
"                    ",
"                    ",
"                    ",
"                    ",
"         ..         ",
"        XX          ",
"      .XX           ",
"     OXX            ",
"    .XX+            ",
"    XX+++oo         ",
"   .X  +.Xo    .    ",
"   .   @X.o   X     ",
"       .@X+  X      ",
"        @ ++X.      ",
"           XO.      ",
"          X.O       ",
"         . .        ",
"                    ",
"                    ",
"                    ",
"                    ",
"                    ",
"                    ",
"                    ",
"           .        ",
"       . XX         ",
"      O.XX          ",
"    .OXX            ",
"     XX+            ",
"   .X  ++oo         ",
"       X.X.         ",
"       .X.o    .    ",
"       .@X+  XX     ",
"         +++X       ",
"          XX..      ",
"         X.O        ",
"        . .         ",
"                    ",
"                    ",
"                    ",
"                    ",
"                    ",
"                    ",
"                    ",
"                    ",
"        . XX.       ",
"     .OOXX          ",
"     XXX+           ",
"    .X ++           ",
"       +.o o        ",
"       @XX.         ",
"       .X.o         ",
"       @X++   X.    ",
"         ++ XX      ",
"         XXX.       ",
"       .XXOO        ",
"         .          ",
"                    ",
"                    ",
"                    ",
"                    ",
"                    ",
"                    ",
"                    ",
"                    ",
"       OO.  X.      ",
"      .XXXXX        ",
"    .XX++           ",
"       +++          ",
"       @X.o         ",
"       .XX.o        ",
"       @X.o         ",
"       @++          ",
"        ++   XX.    ",
"        XXXXX       ",
"      .X.OO.        ",
"                    ",
"                    ",
"                    ",
"                    ",
"                    ",
"                    ",
"                    ",
"                    ",
"                    ",
"       .OO.         ",
"     .XXXXXXXX.     ",
"        ++          ",
"        ++          ",
"       @X.o         ",
"       .XX.o        ",
"       @X.o         ",
"        ++          ",
"        ++          ",
"     .XXXXXXXX.     ",
"       .OO.         ",
"                    ",
"                    ",
"                    ",
"                    ",
"                    ",
"                    ",
"                    ",
"                    ",
"                    ",
"      .X.OO.        ",
"        XXXXX       ",
"         ++  XX.    ",
"       @++          ",
"       .X.o         ",
"       .XX.o        ",
"       @X.o         ",
"        ++          ",
"    .XX+++          ",
"      .XXXXX        ",
"       OO.  X.      ",
"                    ",
"                    ",
"                    ",
"                    ",
"                    ",
"                    ",
"                    ",
"                    ",
"         .          ",
"       .XXOO        ",
"          XX.       ",
"         ++ XXX     ",
"        @++   X.    ",
"       .XX.o        ",
"       @XX.         ",
"        +.oo        ",
"    .X ++           ",
"      XX+           ",
"     .OOXXX         ",
"        . XX.       ",
"                    ",
"                    ",
"                    ",
"                    ",
"                    ",
"                    ",
"                    ",
"                    ",
"        .           ",
"         XXOO       ",
"          XXO.      ",
"          ++XX      ",
"        @X++ XX     ",
"       @.X.    X.   ",
"       @XX.o        ",
"    .  ++.oo        ",
"     XX++           ",
"     .OX            ",
"      OOXX          ",
"          X         ",
"           .        ",
"                    ",
"                    ",
"                    ",
"                    ",
"                    ",
"                    ",
"                    ",
"         ..         ",
"          XX.       ",
"           XXO      ",
"           +XX.     ",
"        .@+++XX     ",
"       @@X.+  XX    ",
"    .   X.Xo   X.   ",
"     X ++o.o    .   ",
"    ..X+            ",
"     OOX            ",
"      ..X           ",
"         X          ",
"          .         ",
"                    ",
"                    ",
"                    ",
"                    ",
"                    ",
"                    ",
"                    ",
"           .        ",
"           X .      ",
"            XO      ",
"            XXO     ",
"        ..X++X..    ",
"    .   @X.+  X     ",
"     X +X.Xo  XX    ",
"    ..X++o.o   X    ",
"     OX+        .   ",
"      .X            ",
"      . X           ",
"        X           ",
"         .          ",
"                    ",
"                    ",
"                    ",
"                    ",
"                    ",
"                    ",
"                    ",
"                    ",
"            .       ",
"            XX.     ",
"             XO     ",
"     .  @.@++XO     ",
"     X  XXX.++X.    ",
"    .XX++.Xo  X     ",
"     OX++o.    X    ",
"     OX    o   X    ",
"      .X       .    ",
"       X            ",
"        X           ",
"        .           ",
"                    ",
"                    ",
"                    ",
"                    ",
"                    ",
"                    ",
"                    ",
"                    ",
"             .      ",
"             X      ",
"     .       X.     ",
"     X  @@.@++XO    ",
"     .X++XXX++XO    ",
"     OX++.X.+ X.    ",
"     OX  o.o  X     ",
"     .X   o   X     ",
"      X        X    ",
"       X       .    ",
"       X            ",
"       .            ",
"                    ",
"                    ",
"                    ",
"                    ",
"                    ",
"                    ",
"                    ",
"                    ",
"                    ",
"      .       .     ",
"      X       X     ",
"     .X  @.@  X.    ",
"     OX++XXX++XO    ",
"     OX++.X.++XO    ",
"     .X  o.o  X.    ",
"      X   o   X     ",
"      X       X     ",
"      X       X     ",
"      .       .     ",
"                    ",
"                    ",
"                    ",
"                    ",
"                    ",
"                    ",
"                    ",
"                    ",
"                    ",
"       .            ",
"       X            ",
"      .X       .    ",
"     OX+ @..@  X    ",
"     OX++XXX+ X.    ",
"     .X++.X.++XO    ",
"      X  o.o +XO    ",
"      X   o   X.    ",
"     X        X     ",
"     .       X      ",
"             X      ",
"             .      ",
"                    ",
"                    ",
"                    ",
"                    ",
"                    ",
"                    ",
"                    ",
"                    ",
"        .           ",
"      . X           ",
"      OX            ",
"      OX+ @.   .    ",
"     .X+++XX@  X    ",
"      X  .XX++ X.   ",
"     XX  o..++XO    ",
"     X   o o  XO    ",
"     .       X.     ",
"             X      ",
"            XX      ",
"            .       ",
"                    ",
"                    ",
"                    ",
"                    ",
"                    ",
"                    ",
"                    ",
"                    ",
"         .          ",
"       .X           ",
"      OOX           ",
"      OX++@@        ",
"      X ++X.@   .   ",
"      X  .XXX  X    ",
"     X   o..++XX    ",
"    .    oo ++XO    ",
"             XOO    ",
"            XX.     ",
"            X       ",
"           X        ",
"           .        ",
"                    ",
"                    ",
"                    ",
"                    ",
"                    ",
"                    ",
"                    ",
"        . .         ",
"       O.X          ",
"      .OX           ",
"      .X++ @        ",
"      X  +X@.       ",
"     X   o.X@   .   ",
"    .    .X.+  X.   ",
"         oo+++XX    ",
"            +XX.    ",
"            XXO     ",
"           XX.      ",
"          XX        ",
"         ..         ",
"                    ",
"                    ",
"                    ",
"                    ",
"                    ",
"                    ",
"                    ",
"         . .        ",
"        O.X         ",
"      ..XX          ",
"       X+++         ",
"     XX  +X@.       ",
"    .    o.X.       ",
"         .X.X       ",
"         oo++  X.   ",
"            +XX     ",
"            XXO.    ",
"          XX.O      ",
"         XX .       ",
"        .           ",
"                    ",
"                    ",
"                    ",
"                    ",
"                    ",
"                    ",
"                    ",
"          .         ",
"        OOXX.       ",
"       .XXX         ",
"      XX ++         ",
"    .X   ++X@       ",
"         o.X.       ",
"         .XX@       ",
"        o o.+       ",
"           ++ X.    ",
"           +XXX     ",
"          XXOO.     ",
"       .XX .        ",
"                    ",
"                    ",
"                    ",
"                    ",
"                    ",
"                    ",
"                    ",
"                    ",
"                    ",
"        .OO.X.      ",
"       XXXXX        ",
"    .XX   ++        ",
"          ++@       ",
"         o.X@       ",
"        o.XX.       ",
"         o.X@       ",
"          +++       ",
"           ++XX.    ",
"        XXXXX.      ",
"      .X  .OO       ",
"                    ",
"                    ",
"                    ",
"                    ",
"                    ",
"                    ",
"                    ",
"                    ",
"                    ",
"         .OO.       ",
"     .XXXXXXXX.     ",
"          ++        ",
"          ++        ",
"         o.X@       ",
"        o.XX.       ",
"         o.X@       ",
"          ++        ",
"          ++        ",
"     .XXXXXXXX.     ",
"         .OO.       ",
"                    ",
"                    ",
"                    ",
"                    ",
"                    ",
"                    ",
"                    ",
"                    ",
"                    ",
"      .X  .OO       ",
"        XXXXX.      ",
"          +++XX.    ",
"          ++        ",
"         o.X@       ",
"        o.XX.       ",
"         o.X.       ",
"          ++@       ",
"    .XX  ++         ",
"       XXXXX        ",
"        .OO.X.      ",
"                    ",
"                    ",
"                    ",
"                    ",
"                    ",
"                    ",
"                    ",
"                    ",
"                    ",
"       .XX .        ",
"         XXXOO.     ",
"           +XX      ",
"           ++ X.    ",
"        oo.+        ",
"         .XX@       ",
"        o.XX.       ",
"    .X   ++@        ",
"     XXX ++         ",
"       .XX          ",
"        OOXX.       ",
"          .         ",
"                    ",
"                    ",
"                    ",
"                    ",
"                    ",
"                    ",
"                    ",
"        .           ",
"         X          ",
"          XXOO      ",
"            XO.     ",
"           ++XX     ",
"        oo.++  .    ",
"        o.XX@       ",
"   .X    .X.@       ",
"     XX ++X@        ",
"      XX++          ",
"      .OXX          ",
"       OOXX         ",
"           .        ",
"                    ",
"                    ",
"                    ",
"                    ",
"                    ",
"                    ",
"                    ",
"         .          ",
"          X         ",
"           X..      ",
"            XOO     ",
"            +X..    ",
"   .    o.o++ X     ",
"   .X   oX.X   .    ",
"    XX  +.X@@       ",
"     XX+++@.        ",
"     .XX+           ",
"      OXX           ",
"       .XX          ",
"         ..         ",
"                    ",
"                    ",
"                    ",
"                    ",
"                    ",
"                    ",
"                    ",
"          .         ",
"           X        ",
"           X .      ",
"            X.      ",
"   .        +XO     ",
"    X   o.o++X..    ",
"    XX  oX.X+ X     ",
"     X  +.X@   .    ",
"    ..X++X..        ",
"     OXX            ",
"      OX            ",
"      . X           ",
"        .           ",
"                    ",
"                    ",
"                    ",
"                    ",
"                    ",
"                    ",
"                    ",
"           .        ",
"           X        ",
"            X       ",
"    .       X.      ",
"    X   o    XO     ",
"    X    .o++XO     ",
"     X  oX.++XX.    ",
"    .X++.XXX  X     ",
"     OX++@.@  .     ",
"     OX             ",
"     .XX            ",
"       .            ",
"                    ",
"                    ",
"                    ",
"                    ",
"                    ",
"                    ",
"                    ",
"                    ",
"            .       ",
"            X       ",
"    .       X       ",
"    X        X      ",
"     X   o   X.     ",
"     X  o.o  XO     ",
"    .X +.X.++XO     ",
"    OX++XXX++X.     ",
"    OX++@.@@  X     ",
"     .X       .     ",
"      X             ",
"      .             ",
"                    ",
"                    ",
"                    ",
"                    ",
};
