/* XPM */
static char * torp_red[] = {
"5 40 6 1 XPMEXT",
" 	c None",
".	c #950000",
"X	c #D84040",
"o	c #FFB0B0",
"O	c #FF4040",
"+	c #A02020",
"  .  ",
" .X..",
".XoX.",
"..X. ",
"  .  ",
"   . ",
"X.X. ",
".OoO.",
" .X+X",
" .   ",
".   X",
"X..O ",
" Oo..",
"...X.",
".   .",
"X.   ",
" X...",
" OoX ",
"...O ",
"   ..",
" ..  ",
" .O. ",
".OoO.",
" .O. ",
"  .. ",
"  .. ",
"..OX ",
" .o. ",
" O.O.",
"X..  ",
".  ..",
" .X. ",
" .o. ",
" O.X ",
"X.  .",
"..  .",
" XO..",
" .o. ",
"...O ",
".  .X"
"XPMEXT num_views",
"8",
"XPMENDEXT"};
