/* XPM */
static char * C4_xpm[] = {
/* width height colors chars_per_pixel */
"20  640 9 1"
/* colors */
" 	c None",
".	c #A1A1A1A1A1A1",
"X	c #C1C1C1C1C1C1",
"o	c #B0B0B0B0B0B0",
"O	c #0000FFFF0000",
"+	c #909090909090",
"@	c #B0B000000000",
"#	c #FFFF00000000",
"$	c #D0D0D0D0D0D0",
/* pixmap */
"                    ",
"                    ",
"         . .        ",
"        .XoX.       ",
"        .XXX.       ",
"         .o.        ",
"   o     .o.     o  ",
"   .    .XXX.    .  ",
"   .    .XXX.    .  ",
"   O     .o.     O  ",
"   O+   .XXX.   +O  ",
"   O+...oXXXo...+O  ",
"   O+..oXXXXXo..+O  ",
"   .++.oXXXXXo.++.  ",
"   . +..oXXXo..+ .  ",
"       +.XXX.+      ",
"         @#@        ",
"                    ",
"                    ",
"                    "
"                    ",
"                    ",
"          .         ",
"         .XoX       ",
"         .XXX.      ",
"    o     .o..      ",
"    .     .o.       ",
"   .    .XXXX       ",
"   O    .XXX.    .  ",
"   O+    .o.     .  ",
"   O+.. .XXX.    O  ",
"   O+...oXXX.   +O  ",
"  .++.oXXXXXo...+O  ",
"  . +..XXXXXo..+O   ",
"      +oXXXoo.++.   ",
"       .XXX...+ .   ",
"        @#@ +       ",
"                    ",
"                    ",
"                    ",
"                    ",
"                    ",
"            .       ",
"           .X .     ",
"     o    .XoX.     ",
"    .      .XX.     ",
"    .     .oo.      ",
"   OO    .XX.       ",
"   O+    .XXX.      ",
"   O+.  ..oX.     o ",
"  .+....oXX.     .  ",
"  .++.oXXXXX.    .  ",
"    +.oXXXXo.  + O  ",
"     .oXXXXXo..+O   ",
"     +.XXXXo...+O   ",
"       @XXo..++O    ",
"       #@ .+ + .    ",
"               .    ",
"                    ",
"                    ",
"                    ",
"                    ",
"                    ",
"      o     ..      ",
"     .     .XX .    ",
"     .      XXX.    ",
"    O      .ooX.    ",
"   O++   .XXo.      ",
"   O+.    XXX       ",
"  .+... ..oXX.      ",
"    +.ooXXX.        ",
"   +.ooXXXX.     .o ",
"     .oXXXXo     .  ",
"    +.XXXXXo.   O   ",
"      XXXoXo..+OO   ",
"      #XXo..+.+O    ",
"       @ + .++O     ",
"             ..     ",
"                    ",
"                    ",
"                    ",
"                    ",
"                    ",
"       .            ",
"      .      ..     ",
"     O       Xo .   ",
"    O+      .oXX    ",
"   O+.    .Xoo...   ",
"  .+...   XXX.      ",
"   ++.o..XoXX.      ",
"   +.ooXXXo...      ",
"    ..XXXXX         ",
"    +oXXXXo.     o  ",
"     XXXXXX.    ..  ",
"     #XXoXo..  O.   ",
"      @.o....+OO    ",
"        +..++OO     ",
"          + .O      ",
"           ..       ",
"                    ",
"                    ",
"                    ",
"         o          ",
"       ..           ",
"      O             ",
"    OO+      ....   ",
"   .++       .Xo    ",
"  . +..   ....XXX   ",
"   ++...  XXXo.X.   ",
"    .ooo.X.XX.      ",
"    ..XXXXo.X.      ",
"    .oXXXXX .       ",
"    XXXXXX..        ",
"    @XXXXX.         ",
"     @XoXo..    .o  ",
"      .+.... +O.    ",
"        .++++OO     ",
"         ++OO       ",
"          ..        ",
"                    ",
"                    ",
"                    ",
"          o         ",
"       O..          ",
"     OOO            ",
"   ..+++            ",
"    +..       ...   ",
"    ++..   . .XXo   ",
"    ..o.. .XX.oXX.  ",
"   +.oXXoX.XXo.X.   ",
"    .oXXXXoXX.  .   ",
"    XXXXXXX...      ",
"   @#XXXXo.         ",
"    @XXXX.          ",
"     .o.oo.         ",
"      +....    .o   ",
"       ++.+++O.     ",
"         +OOO       ",
"        ..          ",
"                    ",
"                    ",
"                    ",
"            o       ",
"       OOO..        ",
"    ..O++           ",
"     ++.            ",
"    ++..            ",
"    ....    .  ...  ",
"    +.oXo. .X..XX.  ",
"    .oXXXX.XXooXo   ",
"   @XXXXXXoXX..XX.  ",
"   #XXXXXX.XX  ..   ",
"   @XXXXo.  .       ",
"     .oXo.          ",
"     +.o..          ",
"      ....          ",
"      +++++  .o     ",
"       +OOOOO       ",
"       .            ",
"                    ",
"                    ",
"                    ",
"                    ",
"     ..OOOO..o      ",
"      ++++          ",
"     ++..           ",
"     ....           ",
"    +.oo.           ",
"    .oXXo. ..  ..   ",
"   @XXXXXX.XX..XX.  ",
"   #XXXXXXoXXooXo   ",
"   @XXXXXX.XX..XX.  ",
"    .oXXo. ..  ..   ",
"    +.oo.           ",
"     ....           ",
"     ++..           ",
"      ++++          ",
"     ..OOOO..o      ",
"                    ",
"                    ",
"                    ",
"                    ",
"      ..            ",
"       +OOOO.       ",
"      +++++  .o     ",
"      ....          ",
"     +.o..          ",
"    .oXX.           ",
"   @XXXXo. ..       ",
"   #XXXXXX.XX  ..   ",
"   @XXXXXXoXX..XX.  ",
"    .oXXXX.XXooXo   ",
"   +.ooo.. .X..XX   ",
"    ....      ..    ",
"    ++..            ",
"     ++.            ",
"    ..O++           ",
"       OOO..        ",
"                    ",
"                    ",
"                    ",
"                    ",
"        ..          ",
"        ++OOO       ",
"       ++.++O..     ",
"     +.....    o    ",
"     .ooo.          ",
"   #@XXXX.          ",
"   @XXXXXo.         ",
"    XXXXXX...       ",
"   .oXXXXXoXX. .    ",
"   +.oXoX.XXXo.X.   ",
"    ..o.. .X.oXoX.  ",
"   ++..    . .XX    ",
"    +..       ...   ",
"  ..O+++            ",
"     OO             ",
"       O..          ",
"          o         ",
"                    ",
"                    ",
"                    ",
"          .         ",
"        + +OO       ",
"      + .+.++O      ",
"      ..o...+ ..    ",
"    #XXooo.     o   ",
"   @XXXXXo          ",
"    XXXXXX.         ",
"   +ooXXXX. .       ",
"    .XXXXXoXX       ",
"   ..ooo..XXX. .    ",
"   ++..   XXooXX.   ",
"  .+..    . .oXX.   ",
"  .O++       XX     ",
"    OO       ...    ",
"     OO             ",
"       ..           ",
"        o           ",
"                    ",
"                    ",
"                    ",
"           .        ",
"         +++O       ",
"       +..+.+O      ",
"     #Xo.o...+O     ",
"    @XXXXoo.   .    ",
"    .XXXXX.     .   ",
"   +ooXXXX.         ",
"   ..XXXXXX         ",
"  +..oXoXo.X.       ",
" . +.... .XXX       ",
" ..+..   .XX..      ",
"  OO+    ...o.X.    ",
"   OO       .XX.    ",
"    OO      .X .    ",
"     ..     . .     ",
"      .o            ",
"                    ",
"                    ",
"                    ",
"                    ",
"            .       ",
"           + .      ",
"      @X...+++O     ",
"     @XXo.o..+O     ",
"    .XXXXXo.. +O    ",
"    +oXXXXo.    .   ",
"   ..XXXXX.     .   ",
"  ++.oXXXXX      o  ",
" .++....Xo.X.       ",
" .O+.. . .XX.       ",
"  O+    .XXX.       ",
"   O+    ..o...     ",
"   OO      .XX.     ",
"    .      XXo.     ",
"     .     .X .     ",
"     o              ",
"                    ",
"                    ",
"                    ",
"                    ",
"                    ",
"       @  +   .     ",
"      @#X...++.     ",
"     .XXXoo.+.+O    ",
"    +oXXXXXo..+O    ",
"   +..XXXXX.. +OO   ",
" . +.oXXXXo.    .   ",
" .+..o.oXXX     .   ",
"  O+.. .Xo..     o  ",
"  O+    .XXX.       ",
"  O+    .XXX        ",
"   O    ..o..       ",
"   .      .oX.      ",
"    .     XXX.      ",
"    o    ..Xo.      ",
"           .        ",
"                    ",
"                    ",
"                    ",
"                    ",
"                    ",
"       @#@          ",
"       XXX.+.+ .    ",
"     +.XXXo..++.    ",
"   +..oXXXXo..+O    ",
" .++.oXXXXXX...+O   ",
"  O+..ooXXXo   +O   ",
"  O+....XXX.    O   ",
"  O+    .o.     .   ",
"  O     XXX.    .   ",
"  O    .XXXX.    o  ",
"   .     .o.        ",
"   o     .o.        ",
"        .XXX.       ",
"        .XoX.       ",
"         . ..       ",
"                    ",
"                    ",
"                    ",
"                    ",
"                    ",
"        @#@         ",
"      +.XXX.+       ",
"  . +..oXXXo..+ .   ",
"  .++.oXXXXXo.++.   ",
"  O+..oXXXXXo..+O   ",
"  O+...oXXXo...+O   ",
"  O+   .XXX.   +O   ",
"  O     .o.     O   ",
"  .    .XXX.    .   ",
"  .    .XXX.    .   ",
"  o     .o.     o   ",
"        .o.         ",
"       .XXX.        ",
"       .XoX.        ",
"        . .         ",
"                    ",
"                    ",
"                    ",
"                    ",
"                    ",
"       + @#@        ",
"   . +...XXX.       ",
"   .++.ooXXXo+      ",
"   O+..oXXXXX..+ .  ",
"  O+...oXXXXXo.++.  ",
"  O+   .XXXo...+O   ",
"  O    .XXX. ..+O   ",
"  .     .o.    +O   ",
"  .    .XXX.    O   ",
"       XXXX.    .   ",
"       .o.     .    ",
"      ..o.     o    ",
"      .XXX.         ",
"       XoX.         ",
"         .          ",
"                    ",
"                    ",
"                    ",
"                    ",
"    .               ",
"    . + +. @#       ",
"    O++..oXX@       ",
"   O+...oXXXX.+     ",
"   O+..oXXXXXo.     ",
"  O +  .oXXXXo.+    ",
"  .    .XXXXXo.++.  ",
"  .     .XXo....+.  ",
" o     .Xo..  .+O   ",
"      .XXX.    +O   ",
"       .XX.    OO   ",
"      .oo.     .    ",
"     .XX.      .    ",
"     .XoX.    o     ",
"     . X.           ",
"       .            ",
"                    ",
"                    ",
"                    ",
"                    ",
"     ..             ",
"     O++. + @       ",
"    O+.+..oXX#      ",
"   OO+..oXoXXX      ",
"   O   .oXXXXX.+    ",
"  .     oXXXXo.     ",
" o.     .XXXXoo.+   ",
"        .XXXoo.+    ",
"      .XXo.. ...+.  ",
"       XXX    .+O   ",
"      .oXX.   ++O   ",
"    .Xoo.      O    ",
"    .XXX      .     ",
"    . XX.     .     ",
"      ..     o      ",
"                    ",
"                    ",
"                    ",
"                    ",
"       ..           ",
"      O. +          ",
"     OO++..+        ",
"    OO+....o.@      ",
"   .O  ..oXoXX#     ",
"  ..    .XXXXXX     ",
"  o     .oXXXXo+    ",
"         XXXXX..    ",
"      ...oXXXoo.+   ",
"      .XX.X..o.++   ",
"      .XXX   ...+.  ",
"   ...o.X.    .+O   ",
"    XX..      +O    ",
"   . XX       O     ",
"    ...      .      ",
"            .       ",
"                    ",
"                    ",
"                    ",
"                    ",
"        ..          ",
"       OO++         ",
"     OO++++.        ",
"    .O+ ....+.      ",
"  o.    ..oXoX@     ",
"         .XXXXX@    ",
"        ..XXXXXX    ",
"       . XXXXXo.    ",
"      .X.oXXXX..    ",
"      .XX.X.ooo.    ",
"   .X.oXXX  ...++   ",
"   XXX....   ..+ .  ",
"    oX.       ++.   ",
"   ....      +OO    ",
"             O      ",
"           ..       ",
"          o         ",
"                    ",
"                    ",
"                    ",
"          ..        ",
"       OOO+         ",
"     .O+++.++       ",
"   o.    ....+      ",
"         .oo.o.     ",
"          .XXXX@    ",
"         .oXXXX#@   ",
"      ...XXXXXXX    ",
"   .  .XXoXXXXo.    ",
"   .X.oXX.XoXXo.+   ",
"  .XXo.XX. ..o..    ",
"   oXX. .   ..++    ",
"   ...       ..+    ",
"            +++..   ",
"            OOO     ",
"          ..O       ",
"         o          ",
"                    ",
"                    ",
"                    ",
"            .       ",
"       OOOOO+       ",
"     o.  +++++      ",
"          ....      ",
"          ..o.+     ",
"          .oXo.     ",
"       .  .oXXXX@   ",
"   ..  XX.XXXXXX#   ",
"  .XX..XXoXXXXXX@   ",
"   oXooXX.XXXXo.    ",
"  .XX..X. .oXo.+    ",
"  ...  .    ....    ",
"            ..++    ",
"            .++     ",
"           ++O..    ",
"        ..OOO       ",
"       o            ",
"                    ",
"                    ",
"                    ",
"                    ",
"      o..OOOO..     ",
"          ++++      ",
"           ..++     ",
"           ....     ",
"           .oo.+    ",
"   ..  .. .oXXo.    ",
"  .XX..XX.XXXXXX@   ",
"   oXooXXoXXXXXX#   ",
"  .XX..XX.XXXXXX@   ",
"   ..  .. .oXXo.    ",
"           .oo.+    ",
"           ....     ",
"           ..++     ",
"          ++++      ",
"      o..OOOO..     ",
"                    ",
"                    ",
"                    ",
"                    ",
"                    ",
"        ..OOO       ",
"           ++O..    ",
"            .++     ",
"            ..++    ",
"    ..      ....    ",
"   XX..X. ..ooo.+   ",
"   oXooXX.XXXXo.    ",
"  .XX..XXoXXXXXX@   ",
"   ..  XX.XXXXXX#   ",
"       .. .oXXXX@   ",
"           .XXo.    ",
"          ..o.+     ",
"          ....      ",
"     o.  +++++      ",
"       .OOOO+       ",
"            ..      ",
"                    ",
"                    ",
"                    ",
"         o          ",
"          ..O       ",
"             OO     ",
"            +++O..  ",
"   ...       ..+    ",
"    XX. .    ..++   ",
"  .XoXo.X. ..o..    ",
"   .X.oXXX.XoXo.+   ",
"    . .XXoXXXXXo.   ",
"       ...XXXXXX    ",
"         .oXXXXX@   ",
"          .XXXX@#   ",
"          .ooo.     ",
"    o    .....+     ",
"     ..O++.++       ",
"       OOO++        ",
"          ..        ",
"                    ",
"                    ",
"                    ",
"           o        ",
"           ..       ",
"             OO     ",
"    ...       OO    ",
"     XX       ++O.  ",
"   .XXo. .    ..+.  ",
"   .XXooXX   ..++   ",
"    . .XXX..ooo..   ",
"       XXoXXXXX.    ",
"       . .XXXXoo+   ",
"         .XXXXXX    ",
"          oXXXXX@   ",
"   o     .oooXX#    ",
"    .. +...o..      ",
"      O++.+. +      ",
"       OO+ +        ",
"         .          ",
"                    ",
"                    ",
"                    ",
"                    ",
"            o.      ",
"     . .     ..     ",
"    . X.      OO    ",
"    .XX.       OO   ",
"    .X.o...    +OO  ",
"      ..XX.   ..+.. ",
"       XXX. ....+ . ",
"       .X.oXoXo..+  ",
"         XXXXXX..   ",
"         .XXXXoo+   ",
"   .     .XXXXX.    ",
"    .   .ooXXXX@    ",
"     O+...o.oX#     ",
"      O+.+..+       ",
"       O+++         ",
"        .           ",
"                    ",
"                    ",
"                    ",
"                    ",
"              o     ",
"     . X.     .     ",
"     .oXX      .    ",
"     .XX.      OO   ",
"     ...o..    +O   ",
"       .XXX.    +O  ",
"       .XX. . ..+O. ",
"       .X.oX....++. ",
"  o      XXXXXo.++  ",
"   .     .XXXXX..   ",
"   .    .oXXXXo+    ",
"    O+ ..oXXXXX.    ",
"     O+..o.oXX@     ",
"     O+++...X@      ",
"      . +           ",
"       .            ",
"                    ",
"                    ",
"                    ",
"                    ",
"        .           ",
"      .oX..    o    ",
"      .XXX     .    ",
"      .Xo.      .   ",
"       ..o..    O   ",
"        XXX.    +O  ",
"       .XXX.    +O  ",
"  o     ..oX. ..+O  ",
"   .     XXXo.o..+. ",
"   .    .oXXXXo.+ . ",
"   OO+ ..XXXXX..+   ",
"    O+..oXXXXXo+    ",
"    O+.+.ooXXX.     ",
"     .++...X#@      ",
"     .   +  @       ",
"                    ",
"                    ",
"                    ",
"                    ",
"                    ",
"       .. .         ",
"       .XoX.        ",
"       .XXX.        ",
"        .o.     o   ",
"        .o.     .   ",
"  o    .XXXX.    O  ",
"   .    .XXX     O  ",
"   .     .o.    +O  ",
"   O    .XXX....+O  ",
"   O+   oXXXoo..+O  ",
"   O+...XXXXXXo.++. ",
"    O+..oXXXXo..+   ",
"    .++..oXXX.+     ",
"    . +.+.XXX       ",
"          @#@       ",
"                    ",
"                    ",
"                    ",
};
