/* XPM */
static char * C4_xpm[] = {
/* width height colors chars_per_color */
"20  640 7 1"
/* colors */
" 	c None",
".	c #0000A0A00000",
"X	c #0000C8C80000",
"o	c #0000FFFF0000",
"O	c #000078780000",
"+	c #000078780000",
"@	c #000078780000",
/* pixels */ 
"                    ",
"         ...        ",
"        .XoX.       ",
"        .XoX.       ",
"         OOO        ",
"        .XoX.       ",
"        .XoX.       ",
"        .XoX.       ",
"         OOO        ",
"     O  .XoX.  O    ",
"     OO.XXoXX.OO    ",
"     +O.XXoXX.O+    ",
"     OO.XXoXX.OO    ",
"     OO.XXoXX.OO    ",
"     +  .XoX.  +    ",
"     +  .XoX.  +    ",
"     O   @@@   O    ",
"     O         O    ",
"                    ",
"                    ",
"                    ",
"           ..       ",
"         .Xoo.      ",
"         .XoX.      ",
"          OOO.      ",
"         .XoX       ",
"         .XoX.      ",
"        .XooX.      ",
"     O   OOO        ",
"     OO .XoX.       ",
"     +O.XXoXX  O    ",
"     OO.XXoXX.OO    ",
"    OO.XXXoXX.O+    ",
"    +  XXoXX.OO     ",
"    +  .XoX..OO     ",
"    O  .XoX.  +     ",
"    O   @@@   +     ",
"              O     ",
"             O      ",
"                    ",
"                    ",
"            .       ",
"           .X..     ",
"           .XoX     ",
"           OoX..    ",
"          .XOO      ",
"         .XooX.     ",
"      O  .XoX.      ",
"     O  . OOX.      ",
"     +O.XXoO        ",
"    OOO.XXoX.       ",
"    OO.XXoXXX. O    ",
"    + .XXoXX.OO     ",
"   +  .XXoXX.O+     ",
"   O  .XoXX.OOO     ",
"  O    @oX.  O      ",
"       @@ .  +      ",
"            +       ",
"            O       ",
"            O       ",
"                    ",
"                    ",
"              .     ",
"            .Xo.    ",
"            OXoX    ",
"           .OOX..   ",
"      O   .XooO     ",
"      O   XXoX.     ",
"     +O. .OoX..     ",
"    OOO.XXoOO.      ",
"    OO.XXXoX.       ",
"   + ..XXoXX.       ",
"  O+  .XooXX.OOO    ",
"  O  .XXoXX.OOO     ",
"      XoX.X.O+      ",
"      @oX. OOO      ",
"       @    +       ",
"           +        ",
"          OO        ",
"          O         ",
"                    ",
"                    ",
"                    ",
"              ..    ",
"             .Xo.   ",
"            .OooX   ",
"      OO   .XoOX..  ",
"     +OO  .XooX .   ",
"    OOO...OooX..    ",
"   +OO..XXoOX..     ",
"  ++ ..XXooX .      ",
" OO   XXooX..       ",
" O   .XooXXX        ",
"     XooXXX.O O     ",
"     @oX.X.OOO      ",
"      @.. OOO       ",
"           O        ",
"          +         ",
"         O          ",
"        O           ",
"                    ",
"                    ",
"                    ",
"                    ",
"               ..   ",
"              .XX.  ",
"      OO    .XOoo.  ",
"     O+O   .XXOOX.  ",
"   +OOO...OXooXO..  ",
"  ++ ..XXXXOoX..    ",
" O    XXXooXO..     ",
"    ..XXooX.        ",
"    XXooXXXX        ",
"    @ooXXX..        ",
"     @X.X.OOOO      ",
"      .  OO+O       ",
"         +O         ",
"        ++          ",
"      OO            ",
"                    ",
"                    ",
"                    ",
"                    ",
"                    ",
"                    ",
"        O       .   ",
"     O+OO    . .X.  ",
"   ++OOO.  ..XOXoo. ",
" OO  O..X. OXXoOXX. ",
"     .XXXXXOooXO..  ",
"    ..XXXooOXX..    ",
"    XXoooXXX .      ",
"   @@ooXXXX.        ",
"    @XXXX..         ",
"     .. ..OOO       ",
"        OO+O        ",
"       +OO          ",
"     OO+            ",
"                    ",
"                    ",
"                    ",
"                    ",
"                    ",
"                    ",
"                    ",
"       +OO          ",
"  O++OOOO           ",
" O   OO...  ... .X. ",
"      .XXX. XXXOXX. ",
"    ..XXXXXOXooOoo. ",
"   @XXXooooOoXXOXX  ",
"   @ooooXXXOX.. ..  ",
"   @XXXXXX..        ",
"     ..X...         ",
"       .OOO         ",
"       OO+OO        ",
"   OO++O            ",
"                    ",
"                    ",
"                    ",
"                    ",
"                    ",
"                    ",
"                    ",
"                    ",
"  OO++OO+OO         ",
"      OOOO          ",
"      ....          ",
"    ..XXXX. ... ..  ",
"   @XXXXXXXOXXXOXX. ",
"   @oooooooOoooOoo. ",
"   @XXXXXXXOXXXOXX. ",
"    ..XXXX. ... ..  ",
"      ....          ",
"      OOOO          ",
"  OO++OO+OO         ",
"                    ",
"                    ",
"                    ",
"                    ",
"                    ",
"                    ",
"                    ",
"                    ",
"   OO++O            ",
"       OO+OO        ",
"       .OOO         ",
"    ..XX..          ",
"   @XXXXXX. .       ",
"   @oooXXXXOX.. ..  ",
"   @XXXooooOoXXOXX  ",
"    ..XXXXXOoooOoo. ",
"     ..XXX. XXXOXo. ",
" O   OO..   .. ...  ",
"  O++OOOO           ",
"       +OO          ",
"                    ",
"                    ",
"                    ",
"                    ",
"                    ",
"                    ",
"    O               ",
"     O+             ",
"       +OO          ",
"        OO+O        ",
"     ....OO O       ",
"   @@XXXX..         ",
"   @ooXXXXX.        ",
"    XXoooXX ..      ",
"   ..XXXXooOXX.     ",
"     .XXXXOOooXO..  ",
"OO+  O..X. XXoOoXX. ",
"   +OOOO.  ..XOXo.  ",
"     O+O     . .X.  ",
"        O      .    ",
"                    ",
"                    ",
"                    ",
"                    ",
"                    ",
"                    ",
"      OO            ",
"       ++           ",
"         OO         ",
"      . .OO+        ",
"    @XX...OOOO      ",
"   @ooXXXX..        ",
"    XXooXXX         ",
"    ..XooXX.        ",
"OO   XXXXooOX.      ",
" O+ O..XXXOoXX.     ",
"   +OOO...OXooOO.   ",
"    O+OO  ..XoOXX   ",
"      OO   ..OXoo.  ",
"       O      .X.   ",
"              .     ",
"                    ",
"                    ",
"                    ",
"                    ",
"       OO           ",
"        O+          ",
"         ++         ",
"          OO        ",
"     @X. .OO+       ",
"    @ooXX..OOO      ",
"    .XooXX..OO      ",
"O   ..XooXX.        ",
" O   XXXooX.        ",
"  + O.XXXoXO.       ",
"   OOO.X.XOXX.      ",
"    OOO . XoXX.     ",
"     O   ..XoXO.    ",
"      O   ..XOXX.   ",
"           . XoX.   ",
"            ..X.    ",
"             .      ",
"                    ",
"                    ",
"                    ",
"         O          ",
"          +         ",
"          ++        ",
"      @X.  O        ",
"     @oX. .OO       ",
" O  .XooXX.O+O      ",
" O   .XoXXX.OO      ",
"  +  XXXoXX.        ",
"  ++O.XXooX.        ",
"   OOO.XXoXO        ",
"    +O.X.XOX.       ",
"    OO   OooX.      ",
"     O   .XoXX      ",
"         ..XOO.     ",
"          .OOoX.    ",
"           .XoX.    ",
"           ....     ",
"                    ",
"                    ",
"                    ",
"           O        ",
"           O        ",
"       @    +       ",
"      @@X.  +       ",
"  O  .XoX..OOO      ",
"  O  .XooXX.O+      ",
"  ++  XXoXX.OO      ",
"   OO.XXoXXX.OO     ",
"   OO..XXoX.        ",
"    +O.XXoX         ",
"    OO .XOOO.       ",
"     O   XoX.       ",
"        .XoXX.      ",
"         .XoO       ",
"         .OOX.      ",
"          .XoX.     ",
"          .Xo.      ",
"           ..       ",
"                    ",
"                    ",
"            O       ",
"             O      ",
"   O   @@@   +      ",
"   O   XoX.  +      ",
"   +  .XoX. OO      ",
"   +  .XoXX.OO      ",
"   OO.XXooXX.O+     ",
"    OO.XXoXX.OO     ",
"    +O.XXoXX. O     ",
"    OO..XoX.        ",
"    O  .OOO         ",
"        XoXX.       ",
"        .XoX.       ",
"        .XoX.       ",
"         OOO        ",
"        .XoX.       ",
"        .XoXX       ",
"          ...       ",
"                    ",
"                    ",
"                    ",
"    O         O     ",
"    O   @@@   O     ",
"    +  .XoX.  +     ",
"    +  .XoX.  +     ",
"    OO.XXoXX.OO     ",
"    OO.XXoXX.OO     ",
"    +O.XXoXX.O+     ",
"    OO.XXoXX.OO     ",
"    O  .XoX.  O     ",
"        OOO         ",
"       .XoX.        ",
"       .XoX.        ",
"       .XoX.        ",
"        OOO         ",
"       .XoX.        ",
"       .XoX.        ",
"        ...         ",
"                    ",
"                    ",
"      O             ",
"     O              ",
"     +   @@@   O    ",
"     +  .XoX.  O    ",
"     OO..XoX.  +    ",
"     OO.XXoXX  +    ",
"    +O.XXoXXX.OO    ",
"    OO.XXoXX.OO     ",
"    O  XXoXX.O+     ",
"       .XoX. OO     ",
"        OOO   O     ",
"      .XooX.        ",
"      .XoX.         ",
"       XoX.         ",
"      .OOO          ",
"      .XoX.         ",
"      .ooX.         ",
"       ..           ",
"                    ",
"       O            ",
"       O            ",
"       +            ",
"      +  . @@       ",
"      O  .Xo@    O  ",
"     OOO.XXoX.  O   ",
"     +O.XXoXX.  +   ",
"     OO.XXoXX. +    ",
"    O .XXXoXX.OO    ",
"       .XoXX.OOO    ",
"        OoXX.O+     ",
"      .XOO .  O     ",
"      .XoX.  O      ",
"     .XooX.         ",
"      OOX.          ",
"    ..XoO           ",
"     XoX.           ",
"     ..X.           ",
"       .            ",
"                    ",
"         O          ",
"        OO          ",
"        +           ",
"       +    @       ",
"      OOO .Xo@      ",
"      +O.X.XoX      ",
"     OOO.XXoXX.  O  ",
"    OOO.XXooX.  +O  ",
"       .XXoXX.. +   ",
"       .XoXXX.OO    ",
"      .OOoXX.OOO    ",
"     ..XoO. .O+     ",
"     .XoXX   O      ",
"     OooX.   O      ",
"   ..XOO.           ",
"    XoXO            ",
"    .oX.            ",
"     .              ",
"                    ",
"                    ",
"           O        ",
"          O         ",
"         +          ",
"        O           ",
"       OOO ..@      ",
"      OOO.X.Xo@     ",
"     O O.XXXooX     ",
"        XXXooX.   O ",
"       ..XooXX   OO ",
"      . XooXX.. ++  ",
"     ..XOXXX..OO+   ",
"    ..XoXO...OOO    ",
"   . XoXX.  OO+     ",
"  ..XOXX.   OO      ",
"   XoXO.            ",
"   .XX.             ",
"    ..              ",
"                    ",
"                    ",
"                    ",
"                    ",
"            OO      ",
"          ++        ",
"         O+         ",
"       O+OO  .      ",
"      OOOO.X.X@     ",
"        ..XXXoo@    ",
"        XXXXooXX    ",
"        .XooXX..    ",
"     ..OXooXXX    O ",
"    ..XoOXXXX.. ++  ",
"  ..OXooXO...OOO+   ",
"  .XOOXX.   O+O     ",
"  .ooOX.    OO      ",
"  .XX.              ",
"   ..               ",
"                    ",
"                    ",
"                    ",
"                    ",
"                    ",
"                    ",
"            +OO     ",
"          OO+       ",
"        O+OO        ",
"       OOO.. ..     ",
"         ..XXXX@    ",
"        .XXXXoo@@   ",
"      . XXXoooXX    ",
"    ..XXOooXXX..    ",
"  ..OXooOXXXXX.     ",
" .XXOoXXO .X..O  OO ",
" .ooXOX..  .OOO++   ",
"  .X. .    OO+O     ",
"   .       O        ",
"                    ",
"                    ",
"                    ",
"                    ",
"                    ",
"                    ",
"                    ",
"                    ",
"            O++OO   ",
"        OO+OO       ",
"         OOO.       ",
"         ...X..     ",
"        ..XXXXXX@   ",
"  .. ..XOXXXoooo@   ",
"  XXOXXoOooooXXX@   ",
" .ooOooXOXXXXX..    ",
" .XXOXXX .XXX.      ",
" .X. ...  ...OO   O ",
"           OOOO++O  ",
"          OO+       ",
"                    ",
"                    ",
"                    ",
"                    ",
"                    ",
"                    ",
"                    ",
"                    ",
"                    ",
"         OO+OO++OO  ",
"          OOOO      ",
"          ....      ",
"  .. ... .XXXX..    ",
" .XXOXXXOXXXXXXX@   ",
" .ooOoooOooooooo@   ",
" .XXOXXXOXXXXXXX@   ",
"  .. ... .XXXX..    ",
"          ....      ",
"          OOOO      ",
"         OO+OO++OO  ",
"                    ",
"                    ",
"                    ",
"                    ",
"                    ",
"                    ",
"                    ",
"                    ",
"                    ",
"          OO+       ",
"           OOOO++O  ",
"  ... ..   ..OO   O ",
" .oXOXXX .XXX..     ",
" .ooOoooOXXXXX..    ",
"  XXOXXoOooooXXX@   ",
"  .. ..XOXXXXooo@   ",
"       . .XXXXXX@   ",
"          ..XX..    ",
"         OOO.       ",
"        OO+OO       ",
"            O++OO   ",
"                    ",
"                    ",
"                    ",
"                    ",
"                    ",
"                    ",
"                    ",
"                    ",
"    .      O        ",
"  .X. .     O+O     ",
"  .oXOX..  .OOOO+   ",
" .XXoOoXX .X..O  +OO",
"  ..OXooOOXXXX.     ",
"     .XXOooXXXX..   ",
"      .. XXoooXX    ",
"        .XXXXXoo@   ",
"         ..XXXX@@   ",
"       O OO....     ",
"        O+OO        ",
"          OO+       ",
"             +O     ",
"               O    ",
"                    ",
"                    ",
"                    ",
"                    ",
"                    ",
"     .              ",
"   .X.      O       ",
"  .ooXO..   OO      ",
"   XXOoX..  OO+O    ",
"   .OOooXO...OOO+   ",
"     .XXoOXXX..O +O ",
"      .XOooXXXX   OO",
"        .XXooX..    ",
"         XXXooXX    ",
"        ..XXXXoo@   ",
"      OOOO...XX@    ",
"        +OO. .      ",
"         OO         ",
"           ++       ",
"            OO      ",
"                    ",
"                    ",
"                    ",
"                    ",
"      .             ",
"    .X..            ",
"   .XoX .           ",
"   .XXOX..   O      ",
"    .OXoX..   O     ",
"     .XXoX . OOO    ",
"      .XXOX.X.OOO   ",
"       .OXoXXX.O +  ",
"        .XooXXX   O ",
"        .XXooX..   O",
"      OO..XXooX.    ",
"      OOO..XXoo@    ",
"       +OO. .X@     ",
"        OO          ",
"         ++         ",
"          +O        ",
"           OO       ",
"                    ",
"                    ",
"                    ",
"     ....           ",
"    .XoX.           ",
"    .XoOO.          ",
"     .OOX..         ",
"      XXoX.   O     ",
"      .XooO   OO    ",
"       .XOX.X.O+    ",
"        OXoXX.OOO   ",
"        .XooXX.O++  ",
"        .XXoXXX  +  ",
"      OO.XXXoX.   O ",
"      O+O.XXooX.  O ",
"       OO. .Xo@     ",
"        O  .X@      ",
"        ++          ",
"         +          ",
"          O         ",
"                    ",
"                    ",
"       ..           ",
"      .oX.          ",
"     .XoX.          ",
"      .XOO.         ",
"       OoX.         ",
"      .XXoX.        ",
"       .XoX   O     ",
"       .OOOX. OO    ",
"         XoXX.O+    ",
"        .XoXX..OO   ",
"     OO.XXXoXX.OO   ",
"      OO.XXoXX  ++  ",
"      +O.XXooX.  O  ",
"      OOO..XoX.  O  ",
"       +  .X@@      ",
"       +    @       ",
"        O           ",
"        O           ",
"                    ",
"                    ",
"       ...          ",
"       XXoX.        ",
"       .XoX.        ",
"        OOO         ",
"       .XoX.        ",
"       .XoX.        ",
"       .XXoX        ",
"         OOO.  O    ",
"        .XoX..OO    ",
"     O .XXoXX.O+    ",
"     OO.XXoXX.OO    ",
"     +O.XXooXX.OO   ",
"      OO.XXoX.  +   ",
"      OO .XoX.  +   ",
"      +  .XoX   O   ",
"      +   @@@   O   ",
"      O             ",
"       O            ",
"                    ",
};
