/* XPM */
static char * C4_xpm[] = {
"20 320 9 1",
" 	c None",
".	c #A1A1A1A1A1A1",
"X	c #C1C1C1C1C1C1",
"o	c #B0B0B0B0B0B0",
"O	c #0000FFFF0000",
"+	c #909090909090",
"@	c #B0B000000000",
"#	c #FFFF00000000",
"$	c #D0D0D0D0D0D0",
"                    ",
"                    ",
"         . .        ",
"        .XoX.       ",
"        .XXX.       ",
"         .o.        ",
"   o     .o.     o  ",
"   .    .XXX.    .  ",
"   .    .XXX.    .  ",
"   O     .o.     O  ",
"   O+   .XXX.   +O  ",
"   O+...oXXXo...+O  ",
"   O+..oXXXXXo..+O  ",
"   .++.oXXXXXo.++.  ",
"   . +..oXXXo..+ .  ",
"       +.XXX.+      ",
"         @#@        ",
"                    ",
"                    ",
"                    ",
"                    ",
"                    ",
"           .+       ",
"     o    .X++.     ",
"    .     XXXX+     ",
"    .     .oX.      ",
"   O     ..o.       ",
"   O+   +XXX.+      ",
"  O+++   .XXX+    o ",
"  O+...+.Xo..    .  ",
"  .+..ooXXX.     .  ",
" + +.ooXXXXo+   O   ",
"    ..XXXXXX.+++O   ",
"     +oXXXXo..+O    ",
"      XXXXoo.++O    ",
"      @#X.+.+++.    ",
"        @     .     ",
"                    ",
"                    ",
"                    ",
"                    ",
"                    ",
"       o            ",
"      .      .+     ",
"     O      .oo     ",
"    O+      +XXo+   ",
"   O++    .+.oX..   ",
"  .++.   .oXo.+.    ",
" .++...  +XXX+      ",
"   +.ooo.o.Xo.      ",
"   ..oXXXXo+.       ",
"    .oXXXX.         ",
"    .XXXXXo      o  ",
"    @XXXXXo.    .   ",
"     #$Xooo..++O    ",
"      @.....++O     ",
"         .+++O      ",
"           +.       ",
"           .        ",
"                    ",
"                    ",
"          o         ",
"        ..          ",
"      OO            ",
"    OO++       +    ",
"  o.+++       o.o   ",
"    +..    +++XX+   ",
"    ..o+  .X..XX.o  ",
"    .ooo..XXoooo.+  ",
"   +oXXXXooXX. +    ",
"   .XXXXXX.oo+      ",
"   @XXXXXo +        ",
"   #XXXXXo          ",
"    @.oXo.          ",
"     +.o..+    .o   ",
"      +..+++ O.     ",
"        +++OO       ",
"         .O         ",
"        +           ",
"                    ",
"                    ",
"                    ",
"                    ",
"     ..OOOO..o      ",
"      ++++          ",
"     ++..           ",
"     ....           ",
"    +.oo.           ",
"    .oXXo. ..  ..   ",
"   @XXXXXX.XX..XX.  ",
"   #XXXXXXoXXooXo   ",
"   @XXXXXX.XX..XX.  ",
"    .oXXo. ..  ..   ",
"    +.oo.           ",
"     ....           ",
"     ++..           ",
"      ++++          ",
"     ..OOOO..       ",
"                    ",
"                    ",
"                    ",
"        +           ",
"         .OO        ",
"        ++++OO      ",
"       ....++ ..    ",
"      +.o..+    o   ",
"    @XoXoo.         ",
"    #XXXXo+         ",
"   @XXXXXX. +       ",
"    .XXXXXX.X.      ",
"    +oXXXXoXX..X.   ",
"    .ooXo..XXooXX.  ",
"    +...+ .X..XX++  ",
"    ++.+   ++ .X+   ",
"   .++++       +.   ",
"    .OO+            ",
"       OO           ",
"         ..         ",
"           o        ",
"                    ",
"                    ",
"           .        ",
"           +.       ",
"         .+++O      ",
"      @.....++O     ",
"     #XXooo..++O    ",
"    @$XXXXo.    .   ",
"    .XXXXXo      o  ",
"    .oXXXX.         ",
"   ..oXXXXo+.       ",
"   +.ooo.o.Xo.      ",
" .++...  +XXX+      ",
"  .++.   .oXo.+.    ",
"   O++    .+.oXo.   ",
"    O+      +XXo+   ",
"     O      .oo     ",
"      .      .+     ",
"       o            ",
"                    ",
"                    ",
"                    ",
"                    ",
"              o     ",
"       #@.+   .     ",
"      @XXXo..++O    ",
"     +.XXXXo..+O    ",
"    +.oXXXXoo.++O   ",
"    .oXXXXXo+  +O   ",
" + +..oXXXX.     +  ",
"  .++..ooXo.     .  ",
"  O+++   .oX.     o ",
"   O+   +oXXX+      ",
"   O     oXo.+      ",
"    O    +.o.+      ",
"    .      oXXo     ",
"     .    +oXX.+    ",
"     o     ..+o     ",
"           +o       ",
"                    ",
"                    ",
"                    ",
"                    ",
"                    ",
"        @#@         ",
"      +.XXX.+       ",
"  . +..oXXXo..+ .   ",
"  .++.oXXXXXo.++.   ",
"  O+..oXXXXXo..+O   ",
"  O+...oXXXo...+O   ",
"  O+   .XXX.   +O   ",
"  O     .o.     O   ",
"  .    .XXX.    .   ",
"  .    .XXX.    .   ",
"        .o.     o   ",
"        .o.         ",
"       .XXX.        ",
"       .XoX.        ",
"        . .         ",
"                    ",
"                    ",
"                    ",
"                    ",
"                    ",
"     .     @        ",
"    .+++.+.X#@      ",
"    O++.ooXXXX      ",
"    O+..oXXXXo+     ",
"   O+++.XXXXXX..    ",
"   O   +oXXXXoo.+ + ",
"  .     .XXXoo..+.  ",
"  .    ..oX.+...+O  ",
" o    +XXX.   +++O  ",
"      +.XXX+   +O   ",
"       .o..     O   ",
"      .Xo.     .    ",
"     +XXXX     .    ",
"     .++X.    o     ",
"       +.           ",
"                    ",
"                    ",
"                    ",
"        .           ",
"       .+           ",
"      O+++.         ",
"     O++.....@      ",
"    O++..oooX$#     ",
"   .    .oXXXXX@    ",
"  o      oXXXXX.    ",
"         .XXXXo.    ",
"       .+oXXXXo..   ",
"      .oX.o.ooo.+   ",
"      +XXX+  ...++. ",
"    .+.oXo.   .++.  ",
"   .oXo.+.    ++O   ",
"   +oXX+      +O    ",
"     oo.      O     ",
"     +.      .      ",
"            o       ",
"                    ",
"                    ",
"                    ",
"           +        ",
"         O.         ",
"       OO+++        ",
"     .O +++..+      ",
"   o.    +..o.+     ",
"          .oXo.@    ",
"          oXXXXX#   ",
"        + oXXXXX@   ",
"      +oo.XXXXXX.   ",
"    + .XXooXXXXo+   ",
"  +.ooooXX..ooo.    ",
"  o.XX..X.  +o..    ",
"   +XX+++    ..+    ",
"   o.o       +++.o  ",
"    +       ++OO    ",
"            OO      ",
"          .+        ",
"         o          ",
"                    ",
"                    ",
"                    ",
"       ..OOOO..     ",
"          ++++      ",
"           ..++     ",
"           ....     ",
"           .oo.     ",
"   ..  .. .oXXo.    ",
"  .XX..XX.XXXXXX@   ",
"   oXooXXoXXXXXX#   ",
"  .XX..XX.XXXXXX@   ",
"   ..  .. .oXXo.    ",
"           .oo.+    ",
"           ....     ",
"           ..++     ",
"          ++++      ",
"      o..OOOO..     ",
"                    ",
"                    ",
"                    ",
"                    ",
"        o           ",
"         ..         ",
"           OO       ",
"            +OO     ",
"   .+       +++.    ",
"   +X. ++   +.++.   ",
"  ++XX..X. +...+    ",
"  .XXooXX..oXoo.    ",
"   .X..XXoXXXXo+    ",
"      .X.XXXXXX.    ",
"       + .XXXXXX@   ",
"         +oXXXX#    ",
"         .ooXoX@    ",
"   o    +..o.+      ",
"    .. ++....       ",
"      OO++++        ",
"        OO.         ",
"           +        ",
"                    ",
"                    ",
"                    ",
"            o       ",
"     +.      .      ",
"     oo.      O     ",
"   +oXX+      +O    ",
"   .oXo.+.    ++O   ",
"    .+.oXo.   .++.  ",
"      +XXX+  ...++. ",
"      .oX.o.ooo.+   ",
"       .+oXXXXo..   ",
"         .XXXXo.    ",
"  o      oXXXXX.    ",
"   .    .oXXXX$@    ",
"    O++..oooXX#     ",
"     O++.....@      ",
"      O+++.         ",
"       .+           ",
"        .           ",
"                    ",
"                    ",
"                    ",
"       o+           ",
"     o+..     o     ",
"    +.XXo+    .     ",
"     oXXo      .    ",
"      +.o.+    O    ",
"      +.oXo     O   ",
"      +XXXo+   +O   ",
" o     .Xo.   +++O  ",
"  .     .oXoo..++.  ",
"  +     .XXXXo..+ + ",
"   O+  +oXXXXXo.    ",
"   O++.ooXXXXo.+    ",
"    O+..oXXXX.+     ",
"    O++..oXXX@      ",
"     .   +.@#       ",
"     o              ",
"                    ",
"                    "};
