/* XPM */
static char * C8_xpm[] = {
/* width height colors chars_per_color */
"20  640 8 1"
/* colors */
" 	c None",
".	c #0000A0A00000",
"X	c #0000FFFF0000",
"o	c #000078780000",
"O	c #0000C8C80000",
"+	c #000078780000",
"@	c #000078780000",
"#	c #000078780000",
/* pixels */
"                    ",
"         ..         ",
"        .XX.        ",
"        .XX.        ",
"         ..         ",
" X       ..       X ",
" X       ..       X ",
" o       ..       o ",
" X      oOOo      X ",
" .o     oOOo     o. ",
" ooo.  o.OO.o  .ooo ",
" oo...OOO..OOO...oo ",
"  ...OO.XXXX.OO...  ",
"   ..OO+XXXX+OO..   ",
"    OO.+XXXX+.OO    ",
"     O.+XXXX+.O     ",
"       +o@@o+       ",
"         ##         ",
"                    ",
"                    ",
"                    ",
"           ..       ",
"         .XXX       ",
"  X      .XX.       ",
"  X       ..        ",
"  o       ..        ",
"  X       ..        ",
" .o      ...       X",
" oo     oOOo      X ",
" ooo.   oOOo      o ",
"  o...Oo.OO.o    oX ",
"  ...OOOO..Oo  .oo. ",
"  ..OO+XXXXXOO...oo ",
"   OO.+XXXX+OO...o  ",
"    O.+XXXX+OO..    ",
"      +XXXX+.OO     ",
"       o@@o+.O      ",
"       ###          ",
"                    ",
"                    ",
"                    ",
"            .       ",
"   X       .X.      ",
"   X       .XX.     ",
"   o       .X.      ",
"  X        ..       ",
"  .o      ...       ",
" ooo      ..        ",
" oo..   ooOO        ",
"  .... o.OOo       X",
"  ..OOOOOOOo      oX",
"   .OO.X..O.o     X ",
"   OO.+XXXXOO .o o. ",
"   O.+XXXXX.O...oo  ",
"     +XXXX+OOO..oo  ",
"     +o@XX+.O...    ",
"      #@o++.OO      ",
"       #            ",
"                    ",
"                    ",
"                    ",
"     X              ",
"    X         .     ",
"    o       .XX.    ",
"   .        .XX.    ",
"  ooo       ...     ",
"  ooo      ...      ",
"  ....   o...       ",
"  .... o oO.        ",
"  ..OOOo.OOOo       ",
"  OOOO.O.OOo       X",
"   O.++XX..o       X",
"   O.+XXXXOO      o ",
"    +XXXXX.O. . oX  ",
"    +oXXX++OO..oo.  ",
"     #@XX+.O...oo   ",
"     ##o+.OOO..     ",
"          O         ",
"                    ",
"                    ",
"       X            ",
"      X             ",
"     o              ",
"    .         ..    ",
"   ooo       .XX.   ",
"   ooo       .XX.   ",
"  ....      ....    ",
"   ...     ...      ",
"   .OOOoooO..       ",
"  OOOO.O.OOO        ",
"  OO.+.X.OOo        ",
"   .++XXX..         ",
"   ++XXXXXOo       X",
"    oXXXX..O      X ",
"    #@XX++OO.. o o  ",
"    ##o++.OO..oo.   ",
"       +.OO...oo    ",
"         OO  .      ",
"                    ",
"                    ",
"        XX          ",
"       o            ",
"     .X             ",
"    ooo             ",
"    oo         ..   ",
"   ....       .XX.  ",
"   ...       ..XX   ",
"   O.O.   o .....   ",
"   OOOOOooO...      ",
"  OO.+.O.OOO.       ",
"   .++XX.OOoo       ",
"   +XXXXX..         ",
"   oXXXXXOoo        ",
"   #@XXX+.O         ",
"   ##oX++OO..     X ",
"     ++..OO..oo oX  ",
"       OOO...oo.    ",
"         O...oo     ",
"                    ",
"                    ",
"         XX         ",
"       .Xo          ",
"     ooo            ",
"     oo             ",
"    ...o            ",
"    ....        .   ",
"   O.O.        .X.  ",
"   OOOOOo    ..XXX. ",
"   ..O.O.ooO......  ",
"   +++XXOOOO..      ",
"   +XXXX.OOo        ",
"   oXXXX.O.o        ",
"  #@@XXXXOo         ",
"   #oXX+.O          ",
"    +++.OO.         ",
"      .OOO..        ",
"      OO....oo oXX  ",
"         ..oo.X     ",
"           oo       ",
"                    ",
"            X       ",
"       o.XoX        ",
"      oooo          ",
"      ..o           ",
"     ....           ",
"    O...            ",
"   OOOOO            ",
"   ..OOOoo      .X. ",
"   ++++XO.oo....XX. ",
"   oXXXX.OOO....XX  ",
"  #@XXXX.OOO.   ..  ",
"  #@XXXXO.oo        ",
"  #oXXXXOo          ",
"    ++++OO          ",
"     ..OO.          ",
"     OOO...         ",
"      O...o         ",
"       ..ooooXoXX   ",
"          oo.       ",
"                    ",
"                    ",
"        oo.XoXX     ",
"       .ooo         ",
"      ...o          ",
"     O....          ",
"    OOOO.           ",
"    ..OOO           ",
"   ++++.Oo          ",
"   oXXXXO.oo    ..  ",
"  #@XXXX.OOO....XX. ",
"  #@XXXX.OOO....XX. ",
"   oXXXXO.oo    ..  ",
"   ++++.Oo          ",
"    ..OOO           ",
"    OOOO.           ",
"     O....          ",
"      ...o          ",
"       .ooo         ",
"        oo.XoXX     ",
"                    ",
"                    ",
"          oo.       ",
"       ..ooooXoXX   ",
"      O...o         ",
"     OOO...         ",
"     ..OO.          ",
"    ++++OO          ",
"  #oXXXXOo          ",
"  #@XXXXO.oo        ",
"  #@XXXX.OOO.   ..  ",
"   oXXXX.OOO....XX  ",
"   ++++XO.oo....XX. ",
"   ..OOOoo      .X. ",
"   OOOOO            ",
"    O...            ",
"     ....           ",
"      ..o           ",
"      oooo          ",
"       o.XoX        ",
"            X       ",
"                    ",
"           oo       ",
"         ..oo.X     ",
"      OO....oo oXX  ",
"      .OOO..        ",
"    +++.OO.         ",
"   #oXX+.O          ",
"  #@@XXXXOo         ",
"   oXXXX.O.o        ",
"   +XXXX.OOo        ",
"   +++XXOOOO..      ",
"   ..O.O.ooO......  ",
"   OOOOOo    ..XXX. ",
"   O.O.        .X.  ",
"    ....        .   ",
"    ...o            ",
"     oo             ",
"     ooo            ",
"       .Xo          ",
"         XX         ",
"                    ",
"                    ",
"         O...oo     ",
"       OOO...oo.    ",
"     ++..OO..oo oX  ",
"   ##oX++OO..     X ",
"   #@XXX+.O         ",
"   oXXXXXOoo        ",
"   +XXXXX..         ",
"   .++XX.OOoo       ",
"  OO.+.O.OOO.       ",
"   OOOOOooO...      ",
"   O.O.   o .....   ",
"   ...       ..XX   ",
"   ....       .XX.  ",
"    oo         ..   ",
"    ooo             ",
"     .X             ",
"       o            ",
"        XX          ",
"                    ",
"                    ",
"         OO  .      ",
"       +.OO...oo    ",
"    ##o++.OO..oo.   ",
"    #@XX++OO..oo o  ",
"    oXXXX..O      X ",
"   ++XXXXXOo       X",
"   .++XXX..o        ",
"  OO.+.X.OOo        ",
"  OOOO.O.OOO        ",
"   .OOOo oO..       ",
"   ...     ...      ",
"  ....      ....    ",
"   oo        .XX.   ",
"   ooo       .XX.   ",
"    .         ..    ",
"     o              ",
"      X             ",
"       X            ",
"                    ",
"                    ",
"          O         ",
"     ##o+.OOO..     ",
"     #@XX+.O...oo   ",
"    +oXXX++OO..oo.  ",
"    +XXXXX.O. . oX  ",
"   O.+XXXXOO      o ",
"   O.++XX..o       X",
"  OOOO.O.OOo       X",
"  ..OOOo.OOOo       ",
"  .... o oO.        ",
"  ....   o...       ",
"  ooo      ...      ",
"  ooo       ...     ",
"   .        .XX.    ",
"    o       .XX.    ",
"    X         .     ",
"     X              ",
"                    ",
"                    ",
"                    ",
"       #            ",
"      #@o++.OO      ",
"     +o@XX+.O...    ",
"     +XXXX+OOO..oo  ",
"   O.+XXXXX.O...oo  ",
"   OO.+XXXXOO .o o. ",
"   .OO.X..O.o     X ",
"  ..OOOOOOOo      oX",
"  .... o.OOo       X",
" oo..   ooOO        ",
" ooo      ..        ",
"  .o      ...       ",
"  X        ..       ",
"   o       .X.      ",
"   X       .XX.     ",
"   X       .X.      ",
"            .       ",
"                    ",
"                    ",
"                    ",
"       ###          ",
"       o@@o+.O      ",
"      +XXXX+.OO     ",
"    O.+XXXX+OO..    ",
"   OO.+XXXX+OO...o  ",
"  ..OO+XXXXXOO...oo ",
"  ...OOOO..Oo  .oo. ",
"  o...Oo.OO.o    oX ",
" ooo.   oOOo      o ",
" oo     oOOo      X ",
" .o      ...       X",
"  X       ..        ",
"  o       ..        ",
"  X       ..        ",
"  X      .XX.       ",
"         .XXX       ",
"           ..       ",
"                    ",
"                    ",
"                    ",
"         ##         ",
"       +o@@o+       ",
"     O.+XXXX+.O     ",
"    OO.+XXXX+.OO    ",
"   ..OO+XXXX+OO..   ",
"  ...OO.XXXX.OO...  ",
" oo...OOO..OOO...oo ",
" ooo.  o.OO.o  .ooo ",
" .o     oOOo     o. ",
" X      oOOo      X ",
" o       ..       o ",
" X       ..       X ",
" X       ..       X ",
"         ..         ",
"        .XX.        ",
"        .XX.        ",
"         ..         ",
"                    ",
"                    ",
"                    ",
"          ###       ",
"      O.+o@@o       ",
"     OO.+XXXX+      ",
"    ..OO+XXXX+.O    ",
"  o...OO+XXXX+.OO   ",
" oo...OOXXXXX+OO..  ",
" .oo.  oO..OOOO...  ",
" Xo    o.OO.oO...o  ",
" o      oOOo   .ooo ",
" X      oOOo     oo ",
"X       ...      o. ",
"        ..       X  ",
"        ..       o  ",
"        ..       X  ",
"       .XX.      X  ",
"       XXX.         ",
"       ..           ",
"                    ",
"                    ",
"                    ",
"            #       ",
"      OO.++o@#      ",
"    ...O.+XX@o+     ",
"  oo..OOO+XXXX+     ",
"  oo...O.XXXXX+.O   ",
" .o o. OOXXXX+.OO   ",
" X     o.O..X.OO.   ",
"Xo      oOOOOOOO..  ",
"X       oOO.o ....  ",
"        OOoo   ..oo ",
"        ..      ooo ",
"       ...      o.  ",
"       ..        X  ",
"      .X.       o   ",
"     .XX.       X   ",
"      .X.       X   ",
"       .            ",
"                    ",
"                    ",
"                    ",
"         O          ",
"     ..OOO.+o##     ",
"   oo...O.+XX@#     ",
"  .oo..OO++XXXo+    ",
"  Xo . .O.XXXXX+    ",
" o      OOXXXX+.O   ",
"X       o..XX++.O   ",
"X       oOO.O.OOOO  ",
"       oOOO.oOOO..  ",
"        .Oo o ....  ",
"       ...o   ....  ",
"      ...      ooo  ",
"     ...       ooo  ",
"    .XX.        .   ",
"    .XX.       o    ",
"     .         X    ",
"              X     ",
"                    ",
"                    ",
"                    ",
"      .  OO         ",
"    oo...OO.+       ",
"   .oo..OO.++o##    ",
"  o o ..OO++XX@#    ",
" X      O..XXXXo    ",
"X       oOXXXXX++   ",
"         ..XXX++.   ",
"        oOO.X.+.OO  ",
"        OOO.O.OOOO  ",
"       ..OoooOOO.   ",
"      ...     ...   ",
"    ....      ....  ",
"   .XX.       ooo   ",
"   .XX.       ooo   ",
"    ..         .    ",
"              o     ",
"             X      ",
"            X       ",
"                    ",
"                    ",
"     oo...O         ",
"    .oo...OOO       ",
"  Xo oo..OO..++     ",
" X     ..OO++Xo##   ",
"         O.+XXX@#   ",
"        ooOXXXXXo   ",
"         ..XXXXX+   ",
"       ooOO.XX++.   ",
"       .OOO.O.+.OO  ",
"      ...OooOOOOO   ",
"   ..... o   .O.O   ",
"   XX..       ...   ",
"  .XX.       ....   ",
"   ..         oo    ",
"             ooo    ",
"             X.     ",
"            o       ",
"          XX        ",
"                    ",
"       oo           ",
"     X.oo..         ",
"  XXo oo....OO      ",
"        ..OOO.      ",
"         .OO.+++    ",
"          O.+XXo#   ",
"         oOXXXX@@#  ",
"        o.O.XXXXo   ",
"        oOO.XXXX+   ",
"      ..OOOOXX+++   ",
"  ......Ooo.O.O..   ",
" .XXX..    oOOOOO   ",
"  .X.        .O.O   ",
"   .        ....    ",
"            o...    ",
"             oo     ",
"            ooo     ",
"          oX.       ",
"         XX         ",
"                    ",
"       .oo          ",
"   XXoXoooo..       ",
"         o...O      ",
"         ...OOO     ",
"          .OO..     ",
"          OO++++    ",
"          oOXXXXo#  ",
"        oo.OXXXX@#  ",
"  ..   .OOO.XXXX@#  ",
"  XX....OOO.XXXXo   ",
" .XX....oo.OX++++   ",
" .X.      ooOOO..   ",
"            OOOOO   ",
"            ...O    ",
"           ....     ",
"           o..      ",
"          oooo      ",
"        XoX.o       ",
"       X            ",
"                    ",
"     XXoX.oo        ",
"         ooo.       ",
"          o...      ",
"          ....O     ",
"           .OOOO    ",
"           OOO..    ",
"          oO.++++   ",
"  ..    oo.OXXXXo   ",
" .XX....OOO.XXXX@#  ",
" .XX....OOO.XXXX@#  ",
"  ..    oo.OXXXXo   ",
"          oO.++++   ",
"           OOO..    ",
"           .OOOO    ",
"          ....O     ",
"          o...      ",
"         ooo.       ",
"     XXoX.oo        ",
"                    ",
"       X            ",
"        XoX.o       ",
"          oooo      ",
"           o..      ",
"           ....     ",
"            ...O    ",
"            OOOOO   ",
" .X.      ooOOO..   ",
" .XX....oo.OX++++   ",
"  XX....OOO.XXXXo   ",
"  ..   .OOO.XXXX@#  ",
"        oo.OXXXX@#  ",
"          oOXXXXo#  ",
"          OO++++    ",
"          .OO..     ",
"         ...OOO     ",
"         o...O      ",
"   XXoXoooo..       ",
"       .oo          ",
"                    ",
"         XX         ",
"          oX.       ",
"            ooo     ",
"             oo     ",
"            o...    ",
"   .        ....    ",
"  .X.        .O.O   ",
" .XXX..    oOOOOO   ",
"  ......Ooo.O.O..   ",
"      ..OOOOXX+++   ",
"        oOO.XXXX+   ",
"        o.O.XXXXo   ",
"         oOXXXX@@#  ",
"          O.+XXo#   ",
"         .OO.+++    ",
"        ..OOO.      ",
"  XXo oo....OO      ",
"     X.oo..         ",
"       oo           ",
"                    ",
"          XX        ",
"            o       ",
"             X.     ",
"             ooo    ",
"   ..         oo    ",
"  .XX.       ....   ",
"   XX..       ...   ",
"   ..... o   .O.O   ",
"      ...OooOOOOO   ",
"       .OOO.O.+.OO  ",
"       ooOO.XX++.   ",
"         ..XXXXX+   ",
"        ooOXXXXXo   ",
"         O.+XXX@#   ",
" X     ..OO++Xo##   ",
"  Xo oo..OO..++     ",
"    .oo...OOO       ",
"     oo...O         ",
"                    ",
"                    ",
"            X       ",
"             X      ",
"              o     ",
"    ..         .    ",
"   .XX.       ooo   ",
"   .XX.        oo   ",
"    ....      ....  ",
"      ...     ...   ",
"       ..Oo oOOO.   ",
"        OOO.O.OOOO  ",
"        oOO.X.+.OO  ",
"        o..XXX++.   ",
"X       oOXXXXX++   ",
" X      O..XXXXo    ",
"  o oo..OO++XX@#    ",
"   .oo..OO.++o##    ",
"    oo...OO.+       ",
"      .  OO         ",
"                    ",
"                    ",
"                    ",
"              X     ",
"     .         X    ",
"    .XX.       o    ",
"    .XX.        .   ",
"     ...       ooo  ",
"      ...      ooo  ",
"       ...o   ....  ",
"        .Oo o ....  ",
"       oOOO.oOOO..  ",
"X       oOO.O.OOOO  ",
"X       o..XX++.O   ",
" o      OOXXXX+.O   ",
"  Xo . .O.XXXXX+    ",
"  .oo..OO++XXXo+    ",
"   oo...O.+XX@#     ",
"     ..OOO.+o##     ",
"         O          ",
"                    ",
"                    ",
"                    ",
"       .            ",
"      .X.       X   ",
"     .XX.       X   ",
"      .X.       o   ",
"       ..        X  ",
"       ...      o.  ",
"        ..      ooo ",
"        OOoo   ..oo ",
"X       oOO.o ....  ",
"Xo      oOOOOOOO..  ",
" X     o.O..X.OO.   ",
" .o o. OOXXXX+.OO   ",
"  oo...O.XXXXX+.O   ",
"  oo..OOO+XXXX+     ",
"    ...O.+XX@o+     ",
"      OO.++o@#      ",
"            #       ",
"                    ",
"                    ",
"                    ",
"       ..           ",
"       XXX.         ",
"       .XX.      X  ",
"        ..       X  ",
"        ..       o  ",
"        ..       X  ",
"X       ...      o. ",
" X      oOOo     oo ",
" o      oOOo   .ooo ",
" Xo    o.OO.oO...o  ",
" .oo.  oO..OOOO...  ",
" oo...OOXXXXX+OO..  ",
"  o...OO+XXXX+.OO   ",
"    ..OO+XXXX+.O    ",
"     OO.+XXXX+      ",
"      O.+o@@o       ",
"          ###       ",
"                    ",
"                    ",
};
