/* XPM */
static char *bb0[] = {
/* width height ncolors chars_per_pixel */
"20  640 8 1"
/* colors */
"  c #000000",
"g c #00ff00",
"o c #949494",
"O c #a5a5a5",
"x c #b50000",
"% c #b5b5b5",
"@ c #c6c6c6",
"X c #ff0000",
/* pixels */
"                    ",
"                    ",
"        O  O        ",
"       o@  @o       ",
"       O@OO@O       ",
"       %@@@@%       ",
" @     og@@go     @ ",
" @      oggo      @ ",
" go     o%%o     og ",
" go  o  o%%o  o  og ",
" goo O oO%%Oo O oog ",
" goOOg%%%gg%%%gOOog ",
" ooOg%%Og@@gO%%gOoo ",
" o OOgOg@gg@gOgOO o ",
"   %O%Ogg@@ggO%O%   ",
"   o %Og@gg@gO% o   ",
"      %goXXog%      ",
"       % xx %       ",
"                    ",
"                    ",
"                    ",
"                    ",
"         O          ",
"        o@  @       ",
"  @     O@OO@o      ",
"  @     %@@@@O      ",
"  g     og@@g%      ",
" go     ogggoo      ",
" go  o  o%%o      @ ",
" goo O  o%%o     o@ ",
" ooOOg%oO%%Oo o  og ",
" ooOg%%%%gg%o O oog ",
"  OOgOgg@@@g%%gOOog ",
"  %O%Og@gg@g%%gOog  ",
"  o %Ogg@@ggOgOO o  ",
"     %g@gg@gO%O% o  ",
"      %oXXogO% o    ",
"       xxx %%       ",
"                    ",
"                    ",
"                    ",
"                    ",
"           O        ",
"   @     Oo@  O     ",
"   @     %@O @o     ",
"  go     o@@O@O     ",
"  go     g@@@@%     ",
" goo  o  ogggo      ",
" goO O  oo%%o       ",
"oooOOg oO%%o        ",
"  Og%%%%%%%o      @@",
"  %OgOOggg%Oo o  og ",
" o O%Og@@@g%%O o og ",
"   %Ogg@gg@O%gOOog  ",
"    %g@g@ggOg%gOog  ",
"    %goXg@gO%OOoo   ",
"      xXoggO%O% o   ",
"       x %%  o      ",
"                    ",
"                    ",
"                    ",
"                    ",
"    @               ",
"    @      o@       ",
"   go     %@O  O    ",
"  goo    o%@OO@o    ",
"  goo o   g@@@@O    ",
" ooO  o  ogg@@%     ",
"  oOOg o o%gooo     ",
"  OO%%%oO%%%o       ",
" oOOg%O%g%%o        ",
" o %Oggg@gOo        ",
"   %Oggg@@%% O    @ ",
"   %g@@@g@O%gO  og  ",
"   %goggggg%%OOoog  ",
"     xXg@gOgOgOog   ",
"     xxogO%%OOoo    ",
"       %%%% %  o    ",
"            o       ",
"                    ",
"                    ",
"      @             ",
"     @              ",
"    go      o O     ",
"   goo     %O@      ",
"  oooo    o%@O  O   ",
" oooO Oo   g@@O@    ",
"   OggO   og@@@Oo   ",
"  %O%%%ooo%ggg%%    ",
" oO%g%O%O%%%o o     ",
"  %%OgOgg%%o        ",
"   Ogg@@@gO         ",
"   ggg@g@g%o o      ",
"  %%og@@@OO%Oo    @ ",
"    xXgggg%%g  oo@  ",
"    xxoggOg%gOoog   ",
"      %gO%%OOoog    ",
"      %  %O% oo     ",
"          o  o      ",
"                    ",
"                    ",
"       @            ",
"     gg             ",
"    goo             ",
"  oooo       OoO    ",
"   oOO     o%@@     ",
"   OgOOO   o@@O     ",
" o%OO%g   oo@@OO@   ",
"   %g%%%oo%gg@@@o   ",
"  %%OgO%O%%%gg%%    ",
"  %Ogg@@g%%oo o     ",
"  %g@gg@@gO         ",
"  %ogg@gg%oo        ",
"   xXg@ggO% oo      ",
"   xxo@gg%%g        ",
"     ggOOg%O ooo@@  ",
"     %%%%OOOOoog    ",
"         OOoogg     ",
"        oo  o       ",
"                    ",
"         @          ",
"       gg@          ",
"     ggoo           ",
"   oooo             ",
"    oOOo            ",
"   %OgO o    %OoO   ",
"  oOO%gO    o@@@    ",
"   %%g%%o  og@O     ",
"   OOOO%Ooo%g@@O@O  ",
"  %ggg@g%%%%g@@@o   ",
"  %g@gg@g%%oogo%O   ",
"   og@g@g%Oo        ",
"  xXXg@@g%o         ",
"   xo@ggO%  o       ",
"    gggOO%gO        ",
"    %%O%g%O         ",
"      %OOgOOooo@@   ",
"        %Oooogg     ",
"       o  ogg       ",
"          o         ",
"                    ",
"       ggg@@        ",
"    oogoooo         ",
"      oOo           ",
"   o%OOO            ",
"    OOggOo          ",
"   %%g%%    o%Oo    ",
"  %OOO%%oo  og@@@   ",
"  %ggggg%Ooog@@O    ",
"   o@g@@g%%%g@@O    ",
"  xXg@g@g%%%gg@@@O  ",
"  xXg@g@%Ooooo%Oo   ",
"  xo@g@g%o          ",
"   %gggg%%          ",
"    %OOO%gOo        ",
"     %%ggO          ",
"      OOOOo         ",
"     o%Oooooog@@    ",
"        ooggg       ",
"                    ",
"                    ",
"      oogggg@@      ",
"       ooooo        ",
"    o%OOOo          ",
"     OOgO           ",
"    %%g%gOo         ",
"   %OOO%%           ",
"  %ggggO%o   o%Oo   ",
"   o@g@g%Oooog@@@O  ",
"  xXg@g@g%%%g@@O    ",
"  xXg@g@g%%%g@@O    ",
"   o@g@g%Oooog@@@O  ",
"  %ggggO%o   o%Oo   ",
"   %OOO%%           ",
"    %%g%gOo         ",
"     OOgO           ",
"    o%OOOo          ",
"       ooooo        ",
"      oogggg@@      ",
"                    ",
"                    ",
"        ooggg       ",
"     o%Oooooog@@    ",
"      OOOOo         ",
"     %%ggO          ",
"    %OOO%gOo        ",
"   %gggg%%          ",
"  xo@g@g%o          ",
"  xXg@g@%Ooooo%Oo   ",
"  xXg@g@g%%%gg@@@O  ",
"   o@g@@g%%%g@@O    ",
"  %ggggg%Ooog@@O    ",
"  %OOO%%oo  og@@@   ",
"   %%g%%    o%Oo    ",
"    OOggOo          ",
"   o%OOO            ",
"      oOo           ",
"    oogoooo         ",
"       ggg@@        ",
"                    ",
"          o         ",
"       o  ogg       ",
"        %Oooogg     ",
"      %OOgOOooo@@   ",
"    %%O%g%O         ",
"    gggOO%gO        ",
"   xo@ggO%  o       ",
"  xXXg@@g%o         ",
"   og@g@g%Oo        ",
"  %g@gg@g%%oogo%O   ",
"  %ggg@g%%%%g@@@o   ",
"   OOOO%Ooo%g@@O@O  ",
"   %%g%%o  og@O     ",
"  oOO%gO    o@@@    ",
"   %OgO o    %OoO   ",
"    oOOo            ",
"   oooo             ",
"     ggoo           ",
"       gg@          ",
"         @          ",
"                    ",
"        oo  o       ",
"         OOoogg     ",
"     %%%%OOOOoog    ",
"     ggOOg%O ooo@@  ",
"   xxo@gg%%g        ",
"   xXg@ggO% oo      ",
"  %ogg@gg%oo        ",
"  %g@gg@@gO         ",
"  %Ogg@@g%%oo o     ",
"  %%OgO%O%%%gg%%    ",
"   %g%%%oo%gg@@@o   ",
" o%OO%g   oo@@OO@   ",
"   OgOOO   o@@O     ",
"   oOO     o%@@     ",
"  oooo       OoO    ",
"    goo             ",
"     gg             ",
"       @            ",
"                    ",
"                    ",
"          o  o      ",
"      %  %O% oo     ",
"      %gO%%OOoog    ",
"    xxoggOg%gOoog   ",
"    xXgggg%%g ooo@  ",
"  %%og@@@OO%OO    @ ",
"   ggg@g@g%o o      ",
"   Ogg@@@gOo        ",
"  %%OgOgg%%o        ",
" oO%g%O%O%%%o o     ",
"  %O%%%o o%ggg%%    ",
"   OggO   og@@@Oo   ",
" oooO oo   g@@O@    ",
"  ooo     o%@O  O   ",
"   goo     %O@      ",
"    go      o O     ",
"     @              ",
"      @             ",
"                    ",
"                    ",
"            o       ",
"       %%%% %  o    ",
"     xxogO%%OOoo    ",
"     xXg@gOgOgOog   ",
"   %goggggg%%OOoog  ",
"   %g@@@g@O%gO  og  ",
"   %Oggg@@%% O    @ ",
" o %Oggg@gOo        ",
" oOOg%O%g%%o        ",
"  OO%%%oO%%%o       ",
"  oOOg o o%gooo     ",
" ooO  o  ogg@@%     ",
"  goo o   g@@@@O    ",
"  goo    o%@OO@o    ",
"   go     %@O  O    ",
"    @      o@       ",
"    @               ",
"                    ",
"                    ",
"                    ",
"                    ",
"       x %%  o      ",
"      xXoggO%O% o   ",
"    %goXg@gO%OOoo   ",
"    %g@g@ggOg%gOog  ",
"   %Ogg@gg@O%gOOog  ",
" o O%Og@@@g%%O o og ",
"  %OgOOggg%Oo o  og ",
"  Og%%%%%%%o      @@",
"oooOOg oO%%o        ",
" goO O  oo%%o       ",
" goo  o  ogggo      ",
"  go     g@@@@%     ",
"  go     o@@O@O     ",
"   @     %@O @o     ",
"   @     Oo@  O     ",
"           O        ",
"                    ",
"                    ",
"                    ",
"                    ",
"       xxx %%       ",
"      %oXXogO% o    ",
"     %g@gg@gO%O% o  ",
"  o %Ogg@@ggOgOO o  ",
"  %O%Og@gg@g%%gOog  ",
"  OOgOgg@@@g%%gOOog ",
" ooOg%%%%gg%o O oog ",
" ooOOg%oO%%Oo o  og ",
" goo O  o%%o     o@ ",
" go  o  o%%o      @ ",
" go     ogggoo      ",
"  g     og@@g%      ",
"  @     %@@@@O      ",
"  @     O@OO@o      ",
"        o@  @       ",
"         O          ",
"                    ",
"                    ",
"                    ",
"                    ",
"       % xx %       ",
"      %goXXog%      ",
"   o %Og@gg@gO% o   ",
"   %O%Ogg@@ggO%O%   ",
" o OOgOg@gg@gOgOO o ",
" ooOg%%Og@@gO%%gOoo ",
" goOOg%%%gg%%%gOOog ",
" goo O oO%%Oo O oog ",
" go  o  o%%o  o  og ",
" go     o%%o     og ",
" @      oggo      @ ",
" @     og@@go     @ ",
"       %@@@@%       ",
"       O@OO@O       ",
"       o@  @o       ",
"        O  O        ",
"                    ",
"                    ",
"                    ",
"                    ",
"       %% xxx       ",
"    o %OgoXXo%      ",
"  o %O%Og@gg@g%     ",
"  o OOgOgg@@ggO% o  ",
"  goOg%%g@gg@gO%O%  ",
" goOOg%%g@@@ggOgOO  ",
" goo O o%gg%%%%gOoo ",
" go  o oO%%Oo%gOOoo ",
" @o     o%%o  O oog ",
" @      o%%o  o  og ",
"      oogggo     og ",
"      %g@@go     g  ",
"      O@@@@%     @  ",
"      o@OO@O     @  ",
"       @  @o        ",
"          O         ",
"                    ",
"                    ",
"                    ",
"                    ",
"      o  %% x       ",
"   o %O%OggoXx      ",
"   ooOO%Og@gXog%    ",
"  goOg%gOgg@g@g%    ",
"  goOOg%O@gg@ggO%   ",
" go o O%%g@@@gO%O o ",
" go  o oO%gggOOgO%  ",
"@@      o%%%%%%%gO  ",
"        o%%Oo gOOooo",
"       o%%oo  O Oog ",
"      ogggo  o  oog ",
"     %@@@@g     og  ",
"     O@O@@o     og  ",
"     o@ O@%     @   ",
"     O  @oO     @   ",
"        O           ",
"                    ",
"                    ",
"                    ",
"       o            ",
"    o  % %%%%       ",
"    ooOO%%Ogoxx     ",
"   goOgOgOg@gXx     ",
"  gooOO%%gggggog%   ",
"  go  Og%O@g@@@g%   ",
" @    O %%@@gggO%   ",
"        oOg@gggO% o ",
"        o%%g%O%gOOo ",
"       o%%%Oo%%%OO  ",
"     ooog%o o gOOo  ",
"     %@@ggo  o  Ooo ",
"    O@@@@g   o oog  ",
"    o@OO@%o    oog  ",
"    O  O@%     og   ",
"       @o      @    ",
"               @    ",
"                    ",
"                    ",
"                    ",
"      o  o          ",
"     oo %O%  %      ",
"    gooOO%%Og%      ",
"   gooOg%gOggoxx    ",
"  @oo  g%%ggggXx    ",
" @    oO%OO@@@go%%  ",
"      o o%g@g@ggg   ",
"         Og@@@ggO   ",
"        o%%ggOgO%%  ",
"     o o%%%O%O%g%Oo ",
"    %%ggg%ooo%%%O%  ",
"   oO@@@go   OggO   ",
"    @O@@g   oO Oooo ",
"   O  O@%o    oooo  ",
"      @O%     oog   ",
"     O o      og    ",
"              @     ",
"             @      ",
"                    ",
"                    ",
"       o  oo        ",
"     ggooOO         ",
"    gooOOOO%%%%     ",
"  @@ooo O%gOOgg     ",
"        g%%gg@oxx   ",
"      oo %Ogg@gXx   ",
"        oo%gg@ggo%  ",
"         Og@@gg@g%  ",
"     o oo%%g@@ggO%  ",
"    %%gg%%%O%OgO%%  ",
"   o@@@gg%oo%%%g%   ",
"   @OO@@oo   g%OO%o ",
"     O@@o   OOOgO   ",
"     @@%o     OOo   ",
"    OoO       oooo  ",
"             oog    ",
"             gg     ",
"            @       ",
"                    ",
"         o          ",
"       ggo  o       ",
"     ggoooO%        ",
"   @@oooOOgOO%      ",
"         O%g%O%%    ",
"        Og%OOggg    ",
"       o  %Ogg@ox   ",
"         o%g@@gXXx  ",
"        oO%g@g@go   ",
"   O%ogoo%%g@gg@g%  ",
"   o@@@g%%%%g@ggg%  ",
"  O@O@@g%ooO%OOOO   ",
"     O@go  o%%g%%   ",
"    @@@o    Og%OOo  ",
"   OoO%    o OgO%   ",
"            oOOo    ",
"             oooo   ",
"           oogg     ",
"          @gg       ",
"          @         ",
"                    ",
"       gggoo        ",
"    @@goooooO%o     ",
"         oOOOO      ",
"          Ogg%%     ",
"        oOg%OOO%    ",
"          %%gggg%   ",
"          o%g@g@ox  ",
"   oO%ooooO%@g@gXx  ",
"  O@@@gg%%%g@g@gXx  ",
"    O@@g%%%g@@g@o   ",
"    O@@gooO%ggggg%  ",
"   @@@go  oo%%OOO%  ",
"    oO%o    %%g%%   ",
"          oOggOO    ",
"            OOO%o   ",
"           oOo      ",
"         oooogoo    ",
"        @@ggg       ",
"                    ",
"                    ",
"      @@ggggoo      ",
"        ooooo       ",
"          oOOO%o    ",
"           OgOO     ",
"         oOg%g%%    ",
"           %%OOO%   ",
"   oO%o   o%Ogggg%  ",
"  O@@@goooO%g@g@o   ",
"    O@@g%%%g@g@gXx  ",
"    O@@g%%%g@g@gXx  ",
"  O@@@goooO%g@g@o   ",
"   oO%o   o%Ogggg%  ",
"           %%OOO%   ",
"         oOg%g%%    ",
"           OgOO     ",
"          oOOO%o    ",
"        ooooo       ",
"      @@ggggoo      ",
"                    ",
"                    ",
"        @@ggg       ",
"         oooogoo    ",
"           oOo      ",
"            OOO%o   ",
"          oOggOO    ",
"    oO%o    %%g%%   ",
"   @@@go  oo%%OOO%  ",
"    O@@gooO%ggggg%  ",
"    O@@g%%%g@@g@o   ",
"  O@@@gg%%%g@g@gXx  ",
"   oO%ooooO%@g@gXx  ",
"          o%g@g@ox  ",
"          %%gggg%   ",
"        oOg%OOO%    ",
"          Ogg%%     ",
"         oOOOO      ",
"    @@goooooO%o     ",
"       gggoo        ",
"                    ",
"          @         ",
"          @gg       ",
"           oogg     ",
"             oooo   ",
"            oOOo    ",
"   OoO%    o OgO%   ",
"    @@@o    Og%OOo  ",
"     O@go  o%%g%%   ",
"  O@O@@g%ooO%OOOO   ",
"   o@@@g%%%%g@ggg%  ",
"   O%ogoo%%g@gg@g%  ",
"        oO%g@g@go   ",
"         o%g@@gXXx  ",
"       o  %Ogg@ox   ",
"        Og%OOggg    ",
"         O%g%O%%    ",
"   @@oooOOgOO%      ",
"     ggoooO%        ",
"       ggo  o       ",
"         o          ",
"                    ",
"            @       ",
"             gg     ",
"             oog    ",
"    OoO       oooo  ",
"     @@%o     OOo   ",
"     O@@o   OOOgO   ",
"   @OO@@oo   g%OO%o ",
"   o@@@gg%oo%%%g%   ",
"    %%gg%%%O%OgO%%  ",
"     o oo%%g@@ggO%  ",
"         Og@@gg@g%  ",
"        oo%gg@ggo%  ",
"      oo %Ogg@gXx   ",
"        g%%gg@oxx   ",
"  @@ooo O%gOOgg     ",
"    gooOOOO%%%%     ",
"     ggooOO         ",
"       o  oo        ",
"                    ",
"                    ",
"             @      ",
"              @     ",
"     O o      og    ",
"      @O%     oog   ",
"   O  O@%o     ooo  ",
"    @O@@g   oo Oooo ",
"   oO@@@go   OggO   ",
"    %%ggg%o o%%%O%  ",
"     o o%%%O%O%g%Oo ",
"        o%%ggOgO%%  ",
"        oOg@@@ggO   ",
"      o o%g@g@ggg   ",
" @    OO%OO@@@go%%  ",
"  @ooo g%%ggggXx    ",
"   gooOg%gOggoxx    ",
"    gooOO%%Og%      ",
"     oo %O%  %      ",
"      o  o          ",
"                    ",
"                    ",
"                    ",
"               @    ",
"       @o      @    ",
"    O  O@%     og   ",
"    o@OO@%o    oog  ",
"    O@@@@g   o oog  ",
"     %@@ggo  o  Ooo ",
"     ooog%o o gOOo  ",
"       o%%%Oo%%%OO  ",
"        o%%g%O%gOOo ",
"        oOg@gggO% o ",
" @    O %%@@gggO%   ",
"  go  Og%O@g@@@g%   ",
"  gooOO%%gggggog%   ",
"   goOgOgOg@gXx     ",
"    ooOO%%Ogoxx     ",
"    o  % %%%%       ",
"       o            ",
"                    ",
"                    ",
"                    ",
"        O           ",
"     O  @oO     @   ",
"     o@ O@%     @   ",
"     O@O@@o     og  ",
"     %@@@@g     og  ",
"      ogggo  o  oog ",
"       o%%oo  O Oog ",
"        o%%Oo gOOooo",
"@@      o%%%%%%%gO  ",
" go  o oO%gggOOgO%  ",
" go o O%%g@@@gO%O o ",
"  goOOg%O@gg@ggO%   ",
"  goOg%gOgg@g@g%    ",
"   ooOO%Og@gXog%    ",
"   o %O%OggoXx      ",
"      o  %% x       ",
"                    ",
"                    ",
"                    ",
"                    ",
"          O         ",
"       @  @o        ",
"      o@OO@O     @  ",
"      O@@@@%     @  ",
"      %g@@go     g  ",
"      oogggo     og ",
" @      o%%o  o  og ",
" @o     o%%o  O oog ",
" go  o oO%%Oo%gOOoo ",
" goo O o%gg%%%%gOoo ",
" goOOg%%g@@@ggOgOO  ",
"  goOg%%g@gg@gO%O%  ",
"  o OOgOgg@@ggO% o  ",
"  o %O%Og@gg@g%     ",
"    o %OgoXXo%      ",
"       %% xxx       ",
"                    ",
"                    ",
};
