/* XPM */
static char * C3_xpm[] = {
/* widht height color chars_per_color */
"20  640 7 1"
/* colors */
" 	c None",
".	c #0000A0A00000",
"X	c #0000C8C80000",
"o	c #0000FFFF0000",
"O	c #000078780000",
"+	c #000078780000",
"@	c #B0B000000000",
/* pixels */
"                    ",
"         . .        ",
"        .X X.       ",
"        .o o.       ",
"        Xo.oX       ",
"        .ooo.       ",
"        O.X.O       ",
"         OXO        ",
"         OXO        ",
"     O  OOXOO  O    ",
"     + O.XXX.O +    ",
"     +..XXOXX..+    ",
"     O..XoOoX..O    ",
"     OOOXo+oXOOO    ",
"     +  Xo+oX  +    ",
"     O   @+@   O    ",
"     O    O    O    ",
"          O         ",
"                    ",
"                    ",
"                    ",
"           .        ",
"         .X  .      ",
"         .o o.      ",
"         Xo.o.      ",
"         .oooX      ",
"         O.X..      ",
"         OXXOO      ",
"     O   OXO        ",
"     +  OOXOO       ",
"     +.O.XXX.  O    ",
"     O..XXOX.O +    ",
"    OOOXooOoX..+    ",
"    +  Xo+oX..O     ",
"    O  Xo+oXOOO     ",
"    O   @+@   +     ",
"         O    O     ",
"         O    O     ",
"                    ",
"                    ",
"                    ",
"            .       ",
"           .X .     ",
"           .o X     ",
"          Xo o..    ",
"          .o.oX     ",
"         O.Xoo.     ",
"      O   OX.O      ",
"     +  O OXO       ",
"     + O.OXO        ",
"    O...XXXOO       ",
"    OO.XXOXX.O O    ",
"    + OXoOoX. +     ",
"   O  Xoo+oX..+     ",
"   O   @+oXOO.O     ",
"        +@X  O      ",
"       O     +      ",
"       O    O       ",
"            O       ",
"                    ",
"                    ",
"                    ",
"              .     ",
"            .X      ",
"           Xoo X    ",
"           .o.o..   ",
"      O   O.oooX    ",
"      O   OOXo.     ",
"     + O OOXOOO     ",
"    OO.O.OXXO       ",
"    O..XXXXOO       ",
"   + OOXoOX.O       ",
"  OO  XoOOXXO OO    ",
"      oo+oX.. +     ",
"      @+oXX..+      ",
"      O+@X OOO      ",
"      O     +       ",
"           O        ",
"          OO        ",
"                    ",
"                    ",
"                    ",
"                    ",
"              ..    ",
"             .X     ",
"            .o  X   ",
"      +O   Ooo.o..  ",
"     ++    OXooX.   ",
"    OO.OOOOXX...    ",
"   +O....XXXO O     ",
"  O+ O.XXXXO        ",
"  O   XoOOXOO       ",
"     Xo+OoX.        ",
"     @++oXX.  O     ",
"     O+oXX...+      ",
"    OO  X O.O       ",
"           O        ",
"          +         ",
"         O          ",
"                    ",
"                    ",
"                    ",
"                    ",
"                    ",
"               ..   ",
"             X.XX   ",
"      ++    .oo  .  ",
"     O+     .o..o.  ",
"   +O...OOOOXXoo..  ",
"  OO O.X.XOXX...    ",
"      XoXXXOO O     ",
"     XooOOXO        ",
"    @@++oX..        ",
"     ++oXX.O        ",
"   OO @XX...+O      ",
"         O.++       ",
"         +O         ",
"        O+          ",
"       O            ",
"                    ",
"                    ",
"                    ",
"                    ",
"                    ",
"                    ",
"        O       .   ",
"     O++     .X.X.  ",
"   O+O..O   Oooo    ",
"  O  O...O OO.o.oX. ",
"     OXXXXOXXXoo..  ",
"     XooXXXOO.O.X   ",
"    @o+OOXXO        ",
"    O++ooX.O        ",
"   O @oXX.O         ",
"      X O.. O       ",
"        O.++        ",
"       +OO          ",
"      OO            ",
"                    ",
"                    ",
"                    ",
"                    ",
"                    ",
"                    ",
"                    ",
"       ++O          ",
"  OO+OO.            ",
"     O..OO   O.X.X. ",
"      OXX.O O.oooX  ",
"     XXoXXOOOXo.  . ",
"    @ooOOXXXX.oooX  ",
"  OO+++OXXOOOO.X..  ",
"  O @oooX.OO        ",
"      XX..O         ",
"       O..          ",
"       OO++O        ",
"    OO+O            ",
"                    ",
"                    ",
"                    ",
"                    ",
"                    ",
"                    ",
"                    ",
"                    ",
"   OO+OO++O         ",
"      O..           ",
"      O..O          ",
"     XXXX.O  O.X..  ",
"    @oooXXOOO.oooX. ",
"  OO+++OOXXXXXo.    ",
"    @oooXXOOO.oooX. ",
"     XXXX.O  O.X..  ",
"      O..O          ",
"      O..           ",
"   OO+OO++O         ",
"                    ",
"                    ",
"                    ",
"                    ",
"                    ",
"                    ",
"                    ",
"                    ",
"    OO+O            ",
"       OO++O        ",
"       O..          ",
"     XXX.O          ",
"    @oooX.O         ",
"  OO+++oXXOOOO.X..  ",
"    @ooOOXXXX.oooX  ",
"     XXoXXOOXXo.  . ",
"     O.X..O O.ooo   ",
"     O..O   O.X...  ",
"  OO+OO.            ",
"       ++O          ",
"                    ",
"                    ",
"                    ",
"                    ",
"                    ",
"                    ",
"                    ",
"     OO             ",
"       +OO          ",
"        O.++        ",
"      XO..  O       ",
"  OO @oXX.O         ",
"    ++ooXX.O        ",
"    @o+OOXO  O      ",
"    XXooXXXOO..X    ",
"     OXXXOOXXXoo..  ",
" OO  O...O O.o. oX. ",
"   +O.. O   Oooo    ",
"     O++     .X.X.  ",
"        O      .    ",
"                    ",
"                    ",
"                    ",
"                    ",
"                    ",
"                    ",
"       O            ",
"       O+           ",
"         OO         ",
"        O.O+        ",
"   OO@oXO.. OO      ",
"    ++ooXXOO        ",
"    @o+OoX.         ",
"    XXoOOXOO        ",
" O   XXXXXXOOO      ",
" OO O..X.OXXO..X    ",
"   +O..OOOOOXooo.   ",
"    O+     Ooo.oX   ",
"      +O   O.oo  .  ",
"       O     X.X    ",
"              .     ",
"                    ",
"                    ",
"                    ",
"                    ",
"                    ",
"        OO          ",
"         ++         ",
"    O     OO        ",
"    OO@X O.O+       ",
"     ++oX...++      ",
"     o++oX.O O      ",
"    XXoOOX.O        ",
" O   XXoOXXO        ",
"  + O.XXXXOO        ",
"   O....OOXOOO      ",
"    O.  O OX.o.     ",
"     +     .ooo.    ",
"      O   O.o.oX.   ",
"           .Xo X.   ",
"            ..X     ",
"             .      ",
"                    ",
"                    ",
"                    ",
"                    ",
"          O         ",
"     O    O+        ",
"     O @   O        ",
"      +@X O.O       ",
"     @++oX..++      ",
" O   Xo+ooX. +      ",
"  O  XXoOX.O        ",
"  ++O.XXOXXO        ",
"   O....XXOO        ",
"    +.O.OOXO        ",
"    ++   OXX..      ",
"     O    .XooX     ",
"         O.o.o.     ",
"          .o. X.    ",
"           .o X.    ",
"           ...      ",
"                    ",
"                    ",
"                    ",
"                    ",
"           O        ",
"      O     O       ",
"       O@   +       ",
"      @+oXOOOO      ",
"  O  Xo++oX..+      ",
"  O+  XoOoX..+      ",
"   OOOXoOXX.O O     ",
"   O...XXXXO        ",
"    +.O.XXO         ",
"    +  OOOXO        ",
"     O   OXOO       ",
"         .X.o.      ",
"         OoooX      ",
"         .o.o.      ",
"         X.o X.     ",
"          .X .      ",
"           .        ",
"                    ",
"                    ",
"                    ",
"       OO    O      ",
"        O    O      ",
"   O   @+@   +      ",
"   O   o+oX OO      ",
"   +  Xo+oXO.O      ",
"   OOOXoOOoX..+     ",
"    O..XXOXXO +     ",
"    +...XXX.O O     ",
"    + OOOXOO        ",
"    O  OOXO         ",
"        OXOO        ",
"        O.X.O       ",
"        .ooo.       ",
"        Xo.oX       ",
"        .o o.       ",
"        .X XX       ",
"          . .       ",
"                    ",
"                    ",
"                    ",
"         O          ",
"    O    O    O     ",
"    O   @+@   O     ",
"    +  Xo+oX  +     ",
"    OOOXo+oXOOO     ",
"    O..XoOoX..O     ",
"    +..XXOXX..+     ",
"    + O.XXX.O +     ",
"    O  OOXOO  O     ",
"        OXO         ",
"        OXO         ",
"       O.X.O        ",
"       .ooo.        ",
"       Xo.oX        ",
"       .o o.        ",
"       .X X.        ",
"        . .         ",
"                    ",
"                    ",
"                    ",
"     O    O         ",
"     O    O         ",
"     +   @+@   O    ",
"     OOOXo+oX  O    ",
"     O..Xo+oX  +    ",
"    +..XoOooXOOO    ",
"    + O.XOXX..O     ",
"    O  .XXX.O.+     ",
"       OOXOO  +     ",
"        OXO   O     ",
"      OOXXO         ",
"      ..X.O         ",
"      Xooo.         ",
"      .o.oX         ",
"      .o o.         ",
"      .  X.         ",
"        .           ",
"                    ",
"                    ",
"       O            ",
"       O    O       ",
"      +     O       ",
"      O  X@+        ",
"     O.OOXo+@   O   ",
"     +..Xo+ooX  O   ",
"     + .XoOoXO +    ",
"    O O.XXOXX.OO    ",
"       OOXXX...O    ",
"        OXO.O +     ",
"       OXO O  +     ",
"      O.XO   O      ",
"     .ooX.O         ",
"     Xo.o.          ",
"    ..o oX          ",
"     X o.           ",
"     . X.           ",
"       .            ",
"                    ",
"                    ",
"        OO          ",
"        O           ",
"       +     O      ",
"      OOO X@+O      ",
"      +..XXo+@      ",
"     + ..Xo+oo      ",
"    OO OXXOOoX  OO  ",
"       O.XOoXOO +   ",
"       OOXXXX..O    ",
"       OXXO.O.OO    ",
"     OOOXOO O +     ",
"     .oXOO   O      ",
"    Xooo.O   O      ",
"   ..o.o.           ",
"    X ooX           ",
"      X.            ",
"     .              ",
"                    ",
"                    ",
"                    ",
"          O         ",
"         +          ",
"        O           ",
"       O.O X  OO    ",
"      +...XXo+O     ",
"     O  .XXo++@     ",
"        .XoO+oX     ",
"       OOXOOoX   O  ",
"        OXXXX.O +O  ",
"     O OXOX....O+   ",
"    ...XOOOOO.OO    ",
"   .Xoo.O    ++     ",
"  ..o.ooO   O+      ",
"   X oo.            ",
"    XX.             ",
"    ..              ",
"                    ",
"                    ",
"                    ",
"                    ",
"            O       ",
"          +O        ",
"         O+         ",
"       ++.O         ",
"      O+...XX@ OO   ",
"        O.XXo++     ",
"        ..Xo++@@    ",
"        OXOOooX     ",
"     O OOXXXoX      ",
"    ...XXOX.X.O OO  ",
"  ..ooXXOOOO...O+   ",
"  .o..o.     +O     ",
"  .  oo.    ++      ",
"   XX.X             ",
"   ..               ",
"                    ",
"                    ",
"                    ",
"                    ",
"                    ",
"                    ",
"            OO      ",
"          OO+       ",
"        ++.O        ",
"       O ..O X      ",
"         O.XXo@ O   ",
"        O.Xoo++O    ",
"        OXXOO+o@    ",
"   X.O.OOXXXooX     ",
"  ..ooXXXOXXXXO     ",
" .Xo.o.OO O...O  O  ",
"    oooO   O..O+O   ",
"  .X.X.     ++O     ",
"   .       O        ",
"                    ",
"                    ",
"                    ",
"                    ",
"                    ",
"                    ",
"                    ",
"                    ",
"            O+OO    ",
"        O++OO       ",
"          ..O       ",
"         O..XX      ",
"        OO.Xooo@ O  ",
"  ..X.OOOOXXO+++OO  ",
"  Xooo.XXXXOOoo@    ",
" .  .oXOOOXXoXX     ",
"  Xooo.O O.XXO      ",
" .X.X.O   OO..O     ",
"            .OO+OO  ",
"          O++       ",
"                    ",
"                    ",
"                    ",
"                    ",
"                    ",
"                    ",
"                    ",
"                    ",
"                    ",
"         O++OO+OO   ",
"           ..O      ",
"          O..O      ",
"  ..X.O  O.XXXX     ",
" .Xooo.OOOXXooo@    ",
"    .oXXXXXOO+++OO  ",
" .Xooo.OOOXXooo@    ",
"  ..X.O  O.XXXX     ",
"          O..O      ",
"           ..O      ",
"         O++OO+OO   ",
"                    ",
"                    ",
"                    ",
"                    ",
"                    ",
"                    ",
"                    ",
"                    ",
"                    ",
"          O++       ",
"            .OO+OO  ",
"  ...X.O   O..O     ",
"   ooo.O O..X.O     ",
" .  .oXXOOXXoXX     ",
"  Xooo.XXXXOOoo@    ",
"  ..X.OOOOXXo+++OO  ",
"         O.Xooo@    ",
"          O.XXX     ",
"          ..O       ",
"        O++OO       ",
"            O+OO    ",
"                    ",
"                    ",
"                    ",
"                    ",
"                    ",
"                    ",
"                    ",
"                    ",
"    .      O        ",
"  .X.X.     ++O     ",
"    oooO   O ..O+   ",
" .Xo .o.O O...O  OO ",
"  ..ooXXXOOXXXO     ",
"    X..OOXXXooXX    ",
"      O  OXOO+o@    ",
"        O.XXoo++    ",
"         O.XXo@ OO  ",
"       O  ..OX      ",
"        ++.O        ",
"          OO+       ",
"             OO     ",
"                    ",
"                    ",
"                    ",
"                    ",
"                    ",
"                    ",
"     .              ",
"    X.X     O       ",
"  .  oo.O   O+      ",
"   Xo.ooO     +O    ",
"   .oooXOOOOO..O+   ",
"    X..OXXO.X..O OO ",
"      OOOXXXXXX   O ",
"        OOXOOoXX    ",
"         .XoO+o@    ",
"        OOXXoo++    ",
"      OO ..OXo@OO   ",
"        +O.O        ",
"         OO         ",
"           +O       ",
"            O       ",
"                    ",
"                    ",
"                    ",
"                    ",
"      .             ",
"     X..            ",
"   .X oX.           ",
"   .Xo.o.O   O      ",
"    .ooo.     +     ",
"     .o.XO O  .O    ",
"      OOOXOO....O   ",
"        OOXXXX.O +  ",
"        OXXOoXX   O ",
"        O.XOOoXX    ",
"      O O.Xo++o     ",
"      ++...Xo++     ",
"       +O.O X@OO    ",
"        OO     O    ",
"         ++         ",
"          OO        ",
"                    ",
"                    ",
"                    ",
"                    ",
"      ...           ",
"    .X o.           ",
"    .X .o.          ",
"     .o.o.O         ",
"     XooX.    O     ",
"      ..XXO   ++    ",
"        OXOO.O.+    ",
"        OOXX....O   ",
"        OXXOXX.O++  ",
"        O.XOoXX  O  ",
"      + .Xoo+oX   O ",
"      ++..Xo++@     ",
"       O.O X@+      ",
"        O   @ O     ",
"        +O    O     ",
"         O          ",
"                    ",
"                    ",
"                    ",
"        .           ",
"      . X.          ",
"     .X o.X         ",
"      .o.o.         ",
"      XoooO         ",
"      .o.X.         ",
"       OOXO   O     ",
"        OXOOO  +    ",
"         OXX.O.+    ",
"        OXXXX...O   ",
"     O O.XXOoXOOO   ",
"      +..XoOoX  +O  ",
"      +..Xo++oX  O  ",
"      OOOOXo+@      ",
"       +   @O       ",
"       O     O      ",
"        O           ",
"                    ",
"                    ",
"                    ",
"       . .          ",
"       XX X.        ",
"       .o o.        ",
"       Xo.oX        ",
"       .ooo.        ",
"       O.X.O        ",
"        OOXO        ",
"         OXOO  O    ",
"        OOXOOO +    ",
"     O O.XXX...+    ",
"     + OXXOXX..O    ",
"     +..XoOOoXOOO   ",
"      O.OXo+oX  +   ",
"      OO Xo+o   O   ",
"      +   @+@   O   ",
"      O    O        ",
"      O    OO       ",
"                    ",
"                    ",
};
