/* XPM */
static char * C3_xpm[] = {
"20 320 7 1",
" 	c None",
".	c #A1A1A1A1A1A1",
"X	c #909090909090",
"o	c #C1C1C1C1C1C1",
"O	c #B0B0B0B0B0B0",
"+	c #0000FFFE0000",
"@	c #FFFE00000000",
"                    ",
"                    ",
"        .  .        ",
"       Xo  oX       ",
"       .o..o.       ",
"      XOooooOX      ",
" o     XOooOX     o ",
" o      XOOX      o ",
" X      XOOX      X ",
" oX     XOOX     Xo ",
" XXX.  X.OO.X  .XXX ",
" oX...OOO..OOO...Xo ",
" XX..OO.oooo.OO..XX ",
" X...O.oooooo.O...X ",
"   ..O.+oooo+.O..   ",
"    OO.+oooo+.OO    ",
"     OO+X@@X+OO     ",
"      XO    OX      ",
"                    ",
"                    ",
"                    ",
"           XX       ",
"          Xo  X     ",
"   o     X.o  OX    ",
"   X     Oo...oX    ",
"  o      XOooo.X    ",
"  XX      .ooOOX    ",
"  oXX     OO. X     ",
" XX..X   XOO.       ",
" X....XXXOOOX      o",
"  ...OO...O.X      o",
"  ..O.o.oO..OX   XX ",
"   OO.+oooo..O..XXo ",
"   OO.+oooooOO..XXX ",
"    O+Xoooo+.O..Xo  ",
"    XO @@o+.OO...X  ",
"         X+OOO.     ",
"         OXOO       ",
"                    ",
"                    ",
"                    ",
"      o             ",
"     o       XXX    ",
"    XX     X.Oo     ",
"   oXX     OOo   X  ",
"  XXXX     Xoo. oX  ",
"  .X..X    XooooOX  ",
"  X..O.   XOOooO.   ",
"  ..OOOOX.OOOXXOX   ",
"  OOO....OOOX       ",
"  OO.+ooo.O.        ",
"   O++oooo.X        ",
"   O+ooooo.O        ",
"   O @oooo.O.X    o ",
"      @o++.OO.XXXo  ",
"       ++.OO..XXX   ",
"      OOOOO..XXo    ",
"         OO.X.X     ",
"                    ",
"                    ",
"                    ",
"         oo         ",
"      XoX           ",
"    XoXXX           ",
"    .XXX            ",
"    ....     XXXX   ",
"   .....    XO.o..  ",
"   O.OOOX    Oo.    ",
"  OOO.O.OXXXXoo.  X ",
"  XO.+o...OOOoo.ooX ",
"  .++ooo.OOOOXOo.X  ",
"  OXooooo.OX  XOX   ",
"    @oooo..         ",
"    @ooo..O         ",
"     X++oOO         ",
"    O+...O..        ",
"    XOOOO...X       ",
"      OO....XX Xo   ",
"        ...XoXo     ",
"          XX        ",
"                    ",
"      XXoXoXoo      ",
"      .XXXX         ",
"     ....X          ",
"    O.....          ",
"   OOOOO.           ",
"  XO...OO     X     ",
"  O+++o.OX   XO.X   ",
"   XooooO.XXXOooo.  ",
"   @oooo.OOOOoo.    ",
"   @oooo.OOOOoo.    ",
"   XooooO.XXXOooo.  ",
"  O+++o.OX   XO.X   ",
"  XO...OO     X     ",
"   OOOOO.           ",
"    O.....          ",
"     ....X          ",
"      .XXXX         ",
"      XXoXoXoo      ",
"                    ",
"                    ",
"          XX        ",
"        ...XoXo     ",
"      OO....XX Xo   ",
"    XOOOO...X       ",
"    O+...O.X        ",
"     X++oOX         ",
"    @ooo..X         ",
"    @oooo.X         ",
"  OXooooO.OX  XOX   ",
"  X++ooo.OOOO.Oo.X  ",
"  OO.+o...OOOoo.ooX ",
"  OOO.O.OXX..oo.  X ",
"   OOOOOX    Oo.    ",
"   .....    XO.oOX  ",
"    ....     XXXX   ",
"    .XXX            ",
"    XoXXX           ",
"      XoX           ",
"         oo         ",
"                    ",
"                    ",
"         OO.X.X     ",
"      OOOOO..XXo    ",
"       ++.OO..XXX   ",
"      @o++.OO.XXXo  ",
"   O @oooo.O.X    o ",
"   O+ooooo.O        ",
"   O++oooo.X        ",
"  OO.+ooo.O.        ",
"  OOO....OOOX       ",
"  ..OOOOX.OOOXXOX   ",
"  X..O.   XOOooO.   ",
"  .X..X    XooooOX  ",
"  XXXX     Xoo. oX  ",
"   oXX     OOo   X  ",
"    XX     X.oo     ",
"     o       XXX    ",
"      o             ",
"                    ",
"                    ",
"                    ",
"        O.XO        ",
"        X+OOO.      ",
"   XO @@o+.O....X   ",
"   O+Xoooo+.O...o   ",
"  OO.+oooooOO..Xo   ",
"  OO.+oooo..O..XXo  ",
" ..O.o.oo..OX   XX  ",
" ...OO...O.X      o ",
"X....OO.OOOX      o ",
"XX...   XOOX        ",
" oXX     OOX X      ",
" XX      XooOOX     ",
" o      XOooo.X     ",
"  X     Oo...oX     ",
"  o     X.o  OX     ",
"         Xo  X      ",
"          XX        ",
"                    ",
"                    ",
"                    ",
"      XO    OX      ",
"     OO+X@@X+OO     ",
"    OO.+oooo+.OO    ",
"   ..O.+oooo+.O..   ",
" X...O.oooooo.O...X ",
" XX..OO.oooo.OO..XX ",
" oX...OOO..OOO...Xo ",
" XXX.  X.OO.X  .XXX ",
" oX     XOOX     Xo ",
" X      XOOX      X ",
" o      XOOX      o ",
" o     XOooOX     o ",
"      XOooooOX      ",
"       .o..o.       ",
"       Xo  oX       ",
"        .  .        ",
"                    ",
"                    ",
"                    ",
"                    ",
"       OOXO         ",
"     .OOO+X         ",
"  X...OO.+o@@ OX    ",
"  oX..O.+ooooX+O    ",
" XXX..OOooooo+.OO   ",
" oXX..O..oooo+.OO   ",
" XX   XO..Oo.o.O..  ",
"o      X.O...OO...  ",
"o      XOOOXXX....X ",
"       .OOX   X..XX ",
"     X .OO     XXo  ",
"    XOOoo.      XX  ",
"    X.oooOX      o  ",
"    Xo...oO     X   ",
"    XO  o.X     o   ",
"     X  oX          ",
"       XX           ",
"                    ",
"                    ",
"                    ",
"     X.X.OO         ",
"    oXX..OOOOO      ",
"   XXX..OO.++       ",
"  oXXX.OO.++o@      ",
" o    X.O.oooo@ o   ",
"        O.ooooo+O   ",
"        X.oooo++O   ",
"        .O.ooo+.OO  ",
"       XOOO....OOO  ",
"   XOXXOOO.XOOOO..  ",
"   .OooOOX   .O..X  ",
"  XoooooX    X..X.  ",
"  Xo .ooX     XXXX  ",
"  X   oOO     XXo   ",
"     oO.X     XX    ",
"    XXX       o     ",
"             o      ",
"                    ",
"        XX          ",
"     oXoX...        ",
"   oX XX....OO      ",
"       X...OOOOX    ",
"        ..O...+O    ",
"         OOo++X     ",
"         O..ooo@    ",
"         ..oooo@    ",
"   XOX  XO.oooooXO  ",
"  X.oOXOOOO.ooo++.  ",
" Xoo.ooOOO...o+.OX  ",
" X  .ooXXXXO.O.OOO  ",
"    .oO    XOOO.O   ",
"  XOo.OX    .....   ",
"   XXXX     ....    ",
"            XXX.    ",
"           XXXoX    ",
"           Xo       ",
"         oo         ",
"                    ",
"                    ",
"      ooXoXoXX      ",
"         XXXX.      ",
"          X....     ",
"          .....O    ",
"           .OOOOO   ",
"     X     OO..OOX  ",
"   X.OX   XO.o+++O  ",
"  .oooOXXX.OooooX   ",
"    .ooOOOO.oooo@   ",
"    .ooOOOO.oooo@   ",
"  .oooOXXX.OooooX   ",
"   X.OX   XO.o+++O  ",
"     X     OO...OX  ",
"           .OOOOO   ",
"          .....O    ",
"          X....     ",
"         XXXX.      ",
"      ooXoXoXX      ",
"                    ",
"         oo         ",
"           XoX      ",
"           XXXoX    ",
"            XXXX    ",
"   XXXX     ....    ",
"  XOo.OX    .....   ",
"    .oO    XOOO..   ",
" X  .oo..XXO.O.OOO  ",
" Xoo.ooOOO...o+.OO  ",
"  X.oO.OOOO.ooo++X  ",
"   XOX  XO.OooooXO  ",
"         X.oooo@    ",
"         X..ooo@    ",
"         XOo++X     ",
"        X.O...+O    ",
"       X...OOOOX    ",
"   oX XX....OO      ",
"     oXoX...        ",
"        XX          ",
"                    ",
"                    ",
"             o      ",
"    XXX       o     ",
"     oo.X     XX    ",
"  X   oOO     XXo   ",
"  Xo .ooX     XXXX  ",
"  XOooooX    X.XX.  ",
"   .OooOOX   .O..X  ",
"   XOXXOOO.XOOOO..  ",
"       XOOO....OOO  ",
"        .O.ooo+.OO  ",
"        X.oooo++O   ",
"        O.ooooo+O   ",
" o    X.O.oooo@ O   ",
"  oXXX.OO.++o@      ",
"   XXX..OO.++       ",
"    oXX..OOOOO      ",
"     X.X.OO         ",
"                    ",
"                    ",
"                    ",
"        XX          ",
"      X  oX         ",
"     XO  o.X     o  ",
"     Xo...oO     X  ",
"     X.oooOX      o ",
"     XOOooX      XX ",
"      X XOO     XXo ",
"        XOOX   ...XX",
" o      XOOO.OO....X",
" o      X.O...OO... ",
"  XX   XO..oo.o.O.. ",
"  oXX..O..oooo+.OO  ",
"   XX..OOooooo+.OO  ",
"   oX..O.+ooooX+O   ",
"   X....O.+o@@ OX   ",
"      .OOO+X        ",
"        OX.O        ",
"                    ",
"                    "};
