/* XPM */
static char *ca0[] = {
/* width height ncolors chars_per_pixel */
"20  640 8 1"
/* colors */
"  c #000000",
"g c #00ff00",
"o c #949494",
"O c #a5a5a5",
"x c #b50000",
"% c #b5b5b5",
"@ c #c6c6c6",
"X c #ff0000",
/* pixels */
"                    ",
"                    ",
"         @@         ",
"        O@@O        ",
"        o@@o        ",
"        oOOo        ",
"        gOOg        ",
"   o     OO     o   ",
"   %     gg     %   ",
"   g     %%     g   ",
"   g %   %%   % g   ",
"   goO o gg o Oog   ",
"   oogO%o@@o%Ogoo   ",
"    oog%%gg%Ogoo    ",
"    o oOg@@gOo o    ",
"       o@XX@o       ",
"        oxxo        ",
"                    ",
"                    ",
"                    ",
"                    ",
"                    ",
"          @@@       ",
"         O@@O       ",
"         o@@o       ",
"         oOOo       ",
"    o    gOOg       ",
"   %     OOO        ",
"   g     gg     o   ",
"   g %   %%     %   ",
"   goO   %%     g   ",
"   oogOo gg   % g   ",
"   oog%o@@@oo Oog   ",
"   o oO%gg%OOgoo    ",
"      og@@gOgoo     ",
"       @XX@oo o     ",
"       oxxo         ",
"                    ",
"                    ",
"                    ",
"                    ",
"                    ",
"            @       ",
"           O@@      ",
"          o@@O      ",
"    o     oO@o      ",
"    %    gOOOo      ",
"   gg     OOg       ",
"   g %    gg        ",
"   ooO   %%         ",
"   ogO o %%     o   ",
"   oog%ogg      %   ",
"   o o%%@@oo % gg   ",
"     Og@gg%%OOog    ",
"     o@X@gOgogoo    ",
"      oxX@Oo o      ",
"       xo o  o      ",
"                    ",
"                    ",
"                    ",
"                    ",
"                    ",
"                    ",
"            O@@     ",
"     o     o@@@     ",
"     %     o@@O     ",
"    g     gOOOo     ",
"   g      OOOo      ",
"   ooO    gO        ",
"   ogg   %%g        ",
"  oooO% g%%         ",
"    o%%o@g      o   ",
"     Ogg@@ o %  %   ",
"    o@@@g%%OO% g    ",
"     oXXgOOOgog     ",
"      xX@Oooooo     ",
"       o    o       ",
"                    ",
"                    ",
"                    ",
"                    ",
"                    ",
"                    ",
"       o            ",
"      %      O@@    ",
"     g      o@@@    ",
"    g %    gOO@O    ",
"   ooO%    OOOo     ",
"   ogg    gOOg      ",
"  o oO%o %%g        ",
"    o%%og%%         ",
"    OO%@@g          ",
"    og@g@oo     o   ",
"    oX@@%%% %  %    ",
"     xXgOOOgO g     ",
"      ooOoogog      ",
"           oo       ",
"          o         ",
"                    ",
"                    ",
"                    ",
"                    ",
"                    ",
"       %o           ",
"      g             ",
"    og       oO@@   ",
"    oo%%    oO@@@   ",
"   oogO     OO@@O   ",
"    oOOo  gOOOoo    ",
"    o%%  %%gOg      ",
"    OO%@g%%         ",
"    @gg@@g          ",
"   oXX@go           ",
"    xX@gO%          ",
"     o@OOOgO  %o    ",
"      o oogo g      ",
"         ooog       ",
"         o          ",
"                    ",
"                    ",
"                    ",
"                    ",
"                    ",
"       g%o          ",
"     ogg            ",
"     oo             ",
"   oogO%     ooO@   ",
"     oO     gO@@@@  ",
"    og%o   gOOO@O   ",
"   oO%%o %%gOOoo    ",
"    @gg@g%%  g      ",
"   oX@g@g           ",
"   xxX@%oo          ",
"    o@gO%           ",
"     oOogOO%        ",
"        ogo g%o     ",
"       oooogg       ",
"                    ",
"                    ",
"                    ",
"                    ",
"                    ",
"                    ",
"       ggg%o        ",
"      oo            ",
"    oooO%           ",
"     og             ",
"    ogOo     gooO@  ",
"    oO%o    OOO@@@  ",
"   o@g%@g%%gOOO@@@  ",
"   xX@g@g%%gOgooO   ",
"   xX@g@            ",
"   o@g%oo           ",
"     oOOO           ",
"      oggO%         ",
"       ooo   o      ",
"      oooggg%       ",
"                    ",
"                    ",
"                    ",
"                    ",
"                    ",
"                    ",
"       oggg%o       ",
"     oooo           ",
"      ogO%          ",
"     ogO            ",
"    oO%%o           ",
"   o@g%o     gooO   ",
"   xX@g@g%%gOOO@@@  ",
"   xX@g@g%%gOOO@@@  ",
"   o@g%o     gooO   ",
"    oOO%o           ",
"     ogO            ",
"      ogO%          ",
"     oooo           ",
"       oggg%o       ",
"                    ",
"                    ",
"                    ",
"                    ",
"                    ",
"                    ",
"      oooggg%       ",
"       ooo   o      ",
"      oggO%         ",
"     oO%O           ",
"   o@g%oo           ",
"   xX@g@            ",
"   xX@g@g%%gOgooO   ",
"   o@g%@g%%gOOO@@@  ",
"    oOOo    OOO@@@  ",
"    ogOo     gooO@  ",
"     og             ",
"    oooO%           ",
"      oo            ",
"       ggg%o        ",
"                    ",
"                    ",
"                    ",
"                    ",
"                    ",
"                    ",
"       oooogg       ",
"        ogo g%o     ",
"     oOogOO%        ",
"    o@g%%           ",
"   xxX@%oo          ",
"   oX@g@g           ",
"    @gg@g%%  g      ",
"   oOO%o %%gOOoo    ",
"    og%o   gOOO@O   ",
"     oO     gO@@@@  ",
"   oogO%     ooO@   ",
"     oo             ",
"     ogg            ",
"       g%o          ",
"                    ",
"                    ",
"                    ",
"                    ",
"                    ",
"         o          ",
"         ooog       ",
"      o oogo g      ",
"     o@O%OgO  %o    ",
"    xX@g%%          ",
"   oXX@go           ",
"    @gg@@g          ",
"    OO%@g%%         ",
"    oO%  %%gOg      ",
"    oOOo  gOOOoo    ",
"   oogO     OO@@O   ",
"    oo%%    oO@@@   ",
"    og       oO@@   ",
"      g             ",
"       %o           ",
"                    ",
"                    ",
"                    ",
"                    ",
"                    ",
"          o         ",
"           oo       ",
"      ooOoogog      ",
"     xXgO%OgO g     ",
"    oX@@%%% %% %    ",
"    og@g@oo     o   ",
"    OO%@@g          ",
"    oO%og%%         ",
"  o oO%o %%g        ",
"   ogg    gOOg      ",
"   ooO%    OOOo     ",
"    g      gOO@O    ",
"     g      o@@@    ",
"      %      O@@    ",
"       o            ",
"                    ",
"                    ",
"                    ",
"                    ",
"                    ",
"                    ",
"       o    o       ",
"      xX@Oooooo     ",
"     oXXgO%Ogog     ",
"    o@@@g%%OO% g    ",
"     Ogg@@ o %  %   ",
"    oOOo@g      o   ",
"  oooO% g%%         ",
"   ogg   %%g        ",
"   ooO    gO        ",
"   g      OOOo      ",
"    g     gOOOo     ",
"     %     o@@O     ",
"     o     o@@@     ",
"            O@@     ",
"                    ",
"                    ",
"                    ",
"                    ",
"                    ",
"                    ",
"       xo o  o      ",
"      oxX@Oo o      ",
"     o@X@g%gogoo    ",
"     Og@gg%%OOog    ",
"   o oO%@@oo % gg   ",
"   oog%ogg      %   ",
"   ogO o %%     o   ",
"   ooO   %%         ",
"   g %    gg        ",
"   gg     OOg       ",
"    %    gOOOo      ",
"    o     oO@o      ",
"          o@@O      ",
"           O@@      ",
"            @       ",
"                    ",
"                    ",
"                    ",
"                    ",
"                    ",
"       oxxo         ",
"       @XX@oo o     ",
"      og@@gOgoo     ",
"   o oO%gg%%Ogoo    ",
"   oogOo@@@oo Oog   ",
"   oogOo gg   % g   ",
"   goO   %%     g   ",
"   g %   %%     %   ",
"   g     gg     o   ",
"   %     OOO        ",
"    o    gOOg       ",
"         oOOo       ",
"         o@@o       ",
"         O@@O       ",
"          @@@       ",
"                    ",
"                    ",
"                    ",
"                    ",
"                    ",
"        oxxo        ",
"       o@XX@o       ",
"    o oOg@@gOo o    ",
"    oogO%gg%%goo    ",
"   oogO%o@@o%Ogoo   ",
"   goO o gg o Oog   ",
"   g %   %%   % g   ",
"   g     %%     g   ",
"   %     gg     %   ",
"   o     OO     o   ",
"        gOOg        ",
"        oOOo        ",
"        o@@o        ",
"        O@@O        ",
"         @@         ",
"                    ",
"                    ",
"                    ",
"                    ",
"                    ",
"         oxxo       ",
"     o oo@XX@       ",
"     oogOg@@go      ",
"    oogOO%gg%Oo o   ",
"   goO oo@@@o%goo   ",
"   g %   gg oOgoo   ",
"   g     %%   Oog   ",
"   %     %%   % g   ",
"   o     gg     g   ",
"        OOO     %   ",
"       gOOg    o    ",
"       oOOo         ",
"       o@@o         ",
"       O@@O         ",
"       @@@          ",
"                    ",
"                    ",
"                    ",
"                    ",
"                    ",
"      o  o ox       ",
"      o oO@Xxo      ",
"    oogogOg@X@o     ",
"    goOO%%gg@gO     ",
"   gg % oo@@%%o o   ",
"   %      ggo%goo   ",
"   o     %% o Ogo   ",
"         %%   Ooo   ",
"        gg    % g   ",
"       gOO     gg   ",
"      oOOOg    %    ",
"      o@Oo     o    ",
"      O@@o          ",
"      @@O           ",
"       @            ",
"                    ",
"                    ",
"                    ",
"                    ",
"                    ",
"       o    o       ",
"     oooooO@Xx      ",
"     gogOOOgXXo     ",
"    g %OO%%g@@@o    ",
"   %  % o @@ggO     ",
"   o      g@o%%o    ",
"         %%g %Oooo  ",
"        g%%   ggo   ",
"        Og    Ooo   ",
"      oOOO      g   ",
"     oOOOg     g    ",
"     O@@o     %     ",
"     @@@o     o     ",
"     @@O            ",
"                    ",
"                    ",
"                    ",
"                    ",
"                    ",
"         o          ",
"       oo           ",
"      gogooOoo      ",
"     g OgOOOgXx     ",
"    %  % %%%@@Xo    ",
"   o     oo@g@go    ",
"          g@@%OO    ",
"         %%go%%o    ",
"        g%% o%Oo o  ",
"      gOOg    ggo   ",
"     oOOO    %Ooo   ",
"    O@OOg    % g    ",
"    @@@o      g     ",
"    @@O      %      ",
"            o       ",
"                    ",
"                    ",
"                    ",
"                    ",
"                    ",
"          o         ",
"       gooo         ",
"      g ogoo o      ",
"    o%  OgOOO@o     ",
"          %Og@Xx    ",
"           og@XXo   ",
"          g@@gg@    ",
"         %%g@%OO    ",
"      gOg%%  %%o    ",
"    ooOOOg  oOOo    ",
"   O@@OO     Ogoo   ",
"   @@@Oo    %%oo    ",
"   @@Oo       go    ",
"             g      ",
"           o%       ",
"                    ",
"                    ",
"                    ",
"                    ",
"                    ",
"                    ",
"       ggoooo       ",
"     o%g ogo        ",
"        %OOgoOo     ",
"           %Og@o    ",
"          oo%@Xxx   ",
"           g@g@Xo   ",
"      g  %%g@gg@    ",
"    ooOOg%% o%%Oo   ",
"   O@OOOg   o%go    ",
"  @@@@Og     Oo     ",
"   @Ooo     %Ogoo   ",
"             oo     ",
"            ggo     ",
"          o%g       ",
"                    ",
"                    ",
"                    ",
"                    ",
"                    ",
"                    ",
"       %gggooo      ",
"      o   ooo       ",
"         %Oggo      ",
"           OOOo     ",
"           oo%g@o   ",
"            @g@Xx   ",
"   OoogOg%%g@g@Xx   ",
"  @@@OOOg%%g@%g@o   ",
"  @@@OOO    o%Oo    ",
"  @Ooog     oOgo    ",
"             go     ",
"           %Oooo    ",
"            oo      ",
"        o%ggg       ",
"                    ",
"                    ",
"                    ",
"                    ",
"                    ",
"                    ",
"       o%gggo       ",
"           oooo     ",
"          %Ogo      ",
"            Ogo     ",
"           o%OOo    ",
"   Ooog     o%g@o   ",
"  @@@OOOg%%g@g@Xx   ",
"  @@@OOOg%%g@g@Xx   ",
"   Ooog     o%g@o   ",
"           o%%Oo    ",
"            Ogo     ",
"          %Ogo      ",
"           oooo     ",
"       o%gggo       ",
"                    ",
"                    ",
"                    ",
"                    ",
"                    ",
"                    ",
"        o%ggg       ",
"            oo      ",
"           %Oooo    ",
"             go     ",
"  @Ooog     oOgo    ",
"  @@@OOO    oOOo    ",
"  @@@OOOg%%g@%g@o   ",
"   OoogOg%%g@g@Xx   ",
"            @g@Xx   ",
"           oo%g@o   ",
"           O%Oo     ",
"         %Oggo      ",
"      o   ooo       ",
"       %gggooo      ",
"                    ",
"                    ",
"                    ",
"                    ",
"                    ",
"                    ",
"          o%g       ",
"            ggo     ",
"             oo     ",
"   @Ooo     %Ogoo   ",
"  @@@@Og     Oo     ",
"   O@OOOg   o%go    ",
"    ooOOg%% o%OOo   ",
"      g  %%g@gg@    ",
"           g@g@Xo   ",
"          oo%@Xxx   ",
"           %%g@o    ",
"        %OOgoOo     ",
"     o%g ogo        ",
"       ggoooo       ",
"                    ",
"                    ",
"                    ",
"                    ",
"                    ",
"                    ",
"           o%       ",
"             g      ",
"   @@Oo       go    ",
"   @@@Oo    %%oo    ",
"   O@@OO     Ogoo   ",
"    ooOOOg  oOOo    ",
"      gOg%%  %Oo    ",
"         %%g@%OO    ",
"          g@@gg@    ",
"           og@XXo   ",
"          %%g@Xx    ",
"    o%  OgO%O@o     ",
"      g ogoo o      ",
"       gooo         ",
"          o         ",
"                    ",
"                    ",
"                    ",
"                    ",
"                    ",
"            o       ",
"    @@O      %      ",
"    @@@o      g     ",
"    O@OOg      g    ",
"     oOOO    %Ooo   ",
"      gOOg    ggo   ",
"        g%% o%Oo o  ",
"         %%go%Oo    ",
"          g@@%OO    ",
"   o     oo@g@go    ",
"    % %% %%%@@Xo    ",
"     g OgO%OgXx     ",
"      gogooOoo      ",
"       oo           ",
"         o          ",
"                    ",
"                    ",
"                    ",
"                    ",
"                    ",
"     @@O            ",
"     @@@o     o     ",
"     O@@o     %     ",
"     oOOOg     g    ",
"      oOOO      g   ",
"        Og    Ooo   ",
"        g%%   ggo   ",
"         %%g %Oooo  ",
"   o      g@oOOo    ",
"   %  % o @@ggO     ",
"    g %OO%%g@@@o    ",
"     gogO%OgXXo     ",
"     oooooO@Xx      ",
"       o    o       ",
"                    ",
"                    ",
"                    ",
"                    ",
"                    ",
"       @            ",
"      @@O           ",
"      O@@o          ",
"      o@Oo     o    ",
"      oOOOg    %    ",
"       gOO     gg   ",
"        gg    % g   ",
"         %%   Ooo   ",
"   o     %% o Ogo   ",
"   %      ggo%goo   ",
"   gg % oo@@%Oo o   ",
"    goOO%%gg@gO     ",
"    oogog%g@X@o     ",
"      o oO@Xxo      ",
"      o  o ox       ",
"                    ",
"                    ",
"                    ",
"                    ",
"                    ",
"       @@@          ",
"       O@@O         ",
"       o@@o         ",
"       oOOo         ",
"       gOOg    o    ",
"        OOO     %   ",
"   o     gg     g   ",
"   %     %%   % g   ",
"   g     %%   Oog   ",
"   g %   gg oOgoo   ",
"   goO oo@@@oOgoo   ",
"    oogO%%gg%Oo o   ",
"     oogOg@@go      ",
"     o oo@XX@       ",
"         oxxo       ",
"                    ",
"                    ",
"                    ",
};
