/* XPM */
static char * C2_xpm[] = {
/* width height colors chars_per_color */
"20  640 9 1"
/* colors */
" 	c None",
".	c #0000C8C80000",
"X	c #0000FFFF0000",
"o	c #0000A0A00000",
"O	c #D0D0D0D0D0D0",
"+	c #000078780000",
"@	c #000078780000",
"#	c #000078780000",
"$	c #B0B000000000",
/* pixels */
"                    ",
"                    ",
"         .X.        ",
"        o.O.o       ",
"         o.o        ",
"          o         ",
"          o         ",
"          o         ",
"          o         ",
"          o         ",
"     +   ...   +    ",
"     +oo.....oo+    ",
"     @oo.XXX.oo@    ",
"     @oo.XXX.oo@    ",
"     @ o.XXX.o @    ",
"     +   +#+   +    ",
"     +         +    ",
"                    ",
"                    ",
"                    ",
"                    ",
"                    ",
"          .XX       ",
"         o.O.       ",
"          o.oo      ",
"           o        ",
"           o        ",
"          oo        ",
"          o         ",
"     +    o         ",
"     +o  ...        ",
"     @oo....   +    ",
"    @oo.XXXX.oo+    ",
"    @ o.XXX.oo@     ",
"    +  .XXX.oo@     ",
"    +   +#+ o @     ",
"              +     ",
"              +     ",
"                    ",
"                    ",
"                    ",
"                    ",
"            .       ",
"           o.X.     ",
"           oO.o     ",
"            .o      ",
"           oo       ",
"           o        ",
"     +     o        ",
"     +    o         ",
"    @ooo...         ",
"    @oo.....        ",
"    @ o.XXX.o +     ",
"   + o.XXXX.oo+     ",
"   +   +XX.ooo@     ",
"        #+.o @      ",
"             @      ",
"            +       ",
"            +       ",
"                    ",
"                    ",
"                    ",
"                    ",
"            o.X     ",
"            o.X.    ",
"            o..o    ",
"            ooo     ",
"            o       ",
"     +     o        ",
"    @@o   oo        ",
"    @oo....         ",
"   @ oo.X..         ",
"  ++ o.XXX..        ",
"      XXXX.oo +     ",
"      +#X..oo+      ",
"       #+.oo@@      ",
"            @       ",
"           +        ",
"          ++        ",
"                    ",
"                    ",
"                    ",
"                    ",
"                    ",
"             o.X    ",
"             oOX.   ",
"      +      o..    ",
"     ++     oo  o   ",
"    @@o    oo       ",
"   @@ooo .oo        ",
"  +@ oo...o         ",
"  + oo.XX..         ",
"     .XXXX.         ",
"     +XXX..o        ",
"      #X..ooo+      ",
"        .ooo@       ",
"           @        ",
"          @         ",
"         +          ",
"                    ",
"                    ",
"                    ",
"                    ",
"                    ",
"                    ",
"              o..   ",
"      ++      oOX   ",
"     @+       ...   ",
"   @@ooo    oo oo   ",
"  ++ oo. . oo       ",
"    oo.X..o         ",
"     .XXX..         ",
"    ++XXX.          ",
"     #XX..o         ",
"      +..ooo+       ",
"        ooo++       ",
"         @@         ",
"        +@          ",
"       +            ",
"                    ",
"                    ",
"                    ",
"                    ",
"                    ",
"                    ",
"                    ",
"     @++       o.   ",
"   +@@oo      o.OX  ",
"  +  ooo      o...  ",
"    oo.... ooo oo   ",
"     .XX..o         ",
"    +XXX...         ",
"     #XXX.          ",
"     +X..o          ",
"      .oooo         ",
"        oo++        ",
"       @@@          ",
"      ++            ",
"                    ",
"                    ",
"                    ",
"                    ",
"                    ",
"                    ",
"                    ",
"       ++           ",
"  ++@@@o            ",
"     ooo        o.  ",
"     oo..      o..  ",
"     ..X..   oo.OX  ",
"    +XXX..ooo  o..  ",
"    #XXX..      o   ",
"    +XXX.           ",
"      ..oo          ",
"      oooo          ",
"       o@++         ",
"    ++@@            ",
"                    ",
"                    ",
"                    ",
"                    ",
"                    ",
"                    ",
"                    ",
"                    ",
"   ++@@@++          ",
"      ooo           ",
"     oooo           ",
"     ....       o   ",
"    +XXX..     o..  ",
"    #XXX..ooooo.OX  ",
"    +XXX..     o..  ",
"     ....       o   ",
"     oooo           ",
"      ooo           ",
"   ++@@@++          ",
"                    ",
"                    ",
"                    ",
"                    ",
"                    ",
"                    ",
"                    ",
"                    ",
"    ++@@            ",
"       o@++         ",
"      oooo          ",
"     ...o           ",
"    +XXX.           ",
"    #XXX..      o   ",
"    +XXX..ooo  o..  ",
"     ..X..  ooo.OX  ",
"    ooo.       o.X  ",
"     ooo       o    ",
"  ++@@@o            ",
"       ++           ",
"                    ",
"                    ",
"                    ",
"                    ",
"                    ",
"                    ",
"                    ",
"     ++             ",
"       @@@          ",
"      o oo++        ",
"      .ooo          ",
"     +X..o          ",
"    #XXX..          ",
"    +XXX..          ",
"    ..XX..o         ",
"    oo...  ooo oo   ",
" ++  ooo     o.O..  ",
"   @@oo       o.X   ",
"     @++       o.   ",
"                    ",
"                    ",
"                    ",
"                    ",
"                    ",
"                    ",
"                    ",
"       +            ",
"       +@           ",
"         @@         ",
"       ooo@+        ",
"     +X.ooo         ",
"    ##XX..          ",
"    +XXXX.          ",
"    ..XX..          ",
" +  o.....o         ",
" ++ ooo.  oo        ",
"   @@oo     ooooo   ",
"    @+       o...   ",
"      +      o.XX   ",
"              o.    ",
"                    ",
"                    ",
"                    ",
"                    ",
"                    ",
"                    ",
"        ++          ",
"         @@         ",
"        o @@        ",
"      +.ooo@+       ",
"     #XX.ooo++      ",
"     XXXX.o         ",
"    ..XXX.          ",
" +  o..X...         ",
"  @ oo...o          ",
"   @ooo   o         ",
"    @o     o        ",
"     +      o oo    ",
"             ...    ",
"             .X.    ",
"            o .     ",
"                    ",
"                    ",
"                    ",
"                    ",
"                    ",
"          +         ",
"          +@        ",
"       + o @        ",
"      #+.ooo@       ",
"     +XXX.oo++      ",
" +   .XXXX.o +      ",
"  + o..XX.          ",
"  @@oo.....         ",
"   @ooo .o          ",
"    +o    o         ",
"    ++    oo        ",
"           o        ",
"            .oo     ",
"           o.O.     ",
"           o.X.     ",
"                    ",
"                    ",
"                    ",
"                    ",
"                    ",
"           +        ",
"            +       ",
"        + o @       ",
"      +#X.oo@@      ",
"  +  .XXXX.oo+      ",
"  +@ o.XXX.oo+      ",
"   @oo.X...         ",
"   @ooo....         ",
"    +o  .o          ",
"    +     o         ",
"          o         ",
"          o         ",
"           oo       ",
"          o..o      ",
"          o.O.      ",
"           .X       ",
"                    ",
"                    ",
"                    ",
"                    ",
"             +      ",
"             +      ",
"   +   +#+   @      ",
"   +   XXX.oo@      ",
"   @ o.XXX.oo@      ",
"   @oo.XXXX.oo+     ",
"    @oo.....  +     ",
"    +oo ...         ",
"    +    o          ",
"         o          ",
"         o          ",
"          o         ",
"          o         ",
"         o.o        ",
"        o.O.o       ",
"         .X..       ",
"                    ",
"                    ",
"                    ",
"                    ",
"                    ",
"    +         +     ",
"    +   +#+   +     ",
"    @ o.XXX.o @     ",
"    @oo.XXX.oo@     ",
"    @oo.XXX.oo@     ",
"    +oo.....oo+     ",
"    +   ...   +     ",
"         o          ",
"         o          ",
"         o          ",
"         o          ",
"         o          ",
"        o.o         ",
"       o.O.o        ",
"        .X.         ",
"                    ",
"                    ",
"                    ",
"                    ",
"     +              ",
"     +              ",
"     @ o +#+   +    ",
"     @oo.XXX.  +    ",
"     @oo.XXX.o @    ",
"    +oo.XXXX.oo@    ",
"    +   ....oo@     ",
"        ...  o+     ",
"         o    +     ",
"         o          ",
"        oo          ",
"        o           ",
"        o           ",
"      oo.o          ",
"       .O.o         ",
"       XX.          ",
"                    ",
"                    ",
"                    ",
"       +            ",
"       +            ",
"      @             ",
"      @ o.+#        ",
"     @ooo.XX+   +   ",
"     +oo.XXXX.o +   ",
"     + o.XXX.o @    ",
"        .....oo@    ",
"         ...ooo@    ",
"         o    +     ",
"        o     +     ",
"        o           ",
"       oo           ",
"      o.            ",
"     o.Oo           ",
"     .X.o           ",
"       .            ",
"                    ",
"                    ",
"                    ",
"        ++          ",
"        +           ",
"       @            ",
"      @@oo.+#       ",
"      +oo..X#+      ",
"     + oo.XXXX      ",
"        ..XXX.o ++  ",
"         ..X.oo @   ",
"         ....oo@    ",
"        oo   o@@    ",
"        o     +     ",
"       o            ",
"     ooo            ",
"    o..o            ",
"    .X.o            ",
"     X.o            ",
"                    ",
"                    ",
"                    ",
"                    ",
"          +         ",
"         @          ",
"        @           ",
"       @ooo.        ",
"      +ooo..X#      ",
"        o..XXX+     ",
"         .XXXX.     ",
"         ..XX.oo +  ",
"         o...oo @+  ",
"        o . ooo@@   ",
"       o     o@@    ",
"   o  o      ++     ",
"    ..       +      ",
"   .X.o             ",
"    ..o             ",
"                    ",
"                    ",
"                    ",
"                    ",
"                    ",
"            +       ",
"          @+        ",
"         @@         ",
"       ++ooo        ",
"       +ooo..+      ",
"         o..XX#     ",
"          .XXX++    ",
"         ..XXX.     ",
"         o..X.oo    ",
"       oo . .oo ++  ",
"   oo oo    ooo@@   ",
"   ...       +@     ",
"   XOo      ++      ",
"   ..o              ",
"                    ",
"                    ",
"                    ",
"                    ",
"                    ",
"                    ",
"                    ",
"            ++      ",
"          @@@       ",
"        ++oo        ",
"         oooo.      ",
"          o..X+     ",
"          .XXX#     ",
"         ...XXX+    ",
"         o..XX.     ",
"   oo ooo ....oo    ",
"  ...o      ooo  +  ",
"  XO.o      oo@@+   ",
"   .o       ++@     ",
"                    ",
"                    ",
"                    ",
"                    ",
"                    ",
"                    ",
"                    ",
"                    ",
"                    ",
"            @@++    ",
"         ++@o       ",
"          oooo      ",
"          oo..      ",
"           .XXX+    ",
"   o      ..XXX#    ",
"  ..o  ooo..XXX+    ",
"  XO.oo   ..X..     ",
"  ..o      ..oo     ",
"  .o        ooo     ",
"            o@@@++  ",
"           ++       ",
"                    ",
"                    ",
"                    ",
"                    ",
"                    ",
"                    ",
"                    ",
"                    ",
"                    ",
"          ++@@@++   ",
"           ooo      ",
"           oooo     ",
"   o       ....     ",
"  ..o     ..XXX+    ",
"  XO.ooooo..XXX#    ",
"  ..o     ..XXX+    ",
"   o       ....     ",
"           oooo     ",
"           ooo      ",
"          ++@@@++   ",
"                    ",
"                    ",
"                    ",
"                    ",
"                    ",
"                    ",
"                    ",
"                    ",
"                    ",
"           ++       ",
"            o@@@++  ",
"    o       ooo     ",
"  X.o       .ooo    ",
"  XO.ooo  ..X..     ",
"  ..o  ooo..XXX+    ",
"   o      ..XXX#    ",
"           .XXX+    ",
"           o...     ",
"          oooo      ",
"         ++@o       ",
"            @@++    ",
"                    ",
"                    ",
"                    ",
"                    ",
"                    ",
"                    ",
"                    ",
"                    ",
"                    ",
"   .o       ++@     ",
"   X.o       oo@@   ",
"  ..O.o     ooo  ++ ",
"   oo ooo  ...oo    ",
"         o..XX..    ",
"          ..XXX+    ",
"          ..XXX#    ",
"          o..X+     ",
"          ooo.      ",
"        ++oo o      ",
"          @@@       ",
"             ++     ",
"                    ",
"                    ",
"                    ",
"                    ",
"                    ",
"                    ",
"                    ",
"    .o              ",
"   XX.o      +      ",
"   ...o       +@    ",
"   ooooo     oo@@   ",
"        oo  .ooo ++ ",
"         o.....o  + ",
"          ..XX..    ",
"          .XXXX+    ",
"          ..XX##    ",
"         ooo.X+     ",
"        +@ooo       ",
"         @@         ",
"           @+       ",
"            +       ",
"                    ",
"                    ",
"                    ",
"                    ",
"                    ",
"     . o            ",
"    .X.             ",
"    ...             ",
"    oo o      +     ",
"        o     o@    ",
"         o   ooo@   ",
"          o...oo @  ",
"         ...X..o  + ",
"          .XXX..    ",
"         o.XXXX     ",
"      ++ooo.XX#     ",
"       +@ooo.+      ",
"        @@ o        ",
"         @@         ",
"          ++        ",
"                    ",
"                    ",
"                    ",
"                    ",
"                    ",
"     .X.o           ",
"     .O.o           ",
"     oo.            ",
"        o           ",
"        oo    ++    ",
"         o    o+    ",
"          o. ooo@   ",
"         .....oo@@  ",
"          .XX..o +  ",
"      + o.XXXX.   + ",
"      ++oo.XXX+     ",
"       @ooo.+#      ",
"        @ o +       ",
"        @+          ",
"         +          ",
"                    ",
"                    ",
"                    ",
"                    ",
"       X.           ",
"      .O.o          ",
"      o..o          ",
"       oo           ",
"         o          ",
"         o          ",
"         o     +    ",
"          o.  o+    ",
"         ....ooo@   ",
"         ...X.oo@   ",
"      +oo.XXX.o @+  ",
"      +oo.XXXX.  +  ",
"      @@oo.X#+      ",
"       @ o +        ",
"       +            ",
"        +           ",
"                    ",
"                    ",
"                    ",
"                    ",
"       ..X.         ",
"       o.O.o        ",
"        o.o         ",
"         o          ",
"         o          ",
"          o         ",
"          o         ",
"          o    +    ",
"         ... oo+    ",
"     +  .....oo@    ",
"     +oo.XXXX.oo@   ",
"      @oo.XXX.o @   ",
"      @oo.XXX   +   ",
"      @   +#+   +   ",
"      +             ",
"      +             ",
"                    ",
"                    ",
};
