/* XPM */
static char * C2_xpm[] = {
"20 320 7 1",
" 	c None",
".	c #C1C1C1C1C1C1",
"X	c #A1A1A1A1A1A1",
"o	c #909090909090",
"O	c #B0B0B0B0B0B0",
"+	c #0000FFFF0000",
"@	c #FFFF00000000",
"                    ",
"                    ",
"         ..         ",
"        ....        ",
"         ..         ",
"         XX         ",
"         XX         ",
"   o     XX     o   ",
"   o     XX     o   ",
"   o    oOOo    o   ",
"   +X   XOOX   X+   ",
"   +oXX OXXO XXo+   ",
"   +ooOO....OOoo+   ",
"   oooXX....XXooo   ",
"   o ooX+..+Xoo o   ",
"      oo.@@.oo      ",
"        o  o        ",
"                    ",
"                    ",
"                    ",
"                    ",
"                    ",
"           o..      ",
"           ...o     ",
"     o     ...      ",
"     o     XX       ",
"    o     oXO       ",
"    +X    XO        ",
"   +Xo   oOX        ",
"   +ooX oOOo     o  ",
"   ooXXOOOOo     o  ",
"  o oXOX.XXo    o   ",
"     oX....OOXXX+   ",
"     oo+...OXoo+    ",
"      oO@@+XXoo+    ",
"         .ooo  o    ",
"              o     ",
"                    ",
"                    ",
"                    ",
"                    ",
"                    ",
"                    ",
"       o      ..    ",
"      o       ...   ",
"     +       oO..   ",
"    +X      oOo     ",
"   +ooo    oOo      ",
"  ooooX  oOOo       ",
"    oXOOOOOO        ",
"    oXX.XOOo        ",
"    oX+..XO         ",
"     .@...O     o   ",
"       @+XOXo  o    ",
"       .XXXooo+     ",
"        ooooo+      ",
"           o+       ",
"           o        ",
"                    ",
"                    ",
"                    ",
"                    ",
"         oo         ",
"       +o           ",
"    o++X            ",
"   o ooX        o   ",
"     oXO       ...  ",
"    oXOO     oX...  ",
"    oXXOoooXXXX..o  ",
"    o+..XOOOO       ",
"    .@..XOOo        ",
"     @...Oo         ",
"     O+.XO          ",
"     ooXOXX         ",
"      ooXXXXX oo    ",
"        oooX+o      ",
"         o++        ",
"        o           ",
"                    ",
"                    ",
"                    ",
"                    ",
"                    ",
"     oo+++ooo       ",
"      oooX          ",
"     oooX           ",
"    ooXOX           ",
"    oXXO            ",
"   o.+..OXo     .   ",
"    @...XOOXXXX...  ",
"    @...XOOXXXX...  ",
"   o.+..OXo     .   ",
"    oXXO            ",
"    ooXOX           ",
"     oooX           ",
"      oooX          ",
"     oo+++ooo       ",
"                    ",
"                    ",
"                    ",
"                    ",
"                    ",
"        o           ",
"         o++        ",
"        oooX+o      ",
"      ooXXooX oo    ",
"     ooXOOX         ",
"     O+.XO          ",
"     @...Oo         ",
"    .@..XOOo        ",
"    o+..XOOOXo      ",
"    oXOOOooXOXX..o  ",
"    oXXO     OX...  ",
"     ooX       ...  ",
"   o ooX        o   ",
"    o++X            ",
"       +o           ",
"         oo         ",
"                    ",
"                    ",
"                    ",
"                    ",
"           o        ",
"           o+       ",
"        ooooo+      ",
"       .XXXooX+     ",
"       @+XOXo  o    ",
"     .@...O     o   ",
"    oX+..XO         ",
"    oXX.XOOo        ",
"    oXOOOOOO        ",
"  ooooX  oOOo       ",
"   +ooo    oOo      ",
"    +o      oOo     ",
"     +       oO..   ",
"      o       ...   ",
"       o      ..    ",
"                    ",
"                    ",
"                    ",
"                    ",
"                    ",
"                    ",
"              o     ",
"         .ooo  o    ",
"      oO@@+XXoo+    ",
"     oo+...XOXo+    ",
"     oX....OOXXX+   ",
"  o oXXX.XXO    o   ",
"   ooXXOOOOo     o  ",
"   +oXX oOOo     o  ",
"   +XX   oOX        ",
"    +X    OX        ",
"    o      Xo       ",
"     o     XX       ",
"     o     ...      ",
"           ...o     ",
"           o..      ",
"                    ",
"                    ",
"                    ",
"                    ",
"                    ",
"        o  o        ",
"      oo.@@.oo      ",
"   o ooX+..+Xoo o   ",
"   oooXX....XXooo   ",
"   +ooOO....OOoo+   ",
"   +oXX OXXO XXo+   ",
"   +X   XOOX   X+   ",
"   o    oOOo    o   ",
"   o     XX     o   ",
"   o     XX     o   ",
"         XX         ",
"         XX         ",
"         ..         ",
"        ....        ",
"         ..         ",
"                    ",
"                    ",
"                    ",
"                    ",
"                    ",
"     o              ",
"    o  ooo.         ",
"    +ooXX+@@Oo      ",
"    +ooXO...+oo     ",
"   +XXXOO....Xo     ",
"   o    OXX.XOXo o  ",
"  o     oOOOOOXoo   ",
"  o     oOOo Xoo+   ",
"        XOo   oX+   ",
"        OX    X+    ",
"       OXo     o    ",
"       XX     o     ",
"      ...     o     ",
"     o...           ",
"      ..o           ",
"                    ",
"                    ",
"                    ",
"                    ",
"        o           ",
"       +o           ",
"      +ooooo        ",
"     +oooXXX.       ",
"    o  oXOX+@       ",
"   o     O...@.     ",
"         OX..+Xo    ",
"        oOOX.XXo    ",
"        OOOOOOXo    ",
"       oOOo  Xoooo  ",
"      oOo    ooo+   ",
"     oOo      X+    ",
"   ..Oo       +     ",
"   ...       o      ",
"    ..      o       ",
"                    ",
"                    ",
"                    ",
"                    ",
"                    ",
"           o        ",
"        ++o         ",
"      o+Xooo        ",
"    oo XXXXXoo      ",
"         XXXXoo     ",
"          OX.+O     ",
"         oO...@     ",
"        oOOX..@.    ",
"       OOOOX..+o    ",
"  o..XXXXooOOXXo    ",
"  ...Xo     OOXo    ",
"  ...       XXo     ",
"   o        Xoo o   ",
"            X++o    ",
"           o+       ",
"         oo         ",
"                    ",
"                    ",
"                    ",
"                    ",
"                    ",
"       ooo+++oo     ",
"          Xooo      ",
"           Xooo     ",
"           XOXo     ",
"            OXXo    ",
"   .     oXO..+.o   ",
"  ...XXXXOOX...@    ",
"  ...XXXXOOX...@    ",
"   .     oXO..+.o   ",
"            OXXo    ",
"           XOXoo    ",
"           Xooo     ",
"          Xooo      ",
"       ooo+++oo     ",
"                    ",
"                    ",
"                    ",
"                    ",
"                    ",
"         oo         ",
"           o+       ",
"            X++o    ",
"   o        Xoo o   ",
"  ...       XXo     ",
"  ...XO     OOXo    ",
"  o..XXOXooOOOXo    ",
"      oXOOOX..+o    ",
"        oOOX..@.    ",
"         oO...@     ",
"          OX.+O     ",
"         XOOXoo     ",
"    oo XooXXoo      ",
"      o+Xooo        ",
"        ++o         ",
"           o        ",
"                    ",
"                    ",
"                    ",
"                    ",
"                    ",
"    ..      o       ",
"   ...       o      ",
"   ..Oo       +     ",
"     oOo      o+    ",
"      oOo    ooo+   ",
"       oOOo  Xoooo  ",
"        OOOOOOXo    ",
"        oOOX.XXo    ",
"         OX..+Xo    ",
"   o     O...@.     ",
"    o  oXOX+@       ",
"     +XooXXX.       ",
"      +ooooo        ",
"       +o           ",
"        o           ",
"                    ",
"                    ",
"                    ",
"                    ",
"      ..o           ",
"     o...           ",
"      ...     o     ",
"       XX     o     ",
"       oX      o    ",
"        XO    X+    ",
"        XOo   XX+   ",
"  o     oOOo XXo+   ",
"  o     oOOOOXXoo   ",
"   o    OXX.XXXo o  ",
"   +XXXOO....Xo     ",
"    +oXOX...+oo     ",
"    +ooXX+@@Oo      ",
"    o  ooo.         ",
"     o              ",
"                    ",
"                    ",
"                    "};
