/* XPM */
static char *dd0[] = {
/* width height ncolors chars_per_pixel */
"20  640 8 1"
/* colors */
"  c #000000",
"g c #00ff00",
"o c #909090",
"O c #a1a1a1",
"x c #b00000",
"% c #b0b0b0",
"@ c #c1c1c1",
"X c #ff0000",
/* pixels */
"                    ",
"                    ",
"                    ",
"         O          ",
"        O@O         ",
"        %@%         ",
"        o@o         ",
"         g          ",
"   @     %     @    ",
"   o     %     o    ",
"   gO O  %  O Og    ",
"   oog% ogo %goo    ",
"    ogO@g@g@Ogo     ",
"    o og@g@go o     ",
"      og@@@go       ",
"       oOXOo        ",
"         x          ",
"                    ",
"                    ",
"                    ",
"                    ",
"                    ",
"                    ",
"          O         ",
"         O@O        ",
"         %@%        ",
"         o@o        ",
"   @     g          ",
"   o     %          ",
"   gO O  %     @    ",
"   oog%  %  O  o    ",
"    ogO ogo O Og    ",
"   o ogg@@g@%goo    ",
"     og@g@gogo      ",
"      o@@@go o      ",
"       OXOo         ",
"        x           ",
"                    ",
"                    ",
"                    ",
"                    ",
"                    ",
"                    ",
"            O       ",
"          O@        ",
"          %@O       ",
"    @    o@o%       ",
"   go     g         ",
"   oO     %         ",
"    ogO  %          ",
"   ogO% o%     @    ",
"   o o@ggo  O  o    ",
"     og@@g@%gOg     ",
"     g@@g@gOgoo     ",
"     oOX@go oo      ",
"       xOoo         ",
"                    ",
"                    ",
"                    ",
"                    ",
"                    ",
"                    ",
"                    ",
"                    ",
"           O@O      ",
"     @     %@O      ",
"    g     o@%%      ",
"   oOO    ggo       ",
"    ogO   %         ",
"   ogg%  %          ",
"     O@og%          ",
"    oggg@o O   @    ",
"     g@ggg % Ooo    ",
"    oO@@@gOgoOg     ",
"      XOgoogoo      ",
"       Ooo o        ",
"                    ",
"                    ",
"                    ",
"                    ",
"                    ",
"                    ",
"                    ",
"                    ",
"      @             ",
"     g      %@      ",
"    oO     o@%O     ",
"    og O   go%      ",
"   ogg%   %         ",
"     O@  %          ",
"    og@gg           ",
"    gg@@go          ",
"    o@@@g@%O        ",
"     X@@gOOgO o     ",
"      Ogoogoog      ",
"        o oo        ",
"                    ",
"                    ",
"                    ",
"                    ",
"                    ",
"                    ",
"                    ",
"       @            ",
"      o             ",
"     oO      O      ",
"    oo      %@@     ",
"    oggO    @@OO    ",
"     OO   %g o      ",
"    og@o %%         ",
"    gg@@g           ",
"    O@g@go          ",
"    XX@@@ OO        ",
"    xO@goOg   @     ",
"      ooogoogo      ",
"         ooog       ",
"                    ",
"                    ",
"                    ",
"                    ",
"                    ",
"                    ",
"                    ",
"       o@           ",
"      og            ",
"     ooO            ",
"    ogg O    %O     ",
"      O%    o@@O    ",
"    oo@    %g@%O    ",
"   ogg@go%%  o      ",
"    O@g@g           ",
"    X@@go           ",
"   x O@g@%O         ",
"     ogoOg          ",
"      o  goOo@      ",
"        ooog        ",
"                    ",
"                    ",
"                    ",
"                    ",
"                    ",
"                    ",
"                    ",
"       ogo@         ",
"       oO           ",
"     oog            ",
"      g%O           ",
"    ooO      o%O    ",
"    ogggo   g@@@O   ",
"    O@@@g%%%go%O    ",
"   xX@ggo           ",
"    O@@g            ",
"    ogg@%O          ",
"      oogg          ",
"        ooO         ",
"       o ogo@       ",
"                    ",
"                    ",
"                    ",
"                    ",
"                    ",
"                    ",
"                    ",
"        ogo@        ",
"      oooO          ",
"       gg           ",
"     ooO%O          ",
"    ogg@            ",
"    O@@go    o%O    ",
"   xX@g@g%%%g@@@O   ",
"    O@@go    o%O    ",
"    ogg@            ",
"     ooO%O          ",
"       gg           ",
"      oooO          ",
"        ogo@        ",
"                    ",
"                    ",
"                    ",
"                    ",
"                    ",
"                    ",
"                    ",
"       o ogo@       ",
"        ooO         ",
"      oogg          ",
"     oggO%O         ",
"    O@@g            ",
"   xX@g@o           ",
"    O@@@g%%%go%O    ",
"    ogggo    @@@O   ",
"     oo@     o%O    ",
"      g%OO          ",
"     oog            ",
"       oO           ",
"       ogo@         ",
"                    ",
"                    ",
"                    ",
"                    ",
"                    ",
"                    ",
"                    ",
"        oo og       ",
"         goOo@      ",
"     ogooOg         ",
"     O@g@%O         ",
"    xX@@g           ",
"    O@g@go          ",
"    og@go%%  o      ",
"    oog@   %g@%O    ",
"      O%     o@@    ",
"     oggO    %O O   ",
"     ooO            ",
"      og            ",
"        o@          ",
"                    ",
"                    ",
"                    ",
"                    ",
"                    ",
"                    ",
"                    ",
"          o o       ",
"      o o goOg      ",
"      OggOggO @     ",
"     X@@g@%O        ",
"    OO@ggo          ",
"    og@g@g          ",
"    ooggo%%         ",
"     oO    %go      ",
"    ogg%O   g@%O    ",
"     oo     o%@@    ",
"     oOO     %OO    ",
"      go            ",
"       o@           ",
"                    ",
"                    ",
"                    ",
"                    ",
"                    ",
"                    ",
"                    ",
"           o        ",
"       ogo goo      ",
"      X@ggOggOg     ",
"     O@@@@@%   @    ",
"     g@@@g  O       ",
"    oogggg          ",
"     oO@o %         ",
"    ogO%  %%        ",
"    oogO   ggo      ",
"     oO     @@%     ",
"     g      %@@     ",
"      o      OO     ",
"                    ",
"                    ",
"                    ",
"                    ",
"                    ",
"                    ",
"                    ",
"                    ",
"                    ",
"      xXOgo oo      ",
"      OX@ggOgoo     ",
"     o@@g@@Og Oo    ",
"     og@@@o O   @   ",
"     oo@gg          ",
"    ogO o %         ",
"    oogO  %%        ",
"    oo O   g        ",
"    gg      @%      ",
"     o     o@@O     ",
"      @     O@      ",
"            O       ",
"                    ",
"                    ",
"                    ",
"                    ",
"                    ",
"                    ",
"                    ",
"       x  o         ",
"        XOgo o      ",
"      oO@@go go     ",
"     og@@g@@Ogoo    ",
"      ogg@g % Ogo   ",
"    o O@ogo  O  @   ",
"    ogg%  %         ",
"    oo O  %         ",
"    gO     %        ",
"     o     go       ",
"     @    o@@%      ",
"           %@O      ",
"           OO       ",
"                    ",
"                    ",
"                    ",
"                    ",
"                    ",
"                    ",
"                    ",
"         x          ",
"       oOXOoo       ",
"       g@@@go o     ",
"      og@g@gOgo     ",
"    o o@gg@g %goo   ",
"     og% ogo O Og   ",
"    oogO  %     o   ",
"    gO    %     @   ",
"    o     %         ",
"    @     gg        ",
"          o@o       ",
"          %@%       ",
"          O@O       ",
"           O        ",
"                    ",
"                    ",
"                    ",
"                    ",
"                    ",
"                    ",
"          x         ",
"        oOXOo       ",
"       og@@@go      ",
"     o og@g@go o    ",
"     ogO@g@g@Ogo    ",
"    oog% ogo %goo   ",
"    gO O  %  O Og   ",
"    o     %     o   ",
"    @     %     @   ",
"          g         ",
"         o@o        ",
"         %@%        ",
"         O@O        ",
"          O         ",
"                    ",
"                    ",
"                    ",
"                    ",
"                    ",
"                    ",
"           x        ",
"         oOXO       ",
"      o og@@@o      ",
"      ogog@g@go     ",
"    oog%@g@@ggo o   ",
"    gO O ogo Ogo    ",
"    o  O  %  %goo   ",
"    @     %  O Og   ",
"          %     o   ",
"          g     @   ",
"        o@o         ",
"        %@%         ",
"        O@O         ",
"         O          ",
"                    ",
"                    ",
"                    ",
"                    ",
"                    ",
"                    ",
"                    ",
"         ooOx       ",
"      oo og@XOo     ",
"     oogOg@g@@g     ",
"     gOg%@g@@go     ",
"    o  O  ogg@o o   ",
"    @     %o %Ogo   ",
"          %  Ogo    ",
"         %     Oo   ",
"         g     og   ",
"       %o@o    @    ",
"       O@%          ",
"        @O          ",
"       O            ",
"                    ",
"                    ",
"                    ",
"                    ",
"                    ",
"                    ",
"                    ",
"        o ooO       ",
"      oogoogOX      ",
"     gOogOg@@@Oo    ",
"    ooO % ggg@g     ",
"    @   O o@gggo    ",
"          %go@O     ",
"          %  %ggo   ",
"         %   Ogo    ",
"       ogg    OOo   ",
"      %%@o     g    ",
"      O@%     @     ",
"      O@O           ",
"                    ",
"                    ",
"                    ",
"                    ",
"                    ",
"                    ",
"                    ",
"                    ",
"        oo o        ",
"      googoogO      ",
"     o OgOOg@@X     ",
"        O%@g@@@o    ",
"          og@@gg    ",
"           gg@go    ",
"         %%  @O     ",
"        g%   %ggo   ",
"      %@g   O go    ",
"     O@@o     Oo    ",
"     O@%      g     ",
"             @      ",
"                    ",
"                    ",
"                    ",
"                    ",
"                    ",
"                    ",
"                    ",
"                    ",
"       gooo         ",
"      ogoogooo      ",
"     @   gOog@Ox    ",
"        OO @@@XX    ",
"          og@g@O    ",
"           g@@gg    ",
"         %% o@go    ",
"      o g%   OO     ",
"    OO@@    Oggo    ",
"     @@%      oo    ",
"      O      Oo     ",
"             o      ",
"            @       ",
"                    ",
"                    ",
"                    ",
"                    ",
"                    ",
"                    ",
"                    ",
"        gooo        ",
"      @oOog  o      ",
"          gOogo     ",
"         O%@g@O x   ",
"           og@@X    ",
"           g@g@O    ",
"      o  %%og@ggo   ",
"    O%@g%    @oo    ",
"    O@@o    %O      ",
"     O%    O ggo    ",
"            Ooo     ",
"            go      ",
"           @o       ",
"                    ",
"                    ",
"                    ",
"                    ",
"                    ",
"                    ",
"                    ",
"       @ogo o       ",
"         Ooo        ",
"          ggoo      ",
"          O%@ggo    ",
"            g@@O    ",
"           ogg@Xx   ",
"    O%og%%%g@@@O    ",
"   O@@@g   ogggo    ",
"    O%o      Ooo    ",
"           O%g      ",
"            goo     ",
"           Oo       ",
"         @ogo       ",
"                    ",
"                    ",
"                    ",
"                    ",
"                    ",
"                    ",
"                    ",
"        @ogo        ",
"          Oooo      ",
"           gg       ",
"          O%Ooo     ",
"            @ggo    ",
"    O%o    og@@O    ",
"   O@@@g%%%g@g@Xx   ",
"    O%o    og@@O    ",
"            @ggo    ",
"          O%Ooo     ",
"           gg       ",
"          Oooo      ",
"        @ogo        ",
"                    ",
"                    ",
"                    ",
"                    ",
"                    ",
"                    ",
"                    ",
"         @ogo       ",
"           Oo       ",
"            goo     ",
"          OO%g      ",
"    O%o     @oo     ",
"   O@@@    ogggo    ",
"    O%og%%%g@@@O    ",
"           o@g@Xx   ",
"            g@@O    ",
"         O%Oggo     ",
"          ggoo      ",
"         Ooo        ",
"       @ogo o       ",
"                    ",
"                    ",
"                    ",
"                    ",
"                    ",
"                    ",
"                    ",
"          @o        ",
"            go      ",
"            Ooo     ",
"   O O%    Oggo     ",
"    @@o     %O      ",
"    O%@g%   @goo    ",
"      o  %%og@go    ",
"          og@g@O    ",
"           g@@Xx    ",
"         O%@g@O     ",
"         gOoogo     ",
"      @oOog         ",
"       go oo        ",
"                    ",
"                    ",
"                    ",
"                    ",
"                    ",
"                    ",
"                    ",
"           @o       ",
"            og      ",
"    OO%     OOo     ",
"    @@%o     oo     ",
"    O%@g   O%ggo    ",
"      og%    Oo     ",
"         %%oggoo    ",
"          g@g@go    ",
"          ogg@OO    ",
"        O%@g@@X     ",
"     @ OggOggO      ",
"      gOog o o      ",
"       o o          ",
"                    ",
"                    ",
"                    ",
"                    ",
"                    ",
"                    ",
"                    ",
"                    ",
"     OO      o      ",
"     @@%      g     ",
"     %@@     Oo     ",
"      ogg   Ogoo    ",
"        %%  %Ogo    ",
"         % o@Oo     ",
"          ggggoo    ",
"       O  g@@@g     ",
"    @   %@@@@@O     ",
"     gOggOgg@X      ",
"      oog ogo       ",
"        o           ",
"                    ",
"                    ",
"                    ",
"                    ",
"                    ",
"                    ",
"                    ",
"       O            ",
"      @O     @      ",
"     O@@o     o     ",
"      %@      gg    ",
"        g   O oo    ",
"        %%  Ogoo    ",
"         % o Ogo    ",
"          gg@oo     ",
"   @   O o@@@go     ",
"    oO gO@@g@@o     ",
"     oogOgg@XO      ",
"      oo ogOXx      ",
"                    ",
"                    ",
"                    ",
"                    ",
"                    ",
"                    ",
"                    ",
"                    ",
"       OO           ",
"      O@%           ",
"      %@@o    @     ",
"       og     o     ",
"        %     Og    ",
"         %  O oo    ",
"         %  %ggo    ",
"   @  O  ogo@O o    ",
"   ogO % g@ggo      ",
"    oogO@@g@@go     ",
"     og og@@Oo      ",
"      o ogOX        ",
"         o  x       ",
"                    ",
"                    ",
"                    ",
"                    ",
"                    ",
"                    ",
"        O           ",
"       O@O          ",
"       %@%          ",
"       o@o          ",
"        gg     @    ",
"         %     o    ",
"   @     %    Og    ",
"   o     %  Ogoo    ",
"   gO O ogo %go     ",
"   oog% g@gg@o o    ",
"     ogOg@g@go      ",
"     o og@@@g       ",
"       ooOXOo       ",
"          x         ",
"                    ",
"                    ",
"                    ",
};
