/* XPM */
static char * C1_xpm[] = {
/* width height colors chars_per_color */
"20  640 8 1"
/* colors */
" 	c None",
".	c #000078780000",
"X	c #0000C8C80000",
"o	c #0000FFFF0000",
"O	c #0000A0A00000",
"+	c #000078780000",
"@	c #000078780000",
"#	c #D0D0D0D0D0D0",
/* pixels */
"                    ",
"          .         ",
"         XoX        ",
"         .X.        ",
"          O         ",
"          O         ",
"          O         ",
"          O         ",
"         .O.        ",
"         OXO        ",
"         OXO        ",
"    .   .OXO.   .   ",
"    +  .OXXXO.  +   ",
"    +OOOXoooXOOO+   ",
"    .OOOXoooXOOO.   ",
"         O@O        ",
"                    ",
"                    ",
"                    ",
"                    ",
"                    ",
"            .       ",
"          Xoo       ",
"          .X.       ",
"           O        ",
"           O        ",
"           O        ",
"          OO        ",
"         .O.        ",
"         OXO        ",
"    .    OXO        ",
"    +   .OXO        ",
"   +OOOOXXXX.   .   ",
"   .OOOXoooX.  +    ",
"       XoooXOOO+    ",
"        O@O OOO.    ",
"                    ",
"                    ",
"                    ",
"                    ",
"                    ",
"                    ",
"            X.      ",
"            .oX     ",
"            X.      ",
"            O       ",
"           OO       ",
"           O        ",
"          .O        ",
"    .    OX.        ",
"   +    .OXO        ",
"   +OO.OOXOO        ",
"   .OOOXXXX.        ",
"     OXooooO.  .    ",
"       OooXOO  +    ",
"        @OXOOO+     ",
"             O.     ",
"                    ",
"                    ",
"                    ",
"                    ",
"                    ",
"                    ",
"             Xo.    ",
"             .oX    ",
"             O.     ",
"            OO      ",
"            O       ",
"    .     .O        ",
"   +     OXO.       ",
"  ..O ..OOXO        ",
"   OOOOOXXO         ",
"     OXoXXO.        ",
"      ooooO.        ",
"      O@oXX.  .     ",
"       @OXOOO +     ",
"           OO+      ",
"            .       ",
"                    ",
"                    ",
"                    ",
"                    ",
"                    ",
"                    ",
"              Xo.   ",
"              XoX   ",
"             OO.    ",
"    +       OO      ",
"   +      .OO       ",
"  .OO .  OXO        ",
"   OOO.OOXXO        ",
"    OOXXXXO         ",
"     XooXX.         ",
"     OoooOO         ",
"      @oXX.         ",
"        XOO  .      ",
"         OOO+       ",
"          O.        ",
"                    ",
"                    ",
"                    ",
"                    ",
"                    ",
"                    ",
"                    ",
"               XX.  ",
"    +.         Xo   ",
"   .+         OO.   ",
"   OO     . OO      ",
"    OO.. OOOO       ",
"    OOXXOXXO.       ",
"     XoXXXO         ",
"    OOooXO          ",
"     @ooXO          ",
"      OXX.          ",
"        OO          ",
"        OOO+.       ",
"         O+         ",
"                    ",
"                    ",
"                    ",
"                    ",
"                    ",
"                    ",
"                    ",
"     +.             ",
"   .+           X   ",
"    OO         .Xo. ",
"    OO.    .  OO.X  ",
"    OOXO.OOOOO      ",
"     XoXOXX.        ",
"    OooXXOOO        ",
"     @ooX.          ",
"     OoXO           ",
"      XOO.          ",
"       OO           ",
"       OO +.        ",
"        .+          ",
"                    ",
"                    ",
"                    ",
"                    ",
"                    ",
"                    ",
"       .            ",
"    .++             ",
"    OO              ",
"    OO           X  ",
"     OOO.       .X. ",
"     XXXOOO. OOOXo  ",
"    OooXXXXOO   .X  ",
"    @ooXOOO.        ",
"    OooX.           ",
"      XX.           ",
"      OO            ",
"      OO            ",
"      OO+.          ",
"      .+            ",
"                    ",
"                    ",
"                    ",
"                    ",
"                    ",
"                    ",
"     .++.           ",
"     OO             ",
"     OO             ",
"     OO.            ",
"     XXO.           ",
"    OooXOOO.    .X  ",
"    @ooXXXXOOOOOXo. ",
"    OooXOOO.    .X  ",
"     XXO.           ",
"     OO.            ",
"     OO             ",
"     OO             ",
"     .++.           ",
"                    ",
"                    ",
"                    ",
"                    ",
"                    ",
"                    ",
"      .+            ",
"      OO+.          ",
"      OO            ",
"      OO            ",
"     XXO            ",
"    OooX.           ",
"    @ooXOOO.        ",
"    OooXXXXOO   .X  ",
"     XXXOOO.OOOOXo  ",
"    OO..        .o. ",
"    OO              ",
"    OO              ",
"    .++             ",
"       .            ",
"                    ",
"                    ",
"                    ",
"                    ",
"                    ",
"                    ",
"       .++          ",
"       OO .         ",
"      OOO           ",
"      XO.           ",
"     OoXO           ",
"    @ooXO.          ",
"    OooXXOO         ",
"    XXoXOXX.        ",
"    OOO.OO.OOO      ",
"    OO.      OOX.X  ",
"   OO          .o.  ",
"   .+           X   ",
"     +.             ",
"                    ",
"                    ",
"                    ",
"                    ",
"                    ",
"                    ",
"         .          ",
"        O.+         ",
"        OO .        ",
"       OO           ",
"     OoXO.          ",
"    @@ooO.          ",
"    OooXXO          ",
"    XXoXXOO         ",
"    OXOOOXX.        ",
"   OO... OOO        ",
"  .OO     . OO      ",
"   +         OO.X   ",
"    +.        .oo   ",
"               X.   ",
"                    ",
"                    ",
"                    ",
"                    ",
"                    ",
"                    ",
"          .         ",
"         OO+        ",
"        OOO +       ",
"      OXOO          ",
"     @ooX..         ",
"     oooXO          ",
"    XXoXXO          ",
"   OOXOXXXO         ",
"  OOO.O.OXO.        ",
"  .O     OO         ",
"   +       O        ",
"    .       O       ",
"             O.X    ",
"             .oX    ",
"              X.    ",
"                    ",
"                    ",
"                    ",
"                    ",
"                    ",
"                    ",
"           O.       ",
"       O OOO++      ",
"      @OXOO  .      ",
"     OoooX.         ",
"     XooXX.         ",
"   OOXXXXO          ",
"  OOO.OOXXO         ",
"  +O    OXO.        ",
"   +     OO         ",
"   .     .OO        ",
"           O        ",
"            O       ",
"            OXX     ",
"            .oX     ",
"              .     ",
"                    ",
"                    ",
"                    ",
"                    ",
"                    ",
"             .      ",
"        O OOO+      ",
"      O@oXOOO +     ",
"     XooooX.  .     ",
"   OOOXoXXO         ",
"  .OOOOXXO.         ",
"  +  . .OXO         ",
"   +    OXO         ",
"   .    O.O.        ",
"          O         ",
"          O         ",
"           O        ",
"           O.       ",
"           .XX      ",
"           Xo       ",
"            .       ",
"                    ",
"                    ",
"                    ",
"                    ",
"                    ",
"       O@O  OO.     ",
"       oooXOOO+     ",
"  .OOOXoooXO  +     ",
"  +OOOXXXXXO   .    ",
"   +  ..OXO.        ",
"   .    OXO         ",
"        OXO         ",
"        .O.         ",
"         O          ",
"          O         ",
"          O         ",
"          O         ",
"         .X.        ",
"         XoXX       ",
"           .        ",
"                    ",
"                    ",
"                    ",
"                    ",
"                    ",
"        O@O         ",
"   .OOOXoooXOOO.    ",
"   +OOOXoooXOOO+    ",
"   +  .OXXXO.  +    ",
"   .   .OXO.   .    ",
"        OXO         ",
"        OXO         ",
"        .O.         ",
"         O          ",
"         O          ",
"         O          ",
"         O          ",
"        .X.         ",
"        XoX         ",
"         .          ",
"                    ",
"                    ",
"                    ",
"                    ",
"                    ",
"    .OOO O@O        ",
"    +OOOXoooX       ",
"    +  .XoooXOOO.   ",
"   .   .XXXXOOOO+   ",
"        OXO.   +    ",
"        OXO    .    ",
"        OXO         ",
"        .O.         ",
"        OO          ",
"        O           ",
"        O           ",
"        O           ",
"       .X.          ",
"       ooX          ",
"       .            ",
"                    ",
"                    ",
"                    ",
"                    ",
"     .O             ",
"     +OOOXO@        ",
"    +  OOXooO       ",
"    .  .OooooXO     ",
"        .XXXXOOO.   ",
"        OOXOO.OO+   ",
"        OXO.    +   ",
"        .XO    .    ",
"        O.          ",
"        O           ",
"       OO           ",
"       O            ",
"      .X            ",
"     Xo.            ",
"      .X            ",
"                    ",
"                    ",
"                    ",
"                    ",
"       .            ",
"      +OO           ",
"     + OOOXO@       ",
"     .  .XXo@O      ",
"        .Ooooo      ",
"        .OXXoXO     ",
"         OXXOOOOO   ",
"        OXOO.. O..  ",
"       .OXO     +   ",
"        O.     .    ",
"       O            ",
"      OO            ",
"     .O             ",
"    Xo.             ",
"    .oX             ",
"                    ",
"                    ",
"                    ",
"                    ",
"                    ",
"        .O          ",
"       +OOO         ",
"      .  OOX        ",
"         .XXo@      ",
"         OOoooO     ",
"         .XXooX     ",
"         OXXXXOO    ",
"        OXXOO.OOO   ",
"        OOO  . OO.  ",
"       O .      +   ",
"      O        +    ",
"    .O              ",
"   Xo.              ",
"   .XX              ",
"                    ",
"                    ",
"                    ",
"                    ",
"                    ",
"                    ",
"         +O         ",
"       .+OOO        ",
"          OO        ",
"          .XXO      ",
"          OXoo@     ",
"          OXooOO    ",
"         OXXXoX     ",
"       .OXXOXXOO    ",
"       OOOO ..OO    ",
"      OO .     OO   ",
"   .OO         +.   ",
"   oX         .+    ",
"  .XX               ",
"                    ",
"                    ",
"                    ",
"                    ",
"                    ",
"                    ",
"                    ",
"          +.        ",
"        .+ OO       ",
"           OO       ",
"          .OOX      ",
"           OXoO     ",
"          .Xoo@     ",
"        OOOXXooO    ",
"        .XXOXoX     ",
"      OOOOO.OXOO    ",
"  X.OO  .    .OO    ",
" .oX.         OO    ",
"   X           +.   ",
"             .+     ",
"                    ",
"                    ",
"                    ",
"                    ",
"                    ",
"                    ",
"                    ",
"            +.      ",
"          .+OO      ",
"            OO      ",
"            OO      ",
"           .XX      ",
"           .XooO    ",
"        .OOOXoo@    ",
"  X.   OOXXXXooO    ",
"  oXOOO .OOOXXX     ",
" .X.       .OOO     ",
"  X           OO    ",
"              OO    ",
"             ++.    ",
"            .       ",
"                    ",
"                    ",
"                    ",
"                    ",
"                    ",
"                    ",
"                    ",
"           .++.     ",
"             OO     ",
"             OO     ",
"            .OO     ",
"           .OXX     ",
"  X.    .OOOXooO    ",
" .oXOOOOOXXXXoo@    ",
"  X.    .OOOXooO    ",
"           .OXX     ",
"            .OO     ",
"             OO     ",
"             OO     ",
"           .++.     ",
"                    ",
"                    ",
"                    ",
"                    ",
"                    ",
"                    ",
"                    ",
"            .       ",
"             ++.    ",
"              OO    ",
"              OO    ",
" .o.        ..OO    ",
"  oXOOOO.OOOXXX     ",
"  X.   OOXXXXooO    ",
"        .OOOXoo@    ",
"           .XooO    ",
"            OXX     ",
"            OO      ",
"            OO      ",
"          .+OO      ",
"            +.      ",
"                    ",
"                    ",
"                    ",
"                    ",
"                    ",
"                    ",
"                    ",
"             .+     ",
"   X           +.   ",
"  .o.          OO   ",
"  X.XOO      .OO    ",
"      OOO.OO.OOO    ",
"        .XXOXoXX    ",
"         OOXXooO    ",
"          .OXoo@    ",
"           OXoO     ",
"           .OX      ",
"           OOO      ",
"         . OO       ",
"          ++.       ",
"                    ",
"                    ",
"                    ",
"                    ",
"                    ",
"                    ",
"                    ",
"   .X               ",
"   oo.        .+    ",
"   X.OO         +   ",
"      OO .     OO.  ",
"        OOO ...OO   ",
"        .XXOOOXO    ",
"         OOXXoXX    ",
"          OXXooO    ",
"          .Ooo@@    ",
"          .OXoO     ",
"           OO       ",
"        . OO        ",
"         +.O        ",
"          .         ",
"                    ",
"                    ",
"                    ",
"                    ",
"                    ",
"    .X              ",
"    Xo.             ",
"    X.O             ",
"       O       .    ",
"        O       +   ",
"         OO     O.  ",
"        .OXO.O.OOO  ",
"         OXXXOXOO   ",
"          OXXoXX    ",
"          OXooo     ",
"         ..Xoo@     ",
"          OOXO      ",
"       + OOO        ",
"        +OO         ",
"         .          ",
"                    ",
"                    ",
"                    ",
"                    ",
"     .              ",
"     Xo.            ",
"     XXO            ",
"       O            ",
"        O           ",
"        OO.     .   ",
"         OO     +   ",
"        .OXO    O+  ",
"         OXXOO.OOO  ",
"          OXXXXOO   ",
"         .XXooX     ",
"         .XoooO     ",
"      .  OOXO@      ",
"      ++OOO O       ",
"       .O           ",
"                    ",
"                    ",
"                    ",
"                    ",
"       .            ",
"       oX           ",
"      XX.           ",
"       .O           ",
"        O           ",
"         O          ",
"         O          ",
"        .O.O    .   ",
"         OXO    +   ",
"         OXO. .  +  ",
"         .OXXOOOO.  ",
"         OXXoXOOO   ",
"     .  .XooooX     ",
"     + OOOXo@O      ",
"      +OOO O        ",
"      .             ",
"                    ",
"                    ",
"                    ",
"                    ",
"        .           ",
"       XXoX         ",
"        .X.         ",
"         O          ",
"         O          ",
"         O          ",
"          O         ",
"         .O.        ",
"         OXO        ",
"         OXO    .   ",
"        .OXO..  +   ",
"    .   OXXXXXOOO+  ",
"     +  OXoooXOOO.  ",
"     +OOOXooo       ",
"     .OO  O@O       ",
"                    ",
"                    ",
"                    ",
"                    ",
};
