/* XPM */
static char * C1_xpm[] = {
"20 320 8 1",
" 	c None",
".	c #A1A1A1A1A1A1",
"X	c #C1C1C1C1C1C1",
"o	c #B0B0B0B0B0B0",
"O	c #909090909090",
"+	c #0000FFFF0000",
"@	c #FFFF00000000",
"#	c #B0B000000000",
"                    ",
"                    ",
"                    ",
"         .          ",
"        .X.         ",
"        oXo         ",
"        OXO         ",
"         o          ",
"   X     o     X    ",
"   O     o     O    ",
"   O. .  o  . .O    ",
"   OO.ooOoOoo.OO    ",
"    OO.oXXXo.OO     ",
"     OO+XXX+OO      ",
"      O+XXX+O       ",
"       O.@.O        ",
"         #          ",
"                    ",
"                    ",
"                    ",
"                    ",
"                    ",
"                    ",
"                    ",
"           O.       ",
"          .oX       ",
"     o    oXo       ",
"    O     OXO       ",
"    O     o         ",
"   OO.   OO         ",
"    O.oO X          ",
"    OO.oOo      X   ",
"    OO.oXoOoO  O    ",
"     O+XXXooo..O    ",
"      +XXX+.OOO     ",
"      .@@+.OO       ",
"        O           ",
"                    ",
"                    ",
"                    ",
"                    ",
"                    ",
"                    ",
"                    ",
"      X             ",
"     O      OOO     ",
"    OO      oXO     ",
"    O.     .XoO     ",
"    OoO    o.       ",
"    OooO  o         ",
"    Oooo o          ",
"    O.+Xo           ",
"    O+XXXoO         ",
"     @XX+ooO   X    ",
"     #@+.ooo.OO     ",
"       OOOOOOO      ",
"                    ",
"                    ",
"                    ",
"                    ",
"                    ",
"                    ",
"                    ",
"        X           ",
"      OO            ",
"     OO             ",
"     O.             ",
"    OO.O    OooO    ",
"    OO.o    XXX.    ",
"    .+oO  ooO.o     ",
"    +XXXooO         ",
"   O@XXXO           ",
"    @XXooO          ",
"    O++O.o          ",
"      OOO..  X      ",
"       OOOOOO       ",
"          O         ",
"                    ",
"                    ",
"                    ",
"                    ",
"                    ",
"                    ",
"                    ",
"        OOOX        ",
"       OO.          ",
"      OO.           ",
"     OO.o.          ",
"    O++oo           ",
"    .XXXO    Oo.    ",
"   #@XXXoooooXXX.   ",
"    .XXXO    Oo.    ",
"    O++oo           ",
"     OO.o.          ",
"      OO.           ",
"       OO.          ",
"        OOOX        ",
"                    ",
"                    ",
"                    ",
"                    ",
"                    ",
"                    ",
"          O         ",
"       OOOOOO       ",
"      OOO..  o      ",
"    .++..o          ",
"    @XXooO          ",
"   O@XXXO           ",
"    +XXooXO         ",
"    .+oO  OoOo.     ",
"    O.oo    XXo.    ",
"    OOoO    OoXO    ",
"     O.             ",
"     O.             ",
"      OO            ",
"        X           ",
"                    ",
"                    ",
"                    ",
"                    ",
"                    ",
"                    ",
"                    ",
"       OOOOOOO      ",
"     #@+.ooo.OO     ",
"     @XX+ooO   X    ",
"    O+XXXoO         ",
"    O.+Xo           ",
"    Oooo o          ",
"    OooO  o         ",
"    OoO    o.       ",
"    O.     .XoO     ",
"    OO      oXO     ",
"     O      OOO     ",
"      X             ",
"                    ",
"                    ",
"                    ",
"                    ",
"                    ",
"                    ",
"                    ",
"        O           ",
"      O@@+.OO       ",
"      +XXX+OOO      ",
"     O+XXXo...OO    ",
"    OOOoXXOoO  O    ",
"    OO.oOo      X   ",
"    O.oO o          ",
"   OO.   Oo         ",
"    O     o         ",
"    O     OXO       ",
"     X    .Xo       ",
"          oXo       ",
"           .O       ",
"                    ",
"                    ",
"                    ",
"                    ",
"                    ",
"                    ",
"                    ",
"         #          ",
"       O.@.O        ",
"      O+XXX+O       ",
"     OO+XXX+OO      ",
"    OO.oXXXo.OO     ",
"   OO.ooOoOoo.OO    ",
"   O. .  o  . .O    ",
"   O     o     O    ",
"   X     o     X    ",
"         o          ",
"        OXO         ",
"        oXo         ",
"        .X.         ",
"         .          ",
"                    ",
"                    ",
"                    ",
"                    ",
"                    ",
"                    ",
"           O        ",
"       OO.+@@.      ",
"     OOO.+XXX+      ",
"    O..oooXXX+O     ",
"    O  OoOoXo.OO    ",
"   X      oOo.OO    ",
"          X Oo.O    ",
"         OO   .OO   ",
"         o     O    ",
"       OXO     O    ",
"       oXo    o     ",
"       Xo.          ",
"       O.           ",
"                    ",
"                    ",
"                    ",
"                    ",
"                    ",
"                    ",
"                    ",
"                    ",
"      OOOOOOO       ",
"     OO.ooo.+@#     ",
"    X   Ooo+XX@     ",
"         OoXXX+O    ",
"           oX+.O    ",
"          o oooO    ",
"         o  OooO    ",
"       .o    OoO    ",
"     OoX.     .O    ",
"     OXo      OO    ",
"     OOO      O     ",
"             X      ",
"                    ",
"                    ",
"                    ",
"                    ",
"                    ",
"                    ",
"                    ",
"         O          ",
"       OOOOOO       ",
"      X  ..OOO      ",
"          o.O++O    ",
"          OooXX@    ",
"           OXXX@O   ",
"         OooXXX+    ",
"     o.Ooo  Oo+.    ",
"    .XXX    o.OO    ",
"    OooO    O.OO    ",
"             .O     ",
"             O      ",
"            OO      ",
"           X        ",
"                    ",
"                    ",
"                    ",
"                    ",
"                    ",
"                    ",
"                    ",
"        XOOO        ",
"          .OO       ",
"           .OO      ",
"          .o.OO     ",
"           oo++O    ",
"    .oO    OXXX.    ",
"   .XXXoooooXXX@#   ",
"    .oO    OXXX.    ",
"           oo++O    ",
"          .o.OO     ",
"           .OO      ",
"          .OO       ",
"        XOOO        ",
"                    ",
"                    ",
"                    ",
"                    ",
"                    ",
"                    ",
"           X        ",
"            OO      ",
"             .O     ",
"             .O     ",
"    OXoO    OoOO    ",
"    .oXX    oo.O    ",
"     .oOoO  Oo+.    ",
"         OXooXX+    ",
"           OXXX@O   ",
"          OooXX@    ",
"          o..++.    ",
"      o  ..OOO      ",
"       OOOOOO       ",
"         O          ",
"                    ",
"                    ",
"                    ",
"                    ",
"                    ",
"                    ",
"                    ",
"             X      ",
"     OOO      O     ",
"     OXo      OO    ",
"     OoX.     .O    ",
"       .o    OoO    ",
"         o  OooO    ",
"          o oooO    ",
"           oX+.O    ",
"         OoXXX+O    ",
"    X   Ooo+XX@     ",
"     OO.ooo.+@#     ",
"      OOOOOOO       ",
"                    ",
"                    ",
"                    ",
"                    ",
"                    ",
"                    ",
"                    ",
"                    ",
"       O.           ",
"       oXo          ",
"       oX.    X     ",
"       OXO     O    ",
"         o     O    ",
"         oO   .OO   ",
"          o Oo.O    ",
"   X      oOo.OO    ",
"    O  OoOXXoOOO    ",
"    OO...oXXX+O     ",
"      OOO+XXX+      ",
"       OO.+@@O      ",
"           O        ",
"                    ",
"                    ",
"                    "};
