/* XPM */
static char *ga0[] = {
/* width height ncolors chars_per_pixel */
"20  640 8 1"
/* colors */
"  c #000000",
"g c #00ff00",
"o c #949494",
"O c #a5a5a5",
"% c #b5b5b5",
"@ c #c6c6c6",
"x c #b50000",
"X c #ff0000",
/* pixels */
"                    ",
"                    ",
"        OxxO        ",
"       o@XX@o       ",
"       O@OO@O       ",
" @     %@@@@%     @ ",
" @     og@@go    @@ ",
" @@     oggo     @@ ",
" go  o  o%%o  o  og ",
" goo o  o%%o  o oog ",
" ggooo oO%%Oo ooogg ",
" gogOo%%gOOg%%oOgog ",
" oogOg%Og@@gO%gOgoo ",
" o OOgOg@gg@gOgOO o ",
"   oO%Og@@@ggO%Oo   ",
"   o %gg@@@@gg% o   ",
"     %ggoXXogg%     ",
"      o% xx %o      ",
"                    ",
"                    ",
"                    ",
"                    ",
"         Oxxx       ",
"  @     o@XX@       ",
"  @     O@OO@o      ",
"  @     %@@@@O      ",
"  g@    og@@g%      ",
" go  o  ogggoo     @",
" goo o  o%%o     @@ ",
" ggooo  o%%o  o  o@ ",
" oogOo%oO%%Oo o oog ",
" oogOg%%gOOgo ooogg ",
"  OOgOgg@@@g%%oOggg ",
"  oO%Og@gg@g%gOgog  ",
"  o %gg@@@ggOgOO o  ",
"    %gg@@@@gO%Oo o  ",
"     o%oXXogg% o    ",
"       xxx %g%      ",
"                    ",
"                    ",
"                    ",
"                    ",
"   @       Ox       ",
"   @     Oo@XxO     ",
"   @@    %@OX@o     ",
"  go     o@@O@O     ",
"  go  o  g@@@@%     ",
" ggoo o  ogggo      ",
" gogoo  oo%%o       ",
"ooogOo oO%%o      @@",
"  OOg%%%g%%o  o  @@@",
"  oOgOOgOOgOo o  og ",
" o O%Og@@@g%%ooooog ",
"   %gg@@gg@O%oOggg  ",
"   %gg@@@ggOggOgog  ",
"   o%goX@@gO%OOoo   ",
"      xXoggg%Oo o   ",
"       x %g% o      ",
"          o         ",
"                    ",
"                    ",
"     @              ",
"    @               ",
"    @@     o@xx     ",
"   go     %@OXxO    ",
"  goo    o%@OO@o    ",
"  ggo oo  g@@@@O    ",
" oogooo  ogg@@%     ",
"  ogOo o o%gooo     ",
"  OOgg%oO%%%o       ",
" oOOg%OgO%%o       @",
" o %Oggg@OOo  o  @@@",
"  %%gg@g@@g% o   @@ ",
"   gg@@@g@O%ooooog  ",
"  o%go@@ggg%gOgggg  ",
"     xX@@gOgOOgog   ",
"     xxogg%%OOoo    ",
"       %%g% o  o    ",
"        o   o       ",
"                    ",
"       @            ",
"      @             ",
"     @@             ",
"    go@     o O     ",
"   ggo     %O@xx    ",
"  oogo o  o%@OXxO   ",
" ooogooo   g@@O@    ",
"   gOoo   og@@@Oo   ",
"  oOgg%ooo%ggg%%    ",
" oO%g%O%O%%%o o     ",
"  %%OgOgO%%o        ",
"  %ggg@@@OO         ",
"  ogg@@g@g%o oo  @ @",
"  %%o@@@@OO%oo  @@@ ",
"    xX@ggg%gooooo@  ",
"    xxoggOggOggog   ",
"      %gg%%Ogoog    ",
"      %o%%Oo oo     ",
"          o  o      ",
"                    ",
"        @@          ",
"       @            ",
"     gg@@           ",
"    ggo             ",
"  ooogo      OoO    ",
"   oggo o  o%@@xx   ",
"   OOOoo   o@@OXx   ",
" ooOOgo   oo@@OO@   ",
"   %g%%%oo%gg@@@o   ",
"  %%OgOgO%%%gg%%    ",
"  gggg@@O%%oo o     ",
" o%g@@g@@OO         ",
"  %o@@@gggoo o      ",
"   xX@@ggO% oo      ",
"   xxo@gg%goo   @@@ ",
"     gggOggOoooo@@  ",
"     %g%%OOgggog    ",
"     o % OOoogg     ",
"        oo  o       ",
"                    ",
"         @@         ",
"       gg@          ",
"     ggoo@          ",
"   ooogo            ",
"    oggo            ",
"   oOOOooo   %OoO   ",
"  oOOgoo    o@@@x   ",
"   %%g%%o  og@OXXx  ",
"  %gOOO%Ooo%g@@O@O  ",
" ogggg@gg%%%g@@@o   ",
"  %g@@g@O%%oogo%O   ",
"   o@@g@OgOo        ",
"  xXX@@@g%o         ",
"   xo@ggO%  oo      ",
"    gggOO%oo        ",
"    %gg%ggOoo  @@   ",
"    o%%OOOggooo@@@  ",
"        oOooggg     ",
"       o  ogg       ",
"          o         ",
"            @       ",
"       ggg@@        ",
"    oogggoo@        ",
"      ogoo          ",
"   ooOgOo           ",
"    OOOoooo         ",
"  %%%gg%    o%Oo    ",
"  ggOO%%oo  og@@@x  ",
"  %ggggggOoog@@OXx  ",
"   o@@@@O%%%g@@OXx  ",
"  xX@@g@O%%%gg@@@O  ",
"  xX@@g@gOoooo%Oo   ",
"  xo@g@g%o          ",
"   %gggg%%          ",
"   oggOOgoooo       ",
"    %%%gOOo         ",
"      OOggoo @@     ",
"     ooOoogoog@@@   ",
"        ooggg       ",
"                    ",
"                    ",
"      oogggg@@@     ",
"       oogoo@       ",
"    ooOggoo         ",
"     OOOOo          ",
"   %%%ggoooo        ",
"  oggOO%%           ",
"  %ggggO%o   o%Oo   ",
"   o@@@ggOooog@@@O  ",
"  xX@@g@O%%%g@@OXx  ",
"  xX@@g@O%%%g@@OXx  ",
"   o@g@ggOooog@@@O  ",
"  %ggggO%o   o%Oo   ",
"  oggOO%%           ",
"   %%%ggoooo        ",
"     OOOOo          ",
"    ooOggoo         ",
"       oogoo@@      ",
"      oogggg@@@     ",
"                    ",
"                    ",
"        ooggg       ",
"     ooOoogoog@@@   ",
"      OOggoo @      ",
"    %%%gOOo         ",
"   oggOOgoooo       ",
"   %gggg%%          ",
"  xo@@@g%o          ",
"  xX@@g@gOoooo%Oo   ",
"  xX@@g@O%%%gg@@@O  ",
"   o@g@@O%%%g@@OXx  ",
"  %ggggggOoog@@OXx  ",
"  ggOO%%oo  og@@@x  ",
"  %%%gg%    o%Oo    ",
"    OOOoooo         ",
"   ooOgOo           ",
"      ogoo          ",
"    oogggoo@        ",
"       ggg@@        ",
"            @       ",
"          o         ",
"       o  ogg       ",
"        oOooggg     ",
"    o%%OOOggooo@@@  ",
"    %gg%ggOoo  @    ",
"    gggOO%oo        ",
"   xo@@gO%  oo      ",
"  xXX@@@g%o         ",
"   o@@g@OgOo        ",
"  %g@gg@O%%oogo%O   ",
" ogggg@gg%%%g@@@o   ",
"  %gOOO%Ooo%g@@O@O  ",
"   %%g%%o  og@OXXx  ",
"  oOOgoo    o@@@x   ",
"   oOOOooo   %OoO   ",
"    oggo            ",
"   ooogo            ",
"     ggoo@          ",
"       gg@@         ",
"         @@         ",
"                    ",
"        oo  o       ",
"     o % OOoogg     ",
"     %g%%OOgggog    ",
"     gggOggOoooo@@  ",
"   xxo@gg%goo   @ @ ",
"   xX@@@gO% oo      ",
"  %o@@@gggoo o      ",
" o%g@gg@@OO         ",
"  gggg@@O%%oo o     ",
"  %%OgOgO%%%gg%%    ",
"   %g%%%oo%gg@@@o   ",
" ooOOgo   oo@@OO@   ",
"   OOOoo   o@@OXx   ",
"   oggo o  o%@@xx   ",
"  ooogo      OoO    ",
"    ggo             ",
"     gg@@           ",
"       @@           ",
"        @@          ",
"                    ",
"          o  o      ",
"      %o%%Oo oo     ",
"      %gg%%Ogoog    ",
"    xxoggOggOgggg   ",
"    xX@@gg%gooooo@  ",
"  %%o@@@@OO%oo  @@@ ",
"  oggg@g@g%o oo    @",
"  %ggg@@@OOo        ",
"  %%OgOgO%%o        ",
" oO%g%O%O%%%o o     ",
"  oOgg%o o%ggg%%    ",
"   gOoo   og@@@Oo   ",
" ooogooo   g@@O@    ",
"  oogo o  o%@OXxO   ",
"   goo     %O@xx    ",
"    go@     o O     ",
"     @@@            ",
"      @             ",
"       @            ",
"                    ",
"        o   o       ",
"       %%g% o  o    ",
"     xxogg%%OOoo    ",
"     xX@@gOgOOgog   ",
"  o%go@@@gg%gOgggg  ",
"   gg@@@g@O%ooooog  ",
"  %%gggg@@g% o   @@ ",
" o %Oggg@OOo  o  @ @",
" oOOg%OgO%%o       @",
"  OOgg%oO%%%o       ",
"  ogOo o o%gooo     ",
" oogooo  ogg@@%     ",
"  ggo oo  g@@@@O    ",
"  goo    o%@OO@o    ",
"   go     %@OXxO    ",
"    @@     o@xx     ",
"    @@              ",
"     @              ",
"                    ",
"                    ",
"          o         ",
"       x %g% o      ",
"      xXoggg%Oo o   ",
"   o%goX@@gO%OOoo   ",
"   %gg@@@@gOggOgog  ",
"   %ggg@gg@O%oOggg  ",
" o O%Og@@@g%%ooooog ",
"  oOgOOgOOgOo o  og ",
"  OOg%%%g%%o  o  @@@",
"ooogOo oO%%o       @",
" gogoo  oo%%o       ",
" ggoo o  ogggo      ",
"  go  o  g@@@@%     ",
"  go     o@@O@O     ",
"   @@    %@OX@o     ",
"   @@    Oo@XxO     ",
"   @       Ox       ",
"                    ",
"                    ",
"                    ",
"                    ",
"       xxx %g%      ",
"     o%oXXogg% o    ",
"    %gg@@@@gO%Oo o  ",
"  o %ggg@@@gOgOO o  ",
"  oO%Og@gg@g%gOgog  ",
"  OOgOgg@@@g%%oOggg ",
" oogOg%%gOOgo ooogg ",
" oogOo%oO%%Oo o oog ",
" ggooo  o%%o  o  o@ ",
" goo o  o%%o     @@ ",
" go  o  ogggoo     @",
"  g@    og@@g%      ",
"  @@    %@@@@O      ",
"  @     O@OO@o      ",
"  @     o@XX@       ",
"         Oxxx       ",
"                    ",
"                    ",
"                    ",
"                    ",
"      o% xx %o      ",
"     %ggoXXogg%     ",
"   o %gg@@@@gg% o   ",
"   oO%Ogg@@@gO%Oo   ",
" o OOgOg@gg@gOgOO o ",
" oogOg%Og@@gO%gOgoo ",
" gogOo%%gOOg%%oOgog ",
" ggooo oO%%Oo ooogg ",
" goo o  o%%o  o oog ",
" go  o  o%%o  o  og ",
" @@     oggo     @@ ",
" @@    og@@go     @ ",
" @     %@@@@%     @ ",
"       O@OO@O       ",
"       o@XX@o       ",
"        OxxO        ",
"                    ",
"                    ",
"                    ",
"                    ",
"      %g% xxx       ",
"    o %ggoXXo%o     ",
"  o oO%Og@@@@gg%    ",
"  o OOgOgg@@@gg% o  ",
"  gogOg%g@gg@gO%Oo  ",
" gggOo%%g@@@ggOgOO  ",
" ggooo ogOOg%%gOgoo ",
" goo o oO%%Oo%oOgoo ",
" @o  o  o%%o  ooogg ",
" @@     o%%o  o oog ",
"@     oogggo  o  og ",
"      %g@@go    @g  ",
"      O@@@@%     @  ",
"      o@OO@O     @  ",
"       @XX@o     @  ",
"       xxxO         ",
"                    ",
"                    ",
"                    ",
"         o          ",
"      o %g% x       ",
"   o oO%gggoXx      ",
"   ooOO%Og@@Xog%o   ",
"  gogOggOgg@@@gg%   ",
"  gggOo%O@gg@@gg%   ",
" gooooo%%g@@@gO%O o ",
" go  o oOgOOgOOgOo  ",
"@@@  o  o%%g%%%gOO  ",
"@@      o%%Oo oOgooo",
"       o%%oo  oogog ",
"      ogggo  o oogg ",
"     %@@@@g  o  og  ",
"     O@O@@o     og  ",
"     o@XO@%    @@   ",
"     OxX@oO     @   ",
"       xO       @   ",
"                    ",
"                    ",
"                    ",
"       o   o        ",
"    o  o %g%%       ",
"    ooOO%%ggoxx     ",
"   gogOOgOg@@Xx     ",
"  ggggOg%ggg@@og%o  ",
"  gooooo%O@g@@@gg   ",
" @@   o %g@@g@gg%%  ",
"@@@  o  oOO@gggO% o ",
"@       o%%OgO%gOOo ",
"       o%%%Oo%ggOO  ",
"     ooog%o o oOgo  ",
"     %@@ggo  ooogoo ",
"    O@@@@g  oo ogg  ",
"    o@OO@%o    oog  ",
"    OxXO@%     og   ",
"     xx@o     @@    ",
"               @    ",
"              @     ",
"                    ",
"                    ",
"      o  o          ",
"     oo oO%%o%      ",
"    googO%%gg%      ",
"   goggOggOggoxx    ",
"  @ooooog%ggg@Xx    ",
" @@@  oo%OO@@@@o%%  ",
"@ @  oo o%g@g@@ggo  ",
"         OO@@@ggg%  ",
"        o%%OgOgO%%  ",
"     o o%%%O%O%g%Oo ",
"    %%ggg%ooo%ggOo  ",
"   oO@@@go   ooOg   ",
"    @O@@g   ooogooo ",
"   OxXO@%o  o ogoo  ",
"    xx@O%     ogg   ",
"     O o     @og    ",
"             @@     ",
"             @      ",
"            @       ",
"                    ",
"       o  oo        ",
"     ggooOO % o     ",
"    gogggOO%%g%     ",
"  @@ooooOggOggg     ",
" @@@   oog%gg@oxx   ",
"      oo %Ogg@@Xx   ",
"      o ooggg@@@o%  ",
"         OO@@g@@g%o ",
"     o oo%%O@@gggg  ",
"    %%gg%%%OgOgO%%  ",
"   o@@@gg%oo%%%g%   ",
"   @OO@@oo   ogOOoo ",
"   xXO@@o   ooOOO   ",
"   xx@@%o  o oggo   ",
"    OoO      ogooo  ",
"             ogg    ",
"           @@gg     ",
"            @       ",
"          @@        ",
"         o          ",
"       ggo  o       ",
"     gggooOo        ",
"  @@@oooggOOO%%o    ",
"   @@  ooOgg%gg%    ",
"        oo%OOggg    ",
"      oo  %Ogg@ox   ",
"         o%g@@@XXx  ",
"        oOgO@g@@o   ",
"   O%ogoo%%O@g@@g%  ",
"   o@@@g%%%gg@ggggo ",
"  O@O@@g%ooO%OOOg%  ",
"  xXXO@go  o%%g%%   ",
"   x@@@o    oogOOo  ",
"   OoO%   oooOOOo   ",
"            oggo    ",
"            ogooo   ",
"          @oogg     ",
"          @gg       ",
"         @@         ",
"                    ",
"       gggoo        ",
"   @@@googooOoo     ",
"     @@ ooggOO      ",
"         oOOg%%%    ",
"       oooogOOggo   ",
"          %%gggg%   ",
"          o%g@g@ox  ",
"   oO%ooooOg@g@@Xx  ",
"  O@@@gg%%%O@g@@Xx  ",
"  xXO@@g%%%O@@@@o   ",
"  xXO@@gooOgggggg%  ",
"  x@@@go  oo%%OOgg  ",
"    oO%o    %gg%%%  ",
"         ooooOOO    ",
"           oOgOoo   ",
"          oogo      ",
"        @oogggoo    ",
"        @@ggg       ",
"       @            ",
"                    ",
"     @@@ggggoo      ",
"      @@oogoo       ",
"         ooggOoo    ",
"          oOOOO     ",
"        oooogg%%%   ",
"           %%OOggo  ",
"   oO%o   o%Ogggg%  ",
"  O@@@goooOgg@g@o   ",
"  xXO@@g%%%O@g@@Xx  ",
"  xXO@@g%%%O@g@@Xx  ",
"  O@@@goooOgg@@@o   ",
"   oO%o   o%Ogggg%  ",
"           %%OOggo  ",
"        oooogg%%%   ",
"          oOOOO     ",
"         ooggOoo    ",
"       @oogoo       ",
"     @@@ggggoo      ",
"                    ",
"       @            ",
"        @@ggg       ",
"        @oogggoo    ",
"          oogo      ",
"           oOgOoo   ",
"         ooooOOO    ",
"    oO%o    %gg%%%  ",
"  x@@@go  oo%%OOgg  ",
"  xXO@@gooOgggggg%  ",
"  xXO@@g%%%O@@g@o   ",
"  O@@@gg%%%O@g@@Xx  ",
"   oO%ooooOg@g@@Xx  ",
"          o%g@@@ox  ",
"          %%gggg%   ",
"       oooogOOggo   ",
"         oOOg%%%    ",
"      @ ooggOO      ",
"   @@@googooOoo     ",
"       gggoo        ",
"                    ",
"         @@         ",
"         @@gg       ",
"          @oogg     ",
"            ogooo   ",
"            oggo    ",
"   OoO%   oooOOOo   ",
"   x@@@o    oogOOo  ",
"  xXXO@go  o%%g%%   ",
"  O@O@@g%ooO%OOOg%  ",
"   o@@@g%%%gg@ggggo ",
"   O%ogoo%%O@gg@g%  ",
"        oOgO@g@@o   ",
"         o%g@@@XXx  ",
"      oo  %Og@@ox   ",
"        oo%OOggg    ",
"    @  ooOgg%gg%    ",
"  @@@oooggOOO%%o    ",
"     gggooOo        ",
"       ggo  o       ",
"         o          ",
"          @@        ",
"           @@       ",
"           @@gg     ",
"             ogg    ",
"    OoO      ogooo  ",
"   xx@@%o  o oggo   ",
"   xXO@@o   ooOOO   ",
"   @OO@@oo   ogOOoo ",
"   o@@@gg%oo%%%g%   ",
"    %%gg%%%OgOgO%%  ",
"     o oo%%O@@gggg  ",
"         OO@@gg@g%o ",
"      o ooggg@@@o%  ",
"      oo %Og@@@Xx   ",
" @ @   oog%gg@oxx   ",
"  @@ooooOggOggg     ",
"    gogggOO%%g%     ",
"     ggooOO % o     ",
"       o  oo        ",
"                    ",
"            @       ",
"             @      ",
"            @@@     ",
"     O o     @og    ",
"    xx@O%     oog   ",
"   OxXO@%o  o ogoo  ",
"    @O@@g   ooogooo ",
"   oO@@@go   ooOg   ",
"    %%ggg%o o%ggOo  ",
"     o o%%%O%O%g%Oo ",
"        o%%OgOgO%%  ",
"        oOO@@@ggg%  ",
"@    oo o%g@g@gggo  ",
" @@@  oo%OO@@@@o%%  ",
"  @ooooog%gg@@Xx    ",
"   ggggOggOggoxx    ",
"    googO%%gg%      ",
"     oo oO%%o%      ",
"      o  o          ",
"                    ",
"                    ",
"              @     ",
"              @@    ",
"     xx@o     @@    ",
"    OxXO@%     og   ",
"    o@OO@%o    oog  ",
"    O@@@@g  oo ogg  ",
"     %@@ggo  ooogoo ",
"     ooog%o o oOgo  ",
"       o%%%Oo%ggOO  ",
"@       o%%OgO%gOOo ",
"@ @  o  oOO@gggO% o ",
" @@   o %g@@gggg%%  ",
"  gooooo%O@g@@@gg   ",
"  ggggOg%gg@@@og%o  ",
"   gogOOgOg@@Xx     ",
"    ooOO%%ggoxx     ",
"    o  o %g%%       ",
"       o   o        ",
"                    ",
"                    ",
"                    ",
"       xO       @   ",
"     OxX@oO    @@   ",
"     o@XO@%    @@   ",
"     O@O@@o     og  ",
"     %@@@@g  o  og  ",
"      ogggo  o oogg ",
"       o%%oo  oogog ",
"@       o%%Oo oOgooo",
"@@@  o  o%%g%%%gOO  ",
" go  o oOgOOgOOgOo  ",
" gooooo%%g@@@gO%O o ",
"  gggOo%O@gg@ggg%   ",
"  gogOggOg@@@@gg%   ",
"   ooOO%Og@@Xog%o   ",
"   o oO%gggoXx      ",
"      o %g% x       ",
"         o          ",
"                    ",
"                    ",
"                    ",
"       xxxO         ",
"       @XX@o     @  ",
"      o@OO@O     @  ",
"      O@@@@%    @@  ",
"      %g@@go    @g  ",
"@     oogggo  o  og ",
" @@     o%%o  o oog ",
" @o  o  o%%o  ooogg ",
" goo o oO%%Oo%oOgoo ",
" ggooo ogOOg%%gOgoo ",
" gggOo%%g@@@ggOgOO  ",
"  gogOg%g@gg@gO%Oo  ",
"  o OOgOg@@@ggg% o  ",
"  o oO%Og@@@@gg%    ",
"    o %ggoXXo%o     ",
"      %g% xxx       ",
"                    ",
"                    ",
};
