/* XPM */
static char * mplasmacloud_xpm[] = {
"15 75 6 1",
" 	c None",
".	c #000060600000",
"X	c #000090900000",
"o	c #0000B0B00000",
"O	c #0000FFFF0000",
"+	c #B0B0FFFFB0B0",
"               ",
"               ",
"               ",
"               ",
"       .       ",
"     .XoX      ",
"     XOOOX.    ",
"    .oO+Oo.    ",
"     XOOOX     ",
"      XoX      ",
"      ..       ",
"               ",
"               ",
"               ",
"               ",
"               ",
"               ",
"     ..        ",
"    . . .  .   ",
"   ..XoXoX..   ",
"  . XoOoOXX.   ",
"   .oOoOOOo.   ",
"   .X.OO.Oo    ",
"   .XXoOOoX .  ",
"      XooX.    ",
"      ... .    ",
"               ",
"               ",
"               ",
"               ",
"               ",
"      .        ",
"    X.X..  ..  ",
" . Xo.. .Oo    ",
"   ..X.X.oOOX. ",
"  ...XoO..oOX. ",
"  .oOo.Oo..X . ",
" .. .o.OOX...  ",
" X. XOXooXX.. .",
"   . .oooOX.  .",
" ...ooOoOOo... ",
"   XOo.oOo. .  ",
"  . X ..X. ..  ",
"       .       ",
"               ",
"               ",
"   X           ",
".      X       ",
"  . o  .     . ",
" X .Oo  X.XX   ",
" X ....XX ooo. ",
"   . ..o.o X   ",
"  . o o.o  . . ",
" . .Oo . .  .  ",
" X .o..  oo  . ",
" X XXXo . o .. ",
"     oOo oOo .X",
"   X XXX   o . ",
"    .       .. ",
"   .  .     .  ",
"               ",
"  .            ",
" . ...         ",
" ...o. ..o ..  ",
"  .ooX. ..o  . ",
"  .. .  ..o.   ",
"  . .. ..    X ",
"   ..XX . .. . ",
" ... XX... .   ",
"  .o .  ...oo. ",
"  .o...  .XoX. ",
"  . .o....X..  ",
" ...XXoo    .  ",
"   ..XX. .    .",
"        ..    ."};
