/* XPM */
static char * C5_xpm[] = {
"20 320 7 1",
" 	c None",
".	c #000078780000",
"X	c #0000A0A00000",
"o	c #000078780000",
"O	c #0000C8C80000",
"+	c #0000FFFF0000",
"@	c #000078780000",
"                    ",
"                    ",
"      .      .      ",
"      X      X      ",
"  .   X .  . X   .  ",
" oX  .X.    .X.  Xo ",
"  X  XOX.  .XOX  X  ",
"  X..O+O@..@O+O..X  ",
" .XX@+++OXXO+++@XX. ",
" XXO+++++OO+++++OXX ",
" XXO+++++OO+++++OXX ",
" .XX@+++OXXO+++@XX. ",
"  X..O+O@..@O+O..X  ",
"  X  XOX.  .XOX  X  ",
" oX  .X.    .X.  Xo ",
"  .   X .  . X   .  ",
"      X      X      ",
"      .      .      ",
"                    ",
"                    ",
"                    ",
"                    ",
"      .      .      ",
"      X      X      ",
"  .   X .  . X   .  ",
" oX  .X.    .X.  Xo ",
"  X  XOX.  .XOX  X  ",
"  X..O+O@..@O+O..X  ",
" .XX@+++OXXO+++@XX. ",
" XXO+++++OO+++++OXX ",
" XXO+++++OO+++++OXX ",
" .XX@+++OXXO+++@XX. ",
"  X..O+O@..@O+O..X  ",
"  X  XOX.  .XOX  X  ",
" oX  .X.    .X.  Xo ",
"  .   X .  . X   .  ",
"      X      X      ",
"      .      .      ",
"                    ",
"                    ",
"                    ",
"                    ",
"      .      .      ",
"      X      X      ",
"  .   X .  . X   .  ",
" oX  .X.    .X.  Xo ",
"  X  XOX.  .XOX  X  ",
"  X..O+O@..@O+O..X  ",
" .XX@+++OXXO+++@XX. ",
" XXO+++++OO+++++OXX ",
" XXO+++++OO+++++OXX ",
" .XX@+++OXXO+++@XX. ",
"  X..O+O@..@O+O..X  ",
"  X  XOX.  .XOX  X  ",
" oX  .X.    .X.  Xo ",
"  .   X .  . X   .  ",
"      X      X      ",
"      .      .      ",
"                    ",
"                    ",
"                    ",
"                    ",
"      .      .      ",
"      X      X      ",
"  .   X .  . X   .  ",
" oX  .X.    .X.  Xo ",
"  X  XOX.  .XOX  X  ",
"  X..O+O@..@O+O..X  ",
" .XX@+++OXXO+++@XX. ",
" XXO+++++OO+++++OXX ",
" XXO+++++OO+++++OXX ",
" .XX@+++OXXO+++@XX. ",
"  X..O+O@..@O+O..X  ",
"  X  XOX.  .XOX  X  ",
" oX  .X.    .X.  Xo ",
"  .   X .  . X   .  ",
"      X      X      ",
"      .      .      ",
"                    ",
"                    ",
"                    ",
"                    ",
"      .      .      ",
"      X      X      ",
"  .   X .  . X   .  ",
" oX  .X.    .X.  Xo ",
"  X  XOX.  .XOX  X  ",
"  X..O+O@..@O+O..X  ",
" .XX@+++OXXO+++@XX. ",
" XXO+++++OO+++++OXX ",
" XXO+++++OO+++++OXX ",
" .XX@+++OXXO+++@XX. ",
"  X..O+O@..@O+O..X  ",
"  X  XOX.  .XOX  X  ",
" oX  .X.    .X.  Xo ",
"  .   X .  . X   .  ",
"      X      X      ",
"      .      .      ",
"                    ",
"                    ",
"                    ",
"                    ",
"      .      .      ",
"      X      X      ",
"  .   X .  . X   .  ",
" oX  .X.    .X.  Xo ",
"  X  XOX.  .XOX  X  ",
"  X..O+O@..@O+O..X  ",
" .XX@+++OXXO+++@XX. ",
" XXO+++++OO+++++OXX ",
" XXO+++++OO+++++OXX ",
" .XX@+++OXXO+++@XX. ",
"  X..O+O@..@O+O..X  ",
"  X  XOX.  .XOX  X  ",
" oX  .X.    .X.  Xo ",
"  .   X .  . X   .  ",
"      X      X      ",
"      .      .      ",
"                    ",
"                    ",
"                    ",
"                    ",
"      .      .      ",
"      X      X      ",
"  .   X .  . X   .  ",
" oX  .X.    .X.  Xo ",
"  X  XOX.  .XOX  X  ",
"  X..O+O@..@O+O..X  ",
" .XX@+++OXXO+++@XX. ",
" XXO+++++OO+++++OXX ",
" XXO+++++OO+++++OXX ",
" .XX@+++OXXO+++@XX. ",
"  X..O+O@..@O+O..X  ",
"  X  XOX.  .XOX  X  ",
" oX  .X.    .X.  Xo ",
"  .   X .  . X   .  ",
"      X      X      ",
"      .      .      ",
"                    ",
"                    ",
"                    ",
"                    ",
"      .      .      ",
"      X      X      ",
"  .   X .  . X   .  ",
" oX  .X.    .X.  Xo ",
"  X  XOX.  .XOX  X  ",
"  X..O+O@..@O+O..X  ",
" .XX@+++OXXO+++@XX. ",
" XXO+++++OO+++++OXX ",
" XXO+++++OO+++++OXX ",
" .XX@+++OXXO+++@XX. ",
"  X..O+O@..@O+O..X  ",
"  X  XOX.  .XOX  X  ",
" oX  .X.    .X.  Xo ",
"  .   X .  . X   .  ",
"      X      X      ",
"      .      .      ",
"                    ",
"                    ",
"                    ",
"                    ",
"      .      .      ",
"      X      X      ",
"  .   X .  . X   .  ",
" oX  .X.    .X.  Xo ",
"  X  XOX.  .XOX  X  ",
"  X..O+O@..@O+O..X  ",
" .XX@+++OXXO+++@XX. ",
" XXO+++++OO+++++OXX ",
" XXO+++++OO+++++OXX ",
" .XX@+++OXXO+++@XX. ",
"  X..O+O@..@O+O..X  ",
"  X  XOX.  .XOX  X  ",
" oX  .X.    .X.  Xo ",
"  .   X .  . X   .  ",
"      X      X      ",
"      .      .      ",
"                    ",
"                    ",
"                    ",
"                    ",
"      .      .      ",
"      X      X      ",
"  .   X .  . X   .  ",
" oX  .X.    .X.  Xo ",
"  X  XOX.  .XOX  X  ",
"  X..O+O@..@O+O..X  ",
" .XX@+++OXXO+++@XX. ",
" XXO+++++OO+++++OXX ",
" XXO+++++OO+++++OXX ",
" .XX@+++OXXO+++@XX. ",
"  X..O+O@..@O+O..X  ",
"  X  XOX.  .XOX  X  ",
" oX  .X.    .X.  Xo ",
"  .   X .  . X   .  ",
"      X      X      ",
"      .      .      ",
"                    ",
"                    ",
"                    ",
"                    ",
"      .      .      ",
"      X      X      ",
"  .   X .  . X   .  ",
" oX  .X.    .X.  Xo ",
"  X  XOX.  .XOX  X  ",
"  X..O+O@..@O+O..X  ",
" .XX@+++OXXO+++@XX. ",
" XXO+++++OO+++++OXX ",
" XXO+++++OO+++++OXX ",
" .XX@+++OXXO+++@XX. ",
"  X..O+O@..@O+O..X  ",
"  X  XOX.  .XOX  X  ",
" oX  .X.    .X.  Xo ",
"  .   X .  . X   .  ",
"      X      X      ",
"      .      .      ",
"                    ",
"                    ",
"                    ",
"                    ",
"      .      .      ",
"      X      X      ",
"  .   X .  . X   .  ",
" oX  .X.    .X.  Xo ",
"  X  XOX.  .XOX  X  ",
"  X..O+O@..@O+O..X  ",
" .XX@+++OXXO+++@XX. ",
" XXO+++++OO+++++OXX ",
" XXO+++++OO+++++OXX ",
" .XX@+++OXXO+++@XX. ",
"  X..O+O@..@O+O..X  ",
"  X  XOX.  .XOX  X  ",
" oX  .X.    .X.  Xo ",
"  .   X .  . X   .  ",
"      X      X      ",
"      .      .      ",
"                    ",
"                    ",
"                    ",
"                    ",
"      .      .      ",
"      X      X      ",
"  .   X .  . X   .  ",
" oX  .X.    .X.  Xo ",
"  X  XOX.  .XOX  X  ",
"  X..O+O@..@O+O..X  ",
" .XX@+++OXXO+++@XX. ",
" XXO+++++OO+++++OXX ",
" XXO+++++OO+++++OXX ",
" .XX@+++OXXO+++@XX. ",
"  X..O+O@..@O+O..X  ",
"  X  XOX.  .XOX  X  ",
" oX  .X.    .X.  Xo ",
"  .   X .  . X   .  ",
"      X      X      ",
"      .      .      ",
"                    ",
"                    ",
"                    ",
"                    ",
"      .      .      ",
"      X      X      ",
"  .   X .  . X   .  ",
" oX  .X.    .X.  Xo ",
"  X  XOX.  .XOX  X  ",
"  X..O+O@..@O+O..X  ",
" .XX@+++OXXO+++@XX. ",
" XXO+++++OO+++++OXX ",
" XXO+++++OO+++++OXX ",
" .XX@+++OXXO+++@XX. ",
"  X..O+O@..@O+O..X  ",
"  X  XOX.  .XOX  X  ",
" oX  .X.    .X.  Xo ",
"  .   X .  . X   .  ",
"      X      X      ",
"      .      .      ",
"                    ",
"                    ",
"                    ",
"                    ",
"      .      .      ",
"      X      X      ",
"  .   X .  . X   .  ",
" oX  .X.    .X.  Xo ",
"  X  XOX.  .XOX  X  ",
"  X..O+O@..@O+O..X  ",
" .XX@+++OXXO+++@XX. ",
" XXO+++++OO+++++OXX ",
" XXO+++++OO+++++OXX ",
" .XX@+++OXXO+++@XX. ",
"  X..O+O@..@O+O..X  ",
"  X  XOX.  .XOX  X  ",
" oX  .X.    .X.  Xo ",
"  .   X .  . X   .  ",
"      X      X      ",
"      .      .      ",
"                    ",
"                    ",
"                    ",
"                    ",
"      .      .      ",
"      X      X      ",
"  .   X .  . X   .  ",
" oX  .X.    .X.  Xo ",
"  X  XOX.  .XOX  X  ",
"  X..O+O@..@O+O..X  ",
" .XX@+++OXXO+++@XX. ",
" XXO+++++OO+++++OXX ",
" XXO+++++OO+++++OXX ",
" .XX@+++OXXO+++@XX. ",
"  X..O+O@..@O+O..X  ",
"  X  XOX.  .XOX  X  ",
" oX  .X.    .X.  Xo ",
"  .   X .  . X   .  ",
"      X      X      ",
"      .      .      ",
"                    ",
"                    "};
