/* XPM */
static char *sc0[] = {
/* width height ncolors chars_per_pixel */
"20  640 9 1"
/* colors */
"  c #000000",
"g c #00ff00",
"o c #909090",
"O c #a1a1a1",
"x c #b00000",
"@ c #b0b0b0",
"% c #c1c1c1",
"# c #d0d0d0",
"X c #ff0000",
/* pixels */
"                    ",
"                    ",
"                    ",
"         oo         ",
"         ##         ",
"        O##O        ",
"        o%%o        ",
"         @@         ",
"    %    @@    %    ",
"    o   o@@o   o    ",
"    gOo @%%@ oOg    ",
"    oOO@%%%%@OOo    ",
"     OO@g##g@OO     ",
"     o ogXXgo o     ",
"        oxxo        ",
"                    ",
"                    ",
"                    ",
"                    ",
"                    ",
"                    ",
"                    ",
"                    ",
"          oo        ",
"          ##        ",
"         O##O       ",
"         o%%o       ",
"    %    @@@        ",
"    o    @@         ",
"    gOo o@@o   %    ",
"    oOO @%%@   o    ",
"     OO@%%%% oOg    ",
"    o og###g@OOo    ",
"       gXXgoOO      ",
"       oxxo  o      ",
"                    ",
"                    ",
"                    ",
"                    ",
"                    ",
"                    ",
"                    ",
"                    ",
"            o       ",
"           #o       ",
"          O##       ",
"     %   o%%#O      ",
"     o    @@o       ",
"    gO  o @@        ",
"    oOo @@@         ",
"    OOO@%%%o   %    ",
"    o @g%%%@ o o    ",
"      og##g@OOg     ",
"      oxXXg@OOo     ",
"        xoo oO      ",
"                    ",
"                    ",
"                    ",
"                    ",
"                    ",
"                    ",
"                    ",
"                    ",
"                    ",
"            #o      ",
"      %    O##      ",
"     o    o%##      ",
"    gg    @@%O      ",
"    oOo  o@@        ",
"    OOO @@@@        ",
"    oO@%%%%o        ",
"     oog#%@    %    ",
"      oX##%@oOoo    ",
"      xxXg@OOOg     ",
"        o oOOo      ",
"           o        ",
"                    ",
"                    ",
"                    ",
"                    ",
"                    ",
"                    ",
"                    ",
"                    ",
"                    ",
"      o     O#o     ",
"     gO    o###     ",
"     OOo   @%#O     ",
"    OOO  o@@@o      ",
"    oO@@@%@@        ",
"     o@g%%@o        ",
"      g##%@         ",
"     oxX#g@         ",
"      xxg@@OO o     ",
"       o oOOOg      ",
"          oO        ",
"                    ",
"                    ",
"                    ",
"                    ",
"                    ",
"                    ",
"                    ",
"                    ",
"       o%           ",
"      go            ",
"     oOO    O##o    ",
"     OOo    %###    ",
"    oOO@ o@@@%O     ",
"     o@%@%@@@o      ",
"      g#%%@o        ",
"     oX##%@         ",
"      xXg%          ",
"      xoo@Oo  %     ",
"        oOOOgo      ",
"         oOog       ",
"                    ",
"                    ",
"                    ",
"                    ",
"                    ",
"                    ",
"                    ",
"                    ",
"        o%          ",
"      og            ",
"     OOOo    O      ",
"     oOO    o##oo   ",
"      @@@o @@%##    ",
"     ogg%%@@@%O     ",
"     oX#%%@  o      ",
"     xX#%%@o        ",
"      xgg@          ",
"      oo@Oo         ",
"         OOOo%      ",
"        oOog        ",
"                    ",
"                    ",
"                    ",
"                    ",
"                    ",
"                    ",
"                    ",
"                    ",
"       ogo%         ",
"       OO           ",
"     oOOo           ",
"      O@     oO     ",
"      og%@o @%##o   ",
"     og#%%@@@%##o   ",
"     xX#%%@@@oO     ",
"     xX#%@o         ",
"     ogg@           ",
"       oOOo         ",
"        OOO         ",
"       o ogo%       ",
"                    ",
"                    ",
"                    ",
"                    ",
"                    ",
"                    ",
"                    ",
"                    ",
"        ogo%        ",
"      oOOO          ",
"       OOo          ",
"      o@@           ",
"     ogg%@o  oO     ",
"     xX#%%@@@%##o   ",
"     xX#%%@@@%##o   ",
"     ogg%@o  oO     ",
"      o@@           ",
"       OOo          ",
"      oOOO          ",
"        ogo%        ",
"                    ",
"                    ",
"                    ",
"                    ",
"                    ",
"                    ",
"                    ",
"                    ",
"       o ogo%       ",
"        OOO         ",
"       oOOo         ",
"     ogg@           ",
"     xX#%@o         ",
"     xX#%%@@@oO     ",
"     og#%%@@@%##o   ",
"      og%@o @%##o   ",
"      O@     oO     ",
"     oOOo           ",
"       OO           ",
"       ogo%         ",
"                    ",
"                    ",
"                    ",
"                    ",
"                    ",
"                    ",
"                    ",
"                    ",
"        oOog        ",
"         OOOo%      ",
"      oo@Oo         ",
"      xgg@          ",
"     xX#%%@o        ",
"     oX#%%@  o      ",
"     ogg%%@@@%O     ",
"      @@@o @@%##    ",
"     oOO    o##oo   ",
"     OOOo    O      ",
"      og            ",
"        o%          ",
"                    ",
"                    ",
"                    ",
"                    ",
"                    ",
"                    ",
"                    ",
"                    ",
"         oOog       ",
"        oOOOgo      ",
"      xoo@Oo  %     ",
"      xXg%          ",
"     oX##%@         ",
"      g#%%@o        ",
"     o@%@%@@@o      ",
"    oOO@ o@@@%O     ",
"     OOo    %###    ",
"     oOO    O##o    ",
"      go            ",
"       o%           ",
"                    ",
"                    ",
"                    ",
"                    ",
"                    ",
"                    ",
"                    ",
"                    ",
"          oO        ",
"       o oOOOg      ",
"      xxg@@OOOo     ",
"     oxX#g@ o       ",
"      g##%@         ",
"     o@g%%%o        ",
"    oO@@@@@@        ",
"    OOO  o@@@o      ",
"     OO    @%#O     ",
"     g     o###     ",
"      o     O#o     ",
"                    ",
"                    ",
"                    ",
"                    ",
"                    ",
"                    ",
"                    ",
"                    ",
"                    ",
"           o        ",
"        o oOOo      ",
"      xxXg@OOOg     ",
"      oX##%@oOoo    ",
"     oog#%@    %    ",
"    oO@%%%%o        ",
"    OOO @@@@        ",
"    oOo  o@@        ",
"    gg    @@%O      ",
"     o    o%##      ",
"      %    O##      ",
"            #o      ",
"                    ",
"                    ",
"                    ",
"                    ",
"                    ",
"                    ",
"                    ",
"                    ",
"                    ",
"        xoo oO      ",
"      oxXXg@OOo     ",
"      og##g@OOg     ",
"    o @g%%%@ o o    ",
"    OOO@%%%o   %    ",
"    oOo @@@         ",
"    gO  o @@        ",
"     o    @@o       ",
"     %   o%%#O      ",
"          O##       ",
"           #o       ",
"            o       ",
"                    ",
"                    ",
"                    ",
"                    ",
"                    ",
"                    ",
"                    ",
"                    ",
"       oxxo  o      ",
"       gXXgoOO      ",
"    o og###g@OOo    ",
"     OO@%%%% oOg    ",
"    oOO @%%@   o    ",
"    gOo o@@o   %    ",
"    o    @@         ",
"    %    @@@        ",
"         o%%o       ",
"         O##O       ",
"          ##        ",
"          oo        ",
"                    ",
"                    ",
"                    ",
"                    ",
"                    ",
"                    ",
"                    ",
"                    ",
"        oxxo        ",
"     o ogXXgo o     ",
"     OO@g##g@OO     ",
"    oOO@%%%%@OOo    ",
"    gOo @%%@ oOg    ",
"    o   o@@o   o    ",
"    %    @@    %    ",
"         @@         ",
"        o%%o        ",
"        O##O        ",
"         ##         ",
"         oo         ",
"                    ",
"                    ",
"                    ",
"                    ",
"                    ",
"                    ",
"                    ",
"                    ",
"      o  oxxo       ",
"      OOogXXg       ",
"    oOO@g###go o    ",
"    gOo %%%%@OO     ",
"    o   @%%@ OOo    ",
"    %   o@@o oOg    ",
"         @@    o    ",
"        @@@    %    ",
"       o%%o         ",
"       O##O         ",
"        ##          ",
"        oo          ",
"                    ",
"                    ",
"                    ",
"                    ",
"                    ",
"                    ",
"                    ",
"                    ",
"      Oo oox        ",
"     oOO@gXXxo      ",
"     gOO@g##go      ",
"    o o @%%%g@ o    ",
"    %   o%%%@OOO    ",
"         @@@ oOo    ",
"        @@ o  Og    ",
"       o@@    o     ",
"      O#%%o   %     ",
"       ##O          ",
"       o#           ",
"       o            ",
"                    ",
"                    ",
"                    ",
"                    ",
"                    ",
"                    ",
"                    ",
"        o           ",
"      oOOo o        ",
"     gOOO@gXxx      ",
"    ooOo@%##Xo      ",
"    %    @%#goo     ",
"        o%%%%@Oo    ",
"        @@@@ OOO    ",
"        @@o  oOo    ",
"      O%@@    gg    ",
"      ##%o    o     ",
"      ##O    %      ",
"      o#            ",
"                    ",
"                    ",
"                    ",
"                    ",
"                    ",
"                    ",
"                    ",
"                    ",
"        Oo          ",
"      gOOOo o       ",
"     o OO@@gxx      ",
"         @g#Xxo     ",
"         @%##g      ",
"        o@%%g@o     ",
"        @@%@@@Oo    ",
"      o@@@o  OOO    ",
"     O#%@   oOO     ",
"     ###o    Og     ",
"     o#O     o      ",
"                    ",
"                    ",
"                    ",
"                    ",
"                    ",
"                    ",
"                    ",
"                    ",
"                    ",
"       goOo         ",
"      ogOOOo        ",
"     %  oO@oox      ",
"          %gXx      ",
"         @%##Xo     ",
"        o@%%#g      ",
"      o@@@%@%@o     ",
"     O%@@@o @OOo    ",
"    ###%    oOO     ",
"    o##O    OOo     ",
"            og      ",
"           %o       ",
"                    ",
"                    ",
"                    ",
"                    ",
"                    ",
"                    ",
"                    ",
"                    ",
"        goOo        ",
"      %oOOO         ",
"         oO@oo      ",
"          @ggx      ",
"        o@%%#Xx     ",
"      o  @%%#Xo     ",
"     O%@@@%%ggo     ",
"    ##%@@ o@@@      ",
"   oo##o    OOo     ",
"      O    oOOO     ",
"            go      ",
"          %o        ",
"                    ",
"                    ",
"                    ",
"                    ",
"                    ",
"                    ",
"                    ",
"                    ",
"       %ogo o       ",
"         OOO        ",
"         oOOo       ",
"           @ggo     ",
"         o@%#Xx     ",
"     Oo@@@%%#Xx     ",
"   o##%@@@%%#go     ",
"   o##%@ o@%go      ",
"     Oo     @O      ",
"           oOOo     ",
"           OO       ",
"         %ogo       ",
"                    ",
"                    ",
"                    ",
"                    ",
"                    ",
"                    ",
"                    ",
"                    ",
"        %ogo        ",
"          OOOo      ",
"          oOO       ",
"           @@o      ",
"     Oo  o@%ggo     ",
"   o##%@@@%%#Xx     ",
"   o##%@@@%%#Xx     ",
"     Oo  o@%ggo     ",
"           @@o      ",
"          oOO       ",
"          OOOo      ",
"        %ogo        ",
"                    ",
"                    ",
"                    ",
"                    ",
"                    ",
"                    ",
"                    ",
"                    ",
"         %ogo       ",
"           OO       ",
"           oOOo     ",
"     Oo     @O      ",
"   o##%@ o@%go      ",
"   o##%@@@%%#go     ",
"     Oo@@@%%#Xx     ",
"         o@%#Xx     ",
"           @ggo     ",
"         oOOo       ",
"         OOO        ",
"       %ogo o       ",
"                    ",
"                    ",
"                    ",
"                    ",
"                    ",
"                    ",
"                    ",
"                    ",
"          %o        ",
"            go      ",
"      O    oOOO     ",
"   oo##o    OOo     ",
"    ##%@@ o@@@      ",
"     O%@@@%%ggo     ",
"      o  @%%#Xo     ",
"        o@%%#Xx     ",
"          @ggx      ",
"         oO@oo      ",
"      %oOOO         ",
"        goOo        ",
"                    ",
"                    ",
"                    ",
"                    ",
"                    ",
"                    ",
"                    ",
"                    ",
"           %o       ",
"            og      ",
"    o##O    OOo     ",
"    ###%    oOO     ",
"     O%@@@o @OOo    ",
"      o@@@%@%@o     ",
"        o@%%#g      ",
"         @%##Xo     ",
"          %gXx      ",
"     %  oO@oox      ",
"      ogOOOo        ",
"       goOo         ",
"                    ",
"                    ",
"                    ",
"                    ",
"                    ",
"                    ",
"                    ",
"                    ",
"                    ",
"     o#O     o      ",
"     ###o     g     ",
"     O#%@    OO     ",
"      o@@@o  OOO    ",
"        @@@@@@Oo    ",
"        o%%%g@o     ",
"         @%##g      ",
"       o @g#Xxo     ",
"     oOOO@@gxx      ",
"      gOOOo o       ",
"        Oo          ",
"                    ",
"                    ",
"                    ",
"                    ",
"                    ",
"                    ",
"                    ",
"                    ",
"      o#            ",
"      ##O    %      ",
"      ##%o    o     ",
"      O%@@    gg    ",
"        @@o  oOo    ",
"        @@@@ OOO    ",
"        o%%%%@Oo    ",
"    %    @%#goo     ",
"    ooOo@%##Xo      ",
"     gOOO@gXxx      ",
"      oOOo o        ",
"        o           ",
"                    ",
"                    ",
"                    ",
"                    ",
"                    ",
"                    ",
"                    ",
"       o            ",
"       o#           ",
"       ##O          ",
"      O#%%o   %     ",
"       o@@    o     ",
"        @@ o  Og    ",
"         @@@ oOo    ",
"    %   o%%%@OOO    ",
"    o o @%%%g@ o    ",
"     gOO@g##go      ",
"     oOO@gXXxo      ",
"      Oo oox        ",
"                    ",
"                    ",
"                    ",
"                    ",
"                    ",
"                    ",
"                    ",
"                    ",
"        oo          ",
"        ##          ",
"       O##O         ",
"       o%%o         ",
"        @@@    %    ",
"         @@    o    ",
"    %   o@@o oOg    ",
"    o   @%%@ OOo    ",
"    gOo %%%%@OO     ",
"    oOO@g###go o    ",
"      OOogXXg       ",
"      o  oxxo       ",
"                    ",
"                    ",
"                    ",
"                    ",
"                    ",
};
