/* XPM */
static char * C0_xpm[] = {
/* width height colors chars_per_color */
"20  320 7 1"
/* colors */
" 	c None",
".	c #0000A0A00000",
"X	c #0000C8C80000",
"o	c #0000FFFF0000",
"O	c #000078780000",
"+	c #000078780000",
"@	c #B0B000000000",
/* pixels */
"                    ",
"                    ",
"        .X.         ",
"       .XoX.        ",
"        .o.         ",
"        O.O         ",
"         .          ",
"         .          ",
"         .          ",
"       O...O        ",
"      O.XoX.O       ",
"      ..oOo..       ",
"      O.o+o.O       ",
"        @+@         ",
"         +          ",
"         O          ",
"         O          ",
"                    ",
"                    ",
"                    ",
"                    ",
"                    ",
"           .X       ",
"          .Xo.      ",
"          .oX.      ",
"          O..       ",
"          . O       ",
"          .         ",
"       O. .         ",
"      O.X..         ",
"     O..ooXO        ",
"      .oOo..O       ",
"       @+o..        ",
"       ++@ O        ",
"       O            ",
"       O            ",
"                    ",
"                    ",
"                    ",
"                    ",
"                    ",
"                    ",
"                    ",
"            . .     ",
"             XX.    ",
"            OoX.    ",
"            .O..    ",
"       OO  . O      ",
"      .....         ",
"     O..Xo.         ",
"      .oOX.O        ",
"      @+oo.         ",
"      +@o..O        ",
"     O   OO         ",
"                    ",
"                    ",
"                    ",
"                    ",
"                    ",
"                    ",
"                    ",
"                    ",
"                    ",
"                    ",
"                    ",
"               ..   ",
"        O    O.XX   ",
"      O..O   .ooX.  ",
"      ..X. ...O..   ",
"      @ooo.         ",
"      ++OX.         ",
"    O+@oo..O        ",
"   O    ..O         ",
"        O           ",
"                    ",
"                    ",
"                    ",
"                    ",
"                    ",
"                    ",
"                    ",
"                    ",
"                    ",
"                    ",
"                    ",
"                    ",
"       O.O          ",
"       ...O     .   ",
"      @ooX.   O.X.  ",
"   OO+++Oo.....ooX  ",
"      @ooX.   O.X.  ",
"       ...O     .   ",
"       O.O          ",
"                    ",
"                    ",
"                    ",
"                    ",
"                    ",
"                    ",
"                    ",
"                    ",
"                    ",
"                    ",
"                    ",
"                    ",
"         O          ",
"        ..O         ",
"    OO+@o..O        ",
"      ++OoX.        ",
"      @ooo.         ",
"       ..X....O..   ",
"      O..O    .oX.  ",
"        O    O.XoX  ",
"               ..   ",
"                    ",
"                    ",
"                    ",
"                    ",
"                    ",
"                    ",
"                    ",
"                    ",
"                    ",
"                    ",
"                    ",
"      O   O         ",
"       +@...        ",
"       @+o..O       ",
"       ooOX.O       ",
"      O.oXo.        ",
"      O.....        ",
"       O O ..       ",
"            ..O .   ",
"            O.oX    ",
"             .oX.   ",
"             ..X    ",
"                    ",
"                    ",
"                    ",
"                    ",
"                    ",
"                    ",
"                    ",
"       O            ",
"        O           ",
"        +           ",
"        @+@.O       ",
"        o+o..       ",
"      O.oOoX.O      ",
"       ..Xo.O       ",
"       O...         ",
"        O  .        ",
"           .        ",
"           ..O      ",
"           Oo.      ",
"           .oX.     ",
"           .XX.     ",
"            .       ",
"                    ",
"                    ",
"                    ",
"                    ",
"                    ",
"          O         ",
"          O         ",
"          +         ",
"         @+@        ",
"       O.o+o.O      ",
"       ..oOo..      ",
"       O.XoX.O      ",
"        O...O       ",
"          .         ",
"          .         ",
"          .         ",
"         O.O        ",
"         .o.        ",
"        .XoX.       ",
"         .X.        ",
"                    ",
"                    ",
"                    ",
"                    ",
"                    ",
"                    ",
"            O       ",
"            O       ",
"        O @++       ",
"        ..o+@       ",
"       O..oOo.      ",
"        OXoo..O     ",
"         ..X.O      ",
"         . .O       ",
"         .          ",
"       O .          ",
"       ..O          ",
"      .Xo.          ",
"      .oX.          ",
"       X.           ",
"                    ",
"                    ",
"                    ",
"                    ",
"                    ",
"                    ",
"                    ",
"              O     ",
"         OO  +O     ",
"        O..o++      ",
"        O.o++@      ",
"        OXoOo.      ",
"         ..X..O     ",
"         ..O..      ",
"      O .  O        ",
"    ..O.            ",
"    .XoO            ",
"    .XX             ",
"     . .            ",
"                    ",
"                    ",
"                    ",
"                    ",
"                    ",
"                    ",
"                    ",
"                    ",
"                    ",
"           O        ",
"         O..    O   ",
"        O..oo@+O    ",
"         .XO++      ",
"         .ooo@      ",
"   ..O... .X..      ",
"  .Xoo.   O..O      ",
"   XX.O    O        ",
"   ..               ",
"                    ",
"                    ",
"                    ",
"                    ",
"                    ",
"                    ",
"                    ",
"                    ",
"                    ",
"                    ",
"                    ",
"                    ",
"          O.O       ",
"   .     O...       ",
"  .X.O   .Xoo@      ",
"  Xoo.....oO+++OO   ",
"  .X.O   .Xoo@      ",
"   .     O...       ",
"          O.O       ",
"                    ",
"                    ",
"                    ",
"                    ",
"                    ",
"                    ",
"                    ",
"                    ",
"                    ",
"                    ",
"                    ",
"                    ",
"   ..               ",
"  XoX.O    O        ",
"  .Xo.    O..O      ",
"   ..O....X..       ",
"         .ooo@      ",
"        .XoO++      ",
"        O..o@+OO    ",
"         O..        ",
"          O         ",
"                    ",
"                    ",
"                    ",
"                    ",
"                    ",
"                    ",
"                    ",
"                    ",
"                    ",
"    X..             ",
"   .Xo.             ",
"    Xo.O            ",
"   . O..            ",
"       .. O O       ",
"        .....O      ",
"        .oXo.O      ",
"       O.XOoo       ",
"       O..o+@       ",
"        ...@+       ",
"         O   O      ",
"                    ",
"                    ",
"                    ",
"                    ",
"                    ",
"                    ",
"                    ",
"       .            ",
"     .XX.           ",
"     .Xo.           ",
"      .oO           ",
"      O..           ",
"        .           ",
"        .  O        ",
"         ...O       ",
"       O.oX..       ",
"      O.XoOo.O      ",
"       ..o+o        ",
"       O.@+@        ",
"           +        ",
"           O        ",
"            O       ",
"                    ",
"                    ",
"                    ",
};
