/* XPM */
static char * mtorpcloud_xpm[] = {
"9 45 5 1",
" 	c None",
".	c #00004C4C0000",
"X	c #000065650000",
"o	c #00009D9D0000",
"O	c #B1B1FFFFB0B0",
"         ",
"         ",
"   .X.   ",
"  .oOo.  ",
"  XOoOX  ",
"  .oOo.  ",
"   .X.   ",
"         ",
"         ",
"         ",
"   X...  ",
"  .oXo.  ",
"..oOooo. ",
" .XoXOX. ",
" .ooOoo. ",
"  .XoX.  ",
"   ... . ",
"         ",
"   .     ",
" ..X.oo. ",
" .ooooo. ",
" oo.XXXX.",
" OoXXooo.",
" o.oXXo. ",
" ..oOoX. ",
" XXXoXX  ",
"  . ..   ",
"         ",
"  X...oX ",
" XXX .XX ",
"o.X..... ",
"X.X...XX ",
"X..X..XX ",
" X..X X. ",
" .X XXX. ",
" .XXoX   ",
"    ..   ",
"  .   .  ",
"X . .X X.",
"  ... .  ",
"  X..... ",
" ...X..  ",
". ....X..",
"   .   XX",
" .X... . "};
